<?xml version="1.0" encoding="UTF-8"?>
<svg width="114px" height="91px" viewBox="0 0 114 91" version="1.1" xmlns="http://www.w3.org/2000/svg" xmlns:xlink="http://www.w3.org/1999/xlink">
    <!-- Generator: Sketch 51.3 (57544) - http://www.bohemiancoding.com/sketch -->
    <title>Combined Shape</title>
    <desc>Created with Sketch.</desc>
    <defs></defs>
    <g id="Page-1" stroke="none" stroke-width="1" fill="none" fill-rule="evenodd">
        <g id="assets" transform="translate(-1000.000000, -975.000000)" fill="#FFFFFF">
            <g id="icon-20" transform="translate(1000.000000, 975.000000)">
                <path d="M58.1266,2.45605 C58.1266,2.45605 62.9701,1.21405 64.8121,1.29055 C66.0871,1.34305 69.9226,2.19655 69.9226,2.19655 C69.9226,2.19655 76.4506,4.97455 78.2896,5.67805 C80.1301,6.38155 88.2616,10.47655 89.2726,11.14405 C90.2821,11.81155 100.7206,20.16355 102.0916,22.09255 C103.4626,24.02305 108.0601,28.17205 110.2231,30.96805 C112.3861,33.76255 113.0521,42.31105 113.0521,42.31105 C113.0521,42.31105 111.2746,51.51655 109.6036,58.45555 C107.8411,60.28555 105.7936,61.90855 103.9456,63.63505 C102.9421,64.57105 101.8621,65.28055 100.6666,65.94655 C100.0621,66.27805 99.4471,66.59005 98.8201,66.88105 C98.1481,67.26955 97.7026,67.80205 97.0681,68.23105 C96.2746,68.76505 95.2576,69.17155 94.5376,69.79255 C93.8236,70.40905 93.2791,71.33155 92.6761,72.05005 C91.8421,73.05055 90.9511,73.93855 89.9866,74.81455 C88.4596,76.20505 87.0046,77.41405 85.1806,78.42505 C83.2666,79.48405 81.2566,80.34355 79.3306,81.37405 C78.6301,81.83005 77.8681,82.12255 77.0446,82.25005 C75.5041,82.60255 74.3461,83.25205 72.9691,84.05605 C70.1296,85.71205 67.2181,87.25555 64.2376,88.64605 C59.3941,90.90655 54.3466,91.43305 49.0501,90.67555 C45.9241,90.22855 42.9586,89.11405 40.0141,88.03555 C38.2411,87.38455 36.4021,86.96005 34.6351,86.28955 C32.9341,85.64305 31.2931,84.86305 29.5771,84.25255 C28.6126,83.91655 27.6421,83.60605 26.6611,83.32105 C25.2586,82.83355 24.3541,82.10005 23.2201,81.15655 C21.3736,79.62055 19.2631,78.51055 17.6056,76.73155 C15.4546,74.42155 13.8241,71.59105 12.1216,68.94805 C9.8446,65.40955 8.1751,61.57105 6.1321,57.90205 C4.4866,54.94555 3.4426,52.05955 2.6101,48.80005 C1.8046,45.63805 0.6226,42.40705 0.2536,39.15805 C-0.0449,36.54205 -0.0509,33.97405 0.5386,31.39405 C0.9541,29.58355 1.6381,28.13605 2.5846,26.54905 C3.6301,24.79855 4.6876,22.91755 6.0676,21.39955 C7.0456,20.46505 8.0206,19.52755 8.9896,18.58405 C10.6861,16.88605 12.3346,15.19405 14.1091,13.57705 C16.8901,11.04805 19.5511,8.22655 22.6741,6.11305 C24.5491,4.84255 26.7841,3.35755 28.9861,2.75155 C31.2601,2.12755 33.5476,1.82005 35.8726,1.48405 C36.8926,1.33105 37.9036,1.13755 38.9071,0.90205 C40.5301,0.57355 41.8891,0.51955 43.5331,0.59455 C45.8296,0.70105 48.2431,-0.04745 50.4826,0.47905 C51.5296,0.78355 52.5661,1.11355 53.5951,1.47205 C55.1011,1.95655 56.5981,2.07205 58.1266,2.45605 Z M30.9764739,53.7159415 C31.6541424,49.9887648 34.093749,48.091293 38.15976,45.9905206 L42.2935378,43.8897483 C49.0702228,40.4336389 53.6106018,36.2998611 53.6106018,28.8455076 C53.6106018,19.5614491 45.2752792,14.7500028 36.4655887,14.7500028 C28.8757015,14.7500028 22.3023171,19.0870812 19.4561094,25.050564 L25.961727,31.5561816 C28.3335667,26.8125021 32.1962772,23.9662944 36.9399567,23.9662944 C41.0737345,23.9662944 43.5133411,26.1348336 43.5133411,28.9810413 C43.5133411,31.0818136 42.7001389,33.2503528 37.6176252,35.8254931 L34.974718,37.1130633 C23.1155193,43.0765461 19.4561094,50.2598322 19.4561094,61.4413624 L19.4561094,63 L53.4073012,63 L53.4073012,53.7159415 L30.9764739,53.7159415 Z M58.1172751,39.2138356 C58.1172751,53.512641 64.9617269,63.7454353 76.9564594,63.7454353 C88.883425,63.7454353 95.7956437,53.512641 95.7956437,39.2138356 C95.7956437,24.9150303 88.883425,14.7500028 76.9564594,14.7500028 C64.9617269,14.7500028 58.1172751,24.9150303 58.1172751,39.2138356 Z M85.7661499,39.2138356 C85.7661499,48.4978941 82.7166417,54.5291437 76.9564594,54.5291437 C71.1285103,54.5291437 68.1467689,48.4978941 68.1467689,39.2138356 C68.1467689,29.9297772 71.1285103,23.9662944 76.9564594,23.9662944 C82.7166417,23.9662944 85.7661499,29.9297772 85.7661499,39.2138356 Z" id="Combined-Shape"></path>
            </g>
        </g>
    </g>
</svg>