<?xml version="1.0" encoding="utf-8"?>
<!-- Generator: Adobe Illustrator 17.1.0, SVG Export Plug-In . SVG Version: 6.00 Build 0)  -->
<!DOCTYPE svg PUBLIC "-//W3C//DTD SVG 1.1//EN" "http://www.w3.org/Graphics/SVG/1.1/DTD/svg11.dtd">
<svg version="1.1" xmlns="http://www.w3.org/2000/svg" xmlns:xlink="http://www.w3.org/1999/xlink" x="0px" y="0px"
	 viewBox="0 0 367.3 120.5" enable-background="new 0 0 367.3 120.5" xml:space="preserve">
<g id="Layer_1">
	<g>
		<path fill="#FF4242" d="M20.8,88.7c1.2,7.4,6.8,13,15.9,13c7.4,0,13-2.7,17.3-8.2l13.6,12.7c-6.2,7.8-15.2,14.3-30.3,14.3
			C16,120.5,0,106.2,0,84c0-21.4,14.3-37.5,34.8-37.5c22.8,0,34.1,18.3,34.1,36.2c0,2.5-0.1,6.1-0.1,6.1H20.8z M35.2,64.5
			c-7.6,0-12.1,4.8-13.4,10.5h25.4C46.8,69.1,42,64.5,35.2,64.5"/>
		<path fill="#FF4242" d="M122.1,67.1h-3.2c-11.4,0-19.6,7.2-19.6,22.2v29.6H78.8V48.2H99v6.3c3.9-4.6,10.4-7.4,17.6-7.4
			c2.5,0,3.5,0,5.5,0.1V67.1z"/>
		<path fill="#FF4242" d="M172.5,48.2h20.6v70.7h-20.2V114c-4.3,4.5-10.8,6.5-17.6,6.5c-16.4,0-26.4-11.1-26.4-31.2V48.2h20.6v40.3
			c0,7.6,3.5,13.1,10.8,13.1c8.9,0,12.1-6.3,12.1-17.2V48.2z"/>
		<path fill="#FF4242" d="M238.8,46.5c8.1,0,14.6,3,18.2,6.2V17.7h20.5v101.2h-20.2v-5.1c-3.8,3.6-10.5,6.6-18.5,6.6
			c-19.5,0-35.4-14.1-35.4-36.9C203.5,61.2,219.3,46.5,238.8,46.5 M240.8,65.1c-9.4,0-16.5,7.5-16.5,18.5c0,11,7.1,18.5,16.5,18.5
			c9.4,0,16.4-7.5,16.4-18.5C257.3,72.6,250.2,65.1,240.8,65.1"/>
		<path fill="#FF4242" d="M301.4,17.7c6.6,0,12,5.3,12,12c0,6.5-5.3,11.8-12,11.8c-6.6,0-11.8-5.3-11.8-11.8
			C289.6,23,294.8,17.7,301.4,17.7"/>
		<rect x="291.2" y="48.2" fill="#FF4242" width="20.6" height="70.7"/>
		<path fill="#FF4242" d="M331.3,93.8V66.9H322V48h9.2V28.3h20.3V48h15.7v18.9h-15.7v24.4c0,7.1,3.5,8.7,9.4,8.7h6.1v18.8
			c0,0-5.5,0.3-11.1,0.3C339.2,119,331.3,110.1,331.3,93.8"/>
		<g>
			<path fill="#FF4242" d="M5.3,41.5V21.3c11.8,0,21.3-9.6,21.3-21.3h20.2C46.8,22.9,28.2,41.5,5.3,41.5z"/>
		</g>
	</g>
</g>
<g id="Guides">
</g>
</svg>
