<?xml version="1.0" encoding="UTF-8"?>
<svg xmlns="http://www.w3.org/2000/svg" id="Calque_1" data-name="Calque 1" viewBox="0 0 369.01 103.58">
  <defs>
    <style>.cls-1{fill:#ef4747;}</style>
  </defs>
  <title>Érudit-logo20ans</title>
  <path class="cls-1" d="M112.27,288.43c.74,4.71,4.34,8.32,10.17,8.32a13.29,13.29,0,0,0,11.09-5.27l8.69,8.13c-4,5-9.7,9.15-19.41,9.15-13.59,0-23.84-9.15-23.84-23.38,0-13.68,9.15-24,22.27-24,14.6,0,21.81,11.74,21.81,23.2,0,1.57-.09,3.88-.09,3.88Zm9.24-15.52a8.34,8.34,0,0,0-8.59,6.75h16.27a7.32,7.32,0,0,0-7.67-6.75" transform="translate(-98.96 -231.61)" />
  <path class="cls-1" d="M102.35,258.19V245.28A13.69,13.69,0,0,0,116,231.61h12.91A26.61,26.61,0,0,1,102.35,258.19Z" transform="translate(-98.96 -231.61)" />
  <path class="cls-1" d="M177.15,274.57h-2c-7.3,0-12.57,4.62-12.57,14.23v18.94H149.43V262.46h12.94v4.07a14.66,14.66,0,0,1,11.27-4.71c1.57,0,2.22,0,3.51.09Z" transform="translate(-98.96 -231.61)" />
  <path class="cls-1" d="M209.43,262.46h13.21v45.28H209.71v-3.14c-2.77,2.87-6.93,4.16-11.27,4.16-10.53,0-16.91-7.12-16.91-20V262.46h13.21v25.78c0,4.9,2.22,8.41,6.93,8.41,5.73,0,7.76-4.07,7.76-11Z" transform="translate(-98.96 -231.61)" />
  <path class="cls-1" d="M251.9,261.36a18,18,0,0,1,11.64,4V243h13.12v64.78H263.72v-3.23a17.5,17.5,0,0,1-11.83,4.25c-12.48,0-22.64-9.06-22.64-23.66,0-14.32,10.17-23.75,22.64-23.75m1.29,11.92c-6,0-10.54,4.8-10.54,11.83s4.53,11.83,10.54,11.83,10.53-4.81,10.53-11.83-4.53-11.83-10.53-11.83" transform="translate(-98.96 -231.61)" />
  <path class="cls-1" d="M292,242.93a7.62,7.62,0,1,1,0,15.25,7.62,7.62,0,0,1,0-15.25" transform="translate(-98.96 -231.61)" />
  <rect class="cls-1" x="186.46" y="30.86" width="13.22" height="45.28" />
  <path class="cls-1" d="M311.1,291.67V274.48h-5.91V262.37h5.91V249.71h13v12.66h10.07v12.11H324.13V290.1c0,4.53,2.22,5.54,6,5.54H334v12s-3.51.19-7.12.19c-10.72,0-15.8-5.73-15.8-16.17" transform="translate(-98.96 -231.61)" />
  <path class="cls-1" d="M428.68,265.48c-6.27,0-9.48,6.41-9.48,16.4s3.21,16.47,9.48,16.47,9.48-6.49,9.48-16.47S434.87,265.48,428.68,265.48Z" transform="translate(-98.96 -231.61)" />
  <path class="cls-1" d="M464.93,270.61c-2.33-3-7.27-7.47-8.75-9.55s-12.7-11.06-13.79-11.78-9.83-5.12-11.81-5.88-9-3.75-9-3.75a55,55,0,0,0-5.5-1c-2-.08-7.19,1.25-7.19,1.25-1.64-.41-3.25-.54-4.87-1.06q-1.66-.58-3.35-1.07c-2.41-.57-5,.24-7.48.13a19.1,19.1,0,0,0-5,.33q-1.62.38-3.26.63a59.8,59.8,0,0,0-7.41,1.36,24.94,24.94,0,0,0-6.79,3.61c-3.36,2.27-6.22,5.31-9.21,8-1.91,1.74-3.68,3.56-5.51,5.39q-1.56,1.52-3.14,3a34,34,0,0,0-3.75,5.54,17.29,17.29,0,0,0-2.2,5.21,24.51,24.51,0,0,0-.31,8.35c.4,3.5,1.67,7,2.54,10.37a39.51,39.51,0,0,0,3.79,9.79c2.2,3.95,4,8.08,6.44,11.88a58.15,58.15,0,0,0,5.9,8.37c1.78,1.91,4.05,3.11,6,4.76a11.31,11.31,0,0,0,3.7,2.33q1.58.46,3.14,1c1.85.66,3.61,1.5,5.44,2.19s3.88,1.18,5.79,1.88a48.39,48.39,0,0,0,9.72,2.84,28.19,28.19,0,0,0,16.34-2.18c3.21-1.5,6.34-3.16,9.39-4.94a15,15,0,0,1,4.39-1.94,6.2,6.2,0,0,0,2.46-.94c2.07-1.11,4.23-2,6.29-3.17a27,27,0,0,0,5.17-3.88,30.06,30.06,0,0,0,2.89-3,20.1,20.1,0,0,1,2-2.43,28.12,28.12,0,0,1,2.72-1.68c.68-.46,1.16-1,1.88-1.45s1.34-.65,2-1a17.44,17.44,0,0,0,3.53-2.49c2-1.86,4.19-3.6,6.09-5.57,1.8-7.46,3.71-17.37,3.71-17.37S467.25,273.61,464.93,270.61Zm-61,26.87v10H367.38v-1.68c0-12,3.94-19.75,16.69-26.17l2.84-1.39c5.47-2.77,6.34-5.1,6.34-7.36,0-3.06-2.62-5.39-7.07-5.39-5.1,0-9.26,3.06-11.81,8.16l-7-7a20.26,20.26,0,0,1,18.29-11.08c9.48,0,18.44,5.18,18.44,15.16,0,8-4.88,12.46-12.17,16.18l-4.45,2.26c-4.37,2.26-7,4.3-7.73,8.31Zm24.78,10.79c-12.9,0-20.26-11-20.26-26.39s7.36-26.31,20.26-26.31,20.26,10.93,20.26,26.31S441.51,308.26,428.68,308.26Z" transform="translate(-98.96 -231.61)" />
</svg>
