<?xml version="1.0" encoding="utf-8"?>
<!-- Generator: Adobe Illustrator 24.1.0, SVG Export Plug-In . SVG Version: 6.00 Build 0)  -->
<svg version="1.1" id="Calque_1" xmlns="http://www.w3.org/2000/svg" xmlns:xlink="http://www.w3.org/1999/xlink" x="0px" y="0px"
	 viewBox="0 0 430.6 128.6" style="enable-background:new 0 0 430.6 128.6;" xml:space="preserve">
<style type="text/css">
	.st0{fill:#FFFFFF;}
</style>
<polygon class="st0" points="399.9,0 399.9,2.2 428.4,2.2 428.4,126.5 399.9,126.5 399.9,128.6 430.6,128.6 430.6,0 "/>
<polygon class="st0" points="0,0 0,128.6 30.6,128.6 30.6,126.5 2.2,126.5 2.2,2.2 30.6,2.2 30.6,0 "/>
<path class="st0" d="M31.7,43.2L31.7,43.2c-0.2-8.9,6.9-16.2,15.7-16.4c0.2,0,0.5,0,0.7,0c5.9,0,9.5,2,12.4,4.9l-4.4,5.1
	c-2.4-2.2-4.9-3.6-8.1-3.6c-5.3,0-9.1,4.4-9.1,9.8v0.1c0,5.4,3.7,9.9,9.1,9.9c3.6,0,5.8-1.4,8.3-3.7l4.4,4.5
	c-3.2,3.8-8,5.8-12.9,5.6c-8.8,0.1-16-6.9-16.2-15.6C31.7,43.5,31.7,43.3,31.7,43.2z"/>
<path class="st0" d="M77.5,43.2L77.5,43.2c0-9.1,7.1-16.4,16.8-16.4S111,34,111,43v0.1c0,9-7.1,16.3-16.8,16.3S77.5,52.1,77.5,43.2z
	 M103.8,43.2L103.8,43.2c0.2-5.4-3.9-9.8-9.2-10c-0.1,0-0.2,0-0.3,0c-5.6,0-9.4,4.4-9.4,9.8v0.1c-0.2,5.3,3.9,9.7,9.2,9.9
	c0.1,0,0.2,0,0.3,0C99.9,53,103.8,48.5,103.8,43.2z"/>
<path class="st0" d="M139.5,27.1h6.4l13.5,31.8h-7.2l-2.9-7.1h-13.3l-2.9,7.1h-7L139.5,27.1z M146.8,45.6l-4.2-10.2l-4.2,10.2H146.8
	z"/>
<path class="st0" d="M177.8,27.3h6.9v25.2h15.7v6.3h-22.6V27.3z"/>
<path class="st0" d="M219.4,27.3h6.9v31.5h-6.9V27.3z"/>
<path class="st0" d="M255.1,33.7h-9.6v-6.4h26.1v6.4H262v25.1h-6.9L255.1,33.7z"/>
<path class="st0" d="M290.8,27.3h6.9v31.5h-6.9V27.3z"/>
<path class="st0" d="M317.7,43.2L317.7,43.2c0-9.1,7.1-16.4,16.8-16.4S351.2,34,351.2,43v0.1c0,9-7.1,16.3-16.8,16.3
	S317.7,52.1,317.7,43.2z M344,43.2L344,43.2c0.2-5.4-4-9.8-9.2-10c-0.1,0-0.2,0-0.3,0c-5.6,0-9.5,4.4-9.5,9.8v0.1
	c-0.2,5.3,4,9.7,9.2,9.9c0.1,0,0.2,0,0.3,0C340.1,53,344,48.5,344,43.2L344,43.2z"/>
<path class="st0" d="M370.9,27.3h6.4L392,46.7V27.3h6.9v31.5H393l-15.3-20v20h-6.9L370.9,27.3z"/>
<path class="st0" d="M164,92.4c0.4,0.1,0.9-0.1,1.2-0.4c0.5-1.1,0.8-2.4,0.7-3.6c0-1.9-0.4-3.4-0.9-3.8c-0.2-0.2-0.4-0.2-1.1-0.2
	h-2.5v8H164z M158.2,81.2h5.5c1.4-0.1,2.7,0.4,3.6,1.4c1.1,1.2,1.6,2.9,1.6,5.8s-0.5,4.7-1.8,5.9c-1,1-1.9,1.2-3.9,1.2h-1.9v6.1
	h-3.1V81.2z"/>
<path class="st0" d="M189.7,81.2v15c0.1,1.4-0.3,2.8-1.2,3.9c-1,1.2-2.5,1.9-4,1.9c-1.5,0-3-0.7-4-1.9c-0.9-1.1-1.3-2.5-1.2-3.9v-15
	h3.2v14.3c-0.1,0.7,0,1.5,0.2,2.2c0.6,1,1.9,1.3,2.9,0.7c0.3-0.2,0.6-0.4,0.7-0.7c0.3-0.7,0.3-1.4,0.2-2.2V81.2H189.7z"/>
<path class="st0" d="M206.1,98.5c0.6,0.1,1.1-0.1,1.6-0.4c0.6-0.6,0.9-1.5,0.8-2.3c0-0.9-0.3-1.9-0.9-2.6c-0.3-0.3-0.7-0.4-1.1-0.4
	h-2.4v5.7H206.1z M206,89.6c0.8,0,1-0.1,1.4-0.5c0.5-0.6,0.7-1.4,0.7-2.2c0-0.9-0.3-1.8-1-2.4c-0.3-0.2-0.7-0.3-1.1-0.2h-1.7v5.2
	H206z M201,81.2h4.2c2,0,2.8,0.2,3.8,1c1.4,1.2,2.2,2.9,2.2,4.7c0.1,1.6-0.5,3.1-1.6,4.2c1.4,1.2,2.2,2.9,2.2,4.8
	c0,3.6-2.1,5.8-5.6,5.8H201V81.2z"/>
<polygon class="st0" points="223.1,81.2 226.3,81.2 226.3,98.5 231.8,98.5 231.8,101.7 223.1,101.7 "/>
<rect x="241.4" y="81.2" class="st0" width="3.2" height="20.4"/>
<path class="st0" d="M266.2,97.4c-0.2,0.9-0.6,1.8-1.2,2.5c-1,1.3-2.5,2-4.2,2c-1.6,0-3-0.7-4-1.9c-1.1-1.5-1.6-3.9-1.6-8.5
	s0.6-7.3,1.9-8.8c1-1.1,2.4-1.7,3.9-1.7c2.6,0.1,4.8,2,5.2,4.6l-2.9,0.7c-0.6-1.7-1.1-2.1-2.2-2.1c-2,0-2.8,2.1-2.8,7.1
	c0,3.8,0.1,5.1,0.6,6.2c0.3,0.8,1.1,1.3,2,1.3c1.2-0.1,2.1-1,2.2-2.2L266.2,97.4z"/>
<path class="st0" d="M282.5,94l-1.4-7l-1.4,7H282.5z M279,81.2h4.1l4.1,20.4H284l-0.9-4.5H279l-0.9,4.5h-3.2L279,81.2z"/>
</svg>
