<?xml version="1.0" encoding="utf-8"?>
<!-- Generator: Adobe Illustrator 17.1.0, SVG Export Plug-In . SVG Version: 6.00 Build 0)  -->
<!DOCTYPE svg PUBLIC "-//W3C//DTD SVG 1.1//EN" "http://www.w3.org/Graphics/SVG/1.1/DTD/svg11.dtd">
<svg version="1.1" xmlns="http://www.w3.org/2000/svg" xmlns:xlink="http://www.w3.org/1999/xlink" x="0px" y="0px"
	 viewBox="0 0 68.8 120.5" enable-background="new 0 0 68.8 120.5" xml:space="preserve">
<g id="Layer_1">
	<path fill="#FF4242" d="M20.8,88.7c1.2,7.4,6.8,13,15.9,13c7.4,0,13-2.7,17.3-8.2l13.6,12.7c-6.2,7.8-15.2,14.3-30.3,14.3
		C16,120.5,0,106.2,0,84c0-21.4,14.3-37.5,34.8-37.5c22.8,0,34.1,18.3,34.1,36.2c0,2.5-0.1,6.1-0.1,6.1H20.8z M35.2,64.5
		c-7.6,0-12.1,4.8-13.4,10.5h25.4C46.8,69.1,42,64.5,35.2,64.5"/>
	<g>
		<path fill="#FF4242" d="M5.3,41.5V21.3c11.8,0,21.3-9.6,21.3-21.3h20.2C46.8,22.9,28.2,41.5,5.3,41.5z"/>
	</g>
</g>
<g id="Guides">
</g>
</svg>
