<?xml version="1.0" standalone="no"?>
<!DOCTYPE svg PUBLIC "-//W3C//DTD SVG 1.1//EN" "http://www.w3.org/Graphics/SVG/1.1/DTD/svg11.dtd" >
<svg>
<metadata>
Created by FontForge 20090622 at Wed Feb 17 20:08:25 2016
 By deploy user
Copyright (c) 2012 by 205 Corp. All rights reserved.
</metadata>
<defs>
<font id="Maax" horiz-adv-x="690" >
  <font-face 
    font-family="Maax"
    font-weight="400"
    font-stretch="normal"
    units-per-em="1000"
    panose-1="2 0 5 6 0 0 0 2 0 3"
    ascent="776"
    descent="-224"
    x-height="490"
    cap-height="701"
    bbox="-27 -219 1780 884"
    underline-thickness="50"
    underline-position="-50"
    unicode-range="U+0020-U+FB02"
  />
<missing-glyph horiz-adv-x="1848" 
d="M149 72h339v-72h-420v23q0 101 45 155q44 55 156 94l35 13q59 21 84.5 46t25.5 65t-33 65.5t-89 25.5q-113 0 -166 -116l-52 52q30 64 85.5 100t127.5 36q89 0 146 -45q58 -45 58 -124q0 -61 -37 -100.5t-109 -67.5l-55 -20q-74 -27 -106 -54q-30 -26 -35 -76zM625 274
q0 123 79 203q79 82 195 82t197 -82q82 -81 82 -203t-82 -204q-81 -81 -197 -81q-115 0 -195 81q-79 80 -79 204zM899 60q83 0 143 62t60 152t-60 151q-60 62 -143 62q-86 0 -141 -61q-56 -61 -56 -152t56 -153q55 -61 141 -61zM1703 81q0 72 -44 113.5t-114 41.5
q-44 0 -82.5 -22t-56.5 -54h-70l17 387h374v-72h-304l-12 -220q50 53 143 53q95 0 160 -61q66 -60 66 -166q0 -94 -68 -162q-67 -67 -181 -67q-135 0 -218 113l54 53q64 -94 169 -94q72 0 119 43q48 43 48 114z" />
    <glyph glyph-name="arrowwest" unicode="&#x3c;&#x2d;" horiz-adv-x="804" 
d="M358 602l50 -51l-227 -226h577v-71h-575l225 -220l-50 -57l-312 313z" />
    <glyph glyph-name="arrownorth" unicode="&#x2d;^" horiz-adv-x="716" 
d="M670 400l-50 -50l-224 224v-574h-76v574l-224 -224l-50 50l312 312z" />
    <glyph glyph-name="arroweast" unicode="&#x2d;&#x3e;" horiz-adv-x="804" 
d="M46 325h577l-227 226l50 51l312 -312l-312 -313l-50 57l225 220h-575v71z" />
    <glyph glyph-name="arrowwest2" unicode="&#x3c;&#x2d;&#x2d;" horiz-adv-x="1100" 
d="M358 602l50 -51l-227 -226h873v-71h-872l226 -220l-50 -57l-312 313z" />
    <glyph glyph-name="arrowwest3" unicode="&#x3c;&#x2d;&#x2d;&#x2d;" horiz-adv-x="1385" 
d="M358 602l50 -51l-227 -226h1158v-71h-1157l226 -220l-50 -57l-312 313z" />
    <glyph glyph-name="arroweast2" unicode="&#x2d;&#x2d;&#x3e;" horiz-adv-x="1100" 
d="M46 325h873l-227 226l50 51l312 -312l-312 -313l-50 57l226 220h-872v71z" />
    <glyph glyph-name="arroweast3" unicode="&#x2d;&#x2d;&#x2d;&#x3e;" horiz-adv-x="1385" 
d="M46 325h1158l-227 226l50 51l312 -312l-312 -313l-50 57l226 220h-1157v71z" />
    <glyph glyph-name=".notdef" horiz-adv-x="1848" 
d="M149 72h339v-72h-420v23q0 101 45 155q44 55 156 94l35 13q59 21 84.5 46t25.5 65t-33 65.5t-89 25.5q-113 0 -166 -116l-52 52q30 64 85.5 100t127.5 36q89 0 146 -45q58 -45 58 -124q0 -61 -37 -100.5t-109 -67.5l-55 -20q-74 -27 -106 -54q-30 -26 -35 -76zM625 274
q0 123 79 203q79 82 195 82t197 -82q82 -81 82 -203t-82 -204q-81 -81 -197 -81q-115 0 -195 81q-79 80 -79 204zM899 60q83 0 143 62t60 152t-60 151q-60 62 -143 62q-86 0 -141 -61q-56 -61 -56 -152t56 -153q55 -61 141 -61zM1703 81q0 72 -44 113.5t-114 41.5
q-44 0 -82.5 -22t-56.5 -54h-70l17 387h374v-72h-304l-12 -220q50 53 143 53q95 0 160 -61q66 -60 66 -166q0 -94 -68 -162q-67 -67 -181 -67q-135 0 -218 113l54 53q64 -94 169 -94q72 0 119 43q48 43 48 114z" />
    <glyph glyph-name=".null" horiz-adv-x="0" 
 />
    <glyph glyph-name="nonmarkingreturn" horiz-adv-x="333" 
 />
    <glyph glyph-name="space" unicode=" " horiz-adv-x="308" 
 />
    <glyph glyph-name="exclam" unicode="!" horiz-adv-x="291" 
d="M181 211h-76v490h76v-490zM91 42q0 23 15.5 39t38.5 16t38.5 -16t15.5 -39q0 -22 -15.5 -37.5t-38.5 -15.5q-22 0 -38 15.5t-16 37.5z" />
    <glyph glyph-name="quotedbl" unicode="&#x22;" horiz-adv-x="429" 
d="M85 456v245h72v-245h-72zM271 456v245h72v-245h-72z" />
    <glyph glyph-name="numbersign" unicode="#" horiz-adv-x="784" 
d="M85 205v69h134l43 153h-124v69h144l59 205h69l-59 -205h171l58 205h71l-59 -205h114v-69h-134l-43 -153h124v-69h-143l-57 -205h-71l58 205h-171l-58 -205h-70l58 205h-114zM503 427h-171l-44 -153h171z" />
    <glyph glyph-name="dollar" unicode="$" horiz-adv-x="650" 
d="M363 -114h-71v105q-72 7 -132 40.5t-97 85.5l52 54q65 -91 177 -108v260l-14 3q-87 15 -142 63q-56 48 -56 129q0 82 61 133q62 51 151 59v105h71v-105q114 -13 200 -105l-51 -56q-61 73 -149 88v-249l11 -2q103 -16 158 -67t55 -133q0 -79 -61 -134q-61 -53 -163 -61
v-105zM364 311h-1v-251q67 5 107.5 38.5t40.5 86.5q0 101 -147 126zM156 521q0 -96 136 -121v239q-60 -6 -98 -38.5t-38 -79.5z" />
    <glyph glyph-name="percent" unicode="%" horiz-adv-x="695" 
d="M186 712q52 0 90 -38q37 -37 37 -90q0 -54 -37 -91t-90 -37q-55 0 -92 37t-37 91q0 53 37 90q38 38 92 38zM186 519q25 0 43 18.5t18 46.5q0 29 -18 47.5t-43 18.5q-26 0 -44.5 -19t-18.5 -47t18.5 -46.5t44.5 -18.5zM382 116q0 54 37 91q38 38 92 38q52 0 90 -38
q37 -37 37 -91q0 -53 -37 -90t-90 -37q-55 0 -92 37t-37 90zM511 51q25 0 43 18.5t18 46.5q0 29 -18 47.5t-43 18.5t-44 -19t-19 -47t18.5 -46.5t44.5 -18.5zM174 0h-81l428 701h80z" />
    <glyph glyph-name="ampersand" unicode="&#x26;" horiz-adv-x="669" 
d="M609 0h-94l-56 71q-79 -82 -191 -82q-59 0 -104 19.5t-69.5 50.5t-36.5 64t-12 66q0 127 123 191l36 19q-44 56 -60 88q-16 33 -16 76q0 67 46 108t123 41t122 -45q45 -43 45 -111q0 -92 -102 -151l-47 -27l148 -191q48 74 71 166h77q-28 -123 -101 -225zM269 57
q84 0 147 70l-167 216l-15 -8q-60 -31 -87 -65t-27 -81q0 -52 40 -92t109 -40zM203 563q0 -42 50 -106l19 -24l38 21q81 42 81 103q0 38 -26.5 62.5t-69.5 24.5t-67.5 -22t-24.5 -59z" />
    <glyph glyph-name="quotesingle" unicode="'" horiz-adv-x="243" 
d="M85 456v245h72v-245h-72z" />
    <glyph glyph-name="parenleft" unicode="(" horiz-adv-x="360" 
d="M157 260q0 -121 43.5 -221.5t136.5 -194.5l-53 -49q-204 198 -204 465q0 266 204 465l53 -49q-93 -95 -136.5 -195.5t-43.5 -220.5z" />
    <glyph glyph-name="parenright" unicode=")" horiz-adv-x="360" 
d="M203 260q0 121 -43.5 221.5t-136.5 194.5l53 49q204 -198 204 -465q0 -266 -204 -465l-53 49q93 95 136.5 195.5t43.5 220.5z" />
    <glyph glyph-name="asterisk" unicode="*" horiz-adv-x="458" 
d="M157 441l-58 43l80 100l-122 27l19 70l121 -39l-4 127h73l-5 -127l121 39l19 -70l-122 -27l80 -100l-58 -43l-72 106z" />
    <glyph glyph-name="plus" unicode="+" horiz-adv-x="630" 
d="M70 212v68h208v210h71v-210h211v-68h-211v-212h-71v212h-208z" />
    <glyph glyph-name="comma" unicode="," horiz-adv-x="268" 
d="M199 114l-108 -239h-80l95 239h93z" />
    <glyph glyph-name="hyphen" unicode="-" horiz-adv-x="502" 
d="M422 228h-342v68h342v-68z" />
    <glyph glyph-name="period" unicode="." horiz-adv-x="302" 
d="M150 108q26 0 43.5 -17t17.5 -43q0 -25 -17.5 -42t-43.5 -17q-25 0 -42 17t-17 42t17 42.5t42 17.5z" />
    <glyph glyph-name="slash" unicode="/" horiz-adv-x="531" 
d="M186 0h-79l295 701h79z" />
    <glyph glyph-name="zero" unicode="0" horiz-adv-x="618" 
d="M438 139q46 79 46 212q0 132 -46 211q-45 79 -129 79q-83 0 -130 -80q-46 -79 -46 -210q0 -132 46 -211q47 -80 130 -80q84 0 129 79zM72 217q-32 134 0 268q34 141 123 196q49 31 114 31q64 0 113 -31q90 -54 124 -196q32 -134 0 -268q-34 -143 -124 -198
q-50 -30 -113 -30q-65 0 -114 30q-89 56 -123 198z" />
    <glyph glyph-name="one" unicode="1" horiz-adv-x="527" 
d="M68 0v72h178v515q-64 -50 -178 -50v68q65 3 116.5 27t73.5 69h65v-629h169v-72h-424z" />
    <glyph glyph-name="two" unicode="2" horiz-adv-x="577" 
d="M138 72h367v-72h-448v23q0 107 48 181q50 75 175 137l19 9q69 35 100.5 70.5t31.5 94.5q0 56 -41.5 91t-106.5 35q-118 0 -174 -134l-52 53q32 72 89.5 112t135.5 40q94 0 160 -54t66 -154q0 -70 -40.5 -121t-127.5 -96l-56 -28q-140 -72 -146 -187z" />
    <glyph glyph-name="three" unicode="3" horiz-adv-x="569" 
d="M384 366q51 -21 83.5 -66t32.5 -105q0 -99 -67 -153q-67 -53 -164 -53q-65 0 -128 27t-101 74l52 52q72 -82 182 -82q66 0 108 35t42 99q0 62 -47 94t-125 32h-53v73h42q76 0 121 34.5t45 96.5q0 60 -43 88q-43 29 -94 29q-96 0 -162 -76l-51 52q87 95 209 95
q87 0 152 -50t65 -139q0 -57 -33 -100q-32 -43 -66 -57z" />
    <glyph glyph-name="four" unicode="4" horiz-adv-x="583" 
d="M537 249v-72h-97v-177h-76v177h-324v66l329 458h71v-452h97zM364 584l-243 -335h243v335z" />
    <glyph glyph-name="five" unicode="5" horiz-adv-x="552" 
d="M447 218q0 71 -44.5 113t-114.5 42q-43 0 -82 -22t-57 -55h-69l17 405h374v-72h-305l-11 -237q21 24 59.5 38.5t83.5 14.5q93 0 159 -60t66 -167q0 -94 -68 -162q-67 -67 -180 -67q-129 0 -218 107l54 53q71 -89 168 -89q72 0 119 43q49 43 49 115z" />
    <glyph glyph-name="six" unicode="6" horiz-adv-x="616" 
d="M329 -11q-117 0 -186 100q-69 101 -69 268q0 161 70 258t192 97q120 0 193 -90l-52 -55q-53 74 -141 74q-87 0 -141 -82t-49 -211q27 50 77 78t106 28q94 0 161 -64q69 -64 69 -168q0 -106 -70 -170q-71 -63 -160 -63zM329 382q-61 0 -107 -44q-44 -44 -44 -115
q0 -69 45 -116t111 -47q60 0 103 42q45 42 45 120q0 72 -45 116q-46 44 -108 44z" />
    <glyph glyph-name="seven" unicode="7" horiz-adv-x="535" 
d="M117 487h-71v214h454v-66q-219 -262 -247 -595l-3 -40h-77l4 39q15 169 74 327q60 157 156 263h-290v-142z" />
    <glyph glyph-name="eight" unicode="8" horiz-adv-x="554" 
d="M51 185q0 63 40 109q41 47 82 58q-37 16 -71 55q-34 38 -34 97q0 86 62 139q62 52 147 52t146 -52q63 -52 63 -139q0 -59 -34 -97q-34 -39 -71 -55q39 -10 81 -58q41 -47 41 -109q0 -88 -66 -142q-65 -54 -160 -54t-161 54q-65 54 -65 142zM277 313q-66 0 -107.5 -34.5
t-41.5 -92.5q0 -57 42.5 -91.5t106.5 -34.5t106.5 34.5t42.5 91.5q0 58 -42 92.5t-107 34.5zM145 503q0 -54 36.5 -86t95.5 -32q58 0 95 32t37 86q0 58 -41 90q-40 31 -91 31t-91 -31q-41 -32 -41 -90z" />
    <glyph glyph-name="nine" unicode="9" horiz-adv-x="598" 
d="M286 712q113 0 184 -101t71 -267q0 -165 -67 -260q-68 -95 -195 -95q-119 0 -192 90l52 56q52 -75 140 -75q94 0 145 80t46 213q-27 -51 -77 -78.5t-107 -27.5q-93 0 -161 64q-68 65 -68 168q0 106 69 169q70 64 160 64zM286 319q64 0 108 44t44 109q0 72 -45 120
q-45 49 -111 49q-62 0 -106 -42q-43 -40 -43 -120q0 -73 46 -116q47 -44 107 -44z" />
    <glyph glyph-name="colon" unicode=":" horiz-adv-x="291" 
d="M139 108q26 0 43.5 -17t17.5 -43q0 -25 -17.5 -42t-43.5 -17q-25 0 -42 17t-17 42t17 42.5t42 17.5zM139 496q26 0 43.5 -17t17.5 -43q0 -25 -17.5 -42t-43.5 -17q-25 0 -42 17t-17 42t17 42.5t42 17.5z" />
    <glyph glyph-name="semicolon" unicode=";" horiz-adv-x="311" 
d="M225 114l-108 -239h-80l95 239h93zM171 496q26 0 43.5 -17t17.5 -43q0 -25 -17.5 -42t-43.5 -17q-25 0 -42 17t-17 42t17 42.5t42 17.5z" />
    <glyph glyph-name="less" unicode="&#x3c;" horiz-adv-x="605" 
d="M537 -11l-491 215v82l491 216v-78l-420 -179l420 -179v-77z" />
    <glyph glyph-name="equal" unicode="=" horiz-adv-x="650" 
d="M570 319h-490v69h490v-69zM570 137h-490v68h490v-68z" />
    <glyph glyph-name="greater" unicode="&#x3e;" horiz-adv-x="605" 
d="M68 502l491 -216v-82l-491 -215v77l420 179l-420 179v78z" />
    <glyph glyph-name="question" unicode="?" horiz-adv-x="546" 
d="M278 308v-97h-77v161l25 1q83 4 129 43t46 99q0 55 -39.5 90.5t-99.5 35.5q-114 0 -177 -109l-51 56q85 124 228 124q92 0 154 -54q62 -53 62 -140q0 -80 -53.5 -137.5t-146.5 -72.5zM239 108q26 0 43.5 -17t17.5 -43q0 -25 -17.5 -42t-43.5 -17q-25 0 -42 17t-17 42
t17 42.5t42 17.5z" />
    <glyph glyph-name="at" unicode="@" horiz-adv-x="1076" 
d="M520 57q73 0 117 53q44 55 44 135q0 81 -44 134t-117 53q-72 0 -116 -53q-43 -52 -43 -134t43 -135q44 -53 116 -53zM691 74q-66 -85 -178 -85q-99 0 -164 74q-64 73 -64 182t64 182q65 75 164 75t165 -77v65h74v-361q0 -72 51 -72q52 0 83 64q31 63 31 143
q0 163 -98 272q-97 108 -276 108q-175 0 -284 -112t-109 -279t113 -278q113 -112 297 -112q100 0 192 36v-70q-86 -34 -192 -34q-212 0 -347 132q-134 132 -134 326q-3 124 56 229.5t167.5 168.5t240.5 61q138 0 242 -62q101 -61 153 -161t52 -225q0 -120 -57 -198
q-56 -77 -136 -77q-81 0 -106 85z" />
    <glyph glyph-name="A" unicode="A" 
d="M302 701h86l273 -701h-82l-64 161h-342l-62 -161h-83zM487 234l-143 369l-141 -369h284z" />
    <glyph glyph-name="B" unicode="B" horiz-adv-x="659" 
d="M355 0h-275v701h257q114 0 178 -47.5t64 -138.5q0 -46 -25 -87.5t-66 -62.5q50 -23 79 -68t29 -98q0 -92 -66 -146q-67 -53 -175 -53zM156 321v-249h208q71 0 113 33.5t42 95.5q0 58 -41.5 89t-109.5 31h-212zM351 629h-195v-236h196q68 0 109 31t41 89q0 57 -41 86.5
t-110 29.5z" />
    <glyph glyph-name="C" unicode="C" horiz-adv-x="700" 
d="M617 165l49 -56q-49 -57 -119.5 -88.5t-148.5 -31.5q-152 0 -252 105q-100 104 -100 255t99 257q100 106 248 106q165 0 262 -120l-51 -54q-79 103 -211 103q-116 0 -194 -84q-77 -85 -77 -208q0 -122 78 -206q80 -83 198 -83q138 0 219 105z" />
    <glyph glyph-name="D" unicode="D" horiz-adv-x="695" 
d="M270 0h-190v701h190q153 0 260 -73q120 -82 120 -273q0 -77 -21.5 -138.5t-57.5 -101.5t-86 -66.5t-103 -37.5t-112 -11zM279 629h-123v-557h124q59 0 109.5 15.5t92 47.5t65.5 88.5t24 131.5q0 73 -24 127.5t-66 85.5t-92.5 46t-109.5 15z" />
    <glyph glyph-name="E" unicode="E" horiz-adv-x="614" 
d="M539 0h-459v701h459v-72h-383v-236h372v-72h-372v-249h383v-72z" />
    <glyph glyph-name="F" unicode="F" horiz-adv-x="556" 
d="M156 321v-321h-76v701h436v-72h-360v-236h338v-72h-338z" />
    <glyph glyph-name="G" unicode="G" horiz-adv-x="728" 
d="M592 277h-194v72h268v-240q-49 -57 -119.5 -88.5t-148.5 -31.5q-152 0 -252 105q-100 104 -100 255t99 257q100 106 248 106q165 0 262 -120l-51 -54q-79 103 -211 103q-116 0 -194 -84q-77 -85 -77 -208q0 -122 78 -206q80 -83 198 -83t194 76v141z" />
    <glyph glyph-name="H" unicode="H" horiz-adv-x="693" 
d="M613 0h-76v321h-381v-321h-76v701h76v-308h381v308h76v-701z" />
    <glyph glyph-name="I" unicode="I" horiz-adv-x="236" 
d="M156 0h-76v701h76v-701z" />
    <glyph glyph-name="J" unicode="J" horiz-adv-x="483" 
d="M17 98l54 54q47 -92 133 -92q66 0 100.5 41t34.5 117v483h76v-483q0 -106 -55.5 -167.5t-157.5 -61.5q-60 0 -108.5 29.5t-76.5 79.5z" />
    <glyph glyph-name="K" unicode="K" horiz-adv-x="601" 
d="M135 0h-77v701h77v-405l327 405h89l-242 -302l258 -399h-92l-219 335l-121 -150v-185z" />
    <glyph glyph-name="L" unicode="L" horiz-adv-x="537" 
d="M497 0h-417v701h76v-629h341v-72z" />
    <glyph glyph-name="M" unicode="M" horiz-adv-x="798" 
d="M437 155h-76l-205 377v-532h-76v701h74l245 -459l245 459h74v-701h-76v532z" />
    <glyph glyph-name="N" unicode="N" horiz-adv-x="712" 
d="M633 0h-79l-398 568v-568h-76v701h78l398 -570v570h77v-701z" />
    <glyph glyph-name="O" unicode="O" horiz-adv-x="791" 
d="M46 351q0 151 100 255q100 106 248 106q150 0 250 -106q102 -105 102 -255q0 -151 -101 -257q-101 -105 -251 -105q-148 0 -249 105q-99 105 -99 257zM122 351q0 -125 77 -208t199 -83q119 0 196 83t77 208q0 123 -77 206q-76 84 -196 84q-121 0 -199 -84
q-77 -83 -77 -206z" />
    <glyph glyph-name="P" unicode="P" horiz-adv-x="609" 
d="M324 258h-168v-258h-76v701h244q118 0 186 -61q70 -60 70 -161t-69 -161t-187 -60zM335 629h-179v-300h179q79 0 124 38.5t45 111.5q0 71 -45 110.5t-124 39.5z" />
    <glyph glyph-name="Q" unicode="Q" horiz-adv-x="814" 
d="M46 351q0 151 100 255q100 106 248 106q150 0 250 -106q102 -105 102 -255q0 -132 -80 -233l91 -90l-51 -51l-90 90q-96 -78 -222 -78q-148 0 -249 105q-99 105 -99 257zM566 117l-85 85l51 51l83 -84q56 79 56 182q0 123 -77 206q-76 84 -196 84q-121 0 -199 -84
q-77 -83 -77 -206q0 -125 77 -208t199 -83q98 0 168 57z" />
    <glyph glyph-name="R" unicode="R" horiz-adv-x="649" 
d="M597 0h-91l-183 258h-167v-258h-76v701h244q118 0 186 -61q70 -60 70 -161q0 -81 -44.5 -136.5t-125.5 -75.5zM335 629h-179v-300h179q79 0 124 38.5t45 111.5q0 71 -45 110.5t-124 39.5z" />
    <glyph glyph-name="S" unicode="S" horiz-adv-x="638" 
d="M358 311l-86 15q-87 15 -142 63q-56 48 -56 129q0 88 72 141q73 53 170 53q143 0 241 -107l-51 -56q-77 92 -196 92q-69 0 -114.5 -33.5t-45.5 -86.5q0 -99 149 -123l69 -12q103 -16 158 -67t55 -133q0 -86 -70 -141q-71 -56 -186 -56q-84 0 -155 35t-113 93l52 54
q81 -111 225 -111q76 0 123.5 33.5t47.5 91.5q0 101 -147 126z" />
    <glyph glyph-name="T" unicode="T" horiz-adv-x="586" 
d="M34 629v72h518v-72h-224v-629h-76v629h-218z" />
    <glyph glyph-name="U" unicode="U" horiz-adv-x="668" 
d="M523 275v426h77v-426q0 -126 -71 -206t-195 -80t-195 80t-71 206v426h77v-427q0 -93 49 -154q50 -60 140 -60t139 61q50 62 50 154z" />
    <glyph glyph-name="V" unicode="V" horiz-adv-x="619" 
d="M95 701l216 -609l213 609h80l-251 -701h-86l-252 701h80z" />
    <glyph glyph-name="W" unicode="W" horiz-adv-x="887" 
d="M489 701l152 -586l152 586h84l-194 -701h-85l-154 576l-154 -576h-86l-194 701h84l154 -586l150 586h91z" />
    <glyph glyph-name="X" unicode="X" horiz-adv-x="651" 
d="M140 701l185 -280l185 280h94l-229 -342l242 -359h-94l-198 298l-198 -298h-94l242 359l-229 342h94z" />
    <glyph glyph-name="Y" unicode="Y" horiz-adv-x="578" 
d="M23 701h84l183 -343l181 343h84l-228 -418v-283h-76v283z" />
    <glyph glyph-name="Z" unicode="Z" horiz-adv-x="621" 
d="M65 629v72h494v-68l-402 -561h399v-72h-493v68l401 561h-399z" />
    <glyph glyph-name="bracketleft" unicode="[" horiz-adv-x="361" 
d="M327 -194h-236v895h236v-72h-159v-751h159v-72z" />
    <glyph glyph-name="backslash" unicode="\" horiz-adv-x="531" 
d="M41 701h79l295 -701h-79z" />
    <glyph glyph-name="bracketright" unicode="]" horiz-adv-x="361" 
d="M34 701h236v-895h-236v72h159v751h-159v72z" />
    <glyph glyph-name="asciicircum" unicode="^" horiz-adv-x="621" 
d="M272 701h76l216 -359h-80l-174 290l-174 -290h-79z" />
    <glyph glyph-name="underscore" unicode="_" horiz-adv-x="570" 
d="M513 -194h-456v69h456v-69z" />
    <glyph glyph-name="grave" unicode="`" horiz-adv-x="556" 
d="M279 570l-114 131h97l91 -131h-74z" />
    <glyph glyph-name="a" unicode="a" horiz-adv-x="520" 
d="M222 -11q-72 0 -118.5 40.5t-46.5 108.5q0 72 49.5 113t131.5 41q54 0 134 -24v50q0 54 -33 84.5t-88 30.5q-43 0 -77.5 -23t-50.5 -58l-51 48q58 102 180 102q90 0 142 -50.5t52 -141.5v-310h-72v51q-56 -62 -152 -62zM131 136q0 -37 26.5 -59t68.5 -22q43 0 82.5 22
t63.5 56v66q-72 24 -130 24q-55 0 -83 -23.5t-28 -63.5z" />
    <glyph glyph-name="b" unicode="b" horiz-adv-x="604" 
d="M152 67v-67h-72v701h74v-276q66 77 165 77t164 -75q64 -73 64 -182t-64 -182q-65 -74 -164 -74t-167 78zM428 111q43 52 43 134t-43 134q-44 53 -116 53q-73 0 -117 -53q-43 -52 -43 -134t43 -134q44 -53 117 -53q72 0 116 53z" />
    <glyph glyph-name="c" unicode="c" horiz-adv-x="545" 
d="M448 130l51 -47q-78 -94 -196 -94q-105 0 -176 74q-70 74 -70 182q0 106 72 181q73 76 177 76q111 0 183 -87l-50 -49q-55 66 -133 66q-74 0 -124 -54q-49 -52 -49 -133q0 -83 47.5 -135t128.5 -52q83 0 139 72z" />
    <glyph glyph-name="d" unicode="d" horiz-adv-x="604" 
d="M285 502q99 0 165 -77v276h74v-701h-71v67q-67 -78 -168 -78q-99 0 -164 74q-64 73 -64 182t64 182q65 75 164 75zM176 379q-43 -52 -43 -134t43 -134q44 -53 116 -53q73 0 117 53t44 134t-44 134t-117 53q-72 0 -116 -53z" />
    <glyph glyph-name="e" unicode="e" horiz-adv-x="556" 
d="M499 256l-1 -34h-365q5 -77 49 -120.5t116 -43.5q82 0 140 72l51 -47q-78 -94 -191 -94q-110 0 -176 70q-65 71 -65 183t60 185q61 75 163 75q75 0 126 -39q93 -70 93 -207zM282 432q-61 0 -98.5 -39t-47.5 -105h288q-5 66 -43.5 105t-98.5 39z" />
    <glyph glyph-name="f" unicode="f" horiz-adv-x="331" 
d="M275 701l27 -1v-67h-26q-54 0 -76.5 -25t-22.5 -81v-37h114v-68h-114v-422h-74v422h-80v68h80v37q0 90 43 132t129 42z" />
    <glyph glyph-name="g" unicode="g" horiz-adv-x="593" 
d="M74 -96l54 52q52 -93 149 -93q77 0 119.5 46t42.5 125v51q-56 -74 -160 -74q-94 0 -158 70t-64 175q0 106 64 176t158 70q103 0 162 -75v63h72v-450q0 -112 -64 -178.5t-172 -66.5q-133 0 -203 109zM133 256q0 -77 43 -126t110 -49q68 0 111 49q44 50 44 126
q0 77 -44 127q-43 49 -111 49q-67 0 -110 -49t-43 -127z" />
    <glyph glyph-name="h" unicode="h" horiz-adv-x="559" 
d="M80 701h74v-270q25 32 66 51.5t87 19.5q94 0 144.5 -56.5t50.5 -160.5v-285h-75v291q0 68 -33 105t-92 37q-71 0 -109.5 -50.5t-38.5 -139.5v-243h-74v701z" />
    <glyph glyph-name="i" unicode="i" horiz-adv-x="249" 
d="M161 0h-74v490h74v-490zM84 617q-16 17 -16 40t16 39q17 16 40 16t39 -16q17 -16 17 -39t-17 -40q-16 -16 -39 -16t-40 16z" />
    <glyph glyph-name="j" unicode="j" horiz-adv-x="278" 
d="M86 657q0 22 16.5 38.5t39.5 16.5t39.5 -16t16.5 -39t-16.5 -39.5t-39.5 -16.5t-39.5 16.5t-16.5 39.5zM105 -42v532h74v-544q0 -77 -34.5 -111t-108.5 -34l-51 2v67q22 -1 44 -1q44 0 60 20t16 69z" />
    <glyph glyph-name="k" unicode="k" horiz-adv-x="535" 
d="M154 0h-74v701h74v-462l227 251h97l-191 -207l202 -283h-95l-160 225l-80 -87v-138z" />
    <glyph glyph-name="l" unicode="l" horiz-adv-x="234" 
d="M154 0h-74v701h74v-701z" />
    <glyph glyph-name="m" unicode="m" horiz-adv-x="855" 
d="M80 490h72v-59q22 31 60 51t81 20q99 0 146 -81q55 81 153 81q189 0 189 -217v-285h-74v291q0 142 -114 142q-61 0 -93.5 -42.5t-32.5 -120.5v-270h-74v286q0 147 -110 147q-63 0 -96 -42.5t-33 -120.5v-270h-74v490z" />
    <glyph glyph-name="n" unicode="n" horiz-adv-x="576" 
d="M80 490h72v-60q25 32 67.5 52t87.5 20q94 0 144.5 -56.5t50.5 -160.5v-285h-75v291q0 68 -33 105t-92 37q-71 0 -109.5 -50.5t-38.5 -139.5v-243h-74v490z" />
    <glyph glyph-name="o" unicode="o" horiz-adv-x="608" 
d="M303 -11q-105 0 -176 74q-70 74 -70 182t70 182q71 75 176 75t176 -75q72 -75 72 -182q0 -106 -71 -182q-71 -74 -177 -74zM303 58q75 0 123 53q48 54 48 134q0 81 -48 133q-48 54 -123 54q-74 0 -122 -54q-48 -52 -48 -133q0 -80 48 -134q48 -53 122 -53z" />
    <glyph glyph-name="p" unicode="p" horiz-adv-x="604" 
d="M154 65v-259h-74v684h72v-67q67 79 167 79q99 0 164 -75q64 -73 64 -182t-64 -182q-65 -74 -164 -74q-101 0 -165 76zM428 111q43 52 43 134t-43 134q-44 53 -116 53q-73 0 -117 -53q-43 -52 -43 -134t43 -134q44 -53 117 -53q72 0 116 53z" />
    <glyph glyph-name="q" unicode="q" horiz-adv-x="604" 
d="M285 502q99 0 168 -79v67h71v-684h-74v259q-64 -76 -165 -76q-99 0 -164 74q-64 73 -64 182t64 182q65 75 164 75zM176 379q-43 -52 -43 -134t43 -134q44 -53 116 -53q73 0 117 53t44 134t-44 134t-117 53q-72 0 -116 -53z" />
    <glyph glyph-name="r" unicode="r" horiz-adv-x="363" 
d="M334 496v-71q-5 1 -17 1q-88 0 -125.5 -49.5t-37.5 -167.5v-209h-74v490h72v-65q32 39 68.5 55.5t91.5 16.5q15 0 22 -1z" />
    <glyph glyph-name="s" unicode="s" horiz-adv-x="484" 
d="M276 203l-73 17q-139 33 -139 141q0 65 50 103t119 38q98 0 174 -79l-50 -53q-60 63 -129 63q-40 0 -65 -19t-25 -50q0 -56 73 -72l77 -18q139 -33 139 -138q0 -66 -50 -106.5t-133 -40.5q-61 0 -114 25.5t-84 66.5l49 51q60 -75 148 -75q52 0 81 20t29 55q0 53 -77 71z
" />
    <glyph glyph-name="t" unicode="t" horiz-adv-x="342" 
d="M245 -2q-73 0 -107.5 34t-34.5 112v278h-80v68h80v137h74v-137h114v-68h-114v-267q0 -49 16 -69t59 -20l39 1v-67q-26 -2 -46 -2z" />
    <glyph glyph-name="u" unicode="u" horiz-adv-x="555" 
d="M475 0h-71v62q-57 -73 -155 -73q-184 0 -184 216v285h74v-288q0 -143 120 -143q70 0 106 48.5t36 139.5v243h74v-490z" />
    <glyph glyph-name="v" unicode="v" horiz-adv-x="506" 
d="M397 490h81l-186 -490h-78l-186 490h81l144 -400z" />
    <glyph glyph-name="w" unicode="w" horiz-adv-x="771" 
d="M109 490l113 -409l113 409h100l113 -409l113 409h81l-146 -490h-92l-119 405l-118 -405h-93l-146 490h81z" />
    <glyph glyph-name="x" unicode="x" horiz-adv-x="513" 
d="M46 490h89l121 -183l122 183h89l-164 -238l176 -252h-89l-134 198l-133 -198h-89l176 252z" />
    <glyph glyph-name="y" unicode="y" horiz-adv-x="540" 
d="M512 490l-274 -684h-81l74 188l-203 496h83l161 -407l158 407h82z" />
    <glyph glyph-name="z" unicode="z" horiz-adv-x="504" 
d="M74 422v68h356v-63l-274 -359h285v-68h-378v63l271 359h-260z" />
    <glyph glyph-name="braceleft" unicode="{" horiz-adv-x="417" 
d="M225 538v-568q0 -92 87 -92h71v-72h-84q-75 0 -113 43.5t-38 116.5v252h-114v72h114v251q0 73 38 116.5t113 43.5h84v-71h-71q-87 0 -87 -92z" />
    <glyph glyph-name="bar" unicode="|" horiz-adv-x="393" 
d="M234 -194h-74v895h74v-895z" />
    <glyph glyph-name="braceright" unicode="}" horiz-adv-x="417" 
d="M192 -30v568q0 92 -87 92h-71v71h84q75 0 113 -43.5t38 -116.5v-251h114v-72h-114v-252q0 -73 -38 -116.5t-113 -43.5h-84v72h71q87 0 87 92z" />
    <glyph glyph-name="asciitilde" unicode="~" horiz-adv-x="495" 
d="M370 319h62q5 -54 -18 -87t-68 -33q-17 0 -62 15l-62 28q-36 12 -44 12q-36 0 -36 -49h-63q-5 54 18.5 87t68.5 33q28 0 61 -15l63 -27q32 -13 43 -13q37 0 37 49z" />
    <glyph glyph-name="exclamdown" unicode="&#xa1;" horiz-adv-x="291" 
d="M109 279h77v-473h-77v473zM146 393q-23 0 -39 16t-16 39t16 38.5t39 15.5q22 0 37.5 -15.5t15.5 -38.5t-15.5 -39t-37.5 -16z" />
    <glyph glyph-name="cent" unicode="&#xa2;" horiz-adv-x="545" 
d="M448 130l51 -47q-68 -82 -167 -92v-105h-74v107q-89 17 -145 86q-56 71 -56 166q0 93 57 164q58 72 144 88v107h74v-104q93 -9 157 -85l-50 -49q-43 53 -107 64v-371q68 9 116 71zM133 245q0 -69 33 -117.5t92 -63.5v361q-56 -16 -90.5 -65t-34.5 -115z" />
    <glyph glyph-name="sterling" unicode="&#xa3;" horiz-adv-x="620" 
d="M145 325h-82v68h68q-12 57 -12 105q0 56 20 99.5t54 67.5q66 47 142 47q122 0 202 -107l-53 -54q-61 90 -149 90q-64 0 -102 -39.5t-38 -102.5q0 -44 13 -106h199v-68h-185l56 -253h194v142h68v-214h-477v72h138z" />
    <glyph glyph-name="yen" unicode="&#xa5;" horiz-adv-x="601" 
d="M40 701h84l183 -315l172 315h82l-192 -338h165v-69h-190v-80h191v-68h-191v-146h-76v146h-189v68h189v80h-189v69h162z" />
    <glyph glyph-name="brokenbar" unicode="&#xa6;" horiz-adv-x="393" 
d="M234 -194h-74v365h74v-365zM234 336h-74v365h74v-365z" />
    <glyph glyph-name="section" unicode="&#xa7;" horiz-adv-x="627" 
d="M551 209q0 -80 -67 -138q43 -46 43 -112q0 -68 -54 -116t-145 -48q-154 0 -235 139l54 50q68 -119 182 -119q58 0 89.5 25t31.5 69q0 71 -101 106l-116 40q-78 28 -122.5 76.5t-44.5 113.5q0 89 75 145q-37 46 -37 105q0 74 55 120q56 47 141 47q64 0 117 -30t87 -80
l-54 -54q-25 43 -66.5 68.5t-88.5 25.5q-51 0 -83 -26t-32 -68q0 -67 88 -101l101 -39q94 -36 138 -83t44 -116zM356 332l-162 65q-22 -16 -37 -44.5t-15 -54.5q0 -42 28.5 -70t91.5 -52l168 -65q44 33 44 94q0 42 -28.5 72.5t-89.5 54.5z" />
    <glyph glyph-name="dieresis" unicode="&#xa8;" horiz-adv-x="556" 
d="M146 618q-14 15 -14 37t14 37q15 15 37 15t37 -15t15 -37t-15 -37q-15 -14 -37 -14t-37 14zM327 618q-14 15 -14 37t14 37q15 15 37 15t37 -15t15 -37t-15 -37q-15 -14 -37 -14t-37 14z" />
    <glyph glyph-name="copyright" unicode="&#xa9;" horiz-adv-x="826" 
d="M57 351q0 151 103 255q103 106 253 106q149 0 252 -106q104 -107 104 -255q0 -153 -103 -257q-104 -105 -253 -105t-253 105q-103 104 -103 257zM122 351q0 -125 83 -213q84 -86 208 -86t208 86q84 87 84 213q0 124 -84 211t-208 87t-208 -87q-83 -88 -83 -211zM531 264
l46 -41q-63 -73 -156 -73q-87 0 -142 57q-56 59 -56 143q0 85 57 142q58 57 143 57q92 0 146 -66l-45 -44q-45 49 -101 49t-94 -41q-37 -40 -37 -97q0 -59 36.5 -98.5t96.5 -39.5t106 52z" />
    <glyph glyph-name="ordfeminine" unicode="&#xaa;" horiz-adv-x="410" 
d="M171 334q-52 0 -86 30.5t-34 80.5q0 52 39 83.5t98 31.5q42 0 90 -15v25q0 84 -82 84q-64 0 -89 -58l-44 42q41 74 135 74q67 0 105.5 -37t38.5 -104v-229h-63v34q-41 -42 -108 -42zM115 445q0 -24 17.5 -39t46.5 -15q59 0 99 51v45q-65 24 -114 12t-49 -54z" />
    <glyph glyph-name="guillemotleft" unicode="&#xab;" horiz-adv-x="544" 
d="M171 0l-137 245l137 245h82l-139 -245l139 -245h-82zM393 0l-137 245l137 245h82l-139 -245l139 -245h-82z" />
    <glyph glyph-name="logicalnot" unicode="&#xac;" horiz-adv-x="627" 
d="M479 228h-411v68h479v-211h-68v143z" />
    <glyph glyph-name="registered" unicode="&#xae;" horiz-adv-x="659" 
d="M57 435q0 115 78 196q79 81 193 81t194 -81q80 -82 80 -196q0 -113 -80 -195q-80 -80 -194 -80q-113 0 -193 80q-78 81 -78 195zM120 435q0 -91 60 -152q60 -62 148 -62q89 0 149 62q61 61 61 152q0 92 -61 153q-60 63 -149 63q-88 0 -148 -63q-60 -62 -60 -153zM448 319
h-59l-54 77h-45v-77h-52v251h113q39 0 64.5 -24.5t25.5 -61.5q0 -27 -14.5 -49t-39.5 -32zM337 526h-47v-84h47q53 0 53 42t-53 42z" />
    <glyph glyph-name="overscore" unicode="&#xaf;" horiz-adv-x="556" 
d="M161 633v68h228v-68h-228z" />
    <glyph glyph-name="degree" unicode="&#xb0;" horiz-adv-x="410" 
d="M359 559q0 -65 -45 -110q-44 -44 -109 -44q-64 0 -109 45t-45 109q0 65 45 108q45 45 109 45t109 -45q45 -43 45 -108zM120 559q0 -39 24 -64t61 -25q36 0 60.5 25t24.5 64q0 38 -24.5 63.5t-60.5 25.5q-37 0 -61 -25.5t-24 -63.5z" />
    <glyph glyph-name="plusminus" unicode="&#xb1;" horiz-adv-x="650" 
d="M80 292v68h208v210h71v-210h211v-68h-211v-212h-71v212h-208zM570 -68h-490v68h490v-68z" />
    <glyph glyph-name="twosuperior" unicode="&#xb2;" horiz-adv-x="415" 
d="M139 367h203v-59h-276v12q0 126 135 201l10 5q35 21 37 22q32 19 32 54q0 22 -19 37t-51 15q-29 0 -55.5 -17t-42.5 -45l-44 43q54 77 141 77q61 0 99.5 -30t38.5 -81q0 -41 -21.5 -67.5t-74.5 -56.5l-32 -18q-68 -38 -80 -92z" />
    <glyph glyph-name="threesuperior" unicode="&#xb3;" horiz-adv-x="397" 
d="M263 514q65 -29 65 -99q0 -55 -41 -87t-103 -32q-89 0 -138 67l43 43q42 -51 97 -51q34 0 55.5 16t21.5 43q0 65 -90 65h-31v59h24q42 0 64.5 16.5t22.5 46.5q0 24 -19 38.5t-47 14.5q-51 0 -89 -45l-42 42q46 61 131 61q52 0 91 -30q40 -30 40 -78q0 -31 -16.5 -56
t-38.5 -34z" />
    <glyph glyph-name="acute" unicode="&#xb4;" horiz-adv-x="556" 
d="M217 570l91 131h97l-114 -131h-74z" />
    <glyph glyph-name="mu" unicode="&#xb5;" horiz-adv-x="570" 
d="M154 -194h-74v684h74v-295q0 -66 31 -101t89 -35q70 0 106 48.5t36 139.5v243h74v-490h-72v62q-55 -73 -149 -73q-73 0 -115 45v-228z" />
    <glyph glyph-name="mu" unicode="&#x3bc;" horiz-adv-x="570" 
d="M154 -194h-74v684h74v-295q0 -66 31 -101t89 -35q70 0 106 48.5t36 139.5v243h74v-490h-72v62q-55 -73 -149 -73q-73 0 -115 45v-228z" />
    <glyph glyph-name="paragraph" unicode="&#xb6;" horiz-adv-x="685" 
d="M377 -194v452h-92q-117 0 -188 60q-69 60 -69 161t70 161q70 61 187 61h320v-895h-76v827h-75v-827h-77z" />
    <glyph glyph-name="middot" unicode="&#xb7;" horiz-adv-x="372" 
d="M182 321q26 0 43.5 -17t17.5 -43q0 -25 -17.5 -42t-43.5 -17q-25 0 -42 17t-17 42t17 42.5t42 17.5z" />
    <glyph glyph-name="cedilla" unicode="&#xb8;" horiz-adv-x="545" 
d="M336 -6l-57 -131h-80l63 131h74z" />
    <glyph glyph-name="onesuperior" unicode="&#xb9;" horiz-adv-x="386" 
d="M80 308v58h100v250q-34 -25 -100 -25v57q82 1 106 53h59v-335h96v-58h-261z" />
    <glyph glyph-name="ordmasculine" unicode="&#xba;" horiz-adv-x="481" 
d="M51 521q0 80 55 135q56 56 135 56q77 0 133 -56t56 -135t-56 -135q-55 -55 -133 -55q-80 0 -135 55t-55 135zM241 392q54 0 89 37t35 92q0 57 -35 93.5t-89 36.5q-56 0 -90.5 -36.5t-34.5 -93.5t34.5 -93t90.5 -36z" />
    <glyph glyph-name="guillemotright" unicode="&#xbb;" horiz-adv-x="544" 
d="M68 490h82l137 -245l-137 -245h-82l139 245zM291 490h82l137 -245l-137 -245h-82l139 245z" />
    <glyph glyph-name="onequarter" unicode="&#xbc;" horiz-adv-x="936" 
d="M879 139v-58h-53v-81h-64v81h-192v52l194 255h62v-249h53zM762 295l-119 -156h119v156zM327 0h-81l428 701h80zM80 308v58h100v250q-34 -25 -100 -25v57q82 1 106 53h59v-335h96v-58h-261z" />
    <glyph glyph-name="onehalf" unicode="&#xbd;" horiz-adv-x="974" 
d="M709 59h203v-59h-276v12q0 126 135 201l10 5q35 21 37 22q32 19 32 54q0 22 -19 37t-51 15q-29 0 -55.5 -17t-42.5 -45l-44 43q54 77 141 77q61 0 99.5 -30t38.5 -81q0 -41 -21.5 -67.5t-74.5 -56.5l-32 -18q-68 -38 -80 -92zM80 308v58h100v250q-34 -25 -100 -25v57
q82 1 106 53h59v-335h96v-58h-261zM327 0h-81l428 701h80z" />
    <glyph glyph-name="threequarters" unicode="&#xbe;" horiz-adv-x="868" 
d="M822 139v-58h-53v-81h-64v81h-192v52l194 255h62v-249h53zM705 295l-119 -156h119v156zM263 514q65 -29 65 -99q0 -55 -41 -87t-103 -32q-89 0 -138 67l43 43q42 -51 97 -51q34 0 55.5 16t21.5 43q0 65 -90 65h-31v59h24q42 0 64.5 16.5t22.5 46.5q0 24 -19 38.5
t-47 14.5q-51 0 -89 -45l-42 42q46 61 131 61q52 0 91 -30q40 -30 40 -78q0 -31 -16.5 -56t-38.5 -34zM290 0h-81l428 701h80z" />
    <glyph glyph-name="questiondown" unicode="&#xbf;" horiz-adv-x="546" 
d="M341 279v-155l-25 -1q-84 -4 -130 -41t-46 -96q0 -54 38.5 -86.5t100.5 -32.5q115 0 177 108l51 -56q-85 -124 -228 -124q-93 0 -155 51q-60 51 -60 138q0 79 52.5 133.5t146.5 70.5v91h78zM302 382q-26 0 -43 17t-17 43q0 39 37.5 54.5t64.5 -12.5q27 -27 12 -64.5
t-54 -37.5z" />
    <glyph glyph-name="Agrave" unicode="&#xc0;" 
d="M313 701h86l273 -701h-82l-64 161h-342l-62 -161h-83zM498 234l-143 369l-141 -369h284zM323 769l-109 103h103l91 -103h-85z" />
    <glyph glyph-name="Aacute" unicode="&#xc1;" 
d="M313 701h86l273 -701h-82l-64 161h-342l-62 -161h-83zM498 234l-143 369l-141 -369h284zM279 769l91 103h103l-108 -103h-86z" />
    <glyph glyph-name="Acircumflex" unicode="&#xc2;" 
d="M313 701h86l273 -701h-82l-64 161h-342l-62 -161h-83zM498 234l-143 369l-141 -369h284zM200 769l96 103h97l97 -103h-80l-65 62l-66 -62h-79z" />
    <glyph glyph-name="Atilde" unicode="&#xc3;" 
d="M313 701h86l273 -701h-82l-64 161h-342l-62 -161h-83zM498 234l-143 369l-141 -369h284zM424 872h57q0 -48 -20.5 -75.5t-54.5 -27.5q-23 0 -42 10l-30 12q-24 10 -38 10q-28 0 -30 -32h-57q0 48 20.5 75.5t54.5 27.5q24 0 42 -9l30 -13q29 -10 37 -10q29 0 31 32z" />
    <glyph glyph-name="Adieresis" unicode="&#xc4;" 
d="M313 701h86l273 -701h-82l-64 161h-342l-62 -161h-83zM498 234l-143 369l-141 -369h284zM228 783q-14 15 -14 37t14 37q15 15 37 15t37 -15t15 -37t-15 -37q-15 -14 -37 -14t-37 14zM409 783q-14 15 -14 37t14 37q15 15 37 15t37 -15t15 -37t-15 -37q-15 -14 -37 -14
t-37 14z" />
    <glyph glyph-name="Aring" unicode="&#xc5;" 
d="M269 777q0 39 25.5 64t61.5 25q39 0 64.5 -25t25.5 -64q0 -51 -47 -77l273 -700h-82l-64 161h-342l-62 -161h-83l275 701q-45 25 -45 76zM498 234l-143 369l-141 -369h284zM324 777q0 -20 17 -28.5t33.5 0t16.5 28.5q0 21 -16.5 29.5t-33.5 0t-17 -29.5z" />
    <glyph glyph-name="AE" unicode="&#xc6;" horiz-adv-x="893" 
d="M291 701h533v-72h-420l92 -236h317v-72h-289l98 -249h202v-72h-256l-64 161h-342l-63 -161h-82zM475 234l-142 369l-141 -369h283z" />
    <glyph glyph-name="Ccedilla" unicode="&#xc7;" horiz-adv-x="700" 
d="M434 -9l-55 -128h-80l61 128q-138 14 -226 115q-88 103 -88 243q0 151 99 257q100 106 248 106q165 0 262 -120l-51 -54q-79 103 -211 103q-116 0 -194 -84q-77 -85 -77 -208q0 -122 78 -206q80 -83 198 -83q138 0 219 105l49 -56q-91 -105 -232 -118z" />
    <glyph glyph-name="Egrave" unicode="&#xc8;" horiz-adv-x="608" 
d="M539 0h-459v701h459v-72h-383v-236h372v-72h-372v-249h383v-72zM291 769l-109 103h103l91 -103h-85z" />
    <glyph glyph-name="Eacute" unicode="&#xc9;" horiz-adv-x="608" 
d="M539 0h-459v701h459v-72h-383v-236h372v-72h-372v-249h383v-72zM245 769l91 103h103l-108 -103h-86z" />
    <glyph glyph-name="Ecircumflex" unicode="&#xca;" horiz-adv-x="608" 
d="M539 0h-459v701h459v-72h-383v-236h372v-72h-372v-249h383v-72zM170 769l96 103h97l97 -103h-80l-65 62l-66 -62h-79z" />
    <glyph glyph-name="Edieresis" unicode="&#xcb;" horiz-adv-x="608" 
d="M539 0h-459v701h459v-72h-383v-236h372v-72h-372v-249h383v-72zM182 776q-14 15 -14 37t14 37q15 15 37 15t37 -15t15 -37t-15 -37q-15 -14 -37 -14t-37 14zM363 776q-14 15 -14 37t14 37q15 15 37 15t37 -15t15 -37t-15 -37q-15 -14 -37 -14t-37 14z" />
    <glyph glyph-name="Igrave" unicode="&#xcc;" horiz-adv-x="236" 
d="M93 769l-109 103h103l91 -103h-85zM156 0h-76v701h76v-701z" />
    <glyph glyph-name="Iacute" unicode="&#xcd;" horiz-adv-x="236" 
d="M156 0h-76v701h76v-701zM56 769l91 103h103l-108 -103h-86z" />
    <glyph glyph-name="Icircumflex" unicode="&#xce;" horiz-adv-x="236" 
d="M-27 769l96 103h97l97 -103h-80l-65 62l-66 -62h-79zM156 0h-76v701h76v-701z" />
    <glyph glyph-name="Idieresis" unicode="&#xcf;" horiz-adv-x="236" 
d="M-10 778q-14 15 -14 37t15 37q14 15 36 15t37 -15t15 -37t-15 -37q-15 -14 -37 -14t-37 14zM171 778q-14 15 -14 37t14 37q15 15 37 15t37 -15t15 -37t-15 -37q-15 -14 -37 -14t-37 14zM156 0h-76v701h76v-701z" />
    <glyph glyph-name="Eth" unicode="&#xd0;" horiz-adv-x="718" 
d="M293 0h-190v321h-80v72h80v308h190q153 0 260 -73q120 -82 120 -273q0 -77 -21.5 -138.5t-57.5 -101.5t-86 -66.5t-103 -37.5t-112 -11zM302 629h-123v-236h129v-72h-129v-249h124q59 0 109.5 15.5t92 47.5t65.5 88.5t24 131.5q0 73 -24 127.5t-66 85.5t-92.5 46
t-109.5 15z" />
    <glyph glyph-name="Ntilde" unicode="&#xd1;" horiz-adv-x="712" 
d="M433 872h57q0 -48 -20.5 -75.5t-54.5 -27.5q-23 0 -42 10l-30 12q-24 10 -38 10q-28 0 -30 -32h-57q0 48 20.5 75.5t54.5 27.5q24 0 42 -9l30 -13q29 -10 37 -10q29 0 31 32zM633 0h-79l-398 568v-568h-76v701h78l398 -570v570h77v-701z" />
    <glyph glyph-name="Ograve" unicode="&#xd2;" horiz-adv-x="791" 
d="M46 351q0 151 100 255q100 106 248 106q150 0 250 -106q102 -105 102 -255q0 -151 -101 -257q-101 -105 -251 -105q-148 0 -249 105q-99 105 -99 257zM122 351q0 -125 77 -208t199 -83q119 0 196 83t77 208q0 123 -77 206q-76 84 -196 84q-121 0 -199 -84
q-77 -83 -77 -206zM358 769l-109 103h103l91 -103h-85z" />
    <glyph glyph-name="Oacute" unicode="&#xd3;" horiz-adv-x="791" 
d="M46 351q0 151 100 255q100 106 248 106q150 0 250 -106q102 -105 102 -255q0 -151 -101 -257q-101 -105 -251 -105q-148 0 -249 105q-99 105 -99 257zM122 351q0 -125 77 -208t199 -83q119 0 196 83t77 208q0 123 -77 206q-76 84 -196 84q-121 0 -199 -84
q-77 -83 -77 -206zM333 769l91 103h103l-108 -103h-86z" />
    <glyph glyph-name="Ocircumflex" unicode="&#xd4;" horiz-adv-x="791" 
d="M46 351q0 151 100 255q100 106 248 106q150 0 250 -106q102 -105 102 -255q0 -151 -101 -257q-101 -105 -251 -105q-148 0 -249 105q-99 105 -99 257zM122 351q0 -125 77 -208t199 -83q119 0 196 83t77 208q0 123 -77 206q-76 84 -196 84q-121 0 -199 -84
q-77 -83 -77 -206zM250 769l96 103h97l97 -103h-80l-65 62l-66 -62h-79z" />
    <glyph glyph-name="Otilde" unicode="&#xd5;" horiz-adv-x="791" 
d="M46 351q0 151 100 255q100 106 248 106q150 0 250 -106q102 -105 102 -255q0 -151 -101 -257q-101 -105 -251 -105q-148 0 -249 105q-99 105 -99 257zM122 351q0 -125 77 -208t199 -83q119 0 196 83t77 208q0 123 -77 206q-76 84 -196 84q-121 0 -199 -84
q-77 -83 -77 -206zM473 872h57q0 -48 -20.5 -75.5t-54.5 -27.5q-23 0 -42 10l-30 12q-24 10 -38 10q-28 0 -30 -32h-57q0 48 20.5 75.5t54.5 27.5q24 0 42 -9l30 -13q29 -10 37 -10q29 0 31 32z" />
    <glyph glyph-name="Odieresis" unicode="&#xd6;" horiz-adv-x="791" 
d="M46 351q0 151 100 255q100 106 248 106q150 0 250 -106q102 -105 102 -255q0 -151 -101 -257q-101 -105 -251 -105q-148 0 -249 105q-99 105 -99 257zM122 351q0 -125 77 -208t199 -83q119 0 196 83t77 208q0 123 -77 206q-76 84 -196 84q-121 0 -199 -84
q-77 -83 -77 -206zM266 778q-14 15 -14 37t14 37q15 15 37 15t37 -15t15 -37t-15 -37q-15 -14 -37 -14t-37 14zM447 778q-14 15 -14 37t14 37q15 15 37 15t37 -15t15 -37t-15 -37q-15 -14 -37 -14t-37 14z" />
    <glyph glyph-name="multiply" unicode="&#xd7;" horiz-adv-x="568" 
d="M81 401l48 48l155 -155l154 154l49 -48l-154 -154l155 -156l-48 -48l-156 155l-155 -155l-49 48l156 156z" />
    <glyph glyph-name="Oslash" unicode="&#xd8;" horiz-adv-x="803" 
d="M52 351q0 151 100 255q100 106 248 106q95 0 175 -47l41 59l55 -40l-41 -58q58 -51 90 -122.5t32 -152.5q0 -151 -101 -257q-101 -105 -251 -105q-98 0 -180 49l-42 -60l-56 40l43 62q-113 107 -113 271zM677 351q0 133 -87 217l-329 -471q62 -37 143 -37q119 0 196 83
t77 208zM128 351q0 -128 79 -210l328 467q-60 33 -131 33q-121 0 -199 -84q-77 -83 -77 -206z" />
    <glyph glyph-name="Ugrave" unicode="&#xd9;" horiz-adv-x="668" 
d="M523 275v426h77v-426q0 -126 -71 -206t-195 -80t-195 80t-71 206v426h77v-427q0 -93 49 -154q50 -60 140 -60t139 61q50 62 50 154zM319 769l-109 103h103l91 -103h-85z" />
    <glyph glyph-name="Uacute" unicode="&#xda;" horiz-adv-x="668" 
d="M523 275v426h77v-426q0 -126 -71 -206t-195 -80t-195 80t-71 206v426h77v-427q0 -93 49 -154q50 -60 140 -60t139 61q50 62 50 154zM269 769l91 103h103l-108 -103h-86z" />
    <glyph glyph-name="Ucircumflex" unicode="&#xdb;" horiz-adv-x="668" 
d="M523 275v426h77v-426q0 -126 -71 -206t-195 -80t-195 80t-71 206v426h77v-427q0 -93 49 -154q50 -60 140 -60t139 61q50 62 50 154zM193 769l96 103h97l97 -103h-80l-65 62l-66 -62h-79z" />
    <glyph glyph-name="Udieresis" unicode="&#xdc;" horiz-adv-x="668" 
d="M523 275v426h77v-426q0 -126 -71 -206t-195 -80t-195 80t-71 206v426h77v-427q0 -93 49 -154q50 -60 140 -60t139 61q50 62 50 154zM208 778q-14 15 -14 37t14 37q15 15 37 15t37 -15t15 -37t-15 -37q-15 -14 -37 -14t-37 14zM389 778q-14 15 -14 37t14 37q15 15 37 15
t37 -15t15 -37t-15 -37q-15 -14 -37 -14t-37 14z" />
    <glyph glyph-name="Yacute" unicode="&#xdd;" horiz-adv-x="578" 
d="M23 701h84l183 -343l181 343h84l-228 -418v-283h-76v283zM234 769l91 103h103l-108 -103h-86z" />
    <glyph glyph-name="Thorn" unicode="&#xde;" horiz-adv-x="609" 
d="M324 138h-168v-138h-76v701h76v-120h168q119 0 187 -61q69 -60 69 -161t-70 -161q-69 -60 -186 -60zM335 510h-179v-300h179q79 0 124 38.5t45 110.5q0 71 -45 111t-124 40z" />
    <glyph glyph-name="germandbls" unicode="&#xdf;" horiz-adv-x="644" 
d="M160 0h-75v430q0 130 63.5 200.5t182.5 70.5q91 0 158 -57t67 -141q0 -46 -21 -85t-56 -60q50 -26 79 -70t29 -99q0 -93 -63 -141q-62 -48 -159 -48h-95v68h80q66 0 115 29q48 30 48 93q0 58 -44.5 92t-115.5 34h-83v68h75q61 0 98.5 31.5t37.5 90.5q0 52 -42 89
q-41 38 -108 38q-83 0 -127 -51.5t-44 -151.5v-430z" />
    <glyph glyph-name="agrave" unicode="&#xe0;" horiz-adv-x="520" 
d="M222 -11q-72 0 -118.5 40.5t-46.5 108.5q0 72 49.5 113t131.5 41q54 0 134 -24v50q0 54 -33 84.5t-88 30.5q-43 0 -77.5 -23t-50.5 -58l-51 48q58 102 180 102q90 0 142 -50.5t52 -141.5v-310h-72v51q-56 -62 -152 -62zM131 136q0 -37 26.5 -59t68.5 -22q43 0 82.5 22
t63.5 56v66q-72 24 -130 24q-55 0 -83 -23.5t-28 -63.5zM252 570l-114 131h97l91 -131h-74z" />
    <glyph glyph-name="aacute" unicode="&#xe1;" horiz-adv-x="520" 
d="M222 -11q-72 0 -118.5 40.5t-46.5 108.5q0 72 49.5 113t131.5 41q54 0 134 -24v50q0 54 -33 84.5t-88 30.5q-43 0 -77.5 -23t-50.5 -58l-51 48q58 102 180 102q90 0 142 -50.5t52 -141.5v-310h-72v51q-56 -62 -152 -62zM131 136q0 -37 26.5 -59t68.5 -22q43 0 82.5 22
t63.5 56v66q-72 24 -130 24q-55 0 -83 -23.5t-28 -63.5zM195 570l91 131h97l-114 -131h-74z" />
    <glyph glyph-name="acircumflex" unicode="&#xe2;" horiz-adv-x="520" 
d="M222 -11q-72 0 -118.5 40.5t-46.5 108.5q0 72 49.5 113t131.5 41q54 0 134 -24v50q0 54 -33 84.5t-88 30.5q-43 0 -77.5 -23t-50.5 -58l-51 48q58 102 180 102q90 0 142 -50.5t52 -141.5v-310h-72v51q-56 -62 -152 -62zM131 136q0 -37 26.5 -59t68.5 -22q43 0 82.5 22
t63.5 56v66q-72 24 -130 24q-55 0 -83 -23.5t-28 -63.5zM110 570l97 131h97l97 -131h-74l-72 82l-71 -82h-74z" />
    <glyph glyph-name="atilde" unicode="&#xe3;" horiz-adv-x="520" 
d="M222 -11q-72 0 -118.5 40.5t-46.5 108.5q0 72 49.5 113t131.5 41q54 0 134 -24v50q0 54 -33 84.5t-88 30.5q-43 0 -77.5 -23t-50.5 -58l-51 48q58 102 180 102q90 0 142 -50.5t52 -141.5v-310h-72v51q-56 -62 -152 -62zM131 136q0 -37 26.5 -59t68.5 -22q43 0 82.5 22
t63.5 56v66q-72 24 -130 24q-55 0 -83 -23.5t-28 -63.5zM336 701h57q0 -48 -20.5 -75.5t-54.5 -27.5q-23 0 -42 10l-30 12q-24 10 -38 10q-28 0 -30 -32h-57q0 48 20.5 75.5t54.5 27.5q24 0 42 -9l30 -13q29 -10 37 -10q29 0 31 32z" />
    <glyph glyph-name="adieresis" unicode="&#xe4;" horiz-adv-x="520" 
d="M222 -11q-72 0 -118.5 40.5t-46.5 108.5q0 72 49.5 113t131.5 41q54 0 134 -24v50q0 54 -33 84.5t-88 30.5q-43 0 -77.5 -23t-50.5 -58l-51 48q58 102 180 102q90 0 142 -50.5t52 -141.5v-310h-72v51q-56 -62 -152 -62zM131 136q0 -37 26.5 -59t68.5 -22q43 0 82.5 22
t63.5 56v66q-72 24 -130 24q-55 0 -83 -23.5t-28 -63.5zM130 618q-14 15 -14 37t14 37q15 15 37 15t37 -15t15 -37t-15 -37q-15 -14 -37 -14t-37 14zM311 618q-14 15 -14 37t14 37q15 15 37 15t37 -15t15 -37t-15 -37q-15 -14 -37 -14t-37 14z" />
    <glyph glyph-name="aring" unicode="&#xe5;" horiz-adv-x="520" 
d="M222 -11q-72 0 -118.5 40.5t-46.5 108.5q0 72 49.5 113t131.5 41q54 0 134 -24v50q0 54 -33 84.5t-88 30.5q-43 0 -77.5 -23t-50.5 -58l-51 48q58 102 180 102q90 0 142 -50.5t52 -141.5v-310h-72v51q-56 -62 -152 -62zM131 136q0 -37 26.5 -59t68.5 -22q43 0 82.5 22
t63.5 56v66q-72 24 -130 24q-55 0 -83 -23.5t-28 -63.5zM182 635q0 33 22 55t53 22q34 0 56.5 -21.5t22.5 -55.5q0 -32 -22.5 -54t-56.5 -22q-31 0 -53 22.5t-22 53.5zM260 606q22 -2 26 22q5 24 -12 33q-6 3 -14 2q-24 3 -29 -21q-4 -23 13 -33q7 -4 16 -3z" />
    <glyph glyph-name="ae" unicode="&#xe6;" horiz-adv-x="871" 
d="M418 81q-68 -92 -201 -92q-67 0 -114 41q-46 40 -46 108q0 73 58 113t147 40h111v27q0 53 -32.5 84t-87.5 31q-93 0 -130 -81l-51 48q58 102 182 102q120 0 168 -90q64 90 173 90q75 0 126 -39q93 -70 93 -207l-1 -34h-365q5 -77 48.5 -120.5t115.5 -43.5q84 0 140 72
l52 -47q-79 -94 -198 -94q-126 0 -188 92zM131 136q0 -36 25.5 -58.5t65.5 -22.5q52 0 99 27q48 28 65 64q-13 35 -13 76h-113q-60 0 -94.5 -23.5t-34.5 -62.5zM450 288h289q-5 66 -44 105t-99 39q-59 0 -97.5 -39.5t-48.5 -104.5z" />
    <glyph glyph-name="ccedilla" unicode="&#xe7;" horiz-adv-x="545" 
d="M334 -9l-55 -128h-80l62 130q-88 13 -147 85q-57 72 -57 167q0 106 72 181q73 76 177 76q111 0 183 -87l-50 -49q-55 66 -133 66q-74 0 -124 -54q-49 -52 -49 -133q0 -83 47.5 -135t128.5 -52q83 0 139 72l51 -47q-68 -82 -165 -92z" />
    <glyph glyph-name="egrave" unicode="&#xe8;" horiz-adv-x="556" 
d="M499 256l-1 -34h-365q5 -77 49 -120.5t116 -43.5q82 0 140 72l51 -47q-78 -94 -191 -94q-110 0 -176 70q-65 71 -65 183t60 185q61 75 163 75q75 0 126 -39q93 -70 93 -207zM282 432q-61 0 -98.5 -39t-47.5 -105h288q-5 66 -43.5 105t-98.5 39zM279 570l-114 131h97
l91 -131h-74z" />
    <glyph glyph-name="eacute" unicode="&#xe9;" horiz-adv-x="556" 
d="M133 222q5 -77 49 -120.5t116 -43.5q82 0 140 72l51 -47q-78 -94 -191 -94q-110 0 -176 70q-65 71 -65 183t60 185q61 75 163 75q72 0 124.5 -37.5t73.5 -94.5q21 -52 21 -114q0 -23 -1 -34h-365zM282 432q-61 0 -98.5 -39t-47.5 -105h288q-5 66 -43.5 105t-98.5 39z
M217 570l91 131h97l-114 -131h-74z" />
    <glyph glyph-name="ecircumflex" unicode="&#xea;" horiz-adv-x="556" 
d="M133 222q5 -77 49 -120.5t116 -43.5q82 0 140 72l51 -47q-78 -94 -191 -94q-110 0 -176 70q-65 71 -65 183t60 185q61 75 163 75q72 0 124.5 -37.5t73.5 -94.5q21 -52 21 -114q0 -23 -1 -34h-365zM282 432q-61 0 -98.5 -39t-47.5 -105h288q-5 66 -43.5 105t-98.5 39z
M138 570l97 131h97l97 -131h-74l-72 82l-71 -82h-74z" />
    <glyph glyph-name="edieresis" unicode="&#xeb;" horiz-adv-x="556" 
d="M133 222q5 -77 49 -120.5t116 -43.5q82 0 140 72l51 -47q-78 -94 -191 -94q-110 0 -176 70q-65 71 -65 183t60 185q61 75 163 75q72 0 124.5 -37.5t73.5 -94.5q21 -52 21 -114q0 -23 -1 -34h-365zM282 432q-61 0 -98.5 -39t-47.5 -105h288q-5 66 -43.5 105t-98.5 39z
M152 618q-14 15 -14 37t14 37q15 15 37 15t37 -15t15 -37t-15 -37q-15 -14 -37 -14t-37 14zM333 618q-14 15 -14 37t14 37q15 15 37 15t37 -15t15 -37t-15 -37q-15 -14 -37 -14t-37 14z" />
    <glyph glyph-name="igrave" unicode="&#xec;" horiz-adv-x="249" 
d="M161 0h-74v490h74v-490zM108 570l-114 131h97l91 -131h-74z" />
    <glyph glyph-name="iacute" unicode="&#xed;" horiz-adv-x="249" 
d="M161 0h-74v490h74v-490zM64 570l91 131h97l-114 -131h-74z" />
    <glyph glyph-name="icircumflex" unicode="&#xee;" horiz-adv-x="249" 
d="M-22 570l97 131h97l97 -131h-74l-72 82l-71 -82h-74zM161 0h-74v490h74v-490z" />
    <glyph glyph-name="idieresis" unicode="&#xef;" horiz-adv-x="249" 
d="M-4 618q-14 15 -14 37t15 37q14 15 36 15t37 -15t15 -37t-15 -37q-15 -14 -37 -14t-37 14zM177 618q-14 15 -14 37t14 37q15 15 37 15t37 -15t15 -37t-15 -37q-15 -14 -37 -14t-37 14zM161 0h-74v490h74v-490z" />
    <glyph glyph-name="eth" unicode="&#xf0;" horiz-adv-x="593" 
d="M296 572l-110 -60v68l75 41l-57 80h88l31 -46l104 57v-68l-69 -38l112 -161q84 -122 84 -217q0 -104 -68 -172q-67 -67 -175 -67q-103 0 -173 63t-70 170q0 104 70 168t168 64q46 0 86 -17zM311 60q68 0 117 44q49 45 49 117q0 73 -48 116q-48 45 -118 45t-118 -45
q-48 -43 -48 -116q0 -72 48 -117q49 -44 118 -44z" />
    <glyph glyph-name="ntilde" unicode="&#xf1;" horiz-adv-x="576" 
d="M364 701h57q0 -48 -20.5 -75.5t-54.5 -27.5q-23 0 -42 10l-30 12q-24 10 -38 10q-28 0 -30 -32h-57q0 48 20.5 75.5t54.5 27.5q24 0 42 -9l30 -13q29 -10 37 -10q29 0 31 32zM80 490h72v-60q25 32 67.5 52t87.5 20q94 0 144.5 -56.5t50.5 -160.5v-285h-75v291
q0 68 -33 105t-92 37q-71 0 -109.5 -50.5t-38.5 -139.5v-243h-74v490z" />
    <glyph glyph-name="ograve" unicode="&#xf2;" horiz-adv-x="608" 
d="M303 -11q-105 0 -176 74q-70 74 -70 182t70 182q71 75 176 75t176 -75q72 -75 72 -182q0 -106 -71 -182q-71 -74 -177 -74zM303 58q75 0 123 53q48 54 48 134q0 81 -48 133q-48 54 -123 54q-74 0 -122 -54q-48 -52 -48 -133q0 -80 48 -134q48 -53 122 -53zM295 570
l-114 131h97l91 -131h-74z" />
    <glyph glyph-name="oacute" unicode="&#xf3;" horiz-adv-x="608" 
d="M303 -11q-105 0 -176 74q-70 74 -70 182t70 182q71 75 176 75t176 -75q72 -75 72 -182q0 -106 -71 -182q-71 -74 -177 -74zM303 58q75 0 123 53q48 54 48 134q0 81 -48 133q-48 54 -123 54q-74 0 -122 -54q-48 -52 -48 -133q0 -80 48 -134q48 -53 122 -53zM227 570
l91 131h97l-114 -131h-74z" />
    <glyph glyph-name="ocircumflex" unicode="&#xf4;" horiz-adv-x="608" 
d="M303 -11q-105 0 -176 74q-70 74 -70 182t70 182q71 75 176 75t176 -75q72 -75 72 -182q0 -106 -71 -182q-71 -74 -177 -74zM303 58q75 0 123 53q48 54 48 134q0 81 -48 133q-48 54 -123 54q-74 0 -122 -54q-48 -52 -48 -133q0 -80 48 -134q48 -53 122 -53zM157 570
l97 131h97l97 -131h-74l-72 82l-71 -82h-74z" />
    <glyph glyph-name="otilde" unicode="&#xf5;" horiz-adv-x="608" 
d="M377 701h57q0 -48 -20.5 -75.5t-54.5 -27.5q-23 0 -42 10l-30 12q-24 10 -38 10q-28 0 -30 -32h-57q0 48 20.5 75.5t54.5 27.5q24 0 42 -9l30 -13q29 -10 37 -10q29 0 31 32zM303 -11q-105 0 -176 74q-70 74 -70 182t70 182q71 75 176 75t176 -75q72 -75 72 -182
q0 -106 -71 -182q-71 -74 -177 -74zM303 58q75 0 123 53q48 54 48 134q0 81 -48 133q-48 54 -123 54q-74 0 -122 -54q-48 -52 -48 -133q0 -80 48 -134q48 -53 122 -53z" />
    <glyph glyph-name="odieresis" unicode="&#xf6;" horiz-adv-x="608" 
d="M303 -11q-105 0 -176 74q-70 74 -70 182t70 182q71 75 176 75t176 -75q72 -75 72 -182q0 -106 -71 -182q-71 -74 -177 -74zM303 58q75 0 123 53q48 54 48 134q0 81 -48 133q-48 54 -123 54q-74 0 -122 -54q-48 -52 -48 -133q0 -80 48 -134q48 -53 122 -53zM174 618
q-14 15 -14 37t14 37q15 15 37 15t37 -15t15 -37t-15 -37q-15 -14 -37 -14t-37 14zM355 618q-14 15 -14 37t14 37q15 15 37 15t37 -15t15 -37t-15 -37q-15 -14 -37 -14t-37 14z" />
    <glyph glyph-name="divide" unicode="&#xf7;" horiz-adv-x="650" 
d="M326 108q26 0 43.5 -17t17.5 -43q0 -25 -17.5 -42t-43.5 -17q-25 0 -42 17t-17 42t17 42.5t42 17.5zM326 501q26 0 43.5 -17t17.5 -43q0 -25 -17.5 -42t-43.5 -17q-25 0 -42 17t-17 42t17 42.5t42 17.5zM570 215h-490v68h490v-68z" />
    <glyph glyph-name="oslash" unicode="&#xf8;" horiz-adv-x="619" 
d="M63 245q0 108 70 182q71 75 176 75q62 0 116 -30l29 41l56 -40l-29 -42q76 -76 76 -186q0 -106 -71 -182q-71 -74 -177 -74q-63 0 -118 30l-29 -42l-56 40l30 43q-73 74 -73 185zM480 245q0 75 -42 126l-207 -295q35 -18 78 -18q75 0 123 53q48 54 48 134zM139 245
q0 -75 40 -124l206 293q-35 18 -76 18q-74 0 -122 -54q-48 -52 -48 -133z" />
    <glyph glyph-name="ugrave" unicode="&#xf9;" horiz-adv-x="547" 
d="M467 0h-71v62q-57 -73 -155 -73q-184 0 -184 216v285h74v-288q0 -143 120 -143q70 0 106 48.5t36 139.5v243h74v-490zM248 570l-114 131h97l91 -131h-74z" />
    <glyph glyph-name="uacute" unicode="&#xfa;" horiz-adv-x="547" 
d="M467 0h-71v62q-57 -73 -155 -73q-184 0 -184 216v285h74v-288q0 -143 120 -143q70 0 106 48.5t36 139.5v243h74v-490zM195 570l91 131h97l-114 -131h-74z" />
    <glyph glyph-name="ucircumflex" unicode="&#xfb;" horiz-adv-x="547" 
d="M467 0h-71v62q-57 -73 -155 -73q-184 0 -184 216v285h74v-288q0 -143 120 -143q70 0 106 48.5t36 139.5v243h74v-490zM116 570l97 131h97l97 -131h-74l-72 82l-71 -82h-74z" />
    <glyph glyph-name="udieresis" unicode="&#xfc;" horiz-adv-x="547" 
d="M467 0h-71v62q-57 -73 -155 -73q-184 0 -184 216v285h74v-288q0 -143 120 -143q70 0 106 48.5t36 139.5v243h74v-490zM136 618q-14 15 -14 37t14 37q15 15 37 15t37 -15t15 -37t-15 -37q-15 -14 -37 -14t-37 14zM317 618q-14 15 -14 37t14 37q15 15 37 15t37 -15t15 -37
t-15 -37q-15 -14 -37 -14t-37 14z" />
    <glyph glyph-name="yacute" unicode="&#xfd;" horiz-adv-x="540" 
d="M157 -194l74 188l-203 496h83l161 -407l158 407h82l-274 -684h-81zM223 570l91 131h97l-114 -131h-74z" />
    <glyph glyph-name="thorn" unicode="&#xfe;" horiz-adv-x="604" 
d="M154 65v-259h-74v895h74v-278q67 79 165 79q99 0 164 -75q64 -73 64 -182t-64 -182q-65 -74 -164 -74q-101 0 -165 76zM428 111q43 52 43 134t-43 134q-44 53 -116 53q-73 0 -117 -53q-43 -52 -43 -134t43 -134q44 -53 117 -53q72 0 116 53z" />
    <glyph glyph-name="ydieresis" unicode="&#xff;" horiz-adv-x="540" 
d="M157 -194l74 188l-203 496h83l161 -407l158 407h82l-274 -684h-81zM145 618q-14 15 -14 37t14 37q15 15 37 15t37 -15t15 -37t-15 -37q-15 -14 -37 -14t-37 14zM326 618q-14 15 -14 37t14 37q15 15 37 15t37 -15t15 -37t-15 -37q-15 -14 -37 -14t-37 14z" />
    <glyph glyph-name="dotlessi" unicode="&#x131;" horiz-adv-x="249" 
d="M161 0h-74v490h74v-490z" />
    <glyph glyph-name="Lslash" unicode="&#x141;" horiz-adv-x="577" 
d="M120 312l-78 -22l-19 68l97 28v315h76v-292l102 30l19 -69l-121 -36v-262h341v-72h-417v312z" />
    <glyph glyph-name="lslash" unicode="&#x142;" horiz-adv-x="351" 
d="M136 315l-88 -25l-20 68l108 32v311h74v-290l93 28l20 -69l-113 -33v-337h-74v315z" />
    <glyph glyph-name="OE" unicode="&#x152;" horiz-adv-x="914" 
d="M51 351q0 155 104 253q104 97 266 97h425v-72h-326v-236h314v-72h-314v-249h326v-72h-425q-162 0 -266 97q-104 98 -104 254zM128 351q0 -130 80 -205q80 -74 213 -74h22v557h-22q-128 0 -210 -76q-83 -75 -83 -202z" />
    <glyph glyph-name="oe" unicode="&#x153;" horiz-adv-x="974" 
d="M917 256l-2 -34h-364q5 -76 48.5 -120t115.5 -44q84 0 140 72l51 -47q-78 -94 -191 -94q-145 0 -207 117q-33 -55 -86.5 -86t-118.5 -31q-105 0 -176 74q-70 74 -70 182t70 182q71 75 176 75q65 0 118.5 -31t86.5 -88q60 119 190 119q57 0 100.5 -22t68.5 -59t37.5 -78.5
t12.5 -86.5zM474 245q0 82 -49 134q-48 53 -122 53t-122 -54q-48 -52 -48 -133q0 -80 48 -134q48 -53 122 -53t122 53q49 52 49 134zM699 432q-61 0 -98.5 -39t-47.5 -105h288q-4 65 -42.5 104.5t-99.5 39.5z" />
    <glyph glyph-name="Scaron" unicode="&#x160;" horiz-adv-x="638" 
d="M358 311l-86 15q-87 15 -142 63q-56 48 -56 129q0 88 72 141q73 53 170 53q143 0 241 -107l-51 -56q-77 92 -196 92q-69 0 -114.5 -33.5t-45.5 -86.5q0 -99 149 -123l69 -12q103 -16 158 -67t55 -133q0 -86 -70 -141q-71 -56 -186 -56q-84 0 -155 35t-113 93l52 54
q81 -111 225 -111q76 0 123.5 33.5t47.5 91.5q0 101 -147 126zM465 872l-97 -103h-97l-96 103h79l66 -62l65 62h80z" />
    <glyph glyph-name="scaron" unicode="&#x161;" horiz-adv-x="484" 
d="M276 203l-73 17q-139 33 -139 141q0 65 50 103t119 38q98 0 174 -79l-50 -53q-60 63 -129 63q-40 0 -65 -19t-25 -50q0 -56 73 -72l77 -18q139 -33 139 -138q0 -66 -50 -106.5t-133 -40.5q-61 0 -114 25.5t-84 66.5l49 51q60 -75 148 -75q52 0 81 20t29 55q0 53 -77 71z
M381 701l-97 -131h-97l-97 131h74l71 -82l72 82h74z" />
    <glyph glyph-name="Ydieresis" unicode="&#x178;" horiz-adv-x="578" 
d="M23 701h84l183 -343l181 343h84l-228 -418v-283h-76v283zM168 778q-14 15 -14 37t14 37q15 15 37 15t37 -15t15 -37t-15 -37q-15 -14 -37 -14t-37 14zM349 778q-14 15 -14 37t14 37q15 15 37 15t37 -15t15 -37t-15 -37q-15 -14 -37 -14t-37 14z" />
    <glyph glyph-name="Zcaron" unicode="&#x17d;" horiz-adv-x="621" 
d="M65 629v72h494v-68l-402 -561h399v-72h-493v68l401 561h-399zM453 872l-97 -103h-97l-96 103h79l66 -62l65 62h80z" />
    <glyph glyph-name="zcaron" unicode="&#x17e;" horiz-adv-x="504" 
d="M74 422v68h356v-63l-274 -359h285v-68h-378v63l271 359h-260zM392 701l-96 -131h-97l-97 131h74l71 -82l72 82h73z" />
    <glyph glyph-name="florin" unicode="&#x192;" horiz-adv-x="365" 
d="M125 -21v443h-91v68h91v37q0 90 43 132t130 42l38 -1v-68q-17 1 -37 1q-54 0 -77 -25t-23 -81v-37h126v-68h-126v-443q0 -90 -43 -132t-129 -42l-38 1v69q34 -2 37 -2q54 0 76.5 25t22.5 81z" />
    <glyph glyph-name="circumflex" unicode="&#x2c6;" horiz-adv-x="556" 
d="M133 570l97 131h97l97 -131h-74l-72 82l-71 -82h-74z" />
    <glyph glyph-name="caron" unicode="&#x2c7;" horiz-adv-x="484" 
d="M380 701l-97 -131h-97l-97 131h74l71 -82l72 82h74z" />
    <glyph glyph-name="breve" unicode="&#x2d8;" horiz-adv-x="556" 
d="M141 701h66q4 -35 23 -54.5t50 -19.5q65 0 73 74h67q-5 -64 -42.5 -103t-97.5 -39t-97 39t-42 103z" />
    <glyph glyph-name="dotaccent" unicode="&#x2d9;" horiz-adv-x="249" 
d="M68 642v13q0 3 2 11q1 5 4 11l3 5q10 15 31 23q3 0 4 1q2 0 6.5 0.5t5.5 0.5h4l2 -1h3h2q1 -1 4 -1l5 -2q6 -1 11 -6q9 -6 15 -15l4 -5l2 -6q0 -1 1 -4l2 -6t1 -6v-9v-2l-1 -2v-3l-3 -8l-2 -6l-6 -9q-4 -6 -9 -9l-4 -3l-5 -3q-10 -6 -22 -6h-13q-15 3 -26 12q-6 3 -9 9
l-3 3l-3 6l-4 10q-1 1 -1 4q0 2 -1 3z" />
    <glyph glyph-name="ring" unicode="&#x2da;" horiz-adv-x="520" 
d="M180 635q0 33 22 55t53 22q34 0 56.5 -21.5t22.5 -55.5q0 -32 -22.5 -54t-56.5 -22q-31 0 -53 22.5t-22 53.5zM258 606q22 -2 26 22q5 24 -12 33q-6 3 -14 2q-24 3 -29 -21q-4 -23 13 -33q7 -4 16 -3z" />
    <glyph glyph-name="ogonek" unicode="&#x2db;" horiz-adv-x="556" 
d="M135 570l91 131h97l-114 -131h-74zM300 570l91 131h97l-114 -131h-74z" />
    <glyph glyph-name="tilde" unicode="&#x2dc;" horiz-adv-x="576" 
d="M359 701h57q0 -48 -20.5 -75.5t-54.5 -27.5q-23 0 -42 10l-30 12q-24 10 -38 10q-28 0 -30 -32h-57q0 48 20.5 75.5t54.5 27.5q24 0 42 -9l30 -13q29 -10 37 -10q29 0 31 32z" />
    <glyph glyph-name="hungarumlaut" unicode="&#x2dd;" horiz-adv-x="545" 
d="M336 -6l-57 -131h-80l63 131h74z" />
    <glyph glyph-name="increment" unicode="&#x394;" horiz-adv-x="700" 
d="M80 65l238 636h64l238 -636v-65h-540v65zM546 71l-196 530l-196 -530h392z" />
    <glyph glyph-name="increment" unicode="&#x2206;" horiz-adv-x="700" 
d="M80 65l238 636h64l238 -636v-65h-540v65zM546 71l-196 530l-196 -530h392z" />
    <glyph glyph-name="Omega" unicode="&#x3a9;" horiz-adv-x="762" 
d="M521 68h125v-68h-197v184q78 17 122 79q45 63 45 145q0 102 -68 168q-67 66 -166 66q-98 0 -167 -66q-68 -66 -68 -168q0 -82 45 -145t121 -79v-184h-197v68h126v74q-75 28 -121 100q-47 74 -47 166q0 130 89 217q90 87 218 87q127 0 216 -88q90 -87 90 -216
q0 -91 -47 -165q-45 -72 -119 -101v-74z" />
    <glyph glyph-name="Omega" unicode="&#x2126;" horiz-adv-x="762" 
d="M521 68h125v-68h-197v184q78 17 122 79q45 63 45 145q0 102 -68 168q-67 66 -166 66q-98 0 -167 -66q-68 -66 -68 -168q0 -82 45 -145t121 -79v-184h-197v68h126v74q-75 28 -121 100q-47 74 -47 166q0 130 89 217q90 87 218 87q127 0 216 -88q90 -87 90 -216
q0 -91 -47 -165q-45 -72 -119 -101v-74z" />
    <glyph glyph-name="pi" unicode="&#x3c0;" horiz-adv-x="642" 
d="M505 0h-71v422h-227v-422h-70v422h-80v68h528v-68h-80v-422z" />
    <glyph glyph-name="endash" unicode="&#x2013;" horiz-adv-x="576" 
d="M502 228h-422v68h422v-68z" />
    <glyph glyph-name="emdash" unicode="&#x2014;" horiz-adv-x="855" 
d="M781 228h-701v68h701v-68z" />
    <glyph glyph-name="quoteleft" unicode="&#x2018;" horiz-adv-x="262" 
d="M131 701l93 -229h-80l-106 229h93z" />
    <glyph glyph-name="quoteright" unicode="&#x2019;" horiz-adv-x="262" 
d="M227 701l-106 -229h-80l93 229h93z" />
    <glyph glyph-name="quotesinglbase" unicode="&#x201a;" horiz-adv-x="268" 
d="M199 114l-106 -229h-80l93 229h93z" />
    <glyph glyph-name="quotedblleft" unicode="&#x201c;" horiz-adv-x="446" 
d="M319 701l93 -229h-80l-106 229h93zM134 701l93 -229h-80l-106 229h93z" />
    <glyph glyph-name="quotedblright" unicode="&#x201d;" horiz-adv-x="446" 
d="M227 701l-106 -229h-80l93 229h93zM412 701l-106 -229h-80l93 229h93z" />
    <glyph glyph-name="quotedblbase" unicode="&#x201e;" horiz-adv-x="450" 
d="M214 114l-106 -229h-80l93 229h93zM396 114l-106 -229h-80l93 229h93z" />
    <glyph glyph-name="dagger" unicode="&#x2020;" horiz-adv-x="548" 
d="M46 418v72h190v211h76v-211h191v-72h-191v-612h-76v612h-190z" />
    <glyph glyph-name="daggerdbl" unicode="&#x2021;" horiz-adv-x="548" 
d="M46 114v72h190v232h-190v72h190v211h76v-211h191v-72h-191v-232h191v-72h-191v-308h-76v308h-190z" />
    <glyph glyph-name="bullet" unicode="&#x2022;" horiz-adv-x="404" 
d="M68 262q0 56 39 95t95 39q55 0 94 -39t39 -95t-39 -95q-38 -38 -94 -38t-95 39t-39 94z" />
    <glyph glyph-name="ellipsis" unicode="&#x2026;" horiz-adv-x="769" 
d="M150 108q26 0 43.5 -17t17.5 -43q0 -25 -17.5 -42t-43.5 -17q-25 0 -42 17t-17 42t17 42.5t42 17.5zM406 108q26 0 43.5 -17t17.5 -43q0 -25 -17.5 -42t-43.5 -17q-25 0 -42 17t-17 42t17 42.5t42 17.5zM663 108q26 0 43.5 -17t17.5 -43q0 -25 -17.5 -42t-43.5 -17
q-25 0 -42 17t-17 42t17 42.5t42 17.5z" />
    <glyph glyph-name="perthousand" unicode="&#x2030;" horiz-adv-x="1009" 
d="M186 712q52 0 90 -38q37 -37 37 -90q0 -54 -37 -91t-90 -37q-55 0 -92 37t-37 91q0 53 37 90q38 38 92 38zM186 519q25 0 43 18.5t18 46.5q0 29 -18 47.5t-43 18.5q-26 0 -44.5 -19t-18.5 -47t18.5 -46.5t44.5 -18.5zM382 116q0 54 37 91q38 38 92 38q52 0 90 -38
q37 -37 37 -91q0 -53 -37 -90t-90 -37q-55 0 -92 37t-37 90zM511 51q25 0 43 18.5t18 46.5q0 29 -18 47.5t-43 18.5t-44 -19t-19 -47t18.5 -46.5t44.5 -18.5zM695 116q0 54 37 91q38 38 92 38q52 0 90 -38t38 -91q0 -52 -38 -90q-37 -37 -90 -37q-55 0 -92 37t-37 90z
M762 116q0 -28 18 -46.5t44 -18.5t44 18.5t18 46.5q0 29 -18.5 47.5t-43.5 18.5q-26 0 -44 -18.5t-18 -47.5zM173 0h-81l428 701h80z" />
    <glyph glyph-name="guilsinglleft" unicode="&#x2039;" horiz-adv-x="321" 
d="M171 0l-137 245l137 245h82l-139 -245l139 -245h-82z" />
    <glyph glyph-name="guilsinglright" unicode="&#x203a;" horiz-adv-x="416" 
d="M235 490l137 -245l-137 -245h-82l139 245l-139 245h82z" />
    <glyph glyph-name="fraction" unicode="&#x2044;" horiz-adv-x="580" 
d="M117 0h-81l428 701h80z" />
    <glyph glyph-name="Euro" unicode="&#x20ac;" horiz-adv-x="693" 
d="M125 388h-68v68h77q24 116 98 186t183 70q132 0 211 -109l-50 -52q-59 90 -161 90q-76 0 -129.5 -49t-73.5 -136h244v-68h-254q-1 -9 -1 -39q0 -7 2 -41h253v-69h-243q20 -85 72.5 -132t128.5 -47q102 0 173 86l49 -56q-96 -101 -222 -101q-107 0 -180.5 67t-98.5 183
h-78v69h68q-1 9 -1 41q0 30 1 39z" />
    <glyph glyph-name="trademark" unicode="&#x2122;" horiz-adv-x="847" 
d="M23 643v58h289v-58h-114v-335h-63v335h-112zM610 389h-65l-96 190v-271h-63v393h68l123 -251l124 251h66v-393h-62v271z" />
    <glyph glyph-name="arrownorthwest" unicode="&#x2196;" horiz-adv-x="669" 
d="M521 521v-72h-316l404 -405l-52 -53l-405 405v-316h-72v441h441z" />
    <glyph glyph-name="arrownortheast" unicode="&#x2197;" horiz-adv-x="669" 
d="M60 44l404 405h-316v72h441v-441h-72v316l-405 -405z" />
    <glyph glyph-name="arrowsoutheast" unicode="&#x2198;" horiz-adv-x="669" 
d="M182 0v72h316l-404 405l52 53l405 -405v316h72v-441h-441z" />
    <glyph glyph-name="arrowsouthwest" unicode="&#x2199;" horiz-adv-x="669" 
d="M609 477l-404 -405h316v-72h-441v441h72v-316l405 405z" />
    <glyph glyph-name="partialdiff" unicode="&#x2202;" horiz-adv-x="587" 
d="M280 -11q-87 0 -155 64q-68 65 -68 169q0 103 67 167q68 65 156 65q56 0 104 -26t74 -75q5 133 -46 210q-51 78 -144 78q-89 0 -140 -74l-53 55q73 90 193 90q127 0 194 -96q68 -95 68 -259q0 -167 -68 -268q-67 -100 -182 -100zM133 222q0 -78 42 -120q43 -42 101 -42
q66 0 108 48t42 121q0 66 -40 109q-41 44 -100 44q-60 0 -107 -44q-46 -43 -46 -116z" />
    <glyph glyph-name="product" unicode="&#x220f;" horiz-adv-x="641" 
d="M555 -194h-71v616h-328v-616h-71v684h470v-684z" />
    <glyph glyph-name="summation" unicode="&#x2211;" horiz-adv-x="519" 
d="M462 630h-325l220 -376l-220 -377h325v-71h-411v65l221 383l-221 382v65h411v-71z" />
    <glyph glyph-name="minus" unicode="&#x2212;" horiz-adv-x="650" 
d="M570 226h-490v68h490v-68z" />
    <glyph glyph-name="radical" unicode="&#x221a;" horiz-adv-x="697" 
d="M46 422v68h159l147 -399l227 610h74l-262 -701h-76l-160 422h-109z" />
    <glyph glyph-name="infinity" unicode="&#x221e;" horiz-adv-x="1145" 
d="M523 375l49 -67l48 66q95 128 217 128q98 0 168 -76q71 -76 71 -181q0 -104 -71 -181q-71 -75 -168 -75q-125 0 -216 126l-49 67l-48 -66q-94 -127 -216 -127q-98 0 -169 75q-71 77 -71 181t71 181q70 76 169 76q124 0 215 -127zM308 431q-70 0 -119 -54
q-48 -54 -48 -132t48 -132q49 -54 119 -54q48 0 83 25t78 82l57 79l-57 80q-42 56 -77.5 81t-83.5 25zM676 324l-58 -80l58 -79q39 -55 76 -80.5t85 -25.5q69 0 117 54q49 53 49 132t-49 132q-48 54 -117 54q-48 0 -84 -25.5t-77 -81.5z" />
    <glyph glyph-name="integral" unicode="&#x222b;" horiz-adv-x="348" 
d="M137 -21v548q0 90 43 132t129 42l39 -1v-68q-18 1 -38 1q-54 0 -76.5 -25t-22.5 -81v-548q0 -90 -43 -132t-129 -42l-39 1v69q34 -2 38 -2q54 0 76.5 25t22.5 81z" />
    <glyph glyph-name="approxequal" unicode="&#x2248;" horiz-adv-x="653" 
d="M512 429h63q5 -62 -24 -102.5t-80 -40.5q-25 0 -78 17l-137 48q-32 13 -57 13q-52 0 -52 -72h-62q-5 62 24 102t80 40q25 0 78 -17l137 -48q36 -12 57 -12q51 0 51 72zM512 236h63q5 -62 -24 -102.5t-80 -40.5q-29 0 -78 18l-137 47q-32 13 -57 13q-52 0 -52 -72h-62
q-5 62 24 102.5t80 40.5q25 0 78 -17l137 -48q32 -13 57 -13q51 0 51 72z" />
    <glyph glyph-name="notequal" unicode="&#x2260;" horiz-adv-x="650" 
d="M323 308h-243v69h285l70 113h79l-69 -113h125v-69h-168l-70 -114h238v-68h-280l-77 -126h-80l77 126h-130v68h172z" />
    <glyph glyph-name="lessequal" unicode="&#x2264;" horiz-adv-x="605" 
d="M537 80l-491 175v71l491 176v-78l-391 -133l391 -134v-77zM537 -68h-490v68h490v-68z" />
    <glyph glyph-name="greaterequal" unicode="&#x2265;" horiz-adv-x="605" 
d="M68 502l492 -176v-71l-492 -175v77l391 134l-391 133v78zM559 -68h-490v68h490v-68z" />
    <glyph glyph-name="lozenge" unicode="&#x25ca;" horiz-adv-x="650" 
d="M68 247l225 454h64l224 -454l-224 -452h-64zM325 611l-179 -364l179 -362l179 362z" />
    <glyph glyph-name="fi" unicode="&#xfb01;" horiz-adv-x="613" 
d="M514 0h-74v422h-241v-422h-74v422h-91v68h91v37q0 90 43 132t130 42l27 -1v-68q-10 1 -26 1q-54 0 -77 -25t-23 -81v-37h315v-490zM422 646v14l1 2q3 19 20 33l9 6q5 3 14 5h3q1 0 2 0.5t2 0.5h5q7 0 9 -1q1 0 3 -0.5t3 -0.5l4 -2l6 -2l6 -4q7 -5 8 -7l6 -6l2 -4
q2 -2 2 -3q5 -7 6 -15q1 -2 1 -11v-5l-2 -9q-3 -13 -13 -24l-2 -2l-5 -4l-9 -6l-6 -3h-1q-1 -1 -3 -1l-6 -2h-18l-7 2q-2 0 -4 1l-12 6l-3 3q-7 5 -12 12l-6 12q-2 6 -2 8q-1 1 -1 7z" />
    <glyph glyph-name="fl" unicode="&#xfb02;" horiz-adv-x="594" 
d="M298 701h216v-701h-74v633h-141q-54 0 -77 -25t-23 -81v-37h126v-68h-126v-422h-74v422h-91v68h91v37q0 90 43 132t130 42z" />
    <glyph glyph-name="NULL" horiz-adv-x="0" 
 />
    <glyph glyph-name="CR" horiz-adv-x="333" 
 />
    <glyph glyph-name="acutecap" horiz-adv-x="608" 
d="M245 769l91 103h103l-108 -103h-86z" />
    <glyph glyph-name="caroncap" horiz-adv-x="608" 
d="M458 872l-97 -103h-97l-96 103h79l66 -62l65 62h80z" />
    <glyph glyph-name="ringcap" 
d="M255 777q0 39 25.5 64t61.5 25q39 0 64.5 -25t25.5 -64q0 -36 -26 -61.5t-64 -25.5q-35 0 -61 26t-26 61zM310 777q0 -20 17 -28.5t33.5 0t16.5 28.5q0 21 -16.5 29.5t-33.5 0t-17 -29.5z" />
    <glyph glyph-name="gravecap" horiz-adv-x="608" 
d="M291 769l-109 103h103l91 -103h-85z" />
    <glyph glyph-name="circumflexcap" horiz-adv-x="608" 
d="M168 769l96 103h97l97 -103h-80l-65 62l-66 -62h-79z" />
    <glyph glyph-name="zero.onum" 
d="M68 274q0 123 79 203q79 82 195 82t197 -82q82 -81 82 -203t-82 -204q-81 -81 -197 -81t-195 81q-79 80 -79 204zM342 487q-86 0 -141 -61q-56 -61 -56 -152t56 -153q55 -61 141 -61q83 0 143 62q60 61 60 152q0 90 -60 151q-60 62 -143 62z" />
    <glyph glyph-name="one.onum" horiz-adv-x="510" 
d="M63 0v72h166v361q-64 -50 -166 -50v68q133 6 178 96h65v-475h158v-72h-401z" />
    <glyph glyph-name="two.onum" horiz-adv-x="560" 
d="M149 72h339v-72h-420v23q0 101 45 155q44 55 156 94l35 13q59 21 84.5 46t25.5 65t-33 65.5t-89 25.5q-113 0 -166 -116l-52 52q30 64 85.5 100t127.5 36q89 0 146 -45q58 -45 58 -124q0 -61 -37 -100.5t-109 -67.5l-55 -20q-74 -27 -106 -54q-30 -26 -35 -76z" />
    <glyph glyph-name="three.onum" horiz-adv-x="563" 
d="M378 218q52 -21 84.5 -64.5t32.5 -101.5q0 -98 -64 -149q-65 -51 -162 -51q-65 0 -124.5 27t-98.5 74l52 53q69 -82 176 -82q65 0 104.5 33t39.5 94q0 59 -44.5 90t-121.5 31h-53v73h42q75 0 117.5 33t42.5 92q0 58 -41 87q-40 30 -90 30q-88 0 -156 -75l-51 51
q85 96 203 96q85 0 149 -50q63 -50 63 -140q0 -56 -32 -97q-31 -40 -68 -54z" />
    <glyph glyph-name="four.onum" horiz-adv-x="611" 
d="M554 72v-72h-97v-137h-76v137h-324v66l329 481h71v-475h97zM381 417l-237 -345h237v345z" />
    <glyph glyph-name="five.onum" horiz-adv-x="592" 
d="M458 81q0 72 -44 113.5t-114 41.5q-44 0 -82.5 -22t-56.5 -54h-70l17 387h374v-72h-304l-12 -220q50 53 143 53q95 0 160 -61q66 -60 66 -166q0 -94 -68 -162q-67 -67 -181 -67q-135 0 -218 113l54 53q64 -94 169 -94q72 0 119 43q48 43 48 114z" />
    <glyph glyph-name="six.onum" horiz-adv-x="627" 
d="M329 -11q-114 0 -182 98q-67 97 -67 264q0 161 70 252q71 92 192 92q120 0 193 -90l-53 -56q-51 75 -140 75q-88 0 -142 -75q-52 -73 -48 -201q26 48 74 74t103 26q89 0 156 -64q68 -65 68 -167q0 -105 -69 -167q-67 -61 -155 -61zM184 223q0 -69 42 -116t108 -47
q57 0 100 41q43 40 43 116q0 71 -47 115t-106 44t-100 -44q-40 -43 -40 -109z" />
    <glyph glyph-name="seven.onum" horiz-adv-x="557" 
d="M129 333h-72v214h455v-66q-216 -234 -248 -578l-3 -40h-76l3 39q14 168 73.5 316t156.5 257h-289v-142z" />
    <glyph glyph-name="eight.onum" horiz-adv-x="600" 
d="M68 181q0 59 38 106q39 47 79 57q-36 14 -68 53q-32 41 -32 95q0 87 64 136q65 50 151 50q85 0 150 -50q64 -49 64 -136q0 -54 -32 -94q-31 -38 -67 -54q41 -10 78 -57q38 -47 38 -106q0 -87 -68 -140q-67 -52 -163 -52q-97 0 -164 52q-68 53 -68 140zM300 306
q-69 0 -112 -33t-43 -91t45 -90q47 -32 110 -32t109 32q46 31 46 90q0 58 -45 91t-110 33zM162 491q0 -53 38.5 -83.5t99.5 -30.5q60 0 99 30.5t39 83.5q0 59 -43 87t-95 28t-95 -28t-43 -87z" />
    <glyph glyph-name="nine.onum" horiz-adv-x="627" 
d="M298 559q114 0 181 -99q68 -98 68 -264q0 -161 -70 -252q-71 -92 -192 -92q-119 0 -193 90l53 56q51 -74 140 -74q88 0 141 74q54 73 49 201q-26 -48 -74 -74t-103 -26q-90 0 -157 64t-67 168t68 166q70 62 156 62zM443 324q0 70 -42 116q-42 47 -108 47q-57 0 -101 -41
q-42 -41 -42 -115q0 -73 46 -116q47 -44 107 -44q59 0 100 44q40 43 40 109z" />
    <glyph glyph-name="zero.ss01" horiz-adv-x="618" 
d="M72 217q-32 134 0 268q34 141 123 196q49 31 114 31q64 0 113 -31q90 -54 124 -196q32 -134 0 -268q-34 -143 -124 -198q-50 -30 -113 -30q-65 0 -114 30q-89 56 -123 198zM309 641q-83 0 -130 -80q-46 -79 -46 -210q0 -59 9 -108l312 286q-46 112 -145 112zM484 351
q0 55 -9 103l-310 -286q47 -108 144 -108q84 0 129 79q46 79 46 212z" />
    <glyph glyph-name="one.ss01" horiz-adv-x="538" 
d="M68 0v72h183v557h-171v72h249v-629h175v-72h-436z" />
    <glyph glyph-name="two.ss01" horiz-adv-x="596" 
d="M192 600q-43 -42 -43 -104t43 -104t106 -42q62 0 106 42t44 104t-43 104t-106 42t-107 -42zM76 496q0 92 65 154t158 62q92 0 157 -62t65 -154q0 -57 -27.5 -105t-86.5 -104l-227 -215h342v-72h-448v66l229 219q-6 -2 -20 -2q-85 0 -147 62q-60 61 -60 151z" />
    <glyph glyph-name="three.ss01" horiz-adv-x="586" 
d="M472 700v-68l-176 -218q92 -2 150 -61q60 -59 60 -140q0 -98 -66 -161t-171 -63q-144 0 -223 112l51 52q67 -94 172 -94q72 0 118 40.5t46 107.5q0 64 -43.5 102t-122.5 38h-64v64l174 217h-294v72h389z" />
    <glyph glyph-name="four.ss01" horiz-adv-x="564" 
d="M323 413h76v-164h120v-72h-120v-177h-76v177h-268v156l268 367h91l-283 -391v-60h192v164z" />
    <glyph glyph-name="five.ss01" horiz-adv-x="591" 
d="M455 225q0 65 -45 109q-46 44 -109 44q-52 0 -90 -25t-54 -66h-71v414h396v-72h-320v-232q56 53 141 53q91 0 159 -61q69 -61 69 -163q0 -99 -66 -168t-182 -69q-135 0 -215 111l55 53q58 -91 163 -91q73 0 121 45q48 46 48 118z" />
    <glyph glyph-name="six.ss01" horiz-adv-x="619" 
d="M308 -11q-108 0 -175 67q-68 68 -68 172q0 96 84 217l178 256h92l-188 -264q40 17 83 17q97 0 167 -64t70 -168q0 -107 -71 -170q-70 -63 -172 -63zM308 60q69 0 118 44q48 45 48 117q0 73 -48 116q-48 45 -118 45t-118 -45q-47 -44 -47 -116t48 -117q49 -44 117 -44z
" />
    <glyph glyph-name="seven.ss01" horiz-adv-x="535" 
d="M125 470h-74v231h449v-71l-273 -630h-81l277 630h-298v-160z" />
    <glyph glyph-name="eight.ss01" horiz-adv-x="544" 
d="M55 193q0 55 28.5 102t70.5 72q-36 25 -59 64.5t-23 87.5q0 80 56 136q57 57 144 57q86 0 143 -57q57 -56 57 -136q0 -48 -23 -87.5t-59 -64.5q42 -25 70.5 -72t28.5 -102q0 -85 -61 -145q-62 -59 -156 -59t-156 59q-61 60 -61 145zM373 290q-40 40 -101 40t-101 -40
q-40 -39 -40 -97q0 -59 39 -96q41 -38 102 -38t101 38q40 37 40 96q0 58 -40 97zM148 522q0 -53 34.5 -87.5t89.5 -34.5t89.5 34.5t34.5 87.5q0 52 -36 86t-88 34t-88 -34t-36 -86z" />
    <glyph glyph-name="nine.ss01" horiz-adv-x="611" 
d="M311 712q107 0 175 -68t68 -171q0 -95 -84 -217l-178 -256h-91l188 264q-40 -17 -83 -17q-98 0 -168 64t-70 168q0 107 70 170t173 63zM311 641q-70 0 -118 -45q-48 -44 -48 -116t48 -117q49 -44 118 -44t118 44q48 45 48 117q0 73 -49 116q-48 45 -117 45z" />
    <glyph glyph-name="A.ss01" horiz-adv-x="664" 
d="M234 700h196l189 -700h-81l-44 161h-324l-44 -161h-81zM373 630h-82l-103 -396h288z" />
    <glyph glyph-name="Aacute.ss01" horiz-adv-x="664" 
d="M234 700h196l189 -700h-81l-44 161h-324l-44 -161h-81zM373 630h-82l-103 -396h288zM264 769l91 103h103l-108 -103h-86z" />
    <glyph glyph-name="Agrave.ss01" horiz-adv-x="664" 
d="M234 700h196l189 -700h-81l-44 161h-324l-44 -161h-81zM373 630h-82l-103 -396h288zM316 769l-109 103h103l91 -103h-85z" />
    <glyph glyph-name="Acircumflex.ss01" horiz-adv-x="664" 
d="M234 700h196l189 -700h-81l-44 161h-324l-44 -161h-81zM373 630h-82l-103 -396h288zM186 769l96 103h97l97 -103h-80l-65 62l-66 -62h-79z" />
    <glyph glyph-name="Adieresis.ss01" horiz-adv-x="664" 
d="M234 700h196l189 -700h-81l-44 161h-324l-44 -161h-81zM373 630h-82l-103 -396h288zM203 795q-14 15 -14 37t14 37q15 15 37 15t37 -15t15 -37t-15 -37q-15 -14 -37 -14t-37 14zM384 795q-14 15 -14 37t14 37q15 15 37 15t37 -15t15 -37t-15 -37q-15 -14 -37 -14t-37 14z
" />
    <glyph glyph-name="Atilde.ss01" horiz-adv-x="664" 
d="M234 700h196l189 -700h-81l-44 161h-324l-44 -161h-81zM373 630h-82l-103 -396h288zM406 872h57q0 -48 -20.5 -75.5t-54.5 -27.5q-23 0 -42 10l-30 12q-24 10 -38 10q-28 0 -30 -32h-57q0 48 20.5 75.5t54.5 27.5q24 0 42 -9l30 -13q29 -10 37 -10q29 0 31 32z" />
    <glyph glyph-name="Aring.ss01" horiz-adv-x="664" 
d="M243 777q0 39 25.5 64t61.5 25q39 0 64.5 -25t25.5 -64q0 -52 -48 -77h58l189 -700h-81l-44 161h-324l-44 -161h-81l189 700h56q-47 24 -47 77zM373 630h-82l-103 -396h288zM298 777q0 -20 17 -28.5t33.5 0t16.5 28.5q0 21 -16.5 29.5t-33.5 0t-17 -29.5z" />
    <glyph glyph-name="AE.ss01" horiz-adv-x="889" 
d="M45 0l189 700h580v-72h-365l64 -235h290v-72h-271l67 -249h215v-72h-276l-44 161h-324l-44 -161h-81zM373 630h-82l-103 -396h288z" />
    <glyph glyph-name="Ccedilla.ss01" horiz-adv-x="700" 
d="M436 -9v-128h-74v128q-138 14 -227 115q-89 104 -89 243q0 151 99 257q100 106 248 106q165 0 262 -120l-51 -54q-79 103 -211 103q-116 0 -194 -84q-77 -85 -77 -208q0 -122 78 -206q80 -83 198 -83q138 0 219 105l49 -56q-93 -105 -230 -118z" />
    <glyph glyph-name="G.ss01" horiz-adv-x="728" 
d="M592 277h-194v72h268v-349h-74v45q-86 -56 -194 -56q-152 0 -252 105q-100 104 -100 255t99 257q100 106 248 106q165 0 262 -120l-51 -54q-79 103 -211 103q-116 0 -194 -84q-77 -85 -77 -208q0 -122 78 -206q80 -83 198 -83q120 0 194 74v143z" />
    <glyph glyph-name="I.ss01" horiz-adv-x="473" 
d="M198 633h-135v68h347v-68h-135v-565h135v-68h-347v68h135v565z" />
    <glyph glyph-name="Iacute.ss01" horiz-adv-x="473" 
d="M198 633h-135v68h347v-68h-135v-565h135v-68h-347v68h135v565zM175 769l91 103h103l-108 -103h-86z" />
    <glyph glyph-name="Igrave.ss01" horiz-adv-x="473" 
d="M198 633h-135v68h347v-68h-135v-565h135v-68h-347v68h135v565zM211 769l-109 103h103l91 -103h-85z" />
    <glyph glyph-name="Icircumflex.ss01" horiz-adv-x="473" 
d="M198 633h-135v68h347v-68h-135v-565h135v-68h-347v68h135v565zM92 769l96 103h97l97 -103h-80l-65 62l-66 -62h-79z" />
    <glyph glyph-name="Idieresis.ss01" horiz-adv-x="473" 
d="M198 633h-135v68h347v-68h-135v-565h135v-68h-347v68h135v565zM110 795q-14 15 -14 37t14 37q15 15 37 15t37 -15t15 -37t-15 -37q-15 -14 -37 -14t-37 14zM291 795q-14 15 -14 37t14 37q15 15 37 15t37 -15t15 -37t-15 -37q-15 -14 -37 -14t-37 14z" />
    <glyph glyph-name="J.ss01" horiz-adv-x="527" 
d="M382 629h-228v72h304v-483q0 -107 -54.5 -168t-157.5 -61q-98 0 -155 62q-57 63 -57 155v32h77v-32q0 -68 38 -107t97 -39q136 0 136 158v411z" />
    <glyph glyph-name="K.ss01" horiz-adv-x="592" 
d="M135 0h-77v701h77v-301h122l205 301h87l-226 -331l232 -370h-90l-207 330h-123v-330z" />
    <glyph glyph-name="M.ss01" horiz-adv-x="821" 
d="M280 701l128 -611l131 611h202v-701h-76v632h-63l-139 -632h-110l-136 632h-61v-632h-76v701h200z" />
    <glyph glyph-name="Q.ss01" horiz-adv-x="810" 
d="M46 351q0 151 100 255q100 106 248 106q150 0 250 -106q102 -105 102 -255q0 -151 -101 -257q-101 -105 -251 -105q-148 0 -249 105q-99 105 -99 257zM565 116l-169 169l50 51l169 -168q56 77 56 183q0 123 -77 206q-76 84 -196 84q-121 0 -199 -84q-77 -83 -77 -206
q0 -125 77 -208t199 -83q96 0 167 56z" />
    <glyph glyph-name="V.ss01" horiz-adv-x="644" 
d="M278 70h88l175 630h83l-199 -700h-206l-199 700h83z" />
    <glyph glyph-name="W.ss01" horiz-adv-x="926" 
d="M583 70h75l175 630h83l-199 -700h-191l-63 225l-63 -225h-191l-199 700h83l175 -630h75l78 278l-100 352h79l63 -231l63 231h79l-100 -352z" />
    <glyph glyph-name="X.ss01" horiz-adv-x="651" 
d="M520 0l-143 325h-110l-143 -325h-81l159 359l-146 342h81l130 -306h110l130 306h81l-146 -342l159 -359h-81z" />
    <glyph glyph-name="a.ss01" horiz-adv-x="530" 
d="M371 422h-253v68h327v-490h-212q-72 0 -121 44q-47 45 -47 109q0 63 49 108q50 45 119 45h138v116zM238 67h133v172h-133q-44 0 -72.5 -24.5t-28.5 -61.5t28.5 -61.5t72.5 -24.5z" />
    <glyph glyph-name="aacute.ss01" horiz-adv-x="604" 
d="M398 422h-253v68h327v-490h-212q-72 0 -121 44q-47 45 -47 109q0 63 49 108t119 45h138v116zM265 67h133v172h-133q-44 0 -72.5 -24.5t-28.5 -61.5t28.5 -61.5t72.5 -24.5zM265 570l91 131h97l-114 -131h-74z" />
    <glyph glyph-name="agrave.ss01" horiz-adv-x="604" 
d="M398 422h-253v68h327v-490h-212q-72 0 -121 44q-47 45 -47 109q0 63 49 108t119 45h138v116zM265 67h133v172h-133q-44 0 -72.5 -24.5t-28.5 -61.5t28.5 -61.5t72.5 -24.5zM298 570l-114 131h97l91 -131h-74z" />
    <glyph glyph-name="acircumflex.ss01" horiz-adv-x="604" 
d="M398 422h-253v68h327v-490h-212q-72 0 -121 44q-47 45 -47 109q0 63 49 108t119 45h138v116zM265 67h133v172h-133q-44 0 -72.5 -24.5t-28.5 -61.5t28.5 -61.5t72.5 -24.5zM179 570l97 131h97l97 -131h-74l-72 82l-71 -82h-74z" />
    <glyph glyph-name="adieresis.ss01" horiz-adv-x="604" 
d="M398 422h-253v68h327v-490h-212q-72 0 -121 44q-47 45 -47 109q0 63 49 108t119 45h138v116zM265 67h133v172h-133q-44 0 -72.5 -24.5t-28.5 -61.5t28.5 -61.5t72.5 -24.5zM193 618q-14 15 -14 37t14 37q15 15 37 15t37 -15t15 -37t-15 -37q-15 -14 -37 -14t-37 14z
M374 618q-14 15 -14 37t14 37q15 15 37 15t37 -15t15 -37t-15 -37q-15 -14 -37 -14t-37 14z" />
    <glyph glyph-name="atilde.ss01" horiz-adv-x="604" 
d="M398 422h-253v68h327v-490h-212q-72 0 -121 44q-47 45 -47 109q0 63 49 108t119 45h138v116zM265 67h133v172h-133q-44 0 -72.5 -24.5t-28.5 -61.5t28.5 -61.5t72.5 -24.5zM405 701h57q0 -48 -20.5 -75.5t-54.5 -27.5q-23 0 -42 10l-30 12q-24 10 -38 10q-28 0 -30 -32
h-57q0 48 20.5 75.5t54.5 27.5q24 0 42 -9l30 -13q29 -10 37 -10q29 0 31 32z" />
    <glyph glyph-name="aring.ss01" horiz-adv-x="604" 
d="M398 422h-253v68h327v-490h-212q-72 0 -121 44q-47 45 -47 109q0 63 49 108t119 45h138v116zM265 67h133v172h-133q-44 0 -72.5 -24.5t-28.5 -61.5t28.5 -61.5t72.5 -24.5zM249 635q0 33 22 55t53 22q34 0 56.5 -21.5t22.5 -55.5q0 -32 -22.5 -54t-56.5 -22
q-31 0 -53 22.5t-22 53.5zM327 606q22 -2 26 22q5 24 -12 33q-6 3 -14 2q-24 3 -29 -21q-4 -23 13 -33q7 -4 16 -3z" />
    <glyph glyph-name="ae.ss01" horiz-adv-x="801" 
d="M228 280h143v142h-253v68h455q75 0 119 -37t44 -103q0 -65 -47 -103q-46 -37 -116 -37h-128v-143h278v-67h-495q-73 0 -118 38t-45 102t45 102t118 38zM233 67h138v146h-138q-96 0 -96 -73t96 -73zM568 423h-123v-146h123q96 0 96 73t-96 73z" />
    <glyph glyph-name="ccedilla.ss01" horiz-adv-x="545" 
d="M336 -9l-2 -128h-72v130q-88 13 -148 85q-57 70 -57 167q0 106 72 181q73 76 177 76q111 0 183 -87l-50 -49q-55 66 -133 66q-74 0 -124 -54q-49 -52 -49 -133q0 -83 47.5 -135t128.5 -52q83 0 139 72l51 -47q-68 -80 -163 -92z" />
    <glyph glyph-name="e.ss01" horiz-adv-x="511" 
d="M263 157q-66 0 -109 37v-127h278v-67h-352v315q0 87 52 136q52 51 131 51q78 0 130 -49q53 -50 53 -124q0 -73 -54 -123q-52 -49 -129 -49zM372 329q0 43 -31 73.5t-78 30.5q-48 0 -79 -31q-30 -30 -30 -73t30 -73q32 -30 79 -30t78 30t31 73z" />
    <glyph glyph-name="eacute.ss01" horiz-adv-x="511" 
d="M263 157q-66 0 -109 37v-127h278v-67h-352v315q0 87 52 136q52 51 131 51q78 0 130 -49q53 -50 53 -124q0 -73 -54 -123q-52 -49 -129 -49zM372 329q0 43 -31 73.5t-78 30.5q-48 0 -79 -31q-30 -30 -30 -73t30 -73q32 -30 79 -30t78 30t31 73zM205 570l91 131h97
l-114 -131h-74z" />
    <glyph glyph-name="egrave.ss01" horiz-adv-x="511" 
d="M263 157q-66 0 -109 37v-127h278v-67h-352v315q0 87 52 136q52 51 131 51q78 0 130 -49q53 -50 53 -124q0 -73 -54 -123q-52 -49 -129 -49zM372 329q0 43 -31 73.5t-78 30.5q-48 0 -79 -31q-30 -30 -30 -73t30 -73q32 -30 79 -30t78 30t31 73zM262 570l-114 131h97
l91 -131h-74z" />
    <glyph glyph-name="ecircumflex.ss01" horiz-adv-x="511" 
d="M263 157q-66 0 -109 37v-127h278v-67h-352v315q0 87 52 136q52 51 131 51q78 0 130 -49q53 -50 53 -124q0 -73 -54 -123q-52 -49 -129 -49zM372 329q0 43 -31 73.5t-78 30.5q-48 0 -79 -31q-30 -30 -30 -73t30 -73q32 -30 79 -30t78 30t31 73zM120 570l97 131h97l97 -131
h-74l-72 82l-71 -82h-74z" />
    <glyph glyph-name="edieresis.ss01" horiz-adv-x="511" 
d="M263 157q-66 0 -109 37v-127h278v-67h-352v315q0 87 52 136q52 51 131 51q78 0 130 -49q53 -50 53 -124q0 -73 -54 -123q-52 -49 -129 -49zM372 329q0 43 -31 73.5t-78 30.5q-48 0 -79 -31q-30 -30 -30 -73t30 -73q32 -30 79 -30t78 30t31 73zM136 618q-14 15 -14 37
t14 37q15 15 37 15t37 -15t15 -37t-15 -37q-15 -14 -37 -14t-37 14zM317 618q-14 15 -14 37t14 37q15 15 37 15t37 -15t15 -37t-15 -37q-15 -14 -37 -14t-37 14z" />
    <glyph glyph-name="f.ss01" horiz-adv-x="418" 
d="M103 422h-80v68h80v72q0 63 43 106q44 44 109 44t109 -44t44 -106v-11h-74v10q0 35 -24 58.5t-55 23.5q-32 0 -55 -23.5t-23 -58.5v-71h231v-68h-231v-422h-74v422z" />
    <glyph glyph-name="g.ss01" horiz-adv-x="573" 
d="M282 490h231v-70h-66q58 -61 58 -146q0 -90 -61 -151q-60 -62 -146 -62q-14 0 -20 2l235 -191v-66h-443v67h332l-234 194q-108 91 -108 207q0 93 64 154q65 62 158 62zM432 274q0 60 -42 102q-41 43 -102 44h-6q-62 0 -106 -42q-43 -42 -43 -104t43 -104q44 -42 107 -42
t106 42t43 104z" />
    <glyph glyph-name="h.ss01" horiz-adv-x="559" 
d="M80 701h74v-211h313v-490h-74v422h-239v-422h-74v701z" />
    <glyph glyph-name="j.ss01" horiz-adv-x="293" 
d="M101 657q0 22 16.5 38.5t39.5 16.5t39.5 -16t16.5 -39t-16.5 -39.5t-39.5 -16.5t-39.5 16.5t-16.5 39.5zM195 490v-684h-195v68h120v616h75z" />
    <glyph glyph-name="k.ss01" horiz-adv-x="503" 
d="M154 0h-74v701h74v-423h122l112 212h81l-129 -245l138 -245h-81l-121 209h-122v-209z" />
    <glyph glyph-name="l.ss01" horiz-adv-x="233" 
d="M153 701v-701h-73v701h73z" />
    <glyph glyph-name="m.ss01" horiz-adv-x="826" 
d="M80 490h667v-490h-74v422h-223v-422h-74v422h-222v-422h-74v490z" />
    <glyph glyph-name="n.ss01" horiz-adv-x="547" 
d="M80 0v490h387v-490h-74v422h-239v-422h-74z" />
    <glyph glyph-name="ntilde.ss01" horiz-adv-x="547" 
d="M467 490v-490h-74v422h-239v-422h-74v490h387zM354 701h57q0 -48 -20.5 -75.5t-54.5 -27.5q-23 0 -42 10l-30 12q-24 10 -38 10q-28 0 -30 -32h-57q0 48 20.5 75.5t54.5 27.5q24 0 42 -9l30 -13q29 -10 37 -10q29 0 31 32z" />
    <glyph glyph-name="oe.ss01" horiz-adv-x="908" 
d="M660 157q-77 0 -122 50q-12 -84 -66 -140h357v-67h-526q-105 0 -176 72q-70 71 -70 178q0 106 70 179t176 73q129 0 193 -96q23 46 66.5 71t97.5 25q78 0 130 -49q53 -50 53 -124q0 -73 -54 -123q-52 -49 -129 -49zM303 68q77 0 123 51q48 51 48 131t-48 131
q-46 51 -123 51q-75 0 -123 -51q-47 -52 -47 -131t47 -131q48 -51 123 -51zM769 329q0 43 -31 73.5t-78 30.5t-78 -30.5t-31 -73.5t31 -73t78 -30t78 30t31 73z" />
    <glyph glyph-name="r.ss01" horiz-adv-x="363" 
d="M328 422h-174v-422h-74v490h248v-68z" />
    <glyph glyph-name="s.ss01" horiz-adv-x="484" 
d="M233 502q98 0 174 -79l-50 -53q-60 63 -129 63q-38 0 -60.5 -17t-22.5 -43q0 -21 15 -38.5t51 -39.5l218 -133q-7 -81 -58 -127t-137 -46q-117 0 -188 92l49 51q55 -75 138 -75q48 0 78 20t37 53l-183 109q-94 55 -94 131q0 59 47 95q47 37 115 37z" />
    <glyph glyph-name="t.ss01" horiz-adv-x="382" 
d="M331 68v-68h-203v422h-105v68h105v137h69v-137h139v-68h-139v-354h134z" />
    <glyph glyph-name="u.ss01" horiz-adv-x="536" 
d="M456 490v-490h-376v490h74v-422h228v422h74z" />
    <glyph glyph-name="uacute.ss01" horiz-adv-x="536" 
d="M80 0v490h74v-422h228v422h74v-490h-376zM217 570l91 131h97l-114 -131h-74z" />
    <glyph glyph-name="ugrave.ss01" horiz-adv-x="536" 
d="M456 490v-490h-376v490h74v-422h228v422h74zM251 570l-114 131h97l91 -131h-74z" />
    <glyph glyph-name="ucircumflex.ss01" horiz-adv-x="536" 
d="M80 0v490h74v-422h228v422h74v-490h-376zM122 570l97 131h97l97 -131h-74l-72 82l-71 -82h-74z" />
    <glyph glyph-name="udieresis.ss01" horiz-adv-x="536" 
d="M80 0v490h74v-422h228v422h74v-490h-376zM140 618q-14 15 -14 37t14 37q15 15 37 15t37 -15t15 -37t-15 -37q-15 -14 -37 -14t-37 14zM321 618q-14 15 -14 37t14 37q15 15 37 15t37 -15t15 -37t-15 -37q-15 -14 -37 -14t-37 14z" />
    <glyph glyph-name="y.ss01" horiz-adv-x="540" 
d="M308 -9v-185h-78v185l-202 499h82l160 -407l160 407h82z" />
    <glyph glyph-name="yacute.ss01" horiz-adv-x="540" 
d="M308 -9v-185h-78v185l-202 499h82l160 -407l160 407h82zM207 570l91 131h97l-114 -131h-74z" />
    <glyph glyph-name="ydieresis.ss01" horiz-adv-x="540" 
d="M308 -9v-185h-78v185l-202 499h82l160 -407l160 407h82zM146 618q-14 15 -14 37t14 37q15 15 37 15t37 -15t15 -37t-15 -37q-15 -14 -37 -14t-37 14zM327 618q-14 15 -14 37t14 37q15 15 37 15t37 -15t15 -37t-15 -37q-15 -14 -37 -14t-37 14z" />
    <glyph glyph-name="period.ss01" horiz-adv-x="308" 
d="M91 51q0 27 18.5 45t44.5 18t44.5 -18t18.5 -45q0 -26 -18.5 -44t-44.5 -18t-44.5 18t-18.5 44z" />
    <glyph glyph-name="colon.ss01" horiz-adv-x="326" 
d="M91 51q0 27 18.5 45t44.5 18t44.5 -18t18.5 -45q0 -26 -18.5 -44t-44.5 -18t-44.5 18t-18.5 44zM91 439q0 27 18.5 45t44.5 18t44.5 -18t18.5 -45q0 -26 -18.5 -44t-44.5 -18t-44.5 18t-18.5 44z" />
    <glyph glyph-name="comma.ss01" horiz-adv-x="307" 
d="M204 85l-103 -233l-78 34l102 234z" />
    <glyph glyph-name="semicolon.ss01" horiz-adv-x="308" 
d="M204 85l-103 -233l-78 34l102 234zM91 439q0 27 18.5 45t44.5 18t44.5 -18t18.5 -45q0 -26 -18.5 -44t-44.5 -18t-44.5 18t-18.5 44z" />
    <glyph glyph-name="ellipsis.ss01" horiz-adv-x="769" 
d="M91 51q0 27 18.5 45t44.5 18t44.5 -18t18.5 -45q0 -26 -18.5 -44t-44.5 -18t-44.5 18t-18.5 44zM346 51q0 27 18.5 45t44.5 18t44.5 -18t18.5 -45q0 -26 -18.5 -44t-44.5 -18t-44.5 18t-18.5 44zM602 51q0 27 18.5 45t44.5 18t44.5 -18t18.5 -45q0 -26 -18.5 -44
t-44.5 -18t-44.5 18t-18.5 44z" />
    <glyph glyph-name="question.ss01" horiz-adv-x="534" 
d="M221 272h-24v70h22q85 0 134 47q49 46 49 108q0 59 -43 101q-42 43 -102 43q-113 0 -176 -109l-51 56q85 124 227 124q92 0 157 -62t65 -150t-69 -158t-189 -70zM235 -11q-26 0 -44.5 18.5t-18.5 44.5t18.5 44.5t44.5 18.5q27 0 45 -18.5t18 -44.5t-18 -44.5t-45 -18.5z
" />
    <glyph glyph-name="questiondown.ss01" horiz-adv-x="492" 
d="M312 221v-70h-22q-85 0 -135 -47q-48 -46 -48 -108q0 -59 42 -101q43 -43 103 -43q113 0 176 109l51 -56q-79 -124 -227 -124q-92 0 -157 62t-65 150q0 87 69 158q69 70 189 70h24zM270 376q-26 0 -44.5 18.5t-18.5 44.5t18.5 44.5t44.5 18.5q27 0 45 -18.5t18 -44.5
t-18 -44.5t-45 -18.5z" />
    <glyph glyph-name="exclam.ss01" horiz-adv-x="308" 
d="M192 228h-77v473h77v-473zM91 51q0 27 18.5 45t44.5 18t44.5 -18t18.5 -45q0 -26 -18.5 -44t-44.5 -18t-44.5 18t-18.5 44z" />
    <glyph glyph-name="exclamdown.ss01" horiz-adv-x="308" 
d="M116 262h77v-456h-77v456zM198 483q19 -18 19 -44t-19 -45q-18 -18 -44 -18t-45 18q-18 19 -18 45t18 44q19 19 45 19t44 -19z" />
    <glyph glyph-name="quotedblleft.ss01" horiz-adv-x="421" 
d="M213 685l-93 -229l-74 32l104 224zM375 679l-93 -229l-75 32l105 225z" />
    <glyph glyph-name="quotedblright.ss01" horiz-adv-x="421" 
d="M208 478l93 229l74 -32l-104 -224zM46 484l93 229l75 -32l-105 -225z" />
    <glyph glyph-name="quoteleft.ss01" horiz-adv-x="259" 
d="M213 685l-93 -229l-74 32l104 224z" />
    <glyph glyph-name="quoteright.ss01" horiz-adv-x="259" 
d="M46 483l93 229l74 -32l-104 -224z" />
    <glyph glyph-name="quotesinglbase.ss01" horiz-adv-x="259" 
d="M46 -109l93 229l74 -32l-105 -225z" />
    <glyph glyph-name="quotedblbase.ss01" horiz-adv-x="421" 
d="M208 -115l93 229l74 -32l-104 -224zM46 -109l93 229l75 -32l-105 -225z" />
    <glyph glyph-name="ampersand.ss01" horiz-adv-x="687" 
d="M336 701v-72h-38q-58 0 -93 -32t-35 -83t35 -83t93 -32h147v302h76v-302h134v-72h-134v-327h-236q-94 0 -159 53q-63 54 -63 145q0 51 27.5 96.5t75.5 75.5q-33 24 -53 62.5t-20 80.5q0 83 59 136q58 52 150 52h34zM139 198q0 -55 38.5 -90.5t101.5 -35.5h166v255h-166
q-63 0 -101.5 -36.5t-38.5 -92.5z" />
    <glyph glyph-name="germandbls.ss01" horiz-adv-x="594" 
d="M319 327h-72v71l163 230h-260v-628h-76v700h423v-72l-165 -230q93 -2 154 -57q62 -56 62 -142q0 -88 -65 -144q-64 -55 -158 -55h-78v71h72q69 0 111 34.5t42 93.5t-42 93.5t-111 34.5z" />
    <glyph glyph-name="dollar.ss01" horiz-adv-x="638" 
d="M358 311l-86 15q-87 15 -142 63q-56 48 -56 129q0 82 63 134q62 51 153 59v104h71v-106q113 -14 196 -104l-51 -56q-77 92 -196 92q-69 0 -114.5 -33.5t-45.5 -86.5q0 -99 149 -123l69 -12q103 -16 158 -67t55 -133q0 -78 -60 -133q-59 -54 -160 -62v-105h-71v105
q-74 7 -134.5 40.5t-98.5 85.5l52 54q81 -111 225 -111q76 0 123.5 33.5t47.5 91.5q0 101 -147 126z" />
    <glyph glyph-name="zero.ss02" horiz-adv-x="618" 
d="M438 139q46 79 46 212q0 132 -46 211q-45 79 -129 79q-83 0 -130 -80q-46 -79 -46 -210q0 -132 46 -211q47 -80 130 -80q84 0 129 79zM72 217q-32 134 0 268q34 141 123 196q49 31 114 31q64 0 113 -31q90 -54 124 -196q32 -134 0 -268q-34 -143 -124 -198
q-50 -30 -113 -30q-65 0 -114 30q-89 56 -123 198z" />
    <glyph glyph-name="one.ss02" horiz-adv-x="340" 
d="M239 0h-75v565l-116 -95v88l182 154h9v-712z" />
    <glyph glyph-name="two.ss02" horiz-adv-x="573" 
d="M371 289l-176 -217h310v-72h-457v9l294 359q65 80 65 147q0 59 -38 92.5t-97 33.5q-108 0 -162 -116l-53 52q29 61 87 98t125 37q94 0 155 -53q60 -53 60 -143q0 -51 -26 -101t-87 -126z" />
    <glyph glyph-name="three.ss02" horiz-adv-x="570" 
d="M484 701v-9l-192 -283q97 -9 152.5 -64.5t55.5 -141.5q0 -91 -70 -152q-71 -62 -172 -62q-132 0 -223 112l51 52q75 -94 177 -94q71 0 117 39q47 39 47 104q0 61 -49 98t-130 37h-82v10l189 282h-288v72h417z" />
    <glyph glyph-name="four.ss02" horiz-adv-x="586" 
d="M540 249v-72h-97v-177h-76v177h-346v9l413 532h9v-469h97zM367 524l-215 -275h215v275z" />
    <glyph glyph-name="five.ss02" horiz-adv-x="564" 
d="M438 225q0 66 -47 110q-46 43 -113 43q-53 0 -92.5 -25t-55.5 -66l-67 20l98 394h298v-72h-244l-55 -219q49 40 121 40q91 0 162 -60q71 -59 71 -164q0 -101 -68 -169t-185 -68q-66 0 -123.5 32.5t-91.5 83.5l52 50q68 -95 166 -95q75 0 124 46q50 47 50 119z" />
    <glyph glyph-name="six.ss02" horiz-adv-x="611" 
d="M300 -11q-108 0 -175 67q-68 68 -68 172q0 96 84 217l178 256h88l-188 -264q40 17 87 17q97 0 167 -64t70 -168q0 -107 -71 -170q-70 -63 -172 -63zM300 60q69 0 118 44q48 45 48 117q0 73 -48 116q-48 45 -118 45t-118 -45q-47 -44 -47 -116t48 -117q49 -44 117 -44z
" />
    <glyph glyph-name="seven.ss02" horiz-adv-x="488" 
d="M366 630h-356v71h461v-9l-276 -692h-84z" />
    <glyph glyph-name="eight.ss02" horiz-adv-x="568" 
d="M57 204q0 62 31 112t83 78q-70 58 -70 138q0 77 54 128q53 52 130 52t130 -52q54 -51 54 -128q0 -80 -70 -138q52 -28 83 -78t31 -112q0 -98 -66 -157q-64 -58 -162 -58t-163 58q-65 59 -65 157zM133 207q0 -68 43 -108t109 -40q65 0 108 40q44 41 44 108q0 63 -44 107
q-43 43 -108 43t-108 -43q-44 -44 -44 -107zM173 532q0 -46 33 -76t79 -30t79 30t33 76q0 47 -33 78.5t-79 31.5t-79 -31.5t-33 -78.5z" />
    <glyph glyph-name="nine.ss02" horiz-adv-x="611" 
d="M311 712q107 0 175 -68t68 -171q0 -95 -84 -217l-178 -256h-88l188 264q-40 -17 -86 -17q-98 0 -168 64t-70 168q0 107 70 170t173 63zM311 641q-70 0 -118 -45q-48 -44 -48 -116t48 -117q49 -44 118 -44t118 44q48 45 48 117q0 73 -49 116q-48 45 -117 45z" />
    <glyph glyph-name="A.ss02" 
d="M340 718h9l329 -718h-83l-75 161h-354l-73 -161h-82zM491 234l-147 323l-147 -323h294z" />
    <glyph glyph-name="Aacute.ss02" 
d="M340 718h9l329 -718h-83l-75 161h-354l-73 -161h-82zM491 234l-147 323l-147 -323h294zM302 769l91 103h103l-108 -103h-86z" />
    <glyph glyph-name="Agrave.ss02" 
d="M340 718h9l329 -718h-83l-75 161h-354l-73 -161h-82zM491 234l-147 323l-147 -323h294zM291 769l-109 103h103l91 -103h-85z" />
    <glyph glyph-name="Acircumflex.ss02" 
d="M340 718h9l329 -718h-83l-75 161h-354l-73 -161h-82zM491 234l-147 323l-147 -323h294zM200 769l96 103h97l97 -103h-80l-65 62l-66 -62h-79z" />
    <glyph glyph-name="Adieresis.ss02" 
d="M340 718h9l329 -718h-83l-75 161h-354l-73 -161h-82zM491 234l-147 323l-147 -323h294zM217 783q-14 15 -14 37t14 37q15 15 37 15t37 -15t15 -37t-15 -37q-15 -14 -37 -14t-37 14zM398 783q-14 15 -14 37t14 37q15 15 37 15t37 -15t15 -37t-15 -37q-15 -14 -37 -14
t-37 14z" />
    <glyph glyph-name="Atilde.ss02" 
d="M340 718h9l329 -718h-83l-75 161h-354l-73 -161h-82zM491 234l-147 323l-147 -323h294zM424 872h57q0 -48 -20.5 -75.5t-54.5 -27.5q-23 0 -42 10l-30 12q-24 10 -38 10q-28 0 -30 -32h-57q0 48 20.5 75.5t54.5 27.5q24 0 42 -9l30 -13q29 -10 37 -10q29 0 31 32z" />
    <glyph glyph-name="Aring.ss02" 
d="M255 788q0 38 25.5 63.5t61.5 25.5q39 0 64.5 -25t25.5 -64q0 -33 -21.5 -57.5t-54.5 -28.5l322 -702h-83l-75 161h-354l-73 -161h-82l321 701q-32 4 -54.5 29t-22.5 58zM491 234l-147 323l-147 -323h294zM310 788q0 -20 17 -28.5t33.5 0t16.5 28.5q0 21 -16.5 29.5
t-33.5 0t-17 -29.5z" />
    <glyph glyph-name="AE.ss02" horiz-adv-x="893" 
d="M337 701h487v-72h-440l110 -236h319v-72h-285l116 -249h180v-72h-229l-77 161h-349l-76 -161h-82zM487 234l-143 312l-143 -312h286z" />
    <glyph glyph-name="K.ss02" horiz-adv-x="555" 
d="M431 0l-296 328v-328h-77v701h77v-310l282 310h99l-307 -340l323 -361h-101z" />
    <glyph glyph-name="M.ss02" horiz-adv-x="798" 
d="M405 98h-9l-240 375v-473h-76v718h9l310 -488l310 488h9v-718h-76v473z" />
    <glyph glyph-name="N.ss02" horiz-adv-x="712" 
d="M633 -17h-9l-468 538v-521h-76v718h9l467 -540v523h77v-718z" />
    <glyph glyph-name="Ntilde.ss02" horiz-adv-x="712" 
d="M433 872h57q0 -48 -20.5 -75.5t-54.5 -27.5q-23 0 -42 10l-30 12q-24 10 -38 10q-28 0 -30 -32h-57q0 48 20.5 75.5t54.5 27.5q24 0 42 -9l30 -13q29 -10 37 -10q29 0 31 32zM633 -17h-9l-468 538v-521h-76v718h9l467 -540v523h77v-718z" />
    <glyph glyph-name="Q.ss02" horiz-adv-x="814" 
d="M46 351q0 151 100 255q100 106 248 106q150 0 250 -106q102 -105 102 -255q0 -132 -80 -233l101 -100l-51 -51l-100 100q-96 -78 -222 -78q-148 0 -249 105q-99 105 -99 257zM398 60q118 0 195 83q78 84 78 208q0 123 -77 206q-76 84 -196 84q-121 0 -199 -84
q-77 -83 -77 -206q0 -125 77 -208t199 -83z" />
    <glyph glyph-name="R.ss02" horiz-adv-x="649" 
d="M597 0h-93l-211 258h-137v-258h-76v701h244q118 0 186 -61q70 -60 70 -161q0 -87 -52 -144t-142 -72zM335 629h-179v-300h179q79 0 124 38.5t45 111.5q0 71 -45 110.5t-124 39.5z" />
    <glyph glyph-name="S.ss02" horiz-adv-x="582" 
d="M336 305l-103 41q-78 31 -117 75.5t-39 109.5q0 82 59 132q58 49 152 49q71 0 118 -27t83 -81l-53 -54q-31 46 -66.5 68.5t-87.5 22.5q-57 0 -93 -31t-36 -76q0 -43 25.5 -69t88.5 -52l79 -32q96 -39 136 -84t40 -116q0 -81 -64 -136q-64 -56 -175 -56q-155 0 -238 128
l52 54q68 -111 190 -111q71 0 115 33t44 87q0 45 -26 74t-84 51z" />
    <glyph glyph-name="Scaron.ss02" horiz-adv-x="582" 
d="M336 305l-103 41q-78 31 -117 75.5t-39 109.5q0 82 59 132q58 49 152 49q71 0 118 -27t83 -81l-53 -54q-31 46 -66.5 68.5t-87.5 22.5q-57 0 -93 -31t-36 -76q0 -43 25.5 -69t88.5 -52l79 -32q96 -39 136 -84t40 -116q0 -81 -64 -136q-64 -56 -175 -56q-155 0 -238 128
l52 54q68 -111 190 -111q71 0 115 33t44 87q0 45 -26 74t-84 51zM434 872l-97 -103h-97l-96 103h79l66 -62l65 62h80z" />
    <glyph glyph-name="V.ss02" horiz-adv-x="610" 
d="M105 701l201 -523l199 523h82l-277 -718h-9l-278 718h82z" />
    <glyph glyph-name="W.ss02" horiz-adv-x="935" 
d="M46 701h79l157 -500l181 517h9l181 -517l156 500h80l-228 -718h-9l-185 529l-184 -529h-9z" />
    <glyph glyph-name="Z.ss02" horiz-adv-x="663" 
d="M81 629v72h539v-9l-442 -620h423v-72h-558v9l444 620h-406z" />
    <glyph glyph-name="Zcaron.ss02" horiz-adv-x="663" 
d="M81 629v72h539v-9l-442 -620h423v-72h-558v9l444 620h-406zM484 872l-97 -103h-97l-96 103h79l66 -62l65 62h80z" />
    <glyph glyph-name="a.ss02" horiz-adv-x="612" 
d="M296 502q100 0 162 -74v62h74v-490h-74v62q-61 -73 -162 -73q-104 0 -172 74q-67 73 -67 182t67 182q67 75 172 75zM133 245q0 -81 44 -134q45 -53 119 -53q70 0 117 53q47 55 47 134q0 80 -47 133q-47 54 -117 54t-117 -54q-46 -52 -46 -133z" />
    <glyph glyph-name="aacute.ss02" horiz-adv-x="612" 
d="M296 502q100 0 162 -74v62h74v-490h-74v62q-61 -73 -162 -73q-104 0 -172 74q-67 73 -67 182t67 182q67 75 172 75zM133 245q0 -81 44 -134q45 -53 119 -53q70 0 117 53q47 55 47 134q0 80 -47 133q-47 54 -117 54t-117 -54q-46 -52 -46 -133zM238 570l91 131h97
l-114 -131h-74z" />
    <glyph glyph-name="agrave.ss02" horiz-adv-x="612" 
d="M296 502q100 0 162 -74v62h74v-490h-74v62q-61 -73 -162 -73q-104 0 -172 74q-67 73 -67 182t67 182q67 75 172 75zM133 245q0 -81 44 -134q45 -53 119 -53q70 0 117 53q47 55 47 134q0 80 -47 133q-47 54 -117 54t-117 -54q-46 -52 -46 -133zM300 570l-114 131h97
l91 -131h-74z" />
    <glyph glyph-name="acircumflex.ss02" horiz-adv-x="612" 
d="M296 502q100 0 162 -74v62h74v-490h-74v62q-61 -73 -162 -73q-104 0 -172 74q-67 73 -67 182t67 182q67 75 172 75zM133 245q0 -81 44 -134q45 -53 119 -53q70 0 117 53q47 55 47 134q0 80 -47 133q-47 54 -117 54t-117 -54q-46 -52 -46 -133zM153 570l97 131h97l97 -131
h-74l-72 82l-71 -82h-74z" />
    <glyph glyph-name="adieresis.ss02" horiz-adv-x="612" 
d="M296 502q100 0 162 -74v62h74v-490h-74v62q-61 -73 -162 -73q-104 0 -172 74q-67 73 -67 182t67 182q67 75 172 75zM133 245q0 -81 44 -134q45 -53 119 -53q70 0 117 53q47 55 47 134q0 80 -47 133q-47 54 -117 54t-117 -54q-46 -52 -46 -133zM173 618q-14 15 -14 37
t14 37q15 15 37 15t37 -15t15 -37t-15 -37q-15 -14 -37 -14t-37 14zM354 618q-14 15 -14 37t14 37q15 15 37 15t37 -15t15 -37t-15 -37q-15 -14 -37 -14t-37 14z" />
    <glyph glyph-name="atilde.ss02" horiz-adv-x="612" 
d="M296 502q100 0 162 -74v62h74v-490h-74v62q-61 -73 -162 -73q-104 0 -172 74q-67 73 -67 182t67 182q67 75 172 75zM133 245q0 -81 44 -134q45 -53 119 -53q70 0 117 53q47 55 47 134q0 80 -47 133q-47 54 -117 54t-117 -54q-46 -52 -46 -133zM378 701h57
q0 -48 -20.5 -75.5t-54.5 -27.5q-23 0 -42 10l-30 12q-24 10 -38 10q-28 0 -30 -32h-57q0 48 20.5 75.5t54.5 27.5q24 0 42 -9l30 -13q29 -10 37 -10q29 0 31 32z" />
    <glyph glyph-name="aring.ss02" horiz-adv-x="612" 
d="M296 502q100 0 162 -74v62h74v-490h-74v62q-61 -73 -162 -73q-104 0 -172 74q-67 73 -67 182t67 182q67 75 172 75zM133 245q0 -81 44 -134q45 -53 119 -53q70 0 117 53q47 55 47 134q0 80 -47 133q-47 54 -117 54t-117 -54q-46 -52 -46 -133zM220 635q0 33 22 55t53 22
q34 0 56.5 -21.5t22.5 -55.5q0 -32 -22.5 -54t-56.5 -22q-31 0 -53 22.5t-22 53.5zM298 606q22 -2 26 22q5 24 -12 33q-6 3 -14 2q-24 3 -29 -21q-4 -23 13 -33q7 -4 16 -3z" />
    <glyph glyph-name="k.ss02" horiz-adv-x="498" 
d="M154 0h-74v701h74v-421l207 210h97l-231 -235l243 -255h-102l-214 225v-225z" />
    <glyph glyph-name="v.ss02" horiz-adv-x="449" 
d="M359 490h79l-209 -507h-9l-209 507h79l135 -334z" />
    <glyph glyph-name="w.ss02" horiz-adv-x="668" 
d="M89 490l100 -316l140 333h10l140 -333l100 316h78l-166 -507h-9l-148 365l-148 -365h-9l-166 507h78z" />
    <glyph glyph-name="z.ss02" horiz-adv-x="505" 
d="M66 422v68h390v-9l-296 -413h290v-68h-418v9l293 413h-259z" />
    <glyph glyph-name="zcaron.ss02" horiz-adv-x="505" 
d="M66 422v68h390v-9l-296 -413h290v-68h-418v9l293 413h-259zM399 701l-97 -131h-97l-97 131h74l71 -82l72 82h74z" />
    <glyph glyph-name="question.ss02" horiz-adv-x="490" 
d="M228 434l41 16q79 30 79 101q0 39 -31 64.5t-79 25.5q-88 0 -147 -87l-46 51q26 46 79 76.5t114 30.5q82 0 131 -45q51 -45 51 -114q0 -113 -131 -166l-43 -18q-64 -27 -64 -69q0 -21 14 -35.5t36 -14.5q35 0 54 31l50 -44q-39 -55 -105 -55q-51 0 -84.5 33t-33.5 81
q0 92 115 138zM230 108q26 0 43 -17t17 -43q0 -25 -17.5 -42t-43.5 -17q-25 0 -42 17t-17 42t17.5 42.5t42.5 17.5z" />
    <glyph glyph-name="questiondown.ss02" horiz-adv-x="490" 
d="M266 384q-26 0 -43.5 17t-17.5 43q0 25 17.5 42t43.5 17q25 0 42 -17t17 -42t-17 -42.5t-42 -17.5zM267 63l-41 -16q-79 -31 -79 -96q0 -38 31 -61.5t79 -23.5q89 0 147 87l46 -51q-26 -46 -79 -76.5t-114 -30.5q-83 0 -132 43q-50 44 -50 111q0 108 131 161l43 18
q64 27 64 67q0 21 -14 34.5t-36 13.5q-35 0 -54 -31l-50 44q39 55 105 55q51 0 84.5 -32t33.5 -80t-27.5 -80t-87.5 -56z" />
    <glyph glyph-name="ampersand.ss02" horiz-adv-x="687" 
d="M640 0h-97l-64 80l-21 -17q-92 -74 -194 -74q-94 0 -145 53q-51 54 -51 130q0 124 144 212l21 13q-68 92 -68 162q0 65 45 109q47 44 116 44q68 0 111 -42q45 -40 45 -106q0 -55 -29 -94t-98 -86l-11 -7l146 -187l98 83l46 -58l-97 -82zM266 60q72 0 147 63l19 16
l-155 198l-25 -15q-57 -34 -82.5 -67t-25.5 -81q0 -49 34.5 -81.5t87.5 -32.5zM242 557q0 -48 44 -104l14 -18l9 6q51 32 74 59t23 65q0 33 -24.5 54.5t-60.5 21.5q-35 0 -57 -24t-22 -60z" />
    <glyph glyph-name="germandbls.ss02" horiz-adv-x="594" 
d="M247 0v71h72q69 0 111 34.5t42 93.5t-42 93.5t-111 34.5h-72v72h61q56 0 92 34.5t36 85.5t-40 85q-41 35 -97 35q-72 0 -110.5 -43t-38.5 -119v-477h-76v477q0 105 63 170q63 64 162 64q91 0 152 -55q62 -56 62 -136q0 -98 -70 -147q51 -27 78 -73t27 -102
q0 -87 -65 -143q-64 -55 -158 -55h-78z" />
    <glyph glyph-name="dollar.ss02" horiz-adv-x="582" 
d="M336 305l-103 41q-78 31 -117 75.5t-39 109.5q0 74 49 122.5t131 56.5v105h71v-106q100 -12 161 -105l-53 -54q-31 46 -66.5 68.5t-87.5 22.5q-57 0 -93 -31t-36 -76q0 -43 25.5 -69t88.5 -52l79 -32q96 -39 136 -84t40 -116q0 -73 -51 -125q-52 -54 -143 -64v-106h-71
v104q-138 10 -212 127l52 54q68 -111 190 -111q71 0 115 33t44 87q0 45 -26 74t-84 51z" />
    <glyph glyph-name="zero.ss03" horiz-adv-x="618" 
d="M438 139q46 79 46 212q0 132 -46 211q-45 79 -129 79q-83 0 -130 -80q-46 -79 -46 -210q0 -132 46 -211q47 -80 130 -80q84 0 129 79zM72 217q-32 134 0 268q34 141 123 196q49 31 114 31q64 0 113 -31q90 -54 124 -196q32 -134 0 -268q-34 -143 -124 -198
q-50 -30 -113 -30q-65 0 -114 30q-89 56 -123 198z" />
    <glyph glyph-name="one.ss03" horiz-adv-x="442" 
d="M299 0h-76v536h-147v53q79 5 109 26q33 22 52 86h62v-701z" />
    <glyph glyph-name="two.ss03" horiz-adv-x="553" 
d="M138 72h347v-72h-428v23q0 105 41 178q40 71 144 133l52 31q62 37 89.5 72t27.5 83q0 54 -34.5 87.5t-91.5 33.5q-60 0 -97 -35.5t-44 -98.5h-76q8 95 69 150t148 55q86 0 144 -52q59 -53 59 -140q0 -67 -37.5 -118t-120.5 -100l-56 -33q-130 -76 -136 -197z" />
    <glyph glyph-name="three.ss03" horiz-adv-x="579" 
d="M407 366q50 -21 81 -66.5t31 -104.5q0 -96 -70 -151q-68 -55 -166 -55q-97 0 -163 54q-66 55 -75 144h75q6 -59 51.5 -93t111.5 -34q73 0 117 35t44 98t-45 95t-123 32h-63v73h51q71 0 113 34.5t42 91.5q0 59 -42 90q-41 32 -94 32q-59 0 -97 -29.5t-46 -79.5h-77
q13 86 75 133t143 47q86 0 151 -50q64 -49 64 -139q0 -54 -25 -94.5t-64 -62.5z" />
    <glyph glyph-name="four.ss03" horiz-adv-x="583" 
d="M537 249v-72h-97v-177h-76v177h-324v66l329 458h71v-452h97zM364 584l-243 -335h243v335z" />
    <glyph glyph-name="five.ss03" horiz-adv-x="552" 
d="M288 373q-43 0 -82 -22t-57 -55h-69l21 405h370v-72h-302l-14 -237q21 24 59.5 38.5t83.5 14.5q93 0 159 -60t66 -167q0 -98 -61 -163q-62 -66 -172 -66q-83 0 -145 50q-60 48 -77 127h78q12 -48 53 -77t95 -29q69 0 111 43t42 115q0 71 -44.5 113t-114.5 42z" />
    <glyph glyph-name="six.ss03" horiz-adv-x="616" 
d="M329 -11q-117 0 -186 100q-69 101 -69 268q0 161 68 258q69 97 189 97q77 0 134 -45q57 -44 71 -123h-75q-14 47 -50 72t-86 25q-82 0 -131 -81q-50 -81 -45 -210q27 50 75.5 77t104.5 27q94 0 161 -64q69 -64 69 -168q0 -106 -70 -170q-71 -63 -160 -63zM329 382
q-61 0 -107 -44q-44 -44 -44 -115q0 -69 45 -116t111 -47q60 0 103 42q45 42 45 120q0 72 -45 116q-46 44 -108 44z" />
    <glyph glyph-name="seven.ss03" horiz-adv-x="535" 
d="M407 629h-361v72h454v-66q-219 -262 -247 -595l-3 -40h-77l4 39q15 169 74 327q60 157 156 263z" />
    <glyph glyph-name="eight.ss03" horiz-adv-x="554" 
d="M51 189q0 61 41 111q40 50 81 60q-35 14 -71 56q-34 40 -34 100q0 87 62 140q63 54 147 54q85 0 146 -54q63 -53 63 -140q0 -60 -34 -100q-36 -42 -71 -56q41 -10 81 -60q41 -50 41 -111q0 -89 -66 -145q-64 -55 -160 -55t-161 55q-65 56 -65 145zM277 321
q-65 0 -107 -36t-42 -95t43 -95q44 -35 106 -35q61 0 105 35q44 36 44 95t-43 95t-106 36zM145 515q0 -55 37 -88.5t95 -33.5q57 0 94.5 33.5t37.5 88.5q0 59 -42 91q-41 33 -90 33t-91 -33q-41 -32 -41 -91z" />
    <glyph glyph-name="nine.ss03" horiz-adv-x="598" 
d="M286 712q118 0 186 -99q67 -97 67 -257q0 -171 -64 -269q-65 -98 -190 -98q-77 0 -135 45q-56 45 -70 123h75q29 -97 136 -97q83 0 128.5 78t46.5 213q-27 -50 -75.5 -77t-104.5 -27q-93 0 -161 64q-68 65 -68 168q0 106 69 169q70 64 160 64zM286 319q61 0 107 44
q45 43 45 115q0 68 -45 115q-45 48 -111 48q-59 0 -104 -42t-45 -120q0 -73 45 -117q44 -43 108 -43z" />
    <glyph glyph-name="A.ss03" horiz-adv-x="673" 
d="M294 701h86l273 -701h-82l-82 206h-305l-81 -206h-83zM462 279l-126 324l-124 -324h250z" />
    <glyph glyph-name="Aacute.ss03" 
d="M302 701h86l273 -701h-82l-82 206h-305l-81 -206h-83zM470 279l-126 324l-124 -324h250zM279 769l91 103h103l-108 -103h-86z" />
    <glyph glyph-name="Agrave.ss03" 
d="M302 701h86l273 -701h-82l-82 206h-305l-81 -206h-83zM470 279l-126 324l-124 -324h250zM312 769l-109 103h103l91 -103h-85z" />
    <glyph glyph-name="Acircumflex.ss03" 
d="M302 701h86l273 -701h-82l-82 206h-305l-81 -206h-83zM470 279l-126 324l-124 -324h250zM200 769l96 103h97l97 -103h-80l-65 62l-66 -62h-79z" />
    <glyph glyph-name="Adieresis.ss03" 
d="M302 701h86l273 -701h-82l-82 206h-305l-81 -206h-83zM470 279l-126 324l-124 -324h250zM297 787h-78v85h78v-85zM469 787h-78v85h78v-85z" />
    <glyph glyph-name="Atilde.ss03" 
d="M302 701h86l273 -701h-82l-82 206h-305l-81 -206h-83zM470 279l-126 324l-124 -324h250zM421 872h57q0 -48 -20.5 -75.5t-54.5 -27.5q-23 0 -42 10l-30 12q-24 10 -38 10q-28 0 -30 -32h-57q0 48 20.5 75.5t54.5 27.5q24 0 42 -9l30 -13q29 -10 37 -10q29 0 31 32z" />
    <glyph glyph-name="Aring.ss03" 
d="M255 777q0 39 25.5 64t61.5 25q39 0 64.5 -25t25.5 -64q0 -51 -46 -76h2l273 -701h-82l-82 206h-305l-81 -206h-83l274 700q-47 26 -47 77zM470 279l-126 324l-124 -324h250zM310 777q0 -20 17 -28.5t33.5 0t16.5 28.5q0 21 -16.5 29.5t-33.5 0t-17 -29.5z" />
    <glyph glyph-name="AE.ss03" horiz-adv-x="921" 
d="M302 701h551v-72h-437l92 -236h328v-72h-300l97 -249h220v-72h-274l-82 206h-305l-81 -206h-83zM470 279l-126 324l-124 -324h250z" />
    <glyph glyph-name="C.ss03" horiz-adv-x="615" 
d="M526 165l49 -56q-50 -62 -102.5 -91t-125.5 -29q-99 0 -167 52q-130 97 -130 308q0 97 32 178q33 84 102.5 134.5t162.5 50.5q76 0 127.5 -28.5t94.5 -91.5l-51 -54q-60 103 -171 103t-166 -84q-55 -82 -55 -208q0 -125 54 -207q55 -82 167 -82q58 0 99.5 25t79.5 80z
" />
    <glyph glyph-name="Ccedilla.ss03" horiz-adv-x="605" 
d="M379 -9l-55 -128h-80l62 129q-125 15 -191 116q-65 101 -65 241q0 97 32 178q33 84 102.5 134.5t162.5 50.5q76 0 127.5 -28.5t94.5 -91.5l-51 -54q-60 103 -171 103t-166 -84q-55 -82 -55 -208q0 -125 54 -207q55 -82 167 -82q58 0 99.5 25t79.5 80l49 -56
q-44 -56 -89.5 -84t-106.5 -34z" />
    <glyph glyph-name="D.ss03" horiz-adv-x="655" 
d="M270 0h-190v700h190q153 0 241 -82q89 -83 89 -263q0 -183 -90 -269q-89 -86 -240 -86zM279 628h-123v-556h124q241 0 241 283q0 273 -242 273z" />
    <glyph glyph-name="Edieresis.ss03" horiz-adv-x="591" 
d="M539 0h-459v701h459v-72h-383v-236h372v-72h-372v-249h383v-72zM268 787h-78v85h78v-85zM440 787h-78v85h78v-85z" />
    <glyph glyph-name="G.ss03" horiz-adv-x="695" 
d="M546 277h-173v72h247v-349h-68v100q-31 -51 -85.5 -81t-118.5 -30q-137 0 -218 101q-80 101 -80 259t87 260q88 103 222 103q161 0 248 -131l-51 -54q-70 114 -197 114q-105 0 -169 -81q-63 -80 -63 -211t58 -210t165 -79q88 0 139.5 59t56.5 158z" />
    <glyph glyph-name="Idieresis.ss03" horiz-adv-x="236" 
d="M71 787h-78v85h78v-85zM243 787h-78v85h78v-85zM156 0h-76v701h76v-701z" />
    <glyph glyph-name="J.ss03" horiz-adv-x="515" 
d="M370 218v483h77v-483q0 -106 -55.5 -167.5t-156.5 -61.5q-98 0 -155 62q-57 63 -57 155v32h76v-32q0 -68 37.5 -107t98.5 -39q135 0 135 158z" />
    <glyph glyph-name="M.ss03" horiz-adv-x="821" 
d="M454 0h-87l-211 547v-547h-76v700h99l231 -611l233 611h98v-700h-76v547z" />
    <glyph glyph-name="O.ss03" horiz-adv-x="700" 
d="M50 351q0 153 80 257t218 104q139 0 220 -104q82 -103 82 -257q0 -156 -82 -259q-81 -103 -220 -103t-218 103q-80 104 -80 259zM126 351q0 -130 57 -211q59 -80 169 -80q109 0 166 80q57 81 57 211q0 128 -57 209t-166 81q-110 0 -169 -81q-57 -81 -57 -209z" />
    <glyph glyph-name="Oacute.ss03" 
d="M45 351q0 153 80 257t218 104q139 0 220 -104q82 -103 82 -257q0 -156 -82 -259q-81 -103 -220 -103t-218 103q-80 104 -80 259zM121 351q0 -130 57 -211q59 -80 169 -80q109 0 166 80q57 81 57 211q0 128 -57 209t-166 81q-111 0 -169 -81q-57 -81 -57 -209zM271 769
l91 103h103l-108 -103h-86z" />
    <glyph glyph-name="Ograve.ss03" 
d="M45 351q0 153 80 257t218 104q139 0 220 -104q82 -103 82 -257q0 -156 -82 -259q-81 -103 -220 -103t-218 103q-80 104 -80 259zM121 351q0 -130 57 -211q59 -80 169 -80q109 0 166 80q57 81 57 211q0 128 -57 209t-166 81q-111 0 -169 -81q-57 -81 -57 -209zM331 769
l-109 103h103l91 -103h-85z" />
    <glyph glyph-name="Ocircumflex.ss03" 
d="M45 351q0 153 80 257t218 104q139 0 220 -104q82 -103 82 -257q0 -156 -82 -259q-81 -103 -220 -103t-218 103q-80 104 -80 259zM121 351q0 -130 57 -211q59 -80 169 -80q109 0 166 80q57 81 57 211q0 128 -57 209t-166 81q-111 0 -169 -81q-57 -81 -57 -209zM204 769
l96 103h97l97 -103h-80l-65 62l-66 -62h-79z" />
    <glyph glyph-name="Odieresis.ss03" horiz-adv-x="700" 
d="M50 351q0 153 80 257t218 104q139 0 220 -104q82 -103 82 -257q0 -156 -82 -259q-81 -103 -220 -103t-218 103q-80 104 -80 259zM126 351q0 -130 57 -211q59 -80 169 -80q109 0 166 80q57 81 57 211q0 128 -57 209t-166 81q-110 0 -169 -81q-57 -81 -57 -209zM302 787
h-78v85h78v-85zM474 787h-78v85h78v-85z" />
    <glyph glyph-name="Otilde.ss03" horiz-adv-x="700" 
d="M50 351q0 153 80 257t218 104q139 0 220 -104q82 -103 82 -257q0 -156 -82 -259q-81 -103 -220 -103t-218 103q-80 104 -80 259zM126 351q0 -130 57 -211q59 -80 169 -80q109 0 166 80q57 81 57 211q0 128 -57 209t-166 81q-110 0 -169 -81q-57 -81 -57 -209zM426 872h57
q0 -48 -20.5 -75.5t-54.5 -27.5q-23 0 -42 10l-30 12q-24 10 -38 10q-28 0 -30 -32h-57q0 48 20.5 75.5t54.5 27.5q24 0 42 -9l30 -13q29 -10 37 -10q29 0 31 32z" />
    <glyph glyph-name="Q.ss03" horiz-adv-x="700" 
d="M650 0h-307q-140 0 -219 100t-79 256q0 154 80 255t218 101q139 0 220 -102q82 -100 82 -254q0 -202 -129 -292l134 7v-71zM121 356q0 -132 58.5 -208.5t167.5 -76.5q108 0 165.5 76.5t57.5 208.5q0 128 -57 207q-55 79 -166 79t-169 -79q-57 -79 -57 -207z" />
    <glyph glyph-name="R.ss03" horiz-adv-x="628" 
d="M551 179l27 -179h-79l-21 155q-13 97 -62 120q-42 20 -125 20h-135v-295h-76v700h255q115 0 177.5 -50t62.5 -147q0 -64 -33.5 -111.5t-88.5 -66.5q44 -18 66.5 -50t31.5 -96zM344 628h-188v-261h188q75 0 114 34.5t39 98.5q0 61 -39.5 94.5t-113.5 33.5z" />
    <glyph glyph-name="Udieresis.ss03" horiz-adv-x="668" 
d="M523 275v426h77v-426q0 -126 -71 -206t-195 -80t-195 80t-71 206v426h77v-427q0 -93 49 -154q50 -60 140 -60t139 61q50 62 50 154zM286 787h-78v85h78v-85zM458 787h-78v85h78v-85z" />
    <glyph glyph-name="Ydieresis.ss03" horiz-adv-x="578" 
d="M23 701h84l183 -343l181 343h84l-228 -418v-283h-76v283zM248 787h-78v85h78v-85zM420 787h-78v85h78v-85z" />
    <glyph glyph-name="a.ss03" horiz-adv-x="534" 
d="M225 -11q-77 0 -121 39.5t-44 103.5q0 128 177 154l138 19v20q0 54 -29 81.5t-82 27.5q-47 0 -77 -24t-35 -65h-76q4 66 56 111q52 46 131 46q85 0 135.5 -47t50.5 -128v-210q0 -34 8.5 -44.5t33.5 -10.5l13 1v-63q-16 -3 -40 -3q-33 0 -54 17t-24 47q-52 -72 -161 -72z
M131 133q0 -34 25 -55t69 -21q69 0 109.5 39.5t40.5 104.5v38l-143 -22q-101 -18 -101 -84z" />
    <glyph glyph-name="aacute.ss03" horiz-adv-x="514" 
d="M214 -11q-77 0 -121 39.5t-44 103.5q0 128 177 154l138 19v20q0 54 -29 81.5t-82 27.5q-47 0 -77 -24t-35 -65h-76q4 66 56 111q52 46 131 46q85 0 135.5 -47t50.5 -128v-210q0 -35 8.5 -45t35.5 -10h11v-62q-26 -2 -42 -2q-32 0 -52.5 16.5t-23.5 46.5q-53 -72 -161 -72
zM120 133q0 -34 25 -55t69 -21q69 0 109.5 39.5t40.5 104.5v38l-143 -22q-101 -18 -101 -84zM200 570l91 131h97l-114 -131h-74z" />
    <glyph glyph-name="agrave.ss03" horiz-adv-x="514" 
d="M214 -11q-77 0 -121 39.5t-44 103.5q0 128 177 154l138 19v20q0 54 -29 81.5t-82 27.5q-47 0 -77 -24t-35 -65h-76q4 66 56 111q52 46 131 46q85 0 135.5 -47t50.5 -128v-210q0 -35 8.5 -45t35.5 -10h11v-62q-26 -2 -42 -2q-32 0 -52.5 16.5t-23.5 46.5q-53 -72 -161 -72
zM120 133q0 -34 25 -55t69 -21q69 0 109.5 39.5t40.5 104.5v38l-143 -22q-101 -18 -101 -84zM240 570l-114 131h97l91 -131h-74z" />
    <glyph glyph-name="acircumflex.ss03" horiz-adv-x="514" 
d="M214 -11q-77 0 -121 39.5t-44 103.5q0 128 177 154l138 19v20q0 54 -29 81.5t-82 27.5q-47 0 -77 -24t-35 -65h-76q4 66 56 111q52 46 131 46q85 0 135.5 -47t50.5 -128v-210q0 -35 8.5 -45t35.5 -10h11v-62q-26 -2 -42 -2q-32 0 -52.5 16.5t-23.5 46.5q-53 -72 -161 -72
zM120 133q0 -34 25 -55t69 -21q69 0 109.5 39.5t40.5 104.5v38l-143 -22q-101 -18 -101 -84zM105 570l97 131h97l97 -131h-74l-72 82l-71 -82h-74z" />
    <glyph glyph-name="adieresis.ss03" horiz-adv-x="514" 
d="M214 -11q-77 0 -121 39.5t-44 103.5q0 128 177 154l138 19v20q0 54 -29 81.5t-82 27.5q-47 0 -77 -24t-35 -65h-76q4 66 56 111q52 46 131 46q85 0 135.5 -47t50.5 -128v-210q0 -35 8.5 -45t35.5 -10h11v-62q-26 -2 -42 -2q-32 0 -52.5 16.5t-23.5 46.5q-53 -72 -161 -72
zM120 133q0 -34 25 -55t69 -21q69 0 109.5 39.5t40.5 104.5v38l-143 -22q-101 -18 -101 -84zM208 616h-78v85h78v-85zM380 616h-78v85h78v-85z" />
    <glyph glyph-name="atilde.ss03" horiz-adv-x="514" 
d="M214 -11q-77 0 -121 39.5t-44 103.5q0 128 177 154l138 19v20q0 54 -29 81.5t-82 27.5q-47 0 -77 -24t-35 -65h-76q4 66 56 111q52 46 131 46q85 0 135.5 -47t50.5 -128v-210q0 -35 8.5 -45t35.5 -10h11v-62q-26 -2 -42 -2q-32 0 -52.5 16.5t-23.5 46.5q-53 -72 -161 -72
zM120 133q0 -34 25 -55t69 -21q69 0 109.5 39.5t40.5 104.5v38l-143 -22q-101 -18 -101 -84zM331 701h57q0 -48 -20.5 -75.5t-54.5 -27.5q-23 0 -42 10l-30 12q-24 10 -38 10q-28 0 -30 -32h-57q0 48 20.5 75.5t54.5 27.5q24 0 42 -9l30 -13q29 -10 37 -10q29 0 31 32z" />
    <glyph glyph-name="aring.ss03" horiz-adv-x="514" 
d="M214 -11q-77 0 -121 39.5t-44 103.5q0 128 177 154l138 19v20q0 54 -29 81.5t-82 27.5q-47 0 -77 -24t-35 -65h-76q4 66 56 111q52 46 131 46q85 0 135.5 -47t50.5 -128v-210q0 -35 8.5 -45t35.5 -10h11v-62q-26 -2 -42 -2q-32 0 -52.5 16.5t-23.5 46.5q-53 -72 -161 -72
zM120 133q0 -34 25 -55t69 -21q69 0 109.5 39.5t40.5 104.5v38l-143 -22q-101 -18 -101 -84zM178 635q0 33 22 55t53 22q34 0 56.5 -21.5t22.5 -55.5q0 -32 -22.5 -54t-56.5 -22q-31 0 -53 22.5t-22 53.5zM256 606q22 -2 26 22q5 24 -12 33q-6 3 -14 2q-24 3 -29 -21
q-4 -23 13 -33q7 -4 16 -3z" />
    <glyph glyph-name="ae.ss03" horiz-adv-x="870" 
d="M408 96q-66 -107 -197 -107q-77 0 -122.5 39.5t-45.5 103.5q0 76 57 116t151 40h117v37q0 48 -32.5 78.5t-83.5 30.5q-47 0 -79.5 -24.5t-37.5 -64.5h-76q4 64 59 111q53 46 133 46q59 0 103.5 -25t66.5 -69q63 94 173 94q57 0 100.5 -22t68.5 -59t37.5 -78.5t12.5 -86.5
l-1 -34h-365q5 -77 48.5 -120.5t115.5 -43.5q85 0 140 72l52 -47q-79 -94 -192 -94q-138 0 -203 107zM449 288h289q-5 66 -44 105t-99 39q-59 0 -97.5 -39.5t-48.5 -104.5zM114 133q0 -34 27 -55t72 -21q65 0 109 40q46 40 46 104v21h-118q-64 0 -100 -24t-36 -65z" />
    <glyph glyph-name="edieresis.ss03" horiz-adv-x="556" 
d="M133 222q5 -77 49 -120.5t116 -43.5q82 0 140 72l51 -47q-78 -94 -191 -94q-110 0 -176 70q-65 71 -65 183t60 185q61 75 163 75q72 0 124.5 -37.5t73.5 -94.5q21 -52 21 -114q0 -23 -1 -34h-365zM282 432q-61 0 -98.5 -39t-47.5 -105h288q-5 66 -43.5 105t-98.5 39z
M230 616h-78v85h78v-85zM402 616h-78v85h78v-85z" />
    <glyph glyph-name="i.ss03" horiz-adv-x="286" 
d="M184 604h-79v97h79v-97zM181 0h-74v490h74v-490z" />
    <glyph glyph-name="idieresis.ss03" horiz-adv-x="286" 
d="M97 616h-79v85h79v-85zM181 0h-74v490h74v-490zM269 616h-79v85h79v-85z" />
    <glyph glyph-name="j.ss03" horiz-adv-x="261" 
d="M105 -42v532h74v-544q0 -77 -34.5 -111t-108.5 -34l-51 2v67q22 -1 44 -1q44 0 60 20t16 69zM181 604h-79v97h79v-97z" />
    <glyph glyph-name="odieresis.ss03" horiz-adv-x="608" 
d="M303 -11q-105 0 -176 74q-70 74 -70 182t70 182q71 75 176 75t176 -75q72 -75 72 -182q0 -106 -71 -182q-71 -74 -177 -74zM303 58q75 0 123 53q48 54 48 134q0 81 -48 133q-48 54 -123 54q-74 0 -122 -54q-48 -52 -48 -133q0 -80 48 -134q48 -53 122 -53zM255 616h-78
v85h78v-85zM427 616h-78v85h78v-85z" />
    <glyph glyph-name="udieresis.ss03" horiz-adv-x="547" 
d="M467 0h-71v62q-57 -73 -155 -73q-184 0 -184 216v285h74v-288q0 -143 120 -143q70 0 106 48.5t36 139.5v243h74v-490zM213 616h-78v85h78v-85zM385 616h-78v85h78v-85z" />
    <glyph glyph-name="y.ss03" horiz-adv-x="540" 
d="M145 -197l-63 2v76q30 -2 53 -2q29 0 43.5 10t25.5 37l27 68l-203 496h83l161 -407l158 407h82l-235 -586q-21 -54 -52 -77.5t-80 -23.5z" />
    <glyph glyph-name="yacute.ss03" horiz-adv-x="540" 
d="M145 -197l-63 2v76q30 -2 53 -2q29 0 43.5 10t25.5 37l27 68l-203 496h83l161 -407l158 407h82l-235 -586q-21 -54 -52 -77.5t-80 -23.5zM206 570l91 131h97l-114 -131h-74z" />
    <glyph glyph-name="ydieresis.ss03" horiz-adv-x="546" 
d="M145 -197l-63 2v76q30 -2 53 -2q29 0 43.5 10t25.5 37l27 68l-203 496h83l161 -407l158 407h82l-235 -586q-21 -54 -52 -77.5t-80 -23.5zM225 616h-78v85h78v-85zM397 616h-78v85h78v-85z" />
    <glyph glyph-name="period.ss03" horiz-adv-x="302" 
d="M199 0h-96v103h96v-103z" />
    <glyph glyph-name="colon.ss03" horiz-adv-x="302" 
d="M199 0h-96v103h96v-103zM199 388h-96v103h96v-103z" />
    <glyph glyph-name="comma.ss03" horiz-adv-x="302" 
d="M141 0h-38v103h96v-120q0 -104 -104 -115v57q46 6 46 64v11z" />
    <glyph glyph-name="semicolon.ss03" horiz-adv-x="302" 
d="M141 0h-38v103h96v-120q0 -104 -104 -115v57q46 6 46 64v11zM199 388h-96v103h96v-103z" />
    <glyph glyph-name="ellipsis.ss03" horiz-adv-x="701" 
d="M165 0h-96v103h96v-103zM398 0h-96v103h96v-103zM632 0h-96v103h96v-103z" />
    <glyph glyph-name="question.ss03" horiz-adv-x="512" 
d="M260 218v-7h-76v18q0 57 28 90q16 19 27 30q8 8 36 31l36 29q67 55 67 114q0 55 -39 86.5t-98 31.5q-54 0 -92.5 -32t-45.5 -88h-75q7 91 71 141q65 50 143 50q90 0 151 -52q62 -51 62 -138t-81 -154l-46 -37q-40 -34 -54 -55q-14 -22 -14 -58zM272 0h-96v103h96v-103z
" />
    <glyph glyph-name="questiondown.ss03" horiz-adv-x="512" 
d="M328 279v-18q0 -38 -11 -58q-8 -19 -17 -29q-12 -15 -22 -24q-7 -5 -13 -11l-28 -23l-36 -29q-38 -31 -53 -54t-15 -55q0 -51 37.5 -81t95.5 -30q56 0 96.5 29.5t46.5 84.5h74q-7 -92 -71 -139q-62 -47 -142 -47q-90 0 -152 50q-61 49 -61 134q0 82 81 149l46 37
q6 6 10 8q35 29 46.5 48t11.5 51v7h76zM239 490h97v-102h-97v102z" />
    <glyph glyph-name="exclam.ss03" horiz-adv-x="291" 
d="M181 211h-76v490h76v-490zM193 0h-97v103h97v-103z" />
    <glyph glyph-name="exclamdown.ss03" horiz-adv-x="326" 
d="M181 -194h-76v473h76v-473zM193 388h-97v102h97v-102z" />
    <glyph glyph-name="quotedblright.ss03" horiz-adv-x="399" 
d="M107 598h-39v103h97v-120q0 -105 -105 -115v57q47 8 47 64v11zM272 598h-38v103h97v-120q0 -105 -105 -115v57q46 7 46 64v11z" />
    <glyph glyph-name="quotedblleft.ss03" horiz-adv-x="399" 
d="M292 575h39v-103h-97v120q0 104 105 115v-57q-47 -8 -47 -64v-11zM127 575h38v-103h-97v120q0 104 105 115v-57q-46 -7 -46 -64v-11z" />
    <glyph glyph-name="quoteleft.ss03" horiz-adv-x="234" 
d="M127 575h38v-103h-97v120q0 104 105 115v-57q-46 -7 -46 -64v-11z" />
    <glyph glyph-name="quoteright.ss03" horiz-adv-x="234" 
d="M107 598h-38v103h97v-120q0 -105 -105 -115v57q46 7 46 64v11z" />
    <glyph glyph-name="quotesinglbase.ss03" horiz-adv-x="234" 
d="M107 0h-39v103h97v-120q0 -105 -105 -115v57q47 6 47 64v11z" />
    <glyph glyph-name="quotedblbase.ss03" horiz-adv-x="399" 
d="M107 0h-39v103h97v-120q0 -105 -105 -115v57q47 6 47 64v11zM272 0h-38v103h97v-120q0 -105 -105 -115v57q46 6 46 64v11z" />
    <glyph glyph-name="dieresis.ss03" horiz-adv-x="556" 
d="M230 616h-78v85h78v-85zM402 616h-78v85h78v-85z" />
    <glyph glyph-name="arrowsouth" horiz-adv-x="716" 
d="M396 701v-574l224 224l50 -50l-312 -312l-312 312l50 50l224 -224v574h76z" />
    </font>
</defs>
</svg>
