<?xml version="1.0" standalone="no"?>
<!DOCTYPE svg PUBLIC "-//W3C//DTD SVG 1.1//EN" "http://www.w3.org/Graphics/SVG/1.1/DTD/svg11.dtd" >
<svg>
<metadata>
Created by FontForge 20120731 at Fri May 20 22:59:11 2016
 By ,,,
Copyright (c) 2012 by 205 Corp. All rights reserved.
</metadata>
<defs>
<font id="Maax-Mediumitalic" horiz-adv-x="690" >
  <font-face 
    font-family="Maax"
    font-weight="500"
    font-style="italic"
    font-stretch="normal"
    units-per-em="1000"
    panose-1="2 0 6 3 0 0 0 9 0 3"
    ascent="750"
    descent="-250"
    x-height="490"
    cap-height="701"
    bbox="-70 -206 1838 884"
    underline-thickness="50"
    underline-position="-80"
    slope="-12"
    unicode-range="U+0020-FB02"
  />
<missing-glyph horiz-adv-x="1927" 
d="M216 108h314l-15 -108h-454l3 23q15 108 77 174.5t179 107.5l37 13q54 19 75 36t21 43q0 24 -21 38.5t-63 14.5q-108 0 -177 -103l-71 81q45 62 113.5 96.5t144.5 34.5q86 0 141.5 -39.5t55.5 -110.5q0 -131 -176 -190l-60 -21q-57 -19 -84 -37.5t-40 -52.5zM921 -11
q-108 0 -181 72t-73 189q0 90 49 162t125 109.5t160 37.5q108 0 181 -69.5t73 -183.5q0 -132 -98 -224.5t-236 -92.5zM986 450q-84 0 -141 -56.5t-57 -143.5q0 -68 41.5 -110.5t106.5 -42.5q86 0 142 60t56 146q0 66 -41 106.5t-107 40.5zM1711 105q0 -64 -45 -104.5
t-112 -40.5q-89 0 -147 82l-90 -77q82 -113 223 -113q125 0 208.5 73t83.5 185q0 99 -64 154.5t-151 55.5q-70 0 -126 -42l31 161h301l15 108h-410l-75 -414h108q20 37 56 58t77 21q51 0 84 -29.5t33 -77.5z" />
    <glyph glyph-name="arrowwest" unicode="&#x3c;&#x2d;" horiz-adv-x="804" 
d="M478 524l-206 -180h505l-16 -109h-503l155 -173l-88 -85l-268 313l356 312z" />
    <glyph glyph-name="arrownorth" unicode="&#x7c;^" horiz-adv-x="716" 
d="M608 324l-153 178l-70 -502h-114l70 500l-196 -176l-73 76l356 312l268 -312z" />
    <glyph glyph-name="arroweast" unicode="&#x2d;&#x3e;" horiz-adv-x="804" 
d="M326 55l206 180h-505l16 109h503l-155 173l88 85l268 -313l-356 -312z" />
    <glyph glyph-name="arrowsouth" unicode="&#x7c;v" horiz-adv-x="716" 
d="M259 377l153 -178l70 502h114l-70 -500l196 176l73 -76l-356 -312l-268 312z" />
    <glyph glyph-name="arrowwest2" unicode="&#x3c;&#x2d;&#x2d;" horiz-adv-x="1100" 
d="M258 235l155 -173l-88 -85l-268 313l356 312l65 -78l-205 -180h800l-16 -109h-799z" />
    <glyph glyph-name="arrowwest3" unicode="&#x3c;&#x2d;&#x2d;&#x2d;" horiz-adv-x="1385" 
d="M258 235l155 -173l-88 -85l-268 313l356 312l65 -78l-205 -180h1085l-16 -109h-1084z" />
    <glyph glyph-name="arroweast2" unicode="&#x2d;&#x2d;&#x3e;" horiz-adv-x="1100" 
d="M842 344l-155 173l88 85l268 -313l-356 -312l-65 78l205 180h-800l16 109h799z" />
    <glyph glyph-name="arroweast3" unicode="&#x2d;&#x2d;&#x2d;&#x3e;" horiz-adv-x="1385" 
d="M1127 344l-155 173l88 85l268 -313l-356 -312l-65 78l205 180h-1085l16 109h1084z" />
    <glyph glyph-name=".notdef" horiz-adv-x="1927" 
d="M216 108h314l-15 -108h-454l3 23q15 108 77 174.5t179 107.5l37 13q54 19 75 36t21 43q0 24 -21 38.5t-63 14.5q-108 0 -177 -103l-71 81q45 62 113.5 96.5t144.5 34.5q86 0 141.5 -39.5t55.5 -110.5q0 -131 -176 -190l-60 -21q-57 -19 -84 -37.5t-40 -52.5zM921 -11
q-108 0 -181 72t-73 189q0 90 49 162t125 109.5t160 37.5q108 0 181 -69.5t73 -183.5q0 -132 -98 -224.5t-236 -92.5zM986 450q-84 0 -141 -56.5t-57 -143.5q0 -68 41.5 -110.5t106.5 -42.5q86 0 142 60t56 146q0 66 -41 106.5t-107 40.5zM1711 105q0 -64 -45 -104.5
t-112 -40.5q-89 0 -147 82l-90 -77q82 -113 223 -113q125 0 208.5 73t83.5 185q0 99 -64 154.5t-151 55.5q-70 0 -126 -42l31 161h301l15 108h-410l-75 -414h108q20 37 56 58t77 21q51 0 84 -29.5t33 -77.5z" />
    <glyph glyph-name=".null" horiz-adv-x="0" 
 />
    <glyph glyph-name="nonmarkingreturn" horiz-adv-x="333" 
 />
    <glyph glyph-name="space" unicode=" " horiz-adv-x="250" 
 />
    <glyph glyph-name="exclam" unicode="!" horiz-adv-x="326" 
d="M104 211l69 490h118l-69 -490h-118zM72 60q0 30 21 51t51 21t51 -21t21 -51q0 -29 -21 -50t-51 -21t-51 21t-21 50z" />
    <glyph glyph-name="quotedbl" unicode="&#x22;" horiz-adv-x="454" 
d="M138 701h114l-38 -268h-114zM330 701h114l-38 -268h-114z" />
    <glyph glyph-name="numbersign" unicode="#" horiz-adv-x="878" 
d="M90 285h137l57 132h-124l15 104h152l78 180h122l-78 -180h161l77 180h123l-78 -180h109l-15 -104h-136l-57 -132h123l-15 -105h-153l-75 -180h-123l77 180h-161l-77 -180h-122l77 180h-109zM406 417l-56 -132h161l56 132h-161z" />
    <glyph glyph-name="dollar" unicode="$" horiz-adv-x="673" 
d="M241 -114l15 108q-131 20 -208 127l90 79q57 -77 134 -96l29 200q-85 17 -133.5 66t-48.5 126q0 95 68.5 151.5t173.5 63.5l15 104h96l-16 -109q114 -21 184 -106l-89 -83q-42 58 -111 77l-27 -186q96 -19 146 -70t50 -128q0 -95 -68 -154t-189 -66l-15 -104h-96z
M487 201q0 68 -92 87l-27 -190q57 7 88 34t31 69zM241 509q0 -62 78 -84l26 177q-49 -6 -76.5 -32.5t-27.5 -60.5z" />
    <glyph glyph-name="percent" unicode="%" horiz-adv-x="735" 
d="M106 556q0 64 46 110t110 46q56 0 91 -35t35 -88q0 -64 -45.5 -110t-109.5 -46q-56 0 -91.5 35t-35.5 88zM198 566q0 -20 12 -32t30 -12q22 0 38.5 16t16.5 41q0 21 -11 33t-29 12q-23 0 -40 -16.5t-17 -41.5zM386 112q0 64 46 110t110 46q56 0 90.5 -35t34.5 -88
q0 -64 -45.5 -110t-109.5 -46q-56 0 -91 35t-35 88zM477 122q0 -20 12.5 -32t30.5 -12q23 0 39 16t16 41q0 20 -12 32t-29 12q-24 0 -40.5 -15.5t-16.5 -41.5zM90 34l521 690l74 -55l-522 -692z" />
    <glyph glyph-name="ampersand" unicode="&#x26;" horiz-adv-x="687" 
d="M497 0l-38 57q-89 -68 -196 -68q-105 0 -161 57t-56 135q0 134 174 216l16 8q-45 77 -45 134q0 75 54 123.5t134 48.5q73 0 121 -44t48 -110q0 -101 -142 -179l-14 -8l90 -142q40 56 66 125h121q-43 -122 -130 -219l86 -134h-128zM270 92q70 0 132 51l-112 177l-11 -5
q-115 -52 -115 -129q0 -42 30.5 -68t75.5 -26zM375 608q-24 0 -45.5 -18.5t-21.5 -49.5q0 -35 25 -73l7 -11l7 3q84 42 84 97q0 24 -15.5 38t-40.5 14z" />
    <glyph glyph-name="quotesingle" unicode="'" horiz-adv-x="262" 
d="M138 701h114l-38 -268h-114z" />
    <glyph glyph-name="parenleft" unicode="(" horiz-adv-x="399" 
d="M430 645q-108 -90 -169.5 -208.5t-61.5 -254.5q0 -84 30.5 -167.5t82.5 -148.5l-87 -71q-63 71 -104 173.5t-41 217.5q0 156 72 293.5t204 245.5z" />
    <glyph glyph-name="parenright" unicode=")" horiz-adv-x="399" 
d="M-10 -125q108 90 169.5 208.5t61.5 254.5q0 84 -30.5 167.5t-82.5 148.5l87 71q63 -71 104 -173.5t41 -217.5q0 -156 -72 -293.5t-204 -245.5z" />
    <glyph glyph-name="asterisk" unicode="*" horiz-adv-x="477" 
d="M354 578l71 -94l-83 -56l-55 104l-82 -105l-69 61l90 90l-114 27l33 87l112 -38l11 121h93l-22 -121l122 37l14 -86z" />
    <glyph glyph-name="plus" unicode="+" horiz-adv-x="650" 
d="M77 194l15 105h191l27 191h105l-27 -191h194l-15 -105h-194l-27 -194h-105l27 194h-191z" />
    <glyph glyph-name="comma" unicode="," horiz-adv-x="299" 
d="M102 -138h-115l137 252h130z" />
    <glyph glyph-name="hyphen" unicode="-" horiz-adv-x="524" 
d="M80 210l15 105h365l-15 -105h-365z" />
    <glyph glyph-name="period" unicode="." horiz-adv-x="326" 
d="M72 60q0 30 21 51t51 21t51 -21t21 -51q0 -29 -21 -50t-51 -21t-51 21t-21 50z" />
    <glyph glyph-name="slash" unicode="/" horiz-adv-x="538" 
d="M43 0l394 701h122l-393 -701h-123z" />
    <glyph glyph-name="zero" unicode="0" horiz-adv-x="648" 
d="M496 432q0 82 -29.5 127t-87.5 45q-49 0 -88 -35t-59.5 -88.5t-31 -107.5t-10.5 -101q0 -83 30 -129t88 -46q52 0 91 36.5t59 92t29 108t9 98.5zM394 712q109 0 165.5 -76.5t56.5 -202.5q0 -77 -19.5 -153t-57.5 -142.5t-102 -107.5t-145 -41q-109 0 -165.5 77.5
t-56.5 203.5q0 79 19.5 154.5t57.5 140t102 105t145 42.5z" />
    <glyph glyph-name="one" unicode="1" horiz-adv-x="561" 
d="M53 108h174l62 443q-71 -51 -181 -51l15 105q61 3 115 26t84 70h108l-84 -593h166l-15 -108h-459z" />
    <glyph glyph-name="two" unicode="2" horiz-adv-x="606" 
d="M174 108h346l-15 -108h-478l3 23q16 122 68 192t166 129l66 34q69 35 100 66t31 72q0 39 -29 63.5t-78 24.5q-53 0 -104 -33t-81 -85l-69 81q39 64 111 104.5t153 40.5q90 0 153 -51.5t63 -137.5q0 -76 -46 -129.5t-142 -104.5l-66 -35q-60 -31 -99.5 -64t-52.5 -82z" />
    <glyph glyph-name="three" unicode="3" horiz-adv-x="610" 
d="M457 360q34 -17 59 -56.5t25 -89.5q0 -99 -79 -162t-196 -63q-73 0 -135.5 32.5t-96.5 83.5l88 77q58 -85 156 -85q60 0 101.5 33t41.5 82q0 44 -36 67t-101 23h-52l16 110h41q78 0 118.5 31t40.5 82q0 39 -29.5 59t-72.5 20q-89 0 -162 -76l-66 77q109 107 242 107
q87 0 148 -47.5t61 -131.5q0 -63 -31 -103t-81 -70z" />
    <glyph glyph-name="four" unicode="4" horiz-adv-x="622" 
d="M569 154h-97l-22 -154h-120l22 154h-320l14 97l392 450h111l-62 -439h97zM185 262h182l36 254z" />
    <glyph glyph-name="five" unicode="5" horiz-adv-x="587" 
d="M436 243q0 48 -32 80t-81 32q-88 0 -136 -79h-108l76 425h410l-15 -108h-300l-33 -172q59 42 126 42q91 0 153 -58t62 -158q0 -112 -80.5 -185t-210.5 -73q-74 0 -133 30t-93 81l90 77q23 -37 61.5 -58.5t87.5 -21.5q66 0 111 42t45 104z" />
    <glyph glyph-name="six" unicode="6" horiz-adv-x="634" 
d="M316 -11q-111 0 -175.5 79.5t-64.5 211.5q0 192 96 312t241 120q132 0 196 -90l-85 -77q-44 59 -121 59q-67 0 -124 -56.5t-75 -163.5q62 70 164 70q88 0 150.5 -56.5t62.5 -150.5q0 -117 -77.5 -187.5t-187.5 -70.5zM348 345q-56 0 -97 -38t-41 -100q0 -47 30.5 -78.5
t80.5 -31.5q59 0 98.5 39.5t39.5 102.5q0 47 -30.5 76.5t-80.5 29.5z" />
    <glyph glyph-name="seven" unicode="7" horiz-adv-x="569" 
d="M82 470l32 231h489l-14 -100q-119 -108 -201 -251.5t-119 -309.5l-9 -40h-121l9 39q76 330 290 554h-224l-18 -123h-114z" />
    <glyph glyph-name="eight" unicode="8" horiz-adv-x="611" 
d="M274 -11q-100 0 -161 53t-61 138q0 125 125 186q-24 15 -43.5 51t-19.5 78q0 98 72.5 157.5t184.5 59.5q91 0 150.5 -51.5t59.5 -134.5q0 -113 -105 -170q31 -18 54 -56t23 -87q0 -103 -79 -163.5t-200 -60.5zM319 304q-61 0 -103 -32.5t-42 -85.5q0 -43 32 -66t83 -23
q60 0 102 30t42 85q0 44 -32 68t-82 24zM361 604q-49 0 -88 -27.5t-39 -81.5q0 -38 26.5 -60t73.5 -22q55 0 90 29.5t35 77.5q0 42 -29 63t-69 21z" />
    <glyph glyph-name="nine" unicode="9" horiz-adv-x="634" 
d="M369 712q111 0 175.5 -79.5t64.5 -211.5q0 -192 -96 -312t-241 -120q-132 0 -196 90l85 77q44 -59 121 -59q67 0 124 56.5t75 163.5q-62 -70 -164 -70q-88 0 -150.5 56.5t-62.5 150.5q0 117 77.5 187.5t187.5 70.5zM337 356q56 0 97 38t41 100q0 47 -30.5 78.5
t-80.5 31.5q-59 0 -98.5 -39.5t-39.5 -102.5q0 -47 30.5 -76.5t80.5 -29.5z" />
    <glyph glyph-name="colon" unicode=":" horiz-adv-x="291" 
d="M48 60q0 30 21 51t51 21t51 -21t21 -51q0 -29 -21 -50t-51 -21t-51 21t-21 50zM100 429q0 30 21 51t51 21t51 -21t21 -51q0 -29 -21 -50t-51 -21t-51 21t-21 50z" />
    <glyph glyph-name="semicolon" unicode=";" horiz-adv-x="299" 
d="M102 -138h-115l137 252h130zM134 429q0 30 21 51t51 21t51 -21t21 -51q0 -29 -21 -50t-51 -21t-51 21t-21 50z" />
    <glyph glyph-name="less" unicode="&#x3c;" horiz-adv-x="605" 
d="M42 182l18 126l518 194l-17 -121l-392 -138l354 -139l-17 -115z" />
    <glyph glyph-name="equal" unicode="=" horiz-adv-x="650" 
d="M94 308l14 105h490l-14 -105h-490zM66 112l15 105h490l-15 -105h-490z" />
    <glyph glyph-name="greater" unicode="&#x3e;" horiz-adv-x="605" 
d="M568 309l-18 -126l-518 -194l17 121l392 138l-354 139l17 115z" />
    <glyph glyph-name="question" unicode="?" horiz-adv-x="535" 
d="M297 211h-116l26 183h33q68 0 117 32t49 91q0 39 -28 62.5t-70 23.5q-98 0 -170 -96l-66 87q97 118 245 118q92 0 150.5 -51t58.5 -132q0 -87 -60.5 -150t-156.5 -81zM147 60q0 30 21 51t51 21t51 -21t21 -51q0 -29 -21 -50t-51 -21t-51 21t-21 50z" />
    <glyph glyph-name="at" unicode="@" horiz-adv-x="1082" 
d="M665 58q-28 -27 -75.5 -48t-101.5 -21q-93 0 -150 64t-57 161q0 123 80.5 205.5t198.5 82.5q86 0 131 -56l7 44h112l-47 -333q-9 -66 34 -66q50 0 86 77.5t36 161.5q0 126 -81.5 206t-232.5 80q-114 0 -212 -51t-158.5 -148.5t-60.5 -220.5q0 -145 94 -224.5t253 -79.5
q101 0 197 35l-13 -98q-94 -34 -203 -34q-197 0 -316 105t-119 286q0 153 73.5 274.5t198 186.5t275.5 65q192 0 302.5 -104.5t110.5 -272.5q0 -144 -76.5 -245t-180.5 -101q-74 0 -105 69zM399 219q0 -57 27.5 -94.5t82.5 -37.5q70 0 113 55t43 127q0 56 -29 92.5t-83 36.5
q-66 0 -110 -54t-44 -125z" />
    <glyph glyph-name="A" unicode="A" 
d="M474 701l174 -701h-120l-38 149h-299l-79 -149h-131l373 701h120zM395 539l-146 -280h213z" />
    <glyph glyph-name="B" unicode="B" horiz-adv-x="693" 
d="M50 0l99 701h292q98 0 157.5 -48.5t59.5 -130.5q0 -108 -108 -165q36 -22 58 -60.5t22 -79.5q0 -106 -75.5 -161.5t-205.5 -55.5h-299zM184 108h156q171 0 171 105q0 90 -129 90h-170zM400 593h-148l-25 -181h149q158 0 158 100q0 81 -134 81z" />
    <glyph glyph-name="C" unicode="C" horiz-adv-x="700" 
d="M595 203l67 -87q-119 -127 -296 -127q-143 0 -234 91t-91 231q0 179 117 290t291 111q85 0 155.5 -35t110.5 -95l-86 -78q-70 99 -189 99q-115 0 -195.5 -83t-80.5 -204q0 -95 59 -156.5t155 -61.5q123 0 217 105z" />
    <glyph glyph-name="D" unicode="D" horiz-adv-x="724" 
d="M50 0l99 701h219q68 0 127 -17t106.5 -52.5t74.5 -96t27 -140.5q0 -103 -37.5 -181.5t-102 -124t-142.5 -67.5t-167 -22h-204zM349 593h-97l-68 -485h78q65 0 120.5 15.5t101 47.5t71 88t25.5 132q0 105 -61.5 153.5t-169.5 48.5z" />
    <glyph glyph-name="E" unicode="E" horiz-adv-x="642" 
d="M50 0l99 701h493l-16 -108h-374l-25 -181h357l-15 -109h-357l-28 -195h374l-15 -108h-493z" />
    <glyph glyph-name="F" unicode="F" horiz-adv-x="579" 
d="M169 0h-119l99 701h459l-16 -108h-340l-25 -181h317l-15 -109h-317z" />
    <glyph glyph-name="G" unicode="G" horiz-adv-x="754" 
d="M418 259l16 108h279l-37 -261q-127 -117 -298 -117q-138 0 -227.5 91.5t-89.5 232.5q0 177 119 288t293 111q164 0 262 -130l-87 -77q-70 98 -191 98q-115 0 -194 -82.5t-79 -204.5q0 -96 59 -157t155 -61q102 0 167 58l14 103h-161z" />
    <glyph glyph-name="H" unicode="H" horiz-adv-x="727" 
d="M498 0l43 303h-329l-43 -303h-119l99 701h119l-41 -289h329l41 289h120l-99 -701h-120z" />
    <glyph glyph-name="I" unicode="I" horiz-adv-x="279" 
d="M50 0l99 701h119l-99 -701h-119z" />
    <glyph glyph-name="J" unicode="J" horiz-adv-x="518" 
d="M4 91l89 78q43 -72 111 -72q49 0 83.5 33t43.5 99l66 472h121l-69 -480q-34 -232 -251 -232q-65 0 -114.5 28t-79.5 74z" />
    <glyph glyph-name="K" unicode="K" horiz-adv-x="666" 
d="M50 0l99 701h119l-46 -322l303 322h153l-279 -296l203 -405h-136l-158 308l-112 -115l-27 -193h-119z" />
    <glyph glyph-name="L" unicode="L" horiz-adv-x="571" 
d="M50 0l99 701h119l-84 -593h332l-15 -108h-451z" />
    <glyph glyph-name="M" unicode="M" horiz-adv-x="832" 
d="M353 155l-119 307l-65 -462h-119l99 701h119l152 -414l270 414h131l-99 -701h-119l65 462l-205 -307h-110z" />
    <glyph glyph-name="N" unicode="N" horiz-adv-x="747" 
d="M517 0l-277 509l-71 -509h-119l99 701h119l276 -511l72 511h120l-99 -701h-120z" />
    <glyph glyph-name="O" unicode="O" horiz-adv-x="803" 
d="M61 315q0 168 118 282.5t288 114.5q136 0 224.5 -94.5t88.5 -232.5q0 -169 -119 -282.5t-289 -113.5q-135 0 -223 94.5t-88 231.5zM184 316q0 -95 56 -156.5t148 -61.5q112 0 191.5 83.5t79.5 203.5q0 94 -55 155.5t-145 61.5q-114 0 -194.5 -83.5t-80.5 -202.5z" />
    <glyph glyph-name="P" unicode="P" horiz-adv-x="643" 
d="M351 239h-148l-34 -239h-119l99 701h257q110 0 178.5 -59t68.5 -153q0 -114 -83 -182t-219 -68zM385 593h-133l-34 -245h133q84 0 133 35.5t49 100.5q0 53 -39 81t-109 28z" />
    <glyph glyph-name="Q" unicode="Q" horiz-adv-x="825" 
d="M61 315q0 168 118 282.5t288 114.5q136 0 224.5 -94.5t88.5 -232.5q0 -158 -102 -268l58 -67l-84 -73l-60 70q-97 -58 -215 -58q-135 0 -225.5 94.5t-90.5 231.5zM184 316q0 -92 56.5 -155t147.5 -63q68 0 130 35l-78 92l82 72l78 -91q59 78 59 179q0 94 -55 155.5
t-145 61.5q-114 0 -194.5 -83.5t-80.5 -202.5z" />
    <glyph glyph-name="R" unicode="R" horiz-adv-x="666" 
d="M473 0l-113 239h-157l-34 -239h-119l99 701h257q111 0 179 -56t68 -149q0 -84 -46.5 -145.5t-129.5 -91.5l125 -259h-129zM395 593h-143l-34 -245h128q85 0 136 36.5t51 104.5q0 48 -35.5 76t-102.5 28z" />
    <glyph glyph-name="S" unicode="S" horiz-adv-x="661" 
d="M380 290l-74 12q-90 15 -141.5 64.5t-51.5 129.5q0 101 77.5 158.5t191.5 57.5q161 0 252 -112l-89 -83q-61 87 -179 87q-62 0 -96.5 -28.5t-34.5 -66.5q0 -71 103 -89l59 -10q101 -17 153.5 -68.5t52.5 -131.5q0 -101 -76.5 -161t-212.5 -60q-176 0 -272 132l90 79
q77 -103 197 -103q72 0 112 28.5t40 75.5q0 71 -101 89z" />
    <glyph glyph-name="T" unicode="T" horiz-adv-x="609" 
d="M102 701h541l-15 -108h-214l-83 -593h-119l83 593h-208z" />
    <glyph glyph-name="U" unicode="U" horiz-adv-x="702" 
d="M528 311l55 390h120l-56 -400q-22 -157 -104.5 -234.5t-212.5 -77.5t-199.5 86t-48.5 236l55 390h120l-55 -391q-30 -213 133 -213t193 214z" />
    <glyph glyph-name="V" unicode="V" horiz-adv-x="667" 
d="M321 144l259 557h127l-338 -701h-131l-142 701h119z" />
    <glyph glyph-name="W" unicode="W" horiz-adv-x="935" 
d="M657 189l191 512h133l-281 -701h-132l-59 507l-203 -507h-131l-84 701h122l50 -512l200 512h137z" />
    <glyph glyph-name="X" unicode="X" horiz-adv-x="674" 
d="M247 701l121 -244l193 244h143l-275 -342l189 -359h-139l-135 258l-206 -258h-143l290 359l-177 342h139z" />
    <glyph glyph-name="Y" unicode="Y" horiz-adv-x="635" 
d="M214 701l122 -326l212 326h133l-299 -456l-35 -245h-119l35 245l-171 456h122z" />
    <glyph glyph-name="Z" unicode="Z" horiz-adv-x="644" 
d="M134 701h516l-15 -103l-428 -490h357l-15 -108h-516l14 103l428 490h-357z" />
    <glyph glyph-name="bracketleft" unicode="[" horiz-adv-x="384" 
d="M34 -194l126 895h259l-15 -107h-140l-96 -681h140l-15 -107h-259z" />
    <glyph glyph-name="backslash" unicode="\" horiz-adv-x="444" 
d="M197 701l197 -701h-118l-196 701h117z" />
    <glyph glyph-name="bracketright" unicode="]" horiz-adv-x="384" 
d="M355 701l-126 -895h-259l15 107h140l96 681h-140l15 107h259z" />
    <glyph glyph-name="asciicircum" unicode="^" horiz-adv-x="655" 
d="M450 701l166 -359h-119l-113 250l-183 -250h-126l265 359h110z" />
    <glyph glyph-name="underscore" unicode="_" horiz-adv-x="604" 
d="M0 -194l15 105h490l-15 -105h-490z" />
    <glyph glyph-name="grave" unicode="`" horiz-adv-x="556" 
d="M213 701h140l73 -131h-112z" />
    <glyph glyph-name="a" unicode="a" horiz-adv-x="587" 
d="M47 216q0 119 72 202.5t180 83.5q91 0 138 -70l8 58h109l-69 -490h-109l6 48q-53 -59 -142 -59q-84 0 -138.5 64t-54.5 163zM159 216q0 -59 29 -91.5t74 -32.5q70 0 111.5 50.5t41.5 124.5q0 58 -27.5 94.5t-84.5 36.5q-58 0 -101 -52t-43 -130z" />
    <glyph glyph-name="b" unicode="b" horiz-adv-x="609" 
d="M567 271q0 -121 -79 -201.5t-190 -80.5q-91 0 -140 58l-7 -47h-112l99 701h114l-35 -247q52 48 134 48q96 0 156 -63t60 -168zM183 220q0 -57 28.5 -94t83.5 -37q70 0 112.5 54t42.5 127q0 56 -29 93.5t-83 37.5q-71 0 -113 -54t-42 -127z" />
    <glyph glyph-name="c" unicode="c" horiz-adv-x="539" 
d="M332 398q-64 0 -110 -51t-46 -125q0 -57 31.5 -93.5t82.5 -36.5q43 0 75 18.5t64 55.5l71 -76q-83 -101 -223 -101q-94 0 -156 63.5t-62 166.5q0 120 81 201.5t194 81.5q134 0 195 -98l-88 -74q-24 34 -48.5 51t-60.5 17z" />
    <glyph glyph-name="d" unicode="d" horiz-adv-x="604" 
d="M46 219q0 122 79 202.5t197 80.5q79 0 132 -51l36 250h114l-99 -701h-112l6 40q-56 -51 -147 -51q-92 0 -149 66t-57 164zM430 270q0 57 -28.5 94t-83.5 37q-70 0 -112.5 -54t-42.5 -127q0 -56 28.5 -93.5t83.5 -37.5q71 0 113 54t42 127z" />
    <glyph glyph-name="e" unicode="e" horiz-adv-x="544" 
d="M497 211h-335q-2 -54 27 -86.5t80 -32.5q84 0 141 69l69 -75q-90 -97 -219 -97q-97 0 -155.5 64t-58.5 162q0 119 76 203t193 84q95 0 143.5 -64t48.5 -148q0 -18 -2.5 -37.5t-4.5 -30.5zM306 398q-47 0 -79.5 -28t-45.5 -68h209q4 37 -16 66.5t-68 29.5z" />
    <glyph glyph-name="f" unicode="f" horiz-adv-x="348" 
d="M361 701l44 -1l-15 -105q-15 1 -26 1q-59 0 -83 -21t-34 -79l-1 -6h118l-14 -102h-118l-55 -388h-112l55 388h-72l14 102h72l4 25q28 186 223 186z" />
    <glyph glyph-name="g" unicode="g" horiz-adv-x="597" 
d="M24 -96l87 72q48 -79 135 -79q58 0 96.5 34.5t47.5 102.5l3 25q-57 -48 -137 -48q-92 0 -147 62t-55 159q0 119 74 194.5t187 75.5q88 0 135 -57l6 45h112l-66 -469q-16 -110 -86.5 -168t-181.5 -58q-83 0 -135.5 35t-74.5 74zM171 234q0 -54 28.5 -86.5t78.5 -32.5
q64 0 105.5 46.5t41.5 116.5q0 54 -29 87t-79 33q-64 0 -105 -47t-41 -117z" />
    <glyph glyph-name="h" unicode="h" horiz-adv-x="560" 
d="M192 271l-38 -271h-114l99 701h114l-36 -251q54 52 128 52q78 0 124 -48.5t46 -130.5q0 -18 -4 -50l-38 -273h-114l40 285q2 18 2 26q0 40 -22.5 64t-60.5 24q-52 0 -85 -34.5t-41 -93.5z" />
    <glyph glyph-name="i" unicode="i" horiz-adv-x="254" 
d="M39 0l69 490h114l-69 -490h-114zM112 639q0 30 21 50.5t51 20.5t51 -20.5t21 -50.5t-21 -51t-51 -21t-51 21t-21 51z" />
    <glyph glyph-name="j" unicode="j" horiz-adv-x="310" 
d="M87 -2l69 492h113l-72 -515q-13 -92 -63.5 -133t-147.5 -41l-44 1l15 108q15 -1 26 -1q53 0 75 18t29 71zM160 639q0 30 21 50.5t51 20.5t51 -20.5t21 -50.5t-21 -51t-51 -21t-51 21t-21 51z" />
    <glyph glyph-name="k" unicode="k" horiz-adv-x="539" 
d="M40 0l99 701h114l-56 -396l191 185h147l-221 -212l161 -278h-124l-119 203l-57 -55l-21 -148h-114z" />
    <glyph glyph-name="l" unicode="l" horiz-adv-x="254" 
d="M40 0l99 701h114l-99 -701h-114z" />
    <glyph glyph-name="m" unicode="m" horiz-adv-x="851" 
d="M345 0l41 293q2 16 2 24q0 38 -19.5 60t-57.5 22q-49 0 -79.5 -32.5t-38.5 -87.5l-39 -279h-114l69 490h112l-6 -43q53 55 130 55q85 0 123 -64q70 64 160 64q83 0 131 -49.5t48 -129.5q0 -21 -5 -53l-38 -270h-114l41 293q2 16 2 24q0 38 -19.5 60t-57.5 22
q-49 0 -80 -32.5t-39 -87.5l-39 -279h-113z" />
    <glyph glyph-name="n" unicode="n" horiz-adv-x="555" 
d="M187 271l-38 -271h-114l69 490h112l-6 -40q54 52 130 52q78 0 124 -48.5t46 -130.5q0 -18 -4 -50q0 -1 -38 -273h-114l40 285q2 18 2 26q0 40 -22.5 64t-60.5 24q-52 0 -85 -34.5t-41 -93.5z" />
    <glyph glyph-name="o" unicode="o" horiz-adv-x="596" 
d="M47 223q0 121 83 200t204 79q97 0 160.5 -64t63.5 -167q0 -121 -83 -201.5t-204 -80.5q-97 0 -160.5 65t-63.5 169zM163 223q0 -58 32.5 -94.5t86.5 -36.5q66 0 112 50.5t46 124.5q0 58 -32 94.5t-85 36.5q-67 0 -113.5 -50.5t-46.5 -124.5z" />
    <glyph glyph-name="p" unicode="p" horiz-adv-x="609" 
d="M567 271q0 -123 -78 -202.5t-195 -79.5q-91 0 -135 54l-33 -237h-114l96 684h112l-6 -44q59 56 147 56q93 0 149.5 -66.5t56.5 -164.5zM183 219q0 -56 28.5 -93t83.5 -37q70 0 112.5 54t42.5 126q0 56 -29 93t-83 37q-71 0 -113 -53.5t-42 -126.5z" />
    <glyph glyph-name="q" unicode="q" horiz-adv-x="609" 
d="M51 219q0 123 78 203t196 80q82 0 136 -56l6 44h112l-96 -684h-114l32 230q-63 -47 -144 -47q-92 0 -149 66t-57 164zM435 269q0 56 -28.5 93t-83.5 37q-70 0 -112.5 -54t-42.5 -126q0 -56 28.5 -93t83.5 -37q71 0 113 53.5t42 126.5z" />
    <glyph glyph-name="r" unicode="r" horiz-adv-x="380" 
d="M403 496l-15 -108q-8 1 -18 1q-84 0 -124 -47t-55 -150l-27 -192h-114l69 490h112l-8 -53q59 60 158 60q10 0 22 -1z" />
    <glyph glyph-name="s" unicode="s" horiz-adv-x="473" 
d="M264 185l-73 20q-119 33 -119 142q0 69 55 112t137 43q117 0 183 -82l-80 -75q-47 59 -114 59q-30 0 -50 -14t-20 -34q0 -32 43 -44l84 -23q58 -16 89 -53t31 -91q0 -71 -56 -113.5t-153 -42.5q-127 0 -198 95l79 71q51 -68 133 -68q83 0 83 51q0 31 -54 47z" />
    <glyph glyph-name="t" unicode="t" horiz-adv-x="348" 
d="M222 -1q-87 0 -121 47t-21 142l28 200h-72l14 102h72l20 137h113l-20 -137h117l-14 -102h-117l-28 -198q-7 -53 6.5 -71t61.5 -18h37l-14 -100q-23 -2 -62 -2z" />
    <glyph glyph-name="u" unicode="u" horiz-adv-x="549" 
d="M209 490l-41 -293q-1 -8 -1 -24q0 -39 20.5 -60.5t58.5 -21.5q48 0 79.5 34t39.5 89l39 276h114l-69 -490h-112l5 40q-51 -51 -126 -51t-119 48.5t-44 129.5q0 15 4 49l39 274h113z" />
    <glyph glyph-name="v" unicode="v" horiz-adv-x="472" 
d="M511 490l-243 -490h-124l-105 490h118l65 -343l161 343h128z" />
    <glyph glyph-name="w" unicode="w" horiz-adv-x="782" 
d="M222 152l137 338h146l41 -338l131 338h127l-204 -490h-138l-46 348l-145 -348h-138l-66 490h120z" />
    <glyph glyph-name="x" unicode="x" horiz-adv-x="502" 
d="M199 490l70 -146l113 146h136l-193 -238l135 -252h-126l-81 160l-124 -160h-136l205 252l-125 238h126z" />
    <glyph glyph-name="y" unicode="y" horiz-adv-x="546" 
d="M198 -194h-120l102 188l-124 496h125l78 -354l180 354h129z" />
    <glyph glyph-name="z" unicode="z" horiz-adv-x="504" 
d="M107 490h373l-14 -97l-270 -290h241l-14 -103h-390l14 97l268 291h-222z" />
    <glyph glyph-name="braceleft" unicode="{" horiz-adv-x="417" 
d="M305 505l-71 -502q-7 -49 9.5 -70t60.5 -21h36l-15 -106h-54q-87 0 -127 52.5t-26 146.5l28 194h-114l15 109h114l29 204q14 99 60.5 144.5t136.5 45.5h64l-15 -106h-36q-44 0 -66 -21t-29 -70z" />
    <glyph glyph-name="bar" unicode="|" horiz-adv-x="435" 
d="M103 -194l126 895h116l-126 -895h-116z" />
    <glyph glyph-name="braceright" unicode="}" horiz-adv-x="417" 
d="M112 3l71 502q7 49 -9.5 70t-60.5 21h-36l15 106h54q87 0 127 -52.5t26 -146.5l-28 -194h114l-15 -109h-114l-29 -204q-14 -99 -60.5 -144.5t-136.5 -45.5h-64l15 106h36q44 0 66 21t29 70z" />
    <glyph glyph-name="asciitilde" unicode="~" horiz-adv-x="517" 
d="M381 336h96q-9 -70 -47 -109t-87 -39q-32 0 -59 11l-50 21q-22 8 -36 8q-32 0 -43 -40h-95q9 70 49 109t90 39q25 0 54 -11l50 -20q22 -8 36 -8q33 0 42 39z" />
    <glyph glyph-name="exclamdown" unicode="&#xa1;" horiz-adv-x="326" 
d="M231 279l-66 -473h-118l66 473h118zM266 431q0 -30 -21 -51t-51 -21t-51 21t-21 51q0 29 21 50t51 21t51 -21t21 -50z" />
    <glyph glyph-name="cent" unicode="&#xa2;" horiz-adv-x="551" 
d="M216 -114l15 109q-74 16 -120 76t-46 148q0 110 68.5 188t168.5 92l15 105h97l-15 -108q90 -20 136 -92l-88 -74q-32 45 -63 59l-41 -291q46 14 92 68l71 -76q-69 -85 -178 -98l-15 -106h-97zM182 222q0 -88 64 -120l40 286q-46 -18 -75 -63t-29 -103z" />
    <glyph glyph-name="sterling" unicode="&#xa3;" horiz-adv-x="654" 
d="M79 323l15 112h69q0 6 0.5 17t1 20.5t1.5 17.5q17 112 88 167t158 55q134 0 218 -109l-87 -77q-56 78 -133 78q-49 0 -83.5 -30.5t-42.5 -89.5q-2 -17 -2 -49h190l-15 -112h-169l16 -209h152l17 123h105l-33 -237h-512l16 114h134l-15 209h-89z" />
    <glyph glyph-name="yen" unicode="&#xa5;" horiz-adv-x="635" 
d="M94 283l14 99h127l-139 319h123l127 -292l198 292h130l-218 -319h130l-14 -99h-179l-10 -69h179l-14 -99h-179l-16 -115h-120l16 115h-179l14 99h179l10 69h-179z" />
    <glyph glyph-name="brokenbar" unicode="&#xa6;" horiz-adv-x="435" 
d="M177 336l52 365h116l-52 -365h-116zM103 -194l51 365h116l-51 -365h-116z" />
    <glyph glyph-name="section" unicode="&#xa7;" horiz-adv-x="627" 
d="M558 237q0 -51 -19 -89t-62 -74q23 -35 23 -81q0 -81 -60.5 -139.5t-166.5 -58.5q-144 0 -228 136l86 73q61 -104 157 -104q43 0 69 20.5t26 53.5q0 31 -22 48.5t-67 34.5l-79 28q-146 53 -146 181q0 106 99 172q-25 36 -25 87q0 82 65 134.5t158 52.5q123 0 208 -104
l-83 -73q-30 37 -60 55t-73 18q-42 0 -70 -21.5t-28 -54.5q0 -53 69 -81l70 -28q81 -33 120 -75t39 -111zM276 189l128 -51q38 45 38 84q0 30 -20 50t-69 41l-124 53q-41 -34 -41 -83q0 -31 20 -52.5t68 -41.5z" />
    <glyph glyph-name="dieresis" unicode="&#xa8;" horiz-adv-x="556" 
d="M179 644q0 26 18.5 44.5t43.5 18.5t44 -18.5t19 -44.5t-19 -44.5t-44 -18.5t-43.5 18.5t-18.5 44.5zM370 644q0 26 19 44.5t44 18.5t43.5 -18.5t18.5 -44.5t-18.5 -44.5t-43.5 -18.5t-44 18.5t-19 44.5z" />
    <glyph glyph-name="copyright" unicode="&#xa9;" horiz-adv-x="826" 
d="M73 312q0 109 56.5 202t149.5 145.5t199 52.5q138 0 226 -94t88 -230q0 -110 -57 -202.5t-150 -144.5t-199 -52q-138 0 -225.5 93t-87.5 230zM149 315q0 -108 68 -179.5t175 -71.5q131 0 227 95t96 226q0 107 -67.5 179.5t-174.5 72.5q-131 0 -227.5 -96t-96.5 -226z
M528 273l32 -74q-55 -49 -139 -49q-83 0 -132 51.5t-49 128.5q0 93 66 156t160 63q89 0 137 -70l-67 -57q-31 42 -77 42q-50 0 -86.5 -37.5t-36.5 -93.5q0 -42 25 -70t68 -28q53 0 99 38z" />
    <glyph glyph-name="ordfeminine" unicode="&#xaa;" horiz-adv-x="416" 
d="M194 334q-47 0 -79.5 31t-32.5 78q0 55 43 88.5t104 33.5q37 0 79 -12l2 15q4 31 -9.5 46.5t-39.5 15.5q-47 0 -85 -41l-53 59q62 64 148 64q70 0 105 -41.5t24 -119.5l-29 -209h-91l2 19q-38 -27 -88 -27zM176 448q0 -15 11.5 -24.5t33.5 -9.5q36 0 71 24l6 39
q-32 12 -62 12q-28 0 -44 -11.5t-16 -29.5z" />
    <glyph glyph-name="guillemotleft" unicode="&#xab;" horiz-adv-x="633" 
d="M38 245l171 245h125l-177 -250l102 -240h-118zM306 245l171 245h125l-177 -250l102 -240h-118z" />
    <glyph glyph-name="logicalnot" unicode="&#xac;" horiz-adv-x="627" 
d="M68 210l15 105h479l-35 -248h-108l20 143h-371z" />
    <glyph glyph-name="registered" unicode="&#xae;" horiz-adv-x="659" 
d="M85 402q0 127 89 218.5t219 91.5q104 0 173.5 -70.5t69.5 -173.5q0 -127 -90 -217.5t-221 -90.5q-103 0 -171.5 70t-68.5 172zM160 410q0 -76 48 -126.5t123 -50.5q98 0 163.5 66t65.5 161q0 77 -48 128.5t-124 51.5q-97 0 -162.5 -67t-65.5 -163zM393 316l-38 69h-36
l-10 -69h-68l36 251h113q40 0 67.5 -21.5t27.5 -61.5q0 -60 -64 -88l47 -80h-75zM369 508h-33l-8 -62h33q55 0 55 36q0 26 -47 26z" />
    <glyph glyph-name="macron" unicode="&#xaf;" horiz-adv-x="556" 
d="M237 701h239l-13 -95h-239z" />
    <glyph glyph-name="degree" unicode="&#xb0;" horiz-adv-x="445" 
d="M102 533q0 76 54.5 127.5t130.5 51.5q65 0 107.5 -41t42.5 -109q0 -76 -54.5 -128t-131.5 -52q-64 0 -106.5 41.5t-42.5 109.5zM202 538q0 -26 16.5 -42.5t41.5 -16.5q30 0 52.5 22.5t22.5 54.5q0 26 -16.5 43t-41.5 17q-31 0 -53 -23t-22 -55z" />
    <glyph glyph-name="plusminus" unicode="&#xb1;" horiz-adv-x="650" 
d="M50 0l15 105h490l-15 -105h-490zM103 379l15 105h191l27 191h105l-27 -191h194l-15 -105h-194l-27 -194h-105l27 194h-191z" />
    <glyph glyph-name="twosuperior" unicode="&#xb2;" horiz-adv-x="426" 
d="M215 390h171l-12 -82h-289l2 12q11 68 50 115t111 89l12 7q35 21 49 35t14 31q0 16 -12.5 25.5t-31.5 9.5q-49 0 -99 -60l-52 60q25 34 65.5 57t87.5 23q59 0 98 -30t39 -79q0 -39 -27 -71.5t-82 -67.5l-35 -22q-46 -28 -59 -52z" />
    <glyph glyph-name="threesuperior" unicode="&#xb3;" horiz-adv-x="402" 
d="M316 509q20 -9 34 -32.5t14 -50.5q0 -62 -47.5 -96t-113.5 -34q-88 0 -141 72l65 57q32 -48 83 -48q28 0 45 13t17 35q0 42 -63 42h-36l11 82h29q72 0 72 48q0 16 -12.5 25.5t-33.5 9.5q-44 0 -79 -44l-54 62q58 62 144 62q52 0 91 -28t39 -77q0 -62 -64 -98z" />
    <glyph glyph-name="acute" unicode="&#xb4;" horiz-adv-x="556" 
d="M355 701h140l-137 -131h-112z" />
    <glyph glyph-name="mu" unicode="&#xb5;" horiz-adv-x="581" 
d="M23 -194l96 684h114l-40 -287q-7 -51 13 -79t63 -28q48 0 80 34t40 89l38 271h114l-69 -490h-112l6 40q-56 -51 -123 -51q-49 0 -77 22l-29 -205h-114z" />
    <glyph glyph-name="mu" unicode="&#x3bc;" horiz-adv-x="581" 
d="M23 -194l96 684h114l-40 -287q-7 -51 13 -79t63 -28q48 0 80 34t40 89l38 271h114l-69 -490h-112l6 40q-56 -51 -123 -51q-49 0 -77 22l-29 -205h-114z" />
    <glyph glyph-name="paragraph" unicode="&#xb6;" horiz-adv-x="759" 
d="M343 258h-37q-106 0 -174.5 57t-68.5 145q0 105 81.5 173t209.5 68h394l-126 -895h-116l111 792h-109l-111 -792h-117z" />
    <glyph glyph-name="periodcentered" unicode="&#xb7;" horiz-adv-x="372" 
d="M124 262q0 30 21 51t51 21t51 -21t21 -51q0 -29 -21 -50t-51 -21t-51 21t-21 50z" />
    <glyph glyph-name="cedilla" unicode="&#xb8;" horiz-adv-x="539" 
d="M248 -137h-120l86 131h109z" />
    <glyph glyph-name="onesuperior" unicode="&#xb9;" horiz-adv-x="414" 
d="M104 389h100l29 204q-37 -25 -103 -25l11 80q83 2 113 53h86l-44 -312h96l-11 -81h-288z" />
    <glyph glyph-name="ordmasculine" unicode="&#xba;" horiz-adv-x="492" 
d="M92 503q0 91 63.5 150t155.5 59q77 0 126 -48t49 -125q0 -91 -63.5 -149.5t-154.5 -58.5q-77 0 -126.5 47.5t-49.5 124.5zM192 507q0 -37 22.5 -61.5t60.5 -24.5q47 0 79 33t32 81q0 38 -22.5 62.5t-60.5 24.5q-47 0 -79 -33.5t-32 -81.5z" />
    <glyph glyph-name="guillemotright" unicode="&#xbb;" horiz-adv-x="633" 
d="M327 245l-171 -245h-125l177 250l-102 240h118zM595 245l-171 -245h-125l177 250l-102 240h118z" />
    <glyph glyph-name="onequarter" unicode="&#xbc;" horiz-adv-x="966" 
d="M890 79h-60l-11 -79h-92l11 79h-176l11 75l213 228h87l-32 -222h60zM665 160h84l15 106zM113 389h100l29 204q-37 -25 -103 -25l11 80q83 2 113 53h86l-44 -312h96l-11 -81h-288zM210 0l523 701h125l-524 -701h-124z" />
    <glyph glyph-name="onehalf" unicode="&#xbd;" horiz-adv-x="999" 
d="M104 389h100l29 204q-37 -25 -103 -25l11 80q83 2 113 53h86l-44 -312h96l-11 -81h-288zM742 71h171l-12 -82h-289l2 12q11 68 50 115t111 89l12 7q35 21 49 35t14 31q0 16 -12.5 25.5t-31.5 9.5q-49 0 -99 -60l-52 60q25 34 65.5 57t87.5 23q59 0 98 -30t39 -79
q0 -39 -27 -71.5t-82 -67.5l-35 -22q-46 -28 -59 -52zM201 0l523 701h125l-524 -701h-124z" />
    <glyph glyph-name="threequarters" unicode="&#xbe;" horiz-adv-x="893" 
d="M817 79h-60l-11 -79h-92l11 79h-176l11 75l213 228h87l-32 -222h60zM592 160h84l15 106zM316 509q20 -9 34 -32.5t14 -50.5q0 -62 -47.5 -96t-113.5 -34q-88 0 -141 72l65 57q32 -48 83 -48q28 0 45 13t17 35q0 42 -63 42h-36l11 82h29q72 0 72 48q0 16 -12.5 25.5
t-33.5 9.5q-44 0 -79 -44l-54 62q58 62 144 62q52 0 91 -28t39 -77q0 -62 -64 -98zM137 0l523 701h125l-524 -701h-124z" />
    <glyph glyph-name="questiondown" unicode="&#xbf;" horiz-adv-x="535" 
d="M338 280h-116l-11 -82q-98 -19 -158 -76t-60 -143q0 -81 58.5 -132.5t150.5 -51.5q148 0 245 118l-66 87q-72 -96 -170 -96q-44 0 -71 23.5t-27 60.5q0 55 49.5 84.5t117.5 29.5h33zM372 431q0 -30 -21 -51t-51 -21t-51 21t-21 51q0 29 21 50t51 21t51 -21t21 -50z" />
    <glyph glyph-name="Agrave" unicode="&#xc0;" 
d="M474 701l174 -701h-120l-38 149h-299l-79 -149h-131l373 701h120zM395 539l-146 -280h213zM275 872h146l72 -103h-123z" />
    <glyph glyph-name="Aacute" unicode="&#xc1;" 
d="M474 701l174 -701h-120l-38 149h-299l-79 -149h-131l373 701h120zM395 539l-146 -280h213zM436 872h151l-123 -103h-128z" />
    <glyph glyph-name="Acircumflex" unicode="&#xc2;" 
d="M474 701l174 -701h-120l-38 149h-299l-79 -149h-131l373 701h120zM395 539l-146 -280h213zM369 872h136l77 -103h-109l-40 44l-52 -44h-117z" />
    <glyph glyph-name="Atilde" unicode="&#xc3;" 
d="M474 701l174 -701h-120l-38 149h-299l-79 -149h-131l373 701h120zM395 539l-146 -280h213zM504 872h80q-7 -49 -36.5 -81.5t-67.5 -32.5q-21 0 -40 7l-39 15q-18 8 -32 8q-22 0 -27 -24h-80q7 49 36.5 81.5t67.5 32.5q22 0 41 -7l38 -15q24 -8 32 -8q22 0 27 24z" />
    <glyph glyph-name="Adieresis" unicode="&#xc4;" 
d="M474 701l174 -701h-120l-38 149h-299l-79 -149h-131l373 701h120zM395 539l-146 -280h213zM263 821q0 26 18.5 44.5t43.5 18.5t44 -19t19 -44t-19 -44t-44 -19t-43.5 18.5t-18.5 44.5zM454 821q0 25 19 44t44 19t43.5 -18.5t18.5 -44.5t-18.5 -44.5t-43.5 -18.5t-44 19
t-19 44z" />
    <glyph glyph-name="Aring" unicode="&#xc5;" 
d="M321 772q0 47 33 79t77 32q41 0 68.5 -25t27.5 -67q0 -59 -52 -93l173 -698h-120l-38 149h-299l-79 -149h-131l371 698q-31 26 -31 74zM395 539l-146 -280h213zM383 777q0 -15 9.5 -25t24.5 -10q18 0 32 12t14 32q0 16 -9.5 25.5t-24.5 9.5q-18 0 -32 -12.5t-14 -31.5z
" />
    <glyph glyph-name="AE" unicode="&#xc6;" horiz-adv-x="921" 
d="M823 0h-295l-38 149h-299l-79 -149h-131l373 701h568l-16 -108h-406l45 -181h319l-15 -109h-276l48 -195h217zM395 539l-146 -280h213z" />
    <glyph glyph-name="Ccedilla" unicode="&#xc7;" horiz-adv-x="700" 
d="M330 -137h-120l86 131h7q-118 20 -190 106.5t-72 210.5q0 179 117 290t291 111q85 0 155.5 -35t110.5 -95l-86 -78q-70 99 -189 99q-115 0 -195.5 -83t-80.5 -204q0 -95 59 -156.5t155 -61.5q123 0 217 105l67 -87q-106 -114 -259 -125z" />
    <glyph glyph-name="Egrave" unicode="&#xc8;" horiz-adv-x="642" 
d="M50 0l99 701h493l-16 -108h-374l-25 -181h357l-15 -109h-357l-28 -195h374l-15 -108h-493zM275 872h146l72 -103h-123z" />
    <glyph glyph-name="Eacute" unicode="&#xc9;" horiz-adv-x="642" 
d="M50 0l99 701h493l-16 -108h-374l-25 -181h357l-15 -109h-357l-28 -195h374l-15 -108h-493zM420 872h151l-123 -103h-128z" />
    <glyph glyph-name="Ecircumflex" unicode="&#xca;" horiz-adv-x="642" 
d="M50 0l99 701h493l-16 -108h-374l-25 -181h357l-15 -109h-357l-28 -195h374l-15 -108h-493zM354 872h136l77 -103h-109l-40 44l-52 -44h-117z" />
    <glyph glyph-name="Edieresis" unicode="&#xcb;" horiz-adv-x="642" 
d="M50 0l99 701h493l-16 -108h-374l-25 -181h357l-15 -109h-357l-28 -195h374l-15 -108h-493zM258 821q0 26 18.5 44.5t43.5 18.5q26 0 44.5 -19t18.5 -44t-18.5 -44t-44.5 -19q-25 0 -43.5 18.5t-18.5 44.5zM449 821q0 25 18.5 44t44.5 19q25 0 43.5 -18.5t18.5 -44.5
t-18.5 -44.5t-43.5 -18.5q-26 0 -44.5 19t-18.5 44z" />
    <glyph glyph-name="Igrave" unicode="&#xcc;" horiz-adv-x="279" 
d="M50 0l99 701h119l-99 -701h-119zM70 872h146l72 -103h-123z" />
    <glyph glyph-name="Iacute" unicode="&#xcd;" horiz-adv-x="279" 
d="M50 0l99 701h119l-99 -701h-119zM242 872h151l-123 -103h-128z" />
    <glyph glyph-name="Icircumflex" unicode="&#xce;" horiz-adv-x="279" 
d="M50 0l99 701h119l-99 -701h-119zM165 872h136l77 -103h-109l-40 44l-52 -44h-117z" />
    <glyph glyph-name="Idieresis" unicode="&#xcf;" horiz-adv-x="279" 
d="M50 0l99 701h119l-99 -701h-119zM67 821q0 26 18.5 44.5t43.5 18.5t44 -19t19 -44t-19 -44t-44 -19t-43.5 18.5t-18.5 44.5zM258 821q0 25 19 44t44 19t43.5 -18.5t18.5 -44.5t-18.5 -44.5t-43.5 -18.5t-44 19t-19 44z" />
    <glyph glyph-name="Eth" unicode="&#xd0;" horiz-adv-x="758" 
d="M84 0l43 303h-80l15 109h80l41 289h219q68 0 127 -17t106.5 -52.5t74.5 -96t27 -140.5q0 -103 -37.5 -181.5t-102 -124t-142.5 -67.5t-167 -22h-204zM383 593h-97l-26 -181h121l-15 -109h-121l-27 -195h78q65 0 120.5 15.5t101 47.5t71 88t25.5 132q0 105 -61.5 153.5
t-169.5 48.5z" />
    <glyph glyph-name="Ntilde" unicode="&#xd1;" horiz-adv-x="747" 
d="M517 0l-277 509l-71 -509h-119l99 701h119l276 -511l72 511h120l-99 -701h-120zM539 872h80q-7 -49 -36.5 -81.5t-67.5 -32.5q-21 0 -40 7l-39 15q-18 8 -32 8q-22 0 -27 -24h-80q7 49 36.5 81.5t67.5 32.5q22 0 41 -7l38 -15q24 -8 32 -8q22 0 27 24z" />
    <glyph glyph-name="Ograve" unicode="&#xd2;" horiz-adv-x="803" 
d="M61 315q0 168 118 282.5t288 114.5q136 0 224.5 -94.5t88.5 -232.5q0 -169 -119 -282.5t-289 -113.5q-135 0 -223 94.5t-88 231.5zM184 316q0 -95 56 -156.5t148 -61.5q112 0 191.5 83.5t79.5 203.5q0 94 -55 155.5t-145 61.5q-114 0 -194.5 -83.5t-80.5 -202.5zM326 872
h146l72 -103h-123z" />
    <glyph glyph-name="Oacute" unicode="&#xd3;" horiz-adv-x="803" 
d="M61 315q0 168 118 282.5t288 114.5q136 0 224.5 -94.5t88.5 -232.5q0 -169 -119 -282.5t-289 -113.5q-135 0 -223 94.5t-88 231.5zM184 316q0 -95 56 -156.5t148 -61.5q112 0 191.5 83.5t79.5 203.5q0 94 -55 155.5t-145 61.5q-114 0 -194.5 -83.5t-80.5 -202.5zM500 872
h151l-123 -103h-128z" />
    <glyph glyph-name="Ocircumflex" unicode="&#xd4;" horiz-adv-x="803" 
d="M61 315q0 168 118 282.5t288 114.5q136 0 224.5 -94.5t88.5 -232.5q0 -169 -119 -282.5t-289 -113.5q-135 0 -223 94.5t-88 231.5zM184 316q0 -95 56 -156.5t148 -61.5q112 0 191.5 83.5t79.5 203.5q0 94 -55 155.5t-145 61.5q-114 0 -194.5 -83.5t-80.5 -202.5zM422 872
h136l77 -103h-109l-40 44l-52 -44h-117z" />
    <glyph glyph-name="Otilde" unicode="&#xd5;" horiz-adv-x="803" 
d="M61 315q0 168 118 282.5t288 114.5q136 0 224.5 -94.5t88.5 -232.5q0 -169 -119 -282.5t-289 -113.5q-135 0 -223 94.5t-88 231.5zM184 316q0 -95 56 -156.5t148 -61.5q112 0 191.5 83.5t79.5 203.5q0 94 -55 155.5t-145 61.5q-114 0 -194.5 -83.5t-80.5 -202.5zM561 872
h80q-7 -49 -36.5 -81.5t-67.5 -32.5q-21 0 -40 7l-39 15q-18 8 -32 8q-22 0 -27 -24h-80q7 49 36.5 81.5t67.5 32.5q22 0 41 -7l38 -15q24 -8 32 -8q22 0 27 24z" />
    <glyph glyph-name="Odieresis" unicode="&#xd6;" horiz-adv-x="803" 
d="M61 315q0 168 118 282.5t288 114.5q136 0 224.5 -94.5t88.5 -232.5q0 -169 -119 -282.5t-289 -113.5q-135 0 -223 94.5t-88 231.5zM184 316q0 -95 56 -156.5t148 -61.5q112 0 191.5 83.5t79.5 203.5q0 94 -55 155.5t-145 61.5q-114 0 -194.5 -83.5t-80.5 -202.5zM329 821
q0 26 18.5 44.5t43.5 18.5t44 -19t19 -44t-19 -44t-44 -19t-43.5 18.5t-18.5 44.5zM520 821q0 25 19 44t44 19t43.5 -18.5t18.5 -44.5t-18.5 -44.5t-43.5 -18.5t-44 19t-19 44z" />
    <glyph glyph-name="multiply" unicode="&#xd7;" horiz-adv-x="605" 
d="M109 395l81 70l123 -144l169 149l68 -79l-168 -149l126 -146l-81 -70l-126 146l-171 -150l-69 79l172 150z" />
    <glyph glyph-name="Oslash" unicode="&#xd8;" horiz-adv-x="803" 
d="M61 315q0 168 118 282.5t288 114.5q83 0 152 -39l51 61l79 -65l-50 -60q81 -94 81 -224q0 -169 -119 -282.5t-289 -113.5q-88 0 -158 42l-50 -60l-78 65l51 61q-76 90 -76 218zM659 385q0 77 -37 132l-332 -396q43 -23 98 -23q112 0 191.5 83.5t79.5 203.5zM184 316
q0 -72 32 -125l328 393q-41 18 -85 18q-114 0 -194.5 -83.5t-80.5 -202.5z" />
    <glyph glyph-name="Ugrave" unicode="&#xd9;" horiz-adv-x="702" 
d="M528 311l55 390h120l-56 -400q-22 -157 -104.5 -234.5t-212.5 -77.5t-199.5 86t-48.5 236l55 390h120l-55 -391q-30 -213 133 -213t193 214zM285 872h146l72 -103h-123z" />
    <glyph glyph-name="Uacute" unicode="&#xda;" horiz-adv-x="702" 
d="M528 311l55 390h120l-56 -400q-22 -157 -104.5 -234.5t-212.5 -77.5t-199.5 86t-48.5 236l55 390h120l-55 -391q-30 -213 133 -213t193 214zM437 872h151l-123 -103h-128z" />
    <glyph glyph-name="Ucircumflex" unicode="&#xdb;" horiz-adv-x="702" 
d="M528 311l55 390h120l-56 -400q-22 -157 -104.5 -234.5t-212.5 -77.5t-199.5 86t-48.5 236l55 390h120l-55 -391q-30 -213 133 -213t193 214zM373 872h136l77 -103h-109l-40 44l-52 -44h-117z" />
    <glyph glyph-name="Udieresis" unicode="&#xdc;" horiz-adv-x="702" 
d="M528 311l55 390h120l-56 -400q-22 -157 -104.5 -234.5t-212.5 -77.5t-199.5 86t-48.5 236l55 390h120l-55 -391q-30 -213 133 -213t193 214zM279 821q0 26 18.5 44.5t43.5 18.5t44 -19t19 -44t-19 -44t-44 -19t-43.5 18.5t-18.5 44.5zM470 821q0 25 19 44t44 19
t43.5 -18.5t18.5 -44.5t-18.5 -44.5t-43.5 -18.5t-44 19t-19 44z" />
    <glyph glyph-name="Yacute" unicode="&#xdd;" horiz-adv-x="635" 
d="M214 701l122 -326l212 326h133l-299 -456l-35 -245h-119l35 245l-171 456h122zM414 872h151l-123 -103h-128z" />
    <glyph glyph-name="Thorn" unicode="&#xde;" horiz-adv-x="643" 
d="M326 129h-139l-18 -129h-119l97 701h121l-16 -110h129q110 0 178.5 -59t68.5 -153q0 -114 -83 -182t-219 -68zM360 483h-124l-34 -245h124q84 0 133 35.5t49 100.5q0 53 -39 81t-109 28z" />
    <glyph glyph-name="germandbls" unicode="&#xdf;" horiz-adv-x="638" 
d="M44 0l60 430q19 132 92.5 201.5t194.5 69.5q89 0 151 -49.5t62 -129.5q0 -52 -25 -96.5t-66 -68.5q80 -49 80 -144q0 -91 -70.5 -152t-187.5 -61h-95l14 103h80q64 0 104 28t40 80q0 43 -34 66t-96 23h-66l14 102h59q59 0 96 31.5t37 79.5q0 36 -28 60.5t-77 24.5
q-142 0 -165 -168l-60 -430h-114z" />
    <glyph glyph-name="agrave" unicode="&#xe0;" horiz-adv-x="514" 
d="M-9 216q0 119 72 202.5t180 83.5q91 0 138 -70l8 58h109l-69 -490h-109l6 48q-53 -59 -142 -59q-84 0 -138.5 64t-54.5 163zM103 216q0 -59 29 -91.5t74 -32.5q70 0 111.5 50.5t41.5 124.5q0 58 -27.5 94.5t-84.5 36.5q-58 0 -101 -52t-43 -130zM196 701h140l73 -131
h-112z" />
    <glyph glyph-name="aacute" unicode="&#xe1;" horiz-adv-x="514" 
d="M-9 216q0 119 72 202.5t180 83.5q91 0 138 -70l8 58h109l-69 -490h-109l6 48q-53 -59 -142 -59q-84 0 -138.5 64t-54.5 163zM103 216q0 -59 29 -91.5t74 -32.5q70 0 111.5 50.5t41.5 124.5q0 58 -27.5 94.5t-84.5 36.5q-58 0 -101 -52t-43 -130zM332 701h140l-137 -131
h-112z" />
    <glyph glyph-name="acircumflex" unicode="&#xe2;" horiz-adv-x="514" 
d="M-9 216q0 119 72 202.5t180 83.5q91 0 138 -70l8 58h109l-69 -490h-109l6 48q-53 -59 -142 -59q-84 0 -138.5 64t-54.5 163zM103 216q0 -59 29 -91.5t74 -32.5q70 0 111.5 50.5t41.5 124.5q0 58 -27.5 94.5t-84.5 36.5q-58 0 -101 -52t-43 -130zM264 701h129l79 -131
h-108l-42 60l-58 -60h-115z" />
    <glyph glyph-name="atilde" unicode="&#xe3;" horiz-adv-x="514" 
d="M-9 216q0 119 72 202.5t180 83.5q91 0 138 -70l8 58h109l-69 -490h-109l6 48q-53 -59 -142 -59q-84 0 -138.5 64t-54.5 163zM103 216q0 -59 29 -91.5t74 -32.5q70 0 111.5 50.5t41.5 124.5q0 58 -27.5 94.5t-84.5 36.5q-58 0 -101 -52t-43 -130zM400 701h80
q-7 -49 -36.5 -81.5t-67.5 -32.5q-21 0 -40 7l-39 15q-18 8 -32 8q-22 0 -27 -24h-80q7 49 36.5 81.5t67.5 32.5q22 0 41 -7l38 -15q24 -8 32 -8q22 0 27 24z" />
    <glyph glyph-name="adieresis" unicode="&#xe4;" horiz-adv-x="514" 
d="M-9 216q0 119 72 202.5t180 83.5q91 0 138 -70l8 58h109l-69 -490h-109l6 48q-53 -59 -142 -59q-84 0 -138.5 64t-54.5 163zM103 216q0 -59 29 -91.5t74 -32.5q70 0 111.5 50.5t41.5 124.5q0 58 -27.5 94.5t-84.5 36.5q-58 0 -101 -52t-43 -130zM160 644q0 26 18.5 44.5
t43.5 18.5q26 0 44.5 -18.5t18.5 -44.5t-18.5 -44.5t-44.5 -18.5q-25 0 -43.5 18.5t-18.5 44.5zM351 644q0 26 18.5 44.5t44.5 18.5q25 0 43.5 -18.5t18.5 -44.5t-18.5 -44.5t-43.5 -18.5q-26 0 -44.5 18.5t-18.5 44.5z" />
    <glyph glyph-name="aring" unicode="&#xe5;" horiz-adv-x="514" 
d="M-9 216q0 119 72 202.5t180 83.5q91 0 138 -70l8 58h109l-69 -490h-109l6 48q-53 -59 -142 -59q-84 0 -138.5 64t-54.5 163zM103 216q0 -59 29 -91.5t74 -32.5q70 0 111.5 50.5t41.5 124.5q0 58 -27.5 94.5t-84.5 36.5q-58 0 -101 -52t-43 -130zM328 712q31 0 51 -21
t20 -52q0 -36 -27.5 -61t-65.5 -25q-31 0 -51 21.5t-20 51.5q0 38 27 62t66 24zM314 609q11 0 18.5 7t7.5 18q0 8 -5.5 14t-14.5 6q-11 0 -18.5 -7t-7.5 -17q0 -21 20 -21z" />
    <glyph glyph-name="ae" unicode="&#xe6;" horiz-adv-x="858" 
d="M812 210h-335q-4 -55 26 -86.5t85 -31.5q80 0 138 68l68 -74q-90 -97 -216 -97q-114 0 -171 72q-29 -22 -50 -34.5t-60.5 -25t-83.5 -12.5q-71 0 -119.5 39.5t-48.5 100.5q0 87 64 130t165 43h99l2 16q4 37 -20 59t-65 22q-77 0 -126 -71l-66 72q39 50 94.5 76t114.5 26
q99 0 151 -70q73 70 166 70q98 0 147 -61.5t49 -150.5q0 -18 -2 -38t-4 -31zM161 141q0 -23 18.5 -37.5t54.5 -14.5q33 0 71 14.5t65 37.5q-7 27 -4 69h-107q-44 0 -71 -18.5t-27 -50.5zM615 398q-44 0 -75.5 -28.5t-44.5 -67.5h210q4 38 -16.5 67t-73.5 29z" />
    <glyph glyph-name="ccedilla" unicode="&#xe7;" horiz-adv-x="539" 
d="M254 -137h-120l86 131h8q-75 16 -122 76.5t-47 148.5q0 120 81 201.5t194 81.5q134 0 195 -98l-88 -74q-24 34 -48.5 51t-60.5 17q-64 0 -110 -51t-46 -125q0 -57 31.5 -93.5t82.5 -36.5q43 0 75 18.5t64 55.5l71 -76q-68 -82 -172 -97z" />
    <glyph glyph-name="egrave" unicode="&#xe8;" horiz-adv-x="556" 
d="M509 211h-335q-2 -54 27 -86.5t80 -32.5q84 0 141 69l69 -75q-90 -97 -219 -97q-97 0 -155.5 64t-58.5 162q0 119 76 203t193 84q95 0 143.5 -64t48.5 -148q0 -18 -2.5 -37.5t-4.5 -30.5zM318 398q-47 0 -79.5 -28t-45.5 -68h209q4 37 -16 66.5t-68 29.5zM213 701h140
l73 -131h-112z" />
    <glyph glyph-name="eacute" unicode="&#xe9;" horiz-adv-x="556" 
d="M174 211h335q10 39 10 79q0 84 -48.5 148t-143.5 64q-117 0 -193 -84t-76 -203q0 -98 58.5 -162t155.5 -64q129 0 219 97l-69 75q-57 -69 -141 -69q-51 0 -80 32.5t-27 86.5zM318 398q48 0 68 -29.5t16 -66.5h-209q13 40 45.5 68t79.5 28zM362 701h140l-137 -131h-112z
" />
    <glyph glyph-name="ecircumflex" unicode="&#xea;" horiz-adv-x="556" 
d="M174 211h335q10 39 10 79q0 84 -48.5 148t-143.5 64q-117 0 -193 -84t-76 -203q0 -98 58.5 -162t155.5 -64q129 0 219 97l-69 75q-57 -69 -141 -69q-51 0 -80 32.5t-27 86.5zM318 398q48 0 68 -29.5t16 -66.5h-209q13 40 45.5 68t79.5 28zM294 701h129l79 -131h-108
l-42 60l-58 -60h-115z" />
    <glyph glyph-name="edieresis" unicode="&#xeb;" horiz-adv-x="556" 
d="M174 211h335q10 39 10 79q0 84 -48.5 148t-143.5 64q-117 0 -193 -84t-76 -203q0 -98 58.5 -162t155.5 -64q129 0 219 97l-69 75q-57 -69 -141 -69q-51 0 -80 32.5t-27 86.5zM318 398q48 0 68 -29.5t16 -66.5h-209q13 40 45.5 68t79.5 28zM186 644q0 26 18.5 44.5
t43.5 18.5q26 0 44.5 -18.5t18.5 -44.5t-18.5 -44.5t-44.5 -18.5q-25 0 -43.5 18.5t-18.5 44.5zM377 644q0 26 18.5 44.5t44.5 18.5q25 0 43.5 -18.5t18.5 -44.5t-18.5 -44.5t-43.5 -18.5q-26 0 -44.5 18.5t-18.5 44.5z" />
    <glyph glyph-name="igrave" unicode="&#xec;" horiz-adv-x="287" 
d="M58 0l69 490h114l-69 -490h-114zM53 701h140l73 -131h-112z" />
    <glyph glyph-name="iacute" unicode="&#xed;" horiz-adv-x="285" 
d="M58 0l69 490h114l-69 -490h-114zM233 701h140l-137 -131h-112z" />
    <glyph glyph-name="icircumflex" unicode="&#xee;" horiz-adv-x="287" 
d="M58 0l69 490h114l-69 -490h-114zM149 701h129l79 -131h-108l-42 60l-58 -60h-115z" />
    <glyph glyph-name="idieresis" unicode="&#xef;" horiz-adv-x="287" 
d="M58 0l69 490h114l-69 -490h-114zM47 644q0 26 18.5 44.5t43.5 18.5t44 -18.5t19 -44.5t-19 -44.5t-44 -18.5t-43.5 18.5t-18.5 44.5zM238 644q0 26 19 44.5t44 18.5t43.5 -18.5t18.5 -44.5t-18.5 -44.5t-43.5 -18.5t-44 18.5t-19 44.5z" />
    <glyph glyph-name="eth" unicode="&#xf0;" horiz-adv-x="593" 
d="M284 -11q-94 0 -156 56.5t-62 150.5q0 114 78 186t184 72q31 0 42 -4l-50 87l-114 -58l13 91l64 33l-55 98h132l26 -46l111 57l-13 -91l-63 -32l81 -144q57 -101 57 -188q0 -112 -79 -190t-196 -78zM436 237q0 48 -30.5 78t-76.5 30q-56 0 -99 -39.5t-43 -100.5
q0 -48 30.5 -78t76.5 -30q56 0 99 39.5t43 100.5z" />
    <glyph glyph-name="ntilde" unicode="&#xf1;" horiz-adv-x="570" 
d="M164 0l38 271q8 59 41 93.5t85 34.5q38 0 60.5 -24t22.5 -64q0 -8 -2 -26l-40 -285h114q38 272 38 273q4 32 4 50q0 82 -46 130.5t-124 48.5q-76 0 -130 -52l6 40h-112l-69 -490h114zM436 701h80q-7 -49 -36.5 -81.5t-67.5 -32.5q-21 0 -40 7l-39 15q-18 8 -32 8
q-22 0 -27 -24h-80q7 49 36.5 81.5t67.5 32.5q22 0 41 -7l38 -15q24 -8 32 -8q22 0 27 24z" />
    <glyph glyph-name="ograve" unicode="&#xf2;" horiz-adv-x="597" 
d="M47 223q0 121 83 200t204 79q97 0 160.5 -64t63.5 -167q0 -121 -83 -201.5t-204 -80.5q-97 0 -160.5 65t-63.5 169zM163 223q0 -58 32.5 -94.5t86.5 -36.5q66 0 112 50.5t46 124.5q0 58 -32 94.5t-85 36.5q-67 0 -113.5 -50.5t-46.5 -124.5zM213 701h140l73 -131h-112z
" />
    <glyph glyph-name="oacute" unicode="&#xf3;" horiz-adv-x="597" 
d="M47 223q0 121 83 200t204 79q97 0 160.5 -64t63.5 -167q0 -121 -83 -201.5t-204 -80.5q-97 0 -160.5 65t-63.5 169zM163 223q0 -58 32.5 -94.5t86.5 -36.5q66 0 112 50.5t46 124.5q0 58 -32 94.5t-85 36.5q-67 0 -113.5 -50.5t-46.5 -124.5zM366 701h140l-137 -131h-112z
" />
    <glyph glyph-name="ocircumflex" unicode="&#xf4;" horiz-adv-x="597" 
d="M47 223q0 121 83 200t204 79q97 0 160.5 -64t63.5 -167q0 -121 -83 -201.5t-204 -80.5q-97 0 -160.5 65t-63.5 169zM163 223q0 -58 32.5 -94.5t86.5 -36.5q66 0 112 50.5t46 124.5q0 58 -32 94.5t-85 36.5q-67 0 -113.5 -50.5t-46.5 -124.5zM303 701h129l79 -131h-108
l-42 60l-58 -60h-115z" />
    <glyph glyph-name="otilde" unicode="&#xf5;" horiz-adv-x="597" 
d="M47 223q0 121 83 200t204 79q97 0 160.5 -64t63.5 -167q0 -121 -83 -201.5t-204 -80.5q-97 0 -160.5 65t-63.5 169zM163 223q0 -58 32.5 -94.5t86.5 -36.5q66 0 112 50.5t46 124.5q0 58 -32 94.5t-85 36.5q-67 0 -113.5 -50.5t-46.5 -124.5zM436 701h80
q-7 -49 -36.5 -81.5t-67.5 -32.5q-21 0 -40 7l-39 15q-18 8 -32 8q-22 0 -27 -24h-80q7 49 36.5 81.5t67.5 32.5q22 0 41 -7l38 -15q24 -8 32 -8q22 0 27 24z" />
    <glyph glyph-name="odieresis" unicode="&#xf6;" horiz-adv-x="597" 
d="M47 223q0 121 83 200t204 79q97 0 160.5 -64t63.5 -167q0 -121 -83 -201.5t-204 -80.5q-97 0 -160.5 65t-63.5 169zM163 223q0 -58 32.5 -94.5t86.5 -36.5q66 0 112 50.5t46 124.5q0 58 -32 94.5t-85 36.5q-67 0 -113.5 -50.5t-46.5 -124.5zM201 644q0 26 18.5 44.5
t43.5 18.5t44 -18.5t19 -44.5t-19 -44.5t-44 -18.5t-43.5 18.5t-18.5 44.5zM392 644q0 26 19 44.5t44 18.5t43.5 -18.5t18.5 -44.5t-18.5 -44.5t-43.5 -18.5t-44 18.5t-19 44.5z" />
    <glyph glyph-name="divide" unicode="&#xf7;" horiz-adv-x="650" 
d="M79 192l15 105h490l-15 -105h-490zM234 60q0 30 21 51t51 21t51 -21t21 -51q0 -29 -21 -50t-51 -21t-51 21t-21 50zM286 429q0 30 21 51t51 21t51 -21t21 -51q0 -29 -21 -50t-51 -21t-51 21t-21 50z" />
    <glyph glyph-name="oslash" unicode="&#xf8;" horiz-adv-x="608" 
d="M59 223q0 121 83 200t204 79q53 0 100 -22l37 44l76 -62l-36 -43q47 -60 47 -148q0 -121 -83 -201.5t-204 -80.5q-54 0 -103 23l-39 -46l-75 62l39 46q-46 62 -46 149zM452 267q0 32 -10 56l-190 -225q20 -6 42 -6q66 0 112 50.5t46 124.5zM175 223q0 -29 9 -55l188 224
q-17 6 -37 6q-67 0 -113.5 -50.5t-46.5 -124.5z" />
    <glyph glyph-name="ugrave" unicode="&#xf9;" horiz-adv-x="559" 
d="M220 490l-41 -293q-1 -8 -1 -24q0 -39 20.5 -60.5t58.5 -21.5q48 0 79.5 34t39.5 89l39 276h114l-69 -490h-112l5 40q-51 -51 -126 -51t-119 48.5t-44 129.5q0 15 4 49l39 274h113zM192 701h140l73 -131h-112z" />
    <glyph glyph-name="uacute" unicode="&#xfa;" horiz-adv-x="559" 
d="M220 490l-41 -293q-1 -8 -1 -24q0 -39 20.5 -60.5t58.5 -21.5q48 0 79.5 34t39.5 89l39 276h114l-69 -490h-112l5 40q-51 -51 -126 -51t-119 48.5t-44 129.5q0 15 4 49l39 274h113zM363 701h140l-137 -131h-112z" />
    <glyph glyph-name="ucircumflex" unicode="&#xfb;" horiz-adv-x="559" 
d="M220 490l-41 -293q-1 -8 -1 -24q0 -39 20.5 -60.5t58.5 -21.5q48 0 79.5 34t39.5 89l39 276h114l-69 -490h-112l5 40q-51 -51 -126 -51t-119 48.5t-44 129.5q0 15 4 49l39 274h113zM288 701h129l79 -131h-108l-42 60l-58 -60h-115z" />
    <glyph glyph-name="udieresis" unicode="&#xfc;" horiz-adv-x="559" 
d="M220 490l-41 -293q-1 -8 -1 -24q0 -39 20.5 -60.5t58.5 -21.5q48 0 79.5 34t39.5 89l39 276h114l-69 -490h-112l5 40q-51 -51 -126 -51t-119 48.5t-44 129.5q0 15 4 49l39 274h113zM179 644q0 26 18.5 44.5t43.5 18.5t44 -18.5t19 -44.5t-19 -44.5t-44 -18.5t-43.5 18.5
t-18.5 44.5zM370 644q0 26 19 44.5t44 18.5t43.5 -18.5t18.5 -44.5t-18.5 -44.5t-43.5 -18.5t-44 18.5t-19 44.5z" />
    <glyph glyph-name="yacute" unicode="&#xfd;" horiz-adv-x="557" 
d="M89 -194h120l370 684h-129l-180 -354l-78 354h-125l124 -496zM371 701h140l-137 -131h-112z" />
    <glyph glyph-name="thorn" unicode="&#xfe;" horiz-adv-x="614" 
d="M572 271q0 -123 -78 -202.5t-195 -79.5q-42 0 -78 17t-56 42l-34 -242h-114l126 895h112l-34 -249q55 50 140 50q93 0 152 -67t59 -164zM188 219q0 -56 28.5 -93t83.5 -37q70 0 112.5 54t42.5 126q0 56 -29 93t-83 37q-71 0 -113 -53.5t-42 -126.5z" />
    <glyph glyph-name="ydieresis" unicode="&#xff;" horiz-adv-x="546" 
d="M78 -194h120l370 684h-129l-180 -354l-78 354h-125l124 -496zM176 644q0 26 18.5 44.5t43.5 18.5q26 0 44.5 -18.5t18.5 -44.5t-18.5 -44.5t-44.5 -18.5q-25 0 -43.5 18.5t-18.5 44.5zM367 644q0 26 18.5 44.5t44.5 18.5q25 0 43.5 -18.5t18.5 -44.5t-18.5 -44.5
t-43.5 -18.5q-26 0 -44.5 18.5t-18.5 44.5z" />
    <glyph glyph-name="dotlessi" unicode="&#x131;" horiz-adv-x="287" 
d="M58 0l69 490h114l-69 -490h-114z" />
    <glyph glyph-name="Lslash" unicode="&#x141;" horiz-adv-x="616" 
d="M54 274v103l97 27l42 297h119l-37 -261l88 25v-103l-103 -30l-32 -224h332l-15 -108h-451l42 297z" />
    <glyph glyph-name="lslash" unicode="&#x142;" horiz-adv-x="360" 
d="M55 275l-16 93l109 31l43 302h114l-38 -268l83 24l14 -93l-111 -32l-47 -332h-114l42 298z" />
    <glyph glyph-name="OE" unicode="&#x152;" horiz-adv-x="960" 
d="M468 701h491l-15 -108h-316l-25 -181h299l-16 -109h-299l-27 -195h316l-15 -108h-491q-135 0 -219.5 87.5t-84.5 222.5q0 169 117 280t285 111zM457 591q-115 0 -191.5 -78t-76.5 -198q0 -93 54 -149.5t146 -56.5h51l68 482h-51z" />
    <glyph glyph-name="oe" unicode="&#x153;" horiz-adv-x="945" 
d="M898 211h-335q-3 -55 27 -87t85 -32q78 0 137 69l66 -72q-93 -100 -217 -100q-125 0 -179 91q-82 -91 -204 -91q-95 0 -157 67t-62 165q0 120 83.5 200.5t200.5 80.5q58 0 107.5 -24t76.5 -68q79 92 189 92q97 0 144.5 -61t47.5 -151q0 -18 -2.5 -37.5t-5.5 -30.5z
M176 223q0 -58 32 -94.5t84 -36.5q64 0 112.5 49.5t48.5 124.5q0 59 -32 95.5t-86 36.5q-65 0 -112 -50.5t-47 -124.5zM702 398q-45 0 -76 -28.5t-44 -67.5h210q4 38 -17 67t-73 29z" />
    <glyph glyph-name="Scaron" unicode="&#x160;" horiz-adv-x="661" 
d="M380 290l-74 12q-90 15 -141.5 64.5t-51.5 129.5q0 101 77.5 158.5t191.5 57.5q161 0 252 -112l-89 -83q-61 87 -179 87q-62 0 -96.5 -28.5t-34.5 -66.5q0 -71 103 -89l59 -10q101 -17 153.5 -68.5t52.5 -131.5q0 -101 -76.5 -161t-212.5 -60q-176 0 -272 132l90 79
q77 -103 197 -103q72 0 112 28.5t40 75.5q0 71 -101 89zM475 769h-136l-77 103h109l40 -44l52 44h117z" />
    <glyph glyph-name="scaron" unicode="&#x161;" horiz-adv-x="473" 
d="M264 185l-73 20q-119 33 -119 142q0 69 55 112t137 43q117 0 183 -82l-80 -75q-47 59 -114 59q-30 0 -50 -14t-20 -34q0 -32 43 -44l84 -23q58 -16 89 -53t31 -91q0 -71 -56 -113.5t-153 -42.5q-127 0 -198 95l79 71q51 -68 133 -68q83 0 83 51q0 31 -54 47zM359 570
h-140l-79 131h106l47 -65l65 65h116z" />
    <glyph glyph-name="Ydieresis" unicode="&#x178;" horiz-adv-x="635" 
d="M214 701l122 -326l212 326h133l-299 -456l-35 -245h-119l35 245l-171 456h122zM251 821q0 26 18.5 44.5t43.5 18.5t44 -19t19 -44t-19 -44t-44 -19t-43.5 18.5t-18.5 44.5zM442 821q0 25 19 44t44 19t43.5 -18.5t18.5 -44.5t-18.5 -44.5t-43.5 -18.5t-44 19t-19 44z" />
    <glyph glyph-name="Zcaron" unicode="&#x17d;" horiz-adv-x="644" 
d="M134 701h516l-15 -103l-428 -490h357l-15 -108h-516l14 103l428 490h-357zM475 769h-136l-77 103h109l40 -44l52 44h117z" />
    <glyph glyph-name="zcaron" unicode="&#x17e;" horiz-adv-x="504" 
d="M107 490h373l-14 -97l-270 -290h241l-14 -103h-390l14 97l268 291h-222zM369 570h-140l-79 131h106l47 -65l65 65h116z" />
    <glyph glyph-name="florin" unicode="&#x192;" horiz-adv-x="393" 
d="M267 388l-56 -397q-13 -92 -70 -139t-154 -47l-55 1l14 103q26 -1 37 -1q53 0 81.5 23.5t35.5 76.5l53 380h-82l14 102h83l4 25q28 186 223 186l56 -1l-15 -103q-26 1 -38 1q-53 0 -81 -23.5t-35 -76.5l-1 -8h128l-14 -102h-128z" />
    <glyph glyph-name="circumflex" unicode="&#x2c6;" horiz-adv-x="556" 
d="M288 701h129l79 -131h-108l-42 60l-58 -60h-115z" />
    <glyph glyph-name="caron" unicode="&#x2c7;" horiz-adv-x="473" 
d="M359 570h-140l-79 131h106l47 -65l65 65h116z" />
    <glyph glyph-name="breve" unicode="&#x2d8;" horiz-adv-x="556" 
d="M342 559q-63 0 -98.5 38.5t-30.5 103.5h89q-1 -24 12 -37.5t35 -13.5q50 0 64 51h89q-13 -65 -55.5 -103.5t-104.5 -38.5z" />
    <glyph glyph-name="dotaccent" unicode="&#x2d9;" horiz-adv-x="280" 
d="M134 636q0 30 21 50.5t51 20.5t51 -20.5t21 -50.5t-21 -51t-51 -21t-51 21t-21 51z" />
    <glyph glyph-name="ring" unicode="&#x2da;" horiz-adv-x="520" 
d="M328 712q31 0 51 -21t20 -52q0 -36 -27.5 -61t-65.5 -25q-31 0 -51 21.5t-20 51.5q0 38 27 62t66 24zM314 609q11 0 18.5 7t7.5 18q0 8 -5.5 14t-14.5 6q-11 0 -18.5 -7t-7.5 -17q0 -21 20 -21z" />
    <glyph glyph-name="ogonek" unicode="&#x2db;" horiz-adv-x="556" 
d="M279 701h140l-137 -131h-112zM470 701h140l-137 -131h-112z" />
    <glyph glyph-name="tilde" unicode="&#x2dc;" horiz-adv-x="576" 
d="M436 701h80q-7 -49 -36.5 -81.5t-67.5 -32.5q-21 0 -40 7l-39 15q-18 8 -32 8q-22 0 -27 -24h-80q7 49 36.5 81.5t67.5 32.5q22 0 41 -7l38 -15q24 -8 32 -8q22 0 27 24z" />
    <glyph glyph-name="hungarumlaut" unicode="&#x2dd;" horiz-adv-x="556" 
d="M256 -137h-122l86 131h111z" />
    <glyph glyph-name="Delta" unicode="&#x394;" horiz-adv-x="700" 
d="M364 701h110l142 -602l-14 -99h-564l14 99zM403 561l-232 -456h336z" />
    <glyph glyph-name="Delta" unicode="&#x2206;" horiz-adv-x="700" 
d="M364 701h110l142 -602l-14 -99h-564l14 99zM403 561l-232 -456h336z" />
    <glyph glyph-name="Omega" unicode="&#x3a9;" horiz-adv-x="784" 
d="M659 103l-14 -103h-237l31 218q87 14 137 75.5t50 140.5q0 76 -51 125t-130 49q-96 0 -163.5 -65t-67.5 -160q0 -62 35 -108t100 -57l-31 -218h-237l14 103h125l8 48q-57 30 -93.5 89t-36.5 139q0 149 107.5 241t251.5 92q121 0 202.5 -78t81.5 -199q0 -106 -58 -178.5
t-143 -108.5l-7 -45h126z" />
    <glyph glyph-name="Omega" unicode="&#x2126;" horiz-adv-x="784" 
d="M659 103l-14 -103h-237l31 218q87 14 137 75.5t50 140.5q0 76 -51 125t-130 49q-96 0 -163.5 -65t-67.5 -160q0 -62 35 -108t100 -57l-31 -218h-237l14 103h125l8 48q-57 30 -93.5 89t-36.5 139q0 149 107.5 241t251.5 92q121 0 202.5 -78t81.5 -199q0 -106 -58 -178.5
t-143 -108.5l-7 -45h126z" />
    <glyph glyph-name="pi" unicode="&#x3c0;" horiz-adv-x="653" 
d="M382 0l55 388h-170l-55 -388h-111l55 388h-80l14 102h551l-14 -102h-80l-55 -388h-110z" />
    <glyph glyph-name="endash" unicode="&#x2013;" horiz-adv-x="587" 
d="M80 210l15 105h433l-15 -105h-433z" />
    <glyph glyph-name="emdash" unicode="&#x2014;" horiz-adv-x="878" 
d="M80 210l15 105h724l-15 -105h-724z" />
    <glyph glyph-name="quoteleft" unicode="&#x2018;" horiz-adv-x="282" 
d="M215 701h105l-125 -229h-120z" />
    <glyph glyph-name="quoteright" unicode="&#x2019;" horiz-adv-x="282" 
d="M164 472h-105l125 229h120z" />
    <glyph glyph-name="quotesinglbase" unicode="&#x201a;" horiz-adv-x="259" 
d="M83 -115h-114l125 229h129z" />
    <glyph glyph-name="quotedblleft" unicode="&#x201c;" horiz-adv-x="458" 
d="M396 701h105l-125 -229h-120zM220 701h105l-126 -229h-120z" />
    <glyph glyph-name="quotedblright" unicode="&#x201d;" horiz-adv-x="458" 
d="M164 472h-105l125 229h120zM340 472h-105l126 229h120z" />
    <glyph glyph-name="quotedblbase" unicode="&#x201e;" horiz-adv-x="434" 
d="M83 -115h-114l125 229h129zM259 -115h-114l125 229h129z" />
    <glyph glyph-name="dagger" unicode="&#x2020;" horiz-adv-x="571" 
d="M85 490h181l30 211h112l-30 -211h187l-15 -107h-187l-81 -577h-112l81 577h-181z" />
    <glyph glyph-name="daggerdbl" unicode="&#x2021;" horiz-adv-x="571" 
d="M223 186l28 197h-181l15 107h181l29 211h112l-29 -211h187l-15 -107h-187l-28 -197h187l-15 -107h-187l-38 -273h-112l38 273h-181l15 107h181z" />
    <glyph glyph-name="bullet" unicode="&#x2022;" horiz-adv-x="404" 
d="M73 262q0 56 39.5 95t94.5 39t94 -39t39 -95t-39 -94.5t-94 -38.5q-56 0 -95 39t-39 94z" />
    <glyph glyph-name="ellipsis" unicode="&#x2026;" horiz-adv-x="769" 
d="M59 60q0 30 21 51t51 21t51 -21t21 -51q0 -29 -21 -50t-51 -21t-51 21t-21 50zM316 60q0 30 21 51t51 21t51 -21t21 -51q0 -29 -21 -50t-51 -21t-51 21t-21 50zM572 60q0 30 21 51t51 21t51 -21t21 -51q0 -29 -21 -50t-51 -21t-51 21t-21 50z" />
    <glyph glyph-name="perthousand" unicode="&#x2030;" horiz-adv-x="1060" 
d="M711 112q0 64 46 110t110 46q56 0 90.5 -35t34.5 -88q0 -64 -45.5 -110t-109.5 -46q-56 0 -91 35t-35 88zM802 122q0 -20 12.5 -32t30.5 -12q23 0 39 16t16 41q0 20 -12 32t-29 12q-24 0 -40.5 -15.5t-16.5 -41.5zM106 556q0 64 46 110t110 46q56 0 91 -35t35 -88
q0 -64 -45.5 -110t-109.5 -46q-56 0 -91.5 35t-35.5 88zM198 566q0 -20 12 -32t30 -12q22 0 38.5 16t16.5 41q0 21 -11 33t-29 12q-23 0 -40 -16.5t-17 -41.5zM386 112q0 64 46 110t110 46q56 0 90.5 -35t34.5 -88q0 -64 -45.5 -110t-109.5 -46q-56 0 -91 35t-35 88z
M477 122q0 -20 12.5 -32t30.5 -12q23 0 39 16t16 41q0 20 -12 32t-29 12q-24 0 -40.5 -15.5t-16.5 -41.5zM90 34l521 690l74 -55l-522 -692z" />
    <glyph glyph-name="guilsinglleft" unicode="&#x2039;" horiz-adv-x="365" 
d="M38 245l171 245h125l-177 -250l102 -240h-118z" />
    <glyph glyph-name="guilsinglright" unicode="&#x203a;" horiz-adv-x="365" 
d="M327 245l-171 -245h-125l177 250l-102 240h118z" />
    <glyph glyph-name="fraction" unicode="&#x2044;" horiz-adv-x="622" 
d="M-11 0l523 701h125l-524 -701h-124z" />
    <glyph glyph-name="Euro" unicode="&#x20ac;" horiz-adv-x="716" 
d="M87 382l14 99h83q44 107 127 169t191 62q122 0 200 -111l-85 -77q-46 80 -132 80q-53 0 -100 -31t-77 -92h214l-14 -99h-234q-9 -36 -10 -69h234l-14 -99h-214q29 -117 145 -117q85 0 163 76l66 -86q-108 -98 -245 -98q-107 0 -171 61t-81 164h-84l14 99h68q1 29 10 69
h-68z" />
    <glyph glyph-name="trademark" unicode="&#x2122;" horiz-adv-x="870" 
d="M91 701h301l-11 -79h-109l-44 -314h-86l44 314h-106zM568 377l-52 151l-31 -220h-86l55 393h89l78 -234l146 234h91l-55 -393h-85l31 220l-93 -151h-88z" />
    <glyph glyph-name="arrownorthwest" unicode="&#x2196;" horiz-adv-x="669" 
d="M549 413h-253l306 -355l-92 -81l-305 356l-36 -253h-108l62 441h441z" />
    <glyph glyph-name="arrownortheast" unicode="&#x2197;" horiz-adv-x="669" 
d="M441 413h-256l15 108h441l-64 -441h-108l38 251l-374 -342l-71 82z" />
    <glyph glyph-name="arrowsoutheast" unicode="&#x2198;" horiz-adv-x="669" 
d="M227 108h253l-306 355l92 81l305 -356l36 253h108l-62 -441h-441z" />
    <glyph glyph-name="arrowsouthwest" unicode="&#x2199;" horiz-adv-x="669" 
d="M272 97h256l-15 -108h-441l64 441h108l-38 -251l374 342l71 -82z" />
    <glyph glyph-name="partialdiff" unicode="&#x2202;" horiz-adv-x="587" 
d="M248 -11q-80 0 -136.5 56.5t-56.5 149.5q0 115 80 187t178 72q86 0 131 -61q8 98 -30.5 154.5t-104.5 56.5q-65 0 -117 -54l-64 78q86 84 195 84q104 0 167.5 -83t63.5 -212q0 -200 -83 -314t-223 -114zM309 348q-56 0 -99 -40.5t-43 -106.5q0 -50 28.5 -78t69.5 -28
q60 0 100.5 42t40.5 108q0 47 -28.5 75t-68.5 28z" />
    <glyph glyph-name="product" unicode="&#x220f;" horiz-adv-x="652" 
d="M405 -194l82 582h-272l-82 -582h-110l96 684h492l-96 -684h-110z" />
    <glyph glyph-name="summation" unicode="&#x2211;" horiz-adv-x="530" 
d="M228 595l153 -352l-239 -331h289l-15 -106h-422l14 101l248 347l-150 347l14 100h422l-15 -106h-299z" />
    <glyph glyph-name="minus" unicode="&#x2212;" horiz-adv-x="650" 
d="M79 207l15 105h490l-15 -105h-490z" />
    <glyph glyph-name="radical" unicode="&#x221a;" horiz-adv-x="727" 
d="M85 490h180l79 -344l282 555h125l-361 -701h-122l-93 388h-104z" />
    <glyph glyph-name="infinity" unicode="&#x221e;" horiz-adv-x="1156" 
d="M592 339l6 7q31 36 51 56.5t54.5 47t73.5 39.5t85 13q105 0 169 -69t64 -167q0 -119 -84 -198t-206 -79q-46 0 -83.5 13.5t-65 38t-45.5 48t-35 54.5l-4 7l-9 -10q-34 -37 -51.5 -54t-53 -45t-74.5 -40t-85 -12q-99 0 -164 67.5t-65 163.5q0 116 83.5 199t202.5 83
q49 0 87 -13t67 -41.5t42 -46.5t36 -55zM652 239l27 -46q28 -48 59.5 -74t75.5 -26q68 0 117.5 50t49.5 122q0 57 -35 94.5t-89 37.5q-43 0 -77.5 -26t-81.5 -80zM351 397q-68 0 -117.5 -50t-49.5 -122q0 -57 35 -94.5t89 -37.5q43 0 79.5 27t82.5 79l45 51l-28 47
q-29 49 -60.5 74.5t-75.5 25.5z" />
    <glyph glyph-name="integral" unicode="&#x222b;" horiz-adv-x="348" 
d="M88 8l70 492q14 100 71.5 150.5t169.5 50.5h29l-15 -103h-26q-53 0 -81.5 -23.5t-35.5 -76.5l-69 -491q-14 -100 -72 -150.5t-170 -50.5h-29l15 103h26q54 0 82 23t35 76z" />
    <glyph glyph-name="approxequal" unicode="&#x2248;" horiz-adv-x="663" 
d="M288 433l142 -35q26 -7 46 -7q40 0 46 43h97q-5 -64 -43.5 -106t-103.5 -42q-28 0 -55 7l-141 35q-26 7 -47 7q-40 0 -46 -43h-97q5 64 44 106t104 42q23 0 54 -7zM264 234l137 -34q26 -7 47 -7q40 0 46 43h97q-4 -64 -43 -106t-104 -42q-26 0 -55 7l-141 35q-26 7 -47 7
q-40 0 -46 -44h-97q6 65 44.5 107t103.5 42q27 0 58 -8z" />
    <glyph glyph-name="notequal" unicode="&#x2260;" horiz-adv-x="650" 
d="M94 297l14 105h274l65 88h123l-65 -88h93l-14 -105h-156l-67 -91h210l-15 -105h-272l-74 -101h-124l74 101h-94l15 105h157l67 91h-211z" />
    <glyph glyph-name="lessequal" unicode="&#x2264;" horiz-adv-x="605" 
d="M40 173l20 137l517 192l-17 -116l-323 -108h308l-15 -105h-490zM16 0l15 105h490l-15 -105h-490z" />
    <glyph glyph-name="greaterequal" unicode="&#x2265;" horiz-adv-x="605" 
d="M40 173l16 105h321l-304 117l16 107l461 -192l-20 -137h-490zM16 0l15 105h490l-15 -105h-490z" />
    <glyph glyph-name="lozenge" unicode="&#x25ca;" horiz-adv-x="673" 
d="M356 701h98l155 -454l-283 -452h-98l-155 452zM188 242l104 -313l201 323l-104 315z" />
    <glyph glyph-name="fi" unicode="&#xfb01;" horiz-adv-x="661" 
d="M433 0l55 388h-233l-55 -388h-113l55 388h-83l14 102h83l4 25q28 186 224 186l45 -1l-15 -103q-19 1 -26 1q-54 0 -82.5 -23.5t-35.5 -76.5l-1 -8h347l-69 -490h-114zM510 639q0 30 21 50.5t51 20.5t51 -20.5t21 -50.5t-21 -51t-51 -21t-51 21t-21 51z" />
    <glyph glyph-name="fl" unicode="&#xfb02;" horiz-adv-x="665" 
d="M384 701h270l-99 -701h-114l85 598h-138q-54 0 -82.5 -23.5t-35.5 -76.5l-1 -8h129l-14 -102h-129l-55 -388h-113l55 388h-83l14 102h83l4 25q28 186 224 186z" />
    <glyph glyph-name="acutecap" horiz-adv-x="642" 
d="M420 872h151l-123 -103h-128z" />
    <glyph glyph-name="caroncap" horiz-adv-x="642" 
d="M475 769h-136l-77 103h109l40 -44l52 44h117z" />
    <glyph glyph-name="ringcap" 
d="M321 772q0 47 33 79t77 32q41 0 68.5 -25t27.5 -67q0 -46 -34 -79t-82 -33q-40 0 -65 26t-25 67zM383 777q0 -15 9.5 -25t24.5 -10q18 0 32 12t14 32q0 16 -9.5 25.5t-24.5 9.5q-18 0 -32 -12.5t-14 -31.5z" />
    <glyph glyph-name="gravecap" horiz-adv-x="642" 
d="M275 872h146l72 -103h-123z" />
    <glyph glyph-name="circumflexcap" horiz-adv-x="642" 
d="M354 872h136l77 -103h-109l-40 44l-52 -44h-117z" />
    <glyph glyph-name="zero.onum" horiz-adv-x="718" 
d="M328 -11q-108 0 -181 72t-73 189q0 90 49 162t125 109.5t160 37.5q108 0 181 -69.5t73 -183.5q0 -132 -98 -224.5t-236 -92.5zM393 450q-84 0 -141 -56.5t-57 -143.5q0 -68 41.5 -110.5t106.5 -42.5q86 0 142 60t56 146q0 66 -41 106.5t-107 40.5z" />
    <glyph glyph-name="one.onum" horiz-adv-x="544" 
d="M48 108h162l41 289q-71 -50 -169 -50l14 104q130 5 187 96h108l-62 -439h154l-15 -108h-435z" />
    <glyph glyph-name="two.onum" horiz-adv-x="583" 
d="M193 108h314l-15 -108h-454l3 23q15 108 77 174.5t179 107.5l37 13q54 19 75 36t21 43q0 24 -21 38.5t-63 14.5q-108 0 -177 -103l-71 81q45 62 113.5 96.5t144.5 34.5q86 0 141.5 -39.5t55.5 -110.5q0 -131 -176 -190l-60 -21q-57 -19 -84 -37.5t-40 -52.5z" />
    <glyph glyph-name="three.onum" horiz-adv-x="598" 
d="M431 220q34 -20 56.5 -60t22.5 -86q0 -103 -77 -162.5t-195 -59.5q-70 0 -131.5 31.5t-95.5 81.5l89 78q55 -83 154 -83q57 0 96 30.5t39 75.5q0 90 -130 90h-53l15 110h41q76 0 114.5 28.5t38.5 79.5q0 37 -27.5 56.5t-69.5 19.5q-83 0 -156 -76l-71 82q106 103 241 103
q86 0 145.5 -47.5t59.5 -130.5q0 -104 -106 -161z" />
    <glyph glyph-name="four.onum" horiz-adv-x="651" 
d="M564 0h-97l-19 -137h-120l19 137h-320l14 97l392 450h111l-62 -439h97zM180 108h182l37 256z" />
    <glyph glyph-name="five.onum" horiz-adv-x="627" 
d="M434 105q0 48 -33 77.5t-84 29.5q-41 0 -77 -21t-56 -58h-108l75 414h410l-15 -108h-301l-31 -161q56 42 126 42q87 0 151 -55.5t64 -154.5q0 -112 -83.5 -185t-208.5 -73q-141 0 -223 113l90 77q58 -82 147 -82q67 0 112 40.5t45 104.5z" />
    <glyph glyph-name="six.onum" horiz-adv-x="661" 
d="M324 -11q-109 0 -173.5 75.5t-64.5 206.5q0 191 94 307.5t247 116.5q127 0 191 -90l-84 -76q-44 58 -124 58q-68 0 -124 -52.5t-71 -156.5q65 70 170 70q85 0 142.5 -57.5t57.5 -147.5q0 -116 -75.5 -185t-185.5 -69zM359 340q-53 0 -95 -38t-42 -97q0 -46 29.5 -77
t77.5 -31q56 0 95.5 38t39.5 100q0 47 -29 76t-76 29z" />
    <glyph glyph-name="seven.onum" horiz-adv-x="592" 
d="M71 316l32 231h489l-14 -100q-246 -224 -318 -544l-9 -40h-124l9 39q71 311 288 537h-221l-17 -123h-115z" />
    <glyph glyph-name="eight.onum" horiz-adv-x="600" 
d="M271 -11q-99 0 -159.5 55.5t-60.5 135.5q0 63 36.5 108.5t87.5 68.5q-24 16 -43 51t-19 77q0 90 70.5 150t179.5 60q90 0 147.5 -52.5t57.5 -127.5q0 -60 -32.5 -103.5t-73.5 -64.5q79 -52 79 -144q0 -94 -74.5 -154t-195.5 -60zM311 295q-59 0 -98.5 -31.5t-39.5 -78.5
q0 -39 31 -63.5t79 -24.5q56 0 97 31t41 78q0 39 -30.5 64t-79.5 25zM352 587q-46 0 -83 -26.5t-37 -75.5q0 -34 24.5 -57.5t69.5 -23.5q53 0 86.5 31t33.5 72q0 39 -27.5 59.5t-66.5 20.5z" />
    <glyph glyph-name="nine.onum" horiz-adv-x="661" 
d="M350 559q109 0 173.5 -75.5t64.5 -206.5q0 -191 -94 -307.5t-247 -116.5q-127 0 -191 90l84 76q44 -58 124 -58q68 0 124 52.5t71 156.5q-65 -70 -170 -70q-85 0 -142.5 57.5t-57.5 147.5q0 116 75.5 185t185.5 69zM315 208q53 0 95 38t42 97q0 46 -29.5 77t-77.5 31
q-56 0 -95.5 -38t-39.5 -100q0 -47 29 -76t76 -29z" />
    <glyph glyph-name="zero.ss01" horiz-adv-x="638" 
d="M70 280q0 82 19.5 157.5t57 137.5t100.5 99.5t142 37.5q73 0 123.5 -41.5t72.5 -105.5t22 -143q0 -111 -33 -206.5t-107.5 -161t-179.5 -65.5q-107 0 -162 84t-55 207zM374 607q-87 0 -137.5 -90t-50.5 -234v-6l289 248q-27 82 -101 82zM302 94q87 0 137.5 90.5
t50.5 234.5l-288 -246q28 -79 100 -79z" />
    <glyph glyph-name="one.ss01" horiz-adv-x="561" 
d="M53 108h174l68 485h-162l16 108h281l-84 -593h166l-15 -108h-459z" />
    <glyph glyph-name="two.ss01" horiz-adv-x="606" 
d="M240 492q0 -37 26 -62.5t64 -25.5q47 0 82.5 32.5t35.5 77.5q0 38 -25.5 63t-63.5 25q-47 0 -83 -32.5t-36 -77.5zM119 482q0 97 74.5 163.5t175.5 66.5q85 0 142 -53.5t57 -134.5q0 -66 -34 -118.5t-95 -105.5l-219 -192h299l-15 -108h-460l15 107l215 189
q-64 8 -109.5 60t-45.5 126z" />
    <glyph glyph-name="three.ss01" horiz-adv-x="610" 
d="M567 598l-188 -180q70 -17 116.5 -68.5t46.5 -125.5q0 -107 -78 -171t-196 -64q-74 0 -137 32.5t-97 82.5l87 77q57 -84 157 -84q62 0 103 33t41 87q0 44 -36.5 70t-99.5 26h-69l14 104l181 176h-291l15 108h445z" />
    <glyph glyph-name="four.ss01" horiz-adv-x="605" 
d="M461 413l-21 -146h127l-15 -108h-127l-22 -159h-120l22 159h-267l29 203l292 338h143l-325 -377l-8 -56h151l21 146h120z" />
    <glyph glyph-name="five.ss01" horiz-adv-x="593" 
d="M442 244q0 49 -30 80t-83 31q-40 0 -75.5 -22t-52.5 -57h-107l59 425h418l-15 -108h-300l-22 -161q57 31 117 31q89 0 151 -56t62 -155q0 -113 -80.5 -188t-210.5 -75q-71 0 -130.5 32.5t-89.5 83.5l88 76q53 -84 142 -84q73 0 116 41.5t43 105.5z" />
    <glyph glyph-name="six.ss01" horiz-adv-x="611" 
d="M276 -11q-96 0 -157.5 61t-61.5 153q0 66 30 121t86 121l214 256h140l-212 -251q12 4 30 4q85 0 143.5 -59.5t58.5 -151.5q0 -114 -81 -184t-190 -70zM177 205q0 -48 30 -78t76 -30q59 0 100.5 41.5t41.5 101.5q0 47 -30.5 76t-76.5 29q-56 0 -98.5 -39.5t-42.5 -100.5z
" />
    <glyph glyph-name="seven.ss01" horiz-adv-x="546" 
d="M70 470l32 231h478l-15 -108l-340 -593h-128l342 593h-238l-17 -123h-114z" />
    <glyph glyph-name="eight.ss01" horiz-adv-x="588" 
d="M262 -11q-97 0 -156 56t-59 135q0 124 117 184q-23 19 -39 52.5t-16 74.5q0 96 68.5 158.5t177.5 62.5q92 0 145 -53t53 -132q0 -108 -97 -172q69 -54 69 -143q0 -99 -72 -161t-191 -62zM301 304q-59 0 -95.5 -34t-36.5 -84q0 -41 28 -65t75 -24q58 0 96 32t38 84
q0 41 -28.5 66t-76.5 25zM344 604q-46 0 -80.5 -29.5t-34.5 -80.5q0 -36 22 -58.5t66 -22.5q53 0 83.5 31t30.5 76q0 39 -25 61.5t-62 22.5z" />
    <glyph glyph-name="nine.ss01" horiz-adv-x="611" 
d="M376 712q99 0 158 -60.5t59 -153.5q0 -66 -30 -120.5t-87 -121.5l-214 -256h-139l212 250q-13 -3 -30 -3q-85 0 -143.5 59.5t-58.5 151.5q0 113 81 183.5t192 70.5zM473 496q0 48 -31.5 78t-77.5 30q-56 0 -98 -39.5t-42 -100.5q0 -48 31.5 -78t77.5 -30q56 0 98 39
t42 101z" />
    <glyph glyph-name="A.ss01" horiz-adv-x="674" 
d="M523 700l91 -700h-117l-19 142h-294l-59 -142h-125l287 700h236zM365 596l-139 -347h241l-43 347h-59z" />
    <glyph glyph-name="Aacute.ss01" horiz-adv-x="684" 
d="M528 700l91 -700h-117l-19 142h-294l-59 -142h-125l287 700h236zM370 596l-139 -347h241l-43 347h-59zM425 872h151l-123 -103h-128z" />
    <glyph glyph-name="Agrave.ss01" horiz-adv-x="684" 
d="M528 700l91 -700h-117l-19 142h-294l-59 -142h-125l287 700h236zM370 596l-139 -347h241l-43 347h-59zM300 872h146l72 -103h-123z" />
    <glyph glyph-name="Acircumflex.ss01" horiz-adv-x="684" 
d="M528 700l91 -700h-117l-19 142h-294l-59 -142h-125l287 700h236zM370 596l-139 -347h241l-43 347h-59zM382 872h136l77 -103h-109l-40 44l-52 -44h-117z" />
    <glyph glyph-name="Adieresis.ss01" horiz-adv-x="684" 
d="M528 700l91 -700h-117l-19 142h-294l-59 -142h-125l287 700h236zM370 596l-139 -347h241l-43 347h-59zM269 821q0 26 18.5 44.5t43.5 18.5t44 -19t19 -44t-19 -44t-44 -19t-43.5 18.5t-18.5 44.5zM460 821q0 25 19 44t44 19t43.5 -18.5t18.5 -44.5t-18.5 -44.5
t-43.5 -18.5t-44 19t-19 44z" />
    <glyph glyph-name="Atilde.ss01" horiz-adv-x="684" 
d="M528 700l91 -700h-117l-19 142h-294l-59 -142h-125l287 700h236zM370 596l-139 -347h241l-43 347h-59zM517 872h80q-7 -49 -36.5 -81.5t-67.5 -32.5q-21 0 -40 7l-39 15q-18 8 -32 8q-22 0 -27 -24h-80q7 49 36.5 81.5t67.5 32.5q22 0 41 -7l38 -15q24 -8 32 -8
q22 0 27 24z" />
    <glyph glyph-name="Aring.ss01" horiz-adv-x="684" 
d="M321 772q0 47 33 79t77 32q41 0 68.5 -25t27.5 -67q0 -57 -49 -91h50l91 -700h-117l-19 142h-294l-59 -142h-125l287 700h58q-29 24 -29 72zM370 596l-139 -347h241l-43 347h-59zM383 777q0 -15 9.5 -25t24.5 -10q18 0 32 12t14 32q0 16 -9.5 25.5t-24.5 9.5
q-18 0 -32 -12.5t-14 -31.5z" />
    <glyph glyph-name="AE.ss01" horiz-adv-x="893" 
d="M292 700h600l-15 -107h-335l23 -181h270l-16 -108h-240l26 -197h204l-15 -107h-292l-19 142h-294l-59 -142h-125zM370 596l-139 -347h241l-43 347h-59z" />
    <glyph glyph-name="Ccedilla.ss01" horiz-adv-x="700" 
d="M385 -136h-112l18 133q-113 23 -181.5 108.5t-68.5 205.5q0 179 117 290t291 111q85 0 155.5 -35t110.5 -95l-86 -78q-70 99 -189 99q-115 0 -195.5 -83t-80.5 -204q0 -95 59 -156.5t155 -61.5q123 0 217 105l67 -87q-106 -114 -260 -125z" />
    <glyph glyph-name="G.ss01" horiz-adv-x="754" 
d="M418 259l16 108h279l-52 -367h-118l4 28q-86 -39 -179 -39q-132 0 -219.5 92t-87.5 232q0 177 119 288t292 111q170 0 261 -127l-88 -78q-66 96 -181 96t-197.5 -83t-82.5 -204q0 -96 59 -157t155 -61q93 0 167 58l14 103h-161z" />
    <glyph glyph-name="I.ss01" horiz-adv-x="473" 
d="M116 593l16 108h347l-16 -108h-114l-68 -485h114l-15 -108h-347l15 108h114l68 485h-114z" />
    <glyph glyph-name="Iacute.ss01" horiz-adv-x="473" 
d="M116 593l16 108h347l-16 -108h-114l-68 -485h114l-15 -108h-347l15 108h114l68 485h-114zM340 872h151l-123 -103h-128z" />
    <glyph glyph-name="Igrave.ss01" horiz-adv-x="473" 
d="M116 593l16 108h347l-16 -108h-114l-68 -485h114l-15 -108h-347l15 108h114l68 485h-114zM168 872h146l72 -103h-123z" />
    <glyph glyph-name="Icircumflex.ss01" horiz-adv-x="473" 
d="M116 593l16 108h347l-16 -108h-114l-68 -485h114l-15 -108h-347l15 108h114l68 485h-114zM261 872h136l77 -103h-109l-40 44l-52 -44h-117z" />
    <glyph glyph-name="Idieresis.ss01" horiz-adv-x="473" 
d="M116 593l16 108h347l-16 -108h-114l-68 -485h114l-15 -108h-347l15 108h114l68 485h-114zM164 821q0 26 18.5 44.5t43.5 18.5q26 0 44.5 -19t18.5 -44t-18.5 -44t-44.5 -19q-25 0 -43.5 18.5t-18.5 44.5zM355 821q0 25 18.5 44t44.5 19q25 0 43.5 -18.5t18.5 -44.5
t-18.5 -44.5t-43.5 -18.5q-26 0 -44.5 19t-18.5 44z" />
    <glyph glyph-name="J.ss01" horiz-adv-x="561" 
d="M207 593l15 108h339l-66 -465q-17 -121 -82 -184t-177 -63q-109 0 -162 66t-38 174l3 21h120l-3 -21q-10 -68 16.5 -100t73.5 -32q110 0 131 144l49 352h-219z" />
    <glyph glyph-name="K.ss01" horiz-adv-x="612" 
d="M28 0l99 701h117l-40 -283h70l233 283h131l-274 -331l181 -370h-123l-150 310h-83l-44 -310h-117z" />
    <glyph glyph-name="M.ss01" horiz-adv-x="861" 
d="M422 195l178 506h255l-99 -701h-120l83 592h-33l-213 -592h-150l-44 592h-32l-83 -592h-119l99 701h247z" />
    <glyph glyph-name="Q.ss01" horiz-adv-x="811" 
d="M66 315q0 168 118 282.5t288 114.5q136 0 224.5 -94.5t88.5 -232.5q0 -169 -119 -282.5t-289 -113.5q-135 0 -223 94.5t-88 231.5zM399 275l86 76l122 -142q57 76 57 176q0 94 -55 155.5t-145 61.5q-114 0 -194.5 -83.5t-80.5 -202.5q0 -95 56 -156.5t148 -61.5
q69 0 129 34z" />
    <glyph glyph-name="V.ss01" horiz-adv-x="674" 
d="M348 104l245 596h124l-292 -700h-236l-96 700h118l78 -596h59z" />
    <glyph glyph-name="W.ss01" horiz-adv-x="964" 
d="M481 201l-85 -201h-206l-106 701h126l81 -593h43l109 255l-55 338h113l24 -184l76 184h112l-152 -343l38 -250h46l247 593h126l-304 -701h-204z" />
    <glyph glyph-name="X.ss01" horiz-adv-x="656" 
d="M373 307h-64l-179 -307h-129l215 368l-98 333h124l82 -288h64l164 288h129l-201 -352l107 -349h-121z" />
    <glyph glyph-name="a.ss01" horiz-adv-x="532" 
d="M123 390l14 100h359l-69 -490h-224q-72 0 -115 41.5t-43 104.5q0 77 57 121.5t145 44.5h112l11 78h-247zM329 98l16 116h-114q-38 0 -60 -16t-22 -47q0 -25 18 -39t48 -14h114z" />
    <glyph glyph-name="aacute.ss01" horiz-adv-x="532" 
d="M355 701h140l-137 -131h-112zM123 390l14 100h359l-69 -490h-224q-72 0 -115 41.5t-43 104.5q0 77 57 121.5t145 44.5h112l11 78h-247zM329 98l16 116h-114q-38 0 -60 -16t-22 -47q0 -25 18 -39t48 -14h114z" />
    <glyph glyph-name="agrave.ss01" horiz-adv-x="532" 
d="M123 390l14 100h359l-69 -490h-224q-72 0 -115 41.5t-43 104.5q0 77 57 121.5t145 44.5h112l11 78h-247zM329 98l16 116h-114q-38 0 -60 -16t-22 -47q0 -25 18 -39t48 -14h114zM217 701h140l73 -131h-112z" />
    <glyph glyph-name="acircumflex.ss01" horiz-adv-x="536" 
d="M123 390l14 100h359l-69 -490h-224q-72 0 -115 41.5t-43 104.5q0 77 57 121.5t145 44.5h112l11 78h-247zM329 98l16 116h-114q-38 0 -60 -16t-22 -47q0 -25 18 -39t48 -14h114zM283 701h129l79 -131h-108l-42 60l-58 -60h-115z" />
    <glyph glyph-name="adieresis.ss01" horiz-adv-x="536" 
d="M123 390l14 100h359l-69 -490h-224q-72 0 -115 41.5t-43 104.5q0 77 57 121.5t145 44.5h112l11 78h-247zM329 98l16 116h-114q-38 0 -60 -16t-22 -47q0 -25 18 -39t48 -14h114zM182 644q0 26 18.5 44.5t43.5 18.5q26 0 44.5 -18.5t18.5 -44.5t-18.5 -44.5t-44.5 -18.5
q-25 0 -43.5 18.5t-18.5 44.5zM373 644q0 26 18.5 44.5t44.5 18.5q25 0 43.5 -18.5t18.5 -44.5t-18.5 -44.5t-43.5 -18.5q-26 0 -44.5 18.5t-18.5 44.5z" />
    <glyph glyph-name="atilde.ss01" horiz-adv-x="532" 
d="M123 390l14 100h359l-69 -490h-224q-72 0 -115 41.5t-43 104.5q0 77 57 121.5t145 44.5h112l11 78h-247zM329 98l16 116h-114q-38 0 -60 -16t-22 -47q0 -25 18 -39t48 -14h114zM427 701h80q-7 -49 -36.5 -81.5t-67.5 -32.5q-21 0 -40 7l-39 15q-18 8 -32 8q-22 0 -27 -24
h-80q7 49 36.5 81.5t67.5 32.5q22 0 41 -7l38 -15q24 -8 32 -8q22 0 27 24z" />
    <glyph glyph-name="aring.ss01" horiz-adv-x="532" 
d="M123 390l14 100h359l-69 -490h-224q-72 0 -115 41.5t-43 104.5q0 77 57 121.5t145 44.5h112l11 78h-247zM329 98l16 116h-114q-38 0 -60 -16t-22 -47q0 -25 18 -39t48 -14h114zM347 712q31 0 51 -21t20 -52q0 -36 -27.5 -61t-65.5 -25q-31 0 -51 21.5t-20 51.5
q0 38 27 62t66 24zM333 609q11 0 18.5 7t7.5 18q0 8 -5.5 14t-14.5 6q-11 0 -18.5 -7t-7.5 -17q0 -21 20 -21z" />
    <glyph glyph-name="ae.ss01" horiz-adv-x="773" 
d="M137 490l461 -1q64 0 104 -37.5t40 -98.5q0 -73 -54 -115t-131 -42h-103l-13 -95h245l-14 -101h-484q-64 0 -104 38t-40 99q0 73 54 115t131 42h127l14 96h-247zM343 196h-130q-31 0 -48 -14.5t-17 -39.5q0 -20 13.5 -32t37.5 -12h130zM587 391h-105l-14 -97h105
q31 0 48 14.5t17 39.5q0 20 -13.5 31.5t-37.5 11.5z" />
    <glyph glyph-name="ccedilla.ss01" horiz-adv-x="545" 
d="M304 -136h-112l19 135q-69 20 -110.5 78.5t-41.5 141.5q0 120 81 201.5t194 81.5q134 0 195 -98l-88 -74q-24 34 -48.5 51t-60.5 17q-64 0 -110 -51t-46 -125q0 -57 31.5 -93.5t82.5 -36.5q43 0 75 18.5t64 55.5l71 -76q-69 -85 -178 -98z" />
    <glyph glyph-name="e.ss01" horiz-adv-x="477" 
d="M244 151q-47 0 -77 23l-11 -73h245l-14 -101h-357l45 321q11 80 68 130.5t139 50.5q71 0 119.5 -48.5t48.5 -116.5q0 -82 -60.5 -134t-145.5 -52zM254 255q36 0 60 23.5t24 55.5q0 26 -19 45t-49 19q-36 0 -60 -24t-24 -56q0 -26 19 -44.5t49 -18.5z" />
    <glyph glyph-name="eacute.ss01" horiz-adv-x="511" 
d="M343 701h140l-137 -131h-112zM261 151q-47 0 -77 23l-11 -73h245l-14 -101h-357l45 321q11 80 68 130.5t139 50.5q71 0 119.5 -48.5t48.5 -116.5q0 -82 -60.5 -134t-145.5 -52zM271 255q36 0 60 23.5t24 55.5q0 26 -19 45t-49 19q-36 0 -60 -24t-24 -56q0 -26 19 -44.5
t49 -18.5z" />
    <glyph glyph-name="egrave.ss01" horiz-adv-x="511" 
d="M261 151q-47 0 -77 23l-11 -73h245l-14 -101h-357l45 321q11 80 68 130.5t139 50.5q71 0 119.5 -48.5t48.5 -116.5q0 -82 -60.5 -134t-145.5 -52zM271 255q36 0 60 23.5t24 55.5q0 26 -19 45t-49 19q-36 0 -60 -24t-24 -56q0 -26 19 -44.5t49 -18.5zM181 701h140l73 -131
h-112z" />
    <glyph glyph-name="ecircumflex.ss01" horiz-adv-x="511" 
d="M261 151q-47 0 -77 23l-11 -73h245l-14 -101h-357l45 321q11 80 68 130.5t139 50.5q71 0 119.5 -48.5t48.5 -116.5q0 -82 -60.5 -134t-145.5 -52zM271 255q36 0 60 23.5t24 55.5q0 26 -19 45t-49 19q-36 0 -60 -24t-24 -56q0 -26 19 -44.5t49 -18.5zM268 701h129l79 -131
h-108l-42 60l-58 -60h-115z" />
    <glyph glyph-name="edieresis.ss01" horiz-adv-x="511" 
d="M261 151q-47 0 -77 23l-11 -73h245l-14 -101h-357l45 321q11 80 68 130.5t139 50.5q71 0 119.5 -48.5t48.5 -116.5q0 -82 -60.5 -134t-145.5 -52zM271 255q36 0 60 23.5t24 55.5q0 26 -19 45t-49 19q-36 0 -60 -24t-24 -56q0 -26 19 -44.5t49 -18.5zM165 644
q0 26 18.5 44.5t43.5 18.5t44 -18.5t19 -44.5t-19 -44.5t-44 -18.5t-43.5 18.5t-18.5 44.5zM356 644q0 26 19 44.5t44 18.5t43.5 -18.5t18.5 -44.5t-18.5 -44.5t-43.5 -18.5t-44 18.5t-19 44.5z" />
    <glyph glyph-name="f.ss01" horiz-adv-x="418" 
d="M47 387l14 103h70l9 62q10 71 57.5 115.5t118.5 44.5q73 0 114 -42.5t35 -112.5l-1 -11h-113l1 10q2 23 -10 38t-34 15q-45 0 -54 -58l-9 -61h211l-14 -103h-211l-54 -387h-115l54 387h-69z" />
    <glyph glyph-name="g.ss01" horiz-adv-x="573" 
d="M562 490l-14 -101h-63q31 -40 31 -101q0 -93 -64 -151.5t-144 -67.5l162 -163l-14 -100h-443l14 102h283l-159 159q-85 85 -85 187q0 106 77 171t188 65h231zM402 287q0 41 -26.5 68.5t-69.5 27.5q-52 0 -88.5 -36t-36.5 -86q0 -41 26 -68.5t69 -27.5q52 0 89 36t37 86z
" />
    <glyph glyph-name="h.ss01" horiz-adv-x="581" 
d="M233 490h308l-69 -490h-114l54 382h-194l-54 -382h-114l98 700h114z" />
    <glyph glyph-name="j.ss01" horiz-adv-x="293" 
d="M158 -194h-225l14 102h110l82 582h115zM145 633q0 33 24.5 56t57.5 23q28 0 45.5 -18t17.5 -45q0 -33 -25 -56.5t-58 -23.5q-27 0 -44.5 18.5t-17.5 45.5z" />
    <glyph glyph-name="k.ss01" horiz-adv-x="503" 
d="M40 0l99 701h114l-58 -406h68l131 195h124l-164 -246l104 -244h-118l-84 192h-75l-27 -192h-114z" />
    <glyph glyph-name="l.ss01" horiz-adv-x="233" 
d="M143 0h-113l99 701h113z" />
    <glyph glyph-name="m.ss01" horiz-adv-x="861" 
d="M820 490l-69 -490h-114l54 382h-180l-54 -382h-113l54 382h-180l-54 -382h-114l69 490h701z" />
    <glyph glyph-name="n.ss01" horiz-adv-x="581" 
d="M119 490h422l-69 -490h-114l54 382h-194l-54 -382h-114z" />
    <glyph glyph-name="ntilde.ss01" horiz-adv-x="581" 
d="M541 490h-422l-69 -490h114l54 382h194l-54 -382h114zM436 701h80q-7 -49 -36.5 -81.5t-67.5 -32.5q-21 0 -40 7l-39 15q-18 8 -32 8q-22 0 -27 -24h-80q7 49 36.5 81.5t67.5 32.5q22 0 41 -7l38 -15q24 -8 32 -8q22 0 27 24z" />
    <glyph glyph-name="oe.ss01" horiz-adv-x="848" 
d="M617 157q-44 0 -76 20q-15 -41 -44 -75h276l-14 -102h-481q-109 0 -170 63.5t-61 163.5q0 120 86 197.5t206 77.5q96 0 159 -68q62 68 159 68q73 0 118.5 -47t45.5 -115q0 -77 -60.5 -130t-143.5 -53zM164 228q0 -57 32 -91t86 -34q67 0 113 47.5t46 121.5q0 57 -32 91.5
t-85 34.5q-68 0 -114 -48t-46 -122zM627 261q33 0 56 22.5t23 53.5q0 26 -16.5 43.5t-43.5 17.5q-34 0 -56.5 -23t-22.5 -54q0 -26 16 -43t44 -17z" />
    <glyph glyph-name="r.ss01" horiz-adv-x="374" 
d="M206 382l-54 -382h-114l69 490h272l-15 -108h-158z" />
    <glyph glyph-name="s.ss01" horiz-adv-x="484" 
d="M263 502q53 0 101.5 -21.5t81.5 -57.5l-72 -83q-18 21 -52 40t-69 19q-57 0 -57 -40q0 -20 37 -45l196 -132q-10 -84 -63 -138.5t-152 -54.5q-124 0 -196 87l73 84q58 -68 130 -68q62 0 81 49l-141 89q-81 52 -81 128q0 66 53 105t130 39z" />
    <glyph glyph-name="t.ss01" horiz-adv-x="393" 
d="M312 0h-236l55 388h-83l14 102h83l20 137h113l-20 -137h129l-14 -102h-129l-39 -280h123z" />
    <glyph glyph-name="u.ss01" horiz-adv-x="570" 
d="M460 0h-410l69 490h114l-54 -382h182l54 382h114z" />
    <glyph glyph-name="uacute.ss01" horiz-adv-x="570" 
d="M50 0h410l69 490h-114l-54 -382h-182l54 382h-114zM366 701h140l-137 -131h-112z" />
    <glyph glyph-name="ugrave.ss01" horiz-adv-x="570" 
d="M460 0h-410l69 490h114l-54 -382h182l54 382h114zM202 701h140l73 -131h-112z" />
    <glyph glyph-name="ucircumflex.ss01" horiz-adv-x="570" 
d="M50 0h410l69 490h-114l-54 -382h-182l54 382h-114zM288 701h129l79 -131h-108l-42 60l-58 -60h-115z" />
    <glyph glyph-name="udieresis.ss01" horiz-adv-x="570" 
d="M50 0h410l69 490h-114l-54 -382h-182l54 382h-114zM187 644q0 26 18.5 44.5t43.5 18.5t44 -18.5t19 -44.5t-19 -44.5t-44 -18.5t-43.5 18.5t-18.5 44.5zM378 644q0 26 19 44.5t44 18.5t43.5 -18.5t18.5 -44.5t-18.5 -44.5t-43.5 -18.5t-44 18.5t-19 44.5z" />
    <glyph glyph-name="y.ss01" horiz-adv-x="550" 
d="M276 -194h-118l26 185l-130 499h123l83 -357l183 357h131l-272 -499z" />
    <glyph glyph-name="yacute.ss01" horiz-adv-x="560" 
d="M281 -194h-118l26 185l-130 499h123l83 -357l183 357h131l-272 -499zM355 701h140l-137 -131h-112z" />
    <glyph glyph-name="ydieresis.ss01" horiz-adv-x="540" 
d="M271 -194h-118l26 185l-130 499h123l83 -357l183 357h131l-272 -499zM172 644q0 26 18.5 44.5t43.5 18.5q26 0 44.5 -18.5t18.5 -44.5t-18.5 -44.5t-44.5 -18.5q-25 0 -43.5 18.5t-18.5 44.5zM363 644q0 26 18.5 44.5t44.5 18.5q25 0 43.5 -18.5t18.5 -44.5t-18.5 -44.5
t-43.5 -18.5q-26 0 -44.5 18.5t-18.5 44.5z" />
    <glyph glyph-name="period.ss01" horiz-adv-x="326" 
d="M59 71q0 35 24.5 59.5t59.5 24.5t59 -24.5t24 -59.5q0 -34 -24.5 -58t-58.5 -24q-35 0 -59.5 24t-24.5 58z" />
    <glyph glyph-name="colon.ss01" horiz-adv-x="326" 
d="M59 71q0 35 24.5 59.5t59.5 24.5t59 -24.5t24 -59.5q0 -34 -24.5 -58t-58.5 -24q-35 0 -59.5 24t-24.5 58zM108 418q0 35 24.5 59.5t59.5 24.5t59 -24.5t24 -59.5q0 -34 -24.5 -58t-58.5 -24q-35 0 -59.5 24t-24.5 58z" />
    <glyph glyph-name="comma.ss01" horiz-adv-x="326" 
d="M80 -163l-93 54l125 229l103 -59z" />
    <glyph glyph-name="semicolon.ss01" horiz-adv-x="326" 
d="M108 418q0 35 24.5 59.5t59.5 24.5t59 -24.5t24 -59.5q0 -34 -24.5 -58t-58.5 -24q-35 0 -59.5 24t-24.5 58zM80 -163l-93 54l125 229l103 -59z" />
    <glyph glyph-name="ellipsis.ss01" horiz-adv-x="837" 
d="M59 71q0 35 24.5 59.5t59.5 24.5t59 -24.5t24 -59.5q0 -34 -24.5 -58t-58.5 -24q-35 0 -59.5 24t-24.5 58zM314 71q0 35 24.5 59.5t59.5 24.5t59 -24.5t24 -59.5q0 -34 -24.5 -58t-58.5 -24q-35 0 -59.5 24t-24.5 58zM570 71q0 35 24.5 59.5t59.5 24.5t59 -24.5t24 -59.5
q0 -34 -24.5 -58t-58.5 -24q-35 0 -59.5 24t-24.5 58z" />
    <glyph glyph-name="question.ss01" horiz-adv-x="535" 
d="M306 228h-117l24 166h33q66 0 115.5 32t49.5 91q0 39 -27.5 62.5t-69.5 23.5q-99 0 -168 -98l-68 86q101 121 245 121q91 0 150 -55t59 -137q0 -86 -59 -143.5t-157 -76.5zM143 71q0 35 24.5 59.5t59.5 24.5t59 -24.5t24 -59.5q0 -34 -24.5 -58t-58.5 -24q-35 0 -59.5 24
t-24.5 58z" />
    <glyph glyph-name="questiondown.ss01" horiz-adv-x="535" 
d="M339 267h-117l-10 -72q-92 -12 -154 -69.5t-62 -143.5q0 -82 59 -134.5t150 -52.5q144 0 245 121l-68 86q-69 -98 -168 -98q-42 0 -69.5 21.5t-27.5 59.5q0 55 49.5 85.5t115.5 30.5h33zM385 420q0 -35 -24.5 -59.5t-59.5 -24.5t-59 24.5t-24 59.5q0 34 24.5 58t58.5 24
q35 0 59.5 -24t24.5 -58z" />
    <glyph glyph-name="exclam.ss01" horiz-adv-x="326" 
d="M106 228l67 473h118l-67 -473h-118zM61 71q0 35 24.5 59.5t59.5 24.5t59 -24.5t24 -59.5q0 -34 -24.5 -58t-58.5 -24q-35 0 -59.5 24t-24.5 58z" />
    <glyph glyph-name="exclamdown.ss01" horiz-adv-x="326" 
d="M229 262l-64 -456h-118l64 456h118zM109 418q0 35 24.5 59.5t59.5 24.5t59 -24.5t24 -59.5q0 -34 -24.5 -58t-58.5 -24q-35 0 -59.5 24t-24.5 58z" />
    <glyph glyph-name="quotedblleft.ss01" horiz-adv-x="458" 
d="M168 427l-99 59l135 224l89 -54zM357 427l-99 59l136 224l89 -54z" />
    <glyph glyph-name="quotedblright.ss01" horiz-adv-x="458" 
d="M453 728l99 -59l-135 -224l-89 54zM264 728l99 -59l-136 -224l-89 54z" />
    <glyph glyph-name="quoteleft.ss01" horiz-adv-x="284" 
d="M168 427l-99 59l135 224l89 -54z" />
    <glyph glyph-name="quoteright.ss01" horiz-adv-x="284" 
d="M278 726l99 -59l-135 -224l-89 54z" />
    <glyph glyph-name="quotesinglbase.ss01" horiz-adv-x="284" 
d="M194 129l99 -59l-135 -224l-89 54z" />
    <glyph glyph-name="quotedblbase.ss01" horiz-adv-x="458" 
d="M369 135l99 -59l-135 -224l-89 54zM180 135l99 -59l-136 -224l-89 54z" />
    <glyph glyph-name="ampersand.ss01" horiz-adv-x="687" 
d="M413 594h-40q-61 0 -92.5 -29t-31.5 -73q0 -34 25 -55t74 -21h108l40 285h114l-40 -285h114l-15 -106h-114l-44 -310h-245q-87 0 -147 52t-60 138q0 59 32.5 108t87.5 79q-47 45 -47 111q0 98 72.5 155.5t174.5 57.5h49zM180 195q0 -39 30 -63t78 -24h124l29 202h-121
q-63 0 -101.5 -29.5t-38.5 -85.5z" />
    <glyph glyph-name="germandbls.ss01" horiz-adv-x="620" 
d="M287 307l15 106l153 180h-210l-83 -593h-117l98 700h469l-14 -102l-161 -185q67 -13 111 -63t44 -125q0 -97 -75.5 -161t-189.5 -64h-83l16 116h72q64 0 101 26t37 79q0 41 -29.5 63.5t-81.5 22.5h-72z" />
    <glyph glyph-name="dollar.ss01" horiz-adv-x="673" 
d="M380 290l-74 12q-90 15 -141.5 64.5t-51.5 129.5q0 95 68.5 151.5t172.5 63.5l15 104h108l-16 -111q106 -23 173 -104l-89 -83q-61 87 -179 87q-62 0 -96.5 -28.5t-34.5 -66.5q0 -71 103 -89l59 -10q101 -17 153.5 -68.5t52.5 -131.5q0 -92 -64 -150.5t-179 -68.5
l-14 -105h-108l15 108q-133 19 -211 127l90 79q77 -103 197 -103q72 0 112 28.5t40 75.5q0 71 -101 89z" />
    <glyph glyph-name="zero.ss02" horiz-adv-x="648" 
d="M496 432q0 82 -29.5 127t-87.5 45q-43 -3 -77 -27.5t-54.5 -60t-34 -81t-18.5 -85.5t-5 -78q0 -83 30 -129t88 -46q52 0 91 36.5t59 92t29 108t9 98.5zM391 712q109 0 167 -77t58 -203q0 -78 -19 -153.5t-56.5 -141.5t-101 -107t-144.5 -41q-109 0 -167 78.5t-58 204.5
q0 79 19 154t56.5 139.5t101 104.5t144.5 42z" />
    <glyph glyph-name="one.ss02" horiz-adv-x="344" 
d="M115 0l67 476l-123 -86l19 135l247 186h9l-100 -711h-119z" />
    <glyph glyph-name="two.ss02" horiz-adv-x="602" 
d="M255 108h264l-15 -108h-490l1 9l349 364q45 47 66 80.5t21 67.5q0 37 -27 60t-70 23q-55 0 -102.5 -34t-78.5 -88l-72 83q43 68 111 107.5t149 39.5q88 0 148 -52t60 -134q0 -57 -35.5 -112t-109.5 -131z" />
    <glyph glyph-name="three.ss02" horiz-adv-x="610" 
d="M600 690l-218 -269q69 -15 115.5 -64.5t46.5 -122.5q0 -112 -82 -178.5t-204 -66.5q-74 0 -133 31t-92 84l89 78q51 -85 151 -85q62 0 106 36t44 91q0 99 -156 99h-94l2 10l208 260h-262l15 108h465z" />
    <glyph glyph-name="four.ss02" horiz-adv-x="622" 
d="M569 154h-97l-22 -154h-120l22 154h-360l1 10l544 554h14l-64 -456h97zM225 262h142l24 172z" />
    <glyph glyph-name="five.ss02" horiz-adv-x="560" 
d="M409 242q0 52 -33 82.5t-86 30.5q-42 0 -80 -21t-60 -55l-94 30l147 392h335l-15 -108h-242l-64 -159q35 28 105 28q84 0 146.5 -58t62.5 -153q0 -113 -82.5 -187.5t-210.5 -74.5q-71 0 -127.5 32.5t-92.5 82.5l91 78q52 -85 143 -85q67 0 112 40.5t45 104.5z" />
    <glyph glyph-name="six.ss02" horiz-adv-x="600" 
d="M272 -11q-96 0 -155.5 58.5t-59.5 150.5q0 66 31 124t85 123l214 256h137l-212 -251q12 4 33 4q85 0 143.5 -58.5t58.5 -150.5q0 -116 -81.5 -186t-193.5 -70zM177 205q0 -48 30 -78t76 -30q57 0 99.5 39.5t42.5 100.5q0 48 -30.5 78t-76.5 30q-56 0 -98.5 -39.5
t-42.5 -100.5z" />
    <glyph glyph-name="seven.ss02" horiz-adv-x="546" 
d="M87 593l15 108h495l-2 -14l-370 -687h-129l325 593h-334z" />
    <glyph glyph-name="eight.ss02" horiz-adv-x="588" 
d="M264 -11q-97 0 -156 58.5t-59 142.5q0 69 36 124.5t95 85.5q-46 44 -46 112q0 83 63.5 141.5t163.5 58.5q82 0 131.5 -49t49.5 -119q0 -92 -86 -152q37 -22 59.5 -64.5t22.5 -94.5q0 -105 -77.5 -174.5t-196.5 -69.5zM311 334q-59 0 -100 -39t-41 -95q0 -45 30 -74
t77 -29q57 0 99 38t42 94q0 46 -29.5 75.5t-77.5 29.5zM349 604q-39 0 -67 -26t-28 -66q0 -31 19.5 -50t52.5 -19q40 0 67 25.5t27 64.5q0 31 -20 51t-51 20z" />
    <glyph glyph-name="nine.ss02" horiz-adv-x="621" 
d="M377 712q96 0 155.5 -58.5t59.5 -150.5q0 -66 -31 -124t-85 -123l-214 -256h-137l212 251q-12 -4 -33 -4q-85 0 -143.5 58.5t-58.5 150.5q0 116 81.5 186t193.5 70zM472 496q0 48 -30 78t-76 30q-57 0 -99.5 -39.5t-42.5 -100.5q0 -48 30.5 -78t76.5 -30q56 0 98.5 39.5
t42.5 100.5z" />
    <glyph glyph-name="A.ss02" 
d="M422 718l226 -718h-123l-50 149h-273l-89 -149h-132l427 718h14zM383 465l-121 -206h185z" />
    <glyph glyph-name="Aacute.ss02" 
d="M422 718l226 -718h-123l-50 149h-273l-89 -149h-132l427 718h14zM383 465l-121 -206h185zM453 872h151l-123 -103h-128z" />
    <glyph glyph-name="Agrave.ss02" 
d="M422 718l226 -718h-123l-50 149h-273l-89 -149h-132l427 718h14zM383 465l-121 -206h185zM268 872h146l72 -103h-123z" />
    <glyph glyph-name="Acircumflex.ss02" 
d="M422 718l226 -718h-123l-50 149h-273l-89 -149h-132l427 718h14zM383 465l-121 -206h185zM369 872h136l77 -103h-109l-40 44l-52 -44h-117z" />
    <glyph glyph-name="Adieresis.ss02" 
d="M422 718l226 -718h-123l-50 149h-273l-89 -149h-132l427 718h14zM383 465l-121 -206h185zM271 821q0 26 18.5 44.5t43.5 18.5t44 -19t19 -44t-19 -44t-44 -19t-43.5 18.5t-18.5 44.5zM462 821q0 25 19 44t44 19t43.5 -18.5t18.5 -44.5t-18.5 -44.5t-43.5 -18.5t-44 19
t-19 44z" />
    <glyph glyph-name="Atilde.ss02" 
d="M422 718l226 -718h-123l-50 149h-273l-89 -149h-132l427 718h14zM383 465l-121 -206h185zM511 878h80q-7 -49 -36.5 -81.5t-67.5 -32.5q-21 0 -40 7l-39 15q-18 8 -32 8q-22 0 -27 -24h-80q7 49 36.5 81.5t67.5 32.5q22 0 41 -7l38 -15q24 -8 32 -8q22 0 27 24z" />
    <glyph glyph-name="Aring.ss02" 
d="M321 772q0 47 33 79t77 32q41 0 68.5 -25t27.5 -67q0 -40 -26.5 -71t-67.5 -39l215 -681h-123l-50 149h-273l-89 -149h-132l405 682q-30 8 -47.5 32t-17.5 58zM383 465l-121 -206h185zM383 777q0 -15 9.5 -25t24.5 -10q18 0 32 12t14 32q0 16 -9.5 25.5t-24.5 9.5
q-18 0 -32 -12.5t-14 -31.5z" />
    <glyph glyph-name="AE.ss02" horiz-adv-x="921" 
d="M922 701l-16 -108h-445l57 -181h346l-15 -109h-296l61 -195h224l-15 -108h-298l-50 149h-273l-89 -149h-132l417 701h524zM383 465l-121 -206h185z" />
    <glyph glyph-name="K.ss02" horiz-adv-x="611" 
d="M203 313l-45 -313h-120l99 701h120l-41 -287l277 287h148l-328 -340l245 -361h-141z" />
    <glyph glyph-name="M.ss02" horiz-adv-x="832" 
d="M394 98l-171 287l-54 -385h-119l101 718h13l257 -431l389 431h13l-101 -718h-119l54 379l-249 -281h-14z" />
    <glyph glyph-name="N.ss02" horiz-adv-x="747" 
d="M621 -17l-390 466l-62 -449h-119l101 718h13l389 -469l63 452h120l-101 -718h-14z" />
    <glyph glyph-name="Ntilde.ss02" horiz-adv-x="747" 
d="M621 -17l-390 466l-62 -449h-119l101 718h13l389 -469l63 452h120l-101 -718h-14zM524 878h80q-7 -49 -36.5 -81.5t-67.5 -32.5q-21 0 -40 7l-39 15q-18 8 -32 8q-22 0 -27 -24h-80q7 49 36.5 81.5t67.5 32.5q22 0 41 -7l38 -15q24 -8 32 -8q22 0 27 24z" />
    <glyph glyph-name="Q.ss02" horiz-adv-x="819" 
d="M61 315q0 168 118 282.5t288 114.5q136 0 224.5 -94.5t88.5 -232.5q0 -158 -109 -272l66 -75l-86 -76l-70 81q-94 -54 -209 -54q-135 0 -223 94.5t-88 231.5zM184 316q0 -95 56 -156.5t148 -61.5q112 0 191.5 83.5t79.5 203.5q0 94 -55 155.5t-145 61.5
q-114 0 -194.5 -83.5t-80.5 -202.5z" />
    <glyph glyph-name="R.ss02" horiz-adv-x="649" 
d="M468 0l-160 239h-105l-34 -239h-119l99 701h257q110 0 178.5 -59t68.5 -153q0 -93 -58 -156.5t-158 -84.5l165 -248h-134zM375 593h-123l-34 -245h123q194 0 194 137q0 51 -42 79.5t-118 28.5z" />
    <glyph glyph-name="S.ss02" horiz-adv-x="597" 
d="M344 290l-97 41q-61 26 -95 72t-34 105q0 94 69.5 149t169.5 55q128 0 207 -103l-83 -73q-53 70 -137 70q-49 0 -79 -26.5t-30 -62.5q0 -28 19 -49t64 -40l75 -32q148 -64 148 -188q0 -97 -72 -158t-198 -61q-79 0 -141.5 36t-98.5 92l83 75q61 -98 171 -98q58 0 98 28.5
t40 74.5q0 60 -79 93z" />
    <glyph glyph-name="Scaron.ss02" horiz-adv-x="597" 
d="M344 290l-97 41q-61 26 -95 72t-34 105q0 94 69.5 149t169.5 55q128 0 207 -103l-83 -73q-53 70 -137 70q-49 0 -79 -26.5t-30 -62.5q0 -28 19 -49t64 -40l75 -32q148 -64 148 -188q0 -97 -72 -158t-198 -61q-79 0 -141.5 36t-98.5 92l83 75q61 -98 171 -98q58 0 98 28.5
t40 74.5q0 60 -79 93zM442 769h-136l-77 103h109l40 -44l52 44h117z" />
    <glyph glyph-name="V.ss02" horiz-adv-x="667" 
d="M337 258l243 443h127l-398 -718h-14l-198 718h120z" />
    <glyph glyph-name="W.ss02" horiz-adv-x="935" 
d="M666 292l182 409h132l-329 -718h-14l-139 456l-267 -456h-13l-127 717h123l70 -408l245 426h13z" />
    <glyph glyph-name="Z.ss02" horiz-adv-x="686" 
d="M150 701h560l-2 -14l-469 -579h370l-15 -108h-578l2 14l468 579h-352z" />
    <glyph glyph-name="Zcaron.ss02" horiz-adv-x="663" 
d="M150 701h560l-2 -14l-469 -579h370l-15 -108h-578l2 14l468 579h-352zM496 769h-136l-77 103h109l40 -44l52 44h117z" />
    <glyph glyph-name="a.ss02" horiz-adv-x="610" 
d="M56 214q0 123 78 205.5t196 82.5q84 0 136 -54l6 42h112l-69 -490h-114l5 36q-56 -47 -139 -47q-93 0 -152 64t-59 161zM173 219q0 -57 28 -94.5t82 -37.5q71 0 114 55t43 128q0 56 -29 92t-84 36q-72 0 -113 -52.5t-41 -126.5z" />
    <glyph glyph-name="aacute.ss02" horiz-adv-x="610" 
d="M56 214q0 -97 59 -161t152 -64q83 0 139 47l-5 -36h114l69 490h-112l-6 -42q-52 54 -136 54q-118 0 -196 -82.5t-78 -205.5zM173 219q0 74 41 126.5t113 52.5q55 0 84 -36t29 -92q0 -73 -43 -128t-114 -55q-54 0 -82 37.5t-28 94.5zM385 701h140l-137 -131h-112z" />
    <glyph glyph-name="agrave.ss02" horiz-adv-x="610" 
d="M56 214q0 123 78 205.5t196 82.5q84 0 136 -54l6 42h112l-69 -490h-114l5 36q-56 -47 -139 -47q-93 0 -152 64t-59 161zM173 219q0 -57 28 -94.5t82 -37.5q71 0 114 55t43 128q0 56 -29 92t-84 36q-72 0 -113 -52.5t-41 -126.5zM243 701h140l73 -131h-112z" />
    <glyph glyph-name="acircumflex.ss02" horiz-adv-x="610" 
d="M56 214q0 -97 59 -161t152 -64q83 0 139 47l-5 -36h114l69 490h-112l-6 -42q-52 54 -136 54q-118 0 -196 -82.5t-78 -205.5zM173 219q0 74 41 126.5t113 52.5q55 0 84 -36t29 -92q0 -73 -43 -128t-114 -55q-54 0 -82 37.5t-28 94.5zM317 701h129l79 -131h-108l-42 60
l-58 -60h-115z" />
    <glyph glyph-name="adieresis.ss02" horiz-adv-x="610" 
d="M56 214q0 -97 59 -161t152 -64q83 0 139 47l-5 -36h114l69 490h-112l-6 -42q-52 54 -136 54q-118 0 -196 -82.5t-78 -205.5zM173 219q0 74 41 126.5t113 52.5q55 0 84 -36t29 -92q0 -73 -43 -128t-114 -55q-54 0 -82 37.5t-28 94.5zM215 644q0 26 18.5 44.5t43.5 18.5
t44 -18.5t19 -44.5t-19 -44.5t-44 -18.5t-43.5 18.5t-18.5 44.5zM406 644q0 26 19 44.5t44 18.5t43.5 -18.5t18.5 -44.5t-18.5 -44.5t-43.5 -18.5t-44 18.5t-19 44.5z" />
    <glyph glyph-name="atilde.ss02" horiz-adv-x="610" 
d="M56 214q0 -97 59 -161t152 -64q83 0 139 47l-5 -36h114l69 490h-112l-6 -42q-52 54 -136 54q-118 0 -196 -82.5t-78 -205.5zM173 219q0 74 41 126.5t113 52.5q55 0 84 -36t29 -92q0 -73 -43 -128t-114 -55q-54 0 -82 37.5t-28 94.5zM446 701h80q-7 -49 -36.5 -81.5
t-67.5 -32.5q-21 0 -40 7l-39 15q-18 8 -32 8q-22 0 -27 -24h-80q7 49 36.5 81.5t67.5 32.5q22 0 41 -7l38 -15q24 -8 32 -8q22 0 27 24z" />
    <glyph glyph-name="aring.ss02" horiz-adv-x="610" 
d="M56 214q0 -97 59 -161t152 -64q83 0 139 47l-5 -36h114l69 490h-112l-6 -42q-52 54 -136 54q-118 0 -196 -82.5t-78 -205.5zM173 219q0 74 41 126.5t113 52.5q55 0 84 -36t29 -92q0 -73 -43 -128t-114 -55q-54 0 -82 37.5t-28 94.5zM377 712q31 0 51 -21t20 -52
q0 -36 -27.5 -61t-65.5 -25q-31 0 -51 21.5t-20 51.5q0 38 27 62t66 24zM363 609q11 0 18.5 7t7.5 18q0 8 -5.5 14t-14.5 6q-11 0 -18.5 -7t-7.5 -17q0 -21 20 -21z" />
    <glyph glyph-name="k.ss02" horiz-adv-x="522" 
d="M40 0l99 701h114l-56 -398l188 187h138l-238 -235l179 -255h-130l-151 212l-29 -212h-114z" />
    <glyph glyph-name="v.ss02" horiz-adv-x="472" 
d="M500 490l-289 -507h-14l-147 507h120l66 -252l136 252h128z" />
    <glyph glyph-name="w.ss02" horiz-adv-x="725" 
d="M217 237l176 270h13l106 -270l108 253h127l-234 -507h-14l-125 308l-212 -308h-14l-92 507h119z" />
    <glyph glyph-name="z.ss02" horiz-adv-x="528" 
d="M99 490h417l-2 -13l-302 -372h246l-15 -105h-439l2 14l298 371h-220z" />
    <glyph glyph-name="zcaron.ss02" horiz-adv-x="505" 
d="M99 490h417l-2 -13l-302 -372h246l-15 -105h-439l2 14l298 371h-220zM383 570h-140l-79 131h106l47 -65l65 65h116z" />
    <glyph glyph-name="question.ss02" horiz-adv-x="505" 
d="M255 455l49 20q40 16 55.5 33t15.5 44q0 24 -20 39.5t-52 15.5q-74 0 -142 -79l-63 79q35 43 93.5 74t121.5 31q83 0 129 -46t46 -113q0 -59 -39.5 -100.5t-126.5 -75.5l-46 -18q-53 -20 -53 -51q0 -12 8 -20t20 -8q23 0 46 23l60 -68q-48 -53 -120 -53q-52 0 -87 33.5
t-35 82.5q0 53 34 90.5t106 66.5zM152 60q0 30 21 51t51 21t51 -21t21 -51q0 -29 -21 -50t-51 -21t-51 21t-21 50z" />
    <glyph glyph-name="questiondown.ss02" horiz-adv-x="490" 
d="M259 46l-49 -20q-71 -29 -71 -74q0 -23 20 -38t52 -15q74 0 142 79l64 -80q-35 -43 -94 -73.5t-122 -30.5q-79 0 -127 45t-48 108q0 112 166 177l46 18q53 20 53 43q0 11 -8 18.5t-20 7.5q-23 0 -46 -23l-60 68q48 53 120 53q52 0 87 -31.5t35 -80.5q0 -52 -33.5 -86.5
t-106.5 -64.5zM371 431q0 -30 -21 -51t-51 -21t-51 21t-21 51q0 29 21 50t51 21t51 -21t21 -50z" />
    <glyph glyph-name="ampersand.ss02" horiz-adv-x="687" 
d="M497 0l-38 58q-97 -69 -201 -69q-103 0 -157.5 57.5t-54.5 130.5q0 145 171 226l18 9q-41 70 -41 125q0 77 53 125.5t139 48.5q70 0 116 -46.5t46 -107.5q0 -104 -141 -181l-11 -6l98 -154l103 75l57 -88l-106 -76l81 -127h-132zM262 92q72 0 137 55l-108 171l-9 -5
q-60 -30 -89 -60.5t-29 -71.5q0 -39 28 -64t70 -25zM374 608q-25 0 -45.5 -18.5t-20.5 -49.5q0 -33 26 -73l6 -9l6 3q41 20 63 42t22 51q0 24 -16 39t-41 15z" />
    <glyph glyph-name="germandbls.ss02" horiz-adv-x="638" 
d="M44 0l61 435q19 133 93 204.5t198 71.5q85 0 147.5 -53.5t62.5 -135.5q0 -93 -82 -158q69 -50 69 -143q0 -108 -77.5 -164.5t-186.5 -56.5h-89l15 108h80q59 0 98.5 31t39.5 82q0 44 -30 66.5t-81 22.5h-78l14 106h77q54 0 84.5 31t30.5 75q0 36 -27 61t-77 25
q-143 0 -167 -173l-61 -435h-114z" />
    <glyph glyph-name="dollar.ss02" horiz-adv-x="597" 
d="M344 290l-97 41q-61 26 -95 72t-34 105q0 86 58.5 139.5t147.5 62.5l15 105h97l-16 -111q87 -20 144 -95l-83 -73q-53 70 -137 70q-49 0 -79 -26.5t-30 -62.5q0 -28 19 -49t64 -40l75 -32q148 -64 148 -188q0 -87 -59 -146t-163 -70l-14 -106h-97l15 107
q-63 10 -112.5 43.5t-79.5 80.5l83 75q61 -98 171 -98q58 0 98 28.5t40 74.5q0 60 -79 93z" />
    <glyph glyph-name="zero.ss03" horiz-adv-x="648" 
d="M496 432q0 82 -29.5 127t-87.5 45q-49 0 -88 -35t-59.5 -88.5t-31 -107.5t-10.5 -101q0 -83 30 -129t88 -46q52 0 91 36.5t59 92t29 108t9 98.5zM394 712q109 0 165.5 -76.5t56.5 -202.5q0 -77 -19.5 -153t-57.5 -142.5t-102 -107.5t-145 -41q-109 0 -165.5 77.5
t-56.5 203.5q0 79 19.5 154.5t57.5 140t102 105t145 42.5z" />
    <glyph glyph-name="one.ss03" horiz-adv-x="470" 
d="M177 0l70 500h-161l13 90q69 0 114.5 23t78.5 88h103l-98 -701h-120z" />
    <glyph glyph-name="two.ss03" horiz-adv-x="586" 
d="M352 604q-101 0 -126 -110h-121q20 102 90 160t168 58q85 0 140.5 -53t55.5 -137q0 -54 -26 -98.5t-61 -73t-93 -63.5l-64 -39q-28 -17 -44.5 -28.5t-36.5 -28.5t-33.5 -37.5t-22.5 -45.5h319l-15 -108h-457l3 23q28 207 233 324l63 36q62 35 88 66t26 72q0 35 -23 59
t-63 24z" />
    <glyph glyph-name="three.ss03" horiz-adv-x="607" 
d="M455 364q37 -17 62.5 -57.5t25.5 -89.5q0 -102 -81.5 -165t-195.5 -63q-107 0 -168.5 61t-58.5 154h122q1 -56 34.5 -81.5t85.5 -25.5q59 0 100.5 32t41.5 87q0 41 -33 64t-96 23h-62l16 107h41q67 0 110 29.5t43 81.5q0 37 -27 60t-68 23q-44 0 -79.5 -24.5t-49.5 -70.5
h-119q23 99 96.5 151t164.5 52q85 0 144 -49t59 -130q0 -113 -108 -169z" />
    <glyph glyph-name="four.ss03" horiz-adv-x="622" 
d="M569 154h-97l-22 -154h-120l22 154h-320l14 97l392 450h111l-62 -439h97zM185 262h182l36 254z" />
    <glyph glyph-name="five.ss03" horiz-adv-x="575" 
d="M425 246q0 48 -28 77.5t-77 29.5q-40 0 -72 -20.5t-50 -53.5h-115l83 422h391l-15 -108h-283l-33 -167q50 36 113 36q88 0 147 -58.5t59 -154.5q0 -113 -73.5 -186.5t-200.5 -73.5q-98 0 -155 56t-56 144h121q1 -44 30 -68t72 -24q62 0 102 42.5t40 106.5z" />
    <glyph glyph-name="six.ss03" horiz-adv-x="616" 
d="M380 604q-66 0 -114.5 -58.5t-64.5 -161.5q70 70 174 70q86 0 144 -55t58 -146q0 -120 -79.5 -192t-190.5 -72q-110 0 -172.5 79.5t-62.5 212.5q0 191 84.5 311t238.5 120q90 0 146 -54.5t58 -136.5h-124q-4 37 -28.5 60t-66.5 23zM347 345q-57 0 -98 -38t-41 -99
q0 -47 29 -79t80 -32q59 0 99 39.5t40 102.5q0 48 -29.5 77t-79.5 29z" />
    <glyph glyph-name="seven.ss03" horiz-adv-x="569" 
d="M99 592l15 109h489l-14 -100q-119 -108 -201 -251.5t-119 -309.5l-9 -40h-121l9 39q76 329 290 553h-339z" />
    <glyph glyph-name="eight.ss03" horiz-adv-x="611" 
d="M279 -11q-100 0 -163.5 54.5t-63.5 138.5q0 123 125 184q-24 15 -43.5 51.5t-19.5 78.5q0 93 72.5 154.5t182.5 61.5q93 0 152.5 -53t59.5 -137q0 -109 -105 -166q31 -18 54 -57t23 -88q0 -103 -76.5 -162.5t-197.5 -59.5zM319 304q-61 0 -103 -32t-42 -84
q0 -42 32.5 -66.5t82.5 -24.5q60 0 102 29t42 84q0 44 -32 69t-82 25zM361 604q-49 0 -88 -27.5t-39 -80.5q0 -37 26.5 -60t73.5 -23q55 0 90 29t35 77q0 42 -29 63.5t-69 21.5z" />
    <glyph glyph-name="nine.ss03" horiz-adv-x="598" 
d="M272 97q66 0 114.5 58.5t64.5 161.5q-70 -70 -174 -70q-86 0 -144 55t-58 146q0 120 79.5 192t190.5 72q110 0 172.5 -79.5t62.5 -212.5q0 -191 -84.5 -311t-238.5 -120q-90 0 -146 54.5t-58 136.5h124q4 -37 28.5 -60t66.5 -23zM305 356q57 0 98 38t41 99q0 47 -29 79
t-80 32q-59 0 -99 -39.5t-40 -102.5q0 -48 29.5 -77t79.5 -29z" />
    <glyph glyph-name="A.ss03" 
d="M474 701l174 -701h-121l-48 189h-268l-100 -189h-130l373 701h120zM394 539l-126 -240h185z" />
    <glyph glyph-name="Aacute.ss03" 
d="M474 701l174 -701h-121l-48 189h-268l-100 -189h-130l373 701h120zM394 539l-126 -240h185zM437 872h151l-123 -103h-128z" />
    <glyph glyph-name="Agrave.ss03" 
d="M474 701l174 -701h-121l-48 189h-268l-100 -189h-130l373 701h120zM394 539l-126 -240h185zM275 872h146l72 -103h-123z" />
    <glyph glyph-name="Acircumflex.ss03" 
d="M474 701l174 -701h-121l-48 189h-268l-100 -189h-130l373 701h120zM394 539l-126 -240h185zM369 872h136l77 -103h-109l-40 44l-52 -44h-117z" />
    <glyph glyph-name="Adieresis.ss03" 
d="M474 701l174 -701h-121l-48 189h-268l-100 -189h-130l373 701h120zM394 539l-126 -240h185zM272 769l14 103h115l-14 -103h-115zM457 769l14 103h115l-14 -103h-115z" />
    <glyph glyph-name="Atilde.ss03" 
d="M474 701l174 -701h-121l-48 189h-268l-100 -189h-130l373 701h120zM394 539l-126 -240h185zM504 872h80q-7 -49 -36.5 -81.5t-67.5 -32.5q-21 0 -40 7l-39 15q-18 8 -32 8q-22 0 -27 -24h-80q7 49 36.5 81.5t67.5 32.5q22 0 41 -7l38 -15q24 -8 32 -8q22 0 27 24z" />
    <glyph glyph-name="Aring.ss03" 
d="M321 772q0 47 33 79t77 32q41 0 68.5 -25t27.5 -67q0 -59 -52 -93l173 -698h-121l-48 189h-268l-100 -189h-130l371 698q-31 26 -31 74zM394 539l-126 -240h185zM383 777q0 -15 9.5 -25t24.5 -10q18 0 32 12t14 32q0 16 -9.5 25.5t-24.5 9.5q-18 0 -32 -12.5t-14 -31.5z
" />
    <glyph glyph-name="AE.ss03" horiz-adv-x="921" 
d="M823 0h-296l-48 189h-268l-100 -189h-130l373 701h567l-15 -108h-405l45 -181h318l-16 -109h-275l48 -195h217zM394 539l-126 -240h185z" />
    <glyph glyph-name="C.ss03" horiz-adv-x="637" 
d="M417 606q-77 0 -132.5 -46.5t-79.5 -113.5t-24 -144q0 -91 40.5 -149t123.5 -58q98 0 175 86l65 -84q-106 -108 -254 -108q-125 0 -196 85.5t-71 218.5q0 172 102 295.5t262 123.5q76 0 125 -27.5t92 -83.5l-82 -79q-50 84 -146 84z" />
    <glyph glyph-name="Ccedilla.ss03" horiz-adv-x="637" 
d="M304 -137h-120l86 131h6q-100 18 -156 100t-56 199q0 172 102 295.5t262 123.5q76 0 125 -27.5t92 -83.5l-82 -79q-50 84 -146 84q-77 0 -132.5 -46.5t-79.5 -113.5t-24 -144q0 -91 40.5 -149t123.5 -58q98 0 175 86l65 -84q-91 -92 -208 -105z" />
    <glyph glyph-name="D.ss03" horiz-adv-x="675" 
d="M365 594h-116l-68 -489h116q109 0 170.5 81.5t61.5 211.5q0 91 -42 143.5t-122 52.5zM148 700h228q123 0 195.5 -82t72.5 -220q0 -184 -102.5 -291t-263.5 -107h-228z" />
    <glyph glyph-name="Edieresis.ss03" horiz-adv-x="642" 
d="M50 0l99 701h493l-16 -108h-374l-25 -181h357l-15 -109h-357l-28 -195h374l-15 -108h-493zM260 769l14 103h115l-14 -103h-115zM445 769l14 103h115l-14 -103h-115z" />
    <glyph glyph-name="Idieresis.ss03" horiz-adv-x="279" 
d="M50 0l99 701h119l-99 -701h-119zM67 769l14 103h115l-14 -103h-115zM252 769l14 103h115l-14 -103h-115z" />
    <glyph glyph-name="G.ss03" horiz-adv-x="752" 
d="M587 259h-173l15 108h285l-52 -367h-101l10 76q-37 -40 -94.5 -63.5t-118.5 -23.5q-132 0 -214.5 86.5t-82.5 224.5q0 179 119.5 295.5t291.5 116.5q89 0 155.5 -36t105.5 -96l-86 -77q-64 100 -187 100q-115 0 -195.5 -83.5t-80.5 -206.5q0 -94 53 -154.5t138 -60.5
q83 0 138.5 43t73.5 118z" />
    <glyph glyph-name="J.ss03" horiz-adv-x="561" 
d="M377 241l64 460h120l-65 -462q-35 -250 -256 -250q-109 0 -164 66.5t-40 173.5l3 21h120l-3 -21q-10 -68 16.5 -100t73.5 -32q59 0 89.5 35t41.5 109z" />
    <glyph glyph-name="M.ss03" horiz-adv-x="878" 
d="M354 0l-117 487l-68 -487h-119l99 701h151l127 -546l281 546h159l-99 -701h-120l68 487l-252 -487h-110z" />
    <glyph glyph-name="O.ss03" horiz-adv-x="720" 
d="M64 298q0 172 101 293t261 121q125 0 196.5 -89t71.5 -222q0 -113 -43.5 -206t-127 -149.5t-190.5 -56.5q-124 0 -196.5 88t-72.5 221zM181 302q0 -90 41.5 -148.5t122.5 -58.5q76 0 131 46.5t79 114t24 144.5q0 89 -41 147.5t-121 58.5q-77 0 -132.5 -46.5t-79.5 -113.5
t-24 -144z" />
    <glyph glyph-name="Oacute.ss03" horiz-adv-x="720" 
d="M64 298q0 172 101 293t261 121q125 0 196.5 -89t71.5 -222q0 -113 -43.5 -206t-127 -149.5t-190.5 -56.5q-124 0 -196.5 88t-72.5 221zM181 302q0 -90 41.5 -148.5t122.5 -58.5q76 0 131 46.5t79 114t24 144.5q0 89 -41 147.5t-121 58.5q-77 0 -132.5 -46.5t-79.5 -113.5
t-24 -144zM461 872h151l-123 -103h-128z" />
    <glyph glyph-name="Ograve.ss03" horiz-adv-x="720" 
d="M64 298q0 172 101 293t261 121q125 0 196.5 -89t71.5 -222q0 -113 -43.5 -206t-127 -149.5t-190.5 -56.5q-124 0 -196.5 88t-72.5 221zM181 302q0 -90 41.5 -148.5t122.5 -58.5q76 0 131 46.5t79 114t24 144.5q0 89 -41 147.5t-121 58.5q-77 0 -132.5 -46.5t-79.5 -113.5
t-24 -144zM305 872h146l72 -103h-123z" />
    <glyph glyph-name="Ocircumflex.ss03" horiz-adv-x="720" 
d="M64 298q0 172 101 293t261 121q125 0 196.5 -89t71.5 -222q0 -113 -43.5 -206t-127 -149.5t-190.5 -56.5q-124 0 -196.5 88t-72.5 221zM181 302q0 -90 41.5 -148.5t122.5 -58.5q76 0 131 46.5t79 114t24 144.5q0 89 -41 147.5t-121 58.5q-77 0 -132.5 -46.5t-79.5 -113.5
t-24 -144zM382 872h136l77 -103h-109l-40 44l-52 -44h-117z" />
    <glyph glyph-name="Odieresis.ss03" horiz-adv-x="720" 
d="M64 298q0 172 101 293t261 121q125 0 196.5 -89t71.5 -222q0 -113 -43.5 -206t-127 -149.5t-190.5 -56.5q-124 0 -196.5 88t-72.5 221zM181 302q0 -90 41.5 -148.5t122.5 -58.5q76 0 131 46.5t79 114t24 144.5q0 89 -41 147.5t-121 58.5q-77 0 -132.5 -46.5t-79.5 -113.5
t-24 -144zM288 769l14 103h115l-14 -103h-115zM473 769l14 103h115l-14 -103h-115z" />
    <glyph glyph-name="Otilde.ss03" horiz-adv-x="720" 
d="M64 298q0 172 101 293t261 121q125 0 196.5 -89t71.5 -222q0 -113 -43.5 -206t-127 -149.5t-190.5 -56.5q-124 0 -196.5 88t-72.5 221zM181 302q0 -90 41.5 -148.5t122.5 -58.5q76 0 131 46.5t79 114t24 144.5q0 89 -41 147.5t-121 58.5q-77 0 -132.5 -46.5t-79.5 -113.5
t-24 -144zM526 872h80q-7 -49 -36.5 -81.5t-67.5 -32.5q-21 0 -40 7l-39 15q-18 8 -32 8q-22 0 -27 -24h-80q7 49 36.5 81.5t67.5 32.5q22 0 41 -7l38 -15q24 -8 32 -8q22 0 27 24z" />
    <glyph glyph-name="Q.ss03" horiz-adv-x="725" 
d="M64 304q0 112 44 204.5t127.5 148.5t190.5 56q126 0 197 -86.5t71 -219.5q0 -91 -32.5 -172t-90.5 -133l100 9l-16 -111h-322q-125 0 -197 86t-72 218zM181 308q0 -89 41.5 -145.5t122.5 -56.5q77 0 131.5 45.5t78.5 111.5t24 143q0 88 -40.5 144.5t-121.5 56.5
q-77 0 -132 -45t-79.5 -111t-24.5 -143z" />
    <glyph glyph-name="R.ss03" horiz-adv-x="671" 
d="M595 0h-123l-8 113q-6 89 -35.5 119t-108.5 30h-114l-37 -262h-119l99 701h272q108 0 168.5 -54.5t60.5 -143.5q0 -71 -39.5 -124.5t-103.5 -75.5q39 -23 53.5 -60.5t20.5 -96.5zM406 593h-154l-31 -223h154q75 0 114.5 33.5t39.5 94.5q0 45 -31 70t-92 25z" />
    <glyph glyph-name="Udieresis.ss03" horiz-adv-x="702" 
d="M528 311l55 390h120l-56 -400q-22 -157 -104.5 -234.5t-212.5 -77.5t-199.5 86t-48.5 236l55 390h120l-55 -391q-30 -213 133 -213t193 214zM279 769l14 103h115l-14 -103h-115zM464 769l14 103h115l-14 -103h-115z" />
    <glyph glyph-name="Ydieresis.ss03" horiz-adv-x="635" 
d="M214 701l122 -326l212 326h133l-299 -456l-35 -245h-119l35 245l-171 456h122zM252 769l14 103h115l-14 -103h-115zM437 769l14 103h115l-14 -103h-115z" />
    <glyph glyph-name="a.ss03" horiz-adv-x="524" 
d="M184 -11q-71 0 -113.5 39.5t-42.5 100.5q0 135 200 161l116 15l2 13q13 82 -70 82q-34 0 -56.5 -16t-29.5 -44h-116q15 77 71.5 119.5t141.5 42.5q84 0 134 -52.5t38 -133.5l-24 -166q-5 -34 3 -44.5t34 -10.5h11l-14 -95q-29 -2 -52 -2q-73 0 -79 53q-66 -62 -154 -62z
M142 136q0 -22 16.5 -34t44.5 -12q51 0 85 27t42 84l2 15l-112 -17q-78 -11 -78 -63z" />
    <glyph glyph-name="aacute.ss03" horiz-adv-x="524" 
d="M184 -11q-71 0 -113.5 39.5t-42.5 100.5q0 135 200 161l116 15l2 13q13 82 -70 82q-34 0 -56.5 -16t-29.5 -44h-116q15 77 71.5 119.5t141.5 42.5q84 0 134 -52.5t38 -133.5l-24 -166q-5 -34 3 -44.5t34 -10.5h11l-14 -95q-29 -2 -52 -2q-73 0 -79 53q-66 -62 -154 -62z
M142 136q0 -22 16.5 -34t44.5 -12q51 0 85 27t42 84l2 15l-112 -17q-78 -11 -78 -63zM329 701h140l-137 -131h-112z" />
    <glyph glyph-name="agrave.ss03" horiz-adv-x="524" 
d="M184 -11q-71 0 -113.5 39.5t-42.5 100.5q0 135 200 161l116 15l2 13q13 82 -70 82q-34 0 -56.5 -16t-29.5 -44h-116q15 77 71.5 119.5t141.5 42.5q84 0 134 -52.5t38 -133.5l-24 -166q-5 -34 3 -44.5t34 -10.5h11l-14 -95q-29 -2 -52 -2q-73 0 -79 53q-66 -62 -154 -62z
M142 136q0 -22 16.5 -34t44.5 -12q51 0 85 27t42 84l2 15l-112 -17q-78 -11 -78 -63zM190 701h140l73 -131h-112z" />
    <glyph glyph-name="acircumflex.ss03" horiz-adv-x="524" 
d="M184 -11q-71 0 -113.5 39.5t-42.5 100.5q0 135 200 161l116 15l2 13q13 82 -70 82q-34 0 -56.5 -16t-29.5 -44h-116q15 77 71.5 119.5t141.5 42.5q84 0 134 -52.5t38 -133.5l-24 -166q-5 -34 3 -44.5t34 -10.5h11l-14 -95q-29 -2 -52 -2q-73 0 -79 53q-66 -62 -154 -62z
M142 136q0 -22 16.5 -34t44.5 -12q51 0 85 27t42 84l2 15l-112 -17q-78 -11 -78 -63zM259 701h129l79 -131h-108l-42 60l-58 -60h-115z" />
    <glyph glyph-name="adieresis.ss03" horiz-adv-x="524" 
d="M184 -11q-71 0 -113.5 39.5t-42.5 100.5q0 135 200 161l116 15l2 13q13 82 -70 82q-34 0 -56.5 -16t-29.5 -44h-116q15 77 71.5 119.5t141.5 42.5q84 0 134 -52.5t38 -133.5l-24 -166q-5 -34 3 -44.5t34 -10.5h11l-14 -95q-29 -2 -52 -2q-73 0 -79 53q-66 -62 -154 -62z
M142 136q0 -22 16.5 -34t44.5 -12q51 0 85 27t42 84l2 15l-112 -17q-78 -11 -78 -63zM159 598l14 103h115l-14 -103h-115zM344 598l14 103h115l-14 -103h-115z" />
    <glyph glyph-name="atilde.ss03" horiz-adv-x="524" 
d="M184 -11q-71 0 -113.5 39.5t-42.5 100.5q0 135 200 161l116 15l2 13q13 82 -70 82q-34 0 -56.5 -16t-29.5 -44h-116q15 77 71.5 119.5t141.5 42.5q84 0 134 -52.5t38 -133.5l-24 -166q-5 -34 3 -44.5t34 -10.5h11l-14 -95q-29 -2 -52 -2q-73 0 -79 53q-66 -62 -154 -62z
M142 136q0 -22 16.5 -34t44.5 -12q51 0 85 27t42 84l2 15l-112 -17q-78 -11 -78 -63zM392 701h80q-7 -49 -36.5 -81.5t-67.5 -32.5q-21 0 -40 7l-39 15q-18 8 -32 8q-22 0 -27 -24h-80q7 49 36.5 81.5t67.5 32.5q22 0 41 -7l38 -15q24 -8 32 -8q22 0 27 24z" />
    <glyph glyph-name="aring.ss03" horiz-adv-x="524" 
d="M184 -11q-71 0 -113.5 39.5t-42.5 100.5q0 135 200 161l116 15l2 13q13 82 -70 82q-34 0 -56.5 -16t-29.5 -44h-116q15 77 71.5 119.5t141.5 42.5q84 0 134 -52.5t38 -133.5l-24 -166q-5 -34 3 -44.5t34 -10.5h11l-14 -95q-29 -2 -52 -2q-73 0 -79 53q-66 -62 -154 -62z
M142 136q0 -22 16.5 -34t44.5 -12q51 0 85 27t42 84l2 15l-112 -17q-78 -11 -78 -63zM323 712q31 0 51 -21t20 -52q0 -36 -27.5 -61t-65.5 -25q-31 0 -51 21.5t-20 51.5q0 38 27 62t66 24zM309 609q11 0 18.5 7t7.5 18q0 8 -5.5 14t-14.5 6q-11 0 -18.5 -7t-7.5 -17
q0 -21 20 -21z" />
    <glyph glyph-name="ae.ss03" horiz-adv-x="858" 
d="M615 398q-44 0 -75.5 -28.5t-44.5 -67.5h210q4 38 -16.5 67t-73.5 29zM458 425q71 77 171 77q97 0 145 -61t48 -151q0 -18 -2.5 -38t-5.5 -31l-2 -11h-335q-4 -55 26 -86.5t85 -31.5q78 0 137 69l66 -72q-93 -100 -217 -100q-126 0 -179 89q-66 -89 -193 -89
q-71 0 -113.5 39.5t-42.5 100.5q0 135 200 161l116 15l2 13q13 82 -70 82q-34 0 -56.5 -16t-29.5 -44h-116q15 77 71.5 119.5t141.5 42.5q106 0 153 -77zM160 136q0 -22 16.5 -34t44.5 -12q51 0 85 27t42 84l2 15l-112 -17q-78 -11 -78 -63z" />
    <glyph glyph-name="edieresis.ss03" horiz-adv-x="545" 
d="M162 211h335q10 39 10 79q0 84 -48.5 148t-143.5 64q-117 0 -193 -84t-76 -203q0 -98 58.5 -162t155.5 -64q129 0 219 97l-69 75q-57 -69 -141 -69q-51 0 -80 32.5t-27 86.5zM306 398q48 0 68 -29.5t16 -66.5h-209q13 40 45.5 68t79.5 28zM181 598l14 103h115l-14 -103
h-115zM366 598l14 103h115l-14 -103h-115z" />
    <glyph glyph-name="i.ss03" horiz-adv-x="254" 
d="M39 0l69 490h114l-69 -490h-114zM116 576l18 125h121l-18 -125h-121z" />
    <glyph glyph-name="idieresis.ss03" horiz-adv-x="276" 
d="M48 0l69 490h114l-69 -490h-114zM37 598l14 103h115l-14 -103h-115zM223 598l14 103h115l-14 -103h-115z" />
    <glyph glyph-name="j.ss03" horiz-adv-x="310" 
d="M86 -8l70 498h113l-72 -515q-13 -92 -63.5 -133t-147.5 -41l-44 1l14 102q15 -1 26 -1q53 0 75 18t29 71zM165 576l17 125h121l-17 -125h-121z" />
    <glyph glyph-name="odieresis.ss03" horiz-adv-x="597" 
d="M47 223q0 121 83 200t204 79q97 0 160.5 -64t63.5 -167q0 -121 -83 -201.5t-204 -80.5q-97 0 -160.5 65t-63.5 169zM163 223q0 -58 32.5 -94.5t86.5 -36.5q66 0 112 50.5t46 124.5q0 58 -32 94.5t-85 36.5q-67 0 -113.5 -50.5t-46.5 -124.5zM204 598l14 103h115l-14 -103
h-115zM389 598l14 103h115l-14 -103h-115z" />
    <glyph glyph-name="udieresis.ss03" horiz-adv-x="559" 
d="M220 490l-41 -293q-1 -8 -1 -24q0 -39 20.5 -60.5t58.5 -21.5q48 0 79.5 34t39.5 89l39 276h114l-69 -490h-112l5 40q-51 -51 -126 -51t-119 48.5t-44 129.5q0 15 4 49l39 274h113zM181 598l14 103h115l-14 -103h-115zM366 598l14 103h115l-14 -103h-115z" />
    <glyph glyph-name="y.ss03" horiz-adv-x="546" 
d="M172 -21l8 15l-124 496h125l78 -354l180 354h129l-297 -549q-20 -37 -35.5 -59t-40 -42.5t-58 -29.5t-80.5 -9l-44 1l15 107q14 -1 26 -1q49 0 73 15.5t45 55.5z" />
    <glyph glyph-name="yacute.ss03" horiz-adv-x="546" 
d="M172 -21l8 15l-124 496h125l78 -354l180 354h129l-297 -549q-20 -37 -35.5 -59t-40 -42.5t-58 -29.5t-80.5 -9l-44 1l15 107q14 -1 26 -1q49 0 73 15.5t45 55.5zM366 701h140l-137 -131h-112z" />
    <glyph glyph-name="ydieresis.ss03" horiz-adv-x="546" 
d="M181 598l14 103h115l-14 -103h-115zM366 598l14 103h115l-14 -103h-115zM172 -21l8 15l-124 496h125l78 -354l180 354h129l-297 -549q-20 -37 -35.5 -59t-40 -42.5t-58 -29.5t-80.5 -9l-44 1l15 107q14 -1 26 -1q49 0 73 15.5t45 55.5z" />
    <glyph glyph-name="period.ss03" horiz-adv-x="332" 
d="M70 0l18 131h131l-18 -131h-131z" />
    <glyph glyph-name="colon.ss03" horiz-adv-x="332" 
d="M70 0l18 131h131l-18 -131h-131zM121 359l18 131h131l-18 -131h-131z" />
    <glyph glyph-name="comma.ss03" horiz-adv-x="334" 
d="M76 0l19 131h130l-13 -96q-12 -85 -48.5 -130t-109.5 -49l10 69q31 4 46 22.5t20 52.5h-54z" />
    <glyph glyph-name="semicolon.ss03" horiz-adv-x="334" 
d="M76 0l19 131h130l-13 -96q-12 -85 -48.5 -130t-109.5 -49l10 69q31 4 46 22.5t20 52.5h-54zM122 359l18 131h131l-18 -131h-131z" />
    <glyph glyph-name="ellipsis.ss03" horiz-adv-x="773" 
d="M32 0l18 131h131l-18 -131h-131zM290 0l18 131h131l-18 -131h-131zM548 0l18 131h131l-18 -131h-131z" />
    <glyph glyph-name="question.ss03" horiz-adv-x="539" 
d="M303 211h-118l3 18q16 104 108 166l34 23q43 29 62 51t19 52q0 37 -29 59.5t-71 22.5q-47 0 -83.5 -26t-45.5 -72h-118q18 94 90.5 150.5t167.5 56.5q91 0 150 -55t59 -135q0 -58 -31.5 -99.5t-87.5 -79.5l-25 -17q-43 -30 -60 -50t-23 -58zM149 0l18 131h131l-18 -131
h-131z" />
    <glyph glyph-name="questiondown.ss03" horiz-adv-x="539" 
d="M362 279h-118l-1 -7q-5 -33 -23 -53.5t-60 -49.5l-25 -17q-56 -38 -87.5 -79.5t-31.5 -99.5q0 -79 58.5 -129t150.5 -50q95 0 167.5 56.5t90.5 150.5h-118q-9 -46 -47 -72t-85 -26q-42 0 -69.5 19t-27.5 52q0 30 19 52t62 51l34 23q93 62 108 161zM398 490l-18 -131h-131
l18 131h131z" />
    <glyph glyph-name="exclam.ss03" horiz-adv-x="326" 
d="M104 211l69 490h118l-69 -490h-118zM69 0l18 131h131l-18 -131h-131z" />
    <glyph glyph-name="exclamdown.ss03" horiz-adv-x="326" 
d="M231 279l-66 -473h-118l66 473h118zM269 490l-18 -131h-138l18 131h138z" />
    <glyph glyph-name="quotedblright.ss03" horiz-adv-x="470" 
d="M121 570l19 131h131l-14 -97q-12 -83 -48.5 -125.5t-110.5 -52.5l10 69q32 7 46.5 24.5t19.5 50.5h-53zM320 570l19 131h131l-14 -97q-11 -83 -47.5 -125.5t-110.5 -52.5l10 69q32 7 46.5 24.5t19.5 50.5h-54z" />
    <glyph glyph-name="quotedblleft.ss03" horiz-adv-x="470" 
d="M508 563l-19 -131h-131l14 97q12 83 48.5 125.5t110.5 52.5l-10 -69q-32 -7 -46.5 -24.5t-19.5 -50.5h53zM309 563l-19 -131h-131l14 97q11 83 47.5 125.5t110.5 52.5l-10 -69q-32 -7 -46.5 -24.5t-19.5 -50.5h54z" />
    <glyph glyph-name="quoteleft.ss03" horiz-adv-x="270" 
d="M247 557l-18 -131h-131l14 97q12 82 48.5 125t110.5 53l-10 -68q-32 -8 -47 -25.5t-20 -50.5h53z" />
    <glyph glyph-name="quoteright.ss03" horiz-adv-x="270" 
d="M181 570l18 131h131l-14 -97q-12 -82 -48.5 -125t-110.5 -53l10 68q32 8 47 25.5t20 50.5h-53z" />
    <glyph glyph-name="quotesinglbase.ss03" horiz-adv-x="270" 
d="M41 0l19 131h130l-13 -96q-12 -83 -48 -126t-111 -53l10 69q32 7 46.5 24.5t19.5 50.5h-53z" />
    <glyph glyph-name="quotedblbase.ss03" horiz-adv-x="470" 
d="M41 0l19 131h131l-14 -97q-12 -82 -48.5 -125t-110.5 -53l10 69q32 7 46.5 24.5t19.5 50.5h-53zM240 0l19 131h131l-14 -97q-12 -82 -48.5 -125t-109.5 -53l10 69q32 7 46.5 24.5t19.5 50.5h-54z" />
    <glyph glyph-name="dieresis.ss03" horiz-adv-x="556" 
d="M181 598l14 103h115l-14 -103h-115zM366 598l14 103h115l-14 -103h-115z" />
    </font>
</defs>
</svg>
