<?xml version="1.0" standalone="no"?>
<!DOCTYPE svg PUBLIC "-//W3C//DTD SVG 1.1//EN" "http://www.w3.org/Graphics/SVG/1.1/DTD/svg11.dtd" >
<svg>
<metadata>
Created by FontForge 20120731 at Fri May 20 22:59:14 2016
 By ,,,
Copyright (c) 2012 by 205 Corp. All rights reserved.
</metadata>
<defs>
<font id="Maax-Bold" horiz-adv-x="701" >
  <font-face 
    font-family="Maax"
    font-weight="700"
    font-stretch="normal"
    units-per-em="1000"
    panose-1="2 0 5 3 0 0 0 2 0 3"
    ascent="750"
    descent="-250"
    x-height="490"
    cap-height="701"
    bbox="-39 -220 1859 889"
    underline-thickness="74"
    underline-position="-56"
    unicode-range="U+0020-FB02"
  />
<missing-glyph horiz-adv-x="1938" 
d="M257 137h299v-137h-465v68q0 88 50 154t151 96l58 17q60 18 60 48q0 17 -16.5 28t-45.5 11q-47 0 -89.5 -24.5t-68.5 -61.5l-93 93q38 60 101 95t137 35q95 0 160 -47t65 -128q0 -67 -43.5 -108.5t-131.5 -68.5l-61 -18q-61 -17 -67 -52zM958 -11q-120 0 -208 79t-88 206
t88 206t208 79t208 -79t88 -206t-88 -206t-208 -79zM958 422q-64 0 -106 -41.5t-42 -106.5t42 -107t106 -42t106 42t42 107t-42 106.5t-106 41.5zM1710 91q0 -44 -31.5 -73t-82.5 -29q-81 0 -139 79l-106 -104q37 -51 99.5 -81.5t136.5 -30.5q122 0 197 66t75 178
q0 105 -68.5 167t-165.5 62q-62 0 -111 -31l6 116h283v137h-422l-17 -417h137q12 31 40 48t62 17q48 0 77.5 -30.5t29.5 -73.5z" />
    <glyph glyph-name="arrowwest" unicode="&#x3c;&#x2d;" horiz-adv-x="815" 
d="M454 511l-155 -153h465v-137h-462l152 -146l-90 -98l-313 313l313 312z" />
    <glyph glyph-name="arrownorth" unicode="&#x7c;^" horiz-adv-x="727" 
d="M585 310l-153 153v-463h-137v461l-146 -151l-98 90l313 312l312 -312z" />
    <glyph glyph-name="arroweast" unicode="&#x2d;&#x3e;" horiz-adv-x="815" 
d="M505 358l-155 153l90 91l313 -312l-313 -313l-90 98l152 146h-462v137h465z" />
    <glyph glyph-name="arrowsouth" unicode="&#x7c;v" horiz-adv-x="727" 
d="M432 238l153 153l91 -90l-312 -312l-313 312l98 90l146 -151v461h137v-463z" />
    <glyph glyph-name="arrowwest2" unicode="&#x3c;&#x2d;&#x2d;" horiz-adv-x="1111" 
d="M454 511l-155 -153h761v-137h-758l152 -146l-90 -98l-313 313l313 312z" />
    <glyph glyph-name="arrowwest3" unicode="&#x3c;&#x2d;&#x2d;&#x2d;" horiz-adv-x="1396" 
d="M454 511l-155 -153h1046v-137h-1043l152 -146l-90 -98l-313 313l313 312z" />
    <glyph glyph-name="arroweast2" unicode="&#x2d;&#x2d;&#x3e;" horiz-adv-x="1111" 
d="M801 358l-155 153l90 91l313 -312l-313 -313l-90 98l152 146h-758v137h761z" />
    <glyph glyph-name="arroweast3" unicode="&#x2d;&#x2d;&#x2d;&#x3e;" horiz-adv-x="1396" 
d="M1086 358l-155 153l90 91l313 -312l-313 -313l-90 98l152 146h-1043v137h1046z" />
    <glyph glyph-name=".notdef" horiz-adv-x="1938" 
d="M257 137h299v-137h-465v68q0 88 50 154t151 96l58 17q60 18 60 48q0 17 -16.5 28t-45.5 11q-47 0 -89.5 -24.5t-68.5 -61.5l-93 93q38 60 101 95t137 35q95 0 160 -47t65 -128q0 -67 -43.5 -108.5t-131.5 -68.5l-61 -18q-61 -17 -67 -52zM958 -11q-120 0 -208 79t-88 206
t88 206t208 79t208 -79t88 -206t-88 -206t-208 -79zM958 422q-64 0 -106 -41.5t-42 -106.5t42 -107t106 -42t106 42t42 107t-42 106.5t-106 41.5zM1710 91q0 -44 -31.5 -73t-82.5 -29q-81 0 -139 79l-106 -104q37 -51 99.5 -81.5t136.5 -30.5q122 0 197 66t75 178
q0 105 -68.5 167t-165.5 62q-62 0 -111 -31l6 116h283v137h-422l-17 -417h137q12 31 40 48t62 17q48 0 77.5 -30.5t29.5 -73.5z" />
    <glyph glyph-name=".null" horiz-adv-x="0" 
 />
    <glyph glyph-name="nonmarkingreturn" horiz-adv-x="333" 
 />
    <glyph glyph-name="space" unicode=" " horiz-adv-x="279" 
 />
    <glyph glyph-name="exclam" unicode="!" horiz-adv-x="332" 
d="M92 226v475h147v-475h-147zM80 78q0 36 24.5 61t60.5 25t61.5 -25.5t25.5 -60.5q0 -36 -25.5 -61t-61.5 -25t-60.5 25t-24.5 61z" />
    <glyph glyph-name="quotedbl" unicode="&#x22;" horiz-adv-x="479" 
d="M57 701h142v-279h-142v279zM279 701h142v-279h-142v279z" />
    <glyph glyph-name="numbersign" unicode="#" horiz-adv-x="872" 
d="M63 291h143l36 121h-127v132h163l46 157h141l-45 -157h142l44 157h143l-46 -157h106v-132h-142l-35 -121h125v-134h-162l-44 -157h-143l46 157h-143l-45 -157h-142l46 157h-107v134zM383 412l-35 -121h142l36 121h-143z" />
    <glyph glyph-name="dollar" unicode="$" horiz-adv-x="667" 
d="M279 -114v107q-74 10 -134.5 45.5t-99.5 84.5l102 103q53 -70 132 -92v156q-101 18 -159 71t-58 139q0 87 62 142.5t155 66.5v106h111v-109q120 -22 201 -106l-100 -105q-45 47 -101 67v-142q225 -41 225 -217q0 -85 -60.5 -142t-164.5 -69v-106h-111zM467 201
q0 50 -77 69v-141q36 7 56.5 26.5t20.5 45.5zM210 507q0 -48 69 -67v133q-32 -7 -50.5 -24t-18.5 -42z" />
    <glyph glyph-name="percent" unicode="%" horiz-adv-x="841" 
d="M51 561q0 64 44 107.5t108 43.5q63 0 106.5 -43.5t43.5 -107.5q0 -63 -43.5 -107t-106.5 -44q-64 0 -108 44t-44 107zM160 561q0 -20 12.5 -32.5t30.5 -12.5q16 0 28.5 13t12.5 32q0 20 -12.5 32.5t-28.5 12.5q-18 0 -30.5 -12.5t-12.5 -32.5zM488 139q0 65 44 108.5
t108 43.5q63 0 106.5 -44t43.5 -108q0 -63 -43.5 -106.5t-106.5 -43.5q-64 0 -108 43.5t-44 106.5zM596 139q0 -20 13 -32t31 -12q16 0 28.5 12.5t12.5 31.5q0 21 -12.5 33.5t-28.5 12.5q-18 0 -31 -12.5t-13 -33.5zM129 0l431 701h152l-430 -701h-153z" />
    <glyph glyph-name="ampersand" unicode="&#x26;" 
d="M496 0l-37 43q-75 -54 -176 -54q-116 0 -176.5 62t-60.5 148q0 67 34 119t93 82l7 4q-57 74 -57 143q0 71 54 118t141 47q82 0 136 -49t54 -119q0 -54 -26.5 -92.5t-83.5 -76.5l-14 -10l83 -102q23 47 36 102h149q-25 -131 -95 -224l110 -141h-171zM286 121q50 0 87 29
l-112 148l-5 -3q-66 -34 -66 -89q0 -35 27 -60t69 -25zM316 579q-19 0 -32 -13t-13 -32q0 -27 28 -61l5 -6l11 6q49 27 49 64q0 18 -13 30t-35 12z" />
    <glyph glyph-name="quotesingle" unicode="'" horiz-adv-x="256" 
d="M57 701h142v-279h-142v279z" />
    <glyph glyph-name="parenleft" unicode="(" horiz-adv-x="390" 
d="M199 260q0 -222 162 -377l-92 -88q-94 83 -153 202.5t-59 262.5t58.5 262t153.5 203l92 -88q-162 -155 -162 -377z" />
    <glyph glyph-name="parenright" unicode=")" horiz-adv-x="390" 
d="M179 260q0 222 -162 377l92 88q94 -83 153 -202.5t59 -262.5t-58.5 -262t-153.5 -203l-92 88q162 155 162 377z" />
    <glyph glyph-name="asterisk" unicode="*" horiz-adv-x="481" 
d="M327 560l73 -88l-93 -72l-66 95l-65 -95l-94 74l72 86l-108 26l27 107l112 -30l-4 112h118l-4 -112l112 30l28 -107z" />
    <glyph glyph-name="plus" unicode="+" horiz-adv-x="638" 
d="M74 180v132h178v178h132v-178h180v-132h-180v-180h-132v180h-178z" />
    <glyph glyph-name="comma" unicode="," horiz-adv-x="310" 
d="M138 -138h-132l97 258h156z" />
    <glyph glyph-name="hyphen" unicode="-" horiz-adv-x="502" 
d="M63 198v128h376v-128h-376z" />
    <glyph glyph-name="period" unicode="." horiz-adv-x="332" 
d="M80 76q0 36 24.5 61t60.5 25t61.5 -25t25.5 -61t-25.5 -61t-61.5 -25t-60.5 25t-24.5 61z" />
    <glyph glyph-name="slash" unicode="/" horiz-adv-x="549" 
d="M79 0l295 701h147l-293 -701h-149z" />
    <glyph glyph-name="zero" unicode="0" horiz-adv-x="648" 
d="M454 351q0 105 -33.5 165t-96.5 60t-96.5 -60t-33.5 -165t33.5 -165.5t96.5 -60.5t96.5 60.5t33.5 165.5zM46 351q0 162 74 261.5t204 99.5t204 -100t74 -261q0 -162 -74 -262t-204 -100t-204 100t-74 262z" />
    <glyph glyph-name="one" unicode="1" horiz-adv-x="570" 
d="M57 137h171v379q-66 -44 -171 -44v133q60 3 111 26t74 70h134v-564h165v-137h-484v137z" />
    <glyph glyph-name="two" unicode="2" horiz-adv-x="618" 
d="M221 137h331v-137h-501v23q0 128 51 211.5t178 147.5l39 19q52 26 69.5 50t17.5 51q0 32 -26 53t-71 21q-106 0 -162 -112l-96 96q32 67 100.5 109.5t150.5 42.5q104 0 178.5 -55t74.5 -153q0 -77 -42.5 -128.5t-124.5 -93.5l-61 -31q-49 -25 -74 -50t-32 -64z" />
    <glyph glyph-name="three" unicode="3" horiz-adv-x="593" 
d="M441 366q40 -20 67.5 -63t27.5 -102q0 -100 -75 -156t-189 -56q-74 0 -141 31t-108 81l100 101q61 -77 155 -77q49 0 79.5 21t30.5 59q0 82 -133 82h-58v138h47q126 0 126 79q0 31 -25 51.5t-67 20.5q-87 0 -141 -68l-97 97q95 107 234 107q102 0 173.5 -49t71.5 -145
q0 -100 -78 -152z" />
    <glyph glyph-name="four" unicode="4" horiz-adv-x="628" 
d="M588 148h-97v-148h-148v148h-315v122l300 431h163v-422h97v-131zM182 279h161v235z" />
    <glyph glyph-name="five" unicode="5" horiz-adv-x="621" 
d="M422 228q0 47 -32.5 78t-82.5 31q-78 0 -106 -67h-137l17 431h433v-137h-294l-6 -129q48 32 117 32q97 0 168 -63.5t71 -167.5q0 -111 -77.5 -179t-199.5 -68q-76 0 -140.5 30.5t-101.5 80.5l106 105q60 -80 147 -80q50 0 84 28.5t34 74.5z" />
    <glyph glyph-name="six" unicode="6" horiz-adv-x="638" 
d="M333 -11q-131 0 -206.5 98.5t-75.5 269.5q0 161 80.5 258t218.5 97q64 0 122 -26.5t95 -68.5l-96 -99q-48 58 -127 58q-63 0 -107 -48.5t-45 -126.5q56 64 152 64q100 0 171.5 -66t71.5 -171q0 -108 -74.5 -173.5t-179.5 -65.5zM439 229q0 46 -30 75t-75 29t-75 -29
t-30 -75q0 -45 30 -74.5t75 -29.5t75 29.5t30 74.5z" />
    <glyph glyph-name="seven" unicode="7" horiz-adv-x="575" 
d="M34 458v243h512v-129q-209 -217 -236 -532l-3 -40h-151l4 39q26 306 206 525h-188v-106h-144z" />
    <glyph glyph-name="eight" unicode="8" horiz-adv-x="622" 
d="M311 -11q-111 0 -182.5 57.5t-71.5 154.5q0 55 25 96.5t63 63.5q-71 58 -71 139q0 94 67.5 153t169.5 59t169.5 -59t67.5 -153q0 -81 -70 -139q37 -22 62 -63.5t25 -96.5q0 -97 -71.5 -154.5t-182.5 -57.5zM400 500q0 35 -26 55.5t-63 20.5q-36 0 -62.5 -20.5
t-26.5 -55.5t26.5 -55.5t62.5 -20.5q37 0 63 20.5t26 55.5zM205 209q0 -39 29.5 -61.5t76.5 -22.5q48 0 77 22.5t29 61.5t-29 62t-77 23q-47 0 -76.5 -23t-29.5 -62z" />
    <glyph glyph-name="nine" unicode="9" horiz-adv-x="633" 
d="M300 712q131 0 206 -98.5t75 -269.5q0 -161 -80.5 -258t-217.5 -97q-64 0 -122 26.5t-95 68.5l96 100q46 -59 126 -59q63 0 107.5 48.5t45.5 126.5q-56 -64 -153 -64q-99 0 -170.5 66t-71.5 171q0 108 74.5 173.5t179.5 65.5zM194 472q0 -46 29.5 -75t75.5 -29
q45 0 75 29t30 75t-30 75t-75 29q-46 0 -75.5 -29t-29.5 -75z" />
    <glyph glyph-name="colon" unicode=":" horiz-adv-x="332" 
d="M80 76q0 36 24.5 61t60.5 25t61.5 -25t25.5 -61t-25.5 -61t-61.5 -25t-60.5 25t-24.5 61zM80 411q0 36 24.5 61t60.5 25t61.5 -25t25.5 -61t-25.5 -61t-61.5 -25t-60.5 25t-24.5 61z" />
    <glyph glyph-name="semicolon" unicode=";" horiz-adv-x="334" 
d="M93 415q0 36 25 61.5t61 25.5t61.5 -25.5t25.5 -61.5t-25.5 -61t-61.5 -25t-61 25t-25 61zM142 -138h-132l97 258h156z" />
    <glyph glyph-name="less" unicode="&#x3c;" horiz-adv-x="628" 
d="M51 171v148l503 183v-150l-320 -107l320 -107v-149z" />
    <glyph glyph-name="equal" unicode="=" horiz-adv-x="650" 
d="M74 308v127h502v-127h-502zM74 89v128h502v-128h-502z" />
    <glyph glyph-name="greater" unicode="&#x3e;" horiz-adv-x="628" 
d="M566 319v-148l-503 -182v149l320 107l-320 107v150z" />
    <glyph glyph-name="question" unicode="?" horiz-adv-x="552" 
d="M311 226h-146v180h47q58 0 96.5 26t38.5 68q0 33 -26.5 54t-67.5 21q-89 0 -142 -81l-94 100q37 55 99 86.5t136 31.5q102 0 172.5 -60t70.5 -155q0 -79 -50.5 -136.5t-133.5 -74.5v-60zM154 78q0 35 25 60.5t60 25.5q36 0 61.5 -25.5t25.5 -60.5q0 -36 -25.5 -61
t-61.5 -25q-35 0 -60 25t-25 61z" />
    <glyph glyph-name="at" unicode="@" horiz-adv-x="1065" 
d="M668 48q-64 -59 -154 -59q-107 0 -176 71t-69 185q0 111 67 184t172 73q78 0 126 -45v33h137v-321q0 -33 8.5 -49.5t33.5 -16.5q34 0 61 47.5t27 113.5q0 153 -92.5 246.5t-264.5 93.5q-161 0 -268 -96.5t-107 -260.5q0 -161 108 -252.5t284 -91.5q94 0 193 26v-106
q-92 -28 -199 -28q-227 0 -365.5 122t-138.5 330q0 214 140 339.5t353 125.5q215 0 345 -119t130 -317q0 -122 -66.5 -204.5t-165.5 -82.5q-81 0 -119 59zM414 243q0 -52 28.5 -90t79.5 -38t79.5 38t28.5 90t-28.5 89t-79.5 37t-79.5 -37t-28.5 -89z" />
    <glyph glyph-name="A" unicode="A" horiz-adv-x="712" 
d="M427 701l274 -701h-154l-56 138h-271l-55 -138h-154l274 701h142zM356 499l-87 -229h174z" />
    <glyph glyph-name="B" unicode="B" horiz-adv-x="687" 
d="M68 0v701h315q110 0 176 -50t66 -144q0 -86 -72 -142q89 -63 89 -160q0 -92 -66.5 -148.5t-175.5 -56.5h-332zM217 137h149q62 0 94 18.5t32 62.5q0 77 -122 77h-153v-158zM353 564h-136v-144h142q116 0 116 72q0 40 -28.5 56t-93.5 16z" />
    <glyph glyph-name="C" unicode="C" horiz-adv-x="731" 
d="M598 226l99 -105q-108 -132 -285 -132q-161 0 -266.5 99t-105.5 261q0 164 105 263.5t262 99.5q172 0 279 -132l-100 -102q-31 44 -79.5 69.5t-106.5 25.5q-82 0 -144.5 -59.5t-62.5 -161.5q0 -104 62 -164t153 -60q118 0 190 98z" />
    <glyph glyph-name="D" unicode="D" horiz-adv-x="730" 
d="M68 0v701h231q75 0 141.5 -19t124 -58t91.5 -108.5t34 -160.5q0 -92 -34 -162.5t-91 -111t-124.5 -61t-141.5 -20.5h-231zM276 564h-59v-427h60q262 0 262 218q0 209 -263 209z" />
    <glyph glyph-name="E" unicode="E" horiz-adv-x="648" 
d="M68 0v701h517v-137h-368v-139h351v-135h-351v-153h368v-137h-517z" />
    <glyph glyph-name="F" unicode="F" horiz-adv-x="591" 
d="M217 0h-149v701h483v-137h-334v-152h311v-136h-311v-276z" />
    <glyph glyph-name="G" unicode="G" horiz-adv-x="754" 
d="M412 253v137h285v-281q-51 -53 -126.5 -86.5t-164.5 -33.5q-155 0 -260.5 101t-105.5 259q0 164 105 263.5t262 99.5q172 0 279 -132l-100 -102q-31 44 -79.5 69.5t-106.5 25.5q-82 0 -144.5 -59.5t-62.5 -161.5q0 -101 62 -162.5t153 -61.5q85 0 143 42v83h-139z" />
    <glyph glyph-name="H" unicode="H" horiz-adv-x="727" 
d="M511 0v290h-294v-290h-149v701h149v-275h294v275h148v-701h-148z" />
    <glyph glyph-name="I" unicode="I" horiz-adv-x="296" 
d="M74 0v701h148v-701h-148z" />
    <glyph glyph-name="J" unicode="J" horiz-adv-x="506" 
d="M6 98l100 99q37 -72 99 -72q45 0 70.5 29t25.5 81v466h148v-460q0 -122 -63 -187t-177 -65q-138 0 -203 109z" />
    <glyph glyph-name="K" unicode="K" horiz-adv-x="666" 
d="M68 0v701h149v-286l226 286h177l-240 -300l263 -401h-171l-187 286l-68 -87v-199h-149z" />
    <glyph glyph-name="L" unicode="L" horiz-adv-x="565" 
d="M68 0v701h149v-564h320v-137h-469z" />
    <glyph glyph-name="M" unicode="M" horiz-adv-x="832" 
d="M350 142l-133 256v-398h-149v701h149l199 -393l200 393h148v-701h-148v398l-134 -256h-132z" />
    <glyph glyph-name="N" unicode="N" horiz-adv-x="747" 
d="M500 0l-283 473v-473h-149v701h179l283 -475v475h148v-701h-178z" />
    <glyph glyph-name="O" unicode="O" horiz-adv-x="803" 
d="M40 351q0 156 104 258.5t256 102.5q153 0 258 -102.5t105 -258.5q0 -157 -105 -259.5t-258 -102.5q-152 0 -256 102.5t-104 259.5zM193 351q0 -94 57 -158t154 -64q95 0 151.5 64t56.5 158q0 92 -58.5 156.5t-149.5 64.5q-96 0 -153.5 -64t-57.5 -157z" />
    <glyph glyph-name="P" unicode="P" horiz-adv-x="654" 
d="M352 222h-135v-222h-149v701h284q124 0 199 -63.5t75 -171.5q0 -109 -76 -176.5t-198 -67.5zM326 564h-109v-205h109q152 0 152 104q0 53 -37.5 77t-114.5 24z" />
    <glyph glyph-name="Q" unicode="Q" horiz-adv-x="820" 
d="M40 351q0 156 104 258.5t256 102.5q153 0 258 -102.5t105 -258.5q0 -117 -64 -210l75 -75l-95 -94l-76 75q-91 -58 -203 -58q-152 0 -256 102.5t-104 259.5zM415 236l95 95l81 -82q21 47 21 102q0 92 -58.5 156.5t-149.5 64.5q-96 0 -153.5 -64t-57.5 -157q0 -94 57 -158
t154 -64q56 0 96 21z" />
    <glyph glyph-name="R" unicode="R" horiz-adv-x="677" 
d="M474 0l-138 225h-119v-225h-149v701h290q117 0 192.5 -61t75.5 -168q0 -74 -37.5 -131.5t-100.5 -87.5l155 -253h-169zM332 564h-115v-203h115q146 0 146 103q0 51 -35.5 75.5t-110.5 24.5z" />
    <glyph glyph-name="S" unicode="S" horiz-adv-x="644" 
d="M358 275l-86 15q-103 17 -162 70t-59 140q0 97 76.5 154.5t182.5 57.5q164 0 270 -112l-100 -105q-79 81 -178 81q-47 0 -75 -19t-28 -50q0 -56 100 -74l69 -11q236 -38 236 -219q0 -96 -76.5 -155t-202.5 -59q-92 0 -168 37.5t-123 96.5l102 103q78 -101 198 -101
q57 0 89.5 21.5t32.5 54.5q0 56 -98 74z" />
    <glyph glyph-name="T" unicode="T" horiz-adv-x="606" 
d="M28 701h550v-137h-201v-564h-148v564h-201v137z" />
    <glyph glyph-name="U" unicode="U" horiz-adv-x="702" 
d="M497 306v395h148v-390q0 -157 -78 -239.5t-216 -82.5t-216 82.5t-78 239.5v390h148v-397q0 -80 37 -129.5t109 -49.5q146 0 146 181z" />
    <glyph glyph-name="V" unicode="V" horiz-adv-x="645" 
d="M324 193l164 508h152l-240 -701h-154l-240 701h151z" />
    <glyph glyph-name="W" unicode="W" horiz-adv-x="953" 
d="M176 701l108 -449l113 449h159l113 -449l108 449h159l-187 -701h-152l-120 463l-121 -463h-152l-187 701h159z" />
    <glyph glyph-name="X" unicode="X" horiz-adv-x="685" 
d="M210 701l132 -222l133 222h174l-218 -342l231 -359h-173l-147 236l-146 -236h-173l231 359l-218 342h174z" />
    <glyph glyph-name="Y" unicode="Y" horiz-adv-x="625" 
d="M168 701l144 -295l145 295h162l-234 -456v-245h-147v245l-232 456h162z" />
    <glyph glyph-name="Z" unicode="Z" horiz-adv-x="655" 
d="M54 701h539v-131l-354 -433h365v-137h-553v131l354 433h-351v137z" />
    <glyph glyph-name="bracketleft" unicode="[" horiz-adv-x="375" 
d="M68 -194v895h279v-130h-137v-635h137v-130h-279z" />
    <glyph glyph-name="backslash" unicode="\" horiz-adv-x="544" 
d="M158 701l295 -701h-149l-293 701h147z" />
    <glyph glyph-name="bracketright" unicode="]" horiz-adv-x="375" 
d="M296 701v-895h-279v130h137v635h-137v130h279z" />
    <glyph glyph-name="asciicircum" unicode="^" horiz-adv-x="667" 
d="M399 701l217 -365h-152l-131 221l-131 -221h-151l216 365h132z" />
    <glyph glyph-name="underscore" unicode="_" horiz-adv-x="616" 
d="M51 -194v128h513v-128h-513z" />
    <glyph glyph-name="grave" unicode="`" horiz-adv-x="556" 
d="M121 701h180l74 -142h-134z" />
    <glyph glyph-name="a" unicode="a" horiz-adv-x="526" 
d="M204 -11q-78 0 -124 43.5t-46 111.5q0 77 56 117.5t138 40.5q50 0 98 -14v8q0 35 -22 57.5t-60 22.5q-67 0 -105 -57l-90 86q81 97 205 97q93 0 154 -52.5t61 -143.5v-306h-141v32q-49 -43 -124 -43zM177 153q0 -19 17 -31.5t44 -12.5q48 0 88 30v56q-38 9 -66 9
q-40 0 -61.5 -14t-21.5 -37z" />
    <glyph glyph-name="b" unicode="b" horiz-adv-x="611" 
d="M576 245q0 -116 -70.5 -186t-174.5 -70q-80 0 -128 46v-35h-140v701h142v-242q49 43 126 43q104 0 174.5 -71.5t70.5 -185.5zM203 245q0 -56 32.5 -92t81.5 -36t81.5 36t32.5 92t-32.5 92t-81.5 36t-81.5 -36t-32.5 -92z" />
    <glyph glyph-name="c" unicode="c" horiz-adv-x="537" 
d="M412 186l96 -93q-79 -104 -215 -104q-111 0 -185 73t-74 183t74.5 183.5t184.5 73.5q117 0 205 -98l-96 -93q-47 57 -104 57q-51 0 -85 -34.5t-34 -88.5t34 -88.5t85 -34.5q64 0 114 64z" />
    <glyph glyph-name="d" unicode="d" horiz-adv-x="610" 
d="M34 245q0 114 70.5 185.5t174.5 71.5q77 0 126 -43v242h142v-701h-140v35q-48 -46 -128 -46q-104 0 -174.5 70t-70.5 186zM407 245q0 56 -32.5 92t-81.5 36t-81.5 -36t-32.5 -92t32.5 -92t81.5 -36t81.5 36t32.5 92z" />
    <glyph glyph-name="e" unicode="e" horiz-adv-x="547" 
d="M511 209h-332q6 -40 35 -65t75 -25q75 0 120 57l94 -88q-79 -99 -210 -99q-112 0 -185 69.5t-73 183.5q0 112 67.5 186t173.5 74q112 0 174 -75t62 -176zM279 377q-38 0 -62 -20.5t-31 -52.5h176q-2 31 -25 52t-58 21z" />
    <glyph glyph-name="f" unicode="f" horiz-adv-x="363" 
d="M303 702l37 -1v-134h-24q-47 0 -67.5 -17t-20.5 -54v-6h108v-131h-108v-359h-141v359h-64v131h64v14q0 99 58.5 148.5t157.5 49.5z" />
    <glyph glyph-name="g" unicode="g" horiz-adv-x="598" 
d="M393 35v13q-42 -37 -119 -37q-105 0 -172.5 66t-67.5 179q0 114 70 180t170 66q71 0 122 -47v35h140v-439q0 -114 -70.5 -185t-194.5 -71q-144 0 -223 99l99 95q44 -63 123 -63q56 0 89.5 30t33.5 79zM396 256q0 52 -31.5 84.5t-77.5 32.5q-45 0 -76.5 -32.5t-31.5 -84.5
q0 -51 31.5 -83.5t76.5 -32.5q46 0 77.5 32.5t31.5 83.5z" />
    <glyph glyph-name="h" unicode="h" horiz-adv-x="570" 
d="M205 245v-245h-142v701h142v-239q44 40 114 40q91 0 145.5 -57t54.5 -160v-285h-143v274q0 42 -20 69t-61 27q-90 0 -90 -125z" />
    <glyph glyph-name="i" unicode="i" horiz-adv-x="279" 
d="M68 0v490h143v-490h-143zM57 629q0 35 24 59t58 24q35 0 59 -24t24 -59q0 -34 -24.5 -58t-58.5 -24t-58 24t-24 58z" />
    <glyph glyph-name="j" unicode="j" horiz-adv-x="284" 
d="M62 629q0 35 24 59t58 24t58.5 -24.5t24.5 -58.5t-24.5 -58t-58.5 -24t-58 24t-24 58zM73 -7v497h142v-514q0 -175 -172 -175l-66 2v130h31q33 0 49 12.5t16 47.5z" />
    <glyph glyph-name="k" unicode="k" horiz-adv-x="545" 
d="M63 0v701h142v-366l136 155h179l-181 -202l189 -288h-173l-117 186l-33 -36v-150h-142z" />
    <glyph glyph-name="l" unicode="l" horiz-adv-x="268" 
d="M63 0v701h142v-701h-142z" />
    <glyph glyph-name="m" unicode="m" horiz-adv-x="861" 
d="M205 251v-251h-142v490h140v-34q48 46 118 46q85 0 136 -59q59 59 147 59q98 0 151.5 -56.5t53.5 -160.5v-285h-142v279q0 41 -19 66t-56 25q-40 0 -62.5 -29t-22.5 -80v-261h-142v279q0 41 -19 66t-56 25q-42 0 -63.5 -31t-21.5 -88z" />
    <glyph glyph-name="n" unicode="n" horiz-adv-x="570" 
d="M205 245v-245h-142v490h140v-34q48 46 116 46q91 0 145.5 -57t54.5 -160v-285h-143v274q0 42 -20 69t-61 27q-90 0 -90 -125z" />
    <glyph glyph-name="o" unicode="o" horiz-adv-x="588" 
d="M35 245q0 110 74.5 183.5t184.5 73.5t184.5 -73.5t74.5 -183.5t-74 -183t-185 -73t-185 73t-74 183zM180 245q0 -54 32 -89t82 -35t82 35t32 89t-32 89t-82 35t-82 -35t-32 -89z" />
    <glyph glyph-name="p" unicode="p" horiz-adv-x="610" 
d="M576 245q0 -114 -70.5 -185t-174.5 -71q-78 0 -126 42v-225h-142v684h140v-35q49 47 128 47q104 0 174.5 -70.5t70.5 -186.5zM203 245q0 -56 32.5 -92t81.5 -36t81.5 36t32.5 92t-32.5 92t-81.5 36t-81.5 -36t-32.5 -92z" />
    <glyph glyph-name="q" unicode="q" horiz-adv-x="610" 
d="M34 245q0 116 70.5 186.5t174.5 70.5q79 0 128 -47v35h140v-684h-142v225q-48 -42 -126 -42q-104 0 -174.5 71t-70.5 185zM407 245q0 56 -32.5 92t-81.5 36t-81.5 -36t-32.5 -92t32.5 -92t81.5 -36t81.5 36t32.5 92z" />
    <glyph glyph-name="r" unicode="r" horiz-adv-x="385" 
d="M363 496v-137h-22q-62 0 -99 -39.5t-37 -114.5v-205h-142v490h140v-44q43 51 122 51q24 0 38 -1z" />
    <glyph glyph-name="s" unicode="s" horiz-adv-x="488" 
d="M272 171l-65 16q-160 40 -160 160q0 70 55.5 112.5t134.5 42.5q111 0 197 -77l-87 -92q-58 48 -116 48q-21 0 -33.5 -8.5t-12.5 -20.5q0 -18 35 -26l73 -17q161 -38 161 -162q0 -70 -55.5 -114t-149.5 -44q-68 0 -126 28t-89 67l87 89q66 -65 140 -65q22 0 38.5 9
t16.5 23q0 20 -44 31z" />
    <glyph glyph-name="t" unicode="t" horiz-adv-x="376" 
d="M252 -2q-171 0 -171 175v186h-64v131h64v137h141v-137h109v-131h-109v-169q0 -35 16 -47.5t49 -12.5h42v-130q-38 -2 -77 -2z" />
    <glyph glyph-name="u" unicode="u" horiz-adv-x="559" 
d="M353 239v251h143v-490h-140v34q-44 -45 -122 -45q-86 0 -134.5 56.5t-48.5 159.5v285h143v-279q0 -41 19 -66t56 -25q84 0 84 119z" />
    <glyph glyph-name="v" unicode="v" horiz-adv-x="506" 
d="M500 490l-174 -490h-146l-174 490h151l96 -303l96 303h151z" />
    <glyph glyph-name="w" unicode="w" horiz-adv-x="784" 
d="M471 490l81 -293l69 293h152l-138 -490h-155l-88 302l-88 -302h-155l-138 490h152l70 -293l80 293h158z" />
    <glyph glyph-name="x" unicode="x" horiz-adv-x="524" 
d="M188 490l74 -125l74 125h160l-154 -238l165 -252h-159l-86 139l-85 -139h-160l165 252l-154 238h160z" />
    <glyph glyph-name="y" unicode="y" horiz-adv-x="546" 
d="M267 -194h-150l80 194l-191 490h158l110 -303l114 303h152z" />
    <glyph glyph-name="z" unicode="z" horiz-adv-x="515" 
d="M57 490h396v-114l-216 -248h227v-128h-413v114l213 249h-207v127z" />
    <glyph glyph-name="braceleft" unicode="{" horiz-adv-x="434" 
d="M293 504v-501q0 -40 17.5 -57t53.5 -17h42v-128h-67q-96 0 -143.5 43t-47.5 145v197h-108v135h108v198q0 102 47.5 145t143.5 43h67v-129h-42q-36 0 -53.5 -17t-17.5 -57z" />
    <glyph glyph-name="bar" unicode="|" horiz-adv-x="378" 
d="M120 -194v895h139v-895h-139z" />
    <glyph glyph-name="braceright" unicode="}" horiz-adv-x="434" 
d="M130 3v501q0 40 -17.5 57t-53.5 17h-42v129h67q96 0 143.5 -43t47.5 -145v-198h108v-135h-108v-197q0 -102 -47.5 -145t-143.5 -43h-67v128h42q36 0 53.5 17t17.5 57z" />
    <glyph glyph-name="asciitilde" unicode="~" horiz-adv-x="515" 
d="M360 348h103q5 -77 -24.5 -124t-90.5 -47q-33 0 -55 8l-68 21q-24 8 -39 8q-31 0 -31 -37h-103q-4 77 25.5 124t90.5 47q25 0 54 -8l69 -22q24 -8 38 -8q31 0 31 38z" />
    <glyph glyph-name="exclamdown" unicode="&#xa1;" horiz-adv-x="332" 
d="M239 268v-462h-147v462h147zM252 416q0 -36 -25 -61.5t-61 -25.5q-35 0 -60.5 25.5t-25.5 61.5t25.5 61t60.5 25q36 0 61 -25t25 -61z" />
    <glyph glyph-name="cent" unicode="&#xa2;" horiz-adv-x="562" 
d="M435 186l96 -93q-64 -84 -163 -100v-107h-110v109q-89 18 -145 86.5t-56 163.5q0 94 56 163t145 88v108h110v-107q82 -15 153 -93l-96 -93q-29 34 -57 47v-228q35 15 67 56zM202 245q0 -73 56 -106v212q-56 -35 -56 -106z" />
    <glyph glyph-name="sterling" unicode="&#xa3;" horiz-adv-x="654" 
d="M63 313v135h65q-1 11 -1 32q0 112 70.5 172t161.5 60q148 0 230 -111l-102 -104q-46 79 -119 79q-44 0 -68.5 -29.5t-24.5 -72.5q0 -18 1 -26h177v-135h-150l38 -174h123v110h133v-249h-534v139h128l-41 174h-87z" />
    <glyph glyph-name="yen" unicode="&#xa5;" horiz-adv-x="670" 
d="M191 701l144 -295l145 295h162l-175 -340h106v-116h-165v-46h165v-116h-165v-83h-147v83h-165v116h165v46h-165v116h106l-173 340h162z" />
    <glyph glyph-name="brokenbar" unicode="&#xa6;" horiz-adv-x="378" 
d="M120 336v365h139v-365h-139zM120 -194v365h139v-365h-139z" />
    <glyph glyph-name="section" unicode="&#xa7;" horiz-adv-x="633" 
d="M576 218q0 -76 -57 -140q33 -45 33 -102q0 -75 -63.5 -128t-163.5 -53q-155 0 -241 139l96 92q62 -98 148 -98q36 0 57.5 12.5t21.5 35.5t-19 38.5t-65 31.5l-82 28q-90 32 -137 81.5t-47 131.5q0 93 72 146q-34 46 -34 106q0 75 61 124t154 49q123 0 220 -110l-95 -95
q-31 36 -60.5 54t-71.5 18q-29 0 -46.5 -13.5t-17.5 -33.5q0 -44 76 -74l62 -24q100 -37 149.5 -85t49.5 -131zM287 201l126 -47q19 23 19 55q0 60 -85 93l-122 48q-23 -18 -23 -56q0 -62 85 -93z" />
    <glyph glyph-name="dieresis" unicode="&#xa8;" horiz-adv-x="556" 
d="M100 638q0 30 21.5 52t52.5 22q30 0 52.5 -22t22.5 -52t-22.5 -52t-52.5 -22q-31 0 -52.5 21.5t-21.5 52.5zM312 638q0 30 21.5 52t52.5 22q30 0 52.5 -22t22.5 -52t-22.5 -52t-52.5 -22q-31 0 -52.5 21.5t-21.5 52.5z" />
    <glyph glyph-name="copyright" unicode="&#xa9;" horiz-adv-x="826" 
d="M51 351q0 152 105.5 256.5t256.5 104.5t256.5 -104.5t105.5 -256.5q0 -154 -105.5 -258t-256.5 -104q-152 0 -257 104t-105 258zM139 351q0 -117 77.5 -196.5t196.5 -79.5q118 0 196 79.5t78 196.5q0 115 -78 195t-196 80q-119 0 -196.5 -79.5t-77.5 -195.5zM506 301
l77 -72q-68 -79 -162 -79q-87 0 -145 56t-58 144t59 143.5t146 55.5q92 0 152 -71l-77 -77q-30 40 -75 40q-35 0 -61 -25.5t-26 -65.5q0 -39 25.5 -65.5t63.5 -26.5q48 0 81 43z" />
    <glyph glyph-name="ordfeminine" unicode="&#xaa;" horiz-adv-x="429" 
d="M165 334q-57 0 -88 31.5t-31 82.5q0 57 41 87t101 30q33 0 63 -10v6q0 25 -14.5 40t-39.5 15q-44 0 -74 -39l-67 64q55 71 151 71q72 0 115.5 -38t43.5 -106v-226h-112v18q-40 -26 -89 -26zM160 455q0 -13 9.5 -20.5t25.5 -7.5q33 0 56 19v31q-24 7 -49 7q-42 0 -42 -29z
" />
    <glyph glyph-name="guillemotleft" unicode="&#xab;" horiz-adv-x="660" 
d="M40 245l137 245h154l-139 -245l139 -245h-154zM330 245l137 245h154l-139 -245l139 -245h-154z" />
    <glyph glyph-name="logicalnot" unicode="&#xac;" horiz-adv-x="627" 
d="M63 198v128h490v-264h-137v136h-353z" />
    <glyph glyph-name="registered" unicode="&#xae;" horiz-adv-x="648" 
d="M51 435q0 115 79 196t193 81t193.5 -81t79.5 -196q0 -114 -79.5 -194.5t-193.5 -80.5t-193 80.5t-79 194.5zM129 435q0 -83 55.5 -141t138.5 -58t139 58t56 141q0 84 -56 142.5t-139 58.5t-138.5 -58.5t-55.5 -142.5zM365 316l-37 64h-27v-64h-86v251h125
q44 0 75.5 -24.5t31.5 -70.5q0 -50 -41 -76l48 -80h-89zM326 497h-25v-46h25q35 0 35 24q0 22 -35 22z" />
    <glyph glyph-name="macron" unicode="&#xaf;" horiz-adv-x="556" 
d="M152 701h250v-117h-250v117z" />
    <glyph glyph-name="degree" unicode="&#xb0;" horiz-adv-x="445" 
d="M51 541q0 72 50 121.5t121 49.5q72 0 121.5 -49.5t49.5 -121.5q0 -71 -49.5 -121t-121.5 -50q-71 0 -121 50t-50 121zM164 541q0 -25 16.5 -42t41.5 -17q23 0 40 17t17 42q0 26 -16.5 43.5t-40.5 17.5q-25 0 -41.5 -17.5t-16.5 -43.5z" />
    <glyph glyph-name="plusminus" unicode="&#xb1;" horiz-adv-x="650" 
d="M74 0v128h502v-128h-502zM80 391v132h178v178h132v-178h180v-132h-180v-180h-132v180h-178z" />
    <glyph glyph-name="twosuperior" unicode="&#xb2;" horiz-adv-x="417" 
d="M187 409h171v-101h-312v24q0 143 116 199l40 20q36 17 36 36q0 22 -33 22q-47 0 -81 -57l-77 77q56 83 159 83q64 0 109 -30.5t45 -89.5q0 -42 -22.5 -70.5t-77.5 -58.5l-25 -14q-43 -23 -48 -40z" />
    <glyph glyph-name="threesuperior" unicode="&#xb3;" horiz-adv-x="397" 
d="M290 513q20 -12 35 -36.5t15 -55.5q0 -65 -47 -95t-112 -30q-89 0 -147 67l75 75q27 -39 75 -39q20 0 30.5 9t10.5 22q0 31 -52 31h-36v95h29q48 0 48 28q0 11 -10 18.5t-24 7.5q-40 0 -68 -26l-68 67q56 61 141 61q59 0 101.5 -28t42.5 -86t-39 -85z" />
    <glyph glyph-name="acute" unicode="&#xb4;" horiz-adv-x="556" 
d="M269 701h180l-120 -142h-134z" />
    <glyph glyph-name="mu" unicode="&#xb5;" horiz-adv-x="576" 
d="M211 5v-199h-143v684h143v-279q0 -41 19 -66t56 -25q84 0 84 119v251h143v-490h-140v34q-43 -45 -101 -45q-32 0 -61 16z" />
    <glyph glyph-name="mu" unicode="&#x3bc;" horiz-adv-x="576" 
d="M211 5v-199h-143v684h143v-279q0 -41 19 -66t56 -25q84 0 84 119v251h143v-490h-140v34q-43 -45 -101 -45q-32 0 -61 16z" />
    <glyph glyph-name="paragraph" unicode="&#xb6;" horiz-adv-x="771" 
d="M291 701h406v-895h-145v762h-93v-762h-144v452h-24q-118 0 -187.5 60t-69.5 161t69.5 161.5t187.5 60.5z" />
    <glyph glyph-name="periodcentered" unicode="&#xb7;" horiz-adv-x="286" 
d="M57 257q0 36 24.5 61t60.5 25t61.5 -25t25.5 -61t-25.5 -61t-61.5 -25t-60.5 25t-24.5 61z" />
    <glyph glyph-name="cedilla" unicode="&#xb8;" horiz-adv-x="560" 
d="M311 -137h-143l71 137h127z" />
    <glyph glyph-name="onesuperior" unicode="&#xb9;" horiz-adv-x="425" 
d="M63 406h100v164q-34 -25 -100 -25v103q81 2 106 53h109v-295h96v-98h-311v98z" />
    <glyph glyph-name="ordmasculine" unicode="&#xba;" horiz-adv-x="481" 
d="M46 521q0 82 56 136.5t139 54.5q82 0 138 -55t56 -136t-56 -135.5t-138 -54.5q-83 0 -139 54.5t-56 135.5zM169 521q0 -39 20.5 -60t51.5 -21q30 0 50.5 21t20.5 60t-20.5 60t-50.5 21q-31 0 -51.5 -21t-20.5 -60z" />
    <glyph glyph-name="guillemotright" unicode="&#xbb;" horiz-adv-x="660" 
d="M182 490l137 -245l-137 -245h-154l139 245l-139 245h154zM472 490l137 -245l-137 -245h-154l139 245l-139 245h154z" />
    <glyph glyph-name="onequarter" unicode="&#xbc;" horiz-adv-x="1027" 
d="M964 67h-59v-67h-115v67h-176v98l135 217h156v-211h59v-104zM723 171h67v106zM52 406h100v164q-34 -25 -100 -25v103q81 2 106 53h109v-295h96v-98h-311v98zM236 0l431 701h153l-431 -701h-153z" />
    <glyph glyph-name="onehalf" unicode="&#xbd;" horiz-adv-x="1051" 
d="M52 406h100v164q-34 -25 -100 -25v103q81 2 106 53h109v-295h96v-98h-311v98zM821 90h171v-101h-312v24q0 143 116 199l40 20q36 17 36 36q0 22 -33 22q-47 0 -81 -57l-77 77q56 83 159 83q64 0 109 -30.5t45 -89.5q0 -42 -22.5 -70.5t-77.5 -58.5l-25 -14
q-43 -23 -48 -40zM236 0l431 701h153l-431 -701h-153z" />
    <glyph glyph-name="threequarters" unicode="&#xbe;" horiz-adv-x="962" 
d="M899 67h-59v-67h-115v67h-176v98l135 217h156v-211h59v-104zM658 171h67v106zM284 513q20 -12 35 -36.5t15 -55.5q0 -65 -47 -95t-112 -30q-89 0 -147 67l75 75q27 -39 75 -39q20 0 30.5 9t10.5 22q0 31 -52 31h-36v95h29q48 0 48 28q0 11 -10 18.5t-24 7.5
q-40 0 -68 -26l-68 67q56 61 141 61q59 0 101.5 -28t42.5 -86t-39 -85zM172 0l431 701h153l-431 -701h-153z" />
    <glyph glyph-name="questiondown" unicode="&#xbf;" horiz-adv-x="552" 
d="M386 268h-145v-58q-84 -17 -134 -72.5t-50 -132.5q0 -95 70 -152.5t173 -57.5q149 0 235 113l-94 100q-49 -75 -142 -75q-41 0 -67.5 20.5t-26.5 53.5q0 41 37 62t98 21h46v178zM398 416q0 -36 -25 -61.5t-61 -25.5t-61 25.5t-25 61.5t25 61t61 25t61 -25t25 -61z" />
    <glyph glyph-name="Agrave" unicode="&#xc0;" 
d="M421 701l274 -701h-154l-56 138h-271l-55 -138h-154l274 701h142zM350 499l-87 -229h174zM190 872h170l74 -103h-146z" />
    <glyph glyph-name="Aacute" unicode="&#xc1;" 
d="M421 701l274 -701h-154l-56 138h-271l-55 -138h-154l274 701h142zM350 499l-87 -229h174zM325 872h170l-98 -103h-146z" />
    <glyph glyph-name="Acircumflex" unicode="&#xc2;" 
d="M421 701l274 -701h-154l-56 138h-271l-55 -138h-154l274 701h142zM350 499l-87 -229h174zM264 872h174l85 -103h-134l-38 40l-38 -40h-135z" />
    <glyph glyph-name="Atilde" unicode="&#xc3;" 
d="M421 701l274 -701h-154l-56 138h-271l-55 -138h-154l274 701h142zM350 499l-87 -229h174zM418 872h91q0 -51 -26.5 -88t-70.5 -37q-7 0 -43 8l-41 13q-17 5 -30 5q-26 0 -27 -26h-91q0 51 26 88t71 37q11 0 43 -7l41 -13q20 -6 30 -6q26 0 27 26z" />
    <glyph glyph-name="Adieresis" unicode="&#xc4;" 
d="M421 701l274 -701h-154l-56 138h-271l-55 -138h-154l274 701h142zM350 499l-87 -229h174zM170 815q0 30 21.5 52t52.5 22q30 0 52.5 -22t22.5 -52t-22.5 -52t-52.5 -22q-31 0 -52.5 21.5t-21.5 52.5zM382 815q0 30 21.5 52t52.5 22q30 0 52.5 -22t22.5 -52t-22.5 -52
t-52.5 -22q-31 0 -52.5 21.5t-21.5 52.5z" />
    <glyph glyph-name="Aring" unicode="&#xc5;" 
d="M243 775q0 47 31.5 77.5t74.5 30.5q45 0 77 -30.5t32 -77.5t-35 -79l272 -696h-154l-56 138h-271l-55 -138h-154l272 697q-34 31 -34 78zM350 499l-87 -229h174zM315 775q0 -13 10 -23t24 -10q13 0 23 10t10 23t-10 23t-23 10q-14 0 -24 -10t-10 -23z" />
    <glyph glyph-name="AE" unicode="&#xc6;" horiz-adv-x="927" 
d="M870 701v-137h-396l55 -139h324v-135h-272l60 -153h229v-137h-329l-56 138h-271l-55 -138h-154l274 701h591zM350 499l-87 -229h174z" />
    <glyph glyph-name="Ccedilla" unicode="&#xc7;" horiz-adv-x="731" 
d="M407 -137h-143l69 133q-131 23 -212 117.5t-81 235.5q0 164 105 263.5t262 99.5q172 0 279 -132l-100 -102q-31 44 -79.5 69.5t-106.5 25.5q-82 0 -144.5 -59.5t-62.5 -161.5q0 -104 62 -164t153 -60q118 0 190 98l99 -105q-94 -114 -239 -129z" />
    <glyph glyph-name="Egrave" unicode="&#xc8;" horiz-adv-x="642" 
d="M68 0v701h517v-137h-368v-139h351v-135h-351v-153h368v-137h-517zM185 872h170l74 -103h-146z" />
    <glyph glyph-name="Eacute" unicode="&#xc9;" horiz-adv-x="642" 
d="M68 0v701h517v-137h-368v-139h351v-135h-351v-153h368v-137h-517zM303 872h170l-98 -103h-146z" />
    <glyph glyph-name="Ecircumflex" unicode="&#xca;" horiz-adv-x="642" 
d="M68 0v701h517v-137h-368v-139h351v-135h-351v-153h368v-137h-517zM244 872h174l85 -103h-134l-38 40l-38 -40h-135z" />
    <glyph glyph-name="Edieresis" unicode="&#xcb;" horiz-adv-x="642" 
d="M68 0v701h517v-137h-368v-139h351v-135h-351v-153h368v-137h-517zM147 815q0 30 21.5 52t52.5 22q30 0 52.5 -22t22.5 -52t-22.5 -52t-52.5 -22q-31 0 -52.5 21.5t-21.5 52.5zM359 815q0 30 21.5 52t52.5 22q30 0 52.5 -22t22.5 -52t-22.5 -52t-52.5 -22
q-31 0 -52.5 21.5t-21.5 52.5z" />
    <glyph glyph-name="Igrave" unicode="&#xcc;" horiz-adv-x="296" 
d="M74 0v701h148v-701h-148zM-11 872h170l74 -103h-146z" />
    <glyph glyph-name="Iacute" unicode="&#xcd;" horiz-adv-x="296" 
d="M74 0v701h148v-701h-148zM133 872h170l-98 -103h-146z" />
    <glyph glyph-name="Icircumflex" unicode="&#xce;" horiz-adv-x="298" 
d="M74 0v701h148v-701h-148zM62 872h174l85 -103h-134l-38 40l-38 -40h-135z" />
    <glyph glyph-name="Idieresis" unicode="&#xcf;" horiz-adv-x="296" 
d="M74 0v701h148v-701h-148zM-32 815q0 30 21.5 52t52.5 22q30 0 52.5 -22t22.5 -52t-22.5 -52t-52.5 -22q-31 0 -52.5 21.5t-21.5 52.5zM180 815q0 30 21.5 52t52.5 22q30 0 52.5 -22t22.5 -52t-22.5 -52t-52.5 -22q-31 0 -52.5 21.5t-21.5 52.5z" />
    <glyph glyph-name="Eth" unicode="&#xd0;" horiz-adv-x="764" 
d="M102 0v292h-74v131h74v278h231q75 0 141.5 -19t124 -58t91.5 -108.5t34 -160.5q0 -92 -34 -162.5t-91 -111t-124.5 -61t-141.5 -20.5h-231zM310 564h-59v-141h114v-131h-114v-155h60q262 0 262 218q0 209 -263 209z" />
    <glyph glyph-name="Ntilde" unicode="&#xd1;" horiz-adv-x="747" 
d="M500 0l-283 473v-473h-149v701h179l283 -475v475h148v-701h-178zM447 872h91q0 -51 -26.5 -88t-70.5 -37q-7 0 -43 8l-41 13q-17 5 -30 5q-26 0 -27 -26h-91q0 51 26 88t71 37q12 0 43 -7l41 -13q20 -6 30 -6q26 0 27 26z" />
    <glyph glyph-name="Ograve" unicode="&#xd2;" horiz-adv-x="803" 
d="M40 351q0 156 104 258.5t256 102.5q153 0 258 -102.5t105 -258.5q0 -157 -105 -259.5t-258 -102.5q-152 0 -256 102.5t-104 259.5zM193 351q0 -94 57 -158t154 -64q95 0 151.5 64t56.5 158q0 92 -58.5 156.5t-149.5 64.5q-96 0 -153.5 -64t-57.5 -157zM234 872h170
l74 -103h-146z" />
    <glyph glyph-name="Oacute" unicode="&#xd3;" horiz-adv-x="803" 
d="M40 351q0 156 104 258.5t256 102.5q153 0 258 -102.5t105 -258.5q0 -157 -105 -259.5t-258 -102.5q-152 0 -256 102.5t-104 259.5zM193 351q0 -94 57 -158t154 -64q95 0 151.5 64t56.5 158q0 92 -58.5 156.5t-149.5 64.5q-96 0 -153.5 -64t-57.5 -157zM383 872h170
l-98 -103h-146z" />
    <glyph glyph-name="Ocircumflex" unicode="&#xd4;" horiz-adv-x="803" 
d="M40 351q0 156 104 258.5t256 102.5q153 0 258 -102.5t105 -258.5q0 -157 -105 -259.5t-258 -102.5q-152 0 -256 102.5t-104 259.5zM193 351q0 -94 57 -158t154 -64q95 0 151.5 64t56.5 158q0 92 -58.5 156.5t-149.5 64.5q-96 0 -153.5 -64t-57.5 -157zM312 872h174
l85 -103h-134l-38 40l-38 -40h-135z" />
    <glyph glyph-name="Otilde" unicode="&#xd5;" horiz-adv-x="803" 
d="M40 351q0 156 104 258.5t256 102.5q153 0 258 -102.5t105 -258.5q0 -157 -105 -259.5t-258 -102.5q-152 0 -256 102.5t-104 259.5zM193 351q0 -94 57 -158t154 -64q95 0 151.5 64t56.5 158q0 92 -58.5 156.5t-149.5 64.5q-96 0 -153.5 -64t-57.5 -157zM470 872h91
q0 -51 -26.5 -88t-70.5 -37q-7 0 -43 8l-41 13q-17 5 -30 5q-26 0 -27 -26h-91q0 51 26 88t71 37q11 0 43 -7l41 -13q20 -6 30 -6q26 0 27 26z" />
    <glyph glyph-name="Odieresis" unicode="&#xd6;" horiz-adv-x="803" 
d="M40 351q0 156 104 258.5t256 102.5q153 0 258 -102.5t105 -258.5q0 -157 -105 -259.5t-258 -102.5q-152 0 -256 102.5t-104 259.5zM193 351q0 -94 57 -158t154 -64q95 0 151.5 64t56.5 158q0 92 -58.5 156.5t-149.5 64.5q-96 0 -153.5 -64t-57.5 -157zM220 815
q0 30 21.5 52t52.5 22q30 0 52.5 -22t22.5 -52t-22.5 -52t-52.5 -22q-31 0 -52.5 21.5t-21.5 52.5zM432 815q0 30 21.5 52t52.5 22q30 0 52.5 -22t22.5 -52t-22.5 -52t-52.5 -22q-31 0 -52.5 21.5t-21.5 52.5z" />
    <glyph glyph-name="multiply" unicode="&#xd7;" horiz-adv-x="603" 
d="M65 389l95 94l142 -142l141 142l95 -94l-141 -143l143 -143l-94 -95l-144 144l-145 -144l-94 95l144 143z" />
    <glyph glyph-name="Oslash" unicode="&#xd8;" horiz-adv-x="803" 
d="M40 351q0 156 104 258.5t256 102.5q78 0 153 -32l42 60l97 -70l-39 -56q110 -104 110 -263q0 -157 -105 -259.5t-258 -102.5q-88 0 -161 35l-42 -60l-96 69l41 59q-102 104 -102 259zM612 351q0 80 -46 140l-243 -348q37 -14 81 -14q95 0 151.5 64t56.5 158zM193 351
q0 -76 37 -133l240 343q-33 11 -66 11q-96 0 -153.5 -64t-57.5 -157z" />
    <glyph glyph-name="Ugrave" unicode="&#xd9;" horiz-adv-x="702" 
d="M497 306v395h148v-390q0 -157 -78 -239.5t-216 -82.5t-216 82.5t-78 239.5v390h148v-397q0 -80 37 -129.5t109 -49.5q146 0 146 181zM198 872h170l74 -103h-146z" />
    <glyph glyph-name="Uacute" unicode="&#xda;" horiz-adv-x="702" 
d="M497 306v395h148v-390q0 -157 -78 -239.5t-216 -82.5t-216 82.5t-78 239.5v390h148v-397q0 -80 37 -129.5t109 -49.5q146 0 146 181zM332 872h170l-98 -103h-146z" />
    <glyph glyph-name="Ucircumflex" unicode="&#xdb;" horiz-adv-x="702" 
d="M497 306v395h148v-390q0 -157 -78 -239.5t-216 -82.5t-216 82.5t-78 239.5v390h148v-397q0 -80 37 -129.5t109 -49.5q146 0 146 181zM263 872h174l85 -103h-134l-38 40l-38 -40h-135z" />
    <glyph glyph-name="Udieresis" unicode="&#xdc;" horiz-adv-x="702" 
d="M497 306v395h148v-390q0 -157 -78 -239.5t-216 -82.5t-216 82.5t-78 239.5v390h148v-397q0 -80 37 -129.5t109 -49.5q146 0 146 181zM171 815q0 30 21.5 52t52.5 22q30 0 52.5 -22t22.5 -52t-22.5 -52t-52.5 -22q-31 0 -52.5 21.5t-21.5 52.5zM383 815q0 30 21.5 52
t52.5 22q30 0 52.5 -22t22.5 -52t-22.5 -52t-52.5 -22q-31 0 -52.5 21.5t-21.5 52.5z" />
    <glyph glyph-name="Yacute" unicode="&#xdd;" horiz-adv-x="625" 
d="M168 701l144 -295l145 295h162l-234 -456v-245h-147v245l-232 456h162zM298 872h170l-98 -103h-146z" />
    <glyph glyph-name="Thorn" unicode="&#xde;" horiz-adv-x="637" 
d="M335 120h-118v-120h-149v701h149v-103h118q124 0 199 -63t75 -171q0 -109 -76 -176.5t-198 -67.5zM309 462h-92v-206h92q152 0 152 104q0 102 -152 102z" />
    <glyph glyph-name="germandbls" unicode="&#xdf;" horiz-adv-x="633" 
d="M344 120q49 0 77.5 24t28.5 63q0 78 -106 78h-68v131h48q44 0 69 23.5t25 59.5t-26.5 59t-70.5 23q-122 0 -122 -151v-430h-142v430q0 130 73 206t195 76q96 0 166.5 -59t70.5 -147q0 -44 -18 -83t-46 -60q95 -57 95 -162q0 -90 -62.5 -151t-171.5 -61q-98 0 -145 48
l70 101q18 -18 60 -18z" />
    <glyph glyph-name="agrave" unicode="&#xe0;" horiz-adv-x="526" 
d="M204 -11q-78 0 -124 43.5t-46 111.5q0 77 56 117.5t138 40.5q50 0 98 -14v8q0 35 -22 57.5t-60 22.5q-67 0 -105 -57l-90 86q81 97 205 97q93 0 154 -52.5t61 -143.5v-306h-141v32q-49 -43 -124 -43zM177 153q0 -19 17 -31.5t44 -12.5q48 0 88 30v56q-38 9 -66 9
q-40 0 -61.5 -14t-21.5 -37zM104 701h180l74 -142h-134z" />
    <glyph glyph-name="aacute" unicode="&#xe1;" horiz-adv-x="526" 
d="M204 -11q-78 0 -124 43.5t-46 111.5q0 77 56 117.5t138 40.5q50 0 98 -14v8q0 35 -22 57.5t-60 22.5q-67 0 -105 -57l-90 86q81 97 205 97q93 0 154 -52.5t61 -143.5v-306h-141v32q-49 -43 -124 -43zM177 153q0 -19 17 -31.5t44 -12.5q48 0 88 30v56q-38 9 -66 9
q-40 0 -61.5 -14t-21.5 -37zM237 701h180l-120 -142h-134z" />
    <glyph glyph-name="acircumflex" unicode="&#xe2;" horiz-adv-x="526" 
d="M204 -11q-78 0 -124 43.5t-46 111.5q0 77 56 117.5t138 40.5q50 0 98 -14v8q0 35 -22 57.5t-60 22.5q-67 0 -105 -57l-90 86q81 97 205 97q93 0 154 -52.5t61 -143.5v-306h-141v32q-49 -43 -124 -43zM177 153q0 -19 17 -31.5t44 -12.5q48 0 88 30v56q-38 9 -66 9
q-40 0 -61.5 -14t-21.5 -37zM174 701h163l91 -142h-123l-50 59l-49 -59h-123z" />
    <glyph glyph-name="atilde" unicode="&#xe3;" horiz-adv-x="526" 
d="M204 -11q-78 0 -124 43.5t-46 111.5q0 77 56 117.5t138 40.5q50 0 98 -14v8q0 35 -22 57.5t-60 22.5q-67 0 -105 -57l-90 86q81 97 205 97q93 0 154 -52.5t61 -143.5v-306h-141v32q-49 -43 -124 -43zM177 153q0 -19 17 -31.5t44 -12.5q48 0 88 30v56q-38 9 -66 9
q-40 0 -61.5 -14t-21.5 -37zM328 701h91q0 -51 -26.5 -88t-70.5 -37q-7 0 -43 8l-41 13q-17 5 -30 5q-26 0 -27 -26h-91q0 51 26 88t71 37q11 0 43 -7l41 -13q20 -6 30 -6q26 0 27 26z" />
    <glyph glyph-name="adieresis" unicode="&#xe4;" horiz-adv-x="526" 
d="M204 -11q-78 0 -124 43.5t-46 111.5q0 77 56 117.5t138 40.5q50 0 98 -14v8q0 35 -22 57.5t-60 22.5q-67 0 -105 -57l-90 86q81 97 205 97q93 0 154 -52.5t61 -143.5v-306h-141v32q-49 -43 -124 -43zM177 153q0 -19 17 -31.5t44 -12.5q48 0 88 30v56q-38 9 -66 9
q-40 0 -61.5 -14t-21.5 -37zM76 638q0 30 21.5 52t52.5 22q30 0 52.5 -22t22.5 -52t-22.5 -52t-52.5 -22q-31 0 -52.5 21.5t-21.5 52.5zM288 638q0 30 21.5 52t52.5 22q30 0 52.5 -22t22.5 -52t-22.5 -52t-52.5 -22q-31 0 -52.5 21.5t-21.5 52.5z" />
    <glyph glyph-name="aring" unicode="&#xe5;" horiz-adv-x="526" 
d="M204 -11q-78 0 -124 43.5t-46 111.5q0 77 56 117.5t138 40.5q50 0 98 -14v8q0 35 -22 57.5t-60 22.5q-67 0 -105 -57l-90 86q81 97 205 97q93 0 154 -52.5t61 -143.5v-306h-141v32q-49 -43 -124 -43zM177 153q0 -19 17 -31.5t44 -12.5q48 0 88 30v56q-38 9 -66 9
q-40 0 -61.5 -14t-21.5 -37zM169 627q0 35 25.5 60t61.5 25t61.5 -25t25.5 -60t-25.5 -60t-61.5 -25t-61.5 25t-25.5 60zM280 627q0 10 -7 16.5t-17 6.5t-17 -6.5t-7 -16.5t7 -16.5t17 -6.5t17 6.5t7 16.5z" />
    <glyph glyph-name="ae" unicode="&#xe6;" horiz-adv-x="830" 
d="M795 209h-325q4 -40 33 -65t76 -25q69 0 108 62l100 -93q-79 -99 -207 -99q-108 0 -178 64q-81 -64 -180 -64q-86 0 -137 43.5t-51 111.5q0 77 56 117.5t138 40.5h101q0 33 -24 50.5t-61 17.5q-67 0 -105 -53l-90 85q74 100 205 100q91 0 148 -63q66 63 161 63
q112 0 172.5 -74.5t60.5 -176.5zM329 199h-75q-77 0 -77 -47q0 -19 15.5 -31t42.5 -12q59 0 105 40q-8 27 -11 50zM567 377q-74 0 -90 -73h169q-2 32 -23.5 52.5t-55.5 20.5z" />
    <glyph glyph-name="ccedilla" unicode="&#xe7;" horiz-adv-x="537" 
d="M300 -137h-143l69 134q-86 20 -139 88t-53 160q0 110 74.5 183.5t184.5 73.5q117 0 205 -98l-96 -93q-47 57 -104 57q-51 0 -85 -34.5t-34 -88.5t34 -88.5t85 -34.5q64 0 114 64l96 -93q-60 -81 -156 -98z" />
    <glyph glyph-name="egrave" unicode="&#xe8;" horiz-adv-x="545" 
d="M510 209h-332q6 -40 35 -65t75 -25q75 0 120 57l94 -88q-79 -99 -210 -99q-112 0 -185 69.5t-73 183.5q0 112 67.5 186t173.5 74q112 0 174 -75t62 -176zM278 377q-38 0 -62 -20.5t-31 -52.5h176q-2 31 -25 52t-58 21zM103 701h180l74 -142h-134z" />
    <glyph glyph-name="eacute" unicode="&#xe9;" horiz-adv-x="545" 
d="M178 209h332q1 25 1 42q0 101 -62 176t-174 75q-106 0 -173.5 -74t-67.5 -186q0 -114 73 -183.5t185 -69.5q131 0 210 99l-94 88q-45 -57 -120 -57q-46 0 -75 25t-35 65zM278 377q35 0 58 -21t25 -52h-176q7 32 31 52.5t62 20.5zM259 701h180l-120 -142h-134z" />
    <glyph glyph-name="ecircumflex" unicode="&#xea;" horiz-adv-x="545" 
d="M510 209h-332q6 -40 35 -65t75 -25q75 0 120 57l94 -88q-79 -99 -210 -99q-112 0 -185 69.5t-73 183.5q0 112 67.5 186t173.5 74q112 0 174 -75t62 -176zM278 377q-38 0 -62 -20.5t-31 -52.5h176q-2 31 -25 52t-58 21zM191 701h163l91 -142h-123l-50 59l-49 -59h-123z
" />
    <glyph glyph-name="edieresis" unicode="&#xeb;" horiz-adv-x="545" 
d="M178 209h332q1 25 1 42q0 101 -62 176t-174 75q-106 0 -173.5 -74t-67.5 -186q0 -114 73 -183.5t185 -69.5q131 0 210 99l-94 88q-45 -57 -120 -57q-46 0 -75 25t-35 65zM278 377q35 0 58 -21t25 -52h-176q7 32 31 52.5t62 20.5zM95 638q0 30 21.5 52t52.5 22
q30 0 52.5 -22t22.5 -52t-22.5 -52t-52.5 -22q-31 0 -52.5 21.5t-21.5 52.5zM307 638q0 30 21.5 52t52.5 22q30 0 52.5 -22t22.5 -52t-22.5 -52t-52.5 -22q-31 0 -52.5 21.5t-21.5 52.5z" />
    <glyph glyph-name="igrave" unicode="&#xec;" horiz-adv-x="266" 
d="M63 0v490h143v-490h-143zM-39 701h180l74 -142h-134z" />
    <glyph glyph-name="iacute" unicode="&#xed;" horiz-adv-x="268" 
d="M63 0v490h143v-490h-143zM126 701h180l-120 -142h-134z" />
    <glyph glyph-name="icircumflex" unicode="&#xee;" horiz-adv-x="270" 
d="M63 0v490h143v-490h-143zM54 701h163l91 -142h-123l-50 59l-49 -59h-123z" />
    <glyph glyph-name="idieresis" unicode="&#xef;" horiz-adv-x="292" 
d="M74 0v490h143v-490h-143zM-35 638q0 30 21.5 52t52.5 22q30 0 52.5 -22t22.5 -52t-22.5 -52t-52.5 -22q-31 0 -52.5 21.5t-21.5 52.5zM177 638q0 30 21.5 52t52.5 22q30 0 52.5 -22t22.5 -52t-22.5 -52t-52.5 -22q-31 0 -52.5 21.5t-21.5 52.5z" />
    <glyph glyph-name="eth" unicode="&#xf0;" horiz-adv-x="572" 
d="M156 456v108l53 30l-79 107h156l32 -45l97 56v-108l-42 -24l64 -88q90 -124 90 -247q0 -104 -65 -180t-178 -76q-108 0 -176 67.5t-68 168.5q0 105 68 168.5t161 63.5q30 0 49 -8l-52 70zM185 222q0 -42 26 -71t69 -29q44 0 70 29t26 71q0 43 -26 72t-70 29
q-43 0 -69 -29t-26 -72z" />
    <glyph glyph-name="ntilde" unicode="&#xf1;" horiz-adv-x="570" 
d="M205 0v245q0 125 90 125q41 0 61 -27t20 -69v-274h143v285q0 103 -54.5 160t-145.5 57q-68 0 -116 -46v34h-140v-490h142zM364 701h91q0 -51 -26.5 -88t-70.5 -37q-7 0 -43 8l-41 13q-17 5 -30 5q-26 0 -27 -26h-91q0 51 26 88t71 37q11 0 43 -7l41 -13q20 -6 30 -6
q26 0 27 26z" />
    <glyph glyph-name="ograve" unicode="&#xf2;" horiz-adv-x="586" 
d="M34 245q0 110 74.5 183.5t184.5 73.5t184.5 -73.5t74.5 -183.5t-74 -183t-185 -73t-185 73t-74 183zM179 245q0 -54 32 -89t82 -35t82 35t32 89t-32 89t-82 35t-82 -35t-32 -89zM115 701h180l74 -142h-134z" />
    <glyph glyph-name="oacute" unicode="&#xf3;" horiz-adv-x="586" 
d="M34 245q0 110 74.5 183.5t184.5 73.5t184.5 -73.5t74.5 -183.5t-74 -183t-185 -73t-185 73t-74 183zM179 245q0 -54 32 -89t82 -35t82 35t32 89t-32 89t-82 35t-82 -35t-32 -89zM275 701h180l-120 -142h-134z" />
    <glyph glyph-name="ocircumflex" unicode="&#xf4;" horiz-adv-x="586" 
d="M34 245q0 110 74.5 183.5t184.5 73.5t184.5 -73.5t74.5 -183.5t-74 -183t-185 -73t-185 73t-74 183zM179 245q0 -54 32 -89t82 -35t82 35t32 89t-32 89t-82 35t-82 -35t-32 -89zM213 701h163l91 -142h-123l-50 59l-49 -59h-123z" />
    <glyph glyph-name="otilde" unicode="&#xf5;" horiz-adv-x="586" 
d="M34 245q0 110 74.5 183.5t184.5 73.5t184.5 -73.5t74.5 -183.5t-74 -183t-185 -73t-185 73t-74 183zM179 245q0 -54 32 -89t82 -35t82 35t32 89t-32 89t-82 35t-82 -35t-32 -89zM361 701h91q0 -51 -26.5 -88t-70.5 -37q-7 0 -43 8l-41 13q-17 5 -30 5q-26 0 -27 -26h-91
q0 51 26 88t71 37q12 0 43 -7l41 -13q20 -6 30 -6q26 0 27 26z" />
    <glyph glyph-name="odieresis" unicode="&#xf6;" horiz-adv-x="586" 
d="M34 245q0 110 74.5 183.5t184.5 73.5t184.5 -73.5t74.5 -183.5t-74 -183t-185 -73t-185 73t-74 183zM179 245q0 -54 32 -89t82 -35t82 35t32 89t-32 89t-82 35t-82 -35t-32 -89zM114 638q0 30 21.5 52t52.5 22q30 0 52.5 -22t22.5 -52t-22.5 -52t-52.5 -22
q-31 0 -52.5 21.5t-21.5 52.5zM326 638q0 30 21.5 52t52.5 22q30 0 52.5 -22t22.5 -52t-22.5 -52t-52.5 -22q-31 0 -52.5 21.5t-21.5 52.5z" />
    <glyph glyph-name="divide" unicode="&#xf7;" horiz-adv-x="649" 
d="M244 443q0 34 23 57.5t57 23.5q33 0 57 -23.5t24 -57.5q0 -33 -24 -56t-57 -23q-34 0 -57 23t-23 56zM244 68q0 34 23 57.5t57 23.5q33 0 57 -23.5t24 -57.5q0 -33 -24 -56t-57 -23q-34 0 -57 23t-23 56zM74 195v123h501v-123h-501z" />
    <glyph glyph-name="oslash" unicode="&#xf8;" horiz-adv-x="597" 
d="M40 245q0 110 74.5 183.5t184.5 73.5q55 0 103 -20l32 45l78 -56l-30 -42q76 -74 76 -184t-74 -183t-185 -73q-58 0 -110 22l-33 -47l-77 55l32 46q-71 73 -71 180zM413 245q0 35 -15 64l-129 -184q12 -4 30 -4q50 0 82 35t32 89zM185 245q0 -33 12 -58l125 179
q-12 3 -23 3q-50 0 -82 -35t-32 -89z" />
    <glyph glyph-name="ugrave" unicode="&#xf9;" horiz-adv-x="559" 
d="M353 239v251h143v-490h-140v34q-44 -45 -122 -45q-86 0 -134.5 56.5t-48.5 159.5v285h143v-279q0 -41 19 -66t56 -25q84 0 84 119zM100 701h180l74 -142h-134z" />
    <glyph glyph-name="uacute" unicode="&#xfa;" horiz-adv-x="559" 
d="M353 490v-251q0 -119 -84 -119q-37 0 -56 25t-19 66v279h-143v-285q0 -103 48.5 -159.5t134.5 -56.5q78 0 122 45v-34h140v490h-143zM266 701h180l-120 -142h-134z" />
    <glyph glyph-name="ucircumflex" unicode="&#xfb;" horiz-adv-x="559" 
d="M353 239v251h143v-490h-140v34q-44 -45 -122 -45q-86 0 -134.5 56.5t-48.5 159.5v285h143v-279q0 -41 19 -66t56 -25q84 0 84 119zM188 701h163l91 -142h-123l-50 59l-49 -59h-123z" />
    <glyph glyph-name="udieresis" unicode="&#xfc;" horiz-adv-x="559" 
d="M353 490v-251q0 -119 -84 -119q-37 0 -56 25t-19 66v279h-143v-285q0 -103 48.5 -159.5t134.5 -56.5q78 0 122 45v-34h140v490h-143zM90 638q0 30 21.5 52t52.5 22q30 0 52.5 -22t22.5 -52t-22.5 -52t-52.5 -22q-31 0 -52.5 21.5t-21.5 52.5zM302 638q0 30 21.5 52
t52.5 22q30 0 52.5 -22t22.5 -52t-22.5 -52t-52.5 -22q-31 0 -52.5 21.5t-21.5 52.5z" />
    <glyph glyph-name="yacute" unicode="&#xfd;" horiz-adv-x="546" 
d="M117 -194h150l273 684h-152l-114 -303l-110 303h-158l191 -490zM268 701h180l-120 -142h-134z" />
    <glyph glyph-name="thorn" unicode="&#xfe;" horiz-adv-x="610" 
d="M576 245q0 -114 -70.5 -185t-174.5 -71q-78 0 -126 42v-225h-142v895h140v-246q49 47 128 47q104 0 174.5 -70.5t70.5 -186.5zM203 245q0 -56 32.5 -92t81.5 -36t81.5 36t32.5 92t-32.5 92t-81.5 36t-81.5 -36t-32.5 -92z" />
    <glyph glyph-name="ydieresis" unicode="&#xff;" horiz-adv-x="557" 
d="M123 -194h150l273 684h-152l-114 -303l-110 303h-158l191 -490zM97 638q0 30 21.5 52t52.5 22q30 0 52.5 -22t22.5 -52t-22.5 -52t-52.5 -22q-31 0 -52.5 21.5t-21.5 52.5zM309 638q0 30 21.5 52t52.5 22q30 0 52.5 -22t22.5 -52t-22.5 -52t-52.5 -22q-31 0 -52.5 21.5
t-21.5 52.5z" />
    <glyph glyph-name="dotlessi" unicode="&#x131;" horiz-adv-x="292" 
d="M74 0v490h143v-490h-143z" />
    <glyph glyph-name="Lslash" unicode="&#x141;" horiz-adv-x="616" 
d="M54 260v133l64 19v289h149v-244l70 21v-132l-70 -22v-187h320v-137h-469v279z" />
    <glyph glyph-name="lslash" unicode="&#x142;" horiz-adv-x="402" 
d="M61 260v133l69 20v288h142v-245l72 22v-132l-72 -22v-324h-142v281z" />
    <glyph glyph-name="OE" unicode="&#x152;" horiz-adv-x="960" 
d="M400 0q-154 0 -257 97.5t-103 253.5q0 155 103.5 252.5t256.5 97.5h503v-137h-311v-139h294v-135h-294v-153h311v-137h-503zM193 351q0 -93 57 -153.5t154 -60.5h39v427h-39q-97 0 -154 -60.5t-57 -152.5z" />
    <glyph glyph-name="oe" unicode="&#x153;" horiz-adv-x="918" 
d="M882 209h-331q4 -40 34.5 -65t77.5 -25q73 0 112 62l99 -93q-77 -99 -209 -99q-117 0 -188 83q-71 -83 -184 -83q-111 0 -185 73t-74 183t74.5 183.5t184.5 73.5t184 -84q68 84 171 84q112 0 173.5 -75t61.5 -176zM179 245q0 -54 32 -89t82 -35q49 0 80.5 34t33.5 87v8
q-1 52 -33.5 85.5t-80.5 33.5q-50 0 -82 -35t-32 -89zM651 377q-38 0 -62 -20.5t-32 -52.5h177q-2 31 -25 52t-58 21z" />
    <glyph glyph-name="Scaron" unicode="&#x160;" horiz-adv-x="644" 
d="M358 275l-86 15q-103 17 -162 70t-59 140q0 97 76.5 154.5t182.5 57.5q164 0 270 -112l-100 -105q-79 81 -178 81q-47 0 -75 -19t-28 -50q0 -56 100 -74l69 -11q236 -38 236 -219q0 -96 -76.5 -155t-202.5 -59q-92 0 -168 37.5t-123 96.5l102 103q78 -101 198 -101
q57 0 89.5 21.5t32.5 54.5q0 56 -98 74zM398 769h-174l-86 103h135l38 -41l38 41h134z" />
    <glyph glyph-name="scaron" unicode="&#x161;" horiz-adv-x="494" 
d="M272 171l-65 16q-160 40 -160 160q0 70 55.5 112.5t134.5 42.5q111 0 197 -77l-87 -92q-58 48 -116 48q-21 0 -33.5 -8.5t-12.5 -20.5q0 -18 35 -26l73 -17q161 -38 161 -162q0 -70 -55.5 -114t-149.5 -44q-68 0 -126 28t-89 67l87 89q66 -65 140 -65q22 0 38.5 9
t16.5 23q0 20 -44 31zM320 559h-163l-91 142h123l49 -59l50 59h123z" />
    <glyph glyph-name="Ydieresis" unicode="&#x178;" horiz-adv-x="636" 
d="M174 701l144 -295l145 295h162l-234 -456v-245h-147v245l-232 456h162zM138 815q0 30 21.5 52t52.5 22q30 0 52.5 -22t22.5 -52t-22.5 -52t-52.5 -22q-31 0 -52.5 21.5t-21.5 52.5zM350 815q0 30 21.5 52t52.5 22q30 0 52.5 -22t22.5 -52t-22.5 -52t-52.5 -22
q-31 0 -52.5 21.5t-21.5 52.5z" />
    <glyph glyph-name="Zcaron" unicode="&#x17d;" horiz-adv-x="655" 
d="M54 701h539v-131l-354 -433h365v-137h-553v131l354 433h-351v137zM408 769h-174l-86 103h135l38 -41l38 41h134z" />
    <glyph glyph-name="zcaron" unicode="&#x17e;" horiz-adv-x="515" 
d="M57 490h396v-114l-216 -248h227v-128h-413v114l213 249h-207v127zM337 570h-163l-90 142h122l49 -59l50 59h122z" />
    <glyph glyph-name="florin" unicode="&#x192;" horiz-adv-x="427" 
d="M54 -195l-37 1v135h24q48 0 68 16.5t20 53.5v348h-64v131h64v14q0 99 58.5 148.5t157.5 49.5l37 -1v-134h-24q-47 0 -67.5 -17t-20.5 -54v-6h108v-131h-108v-359q0 -96 -58.5 -145.5t-157.5 -49.5z" />
    <glyph glyph-name="circumflex" unicode="&#x2c6;" horiz-adv-x="556" 
d="M202 701h163l91 -142h-123l-50 59l-49 -59h-123z" />
    <glyph glyph-name="caron" unicode="&#x2c7;" horiz-adv-x="484" 
d="M325 559h-163l-91 142h123l49 -59l50 59h123z" />
    <glyph glyph-name="breve" unicode="&#x2d8;" horiz-adv-x="556" 
d="M279 553q-63 0 -104.5 40t-45.5 108h106q4 -40 44 -40q39 0 45 40h106q-4 -68 -45.5 -108t-105.5 -40z" />
    <glyph glyph-name="dotaccent" unicode="&#x2d9;" horiz-adv-x="292" 
d="M63 629q0 35 24 59t58 24t58.5 -24.5t24.5 -58.5t-24.5 -58t-58.5 -24t-58 24t-24 58z" />
    <glyph glyph-name="ring" unicode="&#x2da;" horiz-adv-x="511" 
d="M176 627q0 35 25.5 60t61.5 25t61.5 -25t25.5 -60t-25.5 -60t-61.5 -25t-61.5 25t-25.5 60zM287 627q0 10 -7 16.5t-17 6.5t-17 -6.5t-7 -16.5t7 -16.5t17 -6.5t17 6.5t7 16.5z" />
    <glyph glyph-name="ogonek" unicode="&#x2db;" horiz-adv-x="556" 
d="M193 701h140l-86 -131h-128zM378 701h141l-86 -131h-129z" />
    <glyph glyph-name="tilde" unicode="&#x2dc;" horiz-adv-x="581" 
d="M374 701h91q0 -51 -26.5 -88t-70.5 -37q-7 0 -43 8l-41 13q-17 5 -30 5q-26 0 -27 -26h-91q0 51 26 88t71 37q11 0 43 -7l41 -13q20 -6 30 -6q26 0 27 26z" />
    <glyph glyph-name="hungarumlaut" unicode="&#x2dd;" horiz-adv-x="568" 
d="M323 -137h-144l72 137h126z" />
    <glyph glyph-name="Delta" unicode="&#x394;" horiz-adv-x="689" 
d="M272 701h144l221 -573v-128h-586v128zM344 532l-150 -399h301z" />
    <glyph glyph-name="Delta" unicode="&#x2206;" horiz-adv-x="689" 
d="M272 701h144l221 -573v-128h-586v128zM344 532l-150 -399h301z" />
    <glyph glyph-name="Omega" unicode="&#x3a9;" horiz-adv-x="784" 
d="M686 129v-129h-248v246q63 13 102 57.5t39 110.5q0 76 -54 120.5t-132 44.5t-132.5 -44.5t-54.5 -120.5q0 -66 39.5 -110.5t102.5 -57.5v-246h-249v129h120v36q-68 29 -112 94.5t-44 154.5q0 92 48 161t121.5 103t159.5 34q132 0 231 -81t99 -217q0 -88 -44 -153.5
t-111 -95.5v-36h119z" />
    <glyph glyph-name="Omega" unicode="&#x2126;" horiz-adv-x="784" 
d="M686 129v-129h-248v246q63 13 102 57.5t39 110.5q0 76 -54 120.5t-132 44.5t-132.5 -44.5t-54.5 -120.5q0 -66 39.5 -110.5t102.5 -57.5v-246h-249v129h120v36q-68 29 -112 94.5t-44 154.5q0 92 48 161t121.5 103t159.5 34q132 0 231 -81t99 -217q0 -88 -44 -153.5
t-111 -95.5v-36h119z" />
    <glyph glyph-name="pi" unicode="&#x3c0;" horiz-adv-x="665" 
d="M406 0v359h-147v-359h-139v359h-74v131h573v-131h-74v-359h-139z" />
    <glyph glyph-name="endash" unicode="&#x2013;" horiz-adv-x="581" 
d="M63 198v128h456v-128h-456z" />
    <glyph glyph-name="emdash" unicode="&#x2014;" horiz-adv-x="872" 
d="M63 198v128h746v-128h-746z" />
    <glyph glyph-name="quoteleft" unicode="&#x2018;" horiz-adv-x="303" 
d="M28 701h152l95 -234h-138z" />
    <glyph glyph-name="quoteright" unicode="&#x2019;" horiz-adv-x="303" 
d="M112 701h152l-109 -234h-138z" />
    <glyph glyph-name="quotesinglbase" unicode="&#x201a;" horiz-adv-x="285" 
d="M101 114h155l-109 -237h-141z" />
    <glyph glyph-name="quotedblleft" unicode="&#x201c;" horiz-adv-x="524" 
d="M28 701h152l95 -234h-138zM250 701h151l95 -234h-138z" />
    <glyph glyph-name="quotedblright" unicode="&#x201d;" horiz-adv-x="524" 
d="M333 701h152l-109 -234h-138zM112 701h151l-108 -234h-138z" />
    <glyph glyph-name="quotedblbase" unicode="&#x201e;" horiz-adv-x="505" 
d="M101 114h155l-109 -237h-141zM321 114h155l-109 -237h-141z" />
    <glyph glyph-name="dagger" unicode="&#x2020;" horiz-adv-x="594" 
d="M51 490h174v211h139v-211h179v-134h-179v-550h-139v550h-174v134z" />
    <glyph glyph-name="daggerdbl" unicode="&#x2021;" horiz-adv-x="622" 
d="M554 51h-173v-245h-139v245h-179v135h179v170h-174v134h174v211h139v-211h179v-134h-179v-170h173v-135z" />
    <glyph glyph-name="bullet" unicode="&#x2022;" horiz-adv-x="438" 
d="M74 262q0 61 42 103t103 42t103 -42t42 -103t-42 -103t-103 -42t-103 42t-42 103z" />
    <glyph glyph-name="ellipsis" unicode="&#x2026;" horiz-adv-x="801" 
d="M52 76q0 36 24.5 61t60.5 25t61.5 -25t25.5 -61t-25.5 -61t-61.5 -25t-60.5 25t-24.5 61zM315 76q0 36 24.5 61t60.5 25t61.5 -25t25.5 -61t-25.5 -61t-61.5 -25t-60.5 25t-24.5 61zM578 76q0 36 24.5 61t60.5 25t61.5 -25t25.5 -61t-25.5 -61t-61.5 -25t-60.5 25
t-24.5 61z" />
    <glyph glyph-name="perthousand" unicode="&#x2030;" horiz-adv-x="1200" 
d="M847 139q0 65 43.5 108.5t108.5 43.5q63 0 106.5 -44t43.5 -108q0 -63 -43.5 -106.5t-106.5 -43.5q-64 0 -108 43.5t-44 106.5zM955 139q0 -20 13 -32t31 -12q16 0 28.5 12.5t12.5 31.5q0 21 -12.5 33.5t-28.5 12.5q-18 0 -31 -12.5t-13 -33.5zM51 561q0 64 44 107.5
t108 43.5q63 0 106.5 -43.5t43.5 -107.5q0 -63 -43.5 -107t-106.5 -44q-64 0 -108 44t-44 107zM160 561q0 -20 12.5 -32.5t30.5 -12.5q16 0 28.5 13t12.5 32q0 20 -12.5 32.5t-28.5 12.5q-18 0 -30.5 -12.5t-12.5 -32.5zM488 139q0 65 44 108.5t108 43.5q63 0 106.5 -44
t43.5 -108q0 -63 -43.5 -106.5t-106.5 -43.5q-64 0 -108 43.5t-44 106.5zM596 139q0 -20 13 -32t31 -12q16 0 28.5 12.5t12.5 31.5q0 21 -12.5 33.5t-28.5 12.5q-18 0 -31 -12.5t-13 -33.5zM129 0l431 701h152l-430 -701h-153z" />
    <glyph glyph-name="guilsinglleft" unicode="&#x2039;" horiz-adv-x="370" 
d="M40 245l137 245h154l-139 -245l139 -245h-154z" />
    <glyph glyph-name="guilsinglright" unicode="&#x203a;" horiz-adv-x="370" 
d="M182 490l137 -245l-137 -245h-154l139 245l-139 245h154z" />
    <glyph glyph-name="fraction" unicode="&#x2044;" horiz-adv-x="634" 
d="M17 0l431 701h153l-431 -701h-153z" />
    <glyph glyph-name="Euro" unicode="&#x20ac;" horiz-adv-x="710" 
d="M57 376v122h84q33 100 109.5 157t181.5 57q76 0 135 -28.5t93 -74.5l-98 -102q-48 69 -131 69q-84 0 -131 -78h190v-122h-223q-1 -9 -1 -27q0 -21 1 -30h223v-122h-189q43 -72 131 -72q48 0 79.5 15.5t60.5 49.5l98 -106q-91 -95 -239 -95q-106 0 -180.5 55t-108.5 153
h-85v122h63q-1 10 -1 30v27h-62z" />
    <glyph glyph-name="trademark" unicode="&#x2122;" horiz-adv-x="876" 
d="M23 701h312v-101h-102v-292h-110v292h-100v101zM551 366l-56 150v-208h-109v393h136l78 -211l78 211h135v-393h-108v208l-55 -150h-99z" />
    <glyph glyph-name="arrownorthwest" unicode="&#x2196;" horiz-adv-x="681" 
d="M527 390h-214l319 -318l-97 -97l-318 317v-212h-132v441h442v-131z" />
    <glyph glyph-name="arrownortheast" unicode="&#x2197;" horiz-adv-x="681" 
d="M356 390h-214v131h442v-441h-132v212l-318 -317l-97 97z" />
    <glyph glyph-name="arrowsoutheast" unicode="&#x2198;" horiz-adv-x="681" 
d="M176 131h214l-319 318l97 97l318 -317v212h132v-441h-442v131z" />
    <glyph glyph-name="arrowsouthwest" unicode="&#x2199;" horiz-adv-x="681" 
d="M313 131h214v-131h-442v441h132v-212l318 317l97 -97z" />
    <glyph glyph-name="partialdiff" unicode="&#x2202;" horiz-adv-x="638" 
d="M306 -11q-106 0 -180.5 65.5t-74.5 173.5q0 105 71.5 171t171.5 66q88 0 141 -52q-1 77 -42.5 120t-105.5 43q-73 0 -119 -58l-96 99q37 42 94 68.5t121 26.5q132 0 216 -98t84 -257q0 -171 -75 -269.5t-206 -98.5zM199 227q0 -46 29 -74t74 -28q46 0 74.5 28t28.5 74
t-28.5 73.5t-74.5 27.5q-45 0 -74 -28t-29 -73z" />
    <glyph glyph-name="product" unicode="&#x220f;" horiz-adv-x="652" 
d="M445 -194v553h-238v-553h-139v684h516v-684h-139z" />
    <glyph glyph-name="summation" unicode="&#x2211;" horiz-adv-x="541" 
d="M213 567l180 -313l-180 -313h283v-135h-445v129l187 319l-187 318v129h445v-134h-283z" />
    <glyph glyph-name="minus" unicode="&#x2212;" horiz-adv-x="650" 
d="M74 196v128h502v-128h-502z" />
    <glyph glyph-name="radical" unicode="&#x221a;" horiz-adv-x="716" 
d="M46 490h214l109 -298l187 509h149l-263 -701h-144l-136 359h-116v131z" />
    <glyph glyph-name="infinity" unicode="&#x221e;" horiz-adv-x="1133" 
d="M814 502q115 0 191.5 -73.5t76.5 -183.5t-76.5 -183t-191.5 -73q-47 0 -86 12t-69 34.5t-50 43.5t-42 51q-31 -41 -59 -68t-78.5 -50t-110.5 -23q-115 0 -191.5 73t-76.5 183t76.5 183.5t191.5 73.5q87 0 143.5 -38t103.5 -102q109 140 248 140zM319 368q-52 0 -89 -35.5
t-37 -87.5q0 -51 37 -87t89 -36q41 0 73 22.5t66 69.5l23 31l-24 32q-34 46 -65.5 68.5t-72.5 22.5zM652 245l24 -32q34 -46 65.5 -68.5t72.5 -22.5q52 0 89 36t37 87q0 52 -37 87.5t-89 35.5q-41 0 -72.5 -22.5t-65.5 -68.5z" />
    <glyph glyph-name="integral" unicode="&#x222b;" horiz-adv-x="393" 
d="M259 496v-496q0 -96 -59 -145.5t-158 -49.5l-36 1v135h24q47 0 67 16.5t20 53.5v493q0 99 58.5 148.5t158.5 49.5l36 -1v-134h-23q-47 0 -67.5 -17t-20.5 -54z" />
    <glyph glyph-name="approxequal" unicode="&#x2248;" horiz-adv-x="663" 
d="M474 463h120q5 -73 -28 -116.5t-99 -43.5q-26 0 -74 10l-118 27q-37 7 -46 7q-40 0 -40 -38h-119q-5 72 27.5 116t98.5 44q30 0 74 -11l119 -26q37 -7 45 -7q40 0 40 38zM474 241h120q5 -73 -28 -116.5t-99 -43.5q-34 0 -74 10l-118 26q-28 7 -46 7q-40 0 -40 -37h-119
q-5 72 27.5 115.5t98.5 43.5q34 0 74 -10l119 -26q28 -7 45 -7q40 0 40 38z" />
    <glyph glyph-name="notequal" unicode="&#x2260;" horiz-adv-x="650" 
d="M74 297v127h271l40 78h137l-40 -78h94v-127h-158l-47 -91h205v-128h-270l-45 -89h-138l45 89h-94v128h160l46 91h-206z" />
    <glyph glyph-name="lessequal" unicode="&#x2264;" horiz-adv-x="662" 
d="M74 219v148l503 228v-144l-258 -104h257v-128h-502zM74 0v128h502v-128h-502z" />
    <glyph glyph-name="greaterequal" unicode="&#x2265;" horiz-adv-x="662" 
d="M577 367v-148h-502v128h257l-258 104v144zM577 128v-128h-502v128h502z" />
    <glyph glyph-name="lozenge" unicode="&#x25ca;" horiz-adv-x="661" 
d="M264 701h133l213 -454l-213 -452h-133l-213 452zM199 247l132 -285l131 285l-131 287z" />
    <glyph glyph-name="fi" unicode="&#xfb01;" horiz-adv-x="616" 
d="M410 0v359h-182v-359h-141v359h-64v131h64v14q0 99 58.5 148.5t157.5 49.5l25 -1v-134h-12q-47 0 -67.5 -17t-20.5 -54v-6h325v-490h-143zM399 629q0 35 24 59t58 24q35 0 59 -24t24 -59q0 -34 -24.5 -58t-58.5 -24t-58 24t-24 58z" />
    <glyph glyph-name="fl" unicode="&#xfb02;" horiz-adv-x="627" 
d="M422 0v567h-106q-47 0 -67.5 -17t-20.5 -54v-6h108v-131h-108v-359h-141v359h-64v131h64v14q0 98 58.5 147.5t157.5 49.5h261v-701h-142z" />
    <glyph glyph-name="acutecap" horiz-adv-x="653" 
d="M309 872h170l-98 -103h-146z" />
    <glyph glyph-name="caroncap" horiz-adv-x="673" 
d="M415 769h-174l-86 103h135l38 -41l38 41h134z" />
    <glyph glyph-name="ringcap" 
d="M242 775q0 47 31.5 77.5t76.5 30.5t76.5 -30.5t31.5 -77.5q0 -44 -31 -75.5t-77 -31.5t-77 31.5t-31 75.5zM316 775q0 -14 10 -24t24 -10t24 10t10 24t-10 24t-24 10t-24 -10t-10 -24z" />
    <glyph glyph-name="gravecap" horiz-adv-x="653" 
d="M188 872h170l74 -103h-146z" />
    <glyph glyph-name="circumflexcap" horiz-adv-x="653" 
d="M249 872h174l85 -103h-134l-38 40l-38 -40h-135z" />
    <glyph glyph-name="zero.onum" horiz-adv-x="684" 
d="M342 -11q-120 0 -208 79t-88 206t88 206t208 79t208 -79t88 -206t-88 -206t-208 -79zM342 422q-64 0 -106 -41.5t-42 -106.5t42 -107t106 -42t106 42t42 107t-42 106.5t-106 41.5z" />
    <glyph glyph-name="one.onum" horiz-adv-x="545" 
d="M57 137h160v226q-65 -45 -160 -45v133q129 5 173 96h135v-410h151v-137h-459v137z" />
    <glyph glyph-name="two.onum" horiz-adv-x="583" 
d="M217 137h299v-137h-465v68q0 88 50 154t151 96l58 17q60 18 60 48q0 17 -16.5 28t-45.5 11q-47 0 -89.5 -24.5t-68.5 -61.5l-93 93q38 60 101 95t137 35q95 0 160 -47t65 -128q0 -67 -43.5 -108.5t-131.5 -68.5l-61 -18q-61 -17 -67 -52z" />
    <glyph glyph-name="three.onum" horiz-adv-x="576" 
d="M433 220q37 -22 61.5 -63t24.5 -90q0 -101 -72.5 -158t-185.5 -57q-73 0 -137.5 31t-106.5 82l100 100q62 -76 144 -76q47 0 78 22.5t31 56.5q0 38 -31.5 57.5t-88.5 19.5h-58v132h46q115 0 115 79q0 30 -26.5 48t-65.5 18q-75 0 -130 -67l-97 96q97 108 228 108
q99 0 169.5 -52t70.5 -143q0 -87 -69 -144z" />
    <glyph glyph-name="four.onum" horiz-adv-x="617" 
d="M588 0h-91v-137h-148v137h-309v122l294 425h163v-416h91v-131zM189 131h160v229z" />
    <glyph glyph-name="five.onum" horiz-adv-x="610" 
d="M410 91q0 43 -29.5 73.5t-77.5 30.5q-34 0 -62 -17t-40 -48h-137l17 417h422v-137h-283l-6 -116q49 31 111 31q97 0 165.5 -62t68.5 -167q0 -112 -75 -178t-197 -66q-74 0 -136.5 30.5t-99.5 81.5l106 104q58 -79 139 -79q51 0 82.5 29t31.5 73z" />
    <glyph glyph-name="six.onum" horiz-adv-x="627" 
d="M327 -11q-131 0 -203.5 93t-72.5 263q0 159 81.5 254.5t212.5 95.5q136 0 210 -95l-96 -100q-18 27 -49.5 43t-66.5 16q-63 0 -104.5 -45.5t-46.5 -123.5q56 64 147 64q99 0 168 -63.5t69 -168.5q0 -108 -71.5 -170.5t-177.5 -62.5zM427 221q0 42 -27.5 69t-68.5 27
q-42 0 -69.5 -27t-27.5 -69t27.5 -69t69.5 -27q41 0 68.5 27t27.5 69z" />
    <glyph glyph-name="seven.onum" horiz-adv-x="575" 
d="M28 304v243h512v-129q-105 -109 -163.5 -234t-72.5 -281l-3 -40h-151l4 39q14 159 64.5 278t141.5 230h-188v-106h-144z" />
    <glyph glyph-name="eight.onum" horiz-adv-x="611" 
d="M306 -11q-110 0 -179.5 56.5t-69.5 146.5q0 53 25.5 95.5t62.5 64.5q-71 56 -71 140q0 90 65 146.5t167 56.5q101 0 166 -56.5t65 -146.5q0 -84 -71 -140q37 -22 62.5 -64.5t25.5 -95.5q0 -90 -69.5 -146.5t-178.5 -56.5zM389 488q0 31 -24 51t-59 20t-59.5 -19.5
t-24.5 -51.5q0 -31 24 -50.5t60 -19.5q35 0 59 19.5t24 50.5zM205 204q0 -35 29 -57t72 -22t71.5 22t28.5 57t-28.5 57.5t-71.5 22.5t-72 -22.5t-29 -57.5z" />
    <glyph glyph-name="nine.onum" horiz-adv-x="616" 
d="M288 559q131 0 203.5 -93t72.5 -264q0 -159 -81.5 -254.5t-212.5 -95.5q-136 0 -210 96l96 99q18 -26 50 -42t66 -16q65 0 105.5 41.5t46.5 126.5q-58 -64 -147 -64q-100 0 -168.5 63.5t-68.5 168.5q0 108 71.5 171t176.5 63zM188 326q0 -42 27.5 -69t69.5 -27t69.5 27
t27.5 69t-27.5 69t-69.5 27t-69.5 -27t-27.5 -69z" />
    <glyph glyph-name="zero.ss01" horiz-adv-x="650" 
d="M600 351q0 -162 -74 -261.5t-201 -99.5q-126 0 -200.5 99.5t-74.5 261.5t74 261.5t201 99.5q126 0 200.5 -99.5t74.5 -261.5zM199 351q0 -28 1 -42l216 210q-34 53 -91 53q-65 0 -95.5 -60.5t-30.5 -160.5zM451 351q0 6 -0.5 18t-0.5 18l-214 -207q31 -50 89 -50
q65 0 95.5 60.5t30.5 160.5z" />
    <glyph glyph-name="one.ss01" horiz-adv-x="534" 
d="M57 136h144v429h-133v136h292v-565h145v-136h-448v136z" />
    <glyph glyph-name="two.ss01" horiz-adv-x="578" 
d="M58 117l151 162q-74 25 -116.5 82t-42.5 133q0 87 67.5 152.5t167.5 65.5q99 0 163.5 -62.5t64.5 -152.5q0 -56 -28 -103t-87 -111l-134 -146h248v-137h-454v117zM366 491q0 37 -24.5 61t-60.5 24q-35 0 -60.5 -24t-25.5 -62q0 -37 24.5 -61t60.5 -24q35 0 60.5 24
t25.5 62z" />
    <glyph glyph-name="three.ss01" horiz-adv-x="576" 
d="M491 574l-159 -151q84 -14 135.5 -70t51.5 -137q0 -98 -72 -162.5t-190 -64.5q-141 0 -234 112l100 102q25 -39 60.5 -59.5t71.5 -20.5q49 0 77 22.5t28 64.5q0 91 -120 91h-79v131l136 137h-251v132h445v-127z" />
    <glyph glyph-name="four.ss01" horiz-adv-x="633" 
d="M474 413v-134h119v-131h-119v-148h-148v148h-276v209l247 344h169l-258 -359v-63h118v134h148z" />
    <glyph glyph-name="five.ss01" horiz-adv-x="620" 
d="M410 234q0 48 -31 78t-76 30q-73 0 -101 -66h-135v425h445v-136h-298v-128q17 16 50 25.5t67 9.5q97 0 167.5 -61t70.5 -174q0 -106 -75 -177t-196 -71q-156 0 -247 105l102 101q57 -70 137 -70q52 0 86 31.5t34 77.5z" />
    <glyph glyph-name="six.ss01" horiz-adv-x="620" 
d="M312 -10q-115 0 -188.5 73.5t-73.5 191.5q0 59 25.5 121.5t67.5 114.5l171 211h162l-180 -216q16 6 47 6q94 0 159.5 -71t65.5 -178q0 -110 -75 -181.5t-181 -71.5zM195 241q0 -52 32.5 -85.5t82.5 -33.5t81.5 33.5t31.5 85.5t-31.5 85.5t-81.5 33.5t-82.5 -33.5
t-32.5 -85.5z" />
    <glyph glyph-name="seven.ss01" horiz-adv-x="556" 
d="M34 470v231h493v-134l-244 -567h-162l250 567h-190v-97h-147z" />
    <glyph glyph-name="eight.ss01" horiz-adv-x="622" 
d="M310 -10q-62 0 -116 21t-93 72t-39 123q0 103 87 160q-27 20 -48.5 58.5t-21.5 81.5q0 94 68 150t163 56t163 -56t68 -150q0 -43 -21.5 -81.5t-48.5 -58.5q87 -57 87 -160q0 -72 -39 -123t-93 -72t-116 -21zM310 307q-44 0 -71 -26t-27 -66q0 -41 28 -65.5t70 -24.5
t70 24.5t28 65.5q0 40 -27 66t-71 26zM310 592q-35 0 -59 -22.5t-24 -58.5t22 -59t61 -23q40 0 61.5 23t21.5 59t-24 58.5t-59 22.5z" />
    <glyph glyph-name="nine.ss01" horiz-adv-x="616" 
d="M301 712q115 0 188.5 -73.5t73.5 -191.5q0 -59 -25.5 -121.5t-67.5 -114.5l-171 -211h-162l180 216q-17 -6 -47 -6q-94 0 -159.5 71t-65.5 178q0 110 75 181.5t181 71.5zM418 461q0 52 -32.5 85.5t-82.5 33.5t-81.5 -33.5t-31.5 -85.5t31.5 -85.5t81.5 -33.5t82.5 33.5
t32.5 85.5z" />
    <glyph glyph-name="A.ss01" horiz-adv-x="704" 
d="M328 563l-77 -300h203l-79 300h-47zM485 700l189 -700h-151l-35 128h-272l-35 -128h-151l189 700h266z" />
    <glyph glyph-name="Aacute.ss01" horiz-adv-x="704" 
d="M328 563l-77 -300h203l-79 300h-47zM485 700l189 -700h-151l-35 128h-272l-35 -128h-151l189 700h266zM324 872h170l-98 -103h-146z" />
    <glyph glyph-name="Agrave.ss01" horiz-adv-x="704" 
d="M328 563l-77 -300h203l-79 300h-47zM485 700l189 -700h-151l-35 128h-272l-35 -128h-151l189 700h266zM198 872h170l74 -103h-146z" />
    <glyph glyph-name="Acircumflex.ss01" horiz-adv-x="704" 
d="M328 563l-77 -300h203l-79 300h-47zM485 700l189 -700h-151l-35 128h-272l-35 -128h-151l189 700h266zM265 872h174l85 -103h-134l-38 40l-38 -40h-135z" />
    <glyph glyph-name="Adieresis.ss01" horiz-adv-x="704" 
d="M328 563l-77 -300h203l-79 300h-47zM485 700l189 -700h-151l-35 128h-272l-35 -128h-151l189 700h266zM172 815q0 30 21.5 52t52.5 22q30 0 52.5 -22t22.5 -52t-22.5 -52t-52.5 -22q-31 0 -52.5 21.5t-21.5 52.5zM384 815q0 30 21.5 52t52.5 22q30 0 52.5 -22t22.5 -52
t-22.5 -52t-52.5 -22q-31 0 -52.5 21.5t-21.5 52.5z" />
    <glyph glyph-name="Atilde.ss01" horiz-adv-x="704" 
d="M328 563l-77 -300h203l-79 300h-47zM485 700l189 -700h-151l-35 128h-272l-35 -128h-151l189 700h266zM426 872h91q0 -51 -26.5 -88t-70.5 -37q-7 0 -43 8l-41 13q-17 5 -30 5q-26 0 -27 -26h-91q0 51 26 88t71 37q12 0 43 -7l41 -13q20 -6 30 -6q26 0 27 26z" />
    <glyph glyph-name="Aring.ss01" horiz-adv-x="704" 
d="M485 700l189 -700h-151l-35 128h-272l-35 -128h-151l189 700h52q-30 30 -30 75q0 47 31.5 77.5t76.5 30.5t76.5 -30.5t31.5 -77.5q0 -44 -31 -75h59zM328 563l-77 -300h203l-79 300h-47zM315 775q0 -14 10 -24t24 -10t24 10t10 24t-10 24t-24 10t-24 -10t-10 -24z" />
    <glyph glyph-name="AE.ss01" horiz-adv-x="902" 
d="M822 290h-226l41 -153h202v-137h-316l-35 128h-272l-35 -128h-151l189 700h620v-137h-317l37 -138h263v-135zM328 563l-77 -300h203l-79 300h-47z" />
    <glyph glyph-name="Ccedilla.ss01" horiz-adv-x="731" 
d="M464 -137h-127v133q-133 22 -215 116.5t-82 236.5q0 164 105 263.5t262 99.5q172 0 279 -132l-100 -102q-31 44 -79.5 69.5t-106.5 25.5q-82 0 -144.5 -59.5t-62.5 -161.5q0 -104 62 -164t153 -60q118 0 190 98l99 -105q-93 -113 -233 -129v-129z" />
    <glyph glyph-name="G.ss01" horiz-adv-x="754" 
d="M402 712q87 0 161.5 -35.5t122.5 -96.5l-100 -102q-25 36 -73.5 65t-108.5 29q-92 0 -155 -64t-63 -157q0 -95 63 -159t155 -64q85 0 147 42v83h-139v137h285v-390h-146v19q-73 -30 -149 -30q-154 0 -259.5 101.5t-105.5 260.5q0 158 106 259.5t259 101.5z" />
    <glyph glyph-name="I.ss01" horiz-adv-x="484" 
d="M68 565v136h348v-136h-101v-429h101v-136h-348v136h100v429h-100z" />
    <glyph glyph-name="Iacute.ss01" horiz-adv-x="484" 
d="M68 565v136h348v-136h-101v-429h101v-136h-348v136h100v429h-100zM229 872h170l-98 -103h-146z" />
    <glyph glyph-name="Igrave.ss01" horiz-adv-x="484" 
d="M68 565v136h348v-136h-101v-429h101v-136h-348v136h100v429h-100zM81 872h170l74 -103h-146z" />
    <glyph glyph-name="Icircumflex.ss01" horiz-adv-x="484" 
d="M68 565v136h348v-136h-101v-429h101v-136h-348v136h100v429h-100zM156 872h174l85 -103h-134l-38 40l-38 -40h-135z" />
    <glyph glyph-name="Idieresis.ss01" horiz-adv-x="484" 
d="M68 565v136h348v-136h-101v-429h101v-136h-348v136h100v429h-100zM60 815q0 30 21.5 52t52.5 22q30 0 52.5 -22t22.5 -52t-22.5 -52t-52.5 -22q-31 0 -52.5 21.5t-21.5 52.5zM272 815q0 30 21.5 52t52.5 22q30 0 52.5 -22t22.5 -52t-22.5 -52t-52.5 -22q-31 0 -52.5 21.5
t-21.5 52.5z" />
    <glyph glyph-name="J.ss01" horiz-adv-x="572" 
d="M160 565v136h338v-460q0 -117 -65.5 -184.5t-173.5 -67.5t-169 63t-61 177v21h147v-21q0 -104 85 -104q90 0 90 117v323h-191z" />
    <glyph glyph-name="K.ss01" horiz-adv-x="612" 
d="M55 0v701h147v-268h44l183 268h157l-226 -331l232 -370h-160l-184 295h-46v-295h-147z" />
    <glyph glyph-name="M.ss01" horiz-adv-x="911" 
d="M453 265l86 436h302v-701h-150v562h-30l-123 -562h-170l-120 562h-29v-562h-149v701h300z" />
    <glyph glyph-name="Q.ss01" horiz-adv-x="821" 
d="M50 351q0 153 104 257t255 104t256.5 -104.5t105.5 -256.5q0 -154 -105 -258t-257 -104q-151 0 -255 104t-104 258zM380 266l99 101l118 -118q23 46 23 102q0 91 -60.5 156t-146.5 65q-88 0 -149 -65t-61 -156q0 -93 61 -158t149 -65q44 0 85 19z" />
    <glyph glyph-name="V.ss01" horiz-adv-x="704" 
d="M171 700l158 -563h47l157 563h151l-199 -700h-266l-199 700h151z" />
    <glyph glyph-name="W.ss01" horiz-adv-x="984" 
d="M493 168l-49 -168h-234l-200 701h156l152 -564h30l69 231l-105 333h146l34 -129l34 129h146l-105 -333l69 -231h30l152 564h156l-195 -701h-239z" />
    <glyph glyph-name="X.ss01" horiz-adv-x="668" 
d="M359 290h-49l-129 -290h-156l159 359l-146 342h156l116 -271h49l116 271h155l-146 -342l159 -359h-155z" />
    <glyph glyph-name="a.ss01" horiz-adv-x="542" 
d="M83 360v130h389v-490h-244q-81 0 -129.5 44t-48.5 115q0 70 49.5 111.5t128.5 41.5h102v48h-247zM330 190h-107q-40 0 -40 -31t40 -31h107v62z" />
    <glyph glyph-name="aacute.ss01" horiz-adv-x="542" 
d="M267 701h180l-120 -142h-134zM83 360v130h389v-490h-244q-81 0 -129.5 44t-48.5 115q0 70 49.5 111.5t128.5 41.5h102v48h-247zM330 190h-107q-40 0 -40 -31t40 -31h107v62z" />
    <glyph glyph-name="agrave.ss01" horiz-adv-x="542" 
d="M83 360v130h389v-490h-244q-81 0 -129.5 44t-48.5 115q0 70 49.5 111.5t128.5 41.5h102v48h-247zM330 190h-107q-40 0 -40 -31t40 -31h107v62zM141 701h180l74 -142h-134z" />
    <glyph glyph-name="acircumflex.ss01" horiz-adv-x="556" 
d="M83 360v130h389v-490h-244q-81 0 -129.5 44t-48.5 115q0 70 49.5 111.5t128.5 41.5h102v48h-247zM330 190h-107q-40 0 -40 -31t40 -31h107v62zM201 701h163l91 -142h-123l-50 59l-49 -59h-123z" />
    <glyph glyph-name="adieresis.ss01" horiz-adv-x="572" 
d="M83 360v130h389v-490h-244q-81 0 -129.5 44t-48.5 115q0 70 49.5 111.5t128.5 41.5h102v48h-247zM330 190h-107q-40 0 -40 -31t40 -31h107v62zM101 638q0 30 21.5 52t52.5 22q30 0 52.5 -22t22.5 -52t-22.5 -52t-52.5 -22q-31 0 -52.5 21.5t-21.5 52.5zM313 638
q0 30 21.5 52t52.5 22q30 0 52.5 -22t22.5 -52t-22.5 -52t-52.5 -22q-31 0 -52.5 21.5t-21.5 52.5z" />
    <glyph glyph-name="atilde.ss01" horiz-adv-x="546" 
d="M83 360v130h389v-490h-244q-81 0 -129.5 44t-48.5 115q0 70 49.5 111.5t128.5 41.5h102v48h-247zM330 190h-107q-40 0 -40 -31t40 -31h107v62zM362 701h91q0 -51 -26.5 -88t-70.5 -37q-7 0 -43 8l-41 13q-17 5 -30 5q-26 0 -27 -26h-91q0 51 26 88t71 37q11 0 43 -7
l41 -13q20 -6 30 -6q26 0 27 26z" />
    <glyph glyph-name="aring.ss01" horiz-adv-x="542" 
d="M83 360v130h389v-490h-244q-81 0 -129.5 44t-48.5 115q0 70 49.5 111.5t128.5 41.5h102v48h-247zM330 190h-107q-40 0 -40 -31t40 -31h107v62zM194 627q0 35 25.5 60t61.5 25t61.5 -25t25.5 -60t-25.5 -60t-61.5 -25t-61.5 25t-25.5 60zM305 627q0 10 -7 16.5t-17 6.5
t-17 -6.5t-7 -16.5t7 -16.5t17 -6.5t17 6.5t7 16.5z" />
    <glyph glyph-name="ae.ss01" horiz-adv-x="757" 
d="M690 128v-128h-462q-81 0 -129.5 43t-48.5 114q0 69 49.5 109.5t128.5 40.5h102v53h-247v130h456q81 0 129.5 -42.5t48.5 -113.5q0 -69 -49 -109t-129 -40h-67v-57h218zM330 185h-112q-35 0 -35 -28q0 -29 35 -29h112v57zM549 362h-77v-55h77q35 0 35 27q0 28 -35 28z
" />
    <glyph glyph-name="ccedilla.ss01" horiz-adv-x="537" 
d="M349 -136h-127v134q-84 22 -136 89t-52 158q0 110 74.5 183.5t184.5 73.5q117 0 205 -98l-96 -93q-47 57 -104 57q-51 0 -85 -34.5t-34 -88.5t34 -88.5t85 -34.5q64 0 114 64l96 -93q-62 -82 -159 -99v-130z" />
    <glyph glyph-name="e.ss01" horiz-adv-x="462" 
d="M236 161q-27 0 -44 4v-37h218v-128h-360v317q0 87 53.5 136t132.5 49q80 0 133 -48t53 -123q0 -74 -54.5 -122t-131.5 -48zM236 287q20 0 33 13t13 31t-13 31t-33 13t-33 -13t-13 -31t13 -31t33 -13z" />
    <glyph glyph-name="eacute.ss01" horiz-adv-x="472" 
d="M220 701h180l-120 -142h-134zM226 161q-27 0 -44 4v-37h218v-128h-360v317q0 87 53.5 136t132.5 49q80 0 133 -48t53 -123q0 -74 -54.5 -122t-131.5 -48zM226 287q20 0 33 13t13 31t-13 31t-33 13t-33 -13t-13 -31t13 -31t33 -13z" />
    <glyph glyph-name="egrave.ss01" horiz-adv-x="472" 
d="M226 161q-27 0 -44 4v-37h218v-128h-360v317q0 87 53.5 136t132.5 49q80 0 133 -48t53 -123q0 -74 -54.5 -122t-131.5 -48zM226 287q20 0 33 13t13 31t-13 31t-33 13t-33 -13t-13 -31t13 -31t33 -13zM72 701h180l74 -142h-134z" />
    <glyph glyph-name="ecircumflex.ss01" horiz-adv-x="472" 
d="M226 161q-27 0 -44 4v-37h218v-128h-360v317q0 87 53.5 136t132.5 49q80 0 133 -48t53 -123q0 -74 -54.5 -122t-131.5 -48zM226 287q20 0 33 13t13 31t-13 31t-33 13t-33 -13t-13 -31t13 -31t33 -13zM146 701h163l91 -142h-123l-50 59l-49 -59h-123z" />
    <glyph glyph-name="edieresis.ss01" horiz-adv-x="472" 
d="M226 161q-27 0 -44 4v-37h218v-128h-360v317q0 87 53.5 136t132.5 49q80 0 133 -48t53 -123q0 -74 -54.5 -122t-131.5 -48zM226 287q20 0 33 13t13 31t-13 31t-33 13t-33 -13t-13 -31t13 -31t33 -13zM46 638q0 30 21.5 52t52.5 22q30 0 52.5 -22t22.5 -52t-22.5 -52
t-52.5 -22q-31 0 -52.5 21.5t-21.5 52.5zM258 638q0 30 21.5 52t52.5 22q30 0 52.5 -22t22.5 -52t-22.5 -52t-52.5 -22q-31 0 -52.5 21.5t-21.5 52.5z" />
    <glyph glyph-name="f.ss01" horiz-adv-x="433" 
d="M23 359v131h53v57q0 74 52 119.5t127 45.5t126.5 -46t51.5 -121v-10h-144v8q0 36 -34 36q-33 0 -33 -41v-48h211v-131h-211v-359h-146v359h-53z" />
    <glyph glyph-name="g.ss01" horiz-adv-x="573" 
d="M543 490v-128h-56q28 -40 28 -90q0 -84 -45 -134t-114 -64l162 -142v-126h-448v130h250l-162 136q-108 91 -108 205q0 91 69 152t163 61h261zM372 276q0 37 -26 60t-64 23t-63.5 -23t-25.5 -60t26 -60.5t64 -23.5q37 0 63 23.5t26 60.5z" />
    <glyph glyph-name="h.ss01" horiz-adv-x="582" 
d="M63 0v700h142v-210h314v-490h-143v359h-171v-359h-142z" />
    <glyph glyph-name="j.ss01" horiz-adv-x="293" 
d="M229 -194h-249v130h106v554h143v-684zM75 629q0 35 24 59t58 24q35 0 59 -24t24 -59q0 -34 -24.5 -58t-58.5 -24t-58 24t-24 58z" />
    <glyph glyph-name="k.ss01" horiz-adv-x="523" 
d="M70 0v701h144v-392h40l94 181h151l-129 -245l138 -245h-151l-102 178h-41v-178h-144z" />
    <glyph glyph-name="l.ss01" horiz-adv-x="268" 
d="M205 700v-700h-142v700h142z" />
    <glyph glyph-name="m.ss01" horiz-adv-x="872" 
d="M809 490v-490h-142v359h-160v-359h-142v359h-160v-359h-142v490h746z" />
    <glyph glyph-name="n.ss01" horiz-adv-x="582" 
d="M63 490h456v-490h-143v359h-171v-359h-142v490z" />
    <glyph glyph-name="ntilde.ss01" horiz-adv-x="582" 
d="M519 490h-456v-490h142v359h171v-359h143v490zM364 701h91q0 -51 -26.5 -88t-70.5 -37q-7 0 -43 8l-41 13q-17 5 -30 5q-26 0 -27 -26h-91q0 51 26 88t71 37q11 0 43 -7l41 -13q20 -6 30 -6q26 0 27 26z" />
    <glyph glyph-name="oe.ss01" horiz-adv-x="847" 
d="M616 161q-40 0 -75 16q-8 -28 -19 -47h267v-130h-491q-108 0 -180.5 70.5t-72.5 179.5t73 180.5t180 71.5q105 0 176 -68q52 68 142 68q79 0 130 -48t51 -123t-52 -122.5t-129 -47.5zM190 250q0 -51 30.5 -84t77.5 -33t77.5 33t30.5 84t-30.5 84t-77.5 33t-77.5 -33
t-30.5 -84zM611 287q20 0 33 13t13 31t-13 31t-33 13t-33 -13t-13 -31t13 -31t33 -13zM435 309v-2v2z" />
    <glyph glyph-name="r.ss01" horiz-adv-x="367" 
d="M205 359v-359h-142v490h282v-131h-140z" />
    <glyph glyph-name="s.ss01" horiz-adv-x="484" 
d="M233 502q109 0 189 -74l-75 -108l-75 47q-20 13 -35 13q-11 0 -17.5 -7t-6.5 -16q0 -17 23 -31l203 -124q0 -52 -19.5 -98.5t-67 -80.5t-113.5 -34q-113 0 -207 87l71 106l59 -34q48 -27 77 -27q28 0 34 24l-133 74q-84 47 -84 136q0 63 53 105t124 42z" />
    <glyph glyph-name="t.ss01" horiz-adv-x="428" 
d="M378 0h-277v359h-84v131h84v137h154v-137h128v-131h-140v-228h135v-131z" />
    <glyph glyph-name="u.ss01" horiz-adv-x="582" 
d="M519 0h-456v490h142v-359h171v359h143v-490z" />
    <glyph glyph-name="uacute.ss01" horiz-adv-x="582" 
d="M519 0h-456v490h142v-359h171v359h143v-490zM280 701h180l-120 -142h-134z" />
    <glyph glyph-name="ugrave.ss01" horiz-adv-x="582" 
d="M519 0h-456v490h142v-359h171v359h143v-490zM110 701h180l74 -142h-134z" />
    <glyph glyph-name="ucircumflex.ss01" horiz-adv-x="582" 
d="M519 0h-456v490h142v-359h171v359h143v-490zM209 701h163l91 -142h-123l-50 59l-49 -59h-123z" />
    <glyph glyph-name="udieresis.ss01" horiz-adv-x="582" 
d="M519 0h-456v490h142v-359h171v359h143v-490zM111 638q0 30 21.5 52t52.5 22q30 0 52.5 -22t22.5 -52t-22.5 -52t-52.5 -22q-31 0 -52.5 21.5t-21.5 52.5zM323 638q0 30 21.5 52t52.5 22q30 0 52.5 -22t22.5 -52t-22.5 -52t-52.5 -22q-31 0 -52.5 21.5t-21.5 52.5z" />
    <glyph glyph-name="y.ss01" horiz-adv-x="570" 
d="M358 -194h-148v194l-195 490h157l113 -307l113 307h157l-197 -490v-194z" />
    <glyph glyph-name="yacute.ss01" horiz-adv-x="540" 
d="M353 -194h-148v194l-195 490h157l113 -307l113 307h157l-197 -490v-194zM269 701h180l-120 -142h-134z" />
    <glyph glyph-name="ydieresis.ss01" horiz-adv-x="570" 
d="M358 -194h-148v194l-195 490h157l113 -307l113 307h157l-197 -490v-194zM105 638q0 30 21.5 52t52.5 22q30 0 52.5 -22t22.5 -52t-22.5 -52t-52.5 -22q-31 0 -52.5 21.5t-21.5 52.5zM317 638q0 30 21.5 52t52.5 22q30 0 52.5 -22t22.5 -52t-22.5 -52t-52.5 -22
q-31 0 -52.5 21.5t-21.5 52.5z" />
    <glyph glyph-name="period.ss01" horiz-adv-x="337" 
d="M65 87q0 42 29 70.5t71 28.5q41 0 69.5 -28.5t28.5 -70.5q0 -41 -28.5 -69.5t-69.5 -28.5q-42 0 -71 28.5t-29 69.5z" />
    <glyph glyph-name="colon.ss01" horiz-adv-x="337" 
d="M65 87q0 42 29 70.5t71 28.5q41 0 69.5 -28.5t28.5 -70.5q0 -41 -28.5 -69.5t-69.5 -28.5q-42 0 -71 28.5t-29 69.5zM65 401q0 42 29 70.5t71 28.5q41 0 69.5 -28.5t28.5 -70.5q0 -41 -28.5 -69.5t-69.5 -28.5q-42 0 -71 28.5t-29 69.5z" />
    <glyph glyph-name="comma.ss01" horiz-adv-x="337" 
d="M139 -154l-120 54l93 229l130 -59z" />
    <glyph glyph-name="semicolon.ss01" horiz-adv-x="337" 
d="M139 -154l-120 54l93 229l130 -59zM65 401q0 42 29 70.5t71 28.5q41 0 69.5 -28.5t28.5 -70.5q0 -41 -28.5 -69.5t-69.5 -28.5q-42 0 -71 28.5t-29 69.5z" />
    <glyph glyph-name="ellipsis.ss01" horiz-adv-x="839" 
d="M65 87q0 42 29 70.5t71 28.5q41 0 69.5 -28.5t28.5 -70.5q0 -41 -28.5 -69.5t-69.5 -28.5q-42 0 -71 28.5t-29 69.5zM320 87q0 42 29 70.5t71 28.5q41 0 69.5 -28.5t28.5 -70.5q0 -41 -28.5 -69.5t-69.5 -28.5q-42 0 -71 28.5t-29 69.5zM576 87q0 42 29 70.5t71 28.5
q41 0 69.5 -28.5t28.5 -70.5q0 -41 -28.5 -69.5t-69.5 -28.5q-42 0 -71 28.5t-29 69.5z" />
    <glyph glyph-name="question.ss01" horiz-adv-x="546" 
d="M155 87q0 42 29 70.5t71 28.5q41 0 69.5 -28.5t28.5 -70.5q0 -41 -28.5 -69.5t-69.5 -28.5q-42 0 -71 28.5t-29 69.5zM324 226h-146v180h47q58 0 96.5 26t38.5 68q0 33 -26.5 54t-67.5 21q-89 0 -142 -81l-94 100q37 55 99 86.5t136 31.5q102 0 172.5 -60t70.5 -155
q0 -79 -50.5 -136.5t-133.5 -74.5v-60z" />
    <glyph glyph-name="questiondown.ss01" horiz-adv-x="546" 
d="M389 420q0 -42 -29 -70.5t-71 -28.5q-41 0 -69.5 28.5t-28.5 70.5q0 41 28.5 69.5t69.5 28.5q42 0 71 -28.5t29 -69.5zM366 281h-146v-60q-83 -17 -133.5 -74.5t-50.5 -136.5q0 -95 70.5 -155t172.5 -60q74 0 136 31.5t99 86.5l-94 100q-53 -81 -142 -81q-41 0 -67.5 21
t-26.5 54q0 42 38.5 68t96.5 26h47v180z" />
    <glyph glyph-name="exclam.ss01" horiz-adv-x="337" 
d="M70 87q0 42 29 70.5t71 28.5q41 0 69.5 -28.5t28.5 -70.5q0 -41 -28.5 -69.5t-69.5 -28.5q-42 0 -71 28.5t-29 69.5zM92 226v475h147v-475h-147z" />
    <glyph glyph-name="exclamdown.ss01" horiz-adv-x="337" 
d="M268 420q0 -42 -29 -70.5t-71 -28.5q-41 0 -69.5 28.5t-28.5 70.5q0 41 28.5 69.5t69.5 28.5q42 0 71 -28.5t29 -69.5zM246 281v-475h-147v475h147z" />
    <glyph glyph-name="quotedblleft.ss01" horiz-adv-x="470" 
d="M134 710l120 -54l-93 -229l-130 59zM328 710l120 -54l-93 -229l-130 59z" />
    <glyph glyph-name="quotedblright.ss01" horiz-adv-x="470" 
d="M324 445l-120 54l93 229l130 -59zM130 445l-120 54l93 229l130 -59z" />
    <glyph glyph-name="quoteleft.ss01" horiz-adv-x="295" 
d="M134 710l120 -54l-93 -229l-130 59z" />
    <glyph glyph-name="quoteright.ss01" horiz-adv-x="295" 
d="M150 443l-120 54l93 229l130 -59z" />
    <glyph glyph-name="quotesinglbase.ss01" horiz-adv-x="295" 
d="M150 -154l-120 54l93 229l130 -59z" />
    <glyph glyph-name="quotedblbase.ss01" horiz-adv-x="470" 
d="M324 -148l-120 54l93 229l130 -59zM130 -148l-120 54l93 229l130 -59z" />
    <glyph glyph-name="ampersand.ss01" horiz-adv-x="699" 
d="M365 565h-60q-24 0 -45.5 -15t-21.5 -48q0 -30 19 -49.5t49 -19.5h112v268h147v-268h96v-136h-96v-297h-263q-105 0 -172 51.5t-67 149.5q0 52 30.5 104.5t73.5 73.5q-31 22 -54 59t-23 78q0 94 65 139.5t176 45.5h34v-136zM210 216q0 -37 25 -58.5t64 -21.5h119v161
h-128q-33 0 -56.5 -22t-23.5 -59z" />
    <glyph glyph-name="germandbls.ss01" horiz-adv-x="645" 
d="M294 292v136l102 135h-180v-563h-151v700h504v-132l-115 -146q71 -18 113.5 -72t42.5 -127q0 -105 -64.5 -164t-178.5 -59h-73v146h67q98 0 98 72q0 74 -98 74h-67z" />
    <glyph glyph-name="dollar.ss01" horiz-adv-x="684" 
d="M375 275l-86 15q-103 17 -162 70t-59 140q0 83 57.5 138t144.5 69v108h147v-113q104 -24 180 -102l-100 -105q-79 81 -178 81q-47 0 -75 -19t-28 -50q0 -56 100 -74l69 -11q236 -38 236 -219q0 -81 -54.5 -136t-149.5 -72v-109h-147v110q-137 24 -219 127l102 103
q78 -101 198 -101q57 0 89.5 21.5t32.5 54.5q0 56 -98 74z" />
    <glyph glyph-name="zero.ss02" horiz-adv-x="659" 
d="M329 129q65 0 95.5 53.5t30.5 168.5t-30.5 168t-95.5 53t-95.5 -53t-30.5 -168t30.5 -168.5t95.5 -53.5zM329 -11q-129 0 -204 102t-75 260t75 259.5t204 101.5t204 -101.5t75 -259.5t-75 -260t-204 -102z" />
    <glyph glyph-name="one.ss02" horiz-adv-x="385" 
d="M158 0v439l-118 -85v151l255 206h10v-711h-147z" />
    <glyph glyph-name="two.ss02" horiz-adv-x="618" 
d="M45 14l292 379q27 35 35.5 53t8.5 44q0 33 -25.5 59.5t-66.5 26.5q-44 0 -80 -21.5t-77 -78.5l-92 92q36 66 103 105t144 39q99 0 171 -56.5t72 -151.5q0 -56 -23 -100.5t-82 -120.5l-114 -146h239v-137h-505v14z" />
    <glyph glyph-name="three.ss02" horiz-adv-x="621" 
d="M534 701v-14l-154 -244q74 -17 123 -76t49 -151q0 -101 -74.5 -164t-182.5 -63q-153 0 -244 112l101 101q52 -77 134 -77q48 0 78 27.5t30 70.5q0 45 -31 71.5t-90 26.5h-115v10l147 238h-226v132h455z" />
    <glyph glyph-name="four.ss02" horiz-adv-x="641" 
d="M454 711h50v-432h97v-131h-97v-148h-148v148h-356v14zM255 279h101v130z" />
    <glyph glyph-name="five.ss02" horiz-adv-x="614" 
d="M404 234q0 48 -33 78t-79 30q-71 0 -104 -63l-133 42l86 380h365v-136h-253l-31 -116q39 23 98 23q97 0 170 -61.5t73 -173.5q0 -106 -75 -177t-196 -71q-156 0 -247 105l102 101q57 -70 137 -70q52 0 86 31.5t34 77.5z" />
    <glyph glyph-name="six.ss02" horiz-adv-x="620" 
d="M312 -10q-115 0 -188.5 73.5t-73.5 191.5q0 59 25.5 121.5t67.5 114.5l171 211h162l-180 -216q16 6 47 6q94 0 159.5 -71t65.5 -178q0 -110 -75 -181.5t-181 -71.5zM195 241q0 -52 32.5 -85.5t82.5 -33.5t81.5 33.5t31.5 85.5t-31.5 85.5t-81.5 33.5t-82.5 -33.5
t-32.5 -85.5z" />
    <glyph glyph-name="seven.ss02" horiz-adv-x="557" 
d="M40 567v134h495v-14l-244 -687h-162l210 567h-299z" />
    <glyph glyph-name="eight.ss02" horiz-adv-x="630" 
d="M315 -10q-105 0 -180 61t-75 170q0 56 29 101t65 69q-24 20 -42 54.5t-18 73.5q0 85 64 139t157 54t157 -54t64 -139q0 -39 -18 -73.5t-42 -54.5q36 -24 65 -69t29 -101q0 -108 -76.5 -169.5t-178.5 -61.5zM315 327q-44 0 -74.5 -29.5t-30.5 -72.5q0 -44 31 -72t74 -28
t74 28t31 72q0 43 -30.5 72.5t-74.5 29.5zM315 592q-30 0 -51.5 -20.5t-21.5 -50.5t19 -51t54 -21q36 0 54.5 20.5t18.5 51.5q0 30 -21.5 50.5t-51.5 20.5z" />
    <glyph glyph-name="nine.ss02" horiz-adv-x="616" 
d="M301 712q115 0 188.5 -73.5t73.5 -191.5q0 -59 -25.5 -121.5t-67.5 -114.5l-171 -211h-162l180 216q-17 -6 -47 -6q-94 0 -159.5 71t-65.5 178q0 110 75 181.5t181 71.5zM418 461q0 52 -32.5 85.5t-82.5 33.5t-81.5 -33.5t-31.5 -85.5t31.5 -85.5t81.5 -33.5t82.5 33.5
t32.5 85.5z" />
    <glyph glyph-name="A.ss02" horiz-adv-x="708" 
d="M359 718l338 -718h-154l-63 133h-257l-62 -133h-150l334 718h14zM351 430l-73 -165h147z" />
    <glyph glyph-name="Aacute.ss02" horiz-adv-x="708" 
d="M359 718l338 -718h-154l-63 133h-257l-62 -133h-150l334 718h14zM351 430l-73 -165h147zM343 872h170l-98 -103h-146z" />
    <glyph glyph-name="Agrave.ss02" horiz-adv-x="708" 
d="M359 718l338 -718h-154l-63 133h-257l-62 -133h-150l334 718h14zM351 430l-73 -165h147zM182 872h170l74 -103h-146z" />
    <glyph glyph-name="Acircumflex.ss02" horiz-adv-x="708" 
d="M359 718l338 -718h-154l-63 133h-257l-62 -133h-150l334 718h14zM351 430l-73 -165h147zM265 872h174l85 -103h-134l-38 40l-38 -40h-135z" />
    <glyph glyph-name="Atilde.ss02" horiz-adv-x="708" 
d="M359 718l338 -718h-154l-63 133h-257l-62 -133h-150l334 718h14zM351 430l-73 -165h147zM425 878h91q0 -51 -26.5 -88t-70.5 -37q-7 0 -43 8l-41 13q-17 5 -30 5q-26 0 -27 -26h-91q0 51 26 88t71 37q12 0 43 -7l41 -13q20 -6 30 -6q26 0 27 26z" />
    <glyph glyph-name="Adieresis.ss02" horiz-adv-x="708" 
d="M359 718l338 -718h-154l-63 133h-257l-62 -133h-150l334 718h14zM351 430l-73 -165h147zM168 815q0 30 21.5 52t52.5 22q30 0 52.5 -22t22.5 -52t-22.5 -52t-52.5 -22q-31 0 -52.5 21.5t-21.5 52.5zM380 815q0 30 21.5 52t52.5 22q30 0 52.5 -22t22.5 -52t-22.5 -52
t-52.5 -22q-31 0 -52.5 21.5t-21.5 52.5z" />
    <glyph glyph-name="Aring.ss02" horiz-adv-x="708" 
d="M245 775q0 47 31.5 77.5t74.5 30.5q45 0 77 -30.5t32 -77.5q0 -37 -22.5 -65.5t-57.5 -37.5l317 -672h-154l-63 138h-257l-62 -138h-150l312 672q-33 9 -55.5 38t-22.5 65zM351 440l-73 -170h147zM317 775q0 -13 10 -23t24 -10q13 0 23 10t10 23t-10 23t-23 10
q-14 0 -24 -10t-10 -23z" />
    <glyph glyph-name="AE.ss02" horiz-adv-x="922" 
d="M859 701v-136h-419l66 -145h336v-136h-274l67 -148h224v-136h-316l-63 138h-255l-64 -138h-150l334 701h514zM351 440l-74 -170h149z" />
    <glyph glyph-name="K.ss02" horiz-adv-x="622" 
d="M217 286v-286h-149v701h149v-277l193 277h168l-240 -340l256 -361h-179z" />
    <glyph glyph-name="M.ss02" horiz-adv-x="866" 
d="M428 98l-211 254v-352h-149v718h14l352 -411l350 411h14v-718h-148v352l-208 -254h-14z" />
    <glyph glyph-name="N.ss02" horiz-adv-x="746" 
d="M664 -17l-447 422v-405h-149v718h14l448 -425v408h148v-718h-14z" />
    <glyph glyph-name="Ntilde.ss02" horiz-adv-x="746" 
d="M664 -17l-447 422v-405h-149v718h14l448 -425v408h148v-718h-14zM431 878h91q0 -51 -26.5 -88t-70.5 -37q-7 0 -43 8l-41 13q-17 5 -30 5q-26 0 -27 -26h-91q0 51 26 88t71 37q12 0 43 -7l41 -13q20 -6 30 -6q26 0 27 26z" />
    <glyph glyph-name="Q.ss02" horiz-adv-x="820" 
d="M40 351q0 156 104 258.5t256 102.5q153 0 258 -102.5t105 -258.5q0 -117 -64 -210l80 -80l-95 -94l-81 80q-91 -58 -203 -58q-152 0 -256 102.5t-104 259.5zM612 351q0 92 -58.5 156.5t-149.5 64.5q-96 0 -153.5 -64t-57.5 -157q0 -92 58.5 -156.5t149.5 -64.5
q96 0 153.5 64t57.5 157z" />
    <glyph glyph-name="R.ss02" horiz-adv-x="660" 
d="M469 0l-174 225h-78v-225h-149v701h284q124 0 199 -60.5t75 -168.5q0 -84 -46 -145.5t-126 -86.5l193 -240h-178zM337 564h-120v-203h120q141 0 141 110q0 93 -141 93z" />
    <glyph glyph-name="S.ss02" horiz-adv-x="602" 
d="M344 271l-103 41q-164 65 -164 199q0 95 67 148t164 53q68 0 126.5 -29t94.5 -74l-96 -97q-54 65 -136 65q-35 0 -54.5 -18.5t-19.5 -42.5t17 -42t59 -35l99 -41q80 -33 122 -77.5t42 -119.5q0 -98 -70.5 -155t-188.5 -57q-82 0 -149 37t-109 96l97 99q74 -98 174 -98
q50 0 75 20t25 52q0 48 -72 76z" />
    <glyph glyph-name="Scaron.ss02" horiz-adv-x="602" 
d="M344 271l-103 41q-164 65 -164 199q0 95 67 148t164 53q68 0 126.5 -29t94.5 -74l-96 -97q-54 65 -136 65q-35 0 -54.5 -18.5t-19.5 -42.5t17 -42t59 -35l99 -41q80 -33 122 -77.5t42 -119.5q0 -98 -70.5 -155t-188.5 -57q-82 0 -149 37t-109 96l97 99q74 -98 174 -98
q50 0 75 20t25 52q0 48 -72 76zM396 769h-174l-86 103h135l38 -41l38 41h134z" />
    <glyph glyph-name="V.ss02" horiz-adv-x="643" 
d="M157 701l165 -413l165 413h151l-309 -718h-14l-309 718h151z" />
    <glyph glyph-name="W.ss02" horiz-adv-x="951" 
d="M678 -17l-204 436l-204 -436h-14l-242 718h151l118 -369l184 386h14l184 -386l118 369h151l-242 -718h-14z" />
    <glyph glyph-name="Z.ss02" horiz-adv-x="698" 
d="M87 701h549v-14l-340 -550h333v-137h-578v14l342 550h-306v137z" />
    <glyph glyph-name="Zcaron.ss02" horiz-adv-x="663" 
d="M87 701h549v-14l-340 -550h333v-137h-578v14l342 550h-306v137zM446 769h-174l-86 103h135l38 -41l38 41h134z" />
    <glyph glyph-name="a.ss02" horiz-adv-x="634" 
d="M35 245q0 109 75 183t182 74q88 0 136 -45v33h143v-490h-143v36q-57 -47 -136 -47q-107 0 -182 73.5t-75 182.5zM182 248q0 -50 35 -88t86 -38q56 0 90.5 37.5t34.5 88.5t-34 86.5t-91 35.5q-52 0 -86.5 -36t-34.5 -86z" />
    <glyph glyph-name="aacute.ss02" horiz-adv-x="634" 
d="M35 245q0 -109 75 -182.5t182 -73.5q79 0 136 47v-36h143v490h-143v-33q-48 45 -136 45q-107 0 -182 -74t-75 -183zM182 248q0 50 34.5 86t86.5 36q57 0 91 -35.5t34 -86.5t-34.5 -88.5t-90.5 -37.5q-51 0 -86 38t-35 88zM286 701h180l-120 -142h-134z" />
    <glyph glyph-name="agrave.ss02" horiz-adv-x="634" 
d="M35 245q0 109 75 183t182 74q88 0 136 -45v33h143v-490h-143v36q-57 -47 -136 -47q-107 0 -182 73.5t-75 182.5zM182 248q0 -50 35 -88t86 -38q56 0 90.5 37.5t34.5 88.5t-34 86.5t-91 35.5q-52 0 -86.5 -36t-34.5 -86zM143 701h180l74 -142h-134z" />
    <glyph glyph-name="acircumflex.ss02" horiz-adv-x="634" 
d="M35 245q0 109 75 183t182 74q88 0 136 -45v33h143v-490h-143v36q-57 -47 -136 -47q-107 0 -182 73.5t-75 182.5zM182 248q0 -50 35 -88t86 -38q56 0 90.5 37.5t34.5 88.5t-34 86.5t-91 35.5q-52 0 -86.5 -36t-34.5 -86zM228 701h163l91 -142h-123l-50 59l-49 -59h-123z
" />
    <glyph glyph-name="adieresis.ss02" horiz-adv-x="634" 
d="M35 245q0 -109 75 -182.5t182 -73.5q79 0 136 47v-36h143v490h-143v-33q-48 45 -136 45q-107 0 -182 -74t-75 -183zM182 248q0 50 34.5 86t86.5 36q57 0 91 -35.5t34 -86.5t-34.5 -88.5t-90.5 -37.5q-51 0 -86 38t-35 88zM123 638q0 30 21.5 52t52.5 22q30 0 52.5 -22
t22.5 -52t-22.5 -52t-52.5 -22q-31 0 -52.5 21.5t-21.5 52.5zM335 638q0 30 21.5 52t52.5 22q30 0 52.5 -22t22.5 -52t-22.5 -52t-52.5 -22q-31 0 -52.5 21.5t-21.5 52.5z" />
    <glyph glyph-name="atilde.ss02" horiz-adv-x="634" 
d="M35 245q0 -109 75 -182.5t182 -73.5q79 0 136 47v-36h143v490h-143v-33q-48 45 -136 45q-107 0 -182 -74t-75 -183zM182 248q0 50 34.5 86t86.5 36q57 0 91 -35.5t34 -86.5t-34.5 -88.5t-90.5 -37.5q-51 0 -86 38t-35 88zM374 701h91q0 -51 -26.5 -88t-70.5 -37
q-7 0 -43 8l-41 13q-17 5 -30 5q-26 0 -27 -26h-91q0 51 26 88t71 37q11 0 43 -7l41 -13q20 -6 30 -6q26 0 27 26z" />
    <glyph glyph-name="aring.ss02" horiz-adv-x="634" 
d="M35 245q0 -109 75 -182.5t182 -73.5q79 0 136 47v-36h143v490h-143v-33q-48 45 -136 45q-107 0 -182 -74t-75 -183zM182 248q0 50 34.5 86t86.5 36q57 0 91 -35.5t34 -86.5t-34.5 -88.5t-90.5 -37.5q-51 0 -86 38t-35 88zM212 627q0 35 25.5 60t61.5 25t61.5 -25
t25.5 -60t-25.5 -60t-61.5 -25t-61.5 25t-25.5 60zM323 627q0 10 -7 16.5t-17 6.5t-17 -6.5t-7 -16.5t7 -16.5t17 -6.5t17 6.5t7 16.5z" />
    <glyph glyph-name="k.ss02" horiz-adv-x="527" 
d="M63 0v701h142v-378l119 167h163l-174 -235l194 -255h-171l-131 177v-177h-142z" />
    <glyph glyph-name="v.ss02" horiz-adv-x="494" 
d="M494 490l-239 -500h-14l-241 500h151l97 -222l95 222h151z" />
    <glyph glyph-name="w.ss02" horiz-adv-x="740" 
d="M238 279l125 221h14l125 -221l86 211h152l-208 -500h-13l-149 271l-149 -271h-13l-208 500h152z" />
    <glyph glyph-name="z.ss02" horiz-adv-x="539" 
d="M66 490h416v-13l-225 -349h222v-128h-439v14l222 349h-196v127z" />
    <glyph glyph-name="zcaron.ss02" horiz-adv-x="505" 
d="M66 490h416v-13l-225 -349h222v-128h-439v14l222 349h-196v127zM353 559h-163l-91 142h123l49 -59l50 59h123z" />
    <glyph glyph-name="question.ss02" horiz-adv-x="510" 
d="M226 483l46 20q26 11 36 20.5t10 22.5q0 31 -50 31q-73 0 -129 -77l-89 95q32 51 88 84t120 33q87 0 144.5 -46.5t57.5 -117.5q0 -64 -34.5 -100.5t-111.5 -68.5l-48 -20q-28 -12 -28 -34q0 -11 8 -18t20 -7q22 0 44 21l66 -84q-54 -55 -130 -55q-58 0 -100.5 40.5
t-42.5 99.5q0 108 123 161zM170 76q0 36 24.5 61t60.5 25t61.5 -25t25.5 -61t-25.5 -61t-61.5 -25t-60.5 25t-24.5 61z" />
    <glyph glyph-name="questiondown.ss02" horiz-adv-x="490" 
d="M284 9l-46 -15q-46 -15 -46 -44q0 -16 14 -25.5t39 -9.5q70 0 126 77l89 -95q-32 -51 -88 -84t-120 -33q-87 0 -144.5 47.5t-57.5 121.5q0 124 146 169l48 15q28 12 28 34q0 11 -8 18t-20 7q-22 0 -44 -21l-66 84q54 55 130 55q58 0 100.5 -40.5t42.5 -99.5
q0 -121 -123 -161zM340 416q0 -36 -24.5 -61t-60.5 -25t-61.5 25t-25.5 61t25.5 61t61.5 25t60.5 -25t24.5 -61z" />
    <glyph glyph-name="ampersand.ss02" horiz-adv-x="699" 
d="M513 0l-44 57q-86 -68 -188 -68q-59 0 -104.5 19t-70.5 51t-37 67t-12 72q0 128 122 199l17 10q-24 32 -34 48t-19.5 41.5t-9.5 52.5q0 67 54.5 115t139.5 48q81 0 136 -45.5t55 -117.5q0 -109 -109 -173l-12 -8l94 -121l82 67l81 -103l-83 -69l113 -142h-171zM286 118
q56 0 101 41l-109 142l-12 -7q-65 -39 -65 -94q0 -38 26 -60t59 -22zM329 579q-20 0 -32.5 -12t-12.5 -30q0 -23 26 -58l9 -12l8 5q47 29 47 65q0 17 -11 29.5t-34 12.5z" />
    <glyph glyph-name="germandbls.ss02" horiz-adv-x="633" 
d="M276 131h68q49 0 77.5 23t28.5 61q0 75 -106 75h-68v131h48q44 0 69 22.5t25 58.5q0 35 -26.5 57t-71.5 22q-121 0 -121 -151v-430h-142v430q0 130 73 206t195 76q96 0 166.5 -57.5t70.5 -145.5q0 -44 -18 -82t-46 -59q95 -57 95 -159q0 -89 -62.5 -149t-171.5 -60h-83
v131z" />
    <glyph glyph-name="dollar.ss02" horiz-adv-x="602" 
d="M344 271l-103 41q-164 65 -164 199q0 80 49 131t126 65v108h121v-111q95 -22 156 -95l-96 -97q-54 65 -136 65q-35 0 -54.5 -18.5t-19.5 -42.5t17 -42t59 -35l99 -41q80 -33 122 -77.5t42 -119.5q0 -82 -50.5 -136t-138.5 -70v-109h-121v107q-129 20 -207 129l97 99
q74 -98 174 -98q50 0 75 20t25 52q0 48 -72 76z" />
    <glyph glyph-name="zero.ss03" horiz-adv-x="659" 
d="M460 351q0 105 -33.5 165t-96.5 60t-96.5 -60t-33.5 -165t33.5 -165.5t96.5 -60.5t96.5 60.5t33.5 165.5zM52 351q0 162 74 261.5t204 99.5t204 -100t74 -261q0 -162 -74 -262t-204 -100t-204 100t-74 262z" />
    <glyph glyph-name="one.ss03" horiz-adv-x="433" 
d="M174 0v485h-144v110q74 4 113.5 28t61.5 78h118v-701h-149z" />
    <glyph glyph-name="two.ss03" horiz-adv-x="539" 
d="M276 576q-40 0 -63.5 -25.5t-25.5 -71.5h-149q5 105 71.5 169t161.5 64q101 0 164.5 -57t63.5 -145q0 -120 -138 -216l-81 -57q-65 -46 -75 -100h291v-137h-466v23q0 114 45 194.5t163 160.5l37 25q40 26 57 49t17 54q0 30 -20 50t-53 20z" />
    <glyph glyph-name="three.ss03" horiz-adv-x="603" 
d="M436 375q42 -21 71 -63.5t29 -101.5q0 -99 -67 -160t-178 -61q-105 0 -171 60t-75 150h149q7 -36 33.5 -55t66.5 -19t67 24.5t27 59.5q0 33 -24.5 55.5t-74.5 22.5h-77v138h46q105 0 105 80q0 34 -22 52.5t-53 18.5q-66 0 -79 -67h-149q9 96 73.5 149.5t150.5 53.5
q95 0 161.5 -49.5t66.5 -139.5q0 -49 -22.5 -89.5t-53.5 -58.5z" />
    <glyph glyph-name="four.ss03" horiz-adv-x="634" 
d="M594 148h-97v-148h-148v148h-315v122l300 431h163v-422h97v-131zM188 279h161v235z" />
    <glyph glyph-name="five.ss03" horiz-adv-x="586" 
d="M421 227q0 49 -30.5 79.5t-84.5 30.5q-34 0 -63 -18t-42 -49h-137l17 431h433v-137h-292l-9 -130q41 33 112 33q100 0 172.5 -66.5t72.5 -177.5q0 -103 -76 -168.5t-193 -65.5q-97 0 -165.5 60t-80.5 148h149q10 -38 39.5 -56t65.5 -18q45 0 78.5 28.5t33.5 75.5z" />
    <glyph glyph-name="six.ss03" horiz-adv-x="627" 
d="M342 589q-53 0 -91.5 -45t-38.5 -133q49 54 135 54q103 0 171.5 -64t68.5 -169q0 -109 -74.5 -176t-181.5 -67q-128 0 -199 89.5t-71 248.5q0 175 72 280t216 105q92 0 157.5 -55t66.5 -136h-141q-4 30 -30 49t-60 19zM333 334q-43 0 -73.5 -28.5t-30.5 -75.5
q0 -44 30 -75t78 -31q45 0 73 28.5t28 76.5q0 47 -29 76t-76 29z" />
    <glyph glyph-name="seven.ss03" horiz-adv-x="580" 
d="M40 564v137h512v-129q-209 -217 -236 -532l-3 -40h-151l4 39q26 306 206 525h-332z" />
    <glyph glyph-name="eight.ss03" horiz-adv-x="622" 
d="M311 -11q-111 0 -182.5 57.5t-71.5 154.5q0 55 25 96.5t63 63.5q-71 58 -71 139q0 94 67.5 153t169.5 59t169.5 -59t67.5 -153q0 -81 -70 -139q37 -22 62 -63.5t25 -96.5q0 -97 -71.5 -154.5t-182.5 -57.5zM400 500q0 35 -26 55.5t-63 20.5q-36 0 -62.5 -20.5
t-26.5 -55.5t26.5 -55.5t62.5 -20.5q37 0 63 20.5t26 55.5zM205 209q0 -39 29.5 -61.5t76.5 -22.5q48 0 77 22.5t29 61.5t-29 62t-77 23q-47 0 -76.5 -23t-29.5 -62z" />
    <glyph glyph-name="nine.ss03" horiz-adv-x="610" 
d="M296 112q53 0 91.5 45t38.5 133q-49 -54 -135 -54q-103 0 -171.5 64t-68.5 169q0 109 74.5 176t181.5 67q128 0 199 -89.5t71 -248.5q0 -175 -72 -280t-216 -105q-92 0 -157.5 55t-66.5 136h141q4 -30 30 -49t60 -19zM305 367q43 0 73.5 28.5t30.5 75.5q0 44 -30 75
t-78 31q-45 0 -73 -28.5t-28 -76.5q0 -47 29 -76t76 -29z" />
    <glyph glyph-name="A.ss03" 
d="M427 701l274 -701h-154l-74 178h-239l-69 -178h-154l274 701h142zM356 499l-73 -189h144z" />
    <glyph glyph-name="Aacute.ss03" 
d="M427 701l274 -701h-154l-74 178h-239l-69 -178h-154l274 701h142zM356 499l-73 -189h144zM326 872h170l-98 -103h-146z" />
    <glyph glyph-name="Agrave.ss03" 
d="M427 701l274 -701h-154l-74 178h-239l-69 -178h-154l274 701h142zM356 499l-73 -189h144zM188 872h170l74 -103h-146z" />
    <glyph glyph-name="Acircumflex.ss03" 
d="M427 701l274 -701h-154l-74 178h-239l-69 -178h-154l274 701h142zM356 499l-73 -189h144zM264 872h174l85 -103h-134l-38 40l-38 -40h-135z" />
    <glyph glyph-name="Adieresis.ss03" 
d="M427 701l274 -701h-154l-74 178h-239l-69 -178h-154l274 701h142zM356 499l-73 -189h144zM206 769v103h115v-103h-115zM392 769v103h115v-103h-115z" />
    <glyph glyph-name="Atilde.ss03" 
d="M427 701l274 -701h-154l-74 178h-239l-69 -178h-154l274 701h142zM356 499l-73 -189h144zM418 872h91q0 -51 -26.5 -88t-70.5 -37q-7 0 -43 8l-41 13q-17 5 -30 5q-26 0 -27 -26h-91q0 51 26 88t71 37q11 0 43 -7l41 -13q20 -6 30 -6q26 0 27 26z" />
    <glyph glyph-name="Aring.ss03" 
d="M249 775q0 47 31.5 77.5t74.5 30.5q45 0 77 -30.5t32 -77.5t-35 -79l272 -696h-154l-74 178h-239l-69 -178h-154l272 697q-34 31 -34 78zM356 499l-73 -189h144zM321 775q0 -13 10 -23t24 -10q13 0 23 10t10 23t-10 23t-23 10q-14 0 -24 -10t-10 -23z" />
    <glyph glyph-name="AE.ss03" horiz-adv-x="933" 
d="M858 0h-311l-74 178h-239l-69 -178h-154l274 701h573v-136h-378l57 -145h304v-136h-251l58 -148h210v-136zM356 499l-73 -189h144z" />
    <glyph glyph-name="C.ss03" horiz-adv-x="664" 
d="M381 577q-85 0 -134.5 -66.5t-49.5 -159.5q0 -95 48.5 -161t137.5 -66q94 0 154 80l92 -99q-92 -116 -250 -116q-144 0 -236.5 104.5t-92.5 257.5q0 152 91.5 256.5t235.5 104.5q151 0 242 -114l-90 -97q-33 39 -66.5 57.5t-81.5 18.5z" />
    <glyph glyph-name="Ccedilla.ss03" horiz-adv-x="679" 
d="M383 -137h-143l69 134q-117 25 -188 123t-71 231q0 152 91.5 256.5t235.5 104.5q151 0 242 -114l-90 -97q-33 39 -66.5 57.5t-81.5 18.5q-85 0 -134.5 -66.5t-49.5 -159.5q0 -95 48.5 -161t137.5 -66q94 0 154 80l92 -99q-73 -93 -194 -111z" />
    <glyph glyph-name="D.ss03" horiz-adv-x="680" 
d="M291 564h-73v-429h73q95 0 144 55.5t49 158.5q0 105 -49 160t-144 55zM70 700h238q144 0 233 -91.5t89 -259.5q0 -166 -89 -257.5t-233 -91.5h-238v700z" />
    <glyph glyph-name="Edieresis.ss03" horiz-adv-x="653" 
d="M74 0v701h517v-137h-368v-139h351v-135h-351v-153h368v-137h-517zM187 769v103h115v-103h-115zM373 769v103h115v-103h-115z" />
    <glyph glyph-name="G.ss03" horiz-adv-x="765" 
d="M417 253v137h291v-390h-131v70q-32 -39 -84.5 -60t-111.5 -21q-139 0 -234.5 98t-95.5 252q0 163 101 268t256 105q175 0 284 -126l-98 -101q-76 88 -174 88q-90 0 -153 -66.5t-63 -167.5q0 -90 53.5 -150.5t134.5 -60.5q64 0 109.5 32t57.5 93h-142z" />
    <glyph glyph-name="Idieresis.ss03" horiz-adv-x="296" 
d="M74 0v701h148v-701h-148zM-2 769v103h115v-103h-115zM184 769v103h115v-103h-115z" />
    <glyph glyph-name="J.ss03" horiz-adv-x="562" 
d="M351 242v459h147v-460q0 -117 -65.5 -184.5t-173.5 -67.5t-169 63t-61 177v21h147v-21q0 -104 85 -104q90 0 90 117z" />
    <glyph glyph-name="M.ss03" horiz-adv-x="911" 
d="M453 205l141 496h247v-701h-150v522l-153 -522h-170l-149 522v-522h-149v701h245z" />
    <glyph glyph-name="O.ss03" horiz-adv-x="754" 
d="M50 351q0 158 90 259.5t235 101.5q146 0 237.5 -102t91.5 -259q0 -159 -91.5 -260.5t-237.5 -101.5q-145 0 -235 101.5t-90 260.5zM198 351q0 -100 47 -163t134 -63q85 0 131.5 63t46.5 163q0 99 -46.5 162t-131.5 63q-86 0 -133.5 -63t-47.5 -162z" />
    <glyph glyph-name="Oacute.ss03" horiz-adv-x="754" 
d="M50 351q0 158 90 259.5t235 101.5q146 0 237.5 -102t91.5 -259q0 -159 -91.5 -260.5t-237.5 -101.5q-145 0 -235 101.5t-90 260.5zM198 351q0 -100 47 -163t134 -63q85 0 131.5 63t46.5 163q0 99 -46.5 162t-131.5 63q-86 0 -133.5 -63t-47.5 -162zM357 872h170l-98 -103
h-146z" />
    <glyph glyph-name="Ograve.ss03" horiz-adv-x="754" 
d="M50 351q0 158 90 259.5t235 101.5q146 0 237.5 -102t91.5 -259q0 -159 -91.5 -260.5t-237.5 -101.5q-145 0 -235 101.5t-90 260.5zM198 351q0 -100 47 -163t134 -63q85 0 131.5 63t46.5 163q0 99 -46.5 162t-131.5 63q-86 0 -133.5 -63t-47.5 -162zM230 872h170l74 -103
h-146z" />
    <glyph glyph-name="Ocircumflex.ss03" horiz-adv-x="754" 
d="M50 351q0 158 90 259.5t235 101.5q146 0 237.5 -102t91.5 -259q0 -159 -91.5 -260.5t-237.5 -101.5q-145 0 -235 101.5t-90 260.5zM198 351q0 -100 47 -163t134 -63q85 0 131.5 63t46.5 163q0 99 -46.5 162t-131.5 63q-86 0 -133.5 -63t-47.5 -162zM287 872h174l85 -103
h-134l-38 40l-38 -40h-135z" />
    <glyph glyph-name="Otilde.ss03" horiz-adv-x="754" 
d="M50 351q0 158 90 259.5t235 101.5q146 0 237.5 -102t91.5 -259q0 -159 -91.5 -260.5t-237.5 -101.5q-145 0 -235 101.5t-90 260.5zM198 351q0 -100 47 -163t134 -63q85 0 131.5 63t46.5 163q0 99 -46.5 162t-131.5 63q-86 0 -133.5 -63t-47.5 -162zM449 872h91
q0 -51 -26.5 -88t-70.5 -37q-7 0 -43 8l-41 13q-17 5 -30 5q-26 0 -27 -26h-91q0 51 26 88t71 37q12 0 43 -7l41 -13q20 -6 30 -6q26 0 27 26z" />
    <glyph glyph-name="Odieresis.ss03" horiz-adv-x="754" 
d="M50 351q0 158 90 259.5t235 101.5q146 0 237.5 -102t91.5 -259q0 -159 -91.5 -260.5t-237.5 -101.5q-145 0 -235 101.5t-90 260.5zM198 351q0 -100 47 -163t134 -63q85 0 131.5 63t46.5 163q0 99 -46.5 162t-131.5 63q-86 0 -133.5 -63t-47.5 -162zM230 769v103h115v-103
h-115zM416 769v103h115v-103h-115z" />
    <glyph glyph-name="Q.ss03" horiz-adv-x="760" 
d="M50 356q0 157 90 256.5t235 99.5q146 0 237.5 -99.5t91.5 -256.5q0 -135 -67 -228l88 8v-136h-353q-145 1 -233.5 99.5t-88.5 256.5zM198 356q0 -101 47.5 -166t133.5 -65q85 0 131.5 65t46.5 166q0 99 -46.5 159.5t-131.5 60.5q-87 0 -134 -60.5t-47 -159.5z" />
    <glyph glyph-name="R.ss03" horiz-adv-x="668" 
d="M643 0h-158l-27 113q-12 50 -25 76t-46.5 43.5t-91.5 17.5h-78v-250h-149v701h284q125 0 199.5 -57.5t74.5 -160.5q0 -60 -34 -110.5t-92 -75.5q47 -29 68.5 -63t35.5 -88zM354 564h-137v-178h137q64 0 94 22t30 69q0 43 -32.5 65t-91.5 22z" />
    <glyph glyph-name="Udieresis.ss03" horiz-adv-x="714" 
d="M503 306v395h148v-390q0 -157 -78 -239.5t-216 -82.5t-216 82.5t-78 239.5v390h148v-397q0 -80 37 -129.5t109 -49.5q146 0 146 181zM206 769v103h115v-103h-115zM392 769v103h115v-103h-115z" />
    <glyph glyph-name="Ydieresis.ss03" horiz-adv-x="646" 
d="M179 701l144 -295l145 295h162l-234 -456v-245h-147v245l-232 456h162zM179 769v103h115v-103h-115zM365 769v103h115v-103h-115z" />
    <glyph glyph-name="a.ss03" horiz-adv-x="529" 
d="M210 -11q-77 0 -123.5 43.5t-46.5 104.5q0 135 165 156l106 13v16q0 24 -15 36.5t-41 12.5q-22 0 -38 -11t-18 -34h-143q5 81 60.5 128.5t141.5 47.5q87 0 141.5 -42.5t54.5 -122.5v-177q0 -40 33 -40h17v-119q-34 -3 -57 -3q-41 0 -63.5 10t-32.5 37q-49 -56 -141 -56z
M179 153q0 -17 14 -28t36 -11q82 0 82 87v6l-84 -13q-48 -8 -48 -41z" />
    <glyph glyph-name="aacute.ss03" horiz-adv-x="529" 
d="M210 -11q-77 0 -123.5 43.5t-46.5 104.5q0 135 165 156l106 13v16q0 24 -15 36.5t-41 12.5q-22 0 -38 -11t-18 -34h-143q5 81 60.5 128.5t141.5 47.5q87 0 141.5 -42.5t54.5 -122.5v-177q0 -40 33 -40h17v-119q-34 -3 -57 -3q-41 0 -63.5 10t-32.5 37q-49 -56 -141 -56z
M179 153q0 -17 14 -28t36 -11q82 0 82 87v6l-84 -13q-48 -8 -48 -41zM253 701h180l-120 -142h-134z" />
    <glyph glyph-name="agrave.ss03" horiz-adv-x="529" 
d="M210 -11q-77 0 -123.5 43.5t-46.5 104.5q0 135 165 156l106 13v16q0 24 -15 36.5t-41 12.5q-22 0 -38 -11t-18 -34h-143q5 81 60.5 128.5t141.5 47.5q87 0 141.5 -42.5t54.5 -122.5v-177q0 -40 33 -40h17v-119q-34 -3 -57 -3q-41 0 -63.5 10t-32.5 37q-49 -56 -141 -56z
M179 153q0 -17 14 -28t36 -11q82 0 82 87v6l-84 -13q-48 -8 -48 -41zM113 701h180l74 -142h-134z" />
    <glyph glyph-name="acircumflex.ss03" horiz-adv-x="529" 
d="M210 -11q-77 0 -123.5 43.5t-46.5 104.5q0 135 165 156l106 13v16q0 24 -15 36.5t-41 12.5q-22 0 -38 -11t-18 -34h-143q5 81 60.5 128.5t141.5 47.5q87 0 141.5 -42.5t54.5 -122.5v-177q0 -40 33 -40h17v-119q-34 -3 -57 -3q-41 0 -63.5 10t-32.5 37q-49 -56 -141 -56z
M179 153q0 -17 14 -28t36 -11q82 0 82 87v6l-84 -13q-48 -8 -48 -41zM182 701h163l91 -142h-123l-50 59l-49 -59h-123z" />
    <glyph glyph-name="adieresis.ss03" horiz-adv-x="529" 
d="M210 -11q-77 0 -123.5 43.5t-46.5 104.5q0 135 165 156l106 13v16q0 24 -15 36.5t-41 12.5q-22 0 -38 -11t-18 -34h-143q5 81 60.5 128.5t141.5 47.5q87 0 141.5 -42.5t54.5 -122.5v-177q0 -40 33 -40h17v-119q-34 -3 -57 -3q-41 0 -63.5 10t-32.5 37q-49 -56 -141 -56z
M179 153q0 -17 14 -28t36 -11q82 0 82 87v6l-84 -13q-48 -8 -48 -41zM119 598v103h115v-103h-115zM305 598v103h115v-103h-115z" />
    <glyph glyph-name="atilde.ss03" horiz-adv-x="529" 
d="M210 -11q-77 0 -123.5 43.5t-46.5 104.5q0 135 165 156l106 13v16q0 24 -15 36.5t-41 12.5q-22 0 -38 -11t-18 -34h-143q5 81 60.5 128.5t141.5 47.5q87 0 141.5 -42.5t54.5 -122.5v-177q0 -40 33 -40h17v-119q-34 -3 -57 -3q-41 0 -63.5 10t-32.5 37q-49 -56 -141 -56z
M179 153q0 -17 14 -28t36 -11q82 0 82 87v6l-84 -13q-48 -8 -48 -41zM334 701h91q0 -51 -26.5 -88t-70.5 -37q-7 0 -43 8l-41 13q-17 5 -30 5q-26 0 -27 -26h-91q0 51 26 88t71 37q12 0 43 -7l41 -13q20 -6 30 -6q26 0 27 26z" />
    <glyph glyph-name="aring.ss03" horiz-adv-x="529" 
d="M210 -11q-77 0 -123.5 43.5t-46.5 104.5q0 135 165 156l106 13v16q0 24 -15 36.5t-41 12.5q-22 0 -38 -11t-18 -34h-143q5 81 60.5 128.5t141.5 47.5q87 0 141.5 -42.5t54.5 -122.5v-177q0 -40 33 -40h17v-119q-34 -3 -57 -3q-41 0 -63.5 10t-32.5 37q-49 -56 -141 -56z
M179 153q0 -17 14 -28t36 -11q82 0 82 87v6l-84 -13q-48 -8 -48 -41zM174 627q0 35 25.5 60t61.5 25t61.5 -25t25.5 -60t-25.5 -60t-61.5 -25t-61.5 25t-25.5 60zM285 627q0 10 -7 16.5t-17 6.5t-17 -6.5t-7 -16.5t7 -16.5t17 -6.5t17 6.5t7 16.5z" />
    <glyph glyph-name="ae.ss03" horiz-adv-x="846" 
d="M565 377q-37 0 -61.5 -20t-31.5 -53h176q-2 31 -25 52t-58 21zM417 442q54 60 145 60q112 0 174 -75t62 -176l-1 -42h-332q6 -40 35 -65t75 -25q75 0 120 57l94 -88q-79 -99 -210 -99q-113 0 -183 75q-67 -75 -176 -75q-77 0 -123.5 43.5t-46.5 104.5q0 135 165 156
l106 13v16q0 24 -15 36.5t-41 12.5q-22 0 -38 -11t-18 -34h-143q5 81 60.5 128.5t141.5 47.5q103 0 149 -60zM189 153q0 -17 14 -28t36 -11q82 0 82 87v6l-84 -13q-48 -8 -48 -41z" />
    <glyph glyph-name="i.ss03" horiz-adv-x="263" 
d="M60 0v490h143v-490h-143zM60 566v135h143v-135h-143z" />
    <glyph glyph-name="idieresis.ss03" horiz-adv-x="300" 
d="M79 0v490h143v-490h-143zM-25 576v125h150v-125h-150zM175 576v125h150v-125h-150z" />
    <glyph glyph-name="j.ss03" horiz-adv-x="278" 
d="M76 566v135h142v-135h-142zM76 -7v497h142v-514q0 -175 -172 -175l-66 2v130h31q33 0 49 12.5t16 47.5z" />
    <glyph glyph-name="y.ss03" horiz-adv-x="557" 
d="M194 -21l9 21l-191 490h158l110 -304l114 304h152l-219 -549q-29 -72 -73 -106t-133 -34l-45 1v131q15 -1 27 -1q45 0 61.5 8.5t29.5 38.5z" />
    <glyph glyph-name="yacute.ss03" horiz-adv-x="557" 
d="M194 -21l9 21l-191 490h158l110 -304l114 304h152l-219 -549q-29 -72 -73 -106t-133 -34l-45 1v131q15 -1 27 -1q45 0 61.5 8.5t29.5 38.5zM280 701h180l-120 -142h-134z" />
    <glyph glyph-name="ydieresis.ss03" horiz-adv-x="557" 
d="M132 598v103h115v-103h-115zM318 598v103h115v-103h-115zM194 -21l9 21l-191 490h158l110 -304l114 304h152l-219 -549q-29 -72 -73 -106t-133 -34l-45 1v131q15 -1 27 -1q45 0 61.5 8.5t29.5 38.5z" />
    <glyph glyph-name="edieresis.ss03" horiz-adv-x="556" 
d="M184 209h332q1 25 1 42q0 101 -62 176t-174 75q-106 0 -173.5 -74t-67.5 -186q0 -114 73 -183.5t185 -69.5q131 0 210 99l-94 88q-45 -57 -120 -57q-46 0 -75 25t-35 65zM284 377q35 0 58 -21t25 -52h-176q7 32 31 52.5t62 20.5zM132 598v103h115v-103h-115zM318 598v103
h115v-103h-115z" />
    <glyph glyph-name="odieresis.ss03" horiz-adv-x="609" 
d="M45 245q0 110 74.5 183.5t184.5 73.5t184.5 -73.5t74.5 -183.5t-74 -183t-185 -73t-185 73t-74 183zM190 245q0 -54 32 -89t82 -35t82 35t32 89t-32 89t-82 35t-82 -35t-32 -89zM155 598v103h115v-103h-115zM341 598v103h115v-103h-115z" />
    <glyph glyph-name="udieresis.ss03" horiz-adv-x="570" 
d="M364 490v-251q0 -119 -84 -119q-37 0 -56 25t-19 66v279h-143v-285q0 -103 48.5 -159.5t134.5 -56.5q78 0 122 45v-34h140v490h-143zM134 598v103h115v-103h-115zM320 598v103h115v-103h-115z" />
    <glyph glyph-name="period.ss03" horiz-adv-x="281" 
d="M65 0v156h151v-156h-151z" />
    <glyph glyph-name="colon.ss03" horiz-adv-x="281" 
d="M65 0v156h151v-156h-151zM65 334v156h151v-156h-151z" />
    <glyph glyph-name="comma.ss03" horiz-adv-x="281" 
d="M62 0v146h151v-111q0 -166 -151 -179v69q33 4 53 23.5t20 51.5h-73z" />
    <glyph glyph-name="semicolon.ss03" horiz-adv-x="284" 
d="M62 0v146h151v-111q0 -166 -151 -179v69q33 4 53 23.5t20 51.5h-73zM68 334v156h151v-156h-151z" />
    <glyph glyph-name="ellipsis.ss03" horiz-adv-x="797" 
d="M65 0v156h151v-156h-151zM323 0v156h151v-156h-151zM581 0v156h151v-156h-151z" />
    <glyph glyph-name="question.ss03" horiz-adv-x="551" 
d="M324 211h-146v18q0 58 17 93t62 68l31 23q69 50 69 96q0 32 -23 49t-56 17q-47 0 -74 -24t-33 -66h-146q3 97 74 162t178 65q101 0 165 -54t64 -142q0 -55 -27 -96.5t-79 -84.5l-23 -19q-33 -25 -43 -44t-10 -54v-7zM179 0v131h145v-131h-145z" />
    <glyph glyph-name="questiondown.ss03" horiz-adv-x="551" 
d="M351 295h-146v-7q0 -35 -10 -54t-43 -44l-23 -19q-52 -43 -79 -84.5t-27 -96.5q0 -88 64 -142t165 -54q107 0 178 65t74 162h-146q-6 -42 -33 -66t-74 -24q-33 0 -56 17t-23 49q0 46 69 96l31 23q45 33 62 68t17 93v18zM350 506v-131h-145v131h145z" />
    <glyph glyph-name="exclam.ss03" horiz-adv-x="335" 
d="M95 211v490h145v-490h-145zM95 0v131h145v-131h-145z" />
    <glyph glyph-name="exclamdown.ss03" horiz-adv-x="335" 
d="M240 279v-490h-145v490h145zM240 490v-131h-145v131h145z" />
    <glyph glyph-name="quotedblright.ss03" horiz-adv-x="483" 
d="M275 570v131h145v-96q0 -81 -35 -125t-110 -54v69q67 16 67 75h-67zM63 570v131h145v-96q0 -81 -35 -125t-110 -54v69q67 16 67 75h-67z" />
    <glyph glyph-name="quotedblleft.ss03" horiz-adv-x="481" 
d="M208 557v-131h-145v96q0 81 35 125t110 54v-69q-67 -16 -67 -75h67zM420 557v-131h-145v96q0 81 35 125t110 54v-69q-67 -16 -67 -75h67z" />
    <glyph glyph-name="quoteleft.ss03" horiz-adv-x="281" 
d="M279 557v-146h-151v111q0 166 151 179v-69q-33 -4 -53 -23.5t-20 -51.5h73z" />
    <glyph glyph-name="quoteright.ss03" horiz-adv-x="281" 
d="M62 570v146h151v-111q0 -166 -151 -179v69q33 4 53 23.5t20 51.5h-73z" />
    <glyph glyph-name="quotesinglbase.ss03" horiz-adv-x="281" 
d="M62 0v146h151v-111q0 -166 -151 -179v69q33 4 53 23.5t20 51.5h-73z" />
    <glyph glyph-name="quotedblbase.ss03" horiz-adv-x="493" 
d="M62 0v146h151v-111q0 -166 -151 -179v69q33 4 53 23.5t20 51.5h-73zM274 0v146h151v-111q0 -166 -151 -179v69q33 4 53 23.5t20 51.5h-73z" />
    <glyph glyph-name="dieresis.ss03" horiz-adv-x="568" 
d="M132 598v103h115v-103h-115zM318 598v103h115v-103h-115z" />
    <glyph glyph-name="LF" horiz-adv-x="0" 
 />
    <glyph glyph-name="apple" horiz-adv-x="0" 
 />
    </font>
</defs>
</svg>
