<?xml version="1.0" standalone="no"?><!DOCTYPE svg PUBLIC "-//W3C//DTD SVG 1.1//EN" "http://www.w3.org/Graphics/SVG/1.1/DTD/svg11.dtd" ><svg version="1.1" xmlns="http://www.w3.org/2000/svg"><defs><font horiz-adv-x="0" id="font"><font-face ascent="750" bbox="-94 -207 1519 996" cap-height="700" descent="-250" font-family="Maax" font-stretch="normal" font-style="italic" font-weight="400" units-per-em="1000" x-height="490" /><missing-glyph d="M293 202C275 202 262 188 262 171C262 153 275 139 293 139C310 139 323 153 323 171C323 188 310 202 293 202ZM302 153 294 165H287V153H279V190H296C304 190 309 185 309 178C309 172 306 168 301 166L310 153ZM145 400C135 417 115 422 98 412C82 402 76 383 85 366C95 349 115 345 132 354C148 364 154 384 145 400ZM294 184H287V171H294C299 171 302 173 302 178C302 181 299 184 294 184ZM260 412C237 399 239 368 258 334C263 326 267 320 273 314L302 406C288 417 273 420 260 412ZM314 394 286 302C299 291 313 289 327 296C349 310 347 340 328 374C324 382 319 388 314 394ZM294 684 10 520V192L294 28L579 192V520ZM308 561H355V553H316V528H352V520H316V486H308ZM230 561H285V553H261V486H253V553H230ZM127 259 120 272 140 342 136 339C114 326 85 334 71 358C57 382 66 412 90 426C115 440 145 433 159 409C169 392 166 374 160 354L140 285L208 325L216 310ZM293 130C270 130 253 148 253 171C253 193 270 211 293 211C315 211 333 193 333 171C333 148 315 130 293 130ZM335 282C299 262 264 289 243 326C222 362 217 406 252 426C287 446 322 420 343 383C364 347 370 303 335 282ZM493 281C473 269 453 272 438 278L443 295C456 288 470 287 486 296C505 307 511 328 501 348C490 365 469 370 452 360C437 352 432 338 434 326L420 318L373 400L451 445L459 431L396 394L422 348C426 359 433 368 445 375C467 388 499 385 515 356C530 332 525 299 493 281Z" horiz-adv-x="589" /><glyph d="M438 700H352L-21 0H64L149 161H491L532 0H612ZM382 602 473 234H189Z" glyph-name="A" horiz-adv-x="682" unicode="A" /><glyph d="M473 700H277L-10 0H74L141 161H465L486 0H564ZM328 630H410L457 234H169Z" glyph-name="A.ss01" horiz-adv-x="644" /><glyph d="M415 718H406L-24 0H61L157 161H511L563 0H643ZM390 557 492 234H198Z" glyph-name="A.ss02" horiz-adv-x="690" /><glyph d="M438 700H352L-21 0H65L175 206H480L533 0H612ZM383 602 463 279H213Z" glyph-name="A.ss03" horiz-adv-x="682" /><glyph d="M885 700H352L-21 0H61L147 161H489L530 0H786L796 72H594L531 321H820L830 393H513L454 628H874ZM380 602 470 234H187Z" glyph-name="AE" horiz-adv-x="910" unicode="&#198;" /><glyph d="M277 700 -10 0H74L141 161H465L486 0H759L769 72H553L521 321H793L803 393H512L482 628H847L857 700ZM328 630H408L457 234H169Z" glyph-name="AE.ss01" horiz-adv-x="882" /><glyph d="M888 700H401L-24 0H60L159 161H509L562 0H789L799 72H619L538 321H823L833 393H514L437 628H877ZM388 545 488 234H201Z" glyph-name="AE.ss02" horiz-adv-x="913" /><glyph d="M903 700H352L-21 0H65L175 206H480L533 0H804L814 72H594L532 321H838L848 393H514L456 628H892ZM383 602 463 279H213Z" glyph-name="AE.ss03" horiz-adv-x="928" /><glyph d="M885 700H352L-21 0H61L147 161H489L530 0H786L796 72H594L531 321H820L830 393H513L454 628H874ZM380 602 470 234H187ZM638 872 552 769H626L740 872Z" glyph-name="AEacute" horiz-adv-x="910" unicode="&#508;" /><glyph d="M277 700 -10 0H74L141 161H465L486 0H759L769 72H553L521 321H793L803 393H512L482 628H847L857 700ZM328 630H408L457 234H169ZM579 872 493 769H567L681 872Z" glyph-name="AEacute.ss01" horiz-adv-x="882" /><glyph d="M888 700H401L-24 0H60L159 161H509L562 0H789L799 72H619L538 321H823L833 393H514L437 628H877ZM388 545 488 234H201ZM658 872 572 769H646L760 872Z" glyph-name="AEacute.ss02" horiz-adv-x="913" /><glyph d="M903 700H352L-21 0H65L175 206H480L533 0H804L814 72H594L532 321H838L848 393H514L456 628H892ZM383 602 463 279H213ZM668 872 582 769H656L770 872Z" glyph-name="AEacute.ss03" horiz-adv-x="928" /><glyph d="M438 700H352L-21 0H64L149 161H491L532 0H612ZM382 602 473 234H189ZM428 872 342 769H416L530 872Z" glyph-name="Aacute" horiz-adv-x="682" unicode="&#193;" /><glyph d="M473 700H277L-10 0H74L141 161H465L486 0H564ZM328 630H410L457 234H169ZM409 872 323 769H397L511 872Z" glyph-name="Aacute.ss01" horiz-adv-x="644" /><glyph d="M415 718H406L-24 0H61L157 161H511L563 0H643ZM390 557 492 234H198ZM443 872 357 769H431L545 872Z" glyph-name="Aacute.ss02" horiz-adv-x="690" /><glyph d="M438 700H352L-21 0H65L175 206H480L533 0H612ZM383 602 463 279H213ZM431 872 345 769H419L533 872Z" glyph-name="Aacute.ss03" horiz-adv-x="682" /><glyph d="M438 700H352L-21 0H64L149 161H491L532 0H612ZM382 602 473 234H189ZM402 759C477 759 528 807 543 872H476C468 841 445 822 411 822C378 822 360 841 360 872H294C291 807 328 759 402 759Z" glyph-name="Abreve" horiz-adv-x="682" unicode="&#258;" /><glyph d="M473 700H277L-10 0H74L141 161H465L486 0H564ZM328 630H410L457 234H169ZM383 759C458 759 509 807 524 872H457C449 841 426 822 392 822C359 822 341 841 341 872H275C272 807 309 759 383 759Z" glyph-name="Abreve.ss01" horiz-adv-x="644" /><glyph d="M415 718H406L-24 0H61L157 161H511L563 0H643ZM390 557 492 234H198ZM417 759C492 759 543 807 558 872H491C483 841 460 822 426 822C393 822 375 841 375 872H309C306 807 343 759 417 759Z" glyph-name="Abreve.ss02" horiz-adv-x="690" /><glyph d="M438 700H352L-21 0H65L175 206H480L533 0H612ZM383 602 463 279H213ZM405 759C480 759 531 807 546 872H479C471 841 448 822 414 822C381 822 363 841 363 872H297C294 807 331 759 405 759Z" glyph-name="Abreve.ss03" horiz-adv-x="682" /><glyph d="M438 700H352L-21 0H64L149 161H491L532 0H612ZM382 602 473 234H189ZM259 769H338L413 831L469 769H549L466 872H369Z" glyph-name="Acircumflex" horiz-adv-x="682" unicode="&#194;" /><glyph d="M473 700H277L-10 0H74L141 161H465L486 0H564ZM328 630H410L457 234H169ZM240 769H319L394 831L450 769H530L447 872H350Z" glyph-name="Acircumflex.ss01" horiz-adv-x="644" /><glyph d="M415 718H406L-24 0H61L157 161H511L563 0H643ZM390 557 492 234H198ZM274 769H353L428 831L484 769H564L481 872H384Z" glyph-name="Acircumflex.ss02" horiz-adv-x="690" /><glyph d="M438 700H352L-21 0H65L175 206H480L533 0H612ZM383 602 463 279H213ZM262 769H341L416 831L472 769H552L469 872H372Z" glyph-name="Acircumflex.ss03" horiz-adv-x="682" /><glyph d="M438 700H352L-21 0H64L149 161H491L532 0H612ZM382 602 473 234H189ZM268 820C268 791 290 769 319 769C348 769 371 791 371 820C371 849 348 872 319 872C290 872 268 849 268 820ZM449 820C449 791 471 769 500 769C529 769 552 791 552 820C552 849 529 872 500 872C471 872 449 849 449 820Z" glyph-name="Adieresis" horiz-adv-x="682" unicode="&#196;" /><glyph d="M473 700H277L-10 0H74L141 161H465L486 0H564ZM328 630H410L457 234H169ZM249 820C249 791 271 769 300 769C329 769 352 791 352 820C352 849 329 872 300 872C271 872 249 849 249 820ZM430 820C430 791 452 769 481 769C510 769 533 791 533 820C533 849 510 872 481 872C452 872 430 849 430 820Z" glyph-name="Adieresis.ss01" horiz-adv-x="644" /><glyph d="M415 718H406L-24 0H61L157 161H511L563 0H643ZM390 557 492 234H198ZM283 820C283 791 305 769 334 769C363 769 386 791 386 820C386 849 363 872 334 872C305 872 283 849 283 820ZM464 820C464 791 486 769 515 769C544 769 567 791 567 820C567 849 544 872 515 872C486 872 464 849 464 820Z" glyph-name="Adieresis.ss02" horiz-adv-x="690" /><glyph d="M438 700H352L-21 0H65L175 206H480L533 0H612ZM383 602 463 279H213ZM354 772 368 869H283L269 772ZM527 772 541 869H456L442 772Z" glyph-name="Adieresis.ss03" horiz-adv-x="682" /><glyph d="M438 700H352L-21 0H64L149 161H491L532 0H612ZM382 602 473 234H189ZM276 872 361 769H435L378 872Z" glyph-name="Agrave" horiz-adv-x="682" unicode="&#192;" /><glyph d="M473 700H277L-10 0H74L141 161H465L486 0H564ZM328 630H410L457 234H169ZM257 872 342 769H416L359 872Z" glyph-name="Agrave.ss01" horiz-adv-x="644" /><glyph d="M415 718H406L-24 0H61L157 161H511L563 0H643ZM390 557 492 234H198ZM291 872 376 769H450L393 872Z" glyph-name="Agrave.ss02" horiz-adv-x="690" /><glyph d="M438 700H352L-21 0H65L175 206H480L533 0H612ZM383 602 463 279H213ZM279 872 364 769H438L381 872Z" glyph-name="Agrave.ss03" horiz-adv-x="682" /><glyph d="M438 700H352L-21 0H64L149 161H491L532 0H612ZM382 602 473 234H189ZM291 787H519L529 855H301Z" glyph-name="Amacron" horiz-adv-x="682" unicode="&#256;" /><glyph d="M473 700H277L-10 0H74L141 161H465L486 0H564ZM328 630H410L457 234H169ZM272 787H500L510 855H282Z" glyph-name="Amacron.ss01" horiz-adv-x="644" /><glyph d="M415 718H406L-24 0H61L157 161H511L563 0H643ZM390 557 492 234H198ZM306 787H534L544 855H316Z" glyph-name="Amacron.ss02" horiz-adv-x="690" /><glyph d="M438 700H352L-21 0H65L175 206H480L533 0H612ZM383 602 463 279H213ZM294 787H522L532 855H304Z" glyph-name="Amacron.ss03" horiz-adv-x="682" /><glyph d="M594 -125H589C548 -125 534 -110 534 -90C534 -66 545 -46 611 0H612L438 700H352L-21 0H64L149 161H491L532 0H537C495 -26 461 -68 461 -114C461 -158 492 -184 550 -184C565 -184 578 -182 586 -180ZM382 602 473 234H189Z" glyph-name="Aogonek" horiz-adv-x="682" unicode="&#260;" /><glyph d="M547 -125H542C501 -125 487 -110 487 -90C487 -66 498 -46 564 0L473 700H277L-10 0H74L141 161H465L486 0H490C448 -26 414 -68 414 -114C414 -158 445 -184 503 -184C518 -184 531 -182 539 -180ZM328 630H410L457 234H169Z" glyph-name="Aogonek.ss01" horiz-adv-x="644" /><glyph d="M626 -125H621C580 -125 566 -110 566 -90C566 -66 577 -46 643 0L415 718H406L-24 0H61L157 161H511L563 0H569C527 -26 493 -68 493 -114C493 -158 524 -184 582 -184C597 -184 610 -182 618 -180ZM390 557 492 234H198Z" glyph-name="Aogonek.ss02" horiz-adv-x="690" /><glyph d="M577 -125H572C531 -125 517 -110 517 -90C517 -66 528 -46 594 0L420 700H334L-39 0H47L157 206H462L515 0H520C478 -26 444 -68 444 -114C444 -158 475 -184 533 -184C548 -184 561 -182 569 -180ZM365 602 445 279H195Z" glyph-name="Aogonek.ss03" horiz-adv-x="664" /><glyph d="M315 766C315 737 329 712 351 699L-21 0H64L149 161H491L532 0H612L438 699C470 716 494 749 494 786C494 833 461 864 416 864C366 864 315 823 315 766ZM382 602 473 234H189ZM371 771C371 793 389 809 410 809C427 809 439 797 439 780C439 758 422 742 401 742C384 742 371 754 371 771Z" glyph-name="Aring" horiz-adv-x="682" unicode="&#197;" /><glyph d="M296 766C296 738 310 714 331 700H277L-10 0H74L141 161H465L486 0H564L473 700H420C452 717 475 749 475 786C475 833 442 864 397 864C347 864 296 823 296 766ZM328 630H410L457 234H169ZM352 771C352 793 370 809 391 809C408 809 420 797 420 780C420 758 403 742 382 742C365 742 352 754 352 771Z" glyph-name="Aring.ss01" horiz-adv-x="644" /><glyph d="M330 764C330 727 354 696 388 688L-24 0H61L157 161H511L563 0H643L424 687C471 696 509 737 509 784C509 831 476 862 431 862C381 862 330 821 330 764ZM390 557 492 234H198ZM386 769C386 791 404 807 425 807C442 807 454 795 454 778C454 756 437 740 416 740C399 740 386 752 386 769Z" glyph-name="Aring.ss02" horiz-adv-x="690" /><glyph d="M318 766C318 738 332 714 353 700H352L-21 0H65L175 206H480L533 0H612L438 698C472 714 497 748 497 786C497 833 464 864 419 864C369 864 318 823 318 766ZM383 602 463 279H213ZM374 771C374 793 392 809 413 809C430 809 442 797 442 780C442 758 425 742 404 742C387 742 374 754 374 771Z" glyph-name="Aring.ss03" horiz-adv-x="682" /><glyph d="M315 766C315 737 329 712 351 699L-21 0H64L149 161H491L532 0H612L438 699C470 716 494 749 494 786C494 833 461 864 416 864C366 864 315 823 315 766ZM382 602 473 234H189ZM451 996 365 893H439L553 996ZM371 771C371 793 389 809 410 809C427 809 439 797 439 780C439 758 422 742 401 742C384 742 371 754 371 771Z" glyph-name="Aringacute" horiz-adv-x="682" unicode="&#506;" /><glyph d="M296 766C296 738 310 714 331 700H277L-10 0H74L141 161H465L486 0H564L473 700H420C452 717 475 749 475 786C475 833 442 864 397 864C347 864 296 823 296 766ZM328 630H410L457 234H169ZM432 996 346 893H420L534 996ZM352 771C352 793 370 809 391 809C408 809 420 797 420 780C420 758 403 742 382 742C365 742 352 754 352 771Z" glyph-name="Aringacute.ss01" horiz-adv-x="644" /><glyph d="M330 764C330 727 354 696 388 688L-24 0H61L157 161H511L563 0H643L424 687C471 696 509 737 509 784C509 831 476 862 431 862C381 862 330 821 330 764ZM390 557 492 234H198ZM466 994 380 891H454L568 994ZM386 769C386 791 404 807 425 807C442 807 454 795 454 778C454 756 437 740 416 740C399 740 386 752 386 769Z" glyph-name="Aringacute.ss02" horiz-adv-x="690" /><glyph d="M318 766C318 738 332 714 353 700H352L-21 0H65L175 206H480L533 0H612L438 698C472 714 497 748 497 786C497 833 464 864 419 864C369 864 318 823 318 766ZM383 602 463 279H213ZM454 996 368 893H442L556 996ZM374 771C374 793 392 809 413 809C430 809 442 797 442 780C442 758 425 742 404 742C387 742 374 754 374 771Z" glyph-name="Aringacute.ss03" horiz-adv-x="682" /><glyph d="M438 700H352L-21 0H64L149 161H491L532 0H612ZM382 602 473 234H189ZM503 872C500 855 489 840 468 840C453 840 447 844 433 850L404 863C395 867 381 872 363 872C318 872 283 834 274 769H331C335 787 345 801 365 801C378 801 388 797 402 791L430 779C439 775 453 769 471 769C515 769 551 807 560 872Z" glyph-name="Atilde" horiz-adv-x="682" unicode="&#195;" /><glyph d="M473 700H277L-10 0H74L141 161H465L486 0H564ZM328 630H410L457 234H169ZM484 872C481 855 470 840 449 840C434 840 428 844 414 850L385 863C376 867 362 872 344 872C299 872 264 834 255 769H312C316 787 326 801 346 801C359 801 369 797 383 791L411 779C420 775 434 769 452 769C496 769 532 807 541 872Z" glyph-name="Atilde.ss01" horiz-adv-x="644" /><glyph d="M415 718H406L-24 0H61L157 161H511L563 0H643ZM390 557 492 234H198ZM518 872C515 855 504 840 483 840C468 840 462 844 448 850L419 863C410 867 396 872 378 872C333 872 298 834 289 769H346C350 787 360 801 380 801C393 801 403 797 417 791L445 779C454 775 468 769 486 769C530 769 566 807 575 872Z" glyph-name="Atilde.ss02" horiz-adv-x="690" /><glyph d="M438 700H352L-21 0H65L175 206H480L533 0H612ZM383 602 463 279H213ZM506 872C503 855 492 840 471 840C456 840 450 844 436 850L407 863C398 867 384 872 366 872C321 872 286 834 277 769H334C338 787 348 801 368 801C381 801 391 797 405 791L433 779C442 775 456 769 474 769C518 769 554 807 563 872Z" glyph-name="Atilde.ss03" horiz-adv-x="682" /><glyph d="M31 0H311C470 0 577 75 577 217C577 273 546 330 490 357C559 389 605 455 605 529C605 639 518 700 387 700H130ZM117 72 152 321H364C440 321 500 288 500 217C500 119 423 72 325 72ZM390 628C467 628 526 600 526 529C526 435 449 393 358 393H162L195 628Z" glyph-name="B" horiz-adv-x="659" unicode="B" /><glyph d="M315 75C466 75 590 198 590 350C590 501 466 625 315 625C163 625 40 501 40 350C40 198 163 75 315 75Z" glyph-name="BlackCircle" horiz-adv-x="630" unicode="&#9679;" /><glyph d="M80 137H571V628H80Z" glyph-name="BlackSquare" horiz-adv-x="651" unicode="&#9632;" /><glyph d="M589 165C525 95 446 60 356 60C211 60 118 165 118 312C118 493 262 641 433 641C524 641 588 603 631 540L688 592C635 671 550 712 443 712C215 712 41 529 41 310C41 135 161 -11 346 -11C457 -11 554 26 635 104Z" glyph-name="C" horiz-adv-x="700" unicode="C" /><glyph d="M502 160C447 95 382 60 304 60C174 60 121 167 121 292C121 464 210 641 388 641C465 641 515 599 547 540L604 592C561 664 490 712 393 712C167 712 45 505 45 293C45 134 123 -11 300 -11C406 -11 480 36 544 104Z" glyph-name="C.ss03" horiz-adv-x="615" /><glyph glyph-name="CR" horiz-adv-x="308" unicode="" /><glyph d="M589 165C525 95 446 60 356 60C211 60 118 165 118 312C118 493 262 641 433 641C524 641 588 603 631 540L688 592C635 671 550 712 443 712C215 712 41 529 41 310C41 135 161 -11 346 -11C457 -11 554 26 635 104ZM486 861 400 758H474L588 861Z" glyph-name="Cacute" horiz-adv-x="700" unicode="&#262;" /><glyph d="M502 160C447 95 382 60 304 60C174 60 121 167 121 292C121 464 210 641 388 641C465 641 515 599 547 540L604 592C561 664 490 712 393 712C167 712 45 505 45 293C45 134 123 -11 300 -11C406 -11 480 36 544 104ZM439 872 353 769H427L541 872Z" glyph-name="Cacute.ss03" horiz-adv-x="615" /><glyph d="M589 165C525 95 446 60 356 60C211 60 118 165 118 312C118 493 262 641 433 641C524 641 588 603 631 540L688 592C635 671 550 712 443 712C215 712 41 529 41 310C41 135 161 -11 346 -11C457 -11 554 26 635 104ZM620 861H540L466 799L409 861H330L412 758H509Z" glyph-name="Ccaron" horiz-adv-x="700" unicode="&#268;" /><glyph d="M502 160C447 95 382 60 304 60C174 60 121 167 121 292C121 464 210 641 388 641C465 641 515 599 547 540L604 592C561 664 490 712 393 712C167 712 45 505 45 293C45 134 123 -11 300 -11C406 -11 480 36 544 104ZM573 872H493L419 810L362 872H283L365 769H462Z" glyph-name="Ccaron.ss03" horiz-adv-x="615" /><glyph d="M589 165C525 95 446 60 356 60C211 60 118 165 118 312C118 493 262 641 433 641C524 641 588 603 631 540L688 592C635 671 550 712 443 712C215 712 41 529 41 310C41 149 142 13 301 -8L221 -137H301L373 -10C473 -5 561 32 635 104Z" glyph-name="Ccedilla" horiz-adv-x="700" unicode="&#199;" /><glyph d="M589 165C525 95 446 60 356 60C211 60 118 165 118 312C118 493 262 641 433 641C524 641 588 603 631 540L688 592C635 671 550 712 443 712C215 712 41 529 41 310C41 145 147 6 315 -9L297 -137H371L389 -9C482 0 564 36 635 104Z" glyph-name="Ccedilla.ss01" horiz-adv-x="700" /><glyph d="M502 160C447 95 382 60 304 60C174 60 121 167 121 292C121 464 210 641 388 641C465 641 515 599 547 540L604 592C561 664 490 712 393 712C167 712 45 505 45 293C45 140 117 0 281 -10L202 -137H282L357 -6C433 7 492 49 544 104Z" glyph-name="Ccedilla.ss03" horiz-adv-x="615" /><glyph d="M589 165C525 95 446 60 356 60C211 60 118 165 118 312C118 493 262 641 433 641C524 641 588 603 631 540L688 592C635 671 550 712 443 712C215 712 41 529 41 310C41 135 161 -11 346 -11C457 -11 554 26 635 104ZM317 758H396L471 820L527 758H607L524 861H427Z" glyph-name="Ccircumflex" horiz-adv-x="700" unicode="&#264;" /><glyph d="M502 160C447 95 382 60 304 60C174 60 121 167 121 292C121 464 210 641 388 641C465 641 515 599 547 540L604 592C561 664 490 712 393 712C167 712 45 505 45 293C45 134 123 -11 300 -11C406 -11 480 36 544 104ZM270 769H349L424 831L480 769H560L477 872H380Z" glyph-name="Ccircumflex.ss03" horiz-adv-x="615" /><glyph d="M589 165C525 95 446 60 356 60C211 60 118 165 118 312C118 493 262 641 433 641C524 641 588 603 631 540L688 592C635 671 550 712 443 712C215 712 41 529 41 310C41 135 161 -11 346 -11C457 -11 554 26 635 104ZM414 807C414 777 438 753 468 753C498 753 523 777 523 807C523 837 498 862 468 862C438 862 414 837 414 807Z" glyph-name="Cdotaccent" horiz-adv-x="700" unicode="&#266;" /><glyph d="M502 160C447 95 382 60 304 60C174 60 121 167 121 292C121 464 210 641 388 641C465 641 515 599 547 540L604 592C561 664 490 712 393 712C167 712 45 505 45 293C45 134 123 -11 300 -11C406 -11 480 36 544 104ZM441 772 454 869H365L352 772Z" glyph-name="Cdotaccent.ss03" horiz-adv-x="615" /><glyph d="M31 0H221C430 0 656 96 656 395C656 616 492 700 320 700H130ZM318 628C455 628 576 567 576 398C576 160 408 72 241 72H117L195 628Z" glyph-name="D" horiz-adv-x="698" unicode="D" /><glyph d="M31 0H221C437 0 607 137 607 406C607 610 487 700 319 700H129ZM318 628C450 628 527 562 527 402C527 190 408 72 231 72H117L195 628Z" glyph-name="D.ss03" horiz-adv-x="655" /><glyph d="M31 0H221C430 0 656 96 656 395C656 616 492 700 320 700H130ZM318 628C455 628 576 567 576 398C576 160 408 72 241 72H117L195 628ZM578 872H498L424 810L367 872H288L370 769H467Z" glyph-name="Dcaron" horiz-adv-x="698" unicode="&#270;" /><glyph d="M31 0H221C437 0 607 137 607 406C607 610 487 700 319 700H129ZM318 628C450 628 527 562 527 402C527 190 408 72 231 72H117L195 628ZM543 872H463L389 810L332 872H253L335 769H432Z" glyph-name="Dcaron.ss03" horiz-adv-x="655" /><glyph d="M31 0H221C430 0 656 96 656 395C656 616 492 700 320 700H130L86 393H6L-4 321H76ZM281 321 291 393H162L195 628H318C455 628 576 567 576 398C576 160 408 72 241 72H117L152 321Z" glyph-name="Dcroat" horiz-adv-x="698" unicode="&#272;" /><glyph d="M31 0H221C437 0 607 137 607 406C607 610 487 700 319 700H129L86 393H6L-4 321H76ZM318 628C450 628 527 562 527 402C527 190 408 72 231 72H117L152 321H281L291 393H162L195 628Z" glyph-name="Dcroat.ss03" horiz-adv-x="655" /><glyph d="M377 700 49 65 40 0H580L589 65L441 700ZM394 600 516 71H124Z" glyph-name="Delta" horiz-adv-x="639" unicode="&#8710;" /><glyph d="M377 700 49 65 40 0H580L589 65L441 700ZM394 600 516 71H124Z" glyph-name="Deltagreek" horiz-adv-x="639" unicode="&#916;" /><glyph d="M40 385 359 66 678 385 359 704Z" glyph-name="Diamond" horiz-adv-x="718" unicode="&#9670;" /><glyph d="M380 80 720 620H40Z" glyph-name="DownTriangle" horiz-adv-x="760" unicode="&#9660;" /><glyph d="M107 351 50 301 318 -11 674 301 626 356 371 127 451 701H380L300 127Z" glyph-name="DownwArrow" horiz-adv-x="716" unicode="&#8595;" /><glyph d="M31 0H490L500 72H117L152 321H524L534 393H162L195 628H578L589 700H130Z" glyph-name="E" horiz-adv-x="614" unicode="E" /><glyph d="M31 0H490L500 72H117L152 321H524L534 393H162L195 628H578L589 700H130ZM396 872 310 769H384L498 872Z" glyph-name="Eacute" horiz-adv-x="614" unicode="&#201;" /><glyph d="M31 0H490L500 72H117L152 321H524L534 393H162L195 628H578L589 700H130ZM370 759C445 759 496 807 511 872H444C436 841 413 822 379 822C346 822 328 841 328 872H262C259 807 296 759 370 759Z" glyph-name="Ebreve" horiz-adv-x="614" unicode="&#276;" /><glyph d="M31 0H490L500 72H117L152 321H524L534 393H162L195 628H578L589 700H130ZM530 872H450L376 810L319 872H240L322 769H419Z" glyph-name="Ecaron" horiz-adv-x="614" unicode="&#282;" /><glyph d="M31 0H490L500 72H117L152 321H524L534 393H162L195 628H578L589 700H130ZM227 769H306L381 831L437 769H517L434 872H337Z" glyph-name="Ecircumflex" horiz-adv-x="614" unicode="&#202;" /><glyph d="M31 0H490L500 72H117L152 321H524L534 393H162L195 628H578L589 700H130ZM236 820C236 791 258 769 287 769C316 769 339 791 339 820C339 849 316 872 287 872C258 872 236 849 236 820ZM417 820C417 791 439 769 468 769C497 769 520 791 520 820C520 849 497 872 468 872C439 872 417 849 417 820Z" glyph-name="Edieresis" horiz-adv-x="614" unicode="&#203;" /><glyph d="M31 0H490L500 72H117L152 321H524L534 393H162L195 628H578L589 700H130ZM328 772 342 869H257L243 772ZM501 772 515 869H430L416 772Z" glyph-name="Edieresis.ss03" horiz-adv-x="614" /><glyph d="M31 0H490L500 72H117L152 321H524L534 393H162L195 628H578L589 700H130ZM324 818C324 788 348 764 378 764C408 764 433 788 433 818C433 848 408 873 378 873C348 873 324 848 324 818Z" glyph-name="Edotaccent" horiz-adv-x="614" unicode="&#278;" /><glyph d="M31 0H490L500 72H117L152 321H524L534 393H162L195 628H578L589 700H130ZM417 772 430 869H341L328 772Z" glyph-name="Edotaccent.ss03" horiz-adv-x="614" /><glyph d="M31 0H490L500 72H117L152 321H524L534 393H162L195 628H578L589 700H130ZM264 872 349 769H423L366 872Z" glyph-name="Egrave" horiz-adv-x="614" unicode="&#200;" /><glyph d="M31 0H490L500 72H117L152 321H524L534 393H162L195 628H578L589 700H130ZM259 787H487L497 855H269Z" glyph-name="Emacron" horiz-adv-x="614" unicode="&#274;" /><glyph d="M507 0 501 -40C491 -104 473 -133 407 -133C396 -133 360 -132 360 -132L351 -203C351 -203 377 -205 405 -205C504 -205 561 -164 577 -52L683 700H606L524 123L206 700H130L31 0H107L189 576Z" glyph-name="Eng" horiz-adv-x="713" unicode="&#330;" /><glyph d="M407 -133C396 -133 360 -132 360 -132L351 -203C351 -203 377 -205 405 -205C504 -205 561 -164 577 -52L683 700H606L530 172L141 718H132L31 0H107L181 528L516 62L501 -40C492 -104 473 -133 407 -133Z" glyph-name="Eng.ss02" horiz-adv-x="713" /><glyph d="M31 0H416C374 -26 340 -68 340 -114C340 -158 371 -184 429 -184C444 -184 457 -182 465 -180L473 -125H468C427 -125 413 -110 413 -90C413 -66 424 -46 490 0L500 72H117L152 321H524L534 393H162L195 628H578L589 700H130Z" glyph-name="Eogonek" horiz-adv-x="614" unicode="&#280;" /><glyph d="M31 0H221C430 0 656 96 656 395C656 616 492 700 320 700H130L86 393H6L-4 321H76ZM281 321 291 393H162L195 628H318C455 628 576 567 576 398C576 160 408 72 241 72H117L152 321Z" glyph-name="Eth" horiz-adv-x="698" unicode="&#208;" /><glyph d="M31 0H221C437 0 607 137 607 406C607 610 487 700 319 700H129L86 393H6L-4 321H76ZM318 628C450 628 527 562 527 402C527 190 408 72 231 72H117L152 321H281L291 393H162L195 628Z" glyph-name="Eth.ss03" horiz-adv-x="655" /><glyph d="M66 456 56 387H134C132 374 129 362 128 350C126 335 125 321 124 307H46L36 238H124C136 101 209 -11 368 -11C457 -11 531 23 604 90L563 146C507 87 445 60 378 60C262 60 213 141 202 238H445L455 307H201C202 321 203 336 205 350C206 362 209 375 211 387H465L475 456H232C274 563 354 641 460 641C527 641 577 612 609 551L666 603C632 660 577 712 470 712C305 712 201 595 153 456Z" glyph-name="Euro" horiz-adv-x="678" unicode="&#8364;" /><glyph d="M66 456 56 387H134C132 374 129 362 128 350C126 335 125 321 124 307H46L36 238H124C136 101 209 -11 368 -11C457 -11 531 23 604 90L563 146C507 87 445 60 378 60C262 60 213 141 202 238H445L455 307H201C202 321 203 336 205 350C206 362 209 375 211 387H465L475 456H232C274 563 354 641 460 641C527 641 577 612 609 551L666 603C632 660 577 712 470 712C305 712 201 595 153 456Z" glyph-name="Euro.osf" horiz-adv-x="678" /><glyph d="M166 307C167 322 169 336 171 350C173 362 175 375 178 388H400L409 456H198C232 550 298 641 406 641C469 641 511 612 543 551L600 603C566 660 510 712 412 712C253 712 159 594 115 456H49L40 388H97L91 350C89 336 87 321 86 307H29L20 239H87C97 114 155 -11 301 -11C431 -11 487 49 529 98L486 150C438 89 386 60 313 60C214 60 175 147 167 239H380L389 307Z" glyph-name="Euro.tf" horiz-adv-x="600" /><glyph d="M156 307C157 322 159 336 161 350C163 362 165 375 168 388H390L399 456H188C222 550 288 641 396 641C459 641 501 612 533 551L590 603C556 660 500 712 402 712C243 712 149 594 105 456H39L30 388H87L81 350C79 336 77 321 76 307H19L10 239H77C87 114 145 -11 291 -11C421 -11 477 49 519 98L476 150C428 89 376 60 303 60C204 60 165 147 157 239H370L379 307Z" glyph-name="Euro.to" horiz-adv-x="600" /><glyph d="M107 0 152 321H490L500 393H162L195 628H555L566 700H130L31 0Z" glyph-name="F" horiz-adv-x="556" unicode="F" /><glyph d="M433 641C524 641 588 603 631 540L688 592C635 671 550 712 443 712C225 712 41 535 41 311C41 136 166 -11 346 -11C452 -11 556 28 630 102L665 349H397L387 277H581L561 136C503 85 432 60 356 60C211 60 118 170 118 312C118 493 262 641 433 641Z" glyph-name="G" horiz-adv-x="728" unicode="G" /><glyph d="M388 277H582L562 134C506 85 432 60 357 60C202 60 119 170 119 312C119 493 263 641 434 641C525 641 589 602 630 538L689 592C636 671 549 712 442 712C224 712 42 533 42 314C42 139 153 -11 347 -11C416 -11 488 8 549 45L543 0H617L666 349H398Z" glyph-name="G.ss01" horiz-adv-x="729" /><glyph d="M363 277H536C514 163 432 60 310 60C186 60 122 155 122 293C122 488 249 641 405 641C497 641 551 593 583 529L640 581C595 656 528 712 410 712C213 712 45 527 45 293C45 120 132 -11 303 -11C392 -11 468 31 517 96L503 0H571L620 349H373Z" glyph-name="G.ss03" horiz-adv-x="690" /><glyph d="M433 641C524 641 588 603 631 540L688 592C635 671 550 712 443 712C225 712 41 535 41 311C41 136 166 -11 346 -11C452 -11 556 28 630 102L665 349H397L387 277H581L561 136C503 85 432 60 356 60C211 60 118 170 118 312C118 493 262 641 433 641ZM453 759C528 759 579 807 594 872H527C519 841 496 822 462 822C429 822 411 841 411 872H345C342 807 379 759 453 759Z" glyph-name="Gbreve" horiz-adv-x="728" unicode="&#286;" /><glyph d="M387 277H581L561 134C505 85 431 60 356 60C201 60 118 170 118 312C118 493 262 641 433 641C524 641 588 602 629 538L688 592C635 671 548 712 441 712C223 712 41 533 41 314C41 139 152 -11 346 -11C415 -11 487 8 548 45L542 0H616L665 349H397ZM451 759C526 759 577 807 592 872H525C517 841 494 822 460 822C427 822 409 841 409 872H343C340 807 377 759 451 759Z" glyph-name="Gbreve.ss01" horiz-adv-x="728" /><glyph d="M363 277H536C514 163 432 60 310 60C186 60 122 155 122 293C122 488 249 641 405 641C497 641 551 593 583 529L640 581C595 656 528 712 410 712C213 712 45 527 45 293C45 120 132 -11 303 -11C392 -11 468 31 517 96L503 0H571L620 349H373ZM423 759C498 759 549 807 564 872H497C489 841 466 822 432 822C399 822 381 841 381 872H315C312 807 349 759 423 759Z" glyph-name="Gbreve.ss03" horiz-adv-x="690" /><glyph d="M433 641C524 641 588 603 631 540L688 592C635 671 550 712 443 712C225 712 41 535 41 311C41 136 166 -11 346 -11C452 -11 556 28 630 102L665 349H397L387 277H581L561 136C503 85 432 60 356 60C211 60 118 170 118 312C118 493 262 641 433 641ZM310 769H389L464 831L520 769H600L517 872H420Z" glyph-name="Gcircumflex" horiz-adv-x="728" unicode="&#284;" /><glyph d="M387 277H581L561 134C505 85 431 60 356 60C201 60 118 170 118 312C118 493 262 641 433 641C524 641 588 602 629 538L688 592C635 671 548 712 441 712C223 712 41 533 41 314C41 139 152 -11 346 -11C415 -11 487 8 548 45L542 0H616L665 349H397ZM308 769H387L462 831L518 769H598L515 872H418Z" glyph-name="Gcircumflex.ss01" horiz-adv-x="728" /><glyph d="M363 277H536C514 163 432 60 310 60C186 60 122 155 122 293C122 488 249 641 405 641C497 641 551 593 583 529L640 581C595 656 528 712 410 712C213 712 45 527 45 293C45 120 132 -11 303 -11C392 -11 468 31 517 96L503 0H571L620 349H373ZM280 769H359L434 831L490 769H570L487 872H390Z" glyph-name="Gcircumflex.ss03" horiz-adv-x="690" /><glyph d="M433 641C524 641 588 603 631 540L688 592C635 671 550 712 443 712C225 712 41 535 41 311C41 136 166 -11 346 -11C452 -11 556 28 630 102L665 349H397L387 277H581L561 136C503 85 432 60 356 60C211 60 118 170 118 312C118 493 262 641 433 641ZM277 -194 343 -57H426L336 -194Z" glyph-name="Gcommaaccent" horiz-adv-x="728" unicode="&#290;" /><glyph d="M387 277H581L561 134C505 85 431 60 356 60C201 60 118 170 118 312C118 493 262 641 433 641C524 641 588 602 629 538L688 592C635 671 548 712 441 712C223 712 41 533 41 314C41 139 152 -11 346 -11C415 -11 487 8 548 45L542 0H616L665 349H397ZM237 -194 303 -57H386L296 -194Z" glyph-name="Gcommaaccent.ss01" horiz-adv-x="728" /><glyph d="M363 277H536C514 163 432 60 310 60C186 60 122 155 122 293C122 488 249 641 405 641C497 641 551 593 583 529L640 581C595 656 528 712 410 712C213 712 45 527 45 293C45 120 132 -11 303 -11C392 -11 468 31 517 96L503 0H571L620 349H373ZM215 -194 281 -57H364L274 -194Z" glyph-name="Gcommaaccent.ss03" horiz-adv-x="690" /><glyph d="M433 641C524 641 588 603 631 540L688 592C635 671 550 712 443 712C225 712 41 535 41 311C41 136 166 -11 346 -11C452 -11 556 28 630 102L665 349H397L387 277H581L561 136C503 85 432 60 356 60C211 60 118 170 118 312C118 493 262 641 433 641ZM407 818C407 788 431 764 461 764C491 764 516 788 516 818C516 848 491 873 461 873C431 873 407 848 407 818Z" glyph-name="Gdotaccent" horiz-adv-x="728" unicode="&#288;" /><glyph d="M387 277H581L561 134C505 85 431 60 356 60C201 60 118 170 118 312C118 493 262 641 433 641C524 641 588 602 629 538L688 592C635 671 548 712 441 712C223 712 41 533 41 314C41 139 152 -11 346 -11C415 -11 487 8 548 45L542 0H616L665 349H397ZM405 818C405 788 429 764 459 764C489 764 514 788 514 818C514 848 489 873 459 873C429 873 405 848 405 818Z" glyph-name="Gdotaccent.ss01" horiz-adv-x="728" /><glyph d="M363 277H536C514 163 432 60 310 60C186 60 122 155 122 293C122 488 249 641 405 641C497 641 551 593 583 529L640 581C595 656 528 712 410 712C213 712 45 527 45 293C45 120 132 -11 303 -11C392 -11 468 31 517 96L503 0H571L620 349H373ZM475 772 488 869H399L386 772Z" glyph-name="Gdotaccent.ss03" horiz-adv-x="690" /><glyph d="M488 0H564L663 700H587L543 393H162L206 700H130L31 0H107L152 321H533Z" glyph-name="H" horiz-adv-x="693" unicode="H" /><glyph d="M564 0 636 509H716L726 581H646L663 700H587L570 581H189L206 700H130L113 581H33L23 509H103L31 0H107L152 321H533L488 0ZM162 393 178 509H559L543 393Z" glyph-name="Hbar" horiz-adv-x="693" unicode="&#294;" /><glyph d="M488 0H564L663 700H587L543 393H162L206 700H130L31 0H107L152 321H533ZM259 769H338L413 831L469 769H549L466 872H369Z" glyph-name="Hcircumflex" horiz-adv-x="693" unicode="&#292;" /><glyph d="M461 626C374 626 342 568 330 522H315C303 568 271 626 185 626C116 626 30 591 30 470C30 315 254 281 322 74H323C392 281 616 315 616 470C616 591 529 626 461 626Z" glyph-name="HeavyBlackHeart" horiz-adv-x="646" unicode="&#10084;" /><glyph d="M31 0H107L206 700H130Z" glyph-name="I" horiz-adv-x="236" unicode="I" /><glyph d="M102 632H237L158 68H23L13 0H360L370 68H235L314 632H449L459 700H112Z" glyph-name="I.ss01" horiz-adv-x="473" /><glyph d="M31 0H107L206 700H130ZM222 98C252 38 326 -11 408 -11C549 -11 618 83 635 203L705 700H629L561 218C547 121 505 60 414 60C351 60 302 98 279 147Z" glyph-name="IJ" horiz-adv-x="725" unicode="&#306;" /><glyph d="M102 632H237L158 68H23L13 0H360L370 68H235L314 632H449L459 700H112ZM683 628H911L853 218C839 121 788 60 695 60C621 60 569 109 581 206L585 238H508L504 206C489 88 555 -11 690 -11C832 -11 909 78 928 214L997 700H693Z" glyph-name="IJ.ss01" horiz-adv-x="1017" /><glyph d="M31 0H107L206 700H130ZM601 218C587 121 541 60 444 60C356 60 319 125 329 206L333 238H257L253 206C238 83 306 -11 438 -11C579 -11 659 82 678 218L746 700H669Z" glyph-name="IJ.ss03" horiz-adv-x="766" /><glyph d="M31 0H107L206 700H130ZM202 872 116 769H190L304 872Z" glyph-name="Iacute" horiz-adv-x="236" unicode="&#205;" /><glyph d="M102 632H237L158 68H23L13 0H360L370 68H235L314 632H449L459 700H112ZM318 872 232 769H306L420 872Z" glyph-name="Iacute.ss01" horiz-adv-x="473" /><glyph d="M31 0H107L206 700H130ZM176 759C251 759 302 807 317 872H250C242 841 219 822 185 822C152 822 134 841 134 872H68C65 807 102 759 176 759Z" glyph-name="Ibreve" horiz-adv-x="236" unicode="&#300;" /><glyph d="M102 632H237L158 68H23L13 0H360L370 68H235L314 632H449L459 700H112ZM292 759C367 759 418 807 433 872H366C358 841 335 822 301 822C268 822 250 841 250 872H184C181 807 218 759 292 759Z" glyph-name="Ibreve.ss01" horiz-adv-x="473" /><glyph d="M31 0H107L206 700H130ZM33 769H112L187 831L243 769H323L240 872H143Z" glyph-name="Icircumflex" horiz-adv-x="236" unicode="&#206;" /><glyph d="M102 632H237L158 68H23L13 0H360L370 68H235L314 632H449L459 700H112ZM149 769H228L303 831L359 769H439L356 872H259Z" glyph-name="Icircumflex.ss01" horiz-adv-x="473" /><glyph d="M31 0H107L206 700H130ZM42 820C42 791 64 769 93 769C122 769 145 791 145 820C145 849 122 872 93 872C64 872 42 849 42 820ZM223 820C223 791 245 769 274 769C303 769 326 791 326 820C326 849 303 872 274 872C245 872 223 849 223 820Z" glyph-name="Idieresis" horiz-adv-x="236" unicode="&#207;" /><glyph d="M102 632H237L158 68H23L13 0H360L370 68H235L314 632H449L459 700H112ZM158 820C158 791 180 769 209 769C238 769 261 791 261 820C261 849 238 872 209 872C180 872 158 849 158 820ZM339 820C339 791 361 769 390 769C419 769 442 791 442 820C442 849 419 872 390 872C361 872 339 849 339 820Z" glyph-name="Idieresis.ss01" horiz-adv-x="473" /><glyph d="M31 0H107L206 700H130ZM136 772 150 869H65L51 772ZM309 772 323 869H238L224 772Z" glyph-name="Idieresis.ss03" horiz-adv-x="236" /><glyph d="M31 0H107L206 700H130ZM130 818C130 788 154 764 184 764C214 764 239 788 239 818C239 848 214 873 184 873C154 873 130 848 130 818Z" glyph-name="Idotaccent" horiz-adv-x="236" unicode="&#304;" /><glyph d="M102 632H237L158 68H23L13 0H360L370 68H235L314 632H449L459 700H112ZM246 818C246 788 270 764 300 764C330 764 355 788 355 818C355 848 330 873 300 873C270 873 246 848 246 818Z" glyph-name="Idotaccent.ss01" horiz-adv-x="473" /><glyph d="M31 0H107L206 700H130ZM222 772 235 869H146L133 772Z" glyph-name="Idotaccent.ss03" horiz-adv-x="236" /><glyph d="M31 0H107L206 700H130ZM50 872 135 769H209L152 872Z" glyph-name="Igrave" horiz-adv-x="236" unicode="&#204;" /><glyph d="M102 632H237L158 68H23L13 0H360L370 68H235L314 632H449L459 700H112ZM166 872 251 769H325L268 872Z" glyph-name="Igrave.ss01" horiz-adv-x="473" /><glyph d="M31 0H107L206 700H130ZM65 787H293L303 855H75Z" glyph-name="Imacron" horiz-adv-x="236" unicode="&#298;" /><glyph d="M102 632H237L158 68H23L13 0H360L370 68H235L314 632H449L459 700H112ZM181 787H409L419 855H191Z" glyph-name="Imacron.ss01" horiz-adv-x="473" /><glyph d="M31 0H33C-8 -26 -43 -68 -43 -114C-43 -158 -12 -184 46 -184C61 -184 74 -182 82 -180L90 -125H85C44 -125 30 -110 30 -90C30 -66 41 -46 107 0L206 700H130Z" glyph-name="Iogonek" horiz-adv-x="236" unicode="&#302;" /><glyph d="M219 -125H214C173 -125 159 -110 159 -90C159 -66 170 -46 236 0H360L370 68H235L314 632H449L459 700H112L102 632H237L158 68H23L13 0H162C120 -26 86 -68 86 -114C86 -158 117 -184 175 -184C190 -184 203 -182 211 -180Z" glyph-name="Iogonek.ss01" horiz-adv-x="473" /><glyph d="M31 0H107L206 700H130ZM277 872C274 855 263 840 242 840C227 840 221 844 207 850L178 863C169 867 155 872 137 872C92 872 57 834 48 769H105C109 787 119 801 139 801C152 801 162 797 176 791L204 779C213 775 227 769 245 769C289 769 325 807 334 872Z" glyph-name="Itilde" horiz-adv-x="236" unicode="&#296;" /><glyph d="M102 632H237L158 68H23L13 0H360L370 68H235L314 632H449L459 700H112ZM393 872C390 855 379 840 358 840C343 840 337 844 323 850L294 863C285 867 271 872 253 872C208 872 173 834 164 769H221C225 787 235 801 255 801C268 801 278 797 292 791L320 779C329 775 343 769 361 769C405 769 441 807 450 872Z" glyph-name="Itilde.ss01" horiz-adv-x="473" /><glyph d="M20 98C50 38 124 -11 206 -11C347 -11 416 83 433 203L503 700H427L359 218C345 121 303 60 212 60C149 60 100 98 77 147Z" glyph-name="J" horiz-adv-x="523" unicode="J" /><glyph d="M222 628H450L392 218C378 121 327 60 234 60C160 60 108 109 120 206L124 238H47L43 206C28 88 94 -11 229 -11C371 -11 448 78 467 214L536 700H232Z" glyph-name="J.ss01" horiz-adv-x="556" /><glyph d="M390 218C376 121 330 60 233 60C145 60 108 125 118 206L122 238H46L42 206C27 83 95 -11 227 -11C368 -11 448 82 467 218L535 700H458Z" glyph-name="J.ss03" horiz-adv-x="555" /><glyph d="M20 98C50 38 124 -11 206 -11C347 -11 416 83 433 203L503 700H427L359 218C345 121 303 60 212 60C149 60 100 98 77 147ZM329 769H408L483 831L539 769H619L536 872H439Z" glyph-name="Jcircumflex" horiz-adv-x="523" unicode="&#308;" /><glyph d="M222 628H450L392 218C378 121 327 60 234 60C160 60 108 109 120 206L124 238H47L43 206C28 88 94 -11 229 -11C371 -11 448 78 467 214L536 700H232ZM252 769H331L406 831L462 769H542L459 872H362Z" glyph-name="Jcircumflex.ss01" horiz-adv-x="556" /><glyph d="M390 218C376 121 330 60 233 60C145 60 108 125 118 206L122 238H46L42 206C27 83 95 -11 227 -11C368 -11 448 82 467 218L535 700H458ZM361 769H440L515 831L571 769H651L568 872H471Z" glyph-name="Jcircumflex.ss03" horiz-adv-x="555" /><glyph d="M31 0H108L134 185L279 339L453 0H535L335 395L623 700H527L151 303L207 700H130Z" glyph-name="K" horiz-adv-x="615" unicode="K" /><glyph d="M31 0H108L154 328H282L443 0H528L347 369L621 700H529L279 400H164L207 700H130Z" glyph-name="K.ss01" horiz-adv-x="601" /><glyph d="M155 338 413 0H505L230 363L588 700H484L163 394L207 700H130L31 0H108Z" glyph-name="K.ss02" horiz-adv-x="573" /><glyph d="M31 0H108L134 185L279 339L453 0H535L335 395L623 700H527L151 303L207 700H130ZM165 -194 231 -57H314L224 -194Z" glyph-name="Kcommaaccent" horiz-adv-x="615" unicode="&#310;" /><glyph d="M31 0H108L154 328H282L443 0H528L347 369L621 700H529L279 400H164L207 700H130ZM157 -194 223 -57H306L216 -194Z" glyph-name="Kcommaaccent.ss01" horiz-adv-x="601" /><glyph d="M155 338 413 0H505L230 363L588 700H484L163 394L207 700H130L31 0H108ZM161 -194 227 -57H310L220 -194Z" glyph-name="Kcommaaccent.ss02" horiz-adv-x="573" /><glyph d="M31 0H448L458 72H117L206 700H130Z" glyph-name="L" horiz-adv-x="538" unicode="L" /><glyph d="M31 0H448L458 72H117L206 700H130ZM209 872 123 769H197L311 872Z" glyph-name="Lacute" horiz-adv-x="538" unicode="&#313;" /><glyph d="M31 0H448L458 72H117L206 700H130ZM342 511H287L341 700H428Z" glyph-name="Lcaron" horiz-adv-x="538" unicode="&#317;" /><glyph d="M31 0H448L458 72H117L206 700H130ZM147 -194 213 -57H296L206 -194Z" glyph-name="Lcommaaccent" horiz-adv-x="538" unicode="&#315;" /><glyph d="M31 0H448L458 72H117L206 700H130ZM327 346C327 316 351 292 381 292C411 292 436 316 436 346C436 376 411 401 381 401C351 401 327 376 327 346Z" glyph-name="Ldot" horiz-adv-x="538" unicode="&#319;" /><glyph d="M31 0H448L458 72H117L206 700H130ZM329 298 343 395H432L418 298Z" glyph-name="Ldot.ss03" horiz-adv-x="538" /><glyph d="M453 549 408 602 52 290 320 -23 373 29 174 254H759L769 325H194Z" glyph-name="LeftArrow" horiz-adv-x="804" unicode="&#8592;" /><glyph d="M580 10V690L40 350Z" glyph-name="LeftTriangle" horiz-adv-x="660" unicode="&#9664;" /><glyph d="M448 0 458 72H117L151 310L342 389L353 466L162 387L206 700H130L81 354L-6 318L-17 241L70 277L31 0Z" glyph-name="Lslash" horiz-adv-x="538" unicode="&#321;" /><glyph d="M334 155H410L670 541L593 0H669L768 700H691L381 242L201 700H130L31 0H107L183 541Z" glyph-name="M" horiz-adv-x="798" unicode="M" /><glyph d="M372 90 330 700H130L31 0H107L196 631H257L304 0H414L642 631H705L616 0H692L791 700H589Z" glyph-name="M.ss01" horiz-adv-x="821" /><glyph d="M361 98H370L658 471L593 0H669L770 718H761L377 230L141 718H132L31 0H107L174 478Z" glyph-name="M.ss02" horiz-adv-x="800" /><glyph d="M318 0H405L693 548L616 0H692L790 700H688L370 91L225 700H129L31 0H107L184 547Z" glyph-name="M.ss03" horiz-adv-x="821" /><glyph d="M505 0H584L683 700H606L524 121L208 700H130L31 0H107L189 577Z" glyph-name="N" horiz-adv-x="713" unicode="N" /><glyph d="M573 -17H582L683 700H606L530 172L141 718H132L31 0H107L181 528Z" glyph-name="N.ss02" horiz-adv-x="713" /><glyph glyph-name="NULL" horiz-adv-x="0" /><glyph d="M505 0H584L683 700H606L524 121L208 700H130L31 0H107L189 577ZM442 872 356 769H430L544 872Z" glyph-name="Nacute" horiz-adv-x="713" unicode="&#323;" /><glyph d="M573 -17H582L683 700H606L530 172L141 718H132L31 0H107L181 528ZM430 872 344 769H418L532 872Z" glyph-name="Nacute.ss02" horiz-adv-x="713" /><glyph d="M505 0H584L683 700H606L524 121L208 700H130L31 0H107L189 577ZM576 872H496L422 810L365 872H286L368 769H465Z" glyph-name="Ncaron" horiz-adv-x="713" unicode="&#327;" /><glyph d="M573 -17H582L683 700H606L530 172L141 718H132L31 0H107L181 528ZM564 872H484L410 810L353 872H274L356 769H453Z" glyph-name="Ncaron.ss02" horiz-adv-x="713" /><glyph d="M505 0H584L683 700H606L524 121L208 700H130L31 0H107L189 577ZM215 -194 281 -57H364L274 -194Z" glyph-name="Ncommaaccent" horiz-adv-x="713" unicode="&#325;" /><glyph d="M573 -17H582L683 700H606L530 172L141 718H132L31 0H107L181 528ZM240 -194 306 -57H389L299 -194Z" glyph-name="Ncommaaccent.ss02" horiz-adv-x="713" /><glyph d="M497 449 57 48 104 -7 542 396 496 80H568L626 521H191L181 449Z" glyph-name="NorthEastArrow" horiz-adv-x="669" unicode="&#8599;" /><glyph d="M549 449 559 521H118L56 80H128L172 401L523 -7L578 42L228 449Z" glyph-name="NorthWestArrow" horiz-adv-x="669" unicode="&#8598;" /><glyph d="M505 0H584L683 700H606L524 121L208 700H130L31 0H107L189 577ZM517 872C514 855 503 840 482 840C467 840 461 844 447 850L418 863C409 867 395 872 377 872C332 872 297 834 288 769H345C349 787 359 801 379 801C392 801 402 797 416 791L444 779C453 775 467 769 485 769C529 769 565 807 574 872Z" glyph-name="Ntilde" horiz-adv-x="713" unicode="&#209;" /><glyph d="M573 -17H582L683 700H606L530 172L141 718H132L31 0H107L181 528ZM505 872C502 855 491 840 470 840C455 840 449 844 435 850L406 863C397 867 383 872 365 872C320 872 285 834 276 769H333C337 787 347 801 367 801C380 801 390 797 404 791L432 779C441 775 455 769 473 769C517 769 553 807 562 872Z" glyph-name="Ntilde.ss02" horiz-adv-x="713" /><glyph d="M41 305C41 133 166 -11 347 -11C577 -11 749 174 749 395C749 571 627 712 444 712C225 712 41 535 41 305ZM118 312C118 492 257 641 438 641C584 641 674 532 674 390C674 208 535 60 356 60C209 60 118 169 118 312Z" glyph-name="O" horiz-adv-x="791" unicode="O" /><glyph d="M45 291C45 126 131 -11 297 -11C513 -11 655 179 655 408C655 572 567 712 399 712C184 712 45 519 45 291ZM121 294C121 477 223 641 393 641C523 641 580 539 580 408C580 224 480 60 311 60C180 60 121 161 121 294Z" glyph-name="O.ss03" horiz-adv-x="700" /><glyph d="M41 305C41 121 173 0 366 0H791L801 72H475L510 321H824L834 393H520L553 628H879L890 700H465C232 700 41 540 41 305ZM119 310C119 507 273 628 454 628H476L398 72H376C218 72 119 161 119 310Z" glyph-name="OE" horiz-adv-x="915" unicode="&#338;" /><glyph d="M46 305C46 121 178 0 371 0H796L806 72H480L515 321H829L839 393H525L558 628H884L895 700H470C237 700 46 540 46 305ZM124 310C124 507 278 628 459 628H481L403 72H381C223 72 124 161 124 310Z" glyph-name="OE.ss03" horiz-adv-x="920" /><glyph d="M41 305C41 133 166 -11 347 -11C577 -11 749 174 749 395C749 571 627 712 444 712C225 712 41 535 41 305ZM118 312C118 492 257 641 438 641C584 641 674 532 674 390C674 208 535 60 356 60C209 60 118 169 118 312ZM480 872 394 769H468L582 872Z" glyph-name="Oacute" horiz-adv-x="791" unicode="&#211;" /><glyph d="M45 291C45 126 131 -11 297 -11C513 -11 655 179 655 408C655 572 567 712 399 712C184 712 45 519 45 291ZM121 294C121 477 223 641 393 641C523 641 580 539 580 408C580 224 480 60 311 60C180 60 121 161 121 294ZM436 872 350 769H424L538 872Z" glyph-name="Oacute.ss03" horiz-adv-x="700" /><glyph d="M41 305C41 133 166 -11 347 -11C577 -11 749 174 749 395C749 571 627 712 444 712C225 712 41 535 41 305ZM118 312C118 492 257 641 438 641C584 641 674 532 674 390C674 208 535 60 356 60C209 60 118 169 118 312ZM454 759C529 759 580 807 595 872H528C520 841 497 822 463 822C430 822 412 841 412 872H346C343 807 380 759 454 759Z" glyph-name="Obreve" horiz-adv-x="791" unicode="&#334;" /><glyph d="M45 291C45 126 131 -11 297 -11C513 -11 655 179 655 408C655 572 567 712 399 712C184 712 45 519 45 291ZM121 294C121 477 223 641 393 641C523 641 580 539 580 408C580 224 480 60 311 60C180 60 121 161 121 294ZM410 759C485 759 536 807 551 872H484C476 841 453 822 419 822C386 822 368 841 368 872H302C299 807 336 759 410 759Z" glyph-name="Obreve.ss03" horiz-adv-x="700" /><glyph d="M41 305C41 133 166 -11 347 -11C577 -11 749 174 749 395C749 571 627 712 444 712C225 712 41 535 41 305ZM118 312C118 492 257 641 438 641C584 641 674 532 674 390C674 208 535 60 356 60C209 60 118 169 118 312ZM311 769H390L465 831L521 769H601L518 872H421Z" glyph-name="Ocircumflex" horiz-adv-x="791" unicode="&#212;" /><glyph d="M45 291C45 126 131 -11 297 -11C513 -11 655 179 655 408C655 572 567 712 399 712C184 712 45 519 45 291ZM121 294C121 477 223 641 393 641C523 641 580 539 580 408C580 224 480 60 311 60C180 60 121 161 121 294ZM267 769H346L421 831L477 769H557L474 872H377Z" glyph-name="Ocircumflex.ss03" horiz-adv-x="700" /><glyph d="M41 305C41 133 166 -11 347 -11C577 -11 749 174 749 395C749 571 627 712 444 712C225 712 41 535 41 305ZM118 312C118 492 257 641 438 641C584 641 674 532 674 390C674 208 535 60 356 60C209 60 118 169 118 312ZM320 820C320 791 342 769 371 769C400 769 423 791 423 820C423 849 400 872 371 872C342 872 320 849 320 820ZM501 820C501 791 523 769 552 769C581 769 604 791 604 820C604 849 581 872 552 872C523 872 501 849 501 820Z" glyph-name="Odieresis" horiz-adv-x="791" unicode="&#214;" /><glyph d="M45 291C45 126 131 -11 297 -11C513 -11 655 179 655 408C655 572 567 712 399 712C184 712 45 519 45 291ZM121 294C121 477 223 641 393 641C523 641 580 539 580 408C580 224 480 60 311 60C180 60 121 161 121 294ZM359 772 373 869H288L274 772ZM532 772 546 869H461L447 772Z" glyph-name="Odieresis.ss03" horiz-adv-x="700" /><glyph d="M41 305C41 133 166 -11 347 -11C577 -11 749 174 749 395C749 571 627 712 444 712C225 712 41 535 41 305ZM118 312C118 492 257 641 438 641C584 641 674 532 674 390C674 208 535 60 356 60C209 60 118 169 118 312ZM328 872 413 769H487L430 872Z" glyph-name="Ograve" horiz-adv-x="791" unicode="&#210;" /><glyph d="M45 291C45 126 131 -11 297 -11C513 -11 655 179 655 408C655 572 567 712 399 712C184 712 45 519 45 291ZM121 294C121 477 223 641 393 641C523 641 580 539 580 408C580 224 480 60 311 60C180 60 121 161 121 294ZM284 872 369 769H443L386 872Z" glyph-name="Ograve.ss03" horiz-adv-x="700" /><glyph d="M41 305C41 133 166 -11 347 -11C577 -11 749 174 749 395C749 571 627 712 444 712C225 712 41 535 41 305ZM118 312C118 492 257 641 438 641C584 641 674 532 674 390C674 208 535 60 356 60C209 60 118 169 118 312ZM317 769H391L509 872H412ZM482 769H556L674 872H577Z" glyph-name="Ohungarumlaut" horiz-adv-x="791" unicode="&#336;" /><glyph d="M45 291C45 126 131 -11 297 -11C513 -11 655 179 655 408C655 572 567 712 399 712C184 712 45 519 45 291ZM121 294C121 477 223 641 393 641C523 641 580 539 580 408C580 224 480 60 311 60C180 60 121 161 121 294ZM273 769H347L465 872H368ZM438 769H512L630 872H533Z" glyph-name="Ohungarumlaut.ss03" horiz-adv-x="700" /><glyph d="M41 305C41 133 166 -11 347 -11C577 -11 749 174 749 395C749 571 627 712 444 712C225 712 41 535 41 305ZM118 312C118 492 257 641 438 641C584 641 674 532 674 390C674 208 535 60 356 60C209 60 118 169 118 312ZM343 787H571L581 855H353Z" glyph-name="Omacron" horiz-adv-x="791" unicode="&#332;" /><glyph d="M45 291C45 126 131 -11 297 -11C513 -11 655 179 655 408C655 572 567 712 399 712C184 712 45 519 45 291ZM121 294C121 477 223 641 393 641C523 641 580 539 580 408C580 224 480 60 311 60C180 60 121 161 121 294ZM299 787H527L537 855H309Z" glyph-name="Omacron.ss03" horiz-adv-x="700" /><glyph d="M600 68H471L480 138C592 179 691 305 691 444C691 599 571 712 420 712C237 712 72 565 72 371C72 265 127 174 208 142L196 68H70L60 0H257L283 184C194 203 146 285 146 377C146 533 276 642 416 642C533 642 620 559 620 438C620 319 540 209 419 184L393 0H590Z" glyph-name="Omega" horiz-adv-x="731" unicode="&#8486;" /><glyph d="M600 68H471L480 138C592 179 691 305 691 444C691 599 571 712 420 712C237 712 72 565 72 371C72 265 127 174 208 142L196 68H70L60 0H257L283 184C194 203 146 285 146 377C146 533 276 642 416 642C533 642 620 559 620 438C620 319 540 209 419 184L393 0H590Z" glyph-name="Omegagreek" horiz-adv-x="731" unicode="&#937;" /><glyph d="M41 305C41 220 71 141 124 84L69 18L119 -22L173 42C221 8 280 -11 347 -11C577 -11 749 174 749 395C749 485 717 566 661 623L712 684L662 724L611 664C565 694 508 712 444 712C225 712 41 535 41 305ZM674 390C674 208 535 60 356 60C303 60 257 74 220 99L613 566C652 521 674 460 674 390ZM118 312C118 492 257 641 438 641C486 641 529 629 564 607L173 142C138 186 118 245 118 312Z" glyph-name="Oslash" horiz-adv-x="791" unicode="&#216;" /><glyph d="M45 291C45 219 61 152 93 100L24 18L74 -22L134 50C175 12 229 -11 297 -11C513 -11 655 179 655 408C655 482 637 552 601 606L667 684L617 724L558 654C518 690 464 712 399 712C184 712 45 519 45 291ZM580 408C580 224 480 60 311 60C256 60 214 77 183 108L551 546C571 508 580 460 580 408ZM121 294C121 477 223 641 393 641C443 641 483 626 512 599L145 163C128 200 121 245 121 294Z" glyph-name="Oslash.ss03" horiz-adv-x="700" /><glyph d="M41 305C41 220 71 141 124 84L69 18L119 -22L173 42C221 8 280 -11 347 -11C577 -11 749 174 749 395C749 485 717 566 661 623L712 684L662 724L611 664C565 694 508 712 444 712C225 712 41 535 41 305ZM674 390C674 208 535 60 356 60C303 60 257 74 220 99L613 566C652 521 674 460 674 390ZM118 312C118 492 257 641 438 641C486 641 529 629 564 607L173 142C138 186 118 245 118 312ZM481 872 395 769H469L583 872Z" glyph-name="Oslashacute" horiz-adv-x="791" unicode="&#510;" /><glyph d="M45 291C45 219 61 152 93 100L24 18L74 -22L134 50C175 12 229 -11 297 -11C513 -11 655 179 655 408C655 482 637 552 601 606L667 684L617 724L558 654C518 690 464 712 399 712C184 712 45 519 45 291ZM580 408C580 224 480 60 311 60C256 60 214 77 183 108L551 546C571 508 580 460 580 408ZM121 294C121 477 223 641 393 641C443 641 483 626 512 599L145 163C128 200 121 245 121 294ZM434 872 348 769H422L536 872Z" glyph-name="Oslashacute.ss03" horiz-adv-x="700" /><glyph d="M41 305C41 133 166 -11 347 -11C577 -11 749 174 749 395C749 571 627 712 444 712C225 712 41 535 41 305ZM118 312C118 492 257 641 438 641C584 641 674 532 674 390C674 208 535 60 356 60C209 60 118 169 118 312ZM555 872C552 855 541 840 520 840C505 840 499 844 485 850L456 863C447 867 433 872 415 872C370 872 335 834 326 769H383C387 787 397 801 417 801C430 801 440 797 454 791L482 779C491 775 505 769 523 769C567 769 603 807 612 872Z" glyph-name="Otilde" horiz-adv-x="791" unicode="&#213;" /><glyph d="M45 291C45 126 131 -11 297 -11C513 -11 655 179 655 408C655 572 567 712 399 712C184 712 45 519 45 291ZM121 294C121 477 223 641 393 641C523 641 580 539 580 408C580 224 480 60 311 60C180 60 121 161 121 294ZM511 872C508 855 497 840 476 840C461 840 455 844 441 850L412 863C403 867 389 872 371 872C326 872 291 834 282 769H339C343 787 353 801 373 801C386 801 396 797 410 791L438 779C447 775 461 769 479 769C523 769 559 807 568 872Z" glyph-name="Otilde.ss03" horiz-adv-x="700" /><glyph d="M311 258C494 258 601 351 601 501C601 616 516 700 374 700H130L31 0H107L143 258ZM374 628C467 628 524 583 524 501C524 386 443 329 332 329H153L195 628Z" glyph-name="P" horiz-adv-x="609" unicode="P" /><glyph d="M41 305C41 133 166 -11 347 -11C438 -11 520 18 586 67L659 -18L711 28L638 113C707 186 749 286 749 395C749 571 627 712 444 712C225 712 41 535 41 305ZM118 312C118 492 257 641 438 641C584 641 674 532 674 390C674 304 643 226 591 167L518 253L465 207L540 120C488 82 425 60 356 60C209 60 118 169 118 312Z" glyph-name="Q" horiz-adv-x="791" unicode="Q" /><glyph d="M41 310C41 133 161 -11 342 -11C572 -11 749 169 749 390C749 571 627 712 444 712C215 712 41 530 41 310ZM386 285 533 114C483 80 422 60 356 60C209 60 117 169 117 312C117 492 257 641 438 641C584 641 674 532 674 390C674 303 642 225 590 166L443 336Z" glyph-name="Q.ss01" horiz-adv-x="790" /><glyph d="M41 310C41 133 161 -11 342 -11C427 -11 511 16 577 65L661 -33L718 16L633 114C699 185 749 294 749 401C749 577 624 712 441 712C222 712 41 530 41 310ZM356 60C209 60 118 169 118 312C118 492 257 641 438 641C584 641 674 538 674 399C674 221 532 60 356 60Z" glyph-name="Q.ss02" horiz-adv-x="791" /><glyph d="M604 -11 614 60 479 53C595 126 655 266 655 408C655 572 566 712 398 712C183 712 45 514 45 291C45 121 141 -11 307 -11ZM121 294C121 467 211 642 391 642C521 642 580 530 580 408C580 224 490 60 311 60C180 60 121 161 121 294Z" glyph-name="Q.ss03" horiz-adv-x="700" /><glyph d="M462 0H543L399 267C524 292 601 378 601 501C601 618 516 700 374 700H130L31 0H107L143 258H323ZM374 628C467 628 524 583 524 501C524 386 443 329 332 329H153L195 628Z" glyph-name="R" horiz-adv-x="649" unicode="R" /><glyph d="M461 0H548L374 263C511 285 601 383 601 498C601 615 516 700 374 700H130L31 0H107L143 258H286ZM374 628C467 628 524 578 524 501C524 386 428 329 317 329H153L195 628Z" glyph-name="R.ss02" horiz-adv-x="649" /><glyph d="M534 0 527 164C523 257 505 299 455 320C531 347 599 416 599 522C599 635 517 700 384 700H129L31 0H107L148 295H283C388 295 448 288 451 155L455 0ZM383 628C475 628 520 586 520 519C520 425 460 367 347 367H159L195 628Z" glyph-name="R.ss03" horiz-adv-x="639" /><glyph d="M462 0H543L399 267C524 292 601 378 601 501C601 618 516 700 374 700H130L31 0H107L143 258H323ZM374 628C467 628 524 583 524 501C524 386 443 329 332 329H153L195 628ZM413 872 327 769H401L515 872Z" glyph-name="Racute" horiz-adv-x="649" unicode="&#340;" /><glyph d="M461 0H548L374 263C511 285 601 383 601 498C601 615 516 700 374 700H130L31 0H107L143 258H286ZM374 628C467 628 524 578 524 501C524 386 428 329 317 329H153L195 628ZM419 872 333 769H407L521 872Z" glyph-name="Racute.ss02" horiz-adv-x="649" /><glyph d="M534 0 527 164C523 257 505 299 455 320C531 347 599 416 599 522C599 635 517 700 384 700H129L31 0H107L148 295H283C388 295 448 288 451 155L455 0ZM383 628C475 628 520 586 520 519C520 425 460 367 347 367H159L195 628ZM414 872 328 769H402L516 872Z" glyph-name="Racute.ss03" horiz-adv-x="639" /><glyph d="M462 0H543L399 267C524 292 601 378 601 501C601 618 516 700 374 700H130L31 0H107L143 258H323ZM374 628C467 628 524 583 524 501C524 386 443 329 332 329H153L195 628ZM547 872H467L393 810L336 872H257L339 769H436Z" glyph-name="Rcaron" horiz-adv-x="649" unicode="&#344;" /><glyph d="M461 0H548L374 263C511 285 601 383 601 498C601 615 516 700 374 700H130L31 0H107L143 258H286ZM374 628C467 628 524 578 524 501C524 386 428 329 317 329H153L195 628ZM553 872H473L399 810L342 872H263L345 769H442Z" glyph-name="Rcaron.ss02" horiz-adv-x="649" /><glyph d="M534 0 527 164C523 257 505 299 455 320C531 347 599 416 599 522C599 635 517 700 384 700H129L31 0H107L148 295H283C388 295 448 288 451 155L455 0ZM383 628C475 628 520 586 520 519C520 425 460 367 347 367H159L195 628ZM548 872H468L394 810L337 872H258L340 769H437Z" glyph-name="Rcaron.ss03" horiz-adv-x="639" /><glyph d="M462 0H543L399 267C524 292 601 378 601 501C601 618 516 700 374 700H130L31 0H107L143 258H323ZM374 628C467 628 524 583 524 501C524 386 443 329 332 329H153L195 628ZM172 -194 238 -57H321L231 -194Z" glyph-name="Rcommaaccent" horiz-adv-x="649" unicode="&#342;" /><glyph d="M461 0H548L374 263C511 285 601 383 601 498C601 615 516 700 374 700H130L31 0H107L143 258H286ZM374 628C467 628 524 578 524 501C524 386 428 329 317 329H153L195 628ZM177 -194 243 -57H326L236 -194Z" glyph-name="Rcommaaccent.ss02" horiz-adv-x="649" /><glyph d="M534 0 527 164C523 257 505 299 455 320C531 347 599 416 599 522C599 635 517 700 384 700H129L31 0H107L148 295H283C388 295 448 288 451 155L455 0ZM383 628C475 628 520 586 520 519C520 425 460 367 347 367H159L195 628ZM181 -194 247 -57H330L240 -194Z" glyph-name="Rcommaaccent.ss03" horiz-adv-x="639" /><glyph d="M351 30 396 -23 752 289 484 602 431 550 630 325H45L35 254H610Z" glyph-name="RightArrow" horiz-adv-x="804" unicode="&#8594;" /><glyph d="M620 350 80 690V10Z" glyph-name="RightTriangle" horiz-adv-x="660" unicode="&#9658;" /><glyph d="M359 311C435 297 489 262 489 198C489 108 403 60 301 60C202 60 127 109 88 170L30 117C87 44 171 -11 290 -11C460 -11 566 76 566 200C566 298 495 367 369 389L311 399C234 412 179 441 179 507C179 586 255 641 353 641C446 641 505 599 543 552L599 605C552 665 475 712 364 712C233 712 101 639 101 506C101 400 181 343 283 325Z" glyph-name="S" horiz-adv-x="638" unicode="S" /><glyph d="M344 305C404 280 437 249 437 196C437 114 368 60 265 60C187 60 126 99 83 168L26 117C73 44 150 -11 256 -11C427 -11 514 89 514 197C514 283 467 337 364 381L290 413C225 441 191 469 191 524C191 583 239 641 327 641C402 641 444 605 481 553L538 604C497 664 434 712 338 712C204 712 114 628 114 519C114 435 165 380 246 346Z" glyph-name="S.ss02" horiz-adv-x="582" /><glyph d="M359 311C435 297 489 262 489 198C489 108 403 60 301 60C202 60 127 109 88 170L30 117C87 44 171 -11 290 -11C460 -11 566 76 566 200C566 298 495 367 369 389L311 399C234 412 179 441 179 507C179 586 255 641 353 641C446 641 505 599 543 552L599 605C552 665 475 712 364 712C233 712 101 639 101 506C101 400 181 343 283 325ZM409 872 323 769H397L511 872Z" glyph-name="Sacute" horiz-adv-x="638" unicode="&#346;" /><glyph d="M344 305C404 280 437 249 437 196C437 114 368 60 265 60C187 60 126 99 83 168L26 117C73 44 150 -11 256 -11C427 -11 514 89 514 197C514 283 467 337 364 381L290 413C225 441 191 469 191 524C191 583 239 641 327 641C402 641 444 605 481 553L538 604C497 664 434 712 338 712C204 712 114 628 114 519C114 435 165 380 246 346ZM371 872 285 769H359L473 872Z" glyph-name="Sacute.ss02" horiz-adv-x="582" /><glyph d="M359 311C435 297 489 262 489 198C489 108 403 60 301 60C202 60 127 109 88 170L30 117C87 44 171 -11 290 -11C460 -11 566 76 566 200C566 298 495 367 369 389L311 399C234 412 179 441 179 507C179 586 255 641 353 641C446 641 505 599 543 552L599 605C552 665 475 712 364 712C233 712 101 639 101 506C101 400 181 343 283 325ZM543 872H463L389 810L332 872H253L335 769H432Z" glyph-name="Scaron" horiz-adv-x="638" unicode="&#352;" /><glyph d="M344 305C404 280 437 249 437 196C437 114 368 60 265 60C187 60 126 99 83 168L26 117C73 44 150 -11 256 -11C427 -11 514 89 514 197C514 283 467 337 364 381L290 413C225 441 191 469 191 524C191 583 239 641 327 641C402 641 444 605 481 553L538 604C497 664 434 712 338 712C204 712 114 628 114 519C114 435 165 380 246 346ZM505 872H425L351 810L294 872H215L297 769H394Z" glyph-name="Scaron.ss02" horiz-adv-x="582" /><glyph d="M359 311C435 297 489 262 489 198C489 108 403 60 301 60C202 60 127 109 88 170L30 117C87 44 170 -10 288 -11L210 -137H290L365 -5C491 17 566 95 566 200C566 298 495 367 369 389L311 399C234 412 179 441 179 507C179 586 255 641 353 641C446 641 505 599 543 552L599 605C552 665 475 712 364 712C233 712 101 639 101 506C101 400 181 343 283 325Z" glyph-name="Scedilla" horiz-adv-x="638" unicode="&#350;" /><glyph d="M359 311C435 297 489 262 489 198C489 108 403 60 301 60C202 60 127 109 88 170L30 117C84 48 162 -5 271 -10L253 -137H327L345 -7C482 9 566 90 566 200C566 298 495 367 369 389L311 399C234 412 179 441 179 507C179 586 255 641 353 641C446 641 505 599 543 552L599 605C552 665 475 712 364 712C233 712 101 639 101 506C101 400 181 343 283 325Z" glyph-name="Scedilla.ss01" horiz-adv-x="638" /><glyph d="M344 305C404 280 437 249 437 196C437 114 368 60 265 60C187 60 126 99 83 168L26 117C70 48 142 -5 239 -10L161 -137H241L315 -6C447 14 514 102 514 197C514 283 467 337 364 381L290 413C225 441 191 469 191 524C191 583 239 641 327 641C402 641 444 605 481 553L538 604C497 664 434 712 338 712C204 712 114 628 114 519C114 435 165 380 246 346Z" glyph-name="Scedilla.ss02" horiz-adv-x="582" /><glyph d="M359 311C435 297 489 262 489 198C489 108 403 60 301 60C202 60 127 109 88 170L30 117C87 44 171 -11 290 -11C460 -11 566 76 566 200C566 298 495 367 369 389L311 399C234 412 179 441 179 507C179 586 255 641 353 641C446 641 505 599 543 552L599 605C552 665 475 712 364 712C233 712 101 639 101 506C101 400 181 343 283 325ZM240 769H319L394 831L450 769H530L447 872H350Z" glyph-name="Scircumflex" horiz-adv-x="638" unicode="&#348;" /><glyph d="M344 305C404 280 437 249 437 196C437 114 368 60 265 60C187 60 126 99 83 168L26 117C73 44 150 -11 256 -11C427 -11 514 89 514 197C514 283 467 337 364 381L290 413C225 441 191 469 191 524C191 583 239 641 327 641C402 641 444 605 481 553L538 604C497 664 434 712 338 712C204 712 114 628 114 519C114 435 165 380 246 346ZM202 769H281L356 831L412 769H492L409 872H312Z" glyph-name="Scircumflex.ss02" horiz-adv-x="582" /><glyph d="M359 311C435 297 489 262 489 198C489 108 403 60 301 60C202 60 127 109 88 170L30 117C87 44 171 -11 290 -11C460 -11 566 76 566 200C566 298 495 367 369 389L311 399C234 412 179 441 179 507C179 586 255 641 353 641C446 641 505 599 543 552L599 605C552 665 475 712 364 712C233 712 101 639 101 506C101 400 181 343 283 325ZM212 -194 278 -57H361L271 -194Z" glyph-name="Scommaaccent" horiz-adv-x="638" unicode="&#536;" /><glyph d="M344 305C404 280 437 249 437 196C437 114 368 60 265 60C187 60 126 99 83 168L26 117C73 44 150 -11 256 -11C427 -11 514 89 514 197C514 283 467 337 364 381L290 413C225 441 191 469 191 524C191 583 239 641 327 641C402 641 444 605 481 553L538 604C497 664 434 712 338 712C204 712 114 628 114 519C114 435 165 380 246 346ZM176 -194 242 -57H325L235 -194Z" glyph-name="Scommaaccent.ss02" horiz-adv-x="582" /><glyph d="M108 72 98 0H539L601 441H529L485 120L134 528L79 479L429 72Z" glyph-name="SouthEastArrow" horiz-adv-x="669" unicode="&#8600;" /><glyph d="M195 72 635 473 588 528 150 125 196 441H124L66 0H501L511 72Z" glyph-name="SouthWestArrow" horiz-adv-x="669" unicode="&#8601;" /><glyph d="M85 700 75 628H293L205 0H281L369 628H593L603 700Z" glyph-name="T" horiz-adv-x="586" unicode="T" /><glyph d="M75 628H293L254 350H113L103 278H244L205 0H281L320 278H461L471 350H330L369 628H593L603 700H85Z" glyph-name="Tbar" horiz-adv-x="586" unicode="&#358;" /><glyph d="M85 700 75 628H293L205 0H281L369 628H593L603 700ZM509 872H429L355 810L298 872H219L301 769H398Z" glyph-name="Tcaron" horiz-adv-x="586" unicode="&#356;" /><glyph d="M85 700 75 628H293L205 0H281L369 628H593L603 700ZM130 -194 196 -57H279L189 -194Z" glyph-name="Tcommaaccent" horiz-adv-x="586" unicode="&#538;" /><glyph d="M295 138C478 138 585 231 585 381C585 496 500 581 358 581H189L205 700H130L31 0H107L127 138ZM358 509C451 509 508 463 508 381C508 266 427 209 316 209H137L179 509Z" glyph-name="Thorn" horiz-adv-x="593" unicode="&#222;" /><glyph d="M515 275C498 156 435 60 301 60C192 60 133 131 133 229C133 243 135 260 137 274L197 700H120L61 286C58 268 57 244 57 227C57 91 146 -11 296 -11C470 -11 568 102 591 265L652 700H575Z" glyph-name="U" horiz-adv-x="673" unicode="U" /><glyph d="M515 275C498 156 435 60 301 60C192 60 133 131 133 229C133 243 135 260 137 274L197 700H120L61 286C58 268 57 244 57 227C57 91 146 -11 296 -11C470 -11 568 102 591 265L652 700H575ZM426 872 340 769H414L528 872Z" glyph-name="Uacute" horiz-adv-x="673" unicode="&#218;" /><glyph d="M515 275C498 156 435 60 301 60C192 60 133 131 133 229C133 243 135 260 137 274L197 700H120L61 286C58 268 57 244 57 227C57 91 146 -11 296 -11C470 -11 568 102 591 265L652 700H575ZM400 759C475 759 526 807 541 872H474C466 841 443 822 409 822C376 822 358 841 358 872H292C289 807 326 759 400 759Z" glyph-name="Ubreve" horiz-adv-x="673" unicode="&#364;" /><glyph d="M515 275C498 156 435 60 301 60C192 60 133 131 133 229C133 243 135 260 137 274L197 700H120L61 286C58 268 57 244 57 227C57 91 146 -11 296 -11C470 -11 568 102 591 265L652 700H575ZM257 769H336L411 831L467 769H547L464 872H367Z" glyph-name="Ucircumflex" horiz-adv-x="673" unicode="&#219;" /><glyph d="M515 275C498 156 435 60 301 60C192 60 133 131 133 229C133 243 135 260 137 274L197 700H120L61 286C58 268 57 244 57 227C57 91 146 -11 296 -11C470 -11 568 102 591 265L652 700H575ZM266 820C266 791 288 769 317 769C346 769 369 791 369 820C369 849 346 872 317 872C288 872 266 849 266 820ZM447 820C447 791 469 769 498 769C527 769 550 791 550 820C550 849 527 872 498 872C469 872 447 849 447 820Z" glyph-name="Udieresis" horiz-adv-x="673" unicode="&#220;" /><glyph d="M515 275C498 156 435 60 301 60C192 60 133 131 133 229C133 243 135 260 137 274L197 700H120L61 286C58 268 57 244 57 227C57 91 146 -11 296 -11C470 -11 568 102 591 265L652 700H575ZM353 772 367 869H282L268 772ZM526 772 540 869H455L441 772Z" glyph-name="Udieresis.ss03" horiz-adv-x="673" /><glyph d="M515 275C498 156 435 60 301 60C192 60 133 131 133 229C133 243 135 260 137 274L197 700H120L61 286C58 268 57 244 57 227C57 91 146 -11 296 -11C470 -11 568 102 591 265L652 700H575ZM274 872 359 769H433L376 872Z" glyph-name="Ugrave" horiz-adv-x="673" unicode="&#217;" /><glyph d="M515 275C498 156 435 60 301 60C192 60 133 131 133 229C133 243 135 260 137 274L197 700H120L61 286C58 268 57 244 57 227C57 91 146 -11 296 -11C470 -11 568 102 591 265L652 700H575ZM263 769H337L455 872H358ZM428 769H502L620 872H523Z" glyph-name="Uhungarumlaut" horiz-adv-x="673" unicode="&#368;" /><glyph d="M515 275C498 156 435 60 301 60C192 60 133 131 133 229C133 243 135 260 137 274L197 700H120L61 286C58 268 57 244 57 227C57 91 146 -11 296 -11C470 -11 568 102 591 265L652 700H575ZM289 787H517L527 855H299Z" glyph-name="Umacron" horiz-adv-x="673" unicode="&#362;" /><glyph d="M337 -125H332C291 -125 277 -110 277 -90C277 -67 287 -48 342 -8C487 10 570 117 591 265L652 700H575L515 275C498 156 435 60 301 60C192 60 133 131 133 229C133 243 135 260 137 274L197 700H120L61 286C58 268 57 244 57 227C57 100 134 3 266 -9C230 -36 204 -73 204 -114C204 -158 235 -184 293 -184C308 -184 321 -182 329 -180Z" glyph-name="Uogonek" horiz-adv-x="673" unicode="&#370;" /><glyph d="M634 350 691 400 423 712 67 400 115 345 370 574 290 0H361L441 574Z" glyph-name="UpArrow" horiz-adv-x="716" unicode="&#8593;" /><glyph d="M40 80H720L380 620Z" glyph-name="UpTriangle" horiz-adv-x="760" unicode="&#9650;" /><glyph d="M515 275C498 156 435 60 301 60C192 60 133 131 133 229C133 243 135 260 137 274L197 700H120L61 286C58 268 57 244 57 227C57 91 146 -11 296 -11C470 -11 568 102 591 265L652 700H575ZM369 773C369 795 387 811 408 811C425 811 437 799 437 782C437 760 420 744 399 744C382 744 369 756 369 773ZM313 768C313 725 346 690 389 690C444 690 492 735 492 788C492 835 459 866 414 866C364 866 313 825 313 768Z" glyph-name="Uring" horiz-adv-x="673" unicode="&#366;" /><glyph d="M515 275C498 156 435 60 301 60C192 60 133 131 133 229C133 243 135 260 137 274L197 700H120L61 286C58 268 57 244 57 227C57 91 146 -11 296 -11C470 -11 568 102 591 265L652 700H575ZM501 872C498 855 487 840 466 840C451 840 445 844 431 850L402 863C393 867 379 872 361 872C316 872 281 834 272 769H329C333 787 343 801 363 801C376 801 386 797 400 791L428 779C437 775 451 769 469 769C513 769 549 807 558 872Z" glyph-name="Utilde" horiz-adv-x="673" unicode="&#360;" /><glyph d="M271 92 141 700H64L217 0H303L653 700H570Z" glyph-name="V" horiz-adv-x="619" unicode="V" /><glyph d="M323 70H235L149 700H68L169 0H375L672 700H587Z" glyph-name="V.ss01" horiz-adv-x="644" /><glyph d="M277 178 150 700H71L248 -17H257L635 700H550Z" glyph-name="V.ss02" horiz-adv-x="610" /><glyph d="M605 115 535 700H444L212 115L140 700H59L154 0H240L475 575L548 0H633L926 700H839Z" glyph-name="W" horiz-adv-x="885" unicode="W" /><glyph d="M617 70H542L504 348L653 700H574L479 469L448 700H369L420 348L302 70H227L141 700H58L159 0H350L444 225L476 0H667L964 700H881Z" glyph-name="W.ss01" horiz-adv-x="926" /><glyph d="M171 700H95L222 -17H231L489 512L600 -17H609L938 700H855L629 201L520 718H511L258 201Z" glyph-name="W.ss02" horiz-adv-x="935" /><glyph d="M605 115 535 700H444L212 115L140 700H59L154 0H240L475 575L548 0H633L926 700H839ZM526 872 440 769H514L628 872Z" glyph-name="Wacute" horiz-adv-x="885" unicode="&#7810;" /><glyph d="M617 70H542L504 348L653 700H574L479 469L448 700H369L420 348L302 70H227L141 700H58L159 0H350L444 225L476 0H667L964 700H881ZM545 872 459 769H533L647 872Z" glyph-name="Wacute.ss01" horiz-adv-x="926" /><glyph d="M171 700H95L222 -17H231L489 512L600 -17H609L938 700H855L629 201L520 718H511L258 201ZM550 872 464 769H538L652 872Z" glyph-name="Wacute.ss02" horiz-adv-x="935" /><glyph d="M605 115 535 700H444L212 115L140 700H59L154 0H240L475 575L548 0H633L926 700H839ZM357 769H436L511 831L567 769H647L564 872H467Z" glyph-name="Wcircumflex" horiz-adv-x="885" unicode="&#372;" /><glyph d="M617 70H542L504 348L653 700H574L479 469L448 700H369L420 348L302 70H227L141 700H58L159 0H350L444 225L476 0H667L964 700H881ZM376 769H455L530 831L586 769H666L583 872H486Z" glyph-name="Wcircumflex.ss01" horiz-adv-x="926" /><glyph d="M171 700H95L222 -17H231L489 512L600 -17H609L938 700H855L629 201L520 718H511L258 201ZM381 769H460L535 831L591 769H671L588 872H491Z" glyph-name="Wcircumflex.ss02" horiz-adv-x="935" /><glyph d="M605 115 535 700H444L212 115L140 700H59L154 0H240L475 575L548 0H633L926 700H839ZM366 820C366 791 388 769 417 769C446 769 469 791 469 820C469 849 446 872 417 872C388 872 366 849 366 820ZM547 820C547 791 569 769 598 769C627 769 650 791 650 820C650 849 627 872 598 872C569 872 547 849 547 820Z" glyph-name="Wdieresis" horiz-adv-x="885" unicode="&#7812;" /><glyph d="M617 70H542L504 348L653 700H574L479 469L448 700H369L420 348L302 70H227L141 700H58L159 0H350L444 225L476 0H667L964 700H881ZM385 820C385 791 407 769 436 769C465 769 488 791 488 820C488 849 465 872 436 872C407 872 385 849 385 820ZM566 820C566 791 588 769 617 769C646 769 669 791 669 820C669 849 646 872 617 872C588 872 566 849 566 820Z" glyph-name="Wdieresis.ss01" horiz-adv-x="926" /><glyph d="M171 700H95L222 -17H231L489 512L600 -17H609L938 700H855L629 201L520 718H511L258 201ZM390 820C390 791 412 769 441 769C470 769 493 791 493 820C493 849 470 872 441 872C412 872 390 849 390 820ZM571 820C571 791 593 769 622 769C651 769 674 791 674 820C674 849 651 872 622 872C593 872 571 849 571 820Z" glyph-name="Wdieresis.ss02" horiz-adv-x="935" /><glyph d="M605 115 535 700H444L212 115L140 700H59L154 0H240L475 575L548 0H633L926 700H839ZM460 772 474 869H389L375 772ZM633 772 647 869H562L548 772Z" glyph-name="Wdieresis.ss03" horiz-adv-x="885" /><glyph d="M605 115 535 700H444L212 115L140 700H59L154 0H240L475 575L548 0H633L926 700H839ZM374 872 459 769H533L476 872Z" glyph-name="Wgrave" horiz-adv-x="885" unicode="&#7808;" /><glyph d="M617 70H542L504 348L653 700H574L479 469L448 700H369L420 348L302 70H227L141 700H58L159 0H350L444 225L476 0H667L964 700H881ZM393 872 478 769H552L495 872Z" glyph-name="Wgrave.ss01" horiz-adv-x="926" /><glyph d="M171 700H95L222 -17H231L489 512L600 -17H609L938 700H855L629 201L520 718H511L258 201ZM398 872 483 769H557L500 872Z" glyph-name="Wgrave.ss02" horiz-adv-x="935" /><glyph d="M320 421 175 700H85L265 359L-27 0H71L311 298L467 0H557L365 359L643 700H545Z" glyph-name="X" horiz-adv-x="627" unicode="X" /><glyph d="M363 325 460 0H541L432 359L627 700H542L369 395H263L176 700H95L192 359L-17 0H68L257 325Z" glyph-name="X.ss01" horiz-adv-x="631" /><glyph d="M152 700H72L241 283L201 0H277L317 283L604 700H516L287 358Z" glyph-name="Y" horiz-adv-x="578" unicode="Y" /><glyph d="M152 700H72L241 283L201 0H277L317 283L604 700H516L287 358ZM369 872 283 769H357L471 872Z" glyph-name="Yacute" horiz-adv-x="578" unicode="&#221;" /><glyph d="M152 700H72L241 283L201 0H277L317 283L604 700H516L287 358ZM200 769H279L354 831L410 769H490L407 872H310Z" glyph-name="Ycircumflex" horiz-adv-x="578" unicode="&#374;" /><glyph d="M152 700H72L241 283L201 0H277L317 283L604 700H516L287 358ZM209 820C209 791 231 769 260 769C289 769 312 791 312 820C312 849 289 872 260 872C231 872 209 849 209 820ZM390 820C390 791 412 769 441 769C470 769 493 791 493 820C493 849 470 872 441 872C412 872 390 849 390 820Z" glyph-name="Ydieresis" horiz-adv-x="578" unicode="&#376;" /><glyph d="M152 700H72L241 283L201 0H277L317 283L604 700H516L287 358ZM304 772 318 869H233L219 772ZM477 772 491 869H406L392 772Z" glyph-name="Ydieresis.ss03" horiz-adv-x="578" /><glyph d="M152 700H72L241 283L201 0H277L317 283L604 700H516L287 358ZM217 872 302 769H376L319 872Z" glyph-name="Ygrave" horiz-adv-x="578" unicode="&#7922;" /><glyph d="M114 700 103 628H499L23 68L13 0H506L516 72H120L598 632L608 700Z" glyph-name="Z" horiz-adv-x="621" unicode="Z" /><glyph d="M141 700 130 628H530L5 9L4 0H562L572 72H155L678 691L680 700Z" glyph-name="Z.ss02" horiz-adv-x="663" /><glyph d="M114 700 103 628H499L23 68L13 0H506L516 72H120L598 632L608 700ZM394 872 308 769H382L496 872Z" glyph-name="Zacute" horiz-adv-x="621" unicode="&#377;" /><glyph d="M141 700 130 628H530L5 9L4 0H562L572 72H155L678 691L680 700ZM435 872 349 769H423L537 872Z" glyph-name="Zacute.ss02" horiz-adv-x="663" /><glyph d="M114 700 103 628H499L23 68L13 0H506L516 72H120L598 632L608 700ZM528 872H448L374 810L317 872H238L320 769H417Z" glyph-name="Zcaron" horiz-adv-x="621" unicode="&#381;" /><glyph d="M141 700 130 628H530L5 9L4 0H562L572 72H155L678 691L680 700ZM569 872H489L415 810L358 872H279L361 769H458Z" glyph-name="Zcaron.ss02" horiz-adv-x="663" /><glyph d="M114 700 103 628H499L23 68L13 0H506L516 72H120L598 632L608 700ZM322 818C322 788 346 764 376 764C406 764 431 788 431 818C431 848 406 873 376 873C346 873 322 848 322 818Z" glyph-name="Zdotaccent" horiz-adv-x="621" unicode="&#379;" /><glyph d="M141 700 130 628H530L5 9L4 0H562L572 72H155L678 691L680 700ZM363 818C363 788 387 764 417 764C447 764 472 788 472 818C472 848 447 873 417 873C387 873 363 848 363 818Z" glyph-name="Zdotaccent.ss02" horiz-adv-x="663" /><glyph d="M114 700 103 628H499L23 68L13 0H506L516 72H120L598 632L608 700ZM418 772 431 869H342L329 772Z" glyph-name="Zdotaccent.ss03" horiz-adv-x="621" /><glyph d="M54 211C54 87 128 -11 240 -11C310 -11 357 16 391 53L384 0H458L527 490H453L444 427C412 481 359 502 304 502C158 502 54 367 54 211ZM131 211C131 337 206 432 301 432C376 432 423 363 423 272C423 153 352 57 255 57C177 57 131 121 131 211Z" glyph-name="a" horiz-adv-x="569" unicode="a" /><glyph d="M40 499C40 415 87 334 182 334C239 334 279 354 312 385L306 342H370L421 703H357L351 660C326 692 288 711 235 711C118 711 40 618 40 499ZM107 504C107 590 164 654 228 654C294 654 334 605 334 541C334 458 272 391 197 391C135 391 107 439 107 504Z" glyph-name="a.ordn" horiz-adv-x="451" /><glyph d="M109 647H303L292 568H189C110 568 42 512 42 442C42 386 86 342 157 342H324L375 703H117ZM284 513 268 397H168C127 397 104 420 104 449C104 484 136 513 184 513Z" glyph-name="a.ordn.ss01" horiz-adv-x="405" /><glyph d="M40 499C40 407 103 334 202 334C256 334 299 354 332 385L326 342H390L441 703H377L371 660C346 692 308 711 255 711C135 711 40 614 40 499ZM107 504C107 587 170 654 248 654C314 654 354 605 354 541C354 458 292 391 211 391C145 391 107 439 107 504Z" glyph-name="a.ordn.ss02" horiz-adv-x="471" /><glyph d="M141 334C191 334 240 351 270 385C270 355 293 340 326 340C344 340 359 342 359 342L367 394C367 394 360 393 356 393C333 393 325 399 330 432L351 584C362 664 310 711 224 711C139 711 77 658 62 594H128C138 632 171 655 216 655C264 655 294 633 287 581L285 566L179 553C84 541 27 499 27 427C27 374 66 334 141 334ZM89 436C89 471 122 492 170 499L278 515L274 490C265 430 218 389 151 389C111 389 89 408 89 436Z" glyph-name="a.ordn.ss03" horiz-adv-x="400" /><glyph d="M142 422H395L379 306H241C130 306 50 237 50 141C50 66 102 0 198 0H410L479 490H152ZM123 144C123 200 169 239 236 239H369L345 67H212C156 67 123 101 123 144Z" glyph-name="a.ss01" horiz-adv-x="521" /><glyph d="M53 216C53 92 132 -11 259 -11C329 -11 387 15 431 58L423 0H497L566 490H492L482 422C450 471 397 502 327 502C171 502 53 372 53 216ZM130 216C130 337 216 432 322 432C407 432 462 363 462 272C462 153 376 58 269 58C181 58 130 126 130 216Z" glyph-name="a.ss02" horiz-adv-x="608" /><glyph d="M183 -11C249 -11 313 12 354 59C357 22 385 -2 426 -2C449 -2 463 0 463 0L472 62H461C425 62 419 74 425 117L452 318C467 429 401 502 288 502C179 502 99 432 84 345H160C173 404 224 434 284 434C354 434 387 386 380 331L377 306L230 287C112 272 36 217 36 122C36 52 86 -11 183 -11ZM108 126C108 185 162 207 232 218L368 239L362 201C349 116 276 57 192 57C137 57 108 87 108 126Z" glyph-name="a.ss03" horiz-adv-x="512" /><glyph d="M54 211C54 87 128 -11 240 -11C310 -11 357 16 391 53L384 0H458L527 490H453L444 427C412 481 359 502 304 502C158 502 54 367 54 211ZM131 211C131 337 206 432 301 432C376 432 423 363 423 272C423 153 352 57 255 57C177 57 131 121 131 211ZM376 700 267 569H341L473 700Z" glyph-name="aacute" horiz-adv-x="569" unicode="&#225;" /><glyph d="M142 422H395L379 306H241C130 306 50 237 50 141C50 66 102 0 198 0H410L479 490H152ZM123 144C123 200 169 239 236 239H369L345 67H212C156 67 123 101 123 144ZM360 700 251 569H325L457 700Z" glyph-name="aacute.ss01" horiz-adv-x="521" /><glyph d="M53 216C53 92 132 -11 259 -11C329 -11 387 15 431 58L423 0H497L566 490H492L482 422C450 471 397 502 327 502C171 502 53 372 53 216ZM130 216C130 337 216 432 322 432C407 432 462 363 462 272C462 153 376 58 269 58C181 58 130 126 130 216ZM403 700 294 569H368L500 700Z" glyph-name="aacute.ss02" horiz-adv-x="608" /><glyph d="M183 -11C249 -11 313 12 354 59C357 22 385 -2 426 -2C449 -2 463 0 463 0L472 62H461C425 62 419 74 425 117L452 318C467 429 401 502 288 502C179 502 99 432 84 345H160C173 404 224 434 284 434C354 434 387 386 380 331L377 306L230 287C112 272 36 217 36 122C36 52 86 -11 183 -11ZM108 126C108 185 162 207 232 218L368 239L362 201C349 116 276 57 192 57C137 57 108 87 108 126ZM355 700 246 569H320L452 700Z" glyph-name="aacute.ss03" horiz-adv-x="512" /><glyph d="M54 211C54 87 128 -11 240 -11C310 -11 357 16 391 53L384 0H458L527 490H453L444 427C412 481 359 502 304 502C158 502 54 367 54 211ZM131 211C131 337 206 432 301 432C376 432 423 363 423 272C423 153 352 57 255 57C177 57 131 121 131 211ZM332 558C416 558 474 618 492 700H425C413 654 384 626 341 626C299 626 277 654 279 700H213C207 618 249 558 332 558Z" glyph-name="abreve" horiz-adv-x="569" unicode="&#259;" /><glyph d="M142 422H395L379 306H241C130 306 50 237 50 141C50 66 102 0 198 0H410L479 490H152ZM123 144C123 200 169 239 236 239H369L345 67H212C156 67 123 101 123 144ZM316 558C400 558 458 618 476 700H409C397 654 368 626 325 626C283 626 261 654 263 700H197C191 618 233 558 316 558Z" glyph-name="abreve.ss01" horiz-adv-x="521" /><glyph d="M53 216C53 92 132 -11 259 -11C329 -11 387 15 431 58L423 0H497L566 490H492L482 422C450 471 397 502 327 502C171 502 53 372 53 216ZM130 216C130 337 216 432 322 432C407 432 462 363 462 272C462 153 376 58 269 58C181 58 130 126 130 216ZM359 558C443 558 501 618 519 700H452C440 654 411 626 368 626C326 626 304 654 306 700H240C234 618 276 558 359 558Z" glyph-name="abreve.ss02" horiz-adv-x="608" /><glyph d="M183 -11C249 -11 313 12 354 59C357 22 385 -2 426 -2C449 -2 463 0 463 0L472 62H461C425 62 419 74 425 117L452 318C467 429 401 502 288 502C179 502 99 432 84 345H160C173 404 224 434 284 434C354 434 387 386 380 331L377 306L230 287C112 272 36 217 36 122C36 52 86 -11 183 -11ZM108 126C108 185 162 207 232 218L368 239L362 201C349 116 276 57 192 57C137 57 108 87 108 126ZM311 558C395 558 453 618 471 700H404C392 654 363 626 320 626C278 626 256 654 258 700H192C186 618 228 558 311 558Z" glyph-name="abreve.ss03" horiz-adv-x="512" /><glyph d="M54 211C54 87 128 -11 240 -11C310 -11 357 16 391 53L384 0H458L527 490H453L444 427C412 481 359 502 304 502C158 502 54 367 54 211ZM131 211C131 337 206 432 301 432C376 432 423 363 423 272C423 153 352 57 255 57C177 57 131 121 131 211ZM305 700 190 569H266L349 651L409 569H481L402 700Z" glyph-name="acircumflex" horiz-adv-x="569" unicode="&#226;" /><glyph d="M142 422H395L379 306H241C130 306 50 237 50 141C50 66 102 0 198 0H410L479 490H152ZM123 144C123 200 169 239 236 239H369L345 67H212C156 67 123 101 123 144ZM289 700 174 569H250L333 651L393 569H465L386 700Z" glyph-name="acircumflex.ss01" horiz-adv-x="521" /><glyph d="M53 216C53 92 132 -11 259 -11C329 -11 387 15 431 58L423 0H497L566 490H492L482 422C450 471 397 502 327 502C171 502 53 372 53 216ZM130 216C130 337 216 432 322 432C407 432 462 363 462 272C462 153 376 58 269 58C181 58 130 126 130 216ZM332 700 217 569H293L376 651L436 569H508L429 700Z" glyph-name="acircumflex.ss02" horiz-adv-x="608" /><glyph d="M183 -11C249 -11 313 12 354 59C357 22 385 -2 426 -2C449 -2 463 0 463 0L472 62H461C425 62 419 74 425 117L452 318C467 429 401 502 288 502C179 502 99 432 84 345H160C173 404 224 434 284 434C354 434 387 386 380 331L377 306L230 287C112 272 36 217 36 122C36 52 86 -11 183 -11ZM108 126C108 185 162 207 232 218L368 239L362 201C349 116 276 57 192 57C137 57 108 87 108 126ZM284 700 169 569H245L328 651L388 569H460L381 700Z" glyph-name="acircumflex.ss03" horiz-adv-x="512" /><glyph d="M256 700 147 569H221L353 700Z" glyph-name="acute" horiz-adv-x="500" unicode="&#180;" /><glyph d="M242 872 156 769H230L344 872Z" glyph-name="acute.cap" horiz-adv-x="500" /><glyph d="M54 211C54 87 128 -11 240 -11C310 -11 357 16 391 53L384 0H458L527 490H453L444 427C412 481 359 502 304 502C158 502 54 367 54 211ZM131 211C131 337 206 432 301 432C376 432 423 363 423 272C423 153 352 57 255 57C177 57 131 121 131 211ZM207 653C207 624 229 602 258 602C287 602 310 624 310 653C310 682 287 705 258 705C229 705 207 682 207 653ZM388 653C388 624 410 602 439 602C468 602 491 624 491 653C491 682 468 705 439 705C410 705 388 682 388 653Z" glyph-name="adieresis" horiz-adv-x="569" unicode="&#228;" /><glyph d="M142 422H395L379 306H241C130 306 50 237 50 141C50 66 102 0 198 0H410L479 490H152ZM123 144C123 200 169 239 236 239H369L345 67H212C156 67 123 101 123 144ZM191 653C191 624 213 602 242 602C271 602 294 624 294 653C294 682 271 705 242 705C213 705 191 682 191 653ZM372 653C372 624 394 602 423 602C452 602 475 624 475 653C475 682 452 705 423 705C394 705 372 682 372 653Z" glyph-name="adieresis.ss01" horiz-adv-x="521" /><glyph d="M53 216C53 92 132 -11 259 -11C329 -11 387 15 431 58L423 0H497L566 490H492L482 422C450 471 397 502 327 502C171 502 53 372 53 216ZM130 216C130 337 216 432 322 432C407 432 462 363 462 272C462 153 376 58 269 58C181 58 130 126 130 216ZM234 653C234 624 256 602 285 602C314 602 337 624 337 653C337 682 314 705 285 705C256 705 234 682 234 653ZM415 653C415 624 437 602 466 602C495 602 518 624 518 653C518 682 495 705 466 705C437 705 415 682 415 653Z" glyph-name="adieresis.ss02" horiz-adv-x="608" /><glyph d="M183 -11C249 -11 313 12 354 59C357 22 385 -2 426 -2C449 -2 463 0 463 0L472 62H461C425 62 419 74 425 117L452 318C467 429 401 502 288 502C179 502 99 432 84 345H160C173 404 224 434 284 434C354 434 387 386 380 331L377 306L230 287C112 272 36 217 36 122C36 52 86 -11 183 -11ZM108 126C108 185 162 207 232 218L368 239L362 201C349 116 276 57 192 57C137 57 108 87 108 126ZM275 603 289 700H204L190 603ZM448 603 462 700H377L363 603Z" glyph-name="adieresis.ss03" horiz-adv-x="512" /><glyph d="M852 222C852 222 860 257 860 293C860 394 811 502 673 502C611 502 555 478 511 430L520 490H453L444 427C412 481 359 502 304 502C158 502 54 367 54 211C54 87 128 -11 240 -11C310 -11 357 16 391 53L384 0H451L459 56C494 14 549 -11 619 -11C707 -11 773 25 824 78L779 130C736 82 686 58 628 58C538 58 486 112 486 202C486 208 486 215 487 222ZM131 211C131 337 206 432 301 432C376 432 423 363 423 272C423 153 352 57 255 57C177 57 131 121 131 211ZM665 432C747 432 789 375 787 288H499C522 369 579 432 665 432Z" glyph-name="ae" horiz-adv-x="913" unicode="&#230;" /><glyph d="M652 68H419L439 212H536C647 212 723 267 723 363C723 438 661 490 575 490H151L141 422H394L374 279H241C130 279 50 228 50 132C50 57 102 0 198 0H642ZM123 134C123 183 164 212 226 212H364L344 67H207C156 67 123 92 123 134ZM561 423C617 423 650 399 650 361C650 305 608 279 541 279H448L468 423Z" glyph-name="ae.ss01" horiz-adv-x="769" /><glyph d="M912 222C912 222 920 257 920 291C920 409 860 502 732 502C666 502 596 469 557 422L566 490H492L482 422C451 468 402 502 327 502C171 502 53 372 53 216C53 87 133 -11 260 -11C330 -11 388 16 431 58L423 0H497L507 71C534 25 601 -11 682 -11C766 -11 836 27 884 78L839 130C800 87 754 58 685 58C593 58 530 134 536 222ZM130 216C130 337 216 432 322 432C408 432 462 363 462 272C462 153 376 58 270 58C181 58 130 126 130 216ZM725 432C807 432 853 370 846 288H548C571 369 641 432 725 432Z" glyph-name="ae.ss02" horiz-adv-x="973" /><glyph d="M807 222C807 222 816 257 816 292C816 393 767 502 629 502C553 502 485 467 439 410C416 464 363 502 288 502C171 502 96 423 84 345H160C170 394 214 434 283 434C345 434 390 397 379 321L375 292L225 276C101 263 36 212 36 119C36 48 93 -11 183 -11C262 -11 332 19 389 97C426 28 484 -11 574 -11C663 -11 726 30 779 83L734 130C691 84 641 58 583 58C487 58 435 120 442 222ZM108 124C108 180 159 205 230 212L366 226L361 196C348 116 273 57 189 57C139 57 108 86 108 124ZM620 432C702 432 749 374 743 288H454C478 369 535 432 620 432Z" glyph-name="ae.ss03" horiz-adv-x="869" /><glyph d="M852 222C852 222 860 257 860 293C860 394 811 502 673 502C611 502 555 478 511 430L520 490H453L444 427C412 481 359 502 304 502C158 502 54 367 54 211C54 87 128 -11 240 -11C310 -11 357 16 391 53L384 0H451L459 56C494 14 549 -11 619 -11C707 -11 773 25 824 78L779 130C736 82 686 58 628 58C538 58 486 112 486 202C486 208 486 215 487 222ZM131 211C131 337 206 432 301 432C376 432 423 363 423 272C423 153 352 57 255 57C177 57 131 121 131 211ZM665 432C747 432 789 375 787 288H499C522 369 579 432 665 432ZM560 700 451 569H525L657 700Z" glyph-name="aeacute" horiz-adv-x="913" unicode="&#509;" /><glyph d="M652 68H419L439 212H536C647 212 723 267 723 363C723 438 661 490 575 490H151L141 422H394L374 279H241C130 279 50 228 50 132C50 57 102 0 198 0H642ZM123 134C123 183 164 212 226 212H364L344 67H207C156 67 123 92 123 134ZM561 423C617 423 650 399 650 361C650 305 608 279 541 279H448L468 423ZM487 700 378 569H452L584 700Z" glyph-name="aeacute.ss01" horiz-adv-x="769" /><glyph d="M912 222H536C530 134 593 58 685 58C754 58 800 87 839 130L884 78C836 27 766 -11 682 -11C601 -11 534 25 507 71L497 0H423L431 58C388 16 330 -11 260 -11C133 -11 53 87 53 216C53 372 171 502 327 502C402 502 451 468 482 422L492 490H566L557 422C596 469 666 502 732 502C860 502 920 409 920 291C920 257 912 222 912 222ZM130 216C130 126 181 58 270 58C376 58 462 153 462 272C462 363 408 432 322 432C216 432 130 337 130 216ZM725 432C641 432 571 369 548 288H846C853 370 807 432 725 432ZM604 700 495 569H569L701 700Z" glyph-name="aeacute.ss02" horiz-adv-x="973" /><glyph d="M807 222C807 222 816 257 816 292C816 393 767 502 629 502C553 502 485 467 439 410C416 464 363 502 288 502C171 502 96 423 84 345H160C170 394 214 434 283 434C345 434 390 397 379 321L375 292L225 276C101 263 36 212 36 119C36 48 93 -11 183 -11C262 -11 332 19 389 97C426 28 484 -11 574 -11C663 -11 726 30 779 83L734 130C691 84 641 58 583 58C487 58 435 120 442 222ZM108 124C108 180 159 205 230 212L366 226L361 196C348 116 273 57 189 57C139 57 108 86 108 124ZM620 432C702 432 749 374 743 288H454C478 369 535 432 620 432ZM515 700 406 569H480L612 700Z" glyph-name="aeacute.ss03" horiz-adv-x="869" /><glyph d="M54 211C54 87 128 -11 240 -11C310 -11 357 16 391 53L384 0H458L527 490H453L444 427C412 481 359 502 304 502C158 502 54 367 54 211ZM131 211C131 337 206 432 301 432C376 432 423 363 423 272C423 153 352 57 255 57C177 57 131 121 131 211ZM212 700 308 569H382L309 700Z" glyph-name="agrave" horiz-adv-x="569" unicode="&#224;" /><glyph d="M142 422H395L379 306H241C130 306 50 237 50 141C50 66 102 0 198 0H410L479 490H152ZM123 144C123 200 169 239 236 239H369L345 67H212C156 67 123 101 123 144ZM216 700 312 569H386L313 700Z" glyph-name="agrave.ss01" horiz-adv-x="521" /><glyph d="M53 216C53 92 132 -11 259 -11C329 -11 387 15 431 58L423 0H497L566 490H492L482 422C450 471 397 502 327 502C171 502 53 372 53 216ZM130 216C130 337 216 432 322 432C407 432 462 363 462 272C462 153 376 58 269 58C181 58 130 126 130 216ZM223 700 319 569H393L320 700Z" glyph-name="agrave.ss02" horiz-adv-x="608" /><glyph d="M183 -11C249 -11 313 12 354 59C357 22 385 -2 426 -2C449 -2 463 0 463 0L472 62H461C425 62 419 74 425 117L452 318C467 429 401 502 288 502C179 502 99 432 84 345H160C173 404 224 434 284 434C354 434 387 386 380 331L377 306L230 287C112 272 36 217 36 122C36 52 86 -11 183 -11ZM108 126C108 185 162 207 232 218L368 239L362 201C349 116 276 57 192 57C137 57 108 87 108 126ZM175 700 271 569H345L272 700Z" glyph-name="agrave.ss03" horiz-adv-x="512" /><glyph d="M54 211C54 87 128 -11 240 -11C310 -11 357 16 391 53L384 0H458L527 490H453L444 427C412 481 359 502 304 502C158 502 54 367 54 211ZM131 211C131 337 206 432 301 432C376 432 423 363 423 272C423 153 352 57 255 57C177 57 131 121 131 211ZM240 700 230 632H458L468 700Z" glyph-name="amacron" horiz-adv-x="569" unicode="&#257;" /><glyph d="M142 422H395L379 306H241C130 306 50 237 50 141C50 66 102 0 198 0H410L479 490H152ZM123 144C123 200 169 239 236 239H369L345 67H212C156 67 123 101 123 144ZM224 700 214 632H442L452 700Z" glyph-name="amacron.ss01" horiz-adv-x="521" /><glyph d="M53 216C53 92 132 -11 259 -11C329 -11 387 15 431 58L423 0H497L566 490H492L482 422C450 471 397 502 327 502C171 502 53 372 53 216ZM130 216C130 337 216 432 322 432C407 432 462 363 462 272C462 153 376 58 269 58C181 58 130 126 130 216ZM267 700 257 632H485L495 700Z" glyph-name="amacron.ss02" horiz-adv-x="608" /><glyph d="M183 -11C249 -11 313 12 354 59C357 22 385 -2 426 -2C449 -2 463 0 463 0L472 62H461C425 62 419 74 425 117L452 318C467 429 401 502 288 502C179 502 99 432 84 345H160C173 404 224 434 284 434C354 434 387 386 380 331L377 306L230 287C112 272 36 217 36 122C36 52 86 -11 183 -11ZM108 126C108 185 162 207 232 218L368 239L362 201C349 116 276 57 192 57C137 57 108 87 108 126ZM219 700 209 632H437L447 700Z" glyph-name="amacron.ss03" horiz-adv-x="512" /><glyph d="M480 0H568L491 123C551 193 596 272 627 353H550C529 300 493 236 452 184L329 375L385 405C448 438 510 490 510 571C510 648 453 712 357 712C242 712 171 642 171 548C171 502 189 457 226 399L188 380C83 327 36 257 36 172C36 94 89 -11 237 -11C308 -11 380 16 437 68ZM242 57C154 57 111 116 111 175C111 244 151 288 246 335L262 343L399 127C345 75 284 57 242 57ZM247 548C247 606 285 644 348 644C400 644 435 613 435 568C435 512 384 477 339 454L293 431L281 449C257 485 247 520 247 548Z" glyph-name="ampersand" horiz-adv-x="665" unicode="&amp;" /><glyph d="M387 628 397 700H363C232 700 126 621 126 499C126 448 153 400 190 374C105 338 51 261 51 178C51 69 131 0 247 0H483L529 327H663L673 399H539L582 700H506L463 399H316C243 399 203 443 203 500C203 570 260 628 349 628ZM128 183C128 261 192 327 287 327H453L417 72H251C172 72 128 121 128 183Z" glyph-name="ampersand.ss01" horiz-adv-x="687" /><glyph d="M508 0H597L515 129L629 215L591 273L476 186L356 374L374 384C473 443 528 496 528 576C528 653 468 712 387 712C283 712 206 635 206 538C206 499 220 454 254 397L230 384C120 325 54 262 54 160C54 76 114 -11 232 -11C313 -11 382 26 432 63L455 80ZM242 60C177 60 132 107 132 163C132 242 186 282 261 322L289 337L416 139L395 123C346 86 294 60 242 60ZM376 642C419 642 451 614 451 574C451 510 395 476 336 441L320 432L311 446C288 481 281 513 281 538C281 594 321 642 376 642Z" glyph-name="ampersand.ss02" horiz-adv-x="687" /><glyph d="M441 -125H436C395 -125 381 -110 381 -90C381 -66 392 -46 458 0L527 490H453L444 427C412 481 359 502 304 502C158 502 54 367 54 211C54 87 128 -11 240 -11C310 -11 357 16 391 53L384 0C342 -26 308 -67 308 -108C308 -158 339 -184 397 -184C412 -184 425 -182 433 -180ZM131 211C131 337 206 432 301 432C376 432 423 363 423 272C423 153 352 57 255 57C177 57 131 121 131 211Z" glyph-name="aogonek" horiz-adv-x="569" unicode="&#261;" /><glyph d="M393 -125H388C347 -125 333 -110 333 -90C333 -66 344 -46 410 0L479 490H152L142 422H395L379 306H241C130 306 50 237 50 141C50 66 102 0 198 0H336C294 -26 260 -67 260 -108C260 -158 291 -184 349 -184C364 -184 377 -182 385 -180ZM123 144C123 200 169 239 236 239H369L345 67H212C156 67 123 101 123 144Z" glyph-name="aogonek.ss01" horiz-adv-x="521" /><glyph d="M480 -125H475C434 -125 420 -110 420 -90C420 -66 431 -46 497 0L566 490H492L482 422C450 471 397 502 327 502C171 502 53 372 53 216C53 92 132 -11 259 -11C329 -11 387 15 431 58L423 0C381 -26 347 -67 347 -108C347 -158 378 -184 436 -184C451 -184 464 -182 472 -180ZM130 216C130 337 216 432 322 432C407 432 462 363 462 272C462 153 376 58 269 58C181 58 130 126 130 216Z" glyph-name="aogonek.ss02" horiz-adv-x="608" /><glyph d="M446 -125H441C400 -125 386 -110 386 -90C386 -66 397 -46 463 0L472 62H461C425 62 419 74 425 117L452 318C467 429 401 502 288 502C179 502 99 432 84 345H160C173 404 224 434 284 434C354 434 387 386 380 331L377 306L230 287C112 272 36 217 36 122C36 52 86 -11 183 -11C249 -11 313 12 354 59C356 32 371 12 395 3C350 -23 313 -66 313 -108C313 -158 344 -184 402 -184C417 -184 430 -182 438 -180ZM108 126C108 185 162 207 232 218L368 239L362 201C349 116 276 57 192 57C137 57 108 87 108 126Z" glyph-name="aogonek.ss03" horiz-adv-x="512" /><glyph d="M538 429C533 389 515 357 477 357C459 357 436 364 422 369L291 417C266 426 239 434 216 434C148 434 98 374 92 292H154C160 332 178 364 216 364C234 364 258 356 272 351L401 303C427 294 453 286 477 286C545 286 596 347 601 429ZM511 236C506 196 488 164 450 164C432 164 409 172 395 177L265 225C239 234 212 242 189 242C121 242 71 181 65 99H127C133 139 151 171 189 171C207 171 230 163 244 158L375 111C400 102 426 93 450 93C518 93 569 154 574 236Z" glyph-name="approxequal" horiz-adv-x="666" unicode="&#8776;" /><glyph d="M54 211C54 87 128 -11 240 -11C310 -11 357 16 391 53L384 0H458L527 490H453L444 427C412 481 359 502 304 502C158 502 54 367 54 211ZM131 211C131 337 206 432 301 432C376 432 423 363 423 272C423 153 352 57 255 57C177 57 131 121 131 211ZM316 631C316 650 332 663 350 663C365 663 375 654 375 639C375 620 360 606 342 606C327 606 316 616 316 631ZM267 626C267 589 295 559 333 559C381 559 423 598 423 645C423 685 394 712 354 712C310 712 267 676 267 626Z" glyph-name="aring" horiz-adv-x="569" unicode="&#229;" /><glyph d="M142 422H395L379 306H241C130 306 50 237 50 141C50 66 102 0 198 0H410L479 490H152ZM123 144C123 200 169 239 236 239H369L345 67H212C156 67 123 101 123 144ZM300 631C300 650 316 663 334 663C349 663 359 654 359 639C359 620 344 606 326 606C311 606 300 616 300 631ZM251 626C251 589 279 559 317 559C365 559 407 598 407 645C407 685 378 712 338 712C294 712 251 676 251 626Z" glyph-name="aring.ss01" horiz-adv-x="521" /><glyph d="M53 216C53 92 132 -11 259 -11C329 -11 387 15 431 58L423 0H497L566 490H492L482 422C450 471 397 502 327 502C171 502 53 372 53 216ZM130 216C130 337 216 432 322 432C407 432 462 363 462 272C462 153 376 58 269 58C181 58 130 126 130 216ZM343 631C343 650 359 663 377 663C392 663 402 654 402 639C402 620 387 606 369 606C354 606 343 616 343 631ZM294 626C294 589 322 559 360 559C408 559 450 598 450 645C450 685 421 712 381 712C337 712 294 676 294 626Z" glyph-name="aring.ss02" horiz-adv-x="608" /><glyph d="M183 -11C249 -11 313 12 354 59C357 22 385 -2 426 -2C449 -2 463 0 463 0L472 62H461C425 62 419 74 425 117L452 318C467 429 401 502 288 502C179 502 99 432 84 345H160C173 404 224 434 284 434C354 434 387 386 380 331L377 306L230 287C112 272 36 217 36 122C36 52 86 -11 183 -11ZM108 126C108 185 162 207 232 218L368 239L362 201C349 116 276 57 192 57C137 57 108 87 108 126ZM295 631C295 650 311 663 329 663C344 663 354 654 354 639C354 620 339 606 321 606C306 606 295 616 295 631ZM246 626C246 589 274 559 312 559C360 559 402 598 402 645C402 685 373 712 333 712C289 712 246 676 246 626Z" glyph-name="aring.ss03" horiz-adv-x="512" /><glyph d="M54 211C54 87 128 -11 240 -11C310 -11 357 16 391 53L384 0H458L527 490H453L444 427C412 481 359 502 304 502C158 502 54 367 54 211ZM131 211C131 337 206 432 301 432C376 432 423 363 423 272C423 153 352 57 255 57C177 57 131 121 131 211ZM316 631C316 616 327 606 342 606C360 606 375 620 375 639C375 654 365 663 350 663C332 663 316 650 316 631ZM267 626C267 676 310 712 354 712C394 712 423 685 423 645C423 598 381 559 333 559C295 559 267 589 267 626ZM429 900 320 769H394L526 900Z" glyph-name="aringacute" horiz-adv-x="569" unicode="&#507;" /><glyph d="M142 422H395L379 306H241C130 306 50 237 50 141C50 66 102 0 198 0H410L479 490H152ZM123 144C123 200 169 239 236 239H369L345 67H212C156 67 123 101 123 144ZM300 631C300 616 311 606 326 606C344 606 359 620 359 639C359 654 349 663 334 663C316 663 300 650 300 631ZM251 626C251 676 294 712 338 712C378 712 407 685 407 645C407 598 365 559 317 559C279 559 251 589 251 626ZM413 900 304 769H378L510 900Z" glyph-name="aringacute.ss01" horiz-adv-x="521" /><glyph d="M53 216C53 92 132 -11 259 -11C329 -11 387 15 431 58L423 0H497L566 490H492L482 422C450 471 397 502 327 502C171 502 53 372 53 216ZM130 216C130 337 216 432 322 432C407 432 462 363 462 272C462 153 376 58 269 58C181 58 130 126 130 216ZM343 631C343 616 354 606 369 606C387 606 402 620 402 639C402 654 392 663 377 663C359 663 343 650 343 631ZM294 626C294 676 337 712 381 712C421 712 450 685 450 645C450 598 408 559 360 559C322 559 294 589 294 626ZM448 900 339 769H413L545 900Z" glyph-name="aringacute.ss02" horiz-adv-x="608" /><glyph d="M183 -11C249 -11 313 12 354 59C357 22 385 -2 426 -2C449 -2 463 0 463 0L472 62H461C425 62 419 74 425 117L452 318C467 429 401 502 288 502C179 502 99 432 84 345H160C173 404 224 434 284 434C354 434 387 386 380 331L377 306L230 287C112 272 36 217 36 122C36 52 86 -11 183 -11ZM108 126C108 185 162 207 232 218L368 239L362 201C349 116 276 57 192 57C137 57 108 87 108 126ZM295 631C295 616 306 606 321 606C339 606 354 620 354 639C354 654 344 663 329 663C311 663 295 650 295 631ZM246 626C246 676 289 712 333 712C373 712 402 685 402 645C402 598 360 559 312 559C274 559 246 589 246 626ZM401 900 292 769H366L498 900Z" glyph-name="aringacute.ss03" horiz-adv-x="512" /><glyph d="M406 425H330L65 66H144L359 356L492 66H572Z" glyph-name="asciicircum" horiz-adv-x="637" unicode="^" /><glyph d="M372 319C368 291 355 270 328 270C313 270 301 277 287 283L228 310C218 315 193 325 169 325C107 325 69 276 65 205H128C132 234 145 254 171 254C186 254 200 248 213 242L271 214C282 209 307 199 331 199C392 199 430 249 434 319Z" glyph-name="asciitilde" horiz-adv-x="499" unicode="~" /><glyph d="M122 488 179 441 261 547 315 441 379 484 313 584 439 607 427 680 301 642 324 769H251L239 642L124 681L95 611L213 584Z" glyph-name="asterisk" horiz-adv-x="454" unicode="*" /><glyph d="M358 215C358 333 435 432 546 432C634 432 683 363 683 274C683 156 604 57 493 57C406 57 358 126 358 215ZM668 69C675 21 704 -11 761 -11C878 -11 998 125 998 324C998 537 853 712 606 712C304 712 75 490 75 198C75 -27 235 -205 496 -205C577 -205 645 -189 693 -171L703 -101C647 -122 587 -137 506 -137C281 -137 147 11 147 204C147 445 339 644 599 644C819 644 924 499 924 319C924 199 862 57 776 57C738 57 730 91 735 129L786 490H712L703 425C669 473 617 502 549 502C398 502 282 371 282 209C282 87 361 -11 483 -11C551 -11 617 13 668 69Z" glyph-name="at" horiz-adv-x="1076" unicode="@" /><glyph d="M54 211C54 87 128 -11 240 -11C310 -11 357 16 391 53L384 0H458L527 490H453L444 427C412 481 359 502 304 502C158 502 54 367 54 211ZM131 211C131 337 206 432 301 432C376 432 423 363 423 272C423 153 352 57 255 57C177 57 131 121 131 211ZM428 700C425 683 414 668 393 668C378 668 372 672 358 678L330 691C320 696 306 700 288 700C243 700 208 662 199 597H256C260 615 270 629 290 629C305 629 313 625 327 619L356 607C365 603 378 597 396 597C440 597 476 635 485 700Z" glyph-name="atilde" horiz-adv-x="569" unicode="&#227;" /><glyph d="M142 422H395L379 306H241C130 306 50 237 50 141C50 66 102 0 198 0H410L479 490H152ZM123 144C123 200 169 239 236 239H369L345 67H212C156 67 123 101 123 144ZM412 700C409 683 398 668 377 668C362 668 356 672 342 678L314 691C304 696 290 700 272 700C227 700 192 662 183 597H240C244 615 254 629 274 629C289 629 297 625 311 619L340 607C349 603 362 597 380 597C424 597 460 635 469 700Z" glyph-name="atilde.ss01" horiz-adv-x="521" /><glyph d="M53 216C53 92 132 -11 259 -11C329 -11 387 15 431 58L423 0H497L566 490H492L482 422C450 471 397 502 327 502C171 502 53 372 53 216ZM130 216C130 337 216 432 322 432C407 432 462 363 462 272C462 153 376 58 269 58C181 58 130 126 130 216ZM455 700C452 683 441 668 420 668C405 668 399 672 385 678L357 691C347 696 333 700 315 700C270 700 235 662 226 597H283C287 615 297 629 317 629C332 629 340 625 354 619L383 607C392 603 405 597 423 597C467 597 503 635 512 700Z" glyph-name="atilde.ss02" horiz-adv-x="608" /><glyph d="M183 -11C249 -11 313 12 354 59C357 22 385 -2 426 -2C449 -2 463 0 463 0L472 62H461C425 62 419 74 425 117L452 318C467 429 401 502 288 502C179 502 99 432 84 345H160C173 404 224 434 284 434C354 434 387 386 380 331L377 306L230 287C112 272 36 217 36 122C36 52 86 -11 183 -11ZM108 126C108 185 162 207 232 218L368 239L362 201C349 116 276 57 192 57C137 57 108 87 108 126ZM407 700C404 683 393 668 372 668C357 668 351 672 337 678L309 691C299 696 285 700 267 700C222 700 187 662 178 597H235C239 615 249 629 269 629C284 629 292 625 306 619L335 607C344 603 357 597 375 597C419 597 455 635 464 700Z" glyph-name="atilde.ss03" horiz-adv-x="512" /><glyph d="M550 281C550 404 466 502 345 502C277 502 221 476 181 435L218 700H144L45 0H117L127 72C154 23 209 -11 277 -11C434 -11 550 114 550 281ZM473 275C473 157 398 58 285 58C198 58 149 126 149 216C149 334 226 432 338 432C426 432 473 364 473 275Z" glyph-name="b" horiz-adv-x="604" unicode="b" /><glyph d="M118 750H45L282 -93H355Z" glyph-name="backslash" horiz-adv-x="399" unicode="\" /><glyph d="M142 700H70L266 0H339Z" glyph-name="backslash.cap" horiz-adv-x="399" /><glyph d="M97 -194H171L297 700H223Z" glyph-name="bar" horiz-adv-x="393" unicode="|" /><glyph d="M296 537C306 609 350 629 396 629H467L477 700H393C282 700 231 625 219 540L184 290H70L60 218H174L139 -34C127 -119 156 -194 267 -194H351L361 -122H290C244 -122 206 -101 216 -30Z" glyph-name="braceleft" horiz-adv-x="417" unicode="{" /><glyph d="M296 634C306 706 350 726 396 726H467L477 797H393C282 797 231 722 219 637L184 387H70L60 315H174L139 63C127 -22 156 -97 267 -97H351L361 -25H290C244 -25 206 -4 216 67Z" glyph-name="braceleft.cap" horiz-adv-x="417" /><glyph d="M131 -31C121 -103 77 -123 31 -123H-40L-50 -194H34C145 -194 196 -119 208 -34L243 217H357L367 289H253L288 540C300 625 271 700 160 700H76L66 628H137C183 628 221 607 211 536Z" glyph-name="braceright" horiz-adv-x="417" unicode="}" /><glyph d="M131 66C121 -6 77 -26 31 -26H-40L-50 -97H34C145 -97 196 -22 208 63L243 314H357L367 386H253L288 637C300 722 271 797 160 797H76L66 725H137C183 725 221 704 211 633Z" glyph-name="braceright.cap" horiz-adv-x="417" /><glyph d="M69 -194H305L315 -122H156L262 628H421L431 700H195Z" glyph-name="bracketleft" horiz-adv-x="361" unicode="[" /><glyph d="M69 -97H305L315 -25H156L262 725H421L431 797H195Z" glyph-name="bracketleft.cap" horiz-adv-x="361" /><glyph d="M293 700H57L47 628H206L100 -122H-59L-69 -194H167Z" glyph-name="bracketright" horiz-adv-x="361" unicode="]" /><glyph d="M293 797H57L47 725H206L100 -25H-59L-69 -97H167Z" glyph-name="bracketright.cap" horiz-adv-x="361" /><glyph d="M230 558C314 558 372 618 390 700H323C311 654 282 626 239 626C197 626 175 654 177 700H111C105 618 147 558 230 558Z" glyph-name="breve" horiz-adv-x="500" unicode="&#728;" /><glyph d="M234 759C309 759 360 807 375 872H308C300 841 277 822 243 822C210 822 192 841 192 872H126C123 807 160 759 234 759Z" glyph-name="breve.cap" horiz-adv-x="500" /><glyph d="M97 -194H171L222 171H148ZM171 335H245L297 700H223Z" glyph-name="brokenbar" horiz-adv-x="393" unicode="&#166;" /><glyph d="M68 262C68 188 128 129 202 129C276 129 335 188 335 262C335 336 276 396 202 396C128 396 68 336 68 262Z" glyph-name="bullet" horiz-adv-x="404" unicode="&#8226;" /><glyph d="M428 125C385 79 340 58 282 58C182 58 130 126 130 217C130 337 220 432 332 432C386 432 427 408 456 366L513 415C474 472 413 502 336 502C183 502 54 369 54 213C54 79 144 -11 272 -11C356 -11 422 21 458 61Z" glyph-name="c" horiz-adv-x="541" unicode="c" /><glyph d="M428 125C385 79 340 58 282 58C182 58 130 126 130 217C130 337 220 432 332 432C386 432 427 408 456 366L513 415C474 472 413 502 336 502C183 502 54 369 54 213C54 79 144 -11 272 -11C356 -11 422 21 458 61ZM397 700 288 569H362L494 700Z" glyph-name="cacute" horiz-adv-x="541" unicode="&#263;" /><glyph d="M280 569 395 700H319L235 618L176 700H104L183 569Z" glyph-name="caron" horiz-adv-x="500" unicode="&#711;" /><glyph d="M320 700H233L179 511H234Z" glyph-name="caron.alt" horiz-adv-x="500" /><glyph d="M395 872H315L241 810L184 872H105L187 769H284Z" glyph-name="caron.cap" horiz-adv-x="500" /><glyph d="M428 125C385 79 340 58 282 58C182 58 130 126 130 217C130 337 220 432 332 432C386 432 427 408 456 366L513 415C474 472 413 502 336 502C183 502 54 369 54 213C54 79 144 -11 272 -11C356 -11 422 21 458 61ZM409 569 524 700H448L364 618L305 700H233L312 569Z" glyph-name="ccaron" horiz-adv-x="541" unicode="&#269;" /><glyph d="M428 125C385 79 340 58 282 58C182 58 130 126 130 217C130 337 220 432 332 432C386 432 427 408 456 366L513 415C474 472 413 502 336 502C183 502 54 369 54 213C54 93 126 9 232 -8L152 -137H232L306 -9C374 -1 427 26 458 61Z" glyph-name="ccedilla" horiz-adv-x="541" unicode="&#231;" /><glyph d="M428 125C385 79 340 58 282 58C182 58 130 126 130 217C130 337 220 432 332 432C386 432 427 408 456 366L513 415C474 472 413 502 336 502C183 502 54 369 54 213C54 95 124 10 228 -7L210 -137H284L302 -9C371 -3 426 26 458 61Z" glyph-name="ccedilla.ss01" horiz-adv-x="541" /><glyph d="M428 125C385 79 340 58 282 58C182 58 130 126 130 217C130 337 220 432 332 432C386 432 427 408 456 366L513 415C474 472 413 502 336 502C183 502 54 369 54 213C54 79 144 -11 272 -11C356 -11 422 21 458 61ZM326 700 211 569H287L370 651L430 569H502L423 700Z" glyph-name="ccircumflex" horiz-adv-x="541" unicode="&#265;" /><glyph d="M428 125C385 79 340 58 282 58C182 58 130 126 130 217C130 337 220 432 332 432C386 432 427 408 456 366L513 415C474 472 413 502 336 502C183 502 54 369 54 213C54 79 144 -11 272 -11C356 -11 422 21 458 61ZM318 657C318 627 342 603 372 603C402 603 427 627 427 657C427 687 402 712 372 712C342 712 318 687 318 657Z" glyph-name="cdotaccent" horiz-adv-x="541" unicode="&#267;" /><glyph d="M428 125C385 79 340 58 282 58C182 58 130 126 130 217C130 337 220 432 332 432C386 432 427 408 456 366L513 415C474 472 413 502 336 502C183 502 54 369 54 213C54 79 144 -11 272 -11C356 -11 422 21 458 61ZM402 603 416 700H327L313 603Z" glyph-name="cdotaccent.ss03" horiz-adv-x="541" /><glyph d="M333 11H259L167 -137H247Z" glyph-name="cedilla" horiz-adv-x="500" unicode="&#184;" /><glyph d="M323 11H259L167 -137H247L326 1Z" glyph-name="cedilla.cap" horiz-adv-x="500" /><glyph d="M223 11 202 -137H276L297 11Z" glyph-name="cedilla.ss01" horiz-adv-x="500" /><glyph d="M223 11 202 -137H276L297 11Z" glyph-name="cedilla.ss01.cap" horiz-adv-x="500" /><glyph d="M428 125C391 85 352 64 305 59L357 430C399 423 432 401 456 366L513 415C479 464 429 493 367 500L382 604H308L293 498C159 476 54 354 54 213C54 97 121 14 222 -6L207 -114H281L295 -10C368 -4 425 25 458 61ZM130 217C130 319 195 403 283 426L232 64C165 83 130 142 130 217Z" glyph-name="cent" horiz-adv-x="541" unicode="&#162;" /><glyph d="M428 125C391 85 352 64 305 59L357 430C399 423 432 401 456 366L513 415C479 464 429 493 367 500L382 604H308L293 498C159 476 54 354 54 213C54 97 121 14 222 -6L207 -114H281L295 -10C368 -4 425 25 458 61ZM130 217C130 319 195 403 283 426L232 64C165 83 130 142 130 217Z" glyph-name="cent.osf" horiz-adv-x="541" /><glyph d="M458 125C421 85 382 64 335 59L387 430C429 423 462 401 486 366L543 415C509 464 459 493 397 500L412 604H338L323 498C189 476 84 354 84 213C84 97 151 14 252 -6L237 -114H311L325 -10C398 -4 455 25 488 61ZM160 217C160 319 225 403 313 426L262 64C195 83 160 142 160 217Z" glyph-name="cent.tf" horiz-adv-x="600" /><glyph d="M458 125C421 85 382 64 335 59L387 430C429 423 462 401 486 366L543 415C509 464 459 493 397 500L412 604H338L323 498C189 476 84 354 84 213C84 97 151 14 252 -6L237 -114H311L325 -10C398 -4 455 25 488 61ZM160 217C160 319 225 403 313 426L262 64C195 83 160 142 160 217Z" glyph-name="cent.to" horiz-adv-x="600" /><glyph d="M219 700 104 569H180L263 651L323 569H395L316 700Z" glyph-name="circumflex" horiz-adv-x="500" unicode="&#710;" /><glyph d="M105 769H184L259 831L315 769H395L312 872H215Z" glyph-name="circumflex.cap" horiz-adv-x="500" /><glyph d="M65 48C65 15 91 -11 124 -11C157 -11 184 15 184 48C184 81 157 108 124 108C91 108 65 81 65 48ZM120 442C120 409 146 383 179 383C212 383 239 409 239 442C239 475 212 502 179 502C146 502 120 475 120 442Z" glyph-name="colon" horiz-adv-x="308" unicode=":" /><glyph d="M65 51C65 16 92 -11 127 -11C162 -11 190 16 190 51C190 86 162 114 127 114C92 114 65 86 65 51ZM119 439C119 404 146 377 181 377C216 377 244 404 244 439C244 474 216 502 181 502C146 502 119 474 119 439Z" glyph-name="colon.ss01" horiz-adv-x="308" /><glyph d="M60 0H161L175 103H74ZM115 387H216L230 490H129Z" glyph-name="colon.ss03" horiz-adv-x="308" /><glyph d="M55 -125 197 114H104L-25 -125Z" glyph-name="comma" horiz-adv-x="308" unicode="," /><glyph d="M45 -148 181 85 107 120 -28 -114Z" glyph-name="comma.ss01" horiz-adv-x="307" /><glyph d="M64 0H112L110 -11C103 -51 75 -78 39 -79L32 -132C109 -132 159 -83 170 -2L184 103H78Z" glyph-name="comma.ss03" horiz-adv-x="308" /><glyph d="M234 -194 324 -57H241L175 -194Z" glyph-name="commaaccent" horiz-adv-x="500" unicode="&#806;" /><glyph d="M234 -194 324 -57H241L175 -194Z" glyph-name="commaaccent.cap" horiz-adv-x="500" /><glyph d="M65 312C65 133 190 -11 373 -11C597 -11 784 166 784 387C784 564 657 712 475 712C252 712 65 531 65 312ZM130 313C130 495 284 649 466 649C617 649 719 533 719 387C719 204 563 52 382 52C231 52 130 166 130 313ZM527 259C496 228 457 212 413 212C338 212 302 264 302 329C302 412 368 488 454 488C494 488 522 472 548 439L597 481C566 526 516 549 457 549C333 549 232 452 232 327C232 227 305 150 404 150C468 150 527 174 559 207Z" glyph-name="copyright" horiz-adv-x="826" unicode="&#169;" /><glyph d="M91 224C91 192 98 160 111 136L59 90L101 42L153 88C181 66 217 54 258 54C298 54 337 66 371 88L412 42L467 90L426 136C458 174 478 218 478 267C478 298 471 331 458 355L509 400L467 448L416 403C388 425 352 438 312 438C271 438 231 425 197 403L158 449L103 401L142 355C111 317 91 274 91 224ZM159 231C159 305 222 375 303 375C368 375 410 322 410 261C410 188 347 120 267 120C201 120 159 171 159 231Z" glyph-name="currency" horiz-adv-x="568" unicode="&#164;" /><glyph d="M53 209C53 92 132 -11 253 -11C321 -11 377 13 426 62L418 0H489L588 700H514L474 420C439 473 389 502 321 502C170 502 53 376 53 209ZM130 215C130 333 207 432 318 432C406 432 455 363 455 274C455 156 376 58 265 58C178 58 130 126 130 215Z" glyph-name="d" horiz-adv-x="600" unicode="d" /><glyph d="M43 497C43 405 102 334 197 334C248 334 294 354 330 388L323 342H385L457 857H393L365 658C340 691 301 711 250 711C134 711 43 613 43 497ZM350 542C350 459 292 390 211 390C146 390 109 439 109 503C109 586 166 654 248 654C313 654 350 606 350 542Z" glyph-name="d.ordn" horiz-adv-x="467" /><glyph d="M66 490 56 418H246L160 -194H236L322 418H513L523 490H332L362 700H286L256 490Z" glyph-name="dagger" horiz-adv-x="548" unicode="&#8224;" /><glyph d="M23 186 13 114H203L160 -194H236L279 114H470L480 186H289L322 418H513L523 490H332L361 700H285L256 490H66L56 418H246L213 186Z" glyph-name="daggerdbl" horiz-adv-x="548" unicode="&#8225;" /><glyph d="M53 209C53 92 132 -11 253 -11C321 -11 377 13 426 62L418 0H489L588 700H514L474 420C439 473 389 502 321 502C170 502 53 376 53 209ZM130 215C130 333 207 432 318 432C406 432 455 363 455 274C455 156 376 58 265 58C178 58 130 126 130 215ZM697 511H642L696 700H783Z" glyph-name="dcaron" horiz-adv-x="600" unicode="&#271;" /><glyph d="M53 209C53 92 132 -11 253 -11C321 -11 377 13 426 62L418 0H489L568 560H642L650 619H576L588 700H514L502 619H326L318 560H494L474 420C439 473 389 502 321 502C170 502 53 376 53 209ZM130 215C130 333 207 432 318 432C406 432 455 363 455 274C455 156 376 58 265 58C178 58 130 126 130 215Z" glyph-name="dcroat" horiz-adv-x="600" unicode="&#273;" /><glyph d="M71 541C71 464 127 405 205 405C309 405 382 483 382 577C382 653 327 712 248 712C146 712 71 635 71 541ZM140 547C140 604 185 648 239 648C282 648 313 615 313 570C313 513 266 470 214 470C170 470 140 502 140 547Z" glyph-name="degree" horiz-adv-x="410" unicode="&#176;" /><glyph d="M108 655C108 626 130 604 159 604C188 604 211 626 211 655C211 684 188 707 159 707C130 707 108 684 108 655ZM289 655C289 626 311 604 340 604C369 604 392 626 392 655C392 684 369 707 340 707C311 707 289 684 289 655Z" glyph-name="dieresis" horiz-adv-x="500" unicode="&#168;" /><glyph d="M108 820C108 791 130 769 159 769C188 769 211 791 211 820C211 849 188 872 159 872C130 872 108 849 108 820ZM289 820C289 791 311 769 340 769C369 769 392 791 392 820C392 849 369 872 340 872C311 872 289 849 289 820Z" glyph-name="dieresis.cap" horiz-adv-x="500" /><glyph d="M199 603 213 700H128L114 603ZM372 603 386 700H301L287 603Z" glyph-name="dieresis.ss03" horiz-adv-x="500" /><glyph d="M199 772 213 869H128L114 772ZM372 772 386 869H301L287 772Z" glyph-name="dieresis.ss03.cap" horiz-adv-x="500" /><glyph d="M65 215H555L565 283H75ZM225 48C225 15 251 -11 284 -11C317 -11 344 15 344 48C344 81 317 108 284 108C251 108 225 81 225 48ZM280 442C280 409 306 383 339 383C372 383 399 409 399 442C399 475 372 502 339 502C306 502 280 475 280 442Z" glyph-name="divide" horiz-adv-x="630" unicode="&#247;" /><glyph d="M433 815H362L347 711C222 705 101 633 101 506C101 400 181 343 283 325L292 323L256 63C179 75 121 118 88 170L30 117C79 53 150 3 246 -8L231 -114H302L316 -10C471 -2 566 82 566 200C566 297 496 366 372 388L407 636C470 623 513 589 543 552L599 605C560 654 500 695 418 708ZM489 198C489 115 417 68 326 61L361 310C436 296 489 261 489 198ZM179 507C179 582 247 635 337 640L303 400C230 414 179 443 179 507Z" glyph-name="dollar" horiz-adv-x="650" unicode="$" /><glyph d="M433 815H362L347 711C222 705 101 633 101 506C101 400 181 343 283 325L292 323L256 63C179 75 121 118 88 170L30 117C79 53 150 3 246 -8L231 -114H302L316 -10C471 -2 566 82 566 200C566 297 496 366 372 388L407 636C470 623 513 589 543 552L599 605C560 654 500 695 418 708ZM489 198C489 115 417 68 326 61L361 310C436 296 489 261 489 198ZM179 507C179 582 247 635 337 640L303 400C230 414 179 443 179 507Z" glyph-name="dollar.osf" horiz-adv-x="650" /><glyph d="M359 311C435 297 489 262 489 198C489 108 403 60 301 60C202 60 127 109 88 170L30 117C79 53 150 3 246 -8L231 -114H302L317 -10C471 -1 566 82 566 200C566 298 495 367 369 389L311 399C234 412 179 441 179 507C179 586 255 641 353 641C446 641 505 599 543 552L599 605C560 655 500 695 417 708L433 815H362L347 711C222 705 101 633 101 506C101 400 181 343 283 325Z" glyph-name="dollar.ss01" horiz-adv-x="638" /><glyph d="M344 305C404 280 437 249 437 196C437 114 368 60 265 60C187 60 126 99 83 168L26 117C67 52 132 2 220 -9L206 -114H277L291 -9C439 3 514 97 514 197C514 283 467 337 364 381L290 413C225 441 191 469 191 524C191 583 239 641 327 641C402 641 444 605 481 553L538 604C505 651 459 692 393 706L408 815H337L322 711C197 705 114 624 114 519C114 435 165 380 246 346Z" glyph-name="dollar.ss02" horiz-adv-x="582" /><glyph d="M415 815H344L329 711C192 700 110 614 110 496C110 409 171 345 261 326L275 323L238 66C157 76 123 126 97 171L37 117C70 59 132 2 228 -9L213 -114H284L298 -10C463 1 534 96 534 214C534 310 465 368 366 386L355 388L390 636C454 625 485 587 508 554L562 603C533 645 484 696 400 709ZM345 311C414 299 454 265 454 205C454 137 409 78 309 66L344 311ZM187 504C187 571 227 627 319 637L286 400C217 416 187 450 187 504Z" glyph-name="dollar.tf" horiz-adv-x="600" /><glyph d="M347 641C450 641 477 590 505 551L562 603C530 652 485 696 400 708L415 815H344L330 711C197 703 110 613 110 499C110 408 171 342 262 326L345 311C413 299 454 259 454 197C454 123 390 58 285 58C159 58 126 121 97 171L37 117C68 59 131 5 228 -7L214 -114H285L299 -10C454 -2 531 87 531 205C531 302 471 368 343 390L286 400C222 411 187 446 187 503C187 579 250 641 347 641Z" glyph-name="dollar.tf.ss01" horiz-adv-x="600" /><glyph d="M358 305C418 280 451 249 451 196C451 114 382 60 279 60C201 60 140 99 97 168L40 117C81 52 146 2 234 -9L220 -114H291L305 -9C453 3 528 97 528 197C528 283 481 337 378 381L304 413C239 441 205 469 205 524C205 583 253 641 341 641C416 641 458 605 495 553L552 604C519 651 473 692 407 706L422 815H351L336 711C211 705 128 624 128 519C128 435 179 380 260 346Z" glyph-name="dollar.tf.ss02" horiz-adv-x="600" /><glyph d="M415 815H344L329 711C192 700 110 614 110 496C110 409 171 345 261 326L275 323L238 66C157 76 123 126 97 171L37 117C70 59 132 2 228 -9L213 -114H284L298 -10C463 1 534 96 534 214C534 310 465 368 366 386L355 388L390 636C454 625 485 587 508 554L562 603C533 645 484 696 400 709ZM345 311C414 299 454 265 454 205C454 137 409 78 309 66L344 311ZM187 504C187 571 227 627 319 637L286 400C217 416 187 450 187 504Z" glyph-name="dollar.to" horiz-adv-x="600" /><glyph d="M195 657C195 627 219 603 249 603C279 603 304 627 304 657C304 687 279 712 249 712C219 712 195 687 195 657Z" glyph-name="dotaccent" horiz-adv-x="500" unicode="&#729;" /><glyph d="M195 818C195 788 219 764 249 764C279 764 304 788 304 818C304 848 279 873 249 873C219 873 195 848 195 818Z" glyph-name="dotaccent.cap" horiz-adv-x="500" /><glyph d="M287 603 301 700H212L198 603Z" glyph-name="dotaccent.ss03" horiz-adv-x="500" /><glyph d="M285 772 298 869H209L196 772Z" glyph-name="dotaccent.ss03.cap" horiz-adv-x="500" /><glyph d="M45 0H119L188 490H114Z" glyph-name="dotlessi" horiz-adv-x="230" unicode="&#305;" /><glyph d="M45 0H119L188 490H114Z" glyph-name="dotlessi.ss03" horiz-adv-x="230" /><glyph d="M51 -48C42 -109 24 -137 -38 -137C-49 -137 -82 -136 -82 -136L-91 -203C-91 -203 -66 -205 -40 -205C54 -205 108 -167 123 -60L200 490H127Z" glyph-name="dotlessj" horiz-adv-x="242" unicode="&#567;" /><glyph d="M105 -194 201 490H126L40 -126H-80L-90 -194Z" glyph-name="dotlessj.ss01" horiz-adv-x="243" /><glyph d="M48 -48C39 -109 21 -137 -41 -137C-52 -137 -85 -136 -85 -136L-94 -203C-94 -203 -69 -205 -43 -205C51 -205 105 -167 120 -60L197 490H124Z" glyph-name="dotlessj.ss03" horiz-adv-x="241" /><glyph d="M495 222C495 222 503 257 503 293C503 394 454 502 316 502C158 502 53 361 53 204C53 77 130 -11 262 -11C350 -11 416 25 467 78L422 130C379 82 329 58 271 58C181 58 129 112 129 202C129 208 129 215 130 222ZM308 432C390 432 432 375 430 288H142C165 369 222 432 308 432Z" glyph-name="e" horiz-adv-x="556" unicode="e" /><glyph d="M383 504C383 504 390 529 390 555C390 631 350 711 243 711C122 711 39 609 39 494C39 399 100 334 203 334C272 334 322 364 362 404L323 442C292 409 254 391 210 391C139 391 100 434 104 504ZM236 655C295 655 330 614 325 555H114C131 611 172 655 236 655Z" glyph-name="e.ordn" horiz-adv-x="429" /><glyph d="M189 458C273 458 350 518 350 599C350 664 299 711 225 711C148 711 77 662 65 574L32 342H304L312 397H104L116 482C133 467 156 458 189 458ZM197 514C154 514 128 543 128 576C128 618 166 655 217 655C260 655 286 626 286 592C286 551 248 514 197 514Z" glyph-name="e.ordn.ss01" horiz-adv-x="391" /><glyph d="M255 157C364 157 459 235 459 345C459 433 388 502 294 502C183 502 106 431 90 319L45 0H397L406 67H128L146 194C170 171 208 157 255 157ZM260 226C200 226 164 268 164 317C164 384 222 433 289 433C348 433 384 390 384 341C384 276 330 226 260 226Z" glyph-name="e.ss01" horiz-adv-x="505" /><glyph d="M495 222C495 222 503 257 503 293C503 394 454 502 316 502C158 502 53 361 53 204C53 77 130 -11 262 -11C350 -11 416 25 467 78L422 130C379 82 329 58 271 58C181 58 129 112 129 202C129 208 129 215 130 222ZM308 432C390 432 432 375 430 288H142C165 369 222 432 308 432ZM373 700 264 569H338L470 700Z" glyph-name="eacute" horiz-adv-x="556" unicode="&#233;" /><glyph d="M255 157C364 157 459 235 459 345C459 433 388 502 294 502C183 502 106 431 90 319L45 0H397L406 67H128L146 194C170 171 208 157 255 157ZM260 226C200 226 164 268 164 317C164 384 222 433 289 433C348 433 384 390 384 341C384 276 330 226 260 226ZM351 700 242 569H316L448 700Z" glyph-name="eacute.ss01" horiz-adv-x="505" /><glyph d="M495 222C495 222 503 257 503 293C503 394 454 502 316 502C158 502 53 361 53 204C53 77 130 -11 262 -11C350 -11 416 25 467 78L422 130C379 82 329 58 271 58C181 58 129 112 129 202C129 208 129 215 130 222ZM308 432C390 432 432 375 430 288H142C165 369 222 432 308 432ZM329 558C413 558 471 618 489 700H422C410 654 381 626 338 626C296 626 274 654 276 700H210C204 618 246 558 329 558Z" glyph-name="ebreve" horiz-adv-x="556" unicode="&#277;" /><glyph d="M255 157C364 157 459 235 459 345C459 433 388 502 294 502C183 502 106 431 90 319L45 0H397L406 67H128L146 194C170 171 208 157 255 157ZM260 226C200 226 164 268 164 317C164 384 222 433 289 433C348 433 384 390 384 341C384 276 330 226 260 226ZM307 558C391 558 449 618 467 700H400C388 654 359 626 316 626C274 626 252 654 254 700H188C182 618 224 558 307 558Z" glyph-name="ebreve.ss01" horiz-adv-x="505" /><glyph d="M495 222C495 222 503 257 503 293C503 394 454 502 316 502C158 502 53 361 53 204C53 77 130 -11 262 -11C350 -11 416 25 467 78L422 130C379 82 329 58 271 58C181 58 129 112 129 202C129 208 129 215 130 222ZM308 432C390 432 432 375 430 288H142C165 369 222 432 308 432ZM385 569 500 700H424L340 618L281 700H209L288 569Z" glyph-name="ecaron" horiz-adv-x="556" unicode="&#283;" /><glyph d="M255 157C364 157 459 235 459 345C459 433 388 502 294 502C183 502 106 431 90 319L45 0H397L406 67H128L146 194C170 171 208 157 255 157ZM260 226C200 226 164 268 164 317C164 384 222 433 289 433C348 433 384 390 384 341C384 276 330 226 260 226ZM363 569 478 700H402L318 618L259 700H187L266 569Z" glyph-name="ecaron.ss01" horiz-adv-x="505" /><glyph d="M495 222C495 222 503 257 503 293C503 394 454 502 316 502C158 502 53 361 53 204C53 77 130 -11 262 -11C350 -11 416 25 467 78L422 130C379 82 329 58 271 58C181 58 129 112 129 202C129 208 129 215 130 222ZM308 432C390 432 432 375 430 288H142C165 369 222 432 308 432ZM302 700 187 569H263L346 651L406 569H478L399 700Z" glyph-name="ecircumflex" horiz-adv-x="556" unicode="&#234;" /><glyph d="M255 157C364 157 459 235 459 345C459 433 388 502 294 502C183 502 106 431 90 319L45 0H397L406 67H128L146 194C170 171 208 157 255 157ZM260 226C200 226 164 268 164 317C164 384 222 433 289 433C348 433 384 390 384 341C384 276 330 226 260 226ZM280 700 165 569H241L324 651L384 569H456L377 700Z" glyph-name="ecircumflex.ss01" horiz-adv-x="505" /><glyph d="M495 222C495 222 503 257 503 293C503 394 454 502 316 502C158 502 53 361 53 204C53 77 130 -11 262 -11C350 -11 416 25 467 78L422 130C379 82 329 58 271 58C181 58 129 112 129 202C129 208 129 215 130 222ZM308 432C390 432 432 375 430 288H142C165 369 222 432 308 432ZM204 653C204 624 226 602 255 602C284 602 307 624 307 653C307 682 284 705 255 705C226 705 204 682 204 653ZM385 653C385 624 407 602 436 602C465 602 488 624 488 653C488 682 465 705 436 705C407 705 385 682 385 653Z" glyph-name="edieresis" horiz-adv-x="556" unicode="&#235;" /><glyph d="M255 157C364 157 459 235 459 345C459 433 388 502 294 502C183 502 106 431 90 319L45 0H397L406 67H128L146 194C170 171 208 157 255 157ZM260 226C200 226 164 268 164 317C164 384 222 433 289 433C348 433 384 390 384 341C384 276 330 226 260 226ZM182 653C182 624 204 602 233 602C262 602 285 624 285 653C285 682 262 705 233 705C204 705 182 682 182 653ZM363 653C363 624 385 602 414 602C443 602 466 624 466 653C466 682 443 705 414 705C385 705 363 682 363 653Z" glyph-name="edieresis.ss01" horiz-adv-x="505" /><glyph d="M495 222C495 222 503 257 503 293C503 394 454 502 316 502C158 502 53 361 53 204C53 77 130 -11 262 -11C350 -11 416 25 467 78L422 130C379 82 329 58 271 58C181 58 129 112 129 202C129 208 129 215 130 222ZM308 432C390 432 432 375 430 288H142C165 369 222 432 308 432ZM292 603 306 700H221L207 603ZM465 603 479 700H394L380 603Z" glyph-name="edieresis.ss03" horiz-adv-x="556" /><glyph d="M495 222C495 222 503 257 503 293C503 394 454 502 316 502C158 502 53 361 53 204C53 77 130 -11 262 -11C350 -11 416 25 467 78L422 130C379 82 329 58 271 58C181 58 129 112 129 202C129 208 129 215 130 222ZM308 432C390 432 432 375 430 288H142C165 369 222 432 308 432ZM294 657C294 627 318 603 348 603C378 603 403 627 403 657C403 687 378 712 348 712C318 712 294 687 294 657Z" glyph-name="edotaccent" horiz-adv-x="556" unicode="&#279;" /><glyph d="M255 157C364 157 459 235 459 345C459 433 388 502 294 502C183 502 106 431 90 319L45 0H397L406 67H128L146 194C170 171 208 157 255 157ZM260 226C200 226 164 268 164 317C164 384 222 433 289 433C348 433 384 390 384 341C384 276 330 226 260 226ZM272 657C272 627 296 603 326 603C356 603 381 627 381 657C381 687 356 712 326 712C296 712 272 687 272 657Z" glyph-name="edotaccent.ss01" horiz-adv-x="505" /><glyph d="M495 222C495 222 503 257 503 293C503 394 454 502 316 502C158 502 53 361 53 204C53 77 130 -11 262 -11C350 -11 416 25 467 78L422 130C379 82 329 58 271 58C181 58 129 112 129 202C129 208 129 215 130 222ZM308 432C390 432 432 375 430 288H142C165 369 222 432 308 432ZM378 603 392 700H303L289 603Z" glyph-name="edotaccent.ss03" horiz-adv-x="556" /><glyph d="M495 222C495 222 503 257 503 293C503 394 454 502 316 502C158 502 53 361 53 204C53 77 130 -11 262 -11C350 -11 416 25 467 78L422 130C379 82 329 58 271 58C181 58 129 112 129 202C129 208 129 215 130 222ZM308 432C390 432 432 375 430 288H142C165 369 222 432 308 432ZM210 700 306 569H380L307 700Z" glyph-name="egrave" horiz-adv-x="556" unicode="&#232;" /><glyph d="M255 157C364 157 459 235 459 345C459 433 388 502 294 502C183 502 106 431 90 319L45 0H397L406 67H128L146 194C170 171 208 157 255 157ZM260 226C200 226 164 268 164 317C164 384 222 433 289 433C348 433 384 390 384 341C384 276 330 226 260 226ZM171 700 267 569H341L268 700Z" glyph-name="egrave.ss01" horiz-adv-x="505" /><glyph d="M235 -11C369 -11 491 77 491 209C491 291 431 350 391 361C433 377 520 434 520 541C520 649 434 712 336 712C221 712 98 630 98 498C98 420 152 375 183 361C133 348 35 274 35 166C35 57 122 -11 235 -11ZM282 322C357 322 414 280 414 207C414 114 332 60 245 60C172 60 113 101 113 175C113 267 190 322 282 322ZM327 641C379 641 442 609 442 533C442 445 372 394 292 394C225 394 175 432 175 499C175 600 265 641 327 641Z" glyph-name="eight" horiz-adv-x="554" unicode="8" /><glyph d="M235 -11C369 -11 491 77 491 209C491 291 431 350 391 361C433 377 520 434 520 541C520 649 434 712 336 712C221 712 98 630 98 498C98 420 152 375 183 361C133 348 35 274 35 166C35 57 122 -11 235 -11ZM282 322C357 322 414 280 414 207C414 114 332 60 245 60C172 60 113 101 113 175C113 267 190 322 282 322ZM327 641C379 641 442 609 442 533C442 445 372 394 292 394C225 394 175 432 175 499C175 600 265 641 327 641Z" glyph-name="eight.osf" horiz-adv-x="554" /><glyph d="M225 -11C368 -11 473 90 473 211C473 282 436 338 397 362C447 392 502 453 502 536C502 630 437 712 327 712C198 712 98 616 98 503C98 443 128 396 161 372C103 342 35 270 35 174C35 75 107 -11 225 -11ZM273 330C349 330 397 277 397 210C397 126 326 59 235 59C159 59 112 109 112 176C112 260 183 330 273 330ZM317 642C378 642 426 600 426 537C426 463 367 400 283 400C215 400 175 446 175 506C175 587 245 642 317 642Z" glyph-name="eight.osf.ss01" horiz-adv-x="536" /><glyph d="M235 -11C373 -11 496 77 496 225C496 301 457 359 406 389C457 427 497 478 497 547C497 641 424 712 334 712C224 712 126 632 126 517C126 469 149 428 179 399C103 361 35 286 35 181C35 70 120 -11 235 -11ZM287 357C364 357 419 301 419 225C419 124 339 59 245 59C168 59 112 107 112 187C112 284 194 357 287 357ZM326 642C378 642 425 605 425 544C425 471 359 426 297 426C244 426 198 461 198 518C198 594 264 642 326 642Z" glyph-name="eight.osf.ss02" horiz-adv-x="531" /><glyph d="M235 -11C369 -11 491 77 491 209C491 291 431 350 391 361C433 377 520 434 520 541C520 649 434 712 336 712C221 712 98 630 98 498C98 420 152 375 183 361C133 348 35 274 35 166C35 57 122 -11 235 -11ZM282 322C357 322 414 280 414 207C414 114 332 60 245 60C172 60 113 101 113 175C113 267 190 322 282 322ZM327 641C379 641 442 609 442 533C442 445 372 394 292 394C225 394 175 432 175 499C175 600 265 641 327 641Z" glyph-name="eight.osf.ss03" horiz-adv-x="554" /><glyph d="M225 -11C368 -11 473 90 473 211C473 282 436 338 397 362C447 392 502 453 502 536C502 630 437 712 327 712C198 712 98 616 98 503C98 443 128 396 161 372C103 342 35 270 35 174C35 75 107 -11 225 -11ZM273 330C349 330 397 277 397 210C397 126 326 59 235 59C159 59 112 109 112 176C112 260 183 330 273 330ZM317 642C378 642 426 600 426 537C426 463 367 400 283 400C215 400 175 446 175 506C175 587 245 642 317 642Z" glyph-name="eight.ss01" horiz-adv-x="536" /><glyph d="M225 -11C363 -11 486 77 486 225C486 301 447 359 396 389C447 427 487 478 487 547C487 641 414 712 324 712C214 712 116 632 116 517C116 469 139 428 169 399C93 361 25 286 25 181C25 70 110 -11 225 -11ZM277 357C354 357 409 301 409 225C409 124 329 59 235 59C158 59 102 107 102 187C102 284 184 357 277 357ZM316 642C368 642 415 605 415 544C415 471 349 426 287 426C234 426 188 461 188 518C188 594 254 642 316 642Z" glyph-name="eight.ss02" horiz-adv-x="531" /><glyph d="M235 -11C369 -11 491 77 491 209C491 291 431 350 391 361C433 377 520 434 520 541C520 649 434 712 336 712C221 712 98 630 98 498C98 420 152 375 183 361C133 348 35 274 35 166C35 57 122 -11 235 -11ZM282 322C357 322 414 280 414 207C414 114 332 60 245 60C172 60 113 101 113 175C113 267 190 322 282 322ZM327 641C379 641 442 609 442 533C442 445 372 394 292 394C225 394 175 432 175 499C175 600 265 641 327 641Z" glyph-name="eight.ss03" horiz-adv-x="554" /><glyph d="M257 -11C391 -11 513 77 513 209C513 291 453 350 413 361C455 377 542 434 542 541C542 649 456 712 358 712C243 712 120 630 120 498C120 420 174 375 205 361C155 348 57 274 57 166C57 57 144 -11 257 -11ZM304 322C379 322 436 280 436 207C436 114 354 60 267 60C194 60 135 101 135 175C135 267 212 322 304 322ZM349 641C401 641 464 609 464 533C464 445 394 394 314 394C247 394 197 432 197 499C197 600 287 641 349 641Z" glyph-name="eight.tf" horiz-adv-x="600" /><glyph d="M256 -11C399 -11 504 90 504 211C504 282 467 338 428 362C478 392 533 453 533 536C533 630 468 712 358 712C229 712 129 616 129 503C129 443 159 396 192 372C134 342 66 270 66 174C66 75 138 -11 256 -11ZM304 330C380 330 428 277 428 210C428 126 357 59 266 59C190 59 143 109 143 176C143 260 214 330 304 330ZM348 642C409 642 457 600 457 537C457 463 398 400 314 400C246 400 206 446 206 506C206 587 276 642 348 642Z" glyph-name="eight.tf.ss01" horiz-adv-x="600" /><glyph d="M269 -11C407 -11 530 77 530 225C530 301 491 359 440 389C491 427 531 478 531 547C531 641 458 712 368 712C258 712 160 632 160 517C160 469 183 428 213 399C137 361 69 286 69 181C69 70 154 -11 269 -11ZM321 357C398 357 453 301 453 225C453 124 373 59 279 59C202 59 146 107 146 187C146 284 228 357 321 357ZM360 642C412 642 459 605 459 544C459 471 393 426 331 426C278 426 232 461 232 518C232 594 298 642 360 642Z" glyph-name="eight.tf.ss02" horiz-adv-x="600" /><glyph d="M257 -11C391 -11 513 77 513 209C513 291 453 350 413 361C455 377 542 434 542 541C542 649 456 712 358 712C243 712 120 630 120 498C120 420 174 375 205 361C155 348 57 274 57 166C57 57 144 -11 257 -11ZM304 322C379 322 436 280 436 207C436 114 354 60 267 60C194 60 135 101 135 175C135 267 212 322 304 322ZM349 641C401 641 464 609 464 533C464 445 394 394 314 394C247 394 197 432 197 499C197 600 287 641 349 641Z" glyph-name="eight.tf.ss03" horiz-adv-x="600" /><glyph d="M257 -11C391 -11 513 77 513 209C513 291 453 350 413 361C455 377 542 434 542 541C542 649 456 712 358 712C243 712 120 630 120 498C120 420 174 375 205 361C155 348 57 274 57 166C57 57 144 -11 257 -11ZM304 322C379 322 436 280 436 207C436 114 354 60 267 60C194 60 135 101 135 175C135 267 212 322 304 322ZM349 641C401 641 464 609 464 533C464 445 394 394 314 394C247 394 197 432 197 499C197 600 287 641 349 641Z" glyph-name="eight.to" horiz-adv-x="600" /><glyph d="M256 -11C399 -11 504 90 504 211C504 282 467 338 428 362C478 392 533 453 533 536C533 630 468 712 358 712C229 712 129 616 129 503C129 443 159 396 192 372C134 342 66 270 66 174C66 75 138 -11 256 -11ZM304 330C380 330 428 277 428 210C428 126 357 59 266 59C190 59 143 109 143 176C143 260 214 330 304 330ZM348 642C409 642 457 600 457 537C457 463 398 400 314 400C246 400 206 446 206 506C206 587 276 642 348 642Z" glyph-name="eight.to.ss01" horiz-adv-x="600" /><glyph d="M269 -11C407 -11 530 77 530 225C530 301 491 359 440 389C491 427 531 478 531 547C531 641 458 712 368 712C258 712 160 632 160 517C160 469 183 428 213 399C137 361 69 286 69 181C69 70 154 -11 269 -11ZM321 357C398 357 453 301 453 225C453 124 373 59 279 59C202 59 146 107 146 187C146 284 228 357 321 357ZM360 642C412 642 459 605 459 544C459 471 393 426 331 426C278 426 232 461 232 518C232 594 298 642 360 642Z" glyph-name="eight.to.ss02" horiz-adv-x="600" /><glyph d="M257 -11C391 -11 513 77 513 209C513 291 453 350 413 361C455 377 542 434 542 541C542 649 456 712 358 712C243 712 120 630 120 498C120 420 174 375 205 361C155 348 57 274 57 166C57 57 144 -11 257 -11ZM304 322C379 322 436 280 436 207C436 114 354 60 267 60C194 60 135 101 135 175C135 267 212 322 304 322ZM349 641C401 641 464 609 464 533C464 445 394 394 314 394C247 394 197 432 197 499C197 600 287 641 349 641Z" glyph-name="eight.to.ss03" horiz-adv-x="600" /><glyph d="M61 48C61 15 87 -11 120 -11C153 -11 180 15 180 48C180 81 153 108 120 108C87 108 61 81 61 48ZM317 48C317 15 343 -11 376 -11C409 -11 436 15 436 48C436 81 409 108 376 108C343 108 317 81 317 48ZM574 48C574 15 600 -11 633 -11C666 -11 693 15 693 48C693 81 666 108 633 108C600 108 574 81 574 48Z" glyph-name="ellipsis" horiz-adv-x="769" unicode="&#8230;" /><glyph d="M45 51C45 16 72 -11 107 -11C142 -11 170 16 170 51C170 86 142 114 107 114C72 114 45 86 45 51ZM300 51C300 16 327 -11 362 -11C397 -11 425 16 425 51C425 86 397 114 362 114C327 114 300 86 300 51ZM556 51C556 16 583 -11 618 -11C653 -11 681 16 681 51C681 86 653 114 618 114C583 114 556 86 556 51Z" glyph-name="ellipsis.ss01" horiz-adv-x="769" /><glyph d="M31 0H132L146 103H45ZM264 0H365L379 103H278ZM498 0H599L613 103H512Z" glyph-name="ellipsis.ss03" horiz-adv-x="701" /><glyph d="M495 222C495 222 503 257 503 293C503 394 454 502 316 502C158 502 53 361 53 204C53 77 130 -11 262 -11C350 -11 416 25 467 78L422 130C379 82 329 58 271 58C181 58 129 112 129 202C129 208 129 215 130 222ZM308 432C390 432 432 375 430 288H142C165 369 222 432 308 432ZM237 700 227 632H455L465 700Z" glyph-name="emacron" horiz-adv-x="556" unicode="&#275;" /><glyph d="M255 157C364 157 459 235 459 345C459 433 388 502 294 502C183 502 106 431 90 319L45 0H397L406 67H128L146 194C170 171 208 157 255 157ZM260 226C200 226 164 268 164 317C164 384 222 433 289 433C348 433 384 390 384 341C384 276 330 226 260 226ZM215 700 205 632H433L443 700Z" glyph-name="emacron.ss01" horiz-adv-x="505" /><glyph d="M61 226H762L772 294H71Z" glyph-name="emdash" horiz-adv-x="855" unicode="&#8212;" /><glyph d="M61 316H762L772 384H71Z" glyph-name="emdash.cap" horiz-adv-x="855" /><glyph d="M67 226H489L499 294H77Z" glyph-name="endash" horiz-adv-x="576" unicode="&#8211;" /><glyph d="M67 316H489L499 384H77Z" glyph-name="endash.cap" horiz-adv-x="576" /><glyph d="M186 490H114L45 0H119L153 243C169 358 230 433 328 433C396 433 435 394 435 323C435 313 435 302 433 291L385 -48C376 -109 358 -137 296 -137C285 -137 252 -136 252 -136L243 -203C243 -203 268 -205 294 -205C388 -205 444 -167 459 -60L506 280C509 298 510 314 510 330C510 437 442 502 333 502C275 502 211 473 178 431Z" glyph-name="eng" horiz-adv-x="570" unicode="&#331;" /><glyph d="M114 490 45 0H119L178 422H417L340 -126H220L210 -194H405L501 490Z" glyph-name="eng.ss01" horiz-adv-x="543" /><glyph d="M319 -125H314C273 -125 259 -110 259 -90C259 -66 269 -47 332 -3C386 10 430 40 467 78L422 130C379 82 329 58 271 58C181 58 129 112 129 202C129 208 129 215 130 222H495C495 222 503 257 503 293C503 394 454 502 316 502C158 502 53 361 53 204C53 82 124 -4 246 -10C212 -36 186 -73 186 -108C186 -158 217 -184 275 -184C290 -184 303 -182 311 -180ZM308 432C390 432 432 375 430 288H142C165 369 222 432 308 432Z" glyph-name="eogonek" horiz-adv-x="556" unicode="&#281;" /><glyph d="M380 -125H375C334 -125 320 -110 320 -90C320 -66 331 -46 397 0L406 67H128L146 194C170 171 208 157 255 157C364 157 459 235 459 345C459 433 388 502 294 502C183 502 106 431 90 319L45 0H323C281 -26 247 -67 247 -108C247 -158 278 -184 336 -184C351 -184 364 -182 372 -180ZM260 226C200 226 164 268 164 317C164 384 222 433 289 433C348 433 384 390 384 341C384 276 330 226 260 226Z" glyph-name="eogonek.ss01" horiz-adv-x="505" /><glyph d="M78 320H568L578 388H88ZM52 137H542L552 205H62Z" glyph-name="equal" horiz-adv-x="630" unicode="=" /><glyph d="M212 512 336 572 413 434C391 447 357 454 321 454C186 454 51 360 51 198C51 69 151 -11 269 -11C426 -11 543 101 543 252C543 320 523 380 487 445L398 606L472 644L482 712L370 655L345 700H262L308 621L222 580ZM464 242C464 132 372 60 274 60C191 60 129 115 129 200C129 310 218 382 317 382C400 382 464 327 464 242Z" glyph-name="eth" horiz-adv-x="599" unicode="&#240;" /><glyph d="M87 211H163L232 700H156ZM43 48C43 15 69 -11 102 -11C135 -11 162 15 162 48C162 81 135 108 102 108C69 108 43 81 43 48Z" glyph-name="exclam" horiz-adv-x="291" unicode="!" /><glyph d="M112 228H189L256 700H179ZM64 51C64 16 91 -11 126 -11C161 -11 189 16 189 51C189 86 161 114 126 114C91 114 64 86 64 51Z" glyph-name="exclam.ss01" horiz-adv-x="308" /><glyph d="M99 210H175L244 700H168ZM60 0H157L171 103H74Z" glyph-name="exclam.ss03" horiz-adv-x="291" /><glyph d="M198 279H121L55 -194H132ZM236 455C236 481 217 502 190 502C156 502 127 475 127 441C127 414 146 393 174 393C207 393 236 421 236 455Z" glyph-name="exclamdown" horiz-adv-x="291" unicode="&#161;" /><glyph d="M204 489H128L59 0H135ZM248 652C248 685 222 711 189 711C156 711 129 685 129 652C129 619 156 592 189 592C222 592 248 619 248 652Z" glyph-name="exclamdown.cap" horiz-adv-x="291" /><glyph d="M208 472H131L64 0H141ZM256 649C256 684 229 711 194 711C159 711 131 684 131 649C131 614 159 586 194 586C229 586 256 614 256 649Z" glyph-name="exclamdown.cap.ss01" horiz-adv-x="308" /><glyph d="M205 490H129L60 0H136ZM244 700H147L133 597H230Z" glyph-name="exclamdown.cap.ss03" horiz-adv-x="291" /><glyph d="M195 262H118L54 -194H131ZM120 440C120 405 147 378 182 378C217 378 245 405 245 440C245 475 217 503 182 503C147 503 120 475 120 440Z" glyph-name="exclamdown.ss01" horiz-adv-x="308" /><glyph d="M43 -194H119L185 279H109ZM116 388H213L227 490H130Z" glyph-name="exclamdown.ss03" horiz-adv-x="326" /><glyph d="M340 712C229 712 161 662 144 538L137 490H57L47 422H127L68 0H142L201 422H315L325 490H211L218 538C228 609 257 644 332 644H358L367 711C367 711 357 712 340 712Z" glyph-name="f" horiz-adv-x="315" unicode="f" /><glyph d="M47 422H127L68 0H141L201 422H433L442 490H211L220 555C227 604 254 643 307 643C350 643 384 610 379 561L378 551H450L451 561C459 644 400 712 313 712C221 712 159 649 147 562L137 490H57Z" glyph-name="f.ss01" horiz-adv-x="418" /><glyph d="M867 281C867 404 783 502 662 502C594 502 538 476 498 435L535 700H339C228 700 159 651 142 527L137 490H57L47 422H127L68 0H142L201 422H315L325 490H211L216 527C226 598 255 632 331 632H451L362 0H434L444 72C471 23 526 -11 594 -11C751 -11 867 114 867 281ZM790 275C790 157 715 58 602 58C515 58 466 126 466 216C466 334 543 432 655 432C743 432 790 364 790 275Z" glyph-name="f_b" horiz-adv-x="921" /><glyph d="M867 281C867 404 783 502 662 502C594 502 538 476 498 435L535 700H461L448 609C434 668 382 712 313 712C221 712 159 649 147 562L137 490H57L47 422H127L68 0H141L201 422H421L362 0H434L444 72C471 23 526 -11 594 -11C751 -11 867 114 867 281ZM790 275C790 157 715 58 602 58C515 58 466 126 466 216C466 334 543 432 655 432C743 432 790 364 790 275ZM220 555C227 604 254 643 307 643C350 643 384 610 379 561L378 551H439L431 490H211Z" glyph-name="f_b.ss01" horiz-adv-x="921" /><glyph d="M634 712C523 712 455 662 438 538L431 490H211L218 538C228 609 257 644 332 644H358L367 711C367 711 357 712 340 712C229 712 161 662 144 538L137 490H57L47 422H127L68 0H142L201 422H421L362 0H436L495 422H609L619 490H505L512 538C522 609 551 644 626 644H652L661 711C661 711 651 712 634 712Z" glyph-name="f_f" horiz-adv-x="609" unicode="&#64256;" /><glyph d="M47 422H127L68 0H141L201 422H421L362 0H435L495 422H727L736 490H505L514 555C521 604 548 643 601 643C644 643 678 610 673 561L672 551H744L745 561C753 644 694 712 607 712C529 712 473 667 450 600C439 664 385 712 313 712C221 712 159 649 147 562L137 490H57ZM220 555C227 604 254 643 307 643C350 643 384 610 379 561L378 551H439L431 490H211Z" glyph-name="f_f.ss01" horiz-adv-x="712" /><glyph d="M1161 281C1161 404 1077 502 956 502C888 502 832 476 792 435L829 700H633C522 700 453 651 436 527L431 490H211L218 538C228 609 257 644 332 644H358L367 711C367 711 357 712 340 712C229 712 161 662 144 538L137 490H57L47 422H127L68 0H142L201 422H421L362 0H436L495 422H609L619 490H505L510 527C520 598 549 632 625 632H745L656 0H728L738 72C765 23 820 -11 888 -11C1045 -11 1161 114 1161 281ZM1084 275C1084 157 1009 58 896 58C809 58 760 126 760 216C760 334 837 432 949 432C1037 432 1084 364 1084 275Z" glyph-name="f_f_b" horiz-adv-x="1215" /><glyph d="M1161 281C1161 404 1077 502 956 502C888 502 832 476 792 435L829 700H755L742 609C728 668 676 712 607 712C529 712 473 667 450 600C439 664 385 712 313 712C221 712 159 649 147 562L137 490H57L47 422H127L68 0H141L201 422H421L362 0H435L495 422H715L656 0H728L738 72C765 23 820 -11 888 -11C1045 -11 1161 114 1161 281ZM1084 275C1084 157 1009 58 896 58C809 58 760 126 760 216C760 334 837 432 949 432C1037 432 1084 364 1084 275ZM220 555C227 604 254 643 307 643C350 643 384 610 379 561L378 551H439L431 490H211ZM514 555C521 604 548 643 601 643C644 643 678 610 673 561L672 551H733L725 490H505Z" glyph-name="f_f_b.ss01" horiz-adv-x="1215" /><glyph d="M829 700H633C522 700 453 651 436 527L431 490H211L218 538C228 609 257 644 332 644H358L367 711C367 711 357 712 340 712C229 712 161 662 144 538L137 490H57L47 422H127L68 0H142L201 422H421L362 0H436L495 422H609L619 490H505L510 527C520 598 549 632 625 632H745L656 0H730L764 243C780 358 841 433 939 433C1007 433 1046 394 1046 323C1046 313 1046 302 1044 291L1003 0H1078L1117 280C1120 298 1121 314 1121 330C1121 437 1053 502 944 502C886 502 825 473 792 436Z" glyph-name="f_f_h" horiz-adv-x="1181" /><glyph d="M47 422H127L68 0H141L201 422H421L362 0H435L495 422H715L656 0H730L789 422H1028L969 0H1043L1112 490H799L829 700H755L742 609C728 668 676 712 607 712C529 712 473 667 450 600C439 664 385 712 313 712C221 712 159 649 147 562L137 490H57ZM220 555C227 604 254 643 307 643C350 643 384 610 379 561L378 551H439L431 490H211ZM514 555C521 604 548 643 601 643C644 643 678 610 673 561L672 551H733L725 490H505Z" glyph-name="f_f_h.ss01" horiz-adv-x="1154" /><glyph d="M340 712C229 712 161 662 144 538L137 490H57L47 422H127L68 0H142L201 422H421L362 0H436L495 422H715L656 0H730L799 490H505L512 538C522 609 551 644 626 644H652L661 711C661 711 651 712 634 712C523 712 455 662 438 538L431 490H211L218 538C228 609 257 644 332 644H358L367 711C367 711 357 712 340 712ZM730 657C730 627 754 603 784 603C814 603 839 627 839 657C839 687 814 712 784 712C754 712 730 687 730 657Z" glyph-name="f_f_i" horiz-adv-x="841" unicode="&#64259;" /><glyph d="M657 0H731L800 490H505L514 555C521 604 548 643 601 643C644 643 678 610 673 561L672 551H744L745 561C753 644 694 712 607 712C529 712 473 667 450 600C439 664 385 712 313 712C221 712 159 649 147 562L137 490H57L47 422H127L68 0H141L201 422H421L362 0H435L495 422H716ZM220 555C227 604 254 643 307 643C350 643 384 610 379 561L378 551H439L431 490H211Z" glyph-name="f_f_i.ss01" horiz-adv-x="842" /><glyph d="M340 712C229 712 161 662 144 538L137 490H57L47 422H127L68 0H142L201 422H421L362 0H436L495 422H715L656 0H730L799 490H505L512 538C522 609 551 644 626 644H652L661 711C661 711 651 712 634 712C523 712 455 662 438 538L431 490H211L218 538C228 609 257 644 332 644H358L367 711C367 711 357 712 340 712ZM739 603H818L832 700H753Z" glyph-name="f_f_i.ss03" horiz-adv-x="843" /><glyph d="M340 712C229 712 161 662 144 538L137 490H57L47 422H127L68 0H142L201 422H421L362 0H436L495 422H715L649 -48C640 -109 622 -137 560 -137C549 -137 516 -136 516 -136L507 -203C507 -203 532 -205 558 -205C652 -205 706 -167 721 -60L798 490H505L512 538C522 609 551 644 626 644H652L661 711C661 711 651 712 634 712C523 712 455 662 438 538L431 490H211L218 538C228 609 257 644 332 644H358L367 711C367 711 357 712 340 712ZM729 657C729 627 753 603 783 603C813 603 838 627 838 657C838 687 813 712 783 712C753 712 729 687 729 657Z" glyph-name="f_f_j" horiz-adv-x="840" /><glyph d="M201 422H421L362 0H435L495 422H716L640 -126H520L510 -194H705L801 490H505L514 555C521 604 548 643 601 643C644 643 678 610 673 561L672 551H744L745 561C753 644 694 712 607 712C529 712 473 667 450 600C439 664 385 712 313 712C221 712 159 649 147 562L137 490H57L47 422H127L68 0H141ZM220 555C227 604 254 643 307 643C350 643 384 610 379 561L378 551H439L431 490H211Z" glyph-name="f_f_j.ss01" horiz-adv-x="843" /><glyph d="M340 712C229 712 161 662 144 538L137 490H57L47 422H127L68 0H142L201 422H421L362 0H436L495 422H715L649 -48C640 -109 622 -137 560 -137C549 -137 516 -136 516 -136L507 -203C507 -203 532 -205 558 -205C652 -205 706 -167 721 -60L798 490H505L512 538C522 609 551 644 626 644H652L661 711C661 711 651 712 634 712C523 712 455 662 438 538L431 490H211L218 538C228 609 257 644 332 644H358L367 711C367 711 357 712 340 712ZM738 603H817L830 700H751Z" glyph-name="f_f_j.ss03" horiz-adv-x="842" /><glyph d="M656 0H730L749 138L845 228L975 0H1060L900 280L1123 490H1026L766 244L829 700H633C522 700 453 651 436 527L431 490H211L218 538C228 609 257 644 332 644H358L367 711C367 711 357 712 340 712C229 712 161 662 144 538L137 490H57L47 422H127L68 0H142L201 422H421L362 0H436L495 422H609L619 490H505L510 527C520 598 549 632 625 632H745Z" glyph-name="f_f_k" horiz-adv-x="1125" /><glyph d="M47 422H127L68 0H141L201 422H421L362 0H435L495 422H715L656 0H730L759 209H886L978 0H1054L951 245L1114 490H1033L891 278H769L829 700H755L742 609C728 668 676 712 607 712C529 712 473 667 450 600C439 664 385 712 313 712C221 712 159 649 147 562L137 490H57ZM220 555C227 604 254 643 307 643C350 643 384 610 379 561L378 551H439L431 490H211ZM514 555C521 604 548 643 601 643C644 643 678 610 673 561L672 551H733L725 490H505Z" glyph-name="f_f_k.ss01" horiz-adv-x="1136" /><glyph d="M656 0H730L763 235L953 0H1046L839 255L1103 490H1002L770 283L829 700H633C522 700 453 651 436 527L431 490H211L218 538C228 609 257 644 332 644H358L367 711C367 711 357 712 340 712C229 712 161 662 144 538L137 490H57L47 422H127L68 0H142L201 422H421L362 0H436L495 422H609L619 490H505L510 527C520 598 549 632 625 632H745Z" glyph-name="f_f_k.ss02" horiz-adv-x="1098" /><glyph d="M656 0H730L829 700H633C522 700 453 651 436 527L431 490H211L218 538C228 609 257 644 332 644H358L367 711C367 711 357 712 340 712C229 712 161 662 144 538L137 490H57L47 422H127L68 0H142L201 422H421L362 0H436L495 422H609L619 490H505L510 527C520 598 549 632 625 632H745Z" glyph-name="f_f_l" horiz-adv-x="841" unicode="&#64260;" /><glyph d="M47 422H127L68 0H141L201 422H421L362 0H435L495 422H715L656 0H729L828 700H755L742 609C728 668 676 712 607 712C529 712 473 667 450 600C439 664 385 712 313 712C221 712 159 649 147 562L137 490H57ZM220 555C227 604 254 643 307 643C350 643 384 610 379 561L378 551H439L431 490H211ZM514 555C521 604 548 643 601 643C644 643 678 610 673 561L672 551H733L725 490H505Z" glyph-name="f_f_l.ss01" horiz-adv-x="840" /><glyph d="M800 -2C826 -2 844 0 844 0L853 67C853 67 825 66 814 66C750 66 743 96 751 155L789 422H903L913 490H799L818 627H744L725 490H505L512 538C522 609 551 644 626 644H652L661 711C661 711 651 712 634 712C523 712 455 662 438 538L431 490H211L218 538C228 609 257 644 332 644H358L367 711C367 711 357 712 340 712C229 712 161 662 144 538L137 490H57L47 422H127L68 0H142L201 422H421L362 0H436L495 422H715L678 153C664 53 703 -2 800 -2Z" glyph-name="f_f_t" horiz-adv-x="930" /><glyph d="M47 422H127L68 0H141L201 422H421L362 0H435L495 422H725L665 0H870L879 68H747L798 422H934L944 490H807L827 627H754L745 568C749 648 691 712 607 712C529 712 473 667 450 600C439 664 385 712 313 712C221 712 159 649 147 562L137 490H57ZM505 490 514 555C521 604 548 643 601 643C644 643 678 610 673 561L672 551H743L734 490ZM220 555C227 604 254 643 307 643C350 643 384 610 379 561L378 551H439L431 490H211Z" glyph-name="f_f_t.ss01" horiz-adv-x="945" /><glyph d="M535 700H339C228 700 159 651 142 527L137 490H57L47 422H127L68 0H142L201 422H315L325 490H211L216 527C226 598 255 632 331 632H451L362 0H436L470 243C486 358 547 433 645 433C713 433 752 394 752 323C752 313 752 302 750 291L709 0H784L823 280C826 298 827 314 827 330C827 437 759 502 650 502C592 502 531 473 498 436Z" glyph-name="f_h" horiz-adv-x="887" /><glyph d="M535 700H461L448 609C434 668 382 712 313 712C221 712 159 649 147 562L137 490H57L47 422H127L68 0H141L201 422H421L362 0H436L495 422H734L675 0H749L818 490H505ZM220 555C227 604 254 643 307 643C350 643 384 610 379 561L378 551H439L431 490H211Z" glyph-name="f_h.ss01" horiz-adv-x="860" /><glyph d="M355 -48C346 -109 328 -137 266 -137C255 -137 222 -136 222 -136L213 -203C213 -203 238 -205 264 -205C358 -205 412 -167 427 -60L504 490H211L218 538C228 609 257 644 332 644H358L367 711C367 711 357 712 340 712C229 712 161 662 144 538L137 490H57L47 422H127L68 0H142L201 422H421ZM435 657C435 627 459 603 489 603C519 603 544 627 544 657C544 687 519 712 489 712C459 712 435 687 435 657Z" glyph-name="f_j" horiz-adv-x="546" /><glyph d="M410 -194 506 490H211L220 555C227 604 254 643 307 643C350 643 384 610 379 561L378 551H450L451 561C459 644 400 712 313 712C221 712 159 649 147 562L137 490H57L47 422H127L68 0H141L201 422H421L345 -126H225L215 -194Z" glyph-name="f_j.ss01" horiz-adv-x="548" /><glyph d="M355 -48C346 -109 328 -137 266 -137C255 -137 222 -136 222 -136L213 -203C213 -203 238 -205 264 -205C358 -205 412 -167 427 -60L504 490H211L218 538C228 609 257 644 332 644H358L367 711C367 711 357 712 340 712C229 712 161 662 144 538L137 490H57L47 422H127L68 0H142L201 422H421ZM444 603H523L536 700H457Z" glyph-name="f_j.ss03" horiz-adv-x="548" /><glyph d="M362 0H436L455 138L551 228L681 0H766L606 280L829 490H732L472 244L535 700H339C228 700 159 651 142 527L137 490H57L47 422H127L68 0H142L201 422H315L325 490H211L216 527C226 598 255 632 331 632H451Z" glyph-name="f_k" horiz-adv-x="831" /><glyph d="M47 422H127L68 0H141L201 422H421L362 0H436L465 209H592L684 0H760L657 245L820 490H739L597 278H475L535 700H461L448 609C434 668 382 712 313 712C221 712 159 649 147 562L137 490H57ZM220 555C227 604 254 643 307 643C350 643 384 610 379 561L378 551H439L431 490H211Z" glyph-name="f_k.ss01" horiz-adv-x="842" /><glyph d="M362 0H436L469 235L659 0H752L545 255L809 490H708L476 283L535 700H339C228 700 159 651 142 527L137 490H57L47 422H127L68 0H142L201 422H315L325 490H211L216 527C226 598 255 632 331 632H451Z" glyph-name="f_k.ss02" horiz-adv-x="804" /><glyph d="M384 153C370 53 409 -2 506 -2C532 -2 550 0 550 0L559 67C559 67 531 66 520 66C456 66 449 96 457 155L495 422H609L619 490H505L524 627H450L431 490H211L218 538C228 609 257 644 332 644H358L367 711C367 711 357 712 340 712C229 712 161 662 144 538L137 490H57L47 422H127L68 0H142L201 422H421Z" glyph-name="f_t" horiz-adv-x="636" unicode="&#64261;" /><glyph d="M47 422H127L68 0H141L201 422H431L371 0H576L585 68H453L504 422H640L650 490H513L533 627H460L451 568C455 648 397 712 313 712C221 712 159 649 147 562L137 490H57ZM211 490 220 555C227 604 254 643 307 643C350 643 384 610 379 561L378 551H449L440 490Z" glyph-name="f_t.ss01" horiz-adv-x="651" /><glyph d="M362 0H436L505 490H211L218 538C228 609 257 644 333 644C344 644 359 643 359 643L368 711C368 711 358 712 341 712C230 712 161 662 144 538L137 490H57L47 422H127L68 0H142L201 422H421ZM435 651C435 623 455 601 483 601C517 601 548 629 548 663C548 690 527 712 499 712C465 712 435 684 435 651Z" glyph-name="fi" horiz-adv-x="550" unicode="&#64257;" /><glyph d="M363 0H437L506 490H211L220 555C227 604 254 643 307 643C350 643 384 610 379 561L378 551H450L451 561C459 644 400 712 313 712C221 712 159 649 147 562L137 490H57L47 422H127L68 0H141L201 422H422Z" glyph-name="fi.ss01" horiz-adv-x="548" /><glyph d="M362 0H436L505 490H211L218 538C228 609 257 644 332 644H358L367 711C367 711 357 712 340 712C229 712 161 662 144 538L137 490H57L47 422H127L68 0H142L201 422H421ZM445 603H524L538 700H459Z" glyph-name="fi.ss03" horiz-adv-x="549" /><glyph d="M429 240C429 129 336 60 237 60C163 60 113 95 79 147L20 96C65 31 132 -11 223 -11C393 -11 506 113 506 250C506 377 416 445 310 445C245 445 189 420 160 392L204 628H509L519 700H145L71 296H140C168 336 229 373 290 373C370 373 429 325 429 240Z" glyph-name="five" horiz-adv-x="552" unicode="5" /><glyph d="M429 87C429 -24 336 -93 237 -93C163 -93 113 -58 79 -6L20 -57C65 -122 132 -164 223 -164C393 -164 506 -40 506 97C506 224 416 292 310 292C245 292 189 267 160 239L204 475H509L519 547H145L71 143H140C168 183 229 220 290 220C370 220 429 172 429 87Z" glyph-name="five.osf" horiz-adv-x="552" /><glyph d="M416 90C416 -14 335 -93 227 -93C149 -93 107 -53 79 -3L20 -53C51 -106 111 -164 214 -164C393 -164 493 -43 493 92C493 221 397 297 294 297C238 297 184 278 144 244L177 475H497L507 547H111L53 134H125C152 184 206 225 282 225C360 225 416 167 416 90Z" glyph-name="five.osf.ss01" horiz-adv-x="540" /><glyph d="M430 91C430 -15 344 -93 232 -93C159 -93 109 -57 77 0L20 -48C50 -106 126 -164 224 -164C401 -164 508 -45 508 97C508 226 405 297 303 297C255 297 215 287 182 263L266 475H497L507 547H219L65 154L130 134C157 184 215 225 290 225C369 225 430 172 430 91Z" glyph-name="five.osf.ss02" horiz-adv-x="541" /><glyph d="M408 87C408 -22 332 -93 230 -93C162 -93 105 -55 98 13H20C27 -89 111 -164 222 -164C396 -164 485 -46 485 88C485 215 392 292 284 292C219 292 168 267 139 239L186 475H488L498 547H128L50 143H119C147 183 208 220 269 220C349 220 408 172 408 87Z" glyph-name="five.osf.ss03" horiz-adv-x="531" /><glyph d="M416 243C416 139 335 60 227 60C149 60 107 100 79 150L20 100C51 47 111 -11 214 -11C393 -11 493 110 493 245C493 374 397 450 294 450C238 450 184 431 144 397L177 628H497L507 700H111L53 287H125C152 337 206 378 282 378C360 378 416 320 416 243Z" glyph-name="five.ss01" horiz-adv-x="540" /><glyph d="M416 244C416 138 330 60 218 60C145 60 95 96 63 153L6 105C36 47 112 -11 210 -11C387 -11 494 108 494 250C494 379 391 450 289 450C241 450 201 440 168 416L252 628H483L493 700H205L51 307L116 287C143 337 201 378 276 378C355 378 416 325 416 244Z" glyph-name="five.ss02" horiz-adv-x="541" /><glyph d="M423 240C423 131 347 60 245 60C177 60 120 98 113 166H35C42 64 126 -11 237 -11C411 -11 500 107 500 241C500 368 407 445 299 445C234 445 183 420 154 392L201 628H503L513 700H143L65 296H134C162 336 223 373 284 373C364 373 423 325 423 240Z" glyph-name="five.ss03" horiz-adv-x="531" /><glyph d="M449 240C449 129 356 60 257 60C183 60 133 95 99 147L40 96C85 31 152 -11 243 -11C413 -11 526 113 526 250C526 377 436 445 330 445C265 445 209 420 180 392L224 628H529L539 700H165L91 296H160C188 336 249 373 310 373C390 373 449 325 449 240Z" glyph-name="five.tf" horiz-adv-x="600" /><glyph d="M452 243C452 139 371 60 263 60C185 60 143 100 115 150L56 100C87 47 147 -11 250 -11C429 -11 529 110 529 245C529 374 433 450 330 450C274 450 220 431 180 397L213 628H533L543 700H147L89 287H161C188 337 242 378 318 378C396 378 452 320 452 243Z" glyph-name="five.tf.ss01" horiz-adv-x="600" /><glyph d="M446 244C446 138 360 60 248 60C175 60 125 96 93 153L36 105C66 47 142 -11 240 -11C417 -11 524 108 524 250C524 379 421 450 319 450C271 450 231 440 198 416L282 628H513L523 700H235L81 307L146 287C173 337 231 378 306 378C385 378 446 325 446 244Z" glyph-name="five.tf.ss02" horiz-adv-x="600" /><glyph d="M449 240C449 131 373 60 271 60C203 60 146 98 139 166H61C68 64 152 -11 263 -11C437 -11 526 107 526 241C526 368 433 445 325 445C260 445 209 420 180 392L227 628H529L539 700H169L91 296H160C188 336 249 373 310 373C390 373 449 325 449 240Z" glyph-name="five.tf.ss03" horiz-adv-x="600" /><glyph d="M449 87C449 -24 356 -93 257 -93C183 -93 133 -58 99 -6L40 -57C85 -122 152 -164 243 -164C413 -164 526 -40 526 97C526 224 436 292 330 292C265 292 209 267 180 239L224 475H529L539 547H165L91 143H160C188 183 249 220 310 220C390 220 449 172 449 87Z" glyph-name="five.to" horiz-adv-x="600" /><glyph d="M446 90C446 -14 365 -93 257 -93C179 -93 137 -53 109 -3L50 -53C81 -106 141 -164 244 -164C423 -164 523 -43 523 92C523 221 427 297 324 297C268 297 214 278 174 244L207 475H527L537 547H141L83 134H155C182 184 236 225 312 225C390 225 446 167 446 90Z" glyph-name="five.to.ss01" horiz-adv-x="600" /><glyph d="M446 91C446 -15 360 -93 248 -93C175 -93 125 -57 93 0L36 -48C66 -106 142 -164 240 -164C417 -164 524 -45 524 97C524 226 421 297 319 297C271 297 231 287 198 263L282 475H513L523 547H235L81 154L146 134C173 184 231 225 306 225C385 225 446 172 446 91Z" glyph-name="five.to.ss02" horiz-adv-x="600" /><glyph d="M449 87C449 -22 373 -93 271 -93C203 -93 146 -55 139 13H61C68 -89 152 -164 263 -164C437 -164 526 -46 526 88C526 215 433 292 325 292C260 292 209 267 180 239L227 475H529L539 547H169L91 143H160C188 183 249 220 310 220C390 220 449 172 449 87Z" glyph-name="five.to.ss03" horiz-adv-x="600" /><glyph d="M339 700C228 700 159 651 142 527L137 490H57L47 422H127L68 0H142L201 422H315L325 490H211L216 527C226 598 255 632 331 632H452L363 0H437L535 700Z" glyph-name="fl" horiz-adv-x="547" unicode="&#64258;" /><glyph d="M435 0 534 700H461L448 609C434 668 382 712 313 712C221 712 159 649 147 562L137 490H57L47 422H127L68 0H141L201 422H421L362 0ZM220 555C227 604 254 643 307 643C350 643 384 610 379 561L378 551H439L431 490H211Z" glyph-name="fl.ss01" horiz-adv-x="546" /><glyph d="M75 -31C65 -102 36 -137 -39 -137C-50 -137 -75 -135 -75 -135L-85 -204C-85 -204 -64 -205 -47 -205C64 -205 131 -155 149 -31L213 422H340L349 490H223L230 538C240 609 269 644 345 644C356 644 382 643 382 643L392 711C392 711 371 712 354 712C243 712 174 662 156 538L149 490H58L49 422H140Z" glyph-name="florin" horiz-adv-x="365" unicode="&#402;" /><glyph d="M75 -31C65 -102 36 -137 -39 -137C-50 -137 -75 -135 -75 -135L-85 -204C-85 -204 -64 -205 -47 -205C64 -205 131 -155 149 -31L213 422H340L349 490H223L230 538C240 609 269 644 345 644C356 644 382 643 382 643L392 711C392 711 371 712 354 712C243 712 174 662 156 538L149 490H58L49 422H140Z" glyph-name="florin.osf" horiz-adv-x="365" /><glyph d="M221 -31C211 -102 182 -137 107 -137C96 -137 71 -135 71 -135L61 -204C61 -204 82 -205 99 -205C210 -205 277 -155 295 -31L359 422H486L495 490H369L376 538C386 609 415 644 491 644C502 644 528 643 528 643L538 711C538 711 517 712 500 712C389 712 320 662 302 538L295 490H204L195 422H286Z" glyph-name="florin.tf" horiz-adv-x="600" /><glyph d="M221 -31C211 -102 182 -137 107 -137C96 -137 71 -135 71 -135L61 -204C61 -204 82 -205 99 -205C210 -205 277 -155 295 -31L359 422H486L495 490H369L376 538C386 609 415 644 491 644C502 644 528 643 528 643L538 711C538 711 517 712 500 712C389 712 320 662 302 538L295 490H204L195 422H286Z" glyph-name="florin.to" horiz-adv-x="600" /><glyph d="M527 177 537 249H430L494 700H423L29 243L20 177H344L319 0H395L420 177ZM111 249 401 583 354 249Z" glyph-name="four" horiz-adv-x="583" unicode="4" /><glyph d="M519 0 529 72H432L499 547H428L31 66L22 0H346L325 -153H401L422 0ZM119 72 405 417 356 72Z" glyph-name="four.osf" horiz-adv-x="583" /><glyph d="M397 236H321L298 72H106L115 132L456 547H365L42 156L20 0H288L266 -153H342L364 0H484L494 72H374Z" glyph-name="four.osf.ss01" horiz-adv-x="540" /><glyph d="M529 0 539 72H442L512 568H503L11 9L10 0H356L335 -153H411L432 0ZM157 72 408 366 366 72Z" glyph-name="four.osf.ss02" horiz-adv-x="585" /><glyph d="M527 0 537 72H430L497 547H426L29 66L20 0H344L322 -153H398L420 0ZM111 72 404 430 354 72Z" glyph-name="four.osf.ss03" horiz-adv-x="583" /><glyph d="M397 413H321L298 249H106L115 309L453 700H362L42 333L20 177H288L263 0H339L364 177H484L494 249H374Z" glyph-name="four.ss01" horiz-adv-x="540" /><glyph d="M529 177 539 249H442L508 718H499L11 186L10 177H356L331 0H407L432 177ZM157 249 404 516 366 249Z" glyph-name="four.ss02" horiz-adv-x="585" /><glyph d="M537 177 547 249H440L504 700H433L39 243L30 177H354L329 0H405L430 177ZM121 249 411 583 364 249Z" glyph-name="four.ss03" horiz-adv-x="583" /><glyph d="M528 177 538 249H431L495 700H424L30 243L21 177H345L320 0H396L421 177ZM112 249 402 583 355 249Z" glyph-name="four.tf" horiz-adv-x="600" /><glyph d="M430 413H354L331 249H139L148 309L486 700H395L75 333L53 177H321L296 0H372L397 177H517L527 249H407Z" glyph-name="four.tf.ss01" horiz-adv-x="600" /><glyph d="M534 177 544 249H447L513 718H504L16 186L15 177H361L336 0H412L437 177ZM162 249 409 516 371 249Z" glyph-name="four.tf.ss02" horiz-adv-x="600" /><glyph d="M538 177 548 249H441L505 700H434L40 243L31 177H355L330 0H406L431 177ZM122 249 412 583 365 249Z" glyph-name="four.tf.ss03" horiz-adv-x="600" /><glyph d="M522 0 532 72H435L502 547H431L34 66L25 0H349L328 -153H404L425 0ZM122 72 408 417 359 72Z" glyph-name="four.to" horiz-adv-x="600" /><glyph d="M427 236H351L328 72H136L145 132L486 547H395L72 156L50 0H318L296 -153H372L394 0H514L524 72H404Z" glyph-name="four.to.ss01" horiz-adv-x="600" /><glyph d="M534 0 544 72H447L517 568H508L16 9L15 0H361L340 -153H416L437 0ZM162 72 413 366 371 72Z" glyph-name="four.to.ss02" horiz-adv-x="600" /><glyph d="M528 0 538 72H431L498 547H427L30 66L21 0H345L323 -153H399L421 0ZM112 72 405 430 355 72Z" glyph-name="four.to.ss03" horiz-adv-x="600" /><glyph d="M331 91 339 148H282L316 392H247L27 144L20 91H208L195 0H261L274 91ZM98 148 238 306 216 148Z" glyph-name="fourinferior" horiz-adv-x="374" unicode="&#8324;" /><glyph d="M266 231H200L188 148H97L102 182L290 392H213L34 193L20 91H180L167 0H233L246 91H316L324 148H254Z" glyph-name="fourinferior.ss01" horiz-adv-x="359" /><glyph d="M298 400 1 97 0 91H206L193 0H260L273 91H330L338 148H281L316 400ZM122 148 230 261 214 148Z" glyph-name="fourinferior.ss02" horiz-adv-x="373" /><glyph d="M331 91 339 148H282L316 392H246L27 144L20 91H208L195 0H261L274 91ZM100 148 238 304 216 148Z" glyph-name="fourinferior.ss03" horiz-adv-x="374" /><glyph d="M331 399 339 456H282L316 700H247L27 452L20 399H208L195 308H261L274 399ZM98 456 238 614 216 456Z" glyph-name="foursuperior" horiz-adv-x="374" unicode="&#8308;" /><glyph d="M266 539H200L188 456H97L102 490L290 700H213L34 501L20 399H180L167 308H233L246 399H316L324 456H254Z" glyph-name="foursuperior.ss01" horiz-adv-x="359" /><glyph d="M298 708 1 405 0 399H206L193 308H260L273 399H330L338 456H281L316 708ZM122 456 230 569 214 456Z" glyph-name="foursuperior.ss02" horiz-adv-x="373" /><glyph d="M331 399 339 456H282L316 700H246L27 452L20 399H208L195 308H261L274 399ZM100 456 238 612 216 456Z" glyph-name="foursuperior.ss03" horiz-adv-x="374" /><glyph d="M1 0H82L608 700H528Z" glyph-name="fraction" horiz-adv-x="580" unicode="&#8260;" /><glyph d="M25 -96C40 -125 101 -205 218 -205C359 -205 461 -118 482 30L546 490H474L465 422C429 480 377 502 314 502C177 502 55 386 55 223C55 110 133 11 245 11C308 11 367 26 414 80L408 34C394 -65 333 -137 224 -137C146 -137 103 -89 80 -48ZM131 229C131 348 213 432 311 432C390 432 444 372 444 282C444 165 360 81 262 81C184 81 131 141 131 229Z" glyph-name="g" horiz-adv-x="589" unicode="g" /><glyph d="M319 367C309 298 260 247 182 247C115 247 88 289 77 313L25 270C38 248 75 191 175 191C288 191 368 264 383 372L430 703H367L361 659C335 696 295 711 247 711C142 711 46 624 46 506C46 415 108 350 196 350C244 350 288 364 324 401ZM344 548C344 465 282 407 210 407C152 407 113 450 113 512C113 595 173 654 245 654C303 654 344 611 344 548Z" glyph-name="g.ordn" horiz-adv-x="460" /><glyph d="M424 703H242C139 703 46 625 46 523C46 471 68 428 109 392L264 255H16L8 199H350L358 254L201 391C204 390 210 388 214 388C310 388 395 466 395 560C395 594 383 623 366 645H416ZM330 555C330 492 272 442 206 442C150 442 109 481 109 533C109 596 169 645 234 645C292 645 330 606 330 555Z" glyph-name="g.ordn.ss01" horiz-adv-x="442" /><glyph d="M539 490H308C174 490 57 401 57 262C57 192 89 131 139 80L340 -122H8L-2 -194H441L450 -128L244 76C249 74 259 74 264 74C389 74 499 172 499 301C499 347 485 388 460 420H529ZM425 298C425 207 348 141 258 141C181 141 131 190 131 264C131 355 208 420 299 420C375 420 425 370 425 298Z" glyph-name="g.ss01" horiz-adv-x="560" /><glyph d="M25 -96C40 -125 101 -205 218 -205C359 -205 461 -118 482 30L546 490H474L465 422C429 480 377 502 314 502C177 502 55 386 55 223C55 110 133 11 245 11C308 11 367 26 414 80L408 34C394 -65 333 -137 224 -137C146 -137 103 -89 80 -48ZM131 229C131 348 213 432 311 432C390 432 444 372 444 282C444 165 360 81 262 81C184 81 131 141 131 229ZM338 558C422 558 480 618 498 700H431C419 654 390 626 347 626C305 626 283 654 285 700H219C213 618 255 558 338 558Z" glyph-name="gbreve" horiz-adv-x="589" unicode="&#287;" /><glyph d="M539 490H308C174 490 57 401 57 262C57 192 89 131 139 80L340 -122H8L-2 -194H441L450 -128L244 76C249 74 259 74 264 74C389 74 499 172 499 301C499 347 485 388 460 420H529ZM425 298C425 207 348 141 258 141C181 141 131 190 131 264C131 355 208 420 299 420C375 420 425 370 425 298ZM314 558C398 558 456 618 474 700H407C395 654 366 626 323 626C281 626 259 654 261 700H195C189 618 231 558 314 558Z" glyph-name="gbreve.ss01" horiz-adv-x="560" /><glyph d="M25 -96C40 -125 101 -205 218 -205C359 -205 461 -118 482 30L546 490H474L465 422C429 480 377 502 314 502C177 502 55 386 55 223C55 110 133 11 245 11C308 11 367 26 414 80L408 34C394 -65 333 -137 224 -137C146 -137 103 -89 80 -48ZM131 229C131 348 213 432 311 432C390 432 444 372 444 282C444 165 360 81 262 81C184 81 131 141 131 229ZM311 700 196 569H272L355 651L415 569H487L408 700Z" glyph-name="gcircumflex" horiz-adv-x="589" unicode="&#285;" /><glyph d="M539 490H308C174 490 57 401 57 262C57 192 89 131 139 80L340 -122H8L-2 -194H441L450 -128L244 76C249 74 259 74 264 74C389 74 499 172 499 301C499 347 485 388 460 420H529ZM425 298C425 207 348 141 258 141C181 141 131 190 131 264C131 355 208 420 299 420C375 420 425 370 425 298ZM287 700 172 569H248L331 651L391 569H463L384 700Z" glyph-name="gcircumflex.ss01" horiz-adv-x="560" /><glyph d="M25 -96C40 -125 101 -205 218 -205C359 -205 461 -118 482 30L546 490H474L465 422C429 480 377 502 314 502C177 502 55 386 55 223C55 110 133 11 245 11C308 11 367 26 414 80L408 34C394 -65 333 -137 224 -137C146 -137 103 -89 80 -48ZM131 229C131 348 213 432 311 432C390 432 444 372 444 282C444 165 360 81 262 81C184 81 131 141 131 229ZM368 700 278 563H361L427 700Z" glyph-name="gcommaaccent" horiz-adv-x="589" unicode="&#291;" /><glyph d="M539 490H308C174 490 57 401 57 262C57 192 89 131 139 80L340 -122H8L-2 -194H441L450 -128L244 76C249 74 259 74 264 74C389 74 499 172 499 301C499 347 485 388 460 420H529ZM425 298C425 207 348 141 258 141C181 141 131 190 131 264C131 355 208 420 299 420C375 420 425 370 425 298ZM355 700 265 563H348L414 700Z" glyph-name="gcommaaccent.ss01" horiz-adv-x="560" /><glyph d="M25 -96C40 -125 101 -205 218 -205C359 -205 461 -118 482 30L546 490H474L465 422C429 480 377 502 314 502C177 502 55 386 55 223C55 110 133 11 245 11C308 11 367 26 414 80L408 34C394 -65 333 -137 224 -137C146 -137 103 -89 80 -48ZM131 229C131 348 213 432 311 432C390 432 444 372 444 282C444 165 360 81 262 81C184 81 131 141 131 229ZM295 657C295 627 319 603 349 603C379 603 404 627 404 657C404 687 379 712 349 712C319 712 295 687 295 657Z" glyph-name="gdotaccent" horiz-adv-x="589" unicode="&#289;" /><glyph d="M539 490H308C174 490 57 401 57 262C57 192 89 131 139 80L340 -122H8L-2 -194H441L450 -128L244 76C249 74 259 74 264 74C389 74 499 172 499 301C499 347 485 388 460 420H529ZM425 298C425 207 348 141 258 141C181 141 131 190 131 264C131 355 208 420 299 420C375 420 425 370 425 298ZM279 657C279 627 303 603 333 603C363 603 388 627 388 657C388 687 363 712 333 712C303 712 279 687 279 657Z" glyph-name="gdotaccent.ss01" horiz-adv-x="560" /><glyph d="M25 -96C40 -125 101 -205 218 -205C359 -205 461 -118 482 30L546 490H474L465 422C429 480 377 502 314 502C177 502 55 386 55 223C55 110 133 11 245 11C308 11 367 26 414 80L408 34C394 -65 333 -137 224 -137C146 -137 103 -89 80 -48ZM131 229C131 348 213 432 311 432C390 432 444 372 444 282C444 165 360 81 262 81C184 81 131 141 131 229ZM387 603 401 700H312L298 603Z" glyph-name="gdotaccent.ss03" horiz-adv-x="589" /><glyph d="M45 0H120L181 441C200 575 271 644 381 644C466 644 514 591 514 530C514 437 440 395 360 395H286L276 327H358C441 327 502 288 502 216C502 113 403 68 320 68H240L230 0H325C459 0 576 79 576 222C576 291 539 338 490 365C545 395 589 461 589 535C589 641 498 712 388 712C226 712 130 611 106 441Z" glyph-name="germandbls" horiz-adv-x="624" unicode="&#223;" /><glyph d="M264 327H336C418 327 472 286 472 218C472 129 391 71 300 71H228L218 0H296C420 0 549 84 549 220C549 322 467 390 364 398L556 628L566 700H143L45 0H121L209 628H464L274 398Z" glyph-name="germandbls.ss01" horiz-adv-x="601" /><glyph d="M228 71 218 0H296C428 0 549 85 549 217C549 277 523 337 466 369C526 408 559 471 559 536C559 634 474 712 365 712C235 712 132 620 112 477L45 0H121L188 477C202 574 261 640 360 640C430 640 481 594 481 534C481 452 405 400 335 399H274L264 327H336C418 327 472 287 472 218C472 121 381 71 300 71Z" glyph-name="germandbls.ss02" horiz-adv-x="594" /><glyph d="M165 700 261 569H335L262 700Z" glyph-name="grave" horiz-adv-x="500" unicode="`" /><glyph d="M170 872 255 769H329L272 872Z" glyph-name="grave.cap" horiz-adv-x="500" /><glyph d="M563 287 102 502 91 425 486 246 41 67 30 -11 551 205Z" glyph-name="greater" horiz-adv-x="603" unicode="&gt;" /><glyph d="M549 337 81 513 70 435 443 302 33 168 22 91 539 266ZM0 -68H490L500 0H10Z" glyph-name="greaterequal" horiz-adv-x="587" unicode="&#8805;" /><glyph d="M43 245 146 0H228L123 245L296 490H214ZM265 245 368 0H450L345 245L518 490H436Z" glyph-name="guillemotleft" horiz-adv-x="543" unicode="&#171;" /><glyph d="M43 350 146 105H228L123 350L296 595H214ZM265 350 368 105H450L345 350L518 595H436Z" glyph-name="guillemotleft.cap" horiz-adv-x="543" /><glyph d="M278 245 175 490H93L198 245L25 0H107ZM498 245 395 490H313L418 245L245 0H327Z" glyph-name="guillemotright" horiz-adv-x="541" unicode="&#187;" /><glyph d="M296 350 193 595H111L216 350L43 105H125ZM516 350 413 595H331L436 350L263 105H345Z" glyph-name="guillemotright.cap" horiz-adv-x="543" /><glyph d="M43 245 146 0H228L123 245L296 490H214Z" glyph-name="guilsinglleft" horiz-adv-x="321" unicode="&#8249;" /><glyph d="M43 350 146 105H228L123 350L296 595H214Z" glyph-name="guilsinglleft.cap" horiz-adv-x="321" /><glyph d="M278 245 175 490H93L198 245L25 0H107Z" glyph-name="guilsinglright" horiz-adv-x="321" unicode="&#8250;" /><glyph d="M278 350 175 595H93L198 350L25 105H107Z" glyph-name="guilsinglright.cap" horiz-adv-x="321" /><glyph d="M218 700H144L45 0H119L153 243C169 358 230 433 328 433C396 433 435 394 435 323C435 313 435 302 433 291L392 0H467L506 280C509 298 510 314 510 330C510 437 442 502 333 502C275 502 214 473 181 436Z" glyph-name="h" horiz-adv-x="570" unicode="h" /><glyph d="M218 700H144L45 0H119L178 422H417L358 0H432L501 490H188Z" glyph-name="h.ss01" horiz-adv-x="543" /><glyph d="M218 700H144L132 619H60L51 560H124L45 0H119L153 243C169 358 230 433 328 433C396 433 435 394 435 323C435 313 435 302 433 291L392 0H467L506 280C509 298 510 314 510 330C510 437 442 502 333 502C275 502 214 473 181 436L198 560H376L384 619H206Z" glyph-name="hbar" horiz-adv-x="570" unicode="&#295;" /><glyph d="M218 700H144L132 619H60L51 560H124L45 0H119L178 422H417L358 0H432L501 490H188L198 560H376L384 619H206Z" glyph-name="hbar.ss01" horiz-adv-x="543" /><glyph d="M218 700H144L45 0H119L153 243C169 358 230 433 328 433C396 433 435 394 435 323C435 313 435 302 433 291L392 0H467L506 280C509 298 510 314 510 330C510 437 442 502 333 502C275 502 214 473 181 436ZM50 769H129L204 831L260 769H340L257 872H160Z" glyph-name="hcircumflex" horiz-adv-x="570" unicode="&#293;" /><glyph d="M218 700H144L45 0H119L178 422H417L358 0H432L501 490H188ZM43 769H122L197 831L253 769H333L250 872H153Z" glyph-name="hcircumflex.ss01" horiz-adv-x="543" /><glyph d="M173 700 64 569H138L270 700ZM338 700 229 569H303L435 700Z" glyph-name="hungarumlaut" horiz-adv-x="500" unicode="&#733;" /><glyph d="M71 769H145L263 872H166ZM236 769H310L428 872H331Z" glyph-name="hungarumlaut.cap" horiz-adv-x="500" /><glyph d="M19 226H278L288 294H29Z" glyph-name="hyphen" horiz-adv-x="308" unicode="-" /><glyph d="M19 316H278L288 384H29Z" glyph-name="hyphen.cap" horiz-adv-x="308" /><glyph d="M45 0H119L188 490H114ZM119 657C119 627 143 603 173 603C203 603 228 627 228 657C228 687 203 712 173 712C143 712 119 687 119 657Z" glyph-name="i" horiz-adv-x="230" unicode="i" /><glyph d="M45 0H119L188 490H114ZM119 657C119 627 143 603 173 603C203 603 228 627 228 657C228 687 203 712 173 712C143 712 119 687 119 657Z" glyph-name="i.TRK" horiz-adv-x="230" /><glyph d="M128 603H207L221 700H142ZM45 0H119L188 490H114Z" glyph-name="i.TRK.ss03" horiz-adv-x="230" /><glyph d="M128 603H207L221 700H142ZM45 0H119L188 490H114Z" glyph-name="i.ss03" horiz-adv-x="230" /><glyph d="M45 0H119L188 490H114ZM201 700 92 569H166L298 700Z" glyph-name="iacute" horiz-adv-x="230" unicode="&#237;" /><glyph d="M45 0H119L188 490H114ZM203 700 94 569H168L300 700Z" glyph-name="iacute.ss03" horiz-adv-x="230" /><glyph d="M45 0H119L188 490H114ZM157 558C241 558 299 618 317 700H250C238 654 209 626 166 626C124 626 102 654 104 700H38C32 618 74 558 157 558Z" glyph-name="ibreve" horiz-adv-x="230" unicode="&#301;" /><glyph d="M45 0H119L188 490H114ZM159 558C243 558 301 618 319 700H252C240 654 211 626 168 626C126 626 104 654 106 700H40C34 618 76 558 159 558Z" glyph-name="ibreve.ss03" horiz-adv-x="230" /><glyph d="M45 0H119L188 490H114ZM130 700 15 569H91L174 651L234 569H306L227 700Z" glyph-name="icircumflex" horiz-adv-x="230" unicode="&#238;" /><glyph d="M45 0H119L188 490H114ZM132 700 17 569H93L176 651L236 569H308L229 700Z" glyph-name="icircumflex.ss03" horiz-adv-x="230" /><glyph d="M45 0H119L188 490H114ZM32 653C32 624 54 602 83 602C112 602 135 624 135 653C135 682 112 705 83 705C54 705 32 682 32 653ZM213 653C213 624 235 602 264 602C293 602 316 624 316 653C316 682 293 705 264 705C235 705 213 682 213 653Z" glyph-name="idieresis" horiz-adv-x="230" unicode="&#239;" /><glyph d="M45 0H119L188 490H114ZM123 603 137 700H52L38 603ZM296 603 310 700H225L211 603Z" glyph-name="idieresis.ss03" horiz-adv-x="230" /><glyph d="M45 0H119L188 490H114ZM21 700 117 569H191L118 700Z" glyph-name="igrave" horiz-adv-x="230" unicode="&#236;" /><glyph d="M45 0H119L188 490H114ZM23 700 119 569H193L120 700Z" glyph-name="igrave.ss03" horiz-adv-x="230" /><glyph d="M45 0H119L188 490H114ZM119 657C119 627 143 603 173 603C203 603 228 627 228 657C228 687 203 712 173 712C143 712 119 687 119 657ZM281 -48C272 -109 254 -137 192 -137C181 -137 148 -136 148 -136L139 -203C139 -203 164 -205 190 -205C284 -205 338 -167 353 -60L430 490H357ZM361 657C361 627 385 603 415 603C445 603 470 627 470 657C470 687 445 712 415 712C385 712 361 687 361 657Z" glyph-name="ij" horiz-adv-x="472" unicode="&#307;" /><glyph d="M45 0H119L188 490H114ZM119 657C119 627 143 603 173 603C203 603 228 627 228 657C228 687 203 712 173 712C143 712 119 687 119 657ZM335 -194 431 490H356L270 -126H150L140 -194ZM362 657C362 627 386 603 416 603C446 603 471 627 471 657C471 687 446 712 416 712C386 712 362 687 362 657Z" glyph-name="ij.ss01" horiz-adv-x="473" /><glyph d="M128 603H207L221 700H142ZM45 0H119L188 490H114ZM278 -48C269 -109 251 -137 189 -137C178 -137 145 -136 145 -136L136 -203C136 -203 161 -205 187 -205C281 -205 335 -167 350 -60L427 490H354ZM367 603H446L459 700H380Z" glyph-name="ij.ss03" horiz-adv-x="471" /><glyph d="M45 0H119L188 490H114ZM65 700 55 632H283L293 700Z" glyph-name="imacron" horiz-adv-x="230" unicode="&#299;" /><glyph d="M45 0H119L188 490H114ZM67 700 57 632H285L295 700Z" glyph-name="imacron.ss03" horiz-adv-x="230" /><glyph d="M569 308 530 375C489 445 432 502 333 502C191 502 54 370 54 214C54 89 142 -11 261 -11C360 -11 433 47 494 116L552 182L591 115C631 46 691 -11 790 -11C931 -11 1067 120 1067 276C1067 401 980 502 862 502C763 502 687 443 627 374ZM323 431C398 431 436 383 469 325L515 245L447 166C397 108 346 59 271 59C187 59 128 129 128 221C128 336 221 431 323 431ZM606 244 676 324C726 381 777 431 852 431C935 431 994 361 994 269C994 154 901 59 800 59C725 59 686 108 653 165Z" glyph-name="infinity" horiz-adv-x="1122" unicode="&#8734;" /><glyph d="M96 -31C86 -102 57 -137 -18 -137C-30 -137 -55 -135 -55 -135L-65 -204C-65 -204 -43 -205 -26 -205C84 -205 153 -155 170 -31L251 538C261 609 290 644 365 644C376 644 403 643 403 643L413 711C413 711 391 712 374 712C263 712 194 662 177 538Z" glyph-name="integral" horiz-adv-x="348" unicode="&#8747;" /><glyph d="M45 0C3 -26 -31 -67 -31 -108C-31 -158 0 -184 58 -184C73 -184 86 -182 94 -180L102 -125H97C56 -125 42 -110 42 -90C42 -66 53 -46 119 0L188 490H114ZM119 657C119 627 143 603 173 603C203 603 228 627 228 657C228 687 203 712 173 712C143 712 119 687 119 657Z" glyph-name="iogonek" horiz-adv-x="230" unicode="&#303;" /><glyph d="M45 0C3 -26 -31 -67 -31 -108C-31 -158 0 -184 58 -184C73 -184 86 -182 94 -180L102 -125H97C56 -125 42 -110 42 -90C42 -66 53 -46 119 0L188 490H114ZM128 603H207L221 700H142Z" glyph-name="iogonek.ss03" horiz-adv-x="230" /><glyph d="M45 0H119L188 490H114ZM253 700C250 683 239 668 218 668C203 668 197 672 183 678L155 691C145 696 131 700 113 700C68 700 33 662 24 597H81C85 615 95 629 115 629C130 629 138 625 152 619L181 607C190 603 203 597 221 597C265 597 301 635 310 700Z" glyph-name="itilde" horiz-adv-x="230" unicode="&#297;" /><glyph d="M45 0H119L188 490H114ZM255 700C252 683 241 668 220 668C205 668 199 672 185 678L157 691C147 696 133 700 115 700C70 700 35 662 26 597H83C87 615 97 629 117 629C132 629 140 625 154 619L183 607C192 603 205 597 223 597C267 597 303 635 312 700Z" glyph-name="itilde.ss03" horiz-adv-x="230" /><glyph d="M51 -48C42 -109 24 -137 -38 -137C-49 -137 -82 -136 -82 -136L-91 -203C-91 -203 -66 -205 -40 -205C54 -205 108 -167 123 -60L200 490H127ZM131 657C131 627 155 603 185 603C215 603 240 627 240 657C240 687 215 712 185 712C155 712 131 687 131 657Z" glyph-name="j" horiz-adv-x="242" unicode="j" /><glyph d="M105 -194 201 490H126L40 -126H-80L-90 -194ZM132 657C132 627 156 603 186 603C216 603 241 627 241 657C241 687 216 712 186 712C156 712 132 687 132 657Z" glyph-name="j.ss01" horiz-adv-x="243" /><glyph d="M48 -48C39 -109 21 -137 -41 -137C-52 -137 -85 -136 -85 -136L-94 -203C-94 -203 -69 -205 -43 -205C51 -205 105 -167 120 -60L197 490H124ZM137 603H216L229 700H150Z" glyph-name="j.ss03" horiz-adv-x="241" /><glyph d="M51 -48C42 -109 24 -137 -38 -137C-49 -137 -82 -136 -82 -136L-91 -203C-91 -203 -66 -205 -40 -205C54 -205 108 -167 123 -60L200 490H127ZM142 700 27 569H103L186 651L246 569H318L239 700Z" glyph-name="jcircumflex" horiz-adv-x="242" unicode="&#309;" /><glyph d="M105 -194 201 490H126L40 -126H-80L-90 -194ZM145 700 30 569H106L189 651L249 569H321L242 700Z" glyph-name="jcircumflex.ss01" horiz-adv-x="243" /><glyph d="M48 -48C39 -109 21 -137 -41 -137C-52 -137 -85 -136 -85 -136L-94 -203C-94 -203 -69 -205 -43 -205C51 -205 105 -167 120 -60L197 490H124ZM139 700 24 569H100L183 651L243 569H315L236 700Z" glyph-name="jcircumflex.ss03" horiz-adv-x="241" /><glyph d="M45 0H119L138 138L234 228L364 0H449L289 280L512 490H415L155 244L218 700H144Z" glyph-name="k" horiz-adv-x="514" unicode="k" /><glyph d="M45 0H119L148 209H275L367 0H443L340 245L503 490H422L280 278H158L218 700H144Z" glyph-name="k.ss01" horiz-adv-x="525" /><glyph d="M45 0H119L152 235L342 0H435L228 255L492 490H391L159 283L218 700H144Z" glyph-name="k.ss02" horiz-adv-x="487" /><glyph d="M45 0H119L138 138L234 228L364 0H449L289 280L512 490H415L155 244L218 700H144ZM135 -194 201 -57H284L194 -194Z" glyph-name="kcommaaccent" horiz-adv-x="514" unicode="&#311;" /><glyph d="M45 0H119L148 209H275L367 0H443L340 245L503 490H422L280 278H158L218 700H144ZM132 -194 198 -57H281L191 -194Z" glyph-name="kcommaaccent.ss01" horiz-adv-x="525" /><glyph d="M45 0H119L152 235L342 0H435L228 255L492 490H391L159 283L218 700H144ZM124 -194 190 -57H273L183 -194Z" glyph-name="kcommaaccent.ss02" horiz-adv-x="487" /><glyph d="M45 0H119L138 138L234 228L364 0H449L289 280L512 490H415L155 244L189 490H114Z" glyph-name="kgreenlandic" horiz-adv-x="514" unicode="&#312;" /><glyph d="M45 0H119L148 209H275L367 0H443L340 245L503 490H422L280 278H158L188 490H115Z" glyph-name="kgreenlandic.ss01" horiz-adv-x="525" /><glyph d="M45 0H119L152 235L342 0H435L228 255L492 490H391L159 283L188 490H114Z" glyph-name="kgreenlandic.ss02" horiz-adv-x="487" /><glyph d="M45 0H119L218 700H144Z" glyph-name="l" horiz-adv-x="230" unicode="l" /><glyph d="M33 342H97L169 857H105Z" glyph-name="l.ordn" horiz-adv-x="184" /><glyph d="M118 0 217 700H144L45 0Z" glyph-name="l.ss01" horiz-adv-x="229" /><glyph d="M45 0H119L218 700H144ZM242 872 156 769H230L344 872Z" glyph-name="lacute" horiz-adv-x="230" unicode="&#314;" /><glyph d="M118 0 217 700H144L45 0ZM238 872 152 769H226L340 872Z" glyph-name="lacute.ss01" horiz-adv-x="229" /><glyph d="M45 0H119L218 700H144ZM308 511H253L307 700H394Z" glyph-name="lcaron" horiz-adv-x="230" unicode="&#318;" /><glyph d="M394 700H307L253 511H308ZM45 0H119L218 700H144Z" glyph-name="lcaron.ss01" horiz-adv-x="229" /><glyph d="M45 0H119L218 700H144ZM-35 -194 31 -57H114L24 -194Z" glyph-name="lcommaaccent" horiz-adv-x="230" unicode="&#316;" /><glyph d="M118 0 217 700H144L45 0ZM-28 -194 38 -57H121L31 -194Z" glyph-name="lcommaaccent.ss01" horiz-adv-x="229" /><glyph d="M45 0H119L218 700H144ZM226 345C226 315 250 291 280 291C310 291 335 315 335 345C335 375 310 400 280 400C250 400 226 375 226 345Z" glyph-name="ldot" horiz-adv-x="295" unicode="&#320;" /><glyph d="M45 0H119L218 700H144ZM226 345C226 315 250 291 280 291C310 291 335 315 335 345C335 375 310 400 280 400C250 400 226 375 226 345Z" glyph-name="ldot.ss01" horiz-adv-x="295" /><glyph d="M228 297 242 394H331L317 297ZM45 0H119L218 700H144Z" glyph-name="ldot.ss03" horiz-adv-x="294" /><glyph d="M40 204 501 -11 512 66 117 245 562 424 573 502 52 286Z" glyph-name="less" horiz-adv-x="603" unicode="&lt;" /><glyph d="M47 266 513 91 524 168 152 302 562 435 573 513 57 337ZM-1 -68H489L499 0H9Z" glyph-name="lessequal" horiz-adv-x="600" unicode="&#8804;" /><glyph d="M65 229H487L467 86H535L565 297H75Z" glyph-name="logicalnot" horiz-adv-x="630" unicode="&#172;" /><glyph d="M347 700 58 247 219 -205H283L571 247L411 700ZM133 244 369 610 496 251 261 -115Z" glyph-name="lozenge" horiz-adv-x="630" unicode="&#9674;" /><glyph d="M119 0 168 345 256 387 267 464 179 422 218 700H144L99 385L12 344L1 267L88 308L45 0Z" glyph-name="lslash" horiz-adv-x="230" unicode="&#322;" /><glyph d="M119 0 168 345 256 387 267 464 179 422 218 700H144L99 385L12 344L1 267L88 308L45 0Z" glyph-name="lslash.ss01" horiz-adv-x="230" /><glyph d="M186 490H114L45 0H119L155 260C169 363 225 433 309 433C368 433 401 398 401 327C401 314 400 301 398 286L358 0H432L470 270C485 374 538 433 619 433C683 433 716 396 716 328C716 316 715 304 713 291L672 0H746L785 275C788 295 789 314 789 332C789 435 738 502 626 502C563 502 500 474 458 416C436 467 389 502 322 502C259 502 206 467 178 431Z" glyph-name="m" horiz-adv-x="850" unicode="m" /><glyph d="M122 539C132 612 171 655 233 655C285 655 311 620 301 552L271 342H335L363 540C373 613 412 655 472 655C528 655 551 619 542 555L512 342H576L606 552C620 654 582 711 481 711C432 711 387 690 355 654C337 690 302 711 251 711C204 711 161 687 138 661L144 703H81L30 342H94Z" glyph-name="m.ordn" horiz-adv-x="662" /><glyph d="M609 703H86L35 342H99L142 646H307L264 342H328L371 646H537L494 342H558Z" glyph-name="m.ordn.ss01" horiz-adv-x="639" /><glyph d="M781 490H114L45 0H119L178 422H400L341 0H415L474 422H697L638 0H712Z" glyph-name="m.ss01" horiz-adv-x="823" /><glyph d="M141 700 131 632H359L369 700Z" glyph-name="macron" horiz-adv-x="500" unicode="&#175;" /><glyph d="M131 787H359L369 855H141Z" glyph-name="macron.cap" horiz-adv-x="500" /><glyph d="M65 226H555L565 294H75Z" glyph-name="minus" horiz-adv-x="630" unicode="&#8722;" /><glyph d="M20 -194H94L126 34C149 5 189 -11 235 -11C298 -11 354 17 394 62L385 0H457L526 490H452L418 247C402 132 348 59 250 59C173 59 137 107 149 195L190 490H116Z" glyph-name="mu" horiz-adv-x="568" unicode="&#181;" /><glyph d="M20 -194H94L126 34C149 5 189 -11 235 -11C298 -11 354 17 394 62L385 0H457L526 490H452L418 247C402 132 348 59 250 59C173 59 137 107 149 195L190 490H116Z" glyph-name="mugreek" horiz-adv-x="568" unicode="&#956;" /><glyph d="M157 449 106 404 239 249 59 91 102 42 281 199 417 42 469 87 334 245 510 399 466 448 291 294Z" glyph-name="multiply" horiz-adv-x="568" unicode="&#215;" /><glyph d="M186 490H114L45 0H119L153 243C169 358 230 433 328 433C396 433 435 394 435 323C435 313 435 302 433 291L392 0H467L506 280C509 298 510 314 510 330C510 437 442 502 333 502C275 502 211 473 178 431Z" glyph-name="n" horiz-adv-x="570" unicode="n" /><glyph d="M114 490 45 0H119L178 422H417L358 0H432L501 490Z" glyph-name="n.ss01" horiz-adv-x="543" /><glyph d="M186 490H114L45 0H119L153 243C169 358 230 433 328 433C396 433 435 394 435 323C435 313 435 302 433 291L392 0H467L506 280C509 298 510 314 510 330C510 437 442 502 333 502C275 502 211 473 178 431ZM381 700 272 569H346L478 700Z" glyph-name="nacute" horiz-adv-x="570" unicode="&#324;" /><glyph d="M114 490 45 0H119L178 422H417L358 0H432L501 490ZM361 700 252 569H326L458 700Z" glyph-name="nacute.ss01" horiz-adv-x="543" /><glyph glyph-name="nbspace" horiz-adv-x="308" unicode="&#160;" /><glyph d="M186 490H114L45 0H119L153 243C169 358 230 433 328 433C396 433 435 394 435 323C435 313 435 302 433 291L392 0H467L506 280C509 298 510 314 510 330C510 437 442 502 333 502C275 502 211 473 178 431ZM393 569 508 700H432L348 618L289 700H217L296 569Z" glyph-name="ncaron" horiz-adv-x="570" unicode="&#328;" /><glyph d="M114 490 45 0H119L178 422H417L358 0H432L501 490ZM373 569 488 700H412L328 618L269 700H197L276 569Z" glyph-name="ncaron.ss01" horiz-adv-x="543" /><glyph d="M186 490H114L45 0H119L153 243C169 358 230 433 328 433C396 433 435 394 435 323C435 313 435 302 433 291L392 0H467L506 280C509 298 510 314 510 330C510 437 442 502 333 502C275 502 211 473 178 431ZM154 -194 220 -57H303L213 -194Z" glyph-name="ncommaaccent" horiz-adv-x="570" unicode="&#326;" /><glyph d="M114 490 45 0H119L178 422H417L358 0H432L501 490ZM135 -194 201 -57H284L194 -194Z" glyph-name="ncommaaccent.ss01" horiz-adv-x="543" /><glyph d="M327 712C205 712 72 616 72 449C72 324 164 247 277 247C344 247 420 280 469 353C447 179 352 60 238 60C175 60 132 92 108 134L50 81C83 32 140 -11 228 -11C416 -11 547 173 547 425C547 611 461 712 327 712ZM282 319C210 319 149 369 149 456C149 581 243 641 322 641C403 641 457 579 457 499C457 390 369 319 282 319Z" glyph-name="nine" horiz-adv-x="598" unicode="9" /><glyph d="M327 559C205 559 72 463 72 296C72 171 164 94 277 94C344 94 420 127 469 200C447 26 352 -93 238 -93C175 -93 132 -61 108 -19L50 -72C83 -121 140 -164 228 -164C416 -164 547 20 547 272C547 458 461 559 327 559ZM282 166C210 166 149 216 149 303C149 428 243 488 322 488C403 488 457 426 457 346C457 237 369 166 282 166Z" glyph-name="nine.osf" horiz-adv-x="598" /><glyph d="M326 559C185 559 50 462 50 302C50 179 145 96 258 96C289 96 319 101 343 111L118 -153H209L423 103C482 173 540 254 540 351C540 472 456 559 326 559ZM464 348C464 238 373 166 273 166C190 166 128 221 128 306C128 416 218 488 318 488C400 488 464 433 464 348Z" glyph-name="nine.osf.ss01" horiz-adv-x="591" /><glyph d="M324 559C186 559 51 470 51 304C51 178 146 94 259 94C290 94 318 101 342 111L117 -153H210L424 103C483 173 541 249 541 346C541 468 461 559 324 559ZM465 348C465 238 374 166 274 166C191 166 129 221 129 306C129 417 219 489 319 489C401 489 465 434 465 348Z" glyph-name="nine.osf.ss02" horiz-adv-x="592" /><glyph d="M326 559C204 559 71 463 71 296C71 171 165 94 273 94C340 94 423 125 472 198C451 22 355 -93 248 -93C185 -93 138 -59 126 4H51C59 -102 138 -164 237 -164C418 -164 546 23 546 272C546 448 460 559 326 559ZM281 166C209 166 148 216 148 303C148 428 242 488 321 488C402 488 456 426 456 346C456 237 368 166 281 166Z" glyph-name="nine.osf.ss03" horiz-adv-x="597" /><glyph d="M326 712C185 712 50 615 50 455C50 332 145 249 258 249C289 249 319 254 343 264L118 0H209L423 256C482 326 540 407 540 504C540 625 456 712 326 712ZM464 501C464 391 373 319 273 319C190 319 128 374 128 459C128 569 218 641 318 641C400 641 464 586 464 501Z" glyph-name="nine.ss01" horiz-adv-x="591" /><glyph d="M338 712C200 712 65 623 65 457C65 331 160 247 273 247C304 247 332 254 356 264L131 0H224L438 256C497 326 555 402 555 499C555 621 475 712 338 712ZM479 501C479 391 388 319 288 319C205 319 143 374 143 459C143 570 233 642 333 642C415 642 479 587 479 501Z" glyph-name="nine.ss02" horiz-adv-x="592" /><glyph d="M330 712C208 712 75 616 75 449C75 324 169 247 277 247C344 247 427 278 476 351C455 175 359 60 252 60C189 60 142 94 130 157H55C63 51 142 -11 241 -11C422 -11 550 176 550 425C550 601 464 712 330 712ZM285 319C213 319 152 369 152 456C152 581 246 641 325 641C406 641 460 579 460 499C460 390 372 319 285 319Z" glyph-name="nine.ss03" horiz-adv-x="597" /><glyph d="M328 712C206 712 73 616 73 449C73 324 165 247 278 247C345 247 421 280 470 353C448 179 353 60 239 60C176 60 133 92 109 134L51 81C84 32 141 -11 229 -11C417 -11 548 173 548 425C548 611 462 712 328 712ZM283 319C211 319 150 369 150 456C150 581 244 641 323 641C404 641 458 579 458 499C458 390 370 319 283 319Z" glyph-name="nine.tf" horiz-adv-x="600" /><glyph d="M331 712C190 712 55 615 55 455C55 332 150 249 263 249C294 249 324 254 348 264L123 0H214L428 256C487 326 545 407 545 504C545 625 461 712 331 712ZM469 501C469 391 378 319 278 319C195 319 133 374 133 459C133 569 223 641 323 641C405 641 469 586 469 501Z" glyph-name="nine.tf.ss01" horiz-adv-x="600" /><glyph d="M328 712C190 712 55 623 55 457C55 331 150 247 263 247C294 247 322 254 346 264L121 0H214L428 256C487 326 545 402 545 499C545 621 465 712 328 712ZM469 501C469 391 378 319 278 319C195 319 133 374 133 459C133 570 223 642 323 642C405 642 469 587 469 501Z" glyph-name="nine.tf.ss02" horiz-adv-x="600" /><glyph d="M327 712C205 712 72 616 72 449C72 324 166 247 274 247C341 247 424 278 473 351C452 175 356 60 249 60C186 60 139 94 127 157H52C60 51 139 -11 238 -11C419 -11 547 176 547 425C547 601 461 712 327 712ZM282 319C210 319 149 369 149 456C149 581 243 641 322 641C403 641 457 579 457 499C457 390 369 319 282 319Z" glyph-name="nine.tf.ss03" horiz-adv-x="600" /><glyph d="M328 559C206 559 73 463 73 296C73 171 165 94 278 94C345 94 421 127 470 200C448 26 353 -93 239 -93C176 -93 133 -61 109 -19L51 -72C84 -121 141 -164 229 -164C417 -164 548 20 548 272C548 458 462 559 328 559ZM283 166C211 166 150 216 150 303C150 428 244 488 323 488C404 488 458 426 458 346C458 237 370 166 283 166Z" glyph-name="nine.to" horiz-adv-x="600" /><glyph d="M331 559C190 559 55 462 55 302C55 179 150 96 263 96C294 96 324 101 348 111L123 -153H214L428 103C487 173 545 254 545 351C545 472 461 559 331 559ZM469 348C469 238 378 166 278 166C195 166 133 221 133 306C133 416 223 488 323 488C405 488 469 433 469 348Z" glyph-name="nine.to.ss01" horiz-adv-x="600" /><glyph d="M328 559C190 559 55 470 55 304C55 178 150 94 263 94C294 94 322 101 346 111L121 -153H214L428 103C487 173 545 249 545 346C545 468 465 559 328 559ZM469 348C469 238 378 166 278 166C195 166 133 221 133 306C133 417 223 489 323 489C405 489 469 434 469 348Z" glyph-name="nine.to.ss02" horiz-adv-x="600" /><glyph d="M327 559C205 559 72 463 72 296C72 171 166 94 274 94C341 94 424 125 473 198C452 22 356 -93 249 -93C186 -93 139 -59 127 4H52C60 -102 139 -164 238 -164C419 -164 547 23 547 272C547 448 461 559 327 559ZM282 166C210 166 149 216 149 303C149 428 243 488 322 488C403 488 457 426 457 346C457 237 369 166 282 166Z" glyph-name="nine.to.ss03" horiz-adv-x="600" /><glyph d="M78 308H319L233 194H62L52 126H181L86 0H166L261 126H542L552 194H312L398 308H568L577 377H450L536 490H457L371 377H87Z" glyph-name="notequal" horiz-adv-x="630" unicode="&#8800;" /><glyph d="M186 490H114L45 0H119L153 243C169 358 230 433 328 433C396 433 435 394 435 323C435 313 435 302 433 291L392 0H467L506 280C509 298 510 314 510 330C510 437 442 502 333 502C275 502 211 473 178 431ZM433 700C430 683 419 668 398 668C383 668 377 672 363 678L335 691C325 696 311 700 293 700C248 700 213 662 204 597H261C265 615 275 629 295 629C310 629 318 625 332 619L361 607C370 603 383 597 401 597C445 597 481 635 490 700Z" glyph-name="ntilde" horiz-adv-x="570" unicode="&#241;" /><glyph d="M114 490 45 0H119L178 422H417L358 0H432L501 490ZM413 700C410 683 399 668 378 668C363 668 357 672 343 678L315 691C305 696 291 700 273 700C228 700 193 662 184 597H241C245 615 255 629 275 629C290 629 298 625 312 619L341 607C350 603 363 597 381 597C425 597 461 635 470 700Z" glyph-name="ntilde.ss01" horiz-adv-x="543" /><glyph d="M48 274 38 205H152L65 0H135L222 205H393L306 0H377L463 205H606L616 274H492L556 427H690L700 496H586L674 700H603L516 496H345L433 700H364L276 496H132L122 427H246L182 274ZM316 427H487L422 274H251Z" glyph-name="numbersign" horiz-adv-x="738" unicode="#" /><glyph d="M505 0H584L683 700H606L524 121L208 700H130L31 0H107L189 577ZM754 500C754 407 822 334 921 334C1041 334 1142 430 1142 544C1142 638 1074 711 974 711C855 711 754 615 754 500ZM820 505C820 588 884 654 966 654C1034 654 1076 605 1076 540C1076 457 1012 391 929 391C862 391 820 440 820 505Z" glyph-name="numero" horiz-adv-x="1182" unicode="&#8470;" /><glyph d="M574 -17H583L684 700H607L531 172L142 718H133L32 0H108L182 528ZM755 500C755 407 823 334 922 334C1042 334 1143 430 1143 544C1143 638 1075 711 975 711C856 711 755 615 755 500ZM821 505C821 588 885 654 967 654C1035 654 1077 605 1077 540C1077 457 1013 391 930 391C863 391 821 440 821 505Z" glyph-name="numero.ss02" horiz-adv-x="1183" /><glyph d="M186 490H114L45 0H119L153 243C169 358 230 433 328 433C396 433 435 394 435 323C435 313 435 302 433 291L392 0H467L506 280C509 298 510 314 510 330C510 437 442 502 333 502C275 502 211 473 178 431ZM588 500C588 407 656 334 755 334C875 334 976 430 976 544C976 638 908 711 808 711C689 711 588 615 588 500ZM654 505C654 588 718 654 800 654C868 654 910 605 910 540C910 457 846 391 763 391C696 391 654 440 654 505Z" glyph-name="numeroLC" horiz-adv-x="1016" /><glyph d="M578 500C578 407 646 334 745 334C865 334 966 430 966 544C966 638 898 711 798 711C679 711 578 615 578 500ZM644 505C644 588 708 654 790 654C858 654 900 605 900 540C900 457 836 391 753 391C686 391 644 440 644 505ZM114 490 45 0H119L178 422H417L358 0H432L501 490Z" glyph-name="numeroLC.ss01" horiz-adv-x="1006" /><glyph d="M186 490H114L45 0H119L153 243C169 358 230 433 328 433C396 433 435 394 435 323C435 313 435 302 433 291L392 0H467L506 280C509 298 510 314 510 330C510 437 442 502 333 502C275 502 211 473 178 431ZM588 500C588 407 656 334 755 334C875 334 976 430 976 544C976 638 908 711 808 711C689 711 588 615 588 500ZM654 505C654 588 718 654 800 654C868 654 910 605 910 540C910 457 846 391 763 391C696 391 654 440 654 505ZM1224 488C1256 480 1271 464 1271 445C1271 410 1237 389 1184 389C1141 389 1102 410 1078 443L1031 402C1054 367 1105 334 1175 334C1271 334 1336 385 1336 455C1336 504 1300 534 1241 547L1184 560C1153 567 1139 583 1139 603C1139 634 1169 656 1211 656C1261 656 1288 628 1304 611L1352 653C1320 689 1277 711 1222 711C1149 711 1074 670 1074 593C1074 547 1105 516 1169 501Z" glyph-name="numeroLC_s" horiz-adv-x="1389" /><glyph d="M578 500C578 407 646 334 745 334C865 334 966 430 966 544C966 638 898 711 798 711C679 711 578 615 578 500ZM644 505C644 588 708 654 790 654C858 654 900 605 900 540C900 457 836 391 753 391C686 391 644 440 644 505ZM114 490 45 0H119L178 422H417L358 0H432L501 490ZM1202 711C1130 711 1060 670 1060 603C1060 563 1088 535 1119 516L1245 439C1235 412 1204 390 1156 390C1115 390 1083 411 1058 444L1012 401C1037 366 1080 334 1150 334C1242 334 1302 388 1319 465L1166 562C1140 578 1127 592 1127 610C1127 634 1150 655 1191 655C1237 655 1260 630 1281 609L1330 654C1297 689 1257 711 1202 711Z" glyph-name="numeroLC_s.ss01" horiz-adv-x="1365" /><glyph d="M505 0H584L683 700H606L524 121L208 700H130L31 0H107L189 577ZM754 500C754 407 822 334 921 334C1041 334 1142 430 1142 544C1142 638 1074 711 974 711C855 711 754 615 754 500ZM820 505C820 588 884 654 966 654C1034 654 1076 605 1076 540C1076 457 1012 391 929 391C862 391 820 440 820 505ZM1390 488C1422 480 1437 464 1437 445C1437 410 1403 389 1350 389C1307 389 1268 410 1244 443L1197 402C1220 367 1271 334 1341 334C1437 334 1502 385 1502 455C1502 504 1466 534 1407 547L1350 560C1319 567 1305 583 1305 603C1305 634 1335 656 1377 656C1427 656 1454 628 1470 611L1518 653C1486 689 1443 711 1388 711C1315 711 1240 670 1240 593C1240 547 1271 516 1335 501Z" glyph-name="numero_s" horiz-adv-x="1555" /><glyph d="M574 -17H583L684 700H607L531 172L142 718H133L32 0H108L182 528ZM755 500C755 407 823 334 922 334C1042 334 1143 430 1143 544C1143 638 1075 711 975 711C856 711 755 615 755 500ZM821 505C821 588 885 654 967 654C1035 654 1077 605 1077 540C1077 457 1013 391 930 391C863 391 821 440 821 505ZM1391 488C1423 480 1438 464 1438 445C1438 410 1404 389 1351 389C1308 389 1269 410 1245 443L1198 402C1221 367 1272 334 1342 334C1438 334 1503 385 1503 455C1503 504 1467 534 1408 547L1351 560C1320 567 1306 583 1306 603C1306 634 1336 656 1378 656C1428 656 1455 628 1471 611L1519 653C1487 689 1444 711 1389 711C1316 711 1241 670 1241 593C1241 547 1272 516 1336 501Z" glyph-name="numero_s.ss02" horiz-adv-x="1556" /><glyph d="M54 218C54 93 138 -11 276 -11C431 -11 553 111 553 272C553 397 468 502 329 502C175 502 54 379 54 218ZM130 219C130 337 213 432 324 432C415 432 476 363 476 271C476 153 393 58 281 58C192 58 130 127 130 219Z" glyph-name="o" horiz-adv-x="608" unicode="o" /><glyph d="M40 500C40 407 108 334 207 334C327 334 428 430 428 544C428 638 360 711 260 711C141 711 40 615 40 500ZM106 505C106 588 170 654 252 654C320 654 362 605 362 540C362 457 298 391 215 391C148 391 106 440 106 505Z" glyph-name="o.ordn" horiz-adv-x="468" /><glyph d="M54 218C54 93 138 -11 276 -11C431 -11 553 111 553 272C553 397 468 502 329 502C175 502 54 379 54 218ZM130 219C130 337 213 432 324 432C415 432 476 363 476 271C476 153 393 58 281 58C192 58 130 127 130 219ZM387 700 278 569H352L484 700Z" glyph-name="oacute" horiz-adv-x="608" unicode="&#243;" /><glyph d="M54 218C54 93 138 -11 276 -11C431 -11 553 111 553 272C553 397 468 502 329 502C175 502 54 379 54 218ZM130 219C130 337 213 432 324 432C415 432 476 363 476 271C476 153 393 58 281 58C192 58 130 127 130 219ZM343 558C427 558 485 618 503 700H436C424 654 395 626 352 626C310 626 288 654 290 700H224C218 618 260 558 343 558Z" glyph-name="obreve" horiz-adv-x="608" unicode="&#335;" /><glyph d="M54 218C54 93 138 -11 276 -11C431 -11 553 111 553 272C553 397 468 502 329 502C175 502 54 379 54 218ZM130 219C130 337 213 432 324 432C415 432 476 363 476 271C476 153 393 58 281 58C192 58 130 127 130 219ZM316 700 201 569H277L360 651L420 569H492L413 700Z" glyph-name="ocircumflex" horiz-adv-x="608" unicode="&#244;" /><glyph d="M54 218C54 93 138 -11 276 -11C431 -11 553 111 553 272C553 397 468 502 329 502C175 502 54 379 54 218ZM130 219C130 337 213 432 324 432C415 432 476 363 476 271C476 153 393 58 281 58C192 58 130 127 130 219ZM218 653C218 624 240 602 269 602C298 602 321 624 321 653C321 682 298 705 269 705C240 705 218 682 218 653ZM399 653C399 624 421 602 450 602C479 602 502 624 502 653C502 682 479 705 450 705C421 705 399 682 399 653Z" glyph-name="odieresis" horiz-adv-x="608" unicode="&#246;" /><glyph d="M54 218C54 93 138 -11 276 -11C431 -11 553 111 553 272C553 397 468 502 329 502C175 502 54 379 54 218ZM130 219C130 337 213 432 324 432C415 432 476 363 476 271C476 153 393 58 281 58C192 58 130 127 130 219ZM299 603 313 700H228L214 603ZM472 603 486 700H401L387 603Z" glyph-name="odieresis.ss03" horiz-adv-x="608" /><glyph d="M911 222C911 222 920 250 920 292C920 393 871 502 733 502C645 502 569 456 521 383C488 456 426 502 338 502C184 502 53 369 53 213C53 88 138 -11 266 -11C354 -11 439 33 492 106C527 31 583 -11 678 -11C767 -11 831 30 882 83L838 130C795 84 745 58 687 58C591 58 538 120 547 222ZM129 219C129 337 217 432 328 432C416 432 475 366 475 272C475 151 385 58 275 58C186 58 129 127 129 219ZM724 432C806 432 853 374 846 288H558C581 369 638 432 724 432Z" glyph-name="oe" horiz-adv-x="973" unicode="&#339;" /><glyph d="M652 157C760 157 856 235 856 345C856 433 785 502 691 502C615 502 548 465 512 408C478 465 417 502 334 502C179 502 54 378 54 223C54 98 140 0 268 0H794L803 67H450C491 104 520 153 534 209C560 177 599 157 652 157ZM131 224C131 343 218 432 329 432C420 432 476 367 476 276C476 157 390 68 278 68C188 68 131 133 131 224ZM657 226C597 226 561 268 561 317C561 377 614 433 686 433C745 433 781 390 781 341C781 281 727 226 657 226Z" glyph-name="oe.ss01" horiz-adv-x="902" /><glyph d="M308 -125H303C262 -125 248 -110 248 -90C248 -66 259 -46 325 0L260 5C214 -21 175 -65 175 -108C175 -158 206 -184 264 -184C279 -184 292 -182 300 -180Z" glyph-name="ogonek" horiz-adv-x="500" unicode="&#731;" /><glyph d="M308 -125H303C262 -125 248 -110 248 -90C248 -66 259 -46 325 0L260 5C214 -21 175 -65 175 -114C175 -158 206 -184 264 -184C279 -184 292 -182 300 -180Z" glyph-name="ogonek.cap" horiz-adv-x="500" /><glyph d="M54 218C54 93 138 -11 276 -11C431 -11 553 111 553 272C553 397 468 502 329 502C175 502 54 379 54 218ZM130 219C130 337 213 432 324 432C415 432 476 363 476 271C476 153 393 58 281 58C192 58 130 127 130 219ZM207 700 303 569H377L304 700Z" glyph-name="ograve" horiz-adv-x="608" unicode="&#242;" /><glyph d="M54 218C54 93 138 -11 276 -11C431 -11 553 111 553 272C553 397 468 502 329 502C175 502 54 379 54 218ZM130 219C130 337 213 432 324 432C415 432 476 363 476 271C476 153 393 58 281 58C192 58 130 127 130 219ZM302 700 193 569H267L399 700ZM467 700 358 569H432L564 700Z" glyph-name="ohungarumlaut" horiz-adv-x="608" unicode="&#337;" /><glyph d="M54 218C54 93 138 -11 276 -11C431 -11 553 111 553 272C553 397 468 502 329 502C175 502 54 379 54 218ZM130 219C130 337 213 432 324 432C415 432 476 363 476 271C476 153 393 58 281 58C192 58 130 127 130 219ZM251 700 241 632H469L479 700Z" glyph-name="omacron" horiz-adv-x="608" unicode="&#333;" /><glyph d="M18 72 8 0H432L442 72H273L362 700H297C254 632 164 607 93 604L83 536C152 536 225 555 268 586L196 72Z" glyph-name="one" horiz-adv-x="527" unicode="1" /></font>
</defs>
</svg>
