<?xml version="1.0" standalone="no"?>
<!DOCTYPE svg PUBLIC "-//W3C//DTD SVG 1.1//EN" "http://www.w3.org/Graphics/SVG/1.1/DTD/svg11.dtd" >
<svg>
<metadata>
Created by FontForge 20090622 at Wed Feb 24 21:36:19 2016
 By deploy user
Copyright &#239;&#190;&#169; 2004, Joshua Darden &#38; Phil's Fonts, Inc. All rights reserved. Published by Garagefonts USA 301-260-2285 www.garagefonts.com
</metadata>
<defs>
<font id="FreightTextBold" horiz-adv-x="400" >
  <font-face 
    font-family="FreightText Bold"
    font-weight="400"
    font-stretch="normal"
    units-per-em="1000"
    panose-1="2 0 8 3 8 0 0 2 0 4"
    ascent="800"
    descent="-200"
    x-height="453"
    cap-height="625"
    bbox="-79 -275 1109 879"
    underline-thickness="20"
    underline-position="-113"
    unicode-range="U+0020-U+FB04"
  />
<missing-glyph horiz-adv-x="500" 
 />
    <glyph glyph-name=".notdef" horiz-adv-x="500" 
 />
    <glyph glyph-name=".null" horiz-adv-x="0" 
 />
    <glyph glyph-name="nonmarkingreturn" horiz-adv-x="160" 
 />
    <glyph glyph-name="space" unicode=" " horiz-adv-x="160" 
 />
    <glyph glyph-name="space" unicode="&#xa0;" horiz-adv-x="160" 
 />
    <glyph glyph-name="lslash" unicode="&#x142;" horiz-adv-x="291" 
d="M204 77q0 -9 5.5 -16.5t17.5 -10.5l42 -11l3 -39h-245l3 39l34 11q23 11 23 27v114l-83 -22v48q24 6 42 11q16 5 28.5 8.5t12.5 2.5v313q0 14 -4.5 21t-12.5 12l-51 25l3 29l182 58v-425l81 22v-49l-81 -22v-146z" />
    <glyph glyph-name="Scaron" unicode="&#x160;" horiz-adv-x="549" 
d="M506 184q0 -40 -16.5 -76t-48 -63.5t-77.5 -44t-105 -16.5q-63 0 -107.5 8t-89.5 21l-10 193h66l44 -149q26 -10 53.5 -15.5t52.5 -5.5q33 0 56.5 8.5t38.5 22.5t22 32t7 37q0 28 -11 47.5t-31 34t-47 25t-60 21.5q-41 14 -75.5 29t-60 36.5t-40 51t-14.5 70.5
q0 37 14.5 70.5t44 59.5t73 41.5t101.5 15.5q43 1 72.5 -3t64.5 -11l53 15v-208h-63l-40 137q-24 9 -47 13.5t-49 4.5q-57 0 -85.5 -26.5t-28.5 -61.5q0 -25 10.5 -42.5t29 -30.5t44 -23l55.5 -21q46 -15 83.5 -31t64.5 -38.5t41.5 -53.5t14.5 -74zM301 682h-54l-116 197h37
l105 -105h2l105 105h37z" />
    <glyph glyph-name="scaron" unicode="&#x161;" horiz-adv-x="429" 
d="M395 133q0 -30 -13 -57t-37.5 -47.5t-61 -32t-83.5 -11.5q-41 0 -82 6t-72 18l-5 133h68l24 -91q15 -8 35 -15t41 -7q36 0 62 20t26 52q0 17 -9.5 28.5t-25 21t-36 17l-41.5 15.5q-28 10 -53 21.5t-44.5 28t-31 40t-11.5 56.5q0 29 12 54.5t34.5 44.5t55.5 30t75 11
q34 0 61 -4.5t47 -11.5l44 11l5 -148h-63l-27 88q-14 8 -32 14t-38 6q-34 0 -55 -17t-21 -43q0 -17 7 -29t21 -21t34 -17t45 -17q27 -10 53.5 -22t46.5 -28.5t32.5 -40t12.5 -56.5zM242 515h-54l-116 197h37l105 -105h2l105 105h37z" />
    <glyph glyph-name="Yacute" unicode="&#xdd;" horiz-adv-x="606" 
d="M615 584l-20 -6q-12 -4 -22.5 -9t-22.5 -16.5t-26 -30.5t-33 -50l-119 -206v-205q0 -7 6.5 -11t29.5 -6l49 -4l3 -40h-309l3 40l51 4q35 4 35 19v190l-171 285q-9 14 -20.5 23.5t-28.5 14.5l-29 8l-3 41h285l-3 -41l-35 -6q-10 -2 -15.5 -8t-5 -18t8 -31.5t23.5 -48.5
l89 -160h7l89 159q32 54 30 78t-32 29l-28 6l-3 41h220zM285 682h-46l94 182h129z" />
    <glyph glyph-name="yacute" unicode="&#xfd;" horiz-adv-x="483" 
d="M503 415l-30 -6q-19 -3 -29.5 -17t-22.5 -43l-120 -314l-57 -168q-23 -66 -51.5 -97.5t-73.5 -31.5q-32 0 -54 18t-22 45q0 23 14 41.5t42 18.5q26 0 41.5 -13t22.5 -29q12 5 22 21.5t21 51.5l26 76v6l-178 396q-7 16 -15.5 23t-28.5 12l-23 9l-4 39h248l-3 -39l-30 -8
q-29 -6 -16 -38l106 -250l81 231q10 27 5.5 39.5t-23.5 15.5l-33 11l-3 38h191zM223 515h-46l94 182h129z" />
    <glyph glyph-name="Thorn" unicode="&#xde;" horiz-adv-x="615" 
d="M574 328q0 -49 -21.5 -86.5t-58.5 -63.5t-84.5 -39.5t-100.5 -13.5q-17 0 -34 1t-34 3v-68q0 -7 7 -11t30 -6l48 -4l3 -40h-293l3 40l36 4q19 2 26.5 6.5t7.5 12.5v501q0 7 -6.5 11t-31.5 6l-32 5l-3 40l279 -1l-3 -40l-36 -4q-35 -3 -35 -19v-58h76q127 0 192 -49
t65 -127zM431 310q0 70 -38.5 111t-112.5 41h-39v-286q17 -4 32.5 -5.5t35.5 -1.5q57 0 89.5 39t32.5 102z" />
    <glyph glyph-name="thorn" unicode="&#xfe;" horiz-adv-x="552" 
d="M519 246q0 -52 -17 -99t-49 -83t-77 -57.5t-102 -21.5q-21 0 -44 4t-39 9h-2v-184q0 -16 38 -18l34 -3l3 -39h-257l3 39l28 3q34 3 34 19v739q0 26 -17 34l-51 24l3 29l182 56v-310h5q28 32 64 53.5t78 21.5q41 0 74.5 -17t57.5 -46t37.5 -68.5t13.5 -84.5zM392 202
q0 81 -33 127.5t-85 46.5q-26 0 -48.5 -11t-36.5 -25v-249q26 -29 50 -45t53 -16q40 0 70 45t30 127z" />
    <glyph glyph-name="Zcaron" unicode="&#x17d;" horiz-adv-x="606" 
d="M560 0h-524v45l380 529v5h-110q-45 0 -73 -3.5t-45.5 -13t-26.5 -26t-17 -42.5l-20 -77h-66v208h513v-46l-385 -529v-5h126q53 0 84 5t49 15t27 25.5t16 37.5l22 72h71zM330 682h-54l-116 197h37l105 -105h2l105 105h37z" />
    <glyph glyph-name="zcaron" unicode="&#x17e;" horiz-adv-x="484" 
d="M165 44l57 1q44 1 70.5 4t43 10.5t26.5 20t20 31.5l37 72h57l-43 -183h-406v38l280 371l-41 -1q-40 -1 -65 -3.5t-39.5 -9.5t-22 -19t-13.5 -32l-24 -72h-57v181h402v-38zM269 515h-54l-116 197h37l105 -105h2l105 105h37z" />
    <glyph glyph-name="Lslash" unicode="&#x141;" horiz-adv-x="579" 
d="M111 194q0 1 -12 -2.5l-26 -7.5q-17 -4 -39 -10v48l77 21v308q0 19 -23 24l-49 11l-3 39h281l-3 -39l-53 -11q-23 -5 -23 -24v-274l102 28v-49l-102 -27v-185h18q60 0 95.5 2.5t55.5 10.5t29.5 22.5t18.5 39.5l25 85h69l-21 -204h-492l3 39l49 11q23 5 23 24v120v0z" />
    <glyph glyph-name="exclam" unicode="!" horiz-adv-x="294" 
d="M161 201q-2 -8 -13 -8t-12 8l-53 385q-4 25 12.5 39t51.5 14h2q35 0 51.5 -14t12.5 -39zM217 54q0 -28 -19.5 -49t-49.5 -21q-29 0 -49.5 20.5t-20.5 49.5t20.5 49t49.5 20q30 0 49.5 -20.5t19.5 -48.5z" />
    <glyph glyph-name="quotedbl" unicode="&#x22;" horiz-adv-x="395" 
d="M224 403h-45l111 242h1l91 -31zM53 403h-46l111 242h2l91 -31z" />
    <glyph glyph-name="numbersign" unicode="#" horiz-adv-x="581" 
d="M444 398l-47 -173h125v-48h-137l-49 -183h-49l49 183h-157l-50 -183h-49l50 183h-125v48h137l47 173h-125v47h137l51 186h49l-50 -186h156l50 186h49l-50 -186h125v-47h-137zM395 398h-157l-47 -173h158z" />
    <glyph glyph-name="dollar" unicode="$" horiz-adv-x="545" 
d="M175 -152h-50l37 143q-26 4 -49.5 9.5t-47.5 12.5l-10 193h63l43 -153q3 -2 7.5 -2.5t7.5 -1.5l57 220q-38 13 -70.5 28t-56 36t-36.5 49.5t-13 68.5q0 37 14.5 70.5t43 59.5t71.5 41.5t101 15.5h21t18 -1q0 1 4 16l9 34l13 50h50l-27 -104l23 -4t25 -5l53 15v-208h-61
l-38 138q-3 2 -8 3t-9 2l-50 -194q42 -14 78 -30.5t62.5 -39t41 -53t14.5 -73.5q0 -40 -16.5 -76t-47.5 -63.5t-76.5 -44t-104.5 -16.5q-14 0 -26.5 0.5t-24.5 1.5zM264 396l24 93q5 18 9 34.5l7.5 30l5.5 21l2 7.5q-8 2 -17 3t-17 1q-57 0 -85.5 -26.5t-28.5 -61.5
q0 -21 7 -36t20.5 -27t32 -21.5t40.5 -17.5zM224 41q12 -2 23.5 -3.5t22.5 -0.5q33 0 56.5 8.5t38.5 22t22 31.5t7 37q0 25 -8.5 42.5t-23.5 31t-36 24t-47 19.5z" />
    <glyph glyph-name="percent" unicode="%" horiz-adv-x="746" 
d="M349 482q0 -33 -11.5 -63t-33 -52.5t-52 -36t-69.5 -13.5q-38 0 -69 13.5t-52.5 36t-33 52.5t-11.5 63q0 34 11.5 64.5t33 53t52.5 36t69 13.5q39 0 69.5 -13.5t52 -36t33 -53t11.5 -64.5zM147 -15h-54l507 654h54zM729 142q0 -34 -11.5 -64.5t-33 -53t-52.5 -36
t-69 -13.5q-39 0 -69.5 13.5t-52 36t-33 53t-11.5 64.5q0 33 11.5 63t33 52.5t52 36t69.5 13.5q38 0 69 -13.5t52.5 -36t33 -52.5t11.5 -63zM300 482q0 25 -8 47.5t-23 39t-37 26t-49 9.5t-49 -9.5t-37 -26t-23 -39t-8 -47.5q0 -24 8 -45.5t23 -38t37 -26.5t49 -10t49 10
t37 26.5t23 38t8 45.5zM680 142q0 24 -8 45.5t-23 38t-37 26.5t-49 10t-49 -10t-37 -26.5t-23 -38t-8 -45.5q0 -25 8 -47.5t23 -39t37 -26t49 -9.5t49 9.5t37 26t23 39t8 47.5z" />
    <glyph glyph-name="ampersand" unicode="&#x26;" horiz-adv-x="717" 
d="M718 64q-15 -15 -32 -29.5t-36 -26t-41 -18t-48 -6.5q-53 0 -88 28.5t-61 82.5q-37 -45 -89 -78t-120 -33q-41 0 -74 13t-56 35t-35.5 51.5t-12.5 62.5t11.5 61t31.5 51.5t46 40.5t55 27q-47 24 -73 61.5t-26 87.5q0 35 16 64.5t44.5 52t66.5 35t83 12.5q38 0 70 -9.5
t55 -27t36 -41t13 -51.5q0 -54 -37 -92t-94 -55q96 -47 152 -133l23 31l15.5 23t7.5 16q14 23 8 33t-24 15l-26 7l-3 38h223l-4 -38l-29 -8q-20 -5 -42.5 -19t-39.5 -36l-86 -102l26 -50t26 -40t31.5 -26.5t41.5 -9.5q22 0 42.5 7.5t37.5 16.5l15 -24v0zM344 499
q0 18 -5 35.5t-15.5 31t-25.5 21.5t-35 8q-39 0 -61.5 -24.5t-22.5 -59.5q0 -41 25 -73t84 -58q30 21 43 52t13 67zM395 135q-16 35 -36 61t-44.5 46.5t-52.5 36t-60 28.5q-29 -22 -46 -51t-17 -64q0 -26 9.5 -48t26.5 -38.5t40.5 -26t50.5 -9.5q33 0 68.5 16.5t60.5 48.5z
" />
    <glyph glyph-name="quotesingle" unicode="'" horiz-adv-x="224" 
d="M53 403h-46l112 242h1l91 -31z" />
    <glyph glyph-name="parenleft" unicode="(" horiz-adv-x="395" 
d="M359 -241q-41 20 -88.5 61t-87.5 100t-66.5 135t-26.5 167t26.5 167t66.5 135t87.5 100t88.5 61l27 -38q-38 -21 -80 -60t-77.5 -93.5t-59 -123t-23.5 -148.5t23.5 -148.5t59 -123t77.5 -93t80 -58.5l-27 -40v0z" />
    <glyph glyph-name="parenright" unicode=")" horiz-adv-x="395" 
d="M9 -203q38 21 80 60t77.5 93.5t59 123t23.5 148.5t-23.5 148.5t-59 123t-77.5 93.5t-80 60l29 38q41 -20 87.5 -61t86.5 -100t66.5 -135t26.5 -167t-26.5 -167t-66.5 -135t-86.5 -100t-87.5 -61z" />
    <glyph glyph-name="asterisk" unicode="*" horiz-adv-x="354" 
d="M304 426l-102 41l-10 -13l71 -84l-18 -57l-21 -7l-51 34l6 111l-15 4l-54 -93l-62 -2l-14 17l16 60l105 28v20l-105 29l-17 59l14 18l63 -2l54 -94l16 5l-6 110l50 33l22 -7l18 -57l-72 -84l10 -13l102 41l48 -38v-22z" />
    <glyph glyph-name="plus" unicode="+" horiz-adv-x="480" 
d="M269 206v-182h-57v182h-183l3 57h180v183h57v-183h179l3 -57h-182z" />
    <glyph glyph-name="comma" unicode="," horiz-adv-x="232" 
d="M209 27q0 -32 -12.5 -61t-33.5 -55.5t-49.5 -50.5t-60.5 -45l-29 24q39 27 65.5 59.5t26.5 72.5q0 24 -14 41t-30.5 28t-30.5 16.5t-14 6.5q0 27 21 49.5t57 22.5q21 0 39.5 -8.5t33 -23t23 -34t8.5 -42.5z" />
    <glyph glyph-name="hyphen" unicode="-" horiz-adv-x="333" 
d="M33 215l3 60h263l3 -60h-269z" />
    <glyph glyph-name="period" unicode="." horiz-adv-x="233" 
d="M194 62q0 -31 -22 -54.5t-55 -23.5t-55.5 23t-22.5 55t22.5 54.5t55.5 22.5t55 -22.5t22 -54.5z" />
    <glyph glyph-name="slash" unicode="/" horiz-adv-x="279" 
d="M220 683h53l-216 -877h-53z" />
    <glyph glyph-name="zero" unicode="0" horiz-adv-x="569" 
d="M530 238q0 -57 -18 -103.5t-51 -79.5t-78.5 -51.5t-99.5 -18.5t-99 18t-77 51t-50 79t-18 103t18 104t51 80.5t78 52t99 18.5t99.5 -18t77.5 -51.5t50 -80t18 -103.5zM447 236q0 38 -12 70t-34 55t-52 36t-66 13t-65.5 -12.5t-51 -35.5t-33 -54.5t-11.5 -69.5t12 -69.5
t33.5 -54.5t51.5 -36t66 -13t66 12.5t51 35t33 54t12 69.5z" />
    <glyph glyph-name="one" unicode="1" horiz-adv-x="381" 
d="M56 0l3 42l59 11q23 5 23 23v322l-107 10l3 34l221 50v-416q0 -19 23 -23l63 -11l3 -42h-291z" />
    <glyph glyph-name="two" unicode="2" horiz-adv-x="488" 
d="M448 0h-410l-7 71l90.5 66.5t74.5 61t51 58t19 56.5q0 40 -26.5 66t-68.5 26q-35 0 -61.5 -20.5t-47.5 -47.5l-22 12q11 36 31.5 62.5t47 44.5t57 26.5t62.5 8.5t60.5 -9.5t49.5 -27t33 -41.5t12 -54q0 -37 -21 -69t-57.5 -63.5t-85 -64.5l-103.5 -71v-5h56q67 0 107 1.5
t62.5 5.5t32.5 12.5t17 21.5l22 42h38z" />
    <glyph glyph-name="three" unicode="3" horiz-adv-x="438" 
d="M229 185q39 0 72 -10.5t57.5 -31t38.5 -49t14 -64.5q0 -49 -21.5 -91t-57.5 -73t-84 -48.5t-101 -17.5q-60 0 -99.5 24.5t-39.5 63.5q0 24 17 40.5t40 16.5q18 0 32 -9t24.5 -22.5t16.5 -31t8 -33.5q5 -1 8.5 -1h7.5q24 0 47.5 9.5t42 27t30 43.5t11.5 59q0 60 -35 95.5
t-89 35.5q-41 0 -81 -17l-13 33l66 41t56.5 40.5t39 43.5t14.5 51q0 39 -27.5 67t-69.5 28q-35 0 -65 -20.5t-51 -47.5q-1 0 -5 2l-8 4t-7 4t-2 2q11 35 32 61.5t48.5 44.5t59 27t63.5 9q35 0 63.5 -10t49 -27t32 -40.5t11.5 -49.5q0 -55 -38 -95.5t-108 -79.5v-4z" />
    <glyph glyph-name="four" unicode="4" horiz-adv-x="523" 
d="M402 14v-198h-111v198h-275l-5 39l318 432h73v-395h120l-7 -76h-113zM291 357h-4l-197 -267h201v267z" />
    <glyph glyph-name="five" unicode="5" horiz-adv-x="448" 
d="M122 264q73 -18 125 -43t85.5 -54t49 -63t15.5 -70q0 -48 -22 -91t-58 -74.5t-81.5 -50t-92.5 -18.5q-64 0 -102.5 22.5t-38.5 64.5q0 25 16 41.5t40 16.5q31 0 53 -25.5t26 -65.5q9 -3 16 -5t21 -2q26 0 48 10.5t38.5 28.5t26 42t9.5 51q0 70 -62.5 117t-187.5 76
l76 304h287l-3 -104h-256l-28 -108v0z" />
    <glyph glyph-name="six" unicode="6" horiz-adv-x="538" 
d="M497 210q0 -49 -18.5 -91t-50.5 -72t-74 -47t-89 -17q-52 0 -94.5 20.5t-71.5 55.5t-45 82.5t-16 101.5q0 85 34 159.5t93.5 131t140 91.5t172.5 41l12 -38q-70 -10 -124 -36.5t-94 -64t-65.5 -83t-37.5 -92.5l3 -2q33 27 71 41t75 14q39 0 72 -14.5t56.5 -40t37 -61.5
t13.5 -79zM375 174q0 77 -34 119.5t-85 42.5q-26 0 -48 -10t-36 -23q-3 -8 -5 -22t-2 -39q0 -37 8 -74.5t23 -67t37 -48t51 -18.5q45 0 68 38.5t23 101.5z" />
    <glyph glyph-name="seven" unicode="7" horiz-adv-x="496" 
d="M162 -184h-73l298 562v3h-125q-55 0 -86.5 -1t-47.5 -4t-22 -8.5t-11 -15.5l-30 -60h-38l23 184h421l5 -42z" />
    <glyph glyph-name="eight" unicode="8" horiz-adv-x="529" 
d="M488 166q0 -36 -16 -69t-46 -57.5t-73 -39.5t-97 -15q-43 0 -82.5 11t-69 32t-46.5 51t-17 67q1 51 36 92t97 60v1q-24 13 -46 28t-38.5 34.5t-26.5 44t-10 55.5q0 30 13.5 62t40 58t66.5 42.5t95 16.5q43 0 80 -11.5t64 -32t42 -50t15 -65.5q-1 -49 -34 -83t-90 -54v-1
q27 -14 52.5 -30.5t46 -37.5t32.5 -47.5t12 -61.5zM359 472q0 25 -7.5 48t-22 41t-34.5 28.5t-45 10.5q-45 0 -70 -27t-25 -63q0 -30 13 -52t34 -39t48 -30.5l55 -27.5q26 19 39.5 46t14.5 65zM386 116q0 34 -15 58t-39.5 42.5t-55.5 33.5l-61 30q-27 -22 -45 -53.5
t-18 -71.5q0 -27 9 -50.5t25.5 -41t39.5 -27.5t51 -10q51 0 80 26t29 64z" />
    <glyph glyph-name="nine" unicode="9" horiz-adv-x="538" 
d="M497 233q0 -85 -34 -159.5t-93.5 -131t-140 -91.5t-172.5 -41l-11 38q69 10 123.5 36.5t94.5 64t65 83t37 92.5l-3 2q-33 -27 -71 -41t-75 -14q-39 0 -72 14.5t-56.5 40t-37 61.5t-13.5 79q0 50 18.5 91.5t50.5 71.5t74.5 47t89.5 17q53 0 94.5 -20.5t71 -55.5t45 -82.5
t15.5 -101.5zM370 234q0 38 -8 75t-23 66.5t-37 48t-51 18.5q-45 0 -68 -38.5t-23 -101.5q0 -77 34 -119.5t85 -42.5q26 0 48 10t36 23q3 8 5 22t2 39z" />
    <glyph glyph-name="colon" unicode=":" horiz-adv-x="232" 
d="M194 365q0 -32 -22 -55t-55 -23t-55.5 23t-22.5 55t22.5 54.5t55.5 22.5t55 -23t22 -54zM194 63q0 -32 -22 -55t-55 -23t-55.5 23t-22.5 55t22.5 54.5t55.5 22.5t55 -23t22 -54z" />
    <glyph glyph-name="semicolon" unicode=";" horiz-adv-x="232" 
d="M190 365q0 -32 -22 -55t-55 -23t-55.5 23t-22.5 55t22.5 54.5t55.5 22.5t55 -23t22 -54zM209 27q0 -32 -12.5 -61t-33.5 -55.5t-49.5 -50.5t-60.5 -45l-29 24q39 27 65.5 59.5t26.5 72.5q0 24 -14 41t-30.5 28t-30.5 16.5t-14 6.5q0 27 21 49.5t57 22.5q21 0 39.5 -8.5
t33 -23t23 -34t8.5 -42.5z" />
    <glyph glyph-name="less" unicode="&#x3c;" horiz-adv-x="480" 
d="M26 220v29l406 188l14 -52l-326 -149v-1l326 -150l-14 -52z" />
    <glyph glyph-name="equal" unicode="=" horiz-adv-x="480" 
d="M42 292l-3 56h402l-3 -56h-396zM39 121l3 56h396l3 -56h-402z" />
    <glyph glyph-name="greater" unicode="&#x3e;" horiz-adv-x="480" 
d="M48 33l-14 52l326 150v1l-326 149l14 52l406 -188v-29z" />
    <glyph glyph-name="question" unicode="?" horiz-adv-x="393" 
d="M358 456q0 -34 -8 -56.5t-23 -38t-36.5 -25.5t-48.5 -21q-15 -6 -29.5 -11t-25 -12t-17 -16t-6.5 -21q0 -16 10.5 -32.5t25.5 -34.5h-41q-13 8 -25.5 19t-22.5 24.5t-16 29.5t-6 32q0 26 9 44t26 31.5t40.5 23.5t51.5 19q35 11 61 23t26 32q0 14 -12.5 26t-33.5 20.5
t-48.5 13t-56.5 4.5q-22 0 -42 -3t-35 -5q-10 8 -16 21t-6 26q0 30 24 50t72 20q39 0 77 -14.5t67 -39.5t47 -58.5t18 -70.5zM244 54q0 -28 -19.5 -49t-49.5 -21q-29 0 -49.5 20.5t-20.5 49.5t20.5 49t49.5 20q30 0 49.5 -20.5t19.5 -48.5z" />
    <glyph glyph-name="at" unicode="@" horiz-adv-x="872" 
d="M482 117q0 5 4.5 22.5t10.5 38l11.5 39l7.5 25.5h-13l-44.5 -74t-42.5 -61t-42.5 -41.5t-44.5 -15.5t-43 9t-35 24t-23.5 35.5t-8.5 44.5q0 30 9 65.5t24.5 70.5t36 67t44.5 55q27 27 58.5 42t60.5 15q37 0 59.5 -20t33.5 -58h10l27 71h87l-60 -168l-35 -173
q-4 -17 13.5 -31t50.5 -14q32 0 59.5 16.5t48 45.5t33 68t13.5 84q3 72 -21 130t-69 99t-107.5 64t-136.5 24q-75 1 -141 -27.5t-116 -77.5t-80 -114.5t-32 -138.5q-2 -81 23.5 -147.5t72 -114t110 -73.5t137.5 -26q32 0 64 5.5t63 14.5l11 -37q-37 -13 -70.5 -19t-72.5 -6
q-81 0 -152.5 30t-123.5 83.5t-81.5 126.5t-26.5 160q2 84 35.5 157.5t90 128.5t132 86t161.5 30q81 -1 151 -27t121 -72.5t79 -111.5t25 -145q-2 -58 -21.5 -107t-51.5 -85t-74 -56t-89 -20q-34 0 -58 8t-38.5 20t-20 27t-3.5 29zM525 354q-6 12 -18 24t-26 21t-29 15
t-27 6q-20 0 -33 -13q-10 -10 -22.5 -36t-22.5 -58t-17 -65t-7 -58q0 -30 15.5 -47t32.5 -17q12 0 27.5 15t33 38.5t35.5 52.5l35 56q2 3 6 13.5t7.5 22l6.5 20.5t3 10z" />
    <glyph glyph-name="A" unicode="A" horiz-adv-x="631" 
d="M343 0l3 41l39 6q15 2 23 7.5t9 17t-4 31t-16 50.5l-18 55h-204l-13 -41q-20 -60 -17.5 -87.5t30.5 -32.5l33 -6l3 -41h-231l3 41l25 6q17 5 29 11.5t24.5 25t28 55.5t39.5 101l117 324v42l123 36l189 -555q11 -29 48 -37l39 -9l3 -41h-305zM284 509h-9l-85 -252h174z
" />
    <glyph glyph-name="B" unicode="B" horiz-adv-x="616" 
d="M583 166q0 -78 -67.5 -122t-213.5 -44h-266l3 40l36 4q19 2 26.5 6.5t7.5 12.5v500q0 7 -6.5 11t-31.5 7l-32 4l-3 40h278q134 0 191 -37.5t57 -102.5q0 -32 -14 -58.5t-37 -46.5t-54 -33t-66 -18v-5q90 -10 141 -51t51 -107zM420 459q0 55 -34 89.5t-103 34.5h-42v-243
l54 1q60 2 92.5 35.5t32.5 82.5zM442 163q0 35 -12.5 60t-34.5 42t-52.5 25t-65.5 8h-36v-248l55 -11l10 1q28 0 53 8.5t43.5 24t29 38.5t10.5 52z" />
    <glyph glyph-name="C" unicode="C" horiz-adv-x="710" 
d="M627 0l-66 13q-29 -11 -71.5 -20t-93.5 -9q-76 0 -141 20.5t-112 61t-73.5 100t-26.5 137.5q0 77 27 139t75 106t113 67.5t141 23.5q48 0 89 -8t62 -16l92 22v-223h-69l-42 146q-27 14 -57 22t-67 8q-52 0 -93 -20t-69 -56t-42.5 -86t-14.5 -110q0 -65 14.5 -118
t43 -90.5t70 -57.5t94.5 -20q30 0 59 6.5t52 17.5q0 1 8 24l18 51l26 75h73z" />
    <glyph glyph-name="D" unicode="D" horiz-adv-x="718" 
d="M675 327q0 -65 -24.5 -124t-72.5 -104t-118.5 -72t-161.5 -27h-262l3 40l36 4q19 2 26.5 6.5t7.5 12.5v500q0 7 -6.5 11t-31.5 7l-32 4l-3 40l263 4q87 1 156.5 -21t118 -62.5t75 -96.5t26.5 -122zM531 303q0 63 -16 114.5t-48 88t-80 57t-113 20.5h-33v-527l72 -15
q52 1 92.5 21.5t68.5 56t42.5 83t14.5 101.5z" />
    <glyph glyph-name="E" unicode="E" horiz-adv-x="642" 
d="M577 0h-541l3 40l36 4q19 2 26.5 6.5t7.5 12.5v500q0 7 -6.5 11t-31.5 7l-32 4l-3 40h543v-206h-68l-22 83q-7 27 -17 42.5t-31 23.5t-57 10t-96 2h-47v-242h25q43 0 63 5.5t28 26.5l24 68h52l-23 -242h-50l-10 64q-1 9 -4.5 15.5t-13 10.5t-26 5.5t-43.5 1.5h-22v-248
h49q62 0 99 2.5t59 10.5t33.5 23.5t20.5 41.5l22 74h72z" />
    <glyph glyph-name="F" unicode="F" horiz-adv-x="600" 
d="M496 419l-21 83q-8 27 -18.5 43t-31.5 23.5t-57 9.5t-95 2h-32v-253h30q42 0 62.5 5t28.5 27l24 68h52l-23 -242h-50l-10 64q-1 9 -5 15.5t-13 10.5t-25.5 5.5t-43.5 1.5h-27v-221q0 -7 7 -11t30 -6l54 -4l3 -40h-299l3 40l36 4q19 2 26.5 6.5t7.5 12.5v500q0 7 -6.5 11
t-31.5 7l-32 4l-3 40h528v-206h-68z" />
    <glyph glyph-name="G" unicode="G" horiz-adv-x="733" 
d="M698 243l-37 -4q-19 -2 -26.5 -6.5t-7.5 -12.5v-142l61 -6l2 -30q-27 -12 -62 -22.5t-74.5 -18.5t-80.5 -12.5t-79 -4.5q-79 0 -144 22.5t-111 64.5t-71 101t-25 132q0 78 28.5 140t77.5 105.5t114.5 66.5t138.5 23q48 0 88 -8t60 -16l88 22v-220h-74l-39 143
q-25 14 -55.5 22t-66.5 8q-48 0 -87.5 -20.5t-68 -56.5t-44 -85.5t-15.5 -107.5q0 -136 54.5 -212t156.5 -76q27 0 54.5 6t44.5 16v168q0 8 -6.5 11.5t-29.5 5.5l-42 4l-3 40h284z" />
    <glyph glyph-name="H" unicode="H" horiz-adv-x="755" 
d="M440 0l3 40l36 3q21 2 28 7t7 13v232h-273v-234q0 -7 7 -11t30 -6l34 -4l3 -40h-279l3 40l36 4q19 2 26.5 6.5t7.5 12.5v500q0 7 -6.5 11t-31.5 7l-32 4l-3 40h279l-3 -40l-36 -4q-21 -2 -28 -6.5t-7 -12.5v-218h273v220q0 8 -7 11.5t-30 5.5l-34 4l-3 40h280l-3 -40
l-37 -4q-19 -2 -26.5 -6.5t-7.5 -12.5v-500q0 -7 6.5 -11t31.5 -7l33 -4l3 -40h-280z" />
    <glyph glyph-name="I" unicode="I" horiz-adv-x="373" 
d="M37 0l3 40l46 4q35 4 35 19v500q0 7 -7 11t-31 7l-43 4l-3 40h300l-3 -40l-47 -4q-20 -2 -27 -6.5t-7 -12.5v-501q0 -7 6.5 -11t29.5 -6l45 -4l3 -40h-300z" />
    <glyph glyph-name="J" unicode="J" horiz-adv-x="441" 
d="M413 585l-40 -4q-35 -4 -35 -19v-281q0 -79 -14.5 -135.5t-42 -92.5t-67.5 -52.5t-90 -16.5q-26 0 -48 6t-38.5 17t-25.5 25.5t-9 32.5q0 26 17 41.5t43 15.5q15 0 29 -5.5t28 -19.5q24 -24 33 -73h1q15 10 25 24.5t16 37t8.5 55t2.5 78.5v345q0 8 -6.5 11.5t-29.5 5.5
l-54 4l-3 40h303z" />
    <glyph glyph-name="K" unicode="K" horiz-adv-x="679" 
d="M404 0l3 40l23 7q11 3 10.5 13t-8.5 24l-133 210l-58 -55v-178q0 -7 7 -11t30 -6l34 -4l3 -40h-279l3 40l36 4q19 2 26.5 6.5t7.5 12.5v500q0 7 -6.5 11t-31.5 7l-32 4l-3 40h279l-3 -40l-36 -4q-21 -2 -28 -6.5t-7 -12.5v-261l169 173q26 26 38 44.5t14.5 30.5
t-4.5 19.5t-21 10.5l-34 6l-3 40h272l-3 -40l-39 -8q-29 -6 -56 -23.5t-65 -54.5l-120 -117l192 -285q17 -25 31.5 -36.5t36.5 -16.5l24 -4l3 -40h-272z" />
    <glyph glyph-name="L" unicode="L" horiz-adv-x="579" 
d="M530 0h-494l3 40l36 5q19 2 26.5 6.5t7.5 12.5v498q0 7 -6.5 11t-31.5 7l-32 5l-3 40h283l-3 -40l-40 -5q-21 -2 -28 -6.5t-7 -12.5v-516h17q59 0 93.5 2.5t54.5 10.5t29.5 23.5t18.5 41.5l25 82h71z" />
    <glyph glyph-name="M" unicode="M" horiz-adv-x="894" 
d="M571 0l3 39l51 8q7 1 12 9t7.5 28t3 56.5t-1.5 94.5l-9 324h-9l-181 -539h-87l-167 523h-11l-15 -304q-3 -66 -4.5 -104t0 -57.5t6 -24.5t12.5 -6l55 -8l3 -39h-219l3 39l51 8q8 1 14 5.5t11 23t9 56.5t7 107l14 271q2 26 -10 43t-32 22l-53 10l-3 40h274l139 -440h7
l141 440h266l-3 -40l-62 -6q-13 -1 -18.5 -10.5t-5.5 -19.5l8 -314q2 -61 4.5 -98t7 -56.5t10 -26t12.5 -7.5l51 -8l3 -39h-294z" />
    <glyph glyph-name="N" unicode="N" horiz-adv-x="733" 
d="M711 585l-47 -10q-10 -2 -18 -8t-13 -25.5t-7.5 -58.5t-2.5 -108v-383h-92l-359 497h-7v-240q0 -68 2 -107t6.5 -59t12 -25.5t17.5 -7.5l54 -10l3 -40h-236l3 40l47 10q11 2 18.5 8t12.5 25.5t7.5 58t2.5 107.5v257q0 26 -10 41t-27 23l-45 15l-3 40h206l329 -459h8v209
q0 68 -2 107t-6.5 59t-12 26t-18.5 8l-53 10l-3 40h236z" />
    <glyph glyph-name="O" unicode="O" horiz-adv-x="761" 
d="M718 316q0 -72 -27 -133t-73.5 -105.5t-108 -69t-131.5 -24.5q-75 0 -136.5 23.5t-106 65.5t-68.5 101.5t-24 131.5t27 133.5t73.5 105.5t108.5 69t131 25q75 0 136.5 -23.5t106 -66t68.5 -102t24 -131.5zM573 305q0 69 -15.5 122.5t-42 90t-62 55.5t-75.5 19
t-74.5 -17.5t-60.5 -52t-41 -85.5t-15 -119q0 -69 15.5 -123t42.5 -90.5t62.5 -55.5t75.5 -19q39 0 74 17.5t60.5 52t40.5 86t15 119.5z" />
    <glyph glyph-name="P" unicode="P" horiz-adv-x="600" 
d="M574 451q0 -49 -21.5 -87.5t-58.5 -64.5t-84.5 -39.5t-100.5 -13.5q-17 0 -34.5 1t-33.5 3v-189q0 -7 7 -11t30 -6l48 -4l3 -40h-293l3 40l36 4q19 2 26.5 6.5t7.5 12.5v500q0 7 -6.5 11t-31.5 7l-32 4l-3 40h281q63 0 111.5 -13t80.5 -36t48.5 -55t16.5 -70zM431 434
q0 68 -35 108.5t-99 40.5h-56v-287q15 -3 30.5 -5t32.5 -2q57 0 92 39.5t35 105.5z" />
    <glyph glyph-name="Q" unicode="Q" horiz-adv-x="761" 
d="M773 -158q-12 -4 -29 -8t-36.5 -7.5t-41 -5.5t-42.5 -2q-52 0 -93.5 10t-74.5 30t-60 51.5t-52 74.5q-68 5 -123.5 30t-95 67t-61 99t-21.5 125q0 72 27 133.5t73.5 105.5t108.5 69t131 25q75 0 136.5 -23.5t106 -66t68.5 -102t24 -131.5q0 -57 -17 -107.5t-47 -91
t-71.5 -70t-90.5 -45.5q45 -75 115 -102.5t161 -20.5l5 -37v0zM573 305q0 69 -15.5 122.5t-42 90t-62 55.5t-75.5 19t-74.5 -17.5t-60.5 -52t-41 -85.5t-15 -119q0 -69 15.5 -123t42.5 -90.5t62.5 -55.5t75.5 -19q39 0 74 17.5t60.5 52t40.5 86t15 119.5z" />
    <glyph glyph-name="R" unicode="R" horiz-adv-x="635" 
d="M425 447q0 68 -36.5 102.5t-100.5 32.5h-26q-10 0 -21 -1v-264l61 -6q56 7 89.5 39t33.5 97zM556 92q17 -23 27.5 -32.5t26.5 -13.5l28 -6l3 -40h-193l-41 79l-106 193l-60 -1v-210q0 -7 7 -11t30 -6l32 -4l3 -40h-277l3 40l36 4q19 2 26.5 6.5t7.5 12.5v500q0 7 -6.5 11
t-31.5 7l-32 4l-3 40h292q123 0 182 -43t59 -112q0 -60 -37 -104t-106 -69z" />
    <glyph glyph-name="S" unicode="S" horiz-adv-x="549" 
d="M506 184q0 -40 -16.5 -76t-48 -63.5t-77.5 -44t-105 -16.5q-63 0 -107.5 8t-89.5 21l-10 193h66l44 -149q26 -10 53.5 -15.5t52.5 -5.5q33 0 56.5 8.5t38.5 22.5t22 32t7 37q0 28 -11 47.5t-31 34t-47 25t-60 21.5q-41 14 -75.5 29t-60 36.5t-40 51t-14.5 70.5
q0 37 14.5 70.5t44 59.5t73 41.5t101.5 15.5q43 1 72.5 -3t64.5 -11l53 15v-208h-63l-40 137q-24 9 -47 13.5t-49 4.5q-57 0 -85.5 -26.5t-28.5 -61.5q0 -25 10.5 -42.5t29 -30.5t44 -23l55.5 -21q46 -15 83.5 -31t64.5 -38.5t41.5 -53.5t14.5 -74z" />
    <glyph glyph-name="T" unicode="T" horiz-adv-x="641" 
d="M548 415l-21 83q-7 27 -17 43t-25 25t-37.5 12t-55.5 3h-6v-520q0 -7 7 -11t30 -6l49 -4l3 -40h-309l3 40l51 4q19 2 26.5 6.5t7.5 12.5v518h-4q-33 0 -56 -2.5t-38.5 -11t-25.5 -24t-18 -41.5l-23 -87h-72l19 210h578v-210h-66z" />
    <glyph glyph-name="U" unicode="U" horiz-adv-x="710" 
d="M693 585l-47 -10q-11 -2 -18.5 -8t-12.5 -25.5t-7.5 -58.5t-2.5 -108v-165q0 -52 -17 -95t-49.5 -73t-78.5 -46.5t-103 -16.5t-104.5 13t-81 39.5t-52 66.5t-18.5 93v372q0 7 -6.5 11t-31.5 7l-32 4l-3 40h279l-3 -40l-36 -4q-21 -2 -28 -6.5t-7 -12.5v-336
q0 -91 42 -136t118 -45q78 0 119.5 44.5t41.5 136.5v149q0 68 -2 107t-6.5 59t-11.5 26t-18 8l-54 10l-3 40h237z" />
    <glyph glyph-name="V" unicode="V" horiz-adv-x="643" 
d="M664 584l-24 -6q-18 -4 -30 -11t-25 -26.5t-28 -56.5t-39 -102l-139 -382h-123l-187 538q-6 16 -14.5 24.5t-27.5 12.5l-38 9l-3 41h298l-3 -41l-39 -6q-15 -2 -22.5 -7.5t-8 -17t5.5 -31l16 -50.5l123 -364h13l103 303q15 47 21 78t3.5 50.5t-13 28.5t-27.5 12l-30 4
l-3 41h244z" />
    <glyph glyph-name="W" unicode="W" horiz-adv-x="956" 
d="M982 584l-23 -7q-18 -6 -31.5 -13.5t-26 -27t-26.5 -55.5t-34 -99l-124 -382h-101l-122 395h-6l-137 -395h-103l-178 538q-5 16 -14 25t-28 12l-42 9l-3 41h305l-3 -41l-41 -6q-12 -2 -18.5 -8t-7.5 -18t3.5 -31.5t13.5 -48.5l101 -343h8l116 341l-20 68q-9 30 -42 37
l-41 9l-3 41h303l-3 -41l-43 -6q-12 -2 -18 -8t-7 -18t3 -31.5t13 -48.5l99 -343l7 1l75 252q17 58 24.5 94.5t6 57.5t-12 30.5t-28.5 13.5l-35 6l-3 41h249z" />
    <glyph glyph-name="X" unicode="X" horiz-adv-x="639" 
d="M349 0l3 40l32 6q26 5 23 27t-35 68l-78 122h-5l-84 -124q-34 -46 -30 -66.5t32 -26.5l29 -6l3 -40h-240l3 40l40 10q22 5 42 26.5t42 48.5l136 174l-152 216q-19 26 -33 41.5t-24 17.5l-42 11l-3 40h295l-3 -40l-32 -6q-26 -5 -24 -26.5t34 -69.5l64 -99h5l78 113
q29 40 26.5 58.5t-28.5 23.5l-29 6l-3 40h229l-3 -40l-39 -10q-11 -3 -23.5 -12t-25 -21.5t-24.5 -26.5t-22 -28l-107 -138l169 -246q17 -25 29.5 -37t23.5 -15l41 -11l3 -40h-293z" />
    <glyph glyph-name="Y" unicode="Y" horiz-adv-x="606" 
d="M615 584l-20 -6q-12 -4 -22.5 -9t-22.5 -16.5t-26 -30.5t-33 -50l-119 -206v-205q0 -7 6.5 -11t29.5 -6l49 -4l3 -40h-309l3 40l51 4q35 4 35 19v190l-171 285q-9 14 -20.5 23.5t-28.5 14.5l-29 8l-3 41h285l-3 -41l-35 -6q-10 -2 -15.5 -8t-5 -18t8 -31.5t23.5 -48.5
l89 -160h7l89 159q32 54 30 78t-32 29l-28 6l-3 41h220z" />
    <glyph glyph-name="Z" unicode="Z" horiz-adv-x="606" 
d="M560 0h-524v45l380 529v5h-110q-45 0 -73 -3.5t-45.5 -13t-26.5 -26t-17 -42.5l-20 -77h-66v208h513v-46l-385 -529v-5h126q53 0 84 5t49 15t27 25.5t16 37.5l22 72h71z" />
    <glyph glyph-name="bracketleft" unicode="[" horiz-adv-x="368" 
d="M92 -209v873h258v-48h-203v-777h203v-48h-258z" />
    <glyph glyph-name="backslash" unicode="\" horiz-adv-x="279" 
d="M221 -194l-216 877h53l216 -877h-53z" />
    <glyph glyph-name="bracketright" unicode="]" horiz-adv-x="368" 
d="M18 -161h203v777h-203v48h258v-873h-258v48z" />
    <glyph glyph-name="asciicircum" unicode="^" 
d="M306 515l-105 105h-2l-105 -105h-37l116 197h54l116 -197h-37z" />
    <glyph glyph-name="underscore" unicode="_" horiz-adv-x="470" 
d="M-9 -53l3 53h482l3 -53h-488z" />
    <glyph glyph-name="grave" unicode="`" horiz-adv-x="399" 
d="M219 515l-177 182h127l95 -182h-45z" />
    <glyph glyph-name="a" unicode="a" horiz-adv-x="490" 
d="M490 62q-23 -32 -54.5 -55.5t-62.5 -23.5q-30 0 -54 19t-26 64h-5q-29 -35 -59.5 -58t-71.5 -23q-24 0 -46.5 8t-39.5 23t-27 37t-10 50q0 62 64 102t195 73v8q1 65 -25 94t-74 29q-26 0 -47.5 -7t-21.5 -12q0 -2 4 -6.5t8.5 -11t8.5 -16t4 -21.5q0 -19 -16 -35.5
t-43 -16.5q-26 0 -43.5 14.5t-17.5 36.5t20 46t51.5 43.5t71.5 32t79 12.5q41 0 71.5 -9.5t50.5 -32.5t29 -61t6 -94l-7 -165q-1 -23 5 -33t20 -10q16 0 47 25l16 -26v0zM291 242q-45 -12 -73 -25.5t-44.5 -27t-22.5 -28.5t-6 -30q0 -32 20.5 -48t47.5 -16q20 0 39.5 11
t34.5 27z" />
    <glyph glyph-name="b" unicode="b" horiz-adv-x="552" 
d="M519 246q0 -52 -17 -99t-49.5 -83t-78.5 -57.5t-105 -21.5q-11 0 -26.5 2t-32 5.5t-33 8t-31.5 10.5h-1l-59 -32h-14v575q0 26 -17 34l-51 24l3 29l182 56v-310h5q28 32 64 53.5t78 21.5q41 0 74.5 -17t57.5 -46t37.5 -68.5t13.5 -84.5zM392 202q0 81 -33 127.5t-85 46.5
q-26 0 -48.5 -11t-36.5 -25v-249q26 -29 50 -45t53 -16q40 0 70 45t30 127z" />
    <glyph glyph-name="c" unicode="c" horiz-adv-x="468" 
d="M445 121q-25 -66 -76.5 -101t-124.5 -35q-45 0 -83.5 16.5t-67 46.5t-44.5 71.5t-16 91.5q0 56 19 103t53 81.5t79.5 53.5t98.5 19q75 0 115 -29.5t40 -72.5q0 -35 -20 -48.5t-44 -13.5q-18 0 -31.5 9.5t-21.5 24.5t-10.5 34t1.5 38v2q-15 10 -41 10q-48 0 -81 -41.5
t-33 -122.5q0 -41 10 -75.5t28.5 -59.5t44.5 -39t57 -14q35 0 67.5 16t58.5 47l22 -12v0z" />
    <glyph glyph-name="d" unicode="d" horiz-adv-x="560" 
d="M545 5l-182 -20v72h-3q-26 -31 -64 -51t-77 -20q-42 0 -76 16.5t-58 46t-37.5 70t-13.5 87.5q0 52 17.5 98.5t50 82t80 56t107.5 20.5q16 0 35.5 -2.5t37.5 -7.5h1v131q0 27 -17 34l-60 21l4 29l190 24v-606q0 -14 3.5 -23.5t13.5 -12.5l51 -16zM363 354q-26 29 -49.5 46
t-52.5 17q-44 0 -72.5 -44.5t-28.5 -125.5q0 -40 9 -73.5t24.5 -57t37.5 -36.5t49 -13q23 0 44 10t39 25v252z" />
    <glyph glyph-name="e" unicode="e" horiz-adv-x="483" 
d="M444 121q-25 -66 -76.5 -101t-123.5 -35q-45 0 -83.5 16.5t-67 46.5t-44.5 71.5t-16 91.5q0 55 18.5 102t51.5 81.5t78 54t97 19.5q36 0 67 -10.5t53.5 -30.5t35 -48.5t12.5 -65.5q0 -12 -1.5 -27t-4.5 -28l-284 4v-11q0 -41 10.5 -74.5t29 -57t44.5 -36.5t57 -13
q34 0 66.5 16t58.5 47l22 -12v0zM328 298q4 60 -15.5 93t-53.5 33q-38 0 -67 -32t-35 -96q49 0 87 1q16 0 31.5 0.5t27.5 0.5h19t6 0z" />
    <glyph glyph-name="f" unicode="f" horiz-adv-x="340" 
d="M427 619q0 -29 -18 -44.5t-41 -15.5q-28 0 -48 19.5t-30 63.5l-1 4l-29 2q-28 -19 -42.5 -57.5t-14.5 -105.5v-37h137l-7 -61h-130v-327q0 -8 7 -12t31 -6l41 -3l3 -39h-260l3 39l24 3q34 3 34 19v323l-80 7l6 57h69l2 23q3 50 23 91.5t51.5 71.5t71.5 46.5t85 16.5
q23 0 43.5 -5.5t36 -16t24.5 -25t9 -31.5z" />
    <glyph glyph-name="g" unicode="g" horiz-adv-x="494" 
d="M400 378v-5q7 -10 12.5 -25t5.5 -36q0 -38 -14 -69.5t-40 -54.5t-62.5 -35.5t-81.5 -12.5q-30 0 -56 6q-8 -5 -19 -16t-11 -22q0 -45 63 -45q31 0 64.5 1.5t60.5 1.5q32 0 59 -10t47 -28.5t31.5 -44t11.5 -56.5q0 -39 -20 -74t-56 -61.5t-87 -41.5t-113 -15
q-85 0 -136.5 31t-51.5 85q0 45 27.5 70.5t70.5 41.5v4q-32 10 -51 32.5t-19 51.5q0 16 7 32t19 29.5t28 23.5t35 16q0 3 1 4l1 1q-38 17 -65 50t-27 91q0 34 12.5 64.5t37 54t60.5 37.5t84 14q37 0 69 -8t58 -21h145l-2 -78zM304 299q0 77 -32 109q-18 20 -44 20
q-36 0 -57 -29.5t-21 -88.5q0 -79 34 -113q17 -17 41 -17q34 0 51 17q28 28 28 102zM376 -120q0 32 -16 51t-54 24q-20 4 -56.5 3.5t-102.5 -0.5q-10 -6 -25.5 -25t-15.5 -50q0 -43 37 -71.5t101 -28.5q29 0 53 7.5t41.5 20.5t27.5 31t10 38z" />
    <glyph glyph-name="h" unicode="h" horiz-adv-x="563" 
d="M314 0l3 39l20 3q22 2 28 6.5t6 12.5v196q0 37 -5.5 61t-17 37.5t-27.5 19t-37 5.5q-26 0 -50 -10t-38 -21v-133v-156q0 -8 7 -12t31 -6l26 -3l3 -39h-246l3 39l24 3q34 3 34 19v493q0 25 -17 34l-51 24l3 29l183 56v-303h5q42 33 82 53.5t82 20.5q23 0 45.5 -9t39.5 -26
q38 -38 38 -115v-257q0 -7 7 -11.5t34 -7.5l21 -3l3 -39h-239z" />
    <glyph glyph-name="i" unicode="i" horiz-adv-x="296" 
d="M212 611q0 -30 -20 -52t-52 -22t-51.5 22t-19.5 52t19.5 52t51.5 22t52 -22t20 -52zM30 0l3 39l23 3q34 3 34 19v240q0 24 -2 38t-6.5 22.5t-13 13t-21.5 7.5l-20 6l1 31l179 49v-408q0 -8 7 -12t31 -6l22 -3l3 -39h-240z" />
    <glyph glyph-name="j" unicode="j" horiz-adv-x="280" 
d="M207 611q0 -30 -20 -52t-52 -22t-51.5 22t-19.5 52t19.5 52t51.5 22t52 -22t20 -52zM202 -1q-4 -63 -22.5 -111.5t-45.5 -81.5t-60.5 -50t-66.5 -17q-38 0 -62 18.5t-24 50.5q0 25 18 40.5t40 15.5q29 0 47 -18.5t29 -45.5q17 7 23.5 48.5t6.5 98.5v354q0 24 -2 38
t-6.5 22.5t-13 13t-21.5 7.5l-20 6l1 31l179 49v-469v0z" />
    <glyph glyph-name="k" unicode="k" horiz-adv-x="530" 
d="M354 0l-47 90l-73 125l-38 -36v-119q0 -8 6.5 -11.5t28.5 -6.5l19 -3l3 -39h-236l3 39l24 3q34 3 34 19v493q0 25 -17 34l-51 24l3 29l183 56v-463l40 37q43 39 69.5 65.5t26.5 46.5q0 14 -11 21t-25 9l-11 1l-3 39h230l-3 -39l-21 -5q-28 -6 -60 -29t-83 -69l-28 -26
l129 -199q14 -20 25 -29.5t28 -13.5l21 -4l3 -39h-169z" />
    <glyph glyph-name="l" unicode="l" horiz-adv-x="291" 
d="M27 0l3 39l23 3q34 3 34 19v493q0 26 -17 34l-51 24l3 29l182 56v-637q0 -8 7 -12t31 -6l21 -3l3 -39h-239z" />
    <glyph glyph-name="m" unicode="m" horiz-adv-x="851" 
d="M601 0l3 39l19 3q22 2 28 6.5t6 12.5v196q0 37 -6.5 61t-18 37.5t-27 19t-34.5 5.5q-23 0 -44.5 -10t-37.5 -23v-29v-257q0 -7 7 -11.5t34 -7.5l19 -3l3 -39h-236l3 39l19 3q22 2 28 6.5t6 12.5v196q0 37 -6.5 61t-18 37.5t-27 19t-34.5 5.5q-23 0 -44.5 -10t-37.5 -21
v-97v-192q0 -8 7 -12t31 -6l24 -3l3 -39h-243l3 39l24 3q34 3 34 19v240q0 24 -2 38t-6.5 22.5t-13 13t-21.5 7.5l-20 6l1 31l179 49v-73h4q41 34 79.5 53.5t79.5 19.5q23 0 45 -8.5t40 -25.5q17 -17 28 -46h4q85 80 168 80q23 0 45 -8.5t40 -25.5q20 -20 28.5 -48.5
t8.5 -67.5v-257q0 -7 7 -11.5t34 -7.5l21 -3l3 -39h-238z" />
    <glyph glyph-name="n" unicode="n" horiz-adv-x="573" 
d="M323 0l3 39l19 3q22 2 28 6.5t6 12.5v196q0 37 -5.5 61t-17 37.5t-27.5 19t-37 5.5q-25 0 -49.5 -10t-38.5 -21v-133v-156q0 -8 7 -12t31 -6l27 -3l3 -39h-246l3 39l24 3q34 3 34 19v240q0 24 -2 38t-6.5 22.5t-13 13t-21.5 7.5l-20 6l1 31l179 49v-74h5q42 33 82 53.5
t82 20.5q23 0 45.5 -9t39.5 -26q38 -38 38 -115v-257q0 -7 7 -11.5t34 -7.5l21 -3l3 -39h-238z" />
    <glyph glyph-name="o" unicode="o" horiz-adv-x="549" 
d="M515 234q0 -52 -18.5 -97t-52 -79t-79.5 -53.5t-100 -19.5t-97 19t-73 51.5t-45.5 75.5t-15.5 92q0 51 19.5 95.5t53 78t79.5 52.5t100 19t96.5 -18.5t72 -50.5t45 -74.5t15.5 -90.5zM385 202q0 63 -11.5 114t-35.5 76q-10 11 -26.5 20t-39.5 9q-48 0 -78 -45t-30 -126
q0 -65 10 -115t36 -77q10 -10 27.5 -18.5t40.5 -8.5q47 0 77 46.5t30 124.5z" />
    <glyph glyph-name="p" unicode="p" horiz-adv-x="559" 
d="M526 246q0 -52 -17 -99t-48.5 -83t-76.5 -57.5t-102 -21.5q-22 0 -44.5 4t-38.5 9h-2v-184q0 -8 7 -12t31 -6l34 -3l3 -39h-258l3 39l28 3q34 3 34 19v486q0 24 -2 38t-6.5 22.5t-13 13t-21.5 7.5l-19 6l1 31l179 49v-81h5q28 32 64 53.5t78 21.5q41 0 74.5 -17t57.5 -46
t37 -68.5t13 -84.5zM400 202q0 81 -33.5 127.5t-85.5 46.5q-26 0 -48 -11t-36 -25v-249q25 -29 49.5 -45t52.5 -16q20 0 38.5 11.5t32.5 33.5t22 54t8 73z" />
    <glyph glyph-name="q" unicode="q" horiz-adv-x="550" 
d="M288 -246l3 39l38 3q20 2 27 6.5t7 12.5v242h-3q-26 -31 -64 -51t-77 -20q-42 0 -76 16.5t-58 46t-37.5 70t-13.5 87.5q0 52 17.5 98.5t50 82t80 56t107.5 20.5q24 0 55 -6.5t57 -17.5h1l67 29h11v-654q0 -7 6.5 -11.5t32.5 -6.5l23 -3l2 -39h-256zM363 354
q-26 29 -49.5 46t-52.5 17q-44 0 -72.5 -44.5t-28.5 -125.5q0 -40 9 -73.5t24.5 -57t37.5 -36.5t49 -13q22 0 43.5 10t39.5 25v252z" />
    <glyph glyph-name="r" unicode="r" horiz-adv-x="413" 
d="M414 398q0 -26 -15.5 -46t-43.5 -20q-23 0 -38 11.5t-25 28.5q-20 -13 -44.5 -36t-43.5 -55v-221q0 -8 7 -12t31 -6l34 -3l3 -39h-252l3 39l23 3q34 3 34 19v240q0 24 -2 38t-6.5 22.5t-13 13t-21.5 7.5l-20 6l1 31l179 49v-125h5q34 57 64.5 91t69.5 34q33 0 52 -19
t19 -51z" />
    <glyph glyph-name="s" unicode="s" horiz-adv-x="432" 
d="M395 133q0 -30 -13 -57t-37.5 -47.5t-61 -32t-83.5 -11.5q-41 0 -82 6t-72 18l-5 133h68l24 -91q15 -8 35 -15t41 -7q36 0 62 20t26 52q0 17 -9.5 28.5t-25 21t-36 17l-41.5 15.5q-28 10 -53 21.5t-44.5 28t-31 40t-11.5 56.5q0 29 12 54.5t34.5 44.5t55.5 30t75 11
q34 0 61 -4.5t47 -11.5l44 11l5 -148h-63l-27 88q-14 8 -32 14t-38 6q-34 0 -55 -17t-21 -43q0 -17 7 -29t21 -21t34 -17t45 -17q27 -10 53.5 -22t46.5 -28.5t32.5 -40t12.5 -56.5z" />
    <glyph glyph-name="t" unicode="t" horiz-adv-x="373" 
d="M361 58q-28 -32 -69 -52.5t-87 -20.5q-59 0 -94 35.5t-34 111.5l5 252l-78 7l2 35l72 63l71 64l47 -6l-1 -99h163l-7 -61h-156l-5 -220q-1 -58 22.5 -79.5t60.5 -21.5q19 0 42 5.5t42 15.5l4 -29v0z" />
    <glyph glyph-name="u" unicode="u" horiz-adv-x="560" 
d="M547 5l-182 -20v74h-5q-42 -33 -82 -53.5t-82 -20.5q-23 0 -45.5 9t-39.5 26q-38 38 -38 115l1 258q0 10 -7.5 12.5t-34.5 6.5l-20 2l-3 39h187l-6 -257q0 -37 5.5 -60.5t17 -37.5t27.5 -19.5t37 -5.5q26 0 50 10t38 21v158v132q0 8 -7 12t-31 6l-29 2l-4 39h188v-367
q0 -14 4 -23.5t13 -12.5l51 -16z" />
    <glyph glyph-name="v" unicode="v" horiz-adv-x="488" 
d="M503 415l-29 -6q-20 -3 -30 -17t-22 -43l-136 -358h-80l-150 379q-7 17 -16.5 24t-28.5 11l-24 9l-4 39h251l-3 -39l-32 -8q-26 -6 -16 -38l97 -265l89 246q9 26 6.5 39t-21.5 16l-33 11l-3 38h188z" />
    <glyph glyph-name="w" unicode="w" horiz-adv-x="741" 
d="M756 415l-27 -8q-20 -4 -31 -16t-22 -42l-119 -358h-77l-108 293l-105 -293h-77l-136 379q-7 17 -16 24.5t-26 11.5l-23 8l-3 39h244l-3 -39l-29 -8q-30 -6 -18 -39l83 -261l84 244l-7 20q-7 17 -17 24t-28 11l-26 9l-3 39h247l-3 -38l-29 -9q-29 -6 -18 -39l86 -262
l73 240q9 28 5.5 42t-25.5 19l-27 9l-3 38h187z" />
    <glyph glyph-name="x" unicode="x" horiz-adv-x="497" 
d="M255 0l4 39l14 4q23 5 25.5 16t-17.5 38l-58 85h-3l-63 -82q-20 -26 -21 -39.5t23 -18.5l14 -3l3 -39h-184l3 39l30 8q10 2 18 5.5t16 9.5t17 15.5l21 22.5l97 116l-105 141q-18 23 -31 33.5t-30 15.5l-24 8l-2 39h250l-3 -38l-14 -4q-22 -5 -24 -16.5t18 -38.5l50 -73h3
l54 71q19 23 20.5 37.5t-22.5 20.5l-14 3l-3 38h185l-3 -38l-30 -9q-21 -4 -36 -15.5t-37 -37.5l-88 -105l112 -152q18 -23 32.5 -33.5t29.5 -15.5l20 -8l3 -39h-250z" />
    <glyph glyph-name="y" unicode="y" horiz-adv-x="483" 
d="M503 415l-30 -6q-19 -3 -29.5 -17t-22.5 -43l-120 -314l-57 -168q-23 -66 -51.5 -97.5t-73.5 -31.5q-32 0 -54 18t-22 45q0 23 14 41.5t42 18.5q26 0 41.5 -13t22.5 -29q12 5 22 21.5t21 51.5l26 76v6l-178 396q-7 16 -15.5 23t-28.5 12l-23 9l-4 39h248l-3 -39l-30 -8
q-29 -6 -16 -38l106 -250l81 231q10 27 5.5 39.5t-23.5 15.5l-33 11l-3 38h191z" />
    <glyph glyph-name="z" unicode="z" horiz-adv-x="489" 
d="M165 44l57 1q44 1 70.5 4t43 10.5t26.5 20t20 31.5l37 72h57l-43 -183h-406v38l280 371l-41 -1q-40 -1 -65 -3.5t-39.5 -9.5t-22 -19t-13.5 -32l-24 -72h-57v181h402v-38z" />
    <glyph glyph-name="braceleft" unicode="{" horiz-adv-x="349" 
d="M322 -223q-109 5 -162 45t-53 106q0 28 8.5 52.5t18.5 47.5t18.5 44.5t8.5 43.5q0 40 -30.5 57t-93.5 23l-11 32l11 30q58 7 91 23.5t33 56.5q0 22 -8.5 43.5t-18.5 44.5t-18.5 48t-8.5 52q0 66 53 106.5t162 45.5v-38q-59 -5 -84.5 -28.5t-25.5 -58.5q0 -24 8.5 -46
t18.5 -45.5t18.5 -48.5t8.5 -55q0 -24 -11.5 -45.5t-32 -38t-48.5 -27.5t-62 -14v-12q34 -4 62 -15t48.5 -27.5t32 -38t11.5 -45.5q0 -29 -8.5 -54t-18.5 -48t-18.5 -45.5t-8.5 -46.5q0 -35 25.5 -59t84.5 -29v-36v0z" />
    <glyph glyph-name="bar" unicode="|" horiz-adv-x="275" 
d="M113 720h49v-877h-49v877z" />
    <glyph glyph-name="braceright" unicode="}" horiz-adv-x="349" 
d="M316 196q-63 -6 -94 -23t-31 -57q0 -22 8.5 -43.5t18.5 -44.5t18.5 -47.5t8.5 -52.5q0 -66 -52.5 -106t-161.5 -45v36q59 5 84.5 29t25.5 59q0 24 -8.5 46.5t-18.5 45.5t-18.5 48t-8.5 54q0 24 11.5 45.5t31.5 38t48.5 27.5t62.5 15v12q-34 3 -62.5 14t-48.5 27.5
t-31.5 38t-11.5 45.5q0 30 8.5 55t18.5 48.5t18.5 45.5t8.5 46q0 35 -25.5 58.5t-84.5 28.5v38q109 -5 161.5 -45.5t52.5 -106.5q0 -27 -8.5 -52t-18.5 -48t-18.5 -44.5t-8.5 -43.5q0 -40 33 -56.5t92 -23.5l11 -30z" />
    <glyph glyph-name="asciitilde" unicode="~" 
d="M374 307q-8 -72 -34 -103.5t-70 -31.5q-22 0 -44 11t-42 24.5t-38 24.5t-32 11q-17 0 -25 -15t-19 -47h-44q9 72 34.5 103.5t69.5 31.5q23 0 44.5 -11t41 -24l37 -24t31.5 -11q16 0 26.5 14.5t21.5 46.5h42v0z" />
    <glyph glyph-name="Adieresis" unicode="&#xc4;" horiz-adv-x="631" 
d="M343 0l3 41l39 6q15 2 23 7.5t9 17t-4 31t-16 50.5l-18 55h-204l-13 -41q-20 -60 -17.5 -87.5t30.5 -32.5l33 -6l3 -41h-231l3 41l25 6q17 5 29 11.5t24.5 25t28 55.5t39.5 101l117 324v42l123 36l189 -555q11 -29 48 -37l39 -9l3 -41h-305zM284 509h-9l-85 -252h174z
M489 773q0 -28 -17 -48.5t-49 -20.5q-31 0 -47.5 20.5t-16.5 48.5t16.5 49t47.5 21q32 0 49 -21t17 -49zM274 773q0 -28 -17 -48.5t-48 -20.5t-48.5 20.5t-17.5 48.5t17.5 49t48.5 21t48 -21t17 -49z" />
    <glyph glyph-name="Aring" unicode="&#xc5;" horiz-adv-x="631" 
d="M379 693q0 26 -17 46.5t-47 20.5t-47 -20.5t-17 -46.5t17 -47t47 -21t47 21t17 47zM263 607q-23 13 -35 36t-12 50q0 41 26.5 70t72.5 29t72 -29t26 -70q0 -49 -34 -77l179 -529q11 -29 48 -37l39 -9l3 -41h-305l3 41l39 6q15 2 23 7.5t9 17t-4 31t-16 50.5l-18 55h-204
l-13 -41q-20 -60 -17.5 -87.5t30.5 -32.5l33 -6l3 -41h-231l3 41l25 6q17 5 28.5 12t24 26.5t28 56.5l40.5 101l134 364v0zM281 512h-5l-86 -258h174z" />
    <glyph glyph-name="Ccedilla" unicode="&#xc7;" horiz-adv-x="710" 
d="M370 -15q-72 3 -132 25.5t-103.5 62.5t-67.5 97.5t-24 132.5q0 77 27 139t75 106t113 67.5t141 23.5q48 0 89 -8t62 -16l92 22v-223h-69l-42 146q-27 14 -57 22t-67 8q-52 0 -93 -20t-69 -56t-42.5 -86t-14.5 -110q0 -65 14.5 -118t43 -90.5t70 -57.5t94.5 -20
q30 0 59 6.5t52 17.5q0 1 8 24l18 51l26 75h73l-19 -206l-66 13q-26 -9 -62.5 -17.5t-79.5 -10.5l-38 -39q63 -2 100 -26.5t37 -68.5q0 -27 -16 -49t-45 -38.5t-70 -26t-91 -12.5l-10 27q157 18 157 81q0 23 -21 37.5t-63 14.5q-37 0 -69 -7v24l80 83v0z" />
    <glyph glyph-name="Eacute" unicode="&#xc9;" horiz-adv-x="642" 
d="M577 0h-541l3 40l36 4q19 2 26.5 6.5t7.5 12.5v500q0 7 -6.5 11t-31.5 7l-32 4l-3 40h543v-206h-68l-22 83q-7 27 -17 42.5t-31 23.5t-57 10t-96 2h-47v-242h25q43 0 63 5.5t28 26.5l24 68h52l-23 -242h-50l-10 64q-1 9 -4.5 15.5t-13 10.5t-26 5.5t-43.5 1.5h-22v-248
h49q62 0 99 2.5t59 10.5t33.5 23.5t20.5 41.5l22 74h72zM318 682h-46l94 182h129z" />
    <glyph glyph-name="Ntilde" unicode="&#xd1;" horiz-adv-x="733" 
d="M711 585l-47 -10q-10 -2 -18 -8t-13 -25.5t-7.5 -58.5t-2.5 -108v-383h-92l-359 497h-7v-240q0 -68 2 -107t6.5 -59t12 -25.5t17.5 -7.5l54 -10l3 -40h-236l3 40l47 10q11 2 18.5 8t12.5 25.5t7.5 58t2.5 107.5v257q0 26 -10 41t-27 23l-45 15l-3 40h206l329 -459h8v209
q0 68 -2 107t-6.5 59t-12 26t-18.5 8l-53 10l-3 40h236zM541 825q-8 -72 -34 -103.5t-70 -31.5q-22 0 -44 11t-42 24.5t-38 24.5t-32 11q-17 0 -25 -15t-19 -47h-44q9 72 34.5 103.5t69.5 31.5q23 0 44.5 -11t41 -24l37 -24t31.5 -11q16 0 26.5 14.5t21.5 46.5h42v0z" />
    <glyph glyph-name="Odieresis" unicode="&#xd6;" horiz-adv-x="761" 
d="M718 316q0 -72 -27 -133t-73.5 -105.5t-108 -69t-131.5 -24.5q-75 0 -136.5 23.5t-106 65.5t-68.5 101.5t-24 131.5t27 133.5t73.5 105.5t108.5 69t131 25q75 0 136.5 -23.5t106 -66t68.5 -102t24 -131.5zM573 305q0 69 -15.5 122.5t-42 90t-62 55.5t-75.5 19
t-74.5 -17.5t-60.5 -52t-41 -85.5t-15 -119q0 -69 15.5 -123t42.5 -90.5t62.5 -55.5t75.5 -19q39 0 74 17.5t60.5 52t40.5 86t15 119.5zM553 773q0 -28 -17 -48.5t-49 -20.5q-31 0 -47.5 20.5t-16.5 48.5t16.5 49t47.5 21q32 0 49 -21t17 -49zM338 773q0 -28 -17 -48.5
t-48 -20.5t-48.5 20.5t-17.5 48.5t17.5 49t48.5 21t48 -21t17 -49z" />
    <glyph glyph-name="Udieresis" unicode="&#xdc;" horiz-adv-x="710" 
d="M693 585l-47 -10q-11 -2 -18.5 -8t-12.5 -25.5t-7.5 -58.5t-2.5 -108v-165q0 -52 -17 -95t-49.5 -73t-78.5 -46.5t-103 -16.5t-104.5 13t-81 39.5t-52 66.5t-18.5 93v372q0 7 -6.5 11t-31.5 7l-32 4l-3 40h279l-3 -40l-36 -4q-21 -2 -28 -6.5t-7 -12.5v-336
q0 -91 42 -136t118 -45q78 0 119.5 44.5t41.5 136.5v149q0 68 -2 107t-6.5 59t-11.5 26t-18 8l-54 10l-3 40h237zM543 773q0 -28 -17 -48.5t-49 -20.5q-31 0 -47.5 20.5t-16.5 48.5t16.5 49t47.5 21q32 0 49 -21t17 -49zM328 773q0 -28 -17 -48.5t-48 -20.5t-48.5 20.5
t-17.5 48.5t17.5 49t48.5 21t48 -21t17 -49z" />
    <glyph glyph-name="aacute" unicode="&#xe1;" horiz-adv-x="485" 
d="M490 62q-23 -32 -54.5 -55.5t-62.5 -23.5q-30 0 -54 19t-26 64h-5q-29 -35 -59.5 -58t-71.5 -23q-24 0 -46.5 8t-39.5 23t-27 37t-10 50q0 62 64 102t195 73v8q1 65 -25 94t-74 29q-26 0 -47.5 -7t-21.5 -12q0 -2 4 -6.5t8.5 -11t8.5 -16t4 -21.5q0 -19 -16 -35.5
t-43 -16.5q-26 0 -43.5 14.5t-17.5 36.5t20 46t51.5 43.5t71.5 32t79 12.5q41 0 71.5 -9.5t50.5 -32.5t29 -61t6 -94l-7 -165q-1 -23 5 -33t20 -10q16 0 47 25l16 -26v0zM291 242q-45 -12 -73 -25.5t-44.5 -27t-22.5 -28.5t-6 -30q0 -32 20.5 -48t47.5 -16q20 0 39.5 11
t34.5 27zM224 515h-46l94 182h129z" />
    <glyph glyph-name="agrave" unicode="&#xe0;" horiz-adv-x="485" 
d="M223 515l-177 182h127l95 -182h-45zM490 62q-23 -32 -54.5 -55.5t-62.5 -23.5q-30 0 -54 19t-26 64h-5q-29 -35 -59.5 -58t-71.5 -23q-24 0 -46.5 8t-39.5 23t-27 37t-10 50q0 62 64 102t195 73v8q1 65 -25 94t-74 29q-26 0 -47.5 -7t-21.5 -12q0 -2 4 -6.5t8.5 -11
t8.5 -16t4 -21.5q0 -19 -16 -35.5t-43 -16.5q-26 0 -43.5 14.5t-17.5 36.5t20 46t51.5 43.5t71.5 32t79 12.5q41 0 71.5 -9.5t50.5 -32.5t29 -61t6 -94l-7 -165q-1 -23 5 -33t20 -10q16 0 47 25l16 -26v0zM291 242q-45 -12 -73 -25.5t-44.5 -27t-22.5 -28.5t-6 -30
q0 -32 20.5 -48t47.5 -16q20 0 39.5 11t34.5 27z" />
    <glyph glyph-name="acircumflex" unicode="&#xe2;" horiz-adv-x="485" 
d="M490 62q-23 -32 -54.5 -55.5t-62.5 -23.5q-30 0 -54 19t-26 64h-5q-29 -35 -59.5 -58t-71.5 -23q-24 0 -46.5 8t-39.5 23t-27 37t-10 50q0 62 64 102t195 73v8q1 65 -25 94t-74 29q-26 0 -47.5 -7t-21.5 -12q0 -2 4 -6.5t8.5 -11t8.5 -16t4 -21.5q0 -19 -16 -35.5
t-43 -16.5q-26 0 -43.5 14.5t-17.5 36.5t20 46t51.5 43.5t71.5 32t79 12.5q41 0 71.5 -9.5t50.5 -32.5t29 -61t6 -94l-7 -165q-1 -23 5 -33t20 -10q16 0 47 25l16 -26v0zM291 242q-45 -12 -73 -25.5t-44.5 -27t-22.5 -28.5t-6 -30q0 -32 20.5 -48t47.5 -16q20 0 39.5 11
t34.5 27zM335 515l-105 105h-2l-105 -105h-37l116 197h54l116 -197h-37z" />
    <glyph glyph-name="adieresis" unicode="&#xe4;" horiz-adv-x="485" 
d="M490 62q-23 -32 -54.5 -55.5t-62.5 -23.5q-30 0 -54 19t-26 64h-5q-29 -35 -59.5 -58t-71.5 -23q-24 0 -46.5 8t-39.5 23t-27 37t-10 50q0 62 64 102t195 73v8q1 65 -25 94t-74 29q-26 0 -47.5 -7t-21.5 -12q0 -2 4 -6.5t8.5 -11t8.5 -16t4 -21.5q0 -19 -16 -35.5
t-43 -16.5q-26 0 -43.5 14.5t-17.5 36.5t20 46t51.5 43.5t71.5 32t79 12.5q41 0 71.5 -9.5t50.5 -32.5t29 -61t6 -94l-7 -165q-1 -23 5 -33t20 -10q16 0 47 25l16 -26v0zM291 242q-45 -12 -73 -25.5t-44.5 -27t-22.5 -28.5t-6 -30q0 -32 20.5 -48t47.5 -16q20 0 39.5 11
t34.5 27zM406 606q0 -28 -17 -48.5t-49 -20.5q-31 0 -47.5 20.5t-16.5 48.5t16.5 49t47.5 21q32 0 49 -21t17 -49zM191 606q0 -28 -17 -48.5t-48 -20.5t-48.5 20.5t-17.5 48.5t17.5 49t48.5 21t48 -21t17 -49z" />
    <glyph glyph-name="atilde" unicode="&#xe3;" horiz-adv-x="485" 
d="M490 62q-23 -32 -54.5 -55.5t-62.5 -23.5q-30 0 -54 19t-26 64h-5q-29 -35 -59.5 -58t-71.5 -23q-24 0 -46.5 8t-39.5 23t-27 37t-10 50q0 62 64 102t195 73v8q1 65 -25 94t-74 29q-26 0 -47.5 -7t-21.5 -12q0 -2 4 -6.5t8.5 -11t8.5 -16t4 -21.5q0 -19 -16 -35.5
t-43 -16.5q-26 0 -43.5 14.5t-17.5 36.5t20 46t51.5 43.5t71.5 32t79 12.5q41 0 71.5 -9.5t50.5 -32.5t29 -61t6 -94l-7 -165q-1 -23 5 -33t20 -10q16 0 47 25l16 -26v0zM291 242q-45 -12 -73 -25.5t-44.5 -27t-22.5 -28.5t-6 -30q0 -32 20.5 -48t47.5 -16q20 0 39.5 11
t34.5 27zM403 658q-8 -72 -34 -103.5t-70 -31.5q-22 0 -44 11t-42 24.5t-38 24.5t-32 11q-17 0 -25 -15t-19 -47h-44q9 72 34.5 103.5t69.5 31.5q23 0 44.5 -11t41 -24l37 -24t31.5 -11q16 0 26.5 14.5t21.5 46.5h42v0z" />
    <glyph glyph-name="aring" unicode="&#xe5;" horiz-adv-x="485" 
d="M490 62q-23 -32 -54.5 -55.5t-62.5 -23.5q-30 0 -54 19t-26 64h-5q-29 -35 -59.5 -58t-71.5 -23q-24 0 -46.5 8t-39.5 23t-27 37t-10 50q0 62 64 102t195 73v8q1 65 -25 94t-74 29q-26 0 -47.5 -7t-21.5 -12q0 -2 4 -6.5t8.5 -11t8.5 -16t4 -21.5q0 -19 -16 -35.5
t-43 -16.5q-26 0 -43.5 14.5t-17.5 36.5t20 46t51.5 43.5t71.5 32t79 12.5q41 0 71.5 -9.5t50.5 -32.5t29 -61t6 -94l-7 -165q-1 -23 5 -33t20 -10q16 0 47 25l16 -26v0zM291 242q-45 -12 -73 -25.5t-44.5 -27t-22.5 -28.5t-6 -30q0 -32 20.5 -48t47.5 -16q20 0 39.5 11
t34.5 27zM332 613q0 -41 -26.5 -70.5t-72.5 -29.5t-72.5 29.5t-26.5 70.5t26.5 70.5t72.5 29.5t72.5 -29.5t26.5 -70.5zM297 613q0 26 -17 47t-47 21t-47 -21t-17 -47t17 -46.5t47 -20.5t47 20.5t17 46.5z" />
    <glyph glyph-name="ccedilla" unicode="&#xe7;" horiz-adv-x="468" 
d="M230 -15q-42 3 -78 20.5t-62.5 47t-41.5 70t-15 88.5q0 56 19 103t53 81.5t79.5 53.5t98.5 19q75 0 115 -29.5t40 -72.5q0 -35 -20 -48.5t-44 -13.5q-18 0 -31.5 9.5t-21.5 24.5t-10.5 34t1.5 38v2q-15 10 -41 10q-48 0 -81 -41.5t-33 -122.5q0 -41 10 -75.5t28.5 -59.5
t44.5 -39t57 -14q35 0 67.5 16t58.5 47l22 -12q-22 -57 -63.5 -91t-100.5 -42l-41 -42q63 -2 100 -26.5t37 -68.5q0 -27 -16 -49t-45 -38.5t-70 -26t-91 -12.5l-10 27q157 18 157 81q0 23 -21 37.5t-63 14.5q-37 0 -69 -7v24l81 83v0z" />
    <glyph glyph-name="eacute" unicode="&#xe9;" horiz-adv-x="483" 
d="M444 121q-25 -66 -76.5 -101t-123.5 -35q-45 0 -83.5 16.5t-67 46.5t-44.5 71.5t-16 91.5q0 55 18.5 102t51.5 81.5t78 54t97 19.5q36 0 67 -10.5t53.5 -30.5t35 -48.5t12.5 -65.5q0 -12 -1.5 -27t-4.5 -28l-284 4v-11q0 -41 10.5 -74.5t29 -57t44.5 -36.5t57 -13
q34 0 66.5 16t58.5 47l22 -12v0zM328 298q4 60 -15.5 93t-53.5 33q-38 0 -67 -32t-35 -96q49 0 87 1q16 0 31.5 0.5t27.5 0.5h19t6 0zM233 515h-46l94 182h129z" />
    <glyph glyph-name="egrave" unicode="&#xe8;" horiz-adv-x="483" 
d="M261 515l-177 182h127l95 -182h-45zM444 121q-25 -66 -76.5 -101t-123.5 -35q-45 0 -83.5 16.5t-67 46.5t-44.5 71.5t-16 91.5q0 55 18.5 102t51.5 81.5t78 54t97 19.5q36 0 67 -10.5t53.5 -30.5t35 -48.5t12.5 -65.5q0 -12 -1.5 -27t-4.5 -28l-284 4v-11
q0 -41 10.5 -74.5t29 -57t44.5 -36.5t57 -13q34 0 66.5 16t58.5 47l22 -12v0zM328 298q4 60 -15.5 93t-53.5 33q-38 0 -67 -32t-35 -96q49 0 87 1q16 0 31.5 0.5t27.5 0.5h19t6 0z" />
    <glyph glyph-name="ecircumflex" unicode="&#xea;" horiz-adv-x="483" 
d="M444 121q-25 -66 -76.5 -101t-123.5 -35q-45 0 -83.5 16.5t-67 46.5t-44.5 71.5t-16 91.5q0 55 18.5 102t51.5 81.5t78 54t97 19.5q36 0 67 -10.5t53.5 -30.5t35 -48.5t12.5 -65.5q0 -12 -1.5 -27t-4.5 -28l-284 4v-11q0 -41 10.5 -74.5t29 -57t44.5 -36.5t57 -13
q34 0 66.5 16t58.5 47l22 -12v0zM328 298q4 60 -15.5 93t-53.5 33q-38 0 -67 -32t-35 -96q49 0 87 1q16 0 31.5 0.5t27.5 0.5h19t6 0zM347 515l-105 105h-2l-105 -105h-37l116 197h54l116 -197h-37z" />
    <glyph glyph-name="edieresis" unicode="&#xeb;" horiz-adv-x="483" 
d="M444 121q-25 -66 -76.5 -101t-123.5 -35q-45 0 -83.5 16.5t-67 46.5t-44.5 71.5t-16 91.5q0 55 18.5 102t51.5 81.5t78 54t97 19.5q36 0 67 -10.5t53.5 -30.5t35 -48.5t12.5 -65.5q0 -12 -1.5 -27t-4.5 -28l-284 4v-11q0 -41 10.5 -74.5t29 -57t44.5 -36.5t57 -13
q34 0 66.5 16t58.5 47l22 -12v0zM328 298q4 60 -15.5 93t-53.5 33q-38 0 -67 -32t-35 -96q49 0 87 1q16 0 31.5 0.5t27.5 0.5h19t6 0zM414 606q0 -28 -17 -48.5t-49 -20.5q-31 0 -47.5 20.5t-16.5 48.5t16.5 49t47.5 21q32 0 49 -21t17 -49zM199 606q0 -28 -17 -48.5
t-48 -20.5t-48.5 20.5t-17.5 48.5t17.5 49t48.5 21t48 -21t17 -49z" />
    <glyph glyph-name="iacute" unicode="&#xed;" horiz-adv-x="296" 
d="M130 515h-46l94 182h129zM30 0l3 39l23 3q34 3 34 19v240q0 24 -2 38t-6.5 22.5t-13 13t-21.5 7.5l-20 6l1 31l179 49v-408q0 -8 7 -12t31 -6l22 -3l3 -39h-240z" />
    <glyph glyph-name="igrave" unicode="&#xec;" horiz-adv-x="296" 
d="M165 515l-177 182h127l95 -182h-45zM30 0l3 39l23 3q34 3 34 19v240q0 24 -2 38t-6.5 22.5t-13 13t-21.5 7.5l-20 6l1 31l179 49v-408q0 -8 7 -12t31 -6l22 -3l3 -39h-240z" />
    <glyph glyph-name="icircumflex" unicode="&#xee;" horiz-adv-x="296" 
d="M30 0l3 39l23 3q34 3 34 19v240q0 24 -2 38t-6.5 22.5t-13 13t-21.5 7.5l-20 6l1 31l179 49v-408q0 -8 7 -12t31 -6l22 -3l3 -39h-240zM254 515l-105 105h-2l-105 -105h-37l116 197h54l116 -197h-37z" />
    <glyph glyph-name="idieresis" unicode="&#xef;" horiz-adv-x="296" 
d="M321 606q0 -28 -17 -48.5t-49 -20.5q-31 0 -47.5 20.5t-16.5 48.5t16.5 49t47.5 21q32 0 49 -21t17 -49zM106 606q0 -28 -17 -48.5t-48 -20.5t-48.5 20.5t-17.5 48.5t17.5 49t48.5 21t48 -21t17 -49zM30 0l3 39l23 3q34 3 34 19v240q0 24 -2 38t-6.5 22.5t-13 13
t-21.5 7.5l-20 6l1 31l179 49v-408q0 -8 7 -12t31 -6l22 -3l3 -39h-240z" />
    <glyph glyph-name="ntilde" unicode="&#xf1;" horiz-adv-x="573" 
d="M323 0l3 39l19 3q22 2 28 6.5t6 12.5v196q0 37 -5.5 61t-17 37.5t-27.5 19t-37 5.5q-25 0 -49.5 -10t-38.5 -21v-133v-156q0 -8 7 -12t31 -6l27 -3l3 -39h-246l3 39l24 3q34 3 34 19v240q0 24 -2 38t-6.5 22.5t-13 13t-21.5 7.5l-20 6l1 31l179 49v-74h5q42 33 82 53.5
t82 20.5q23 0 45.5 -9t39.5 -26q38 -38 38 -115v-257q0 -7 7 -11.5t34 -7.5l21 -3l3 -39h-238zM460 658q-8 -72 -34 -103.5t-70 -31.5q-22 0 -44 11t-42 24.5t-38 24.5t-32 11q-17 0 -25 -15t-19 -47h-44q9 72 34.5 103.5t69.5 31.5q23 0 44.5 -11t41 -24l37 -24t31.5 -11
q16 0 26.5 14.5t21.5 46.5h42v0z" />
    <glyph glyph-name="oacute" unicode="&#xf3;" horiz-adv-x="546" 
d="M515 234q0 -52 -18.5 -97t-52 -79t-79.5 -53.5t-100 -19.5t-97 19t-73 51.5t-45.5 75.5t-15.5 92q0 51 19.5 95.5t53 78t79.5 52.5t100 19t96.5 -18.5t72 -50.5t45 -74.5t15.5 -90.5zM385 202q0 63 -11.5 114t-35.5 76q-10 11 -26.5 20t-39.5 9q-48 0 -78 -45t-30 -126
q0 -65 10 -115t36 -77q10 -10 27.5 -18.5t40.5 -8.5q47 0 77 46.5t30 124.5zM270 515h-46l94 182h129z" />
    <glyph glyph-name="ograve" unicode="&#xf2;" horiz-adv-x="546" 
d="M270 515l-177 182h127l95 -182h-45zM515 234q0 -52 -18.5 -97t-52 -79t-79.5 -53.5t-100 -19.5t-97 19t-73 51.5t-45.5 75.5t-15.5 92q0 51 19.5 95.5t53 78t79.5 52.5t100 19t96.5 -18.5t72 -50.5t45 -74.5t15.5 -90.5zM385 202q0 63 -11.5 114t-35.5 76
q-10 11 -26.5 20t-39.5 9q-48 0 -78 -45t-30 -126q0 -65 10 -115t36 -77q10 -10 27.5 -18.5t40.5 -8.5q47 0 77 46.5t30 124.5z" />
    <glyph glyph-name="ocircumflex" unicode="&#xf4;" horiz-adv-x="546" 
d="M515 234q0 -52 -18.5 -97t-52 -79t-79.5 -53.5t-100 -19.5t-97 19t-73 51.5t-45.5 75.5t-15.5 92q0 51 19.5 95.5t53 78t79.5 52.5t100 19t96.5 -18.5t72 -50.5t45 -74.5t15.5 -90.5zM385 202q0 63 -11.5 114t-35.5 76q-10 11 -26.5 20t-39.5 9q-48 0 -78 -45t-30 -126
q0 -65 10 -115t36 -77q10 -10 27.5 -18.5t40.5 -8.5q47 0 77 46.5t30 124.5zM379 515l-105 105h-2l-105 -105h-37l116 197h54l116 -197h-37z" />
    <glyph glyph-name="odieresis" unicode="&#xf6;" horiz-adv-x="546" 
d="M515 234q0 -52 -18.5 -97t-52 -79t-79.5 -53.5t-100 -19.5t-97 19t-73 51.5t-45.5 75.5t-15.5 92q0 51 19.5 95.5t53 78t79.5 52.5t100 19t96.5 -18.5t72 -50.5t45 -74.5t15.5 -90.5zM385 202q0 63 -11.5 114t-35.5 76q-10 11 -26.5 20t-39.5 9q-48 0 -78 -45t-30 -126
q0 -65 10 -115t36 -77q10 -10 27.5 -18.5t40.5 -8.5q47 0 77 46.5t30 124.5zM446 606q0 -28 -17 -48.5t-49 -20.5q-31 0 -47.5 20.5t-16.5 48.5t16.5 49t47.5 21q32 0 49 -21t17 -49zM231 606q0 -28 -17 -48.5t-48 -20.5t-48.5 20.5t-17.5 48.5t17.5 49t48.5 21t48 -21
t17 -49z" />
    <glyph glyph-name="otilde" unicode="&#xf5;" horiz-adv-x="546" 
d="M515 234q0 -52 -18.5 -97t-52 -79t-79.5 -53.5t-100 -19.5t-97 19t-73 51.5t-45.5 75.5t-15.5 92q0 51 19.5 95.5t53 78t79.5 52.5t100 19t96.5 -18.5t72 -50.5t45 -74.5t15.5 -90.5zM385 202q0 63 -11.5 114t-35.5 76q-10 11 -26.5 20t-39.5 9q-48 0 -78 -45t-30 -126
q0 -65 10 -115t36 -77q10 -10 27.5 -18.5t40.5 -8.5q47 0 77 46.5t30 124.5zM447 658q-8 -72 -34 -103.5t-70 -31.5q-22 0 -44 11t-42 24.5t-38 24.5t-32 11q-17 0 -25 -15t-19 -47h-44q9 72 34.5 103.5t69.5 31.5q23 0 44.5 -11t41 -24l37 -24t31.5 -11q16 0 26.5 14.5
t21.5 46.5h42v0z" />
    <glyph glyph-name="uacute" unicode="&#xfa;" horiz-adv-x="560" 
d="M547 5l-182 -20v74h-5q-42 -33 -82 -53.5t-82 -20.5q-23 0 -45.5 9t-39.5 26q-38 38 -38 115l1 258q0 10 -7.5 12.5t-34.5 6.5l-20 2l-3 39h187l-6 -257q0 -37 5.5 -60.5t17 -37.5t27.5 -19.5t37 -5.5q26 0 50 10t38 21v158v132q0 8 -7 12t-31 6l-29 2l-4 39h188v-367
q0 -14 4 -23.5t13 -12.5l51 -16zM261 515h-46l94 182h129z" />
    <glyph glyph-name="ugrave" unicode="&#xf9;" horiz-adv-x="560" 
d="M274 515l-177 182h127l95 -182h-45zM547 5l-182 -20v74h-5q-42 -33 -82 -53.5t-82 -20.5q-23 0 -45.5 9t-39.5 26q-38 38 -38 115l1 258q0 10 -7.5 12.5t-34.5 6.5l-20 2l-3 39h187l-6 -257q0 -37 5.5 -60.5t17 -37.5t27.5 -19.5t37 -5.5q26 0 50 10t38 21v158v132
q0 8 -7 12t-31 6l-29 2l-4 39h188v-367q0 -14 4 -23.5t13 -12.5l51 -16z" />
    <glyph glyph-name="ucircumflex" unicode="&#xfb;" horiz-adv-x="560" 
d="M547 5l-182 -20v74h-5q-42 -33 -82 -53.5t-82 -20.5q-23 0 -45.5 9t-39.5 26q-38 38 -38 115l1 258q0 10 -7.5 12.5t-34.5 6.5l-20 2l-3 39h187l-6 -257q0 -37 5.5 -60.5t17 -37.5t27.5 -19.5t37 -5.5q26 0 50 10t38 21v158v132q0 8 -7 12t-31 6l-29 2l-4 39h188v-367
q0 -14 4 -23.5t13 -12.5l51 -16zM373 515l-105 105h-2l-105 -105h-37l116 197h54l116 -197h-37z" />
    <glyph glyph-name="udieresis" unicode="&#xfc;" horiz-adv-x="560" 
d="M547 5l-182 -20v74h-5q-42 -33 -82 -53.5t-82 -20.5q-23 0 -45.5 9t-39.5 26q-38 38 -38 115l1 258q0 10 -7.5 12.5t-34.5 6.5l-20 2l-3 39h187l-6 -257q0 -37 5.5 -60.5t17 -37.5t27.5 -19.5t37 -5.5q26 0 50 10t38 21v158v132q0 8 -7 12t-31 6l-29 2l-4 39h188v-367
q0 -14 4 -23.5t13 -12.5l51 -16zM440 606q0 -28 -17 -48.5t-49 -20.5q-31 0 -47.5 20.5t-16.5 48.5t16.5 49t47.5 21q32 0 49 -21t17 -49zM225 606q0 -28 -17 -48.5t-48 -20.5t-48.5 20.5t-17.5 48.5t17.5 49t48.5 21t48 -21t17 -49z" />
    <glyph glyph-name="dagger" unicode="&#x2020;" horiz-adv-x="470" 
d="M438 388h-180v-543h-44v543h-179l-4 46h183v192h44v-192h184z" />
    <glyph glyph-name="degree" unicode="&#xb0;" horiz-adv-x="410" 
d="M371 482q0 -33 -11.5 -63t-33 -52.5t-52 -36t-69.5 -13.5q-38 0 -69 13.5t-52.5 36t-33 52.5t-11.5 63q0 34 11.5 64.5t33 53t52.5 36t69 13.5q39 0 69.5 -13.5t52 -36t33 -53t11.5 -64.5zM205 604q-27 0 -49 -9.5t-37 -26t-23 -39t-8 -47.5q0 -24 8 -45.5t23 -38
t37 -26.5t49 -10t49 10t37 26.5t23 38t8 45.5q0 25 -8 47.5t-23 39t-37 26t-49 9.5z" />
    <glyph glyph-name="cent" unicode="&#xa2;" horiz-adv-x="463" 
d="M200 -165h-47l41 157q-36 9 -65.5 30t-50.5 51t-32.5 67.5t-11.5 80.5q0 56 19.5 101.5t53.5 78t79.5 50t96.5 17.5h16.5t15.5 -2l44 170h48l-46 -179q38 -13 58 -37t20 -54q0 -26 -16.5 -41.5t-36.5 -15.5q-39 0 -55 31l-68 -263q9 -3 19 -5t21 -2q30 0 63.5 16t59.5 47
l21 -12q-23 -61 -75 -99t-122 -38q-7 0 -11 1zM302 414q-8 4 -15 5t-16 1q-48 0 -80.5 -40.5t-32.5 -121.5q0 -52 17 -93t46 -64z" />
    <glyph glyph-name="sterling" unicode="&#xa3;" horiz-adv-x="527" 
d="M145 302q-1 20 -1.5 39.5t-0.5 39.5q0 56 15.5 101.5t45 78t72 50.5t96.5 18q59 0 89 -23t30 -61q0 -27 -17.5 -44t-42.5 -17q-32 0 -48.5 25.5t-8.5 62.5q-6 5 -16.5 9.5t-24.5 4.5q-15 0 -28.5 -6.5t-23.5 -24t-16 -47t-6 -76.5q0 -21 1.5 -55.5t2.5 -74.5h147l3 -46
h-150q-1 -23 -3.5 -46t-7 -44t-11 -38t-14.5 -29l-1 -5l31.5 -7l35.5 -8t36 -7t33 -3q49 0 72 23q13 12 22 30t17 41l26 -7q5 -38 -1 -71t-22 -57t-42.5 -38t-62.5 -14q-30 0 -56 10t-48 24t-39 29t-30 24q-31 -33 -73.5 -56.5t-86.5 -32.5l-14 49q69 18 97 56.5t28 104.5
q0 17 -0.5 34.5t-1.5 37.5h-110l3 46h105v0z" />
    <glyph glyph-name="section" unicode="&#xa7;" horiz-adv-x="451" 
d="M424 277q0 -42 -23 -74t-58 -51q31 -34 31 -76q0 -27 -13.5 -52t-37 -45t-56 -32t-70.5 -12q-27 0 -50.5 5.5t-41 16t-28 25t-10.5 33.5q0 26 16.5 42t39.5 16q29 0 52.5 -23.5t28.5 -61.5q19 -8 38 -8q27 0 41.5 17.5t14.5 44.5q0 17 -10.5 31t-27.5 27.5t-39 26
l-46 25.5l-53 30t-47 33t-34 39.5t-13 48.5q0 42 22.5 74t57.5 50q-31 36 -31 77q0 25 13 49t36 43t54 31t68 12q54 0 89.5 -21t35.5 -59q0 -26 -17 -42t-40 -16q-29 0 -47 23t-23 61q-9 5 -20 7t-19 2q-26 0 -40 -15.5t-14 -41.5q0 -16 10.5 -30t28 -27t39.5 -25.5
l46 -25.5l53 -30t47 -33t34 -39.5t13 -49.5zM353 227q0 17 -7.5 31t-21 26.5t-30.5 23.5l-37 23q-32 19 -66.5 36t-61.5 41q-13 -9 -22 -23.5t-9 -31.5t7.5 -31t21 -26.5t31 -23.5l36.5 -22q32 -19 67 -36.5t62 -41.5q30 21 30 55z" />
    <glyph glyph-name="bullet" unicode="&#x2022;" horiz-adv-x="455" 
d="M420 232q0 -11 -6 -30.5t-14.5 -40.5t-18 -39.5t-17.5 -26.5q-7 -7 -25.5 -17t-39.5 -18.5t-41 -14.5t-31 -6q-10 0 -30 6t-41 14.5t-39 18.5t-25 17q-7 8 -17 26.5t-19 39.5t-15 40.5t-6 30.5t6 30.5t15 40.5t19 39.5t17 25.5q8 8 26 17.5t39 18t41 14.5t30 6
q11 0 30.5 -6t40.5 -14.5t39.5 -18t25.5 -17.5q8 -7 17.5 -25.5t18 -39.5t14.5 -40.5t6 -30.5z" />
    <glyph glyph-name="paragraph" unicode="&#xb6;" horiz-adv-x="489" 
d="M351 -32v287q-22 -5 -42 -7.5t-35 -2.5q-61 0 -106.5 14.5t-76 39.5t-46 60t-15.5 75q0 98 66 144.5t180 46.5h139v-657h-64z" />
    <glyph glyph-name="germandbls" unicode="&#xdf;" horiz-adv-x="724" 
d="M427 619q0 -29 -18 -44.5t-41 -15.5q-28 0 -48 19.5t-30 63.5l-1 4l-29 2q-28 -19 -42.5 -57.5t-14.5 -105.5v-425q0 -8 7 -12t31 -6l29 -3l3 -39h-248l3 39l24 3q34 3 34 19v323l-80 7l6 57h69l2 23q3 50 23 91.5t51.5 71.5t71.5 46.5t85 16.5q23 0 43.5 -5.5t36 -16
t24.5 -25t9 -31.5zM685 133q0 -30 -13 -57t-37.5 -47.5t-61 -32t-83.5 -11.5q-41 0 -82 6t-72 18l-5 133h67l25 -91q15 -8 34.5 -15t40.5 -7q36 0 62.5 20t26.5 52q0 17 -9.5 28.5t-25.5 21t-36.5 17l-41.5 15.5q-27 10 -52.5 21.5t-44.5 28t-30.5 40t-11.5 56.5
q0 29 12 54.5t34.5 44.5t55.5 30t75 11q34 0 61 -4.5t47 -11.5l44 11l5 -148h-63l-27 88q-14 8 -32 14t-38 6q-34 0 -55 -17t-21 -43q0 -17 7 -29t20.5 -21t33.5 -17t45 -17q27 -10 53.5 -22t47 -28.5t33 -40t12.5 -56.5z" />
    <glyph glyph-name="registered" unicode="&#xae;" horiz-adv-x="768" 
d="M733 313q0 -73 -27 -136.5t-74.5 -110.5t-111 -74.5t-136.5 -27.5q-72 0 -136 27.5t-111 74.5t-74.5 110.5t-27.5 136.5q0 72 27.5 136t74.5 111.5t111 75t136 27.5q73 0 136.5 -27.5t111 -75t74.5 -111.5t27 -136zM692 313q0 64 -24 120.5t-66 99t-98 67.5t-120 25
t-120 -25t-98 -67.5t-66 -99t-24 -120.5t24 -120.5t66 -99t98 -67t120 -24.5t120 24.5t98 67t66 99t24 120.5zM462 129l-22 41l-69 115l-31 2v-104q0 -10 14 -14l27 -6l2 -34h-167l3 34l28 6q14 4 14 14v261q0 11 -14 14l-28 7l-3 34h178q74 0 107.5 -28.5t33.5 -65.5
q0 -78 -89 -103l75 -113q9 -12 16 -15.5t13 -5.5l21 -5l3 -34h-112zM452 391q0 38 -24 56.5t-64 17.5l-24 -1v-142l35 -4q35 2 56 18.5t21 54.5z" />
    <glyph glyph-name="copyright" unicode="&#xa9;" horiz-adv-x="768" 
d="M733 311q0 -72 -27.5 -136t-74.5 -111t-111 -74.5t-136 -27.5t-136 27.5t-111 74.5t-74.5 111t-27.5 136q0 73 27.5 137t74.5 111.5t111 75t136 27.5t136 -27.5t111 -75t74.5 -111.5t27.5 -137zM692 311q0 64 -24 121t-66 99.5t-98 67.5t-120 25t-120 -25t-98 -67.5
t-66 -99.5t-24 -121t24 -120.5t66 -99t98 -67t120 -24.5t120 24.5t98 67t66 99t24 120.5zM525 127l-38 8q-19 -8 -45 -13t-48 -5q-52 0 -90 15.5t-62.5 42t-36.5 61.5t-12 74q0 43 15.5 78.5t42.5 61.5t63.5 40.5t78.5 14.5q29 0 51 -5t36 -10l52 14v-138h-42l-27 85
q-25 19 -74 19q-50 0 -82 -37.5t-32 -110.5q0 -35 8.5 -66t24.5 -54.5t39.5 -37t54.5 -13.5q35 0 55 14l35 89h45z" />
    <glyph glyph-name="trademark" unicode="&#x2122;" horiz-adv-x="937" 
d="M736 253l1 30l32 7q8 2 10.5 12.5t1.5 46.5l-4 232h-10l-98 -316h-68l-74 319h-10l-7 -195q-1 -33 -1 -52.5t1 -29.5t4 -13.5t7 -5.5l32 -5l2 -30h-139l3 30l30 5q6 1 9.5 4t6.5 13t4.5 30t2.5 54l6 185q0 5 -2.5 9t-10.5 6l-34 6l-2 30h169l55 -272h10l79 272h168
l-2 -30l-34 -6q-8 -2 -11 -6t-3 -9l4 -225q0 -19 2 -30t4.5 -17.5t6 -8.5t7.5 -3l31 -7l2 -30h-181zM379 480h-41l-5 19q-7 28 -13 46t-15.5 28.5t-23.5 15t-38 4.5h-1v-290q0 -4 2.5 -8t9.5 -6l39 -6l2 -30h-189l3 30l38 6q8 2 10.5 6t2.5 8v290h-1q-20 0 -33.5 -5t-23 -16
t-16.5 -29t-15 -44l-6 -19h-39l8 145h345v-145z" />
    <glyph glyph-name="acute" unicode="&#xb4;" horiz-adv-x="399" 
d="M181 515h-46l94 182h129z" />
    <glyph glyph-name="dieresis" unicode="&#xa8;" 
d="M373 606q0 -28 -17 -48.5t-49 -20.5q-31 0 -47.5 20.5t-16.5 48.5t16.5 49t47.5 21q32 0 49 -21t17 -49zM158 606q0 -28 -17 -48.5t-48 -20.5t-48.5 20.5t-17.5 48.5t17.5 49t48.5 21t48 -21t17 -49z" />
    <glyph glyph-name="AE" unicode="&#xc6;" horiz-adv-x="903" 
d="M843 0h-525l3 39l49 11q23 5 23 24v148h-193l-23 -45q-19 -37 -28 -61t-9 -38.5t7.5 -21.5t19.5 -9l33 -7l3 -40h-233l3 40l26 7q18 5 31.5 11.5t29.5 25.5t38 56t56 103l136 263q17 32 9 50t-37 23l-34 7l-3 39h621v-206h-66l-22 83q-7 27 -17 42.5t-31 23.5t-57.5 10
t-97.5 2l-39 1v-243h19q44 0 64 5.5t28 26.5l24 68h50l-23 -242h-48l-10 64q-1 9 -5 15.5t-13 10.5t-26 5.5t-44 1.5h-16v-249l40 1q63 0 101 2.5t60 10.5t33 23.5t20 41.5l23 74h70zM393 579h-8l-161 -311h169v311z" />
    <glyph glyph-name="Oslash" unicode="&#xd8;" horiz-adv-x="761" 
d="M705 317q0 -71 -25 -132t-69.5 -105.5t-105.5 -70t-134 -25.5q-78 0 -145 28q-8 -16 -17 -31t-17 -27q-9 -14 -16 -28h-51l61 105q-69 41 -107.5 111.5t-38.5 163.5q0 71 25 132t69.5 105.5t106 70t134.5 25.5q81 0 147 -29l45 78h52l-28 -49l-20 -33t-9 -16
q68 -41 105.5 -110.5t37.5 -162.5zM483 542q-49 48 -117 48q-41 0 -75.5 -17t-60 -51t-39.5 -84t-14 -115q0 -66 15.5 -118t42.5 -89l248 426v0zM568 301q0 64 -15 115.5t-40 88.5l-124 -212l-45.5 -78l-39.5 -68l-28 -48.5l-11 -18.5q51 -46 115 -46q41 0 75 17.5t59.5 51
t39.5 83.5t14 115z" />
    <glyph glyph-name="yen" unicode="&#xa5;" horiz-adv-x="612" 
d="M607 585l-18 -6q-13 -4 -24 -9.5t-22.5 -16t-25 -28t-30.5 -46.5l-100 -174h159l3 -46h-177v-79h174l3 -46h-175v-60q0 -20 23 -24l64 -11l3 -39h-304l3 39l64 11q23 4 23 24v60h-172l3 46h171v79h-174l3 46h151l-148 239q-8 11 -18 19t-26 12l-35 10l-3 40h280l-3 -40
l-35 -6q-20 -4 -17.5 -29t31.5 -76l82 -150h5l85 154q29 52 29 74t-31 28l-22 5l-3 40h207z" />
    <glyph glyph-name="mu" unicode="&#xb5;" horiz-adv-x="494" 
d="M400 378v-5q7 -10 12.5 -25t5.5 -36q0 -38 -14 -69.5t-40 -54.5t-62.5 -35.5t-81.5 -12.5q-30 0 -56 6q-8 -5 -19 -16t-11 -22q0 -45 63 -45q31 0 64.5 1.5t60.5 1.5q32 0 59 -10t47 -28.5t31.5 -44t11.5 -56.5q0 -39 -20 -74t-56 -61.5t-87 -41.5t-113 -15
q-85 0 -136.5 31t-51.5 85q0 45 27.5 70.5t70.5 41.5v4q-32 10 -51 32.5t-19 51.5q0 16 7 32t19 29.5t28 23.5t35 16q0 3 1 4l1 1q-38 17 -65 50t-27 91q0 34 12.5 64.5t37 54t60.5 37.5t84 14q37 0 69 -8t58 -21h145l-2 -78zM304 299q0 77 -32 109q-18 20 -44 20
q-36 0 -57 -29.5t-21 -88.5q0 -79 34 -113q17 -17 41 -17q34 0 51 17q28 28 28 102zM376 -120q0 32 -16 51t-54 24q-20 4 -56.5 3.5t-102.5 -0.5q-10 -6 -25.5 -25t-15.5 -50q0 -43 37 -71.5t101 -28.5q29 0 53 7.5t41.5 20.5t27.5 31t10 38z" />
    <glyph glyph-name="plusminus" unicode="&#xb1;" horiz-adv-x="768" 
d="M733 311q0 -72 -27.5 -135.5t-74.5 -111t-111 -74.5t-136 -27t-136 27t-111 74.5t-74.5 111t-27.5 135.5q0 73 27.5 137t74.5 111.5t111 75t136 27.5t136 -27.5t111 -75t74.5 -111.5t27.5 -137zM692 311q0 64 -24 121t-66 99.5t-98 67.5t-120 25t-120 -25t-98 -67.5
t-66 -99.5t-24 -121t24 -120.5t66 -99t98 -67t120 -24.5t120 24.5t98 67t66 99t24 120.5zM554 393q0 -28 -11.5 -51.5t-31.5 -40.5t-47 -26t-57 -9q-23 0 -43 3v-88q0 -10 14 -13l36 -7l2 -34h-175l2 34l29 7q13 3 13 13v262q0 10 -13 13l-29 8l-2 33h162q77 0 114 -28
t37 -76zM474 385q0 37 -23.5 57.5t-58.5 20.5h-28v-160q10 -2 17.5 -3t21.5 -1q32 0 51.5 22.5t19.5 63.5z" />
    <glyph glyph-name="ordfeminine" unicode="&#xaa;" horiz-adv-x="372" 
d="M376 327q-13 -17 -37 -30t-50 -13q-30 0 -45 16t-19 42h-4q-25 -26 -52.5 -42t-51.5 -16q-16 0 -31.5 5.5t-27.5 16.5t-19 26.5t-7 34.5q0 45 49 75t143 46l2 26q3 35 -20.5 57.5t-55.5 22.5q-17 0 -29.5 -6.5t-12.5 -10.5q0 -2 8 -12.5t8 -24.5q0 -17 -12.5 -28
t-32.5 -11t-33.5 11.5t-13.5 32.5q0 17 16.5 33.5t42.5 30t57 22t59 8.5q50 0 81.5 -28t29.5 -72l-6 -156q-1 -23 4.5 -33t22.5 -10t34 11l3 -24v0zM224 462q-48 -9 -74.5 -26t-26.5 -41q0 -22 12 -36t32 -14q14 0 29.5 9t24.5 18z" />
    <glyph glyph-name="ordmasculine" unicode="&#xba;" horiz-adv-x="409" 
d="M380 463q0 -37 -12.5 -70t-36 -57t-56 -38t-72.5 -14t-72.5 14t-55 38t-34.5 55.5t-12 67.5q0 38 13 70.5t36 57t56 38.5t73 14q41 0 73 -14t54 -38t34 -56t12 -68zM281 443q0 48 -10 84.5t-27 53.5q-8 8 -19.5 14t-26.5 6q-33 0 -52 -34t-19 -88q0 -100 39 -141
q16 -16 45 -16q32 0 51 33.5t19 87.5z" />
    <glyph glyph-name="ae" unicode="&#xe6;" horiz-adv-x="737" 
d="M583 298q3 60 -16.5 93t-53.5 33q-38 0 -67 -32t-35 -96q49 0 87 1q16 0 31.5 0.5t27.5 0.5h19h7zM318 88q-29 -45 -71.5 -74t-89.5 -29q-24 0 -46.5 8t-39.5 23t-27 37t-10 50q0 62 64 102t195 73v10q4 60 -23.5 90.5t-75.5 30.5q-26 0 -47.5 -7t-21.5 -12q0 -2 4 -6.5
t8.5 -11t8.5 -16t4 -21.5q0 -19 -16 -35.5t-43 -16.5q-26 0 -43.5 14.5t-17.5 36.5t20 46t51.5 43.5t71.5 32t80 12.5q47 0 79.5 -12.5t49.5 -39.5q31 25 68.5 38.5t81.5 13.5q36 0 67 -10.5t53.5 -30.5t35 -48.5t12.5 -65.5q0 -12 -1.5 -27t-4.5 -28l-284 4v-11
q0 -41 10.5 -74.5t29 -57t44.5 -36.5t57 -13q34 0 66.5 16t58.5 47l22 -12q-25 -66 -76.5 -101t-123.5 -35q-59 0 -106 27.5t-74 75.5zM289 241q-42 -11 -69.5 -23.5t-44 -27t-23.5 -29.5t-7 -30q0 -32 20 -48t49 -16q26 0 48.5 13t41.5 35q-17 45 -17 96q0 5 0.5 15t1.5 15
z" />
    <glyph glyph-name="oslash" unicode="&#xf8;" horiz-adv-x="546" 
d="M503 585l-46 -79l-17 -29l-14.5 -25.5t-10.5 -18l-4 -6.5q47 -32 72.5 -84.5t25.5 -114.5q0 -51 -17.5 -95.5t-49 -77.5t-75.5 -52t-97 -19q-55 0 -102 22l-77 -135l-40 12l82 143q-46 32 -71.5 84.5t-25.5 114.5q0 51 17.5 95t49.5 77t76 52t97 19q57 0 100 -21l87 150
l40 -12v0zM339 382q-14 18 -35 27t-45 9q-48 0 -76 -44t-28 -122q0 -81 28 -139l156 269v0zM389 200q0 83 -28 139l-155 -269q15 -19 35.5 -27.5t43.5 -8.5q47 0 75.5 44t28.5 122z" />
    <glyph glyph-name="questiondown" unicode="&#xbf;" horiz-adv-x="393" 
d="M341 54q0 -30 -24 -50t-72 -20q-39 0 -77 14.5t-67 39.5t-47 58.5t-18 70.5q0 35 8 57t23 37.5t37 26t49 20.5l29 11.5t24.5 12t17 15.5t6.5 21q0 16 -10 32.5t-26 34.5h41q13 -8 25.5 -19t22.5 -24.5t16 -29t6 -32.5q0 -26 -9 -44t-26 -31.5t-40 -23.5t-52 -19
q-35 -11 -61 -23t-26 -32q0 -14 12.5 -26t33.5 -20.5t48.5 -13t56.5 -4.5q22 0 42 3t35 5q10 -8 16 -21t6 -26zM289 569q0 -29 -20.5 -49t-49.5 -20q-30 0 -49.5 20.5t-19.5 48.5t19.5 49t49.5 21q29 0 49.5 -20.5t20.5 -49.5z" />
    <glyph glyph-name="exclamdown" unicode="&#xa1;" horiz-adv-x="294" 
d="M217 569q0 -28 -19.5 -48.5t-49.5 -20.5q-29 0 -49.5 20.5t-20.5 48.5q0 29 20.5 49.5t49.5 20.5q30 0 49.5 -20.5t19.5 -49.5zM213 37q4 -24 -12.5 -38.5t-51.5 -14.5h-2q-35 0 -51.5 14.5t-12.5 38.5l53 385q1 8 12 8t13 -8l52 -385v0z" />
    <glyph glyph-name="logicalnot" unicode="&#xac;" horiz-adv-x="490" 
d="M490 62q-23 -32 -54.5 -55.5t-62.5 -23.5q-30 0 -54 19t-26 64h-5q-29 -35 -59.5 -58t-71.5 -23q-24 0 -46.5 8t-39.5 23t-27 37t-10 50q0 62 64 102t195 73v8q1 65 -25 94t-74 29q-26 0 -47.5 -7t-21.5 -12q0 -2 4 -6.5t8.5 -11t8.5 -16t4 -21.5q0 -19 -16 -35.5
t-43 -16.5q-26 0 -43.5 14.5t-17.5 36.5t20 46t51.5 43.5t71.5 32t79 12.5q41 0 71.5 -9.5t50.5 -32.5t29 -61t6 -94l-7 -165q-1 -23 5 -33t20 -10q16 0 47 25l16 -26v0zM291 242q-45 -12 -73 -25.5t-44.5 -27t-22.5 -28.5t-6 -30q0 -32 20.5 -48t47.5 -16q20 0 39.5 11
t34.5 27z" />
    <glyph glyph-name="florin" unicode="&#x192;" horiz-adv-x="552" 
d="M567 549q0 -28 -17 -49t-45 -21q-33 0 -52.5 24t-21.5 64l-47 -9q-5 -11 -10.5 -31.5t-10.5 -44.5l-10 -48.5t-10 -45.5h127l4 -57h-139q-19 -98 -44.5 -172.5t-72.5 -122.5q-27 -26 -63 -39t-70 -13q-20 0 -38 6t-31.5 16.5t-21 25t-7.5 32.5q0 27 16.5 44t41.5 17
q32 0 51 -22t22 -55l55 16q10 23 20.5 68t18.5 95l12 97l-86 7l3 34l95 31q16 63 38.5 106.5t45.5 67.5q15 16 34 28.5t39 20.5t39 12.5t35 4.5q44 0 72 -24.5t28 -62.5z" />
    <glyph glyph-name="guillemotleft" unicode="&#xab;" horiz-adv-x="500" 
d="M467 37l-233 154v60l233 154l12 -21l-157 -163l157 -163zM256 47l-228 144v60l228 144l12 -21l-140 -153l140 -153z" />
    <glyph glyph-name="guillemotright" unicode="&#xbb;" horiz-adv-x="500" 
d="M253 47l-11 21l140 153l-140 153l11 21l228 -144v-60zM42 37l-11 21l156 163l-156 163l11 21l234 -154v-60z" />
    <glyph glyph-name="ellipsis" unicode="&#x2026;" horiz-adv-x="696" 
d="M659 62q0 -31 -22 -54.5t-55 -23.5t-55.5 23t-22.5 55t22.5 54.5t55.5 22.5t55 -22.5t22 -54.5zM427 62q0 -31 -22 -54.5t-55 -23.5t-55.5 23t-22.5 55t22.5 54.5t55.5 22.5t55 -22.5t22 -54.5zM195 62q0 -31 -22 -54.5t-55 -23.5t-55.5 23t-22.5 55t22.5 54.5t55.5 22.5
t55 -22.5t22 -54.5z" />
    <glyph glyph-name="Agrave" unicode="&#xc0;" horiz-adv-x="631" 
d="M343 0l3 41l39 6q15 2 23 7.5t9 17t-4 31t-16 50.5l-18 55h-204l-13 -41q-20 -60 -17.5 -87.5t30.5 -32.5l33 -6l3 -41h-231l3 41l25 6q17 5 29 11.5t24.5 25t28 55.5t39.5 101l117 324v42l123 36l189 -555q11 -29 48 -37l39 -9l3 -41h-305zM284 509h-9l-85 -252h174z
M305 682l-177 182h127l95 -182h-45z" />
    <glyph glyph-name="Atilde" unicode="&#xc3;" horiz-adv-x="631" 
d="M343 0l3 41l39 6q15 2 23 7.5t9 17t-4 31t-16 50.5l-18 55h-204l-13 -41q-20 -60 -17.5 -87.5t30.5 -32.5l33 -6l3 -41h-231l3 41l25 6q17 5 29 11.5t24.5 25t28 55.5t39.5 101l117 324v42l123 36l189 -555q11 -29 48 -37l39 -9l3 -41h-305zM284 509h-9l-85 -252h174z
M490 825q-8 -72 -34 -103.5t-70 -31.5q-22 0 -44 11t-42 24.5t-38 24.5t-32 11q-17 0 -25 -15t-19 -47h-44q9 72 34.5 103.5t69.5 31.5q23 0 44.5 -11t41 -24l37 -24t31.5 -11q16 0 26.5 14.5t21.5 46.5h42v0z" />
    <glyph glyph-name="Otilde" unicode="&#xd5;" horiz-adv-x="761" 
d="M718 316q0 -72 -27 -133t-73.5 -105.5t-108 -69t-131.5 -24.5q-75 0 -136.5 23.5t-106 65.5t-68.5 101.5t-24 131.5t27 133.5t73.5 105.5t108.5 69t131 25q75 0 136.5 -23.5t106 -66t68.5 -102t24 -131.5zM573 305q0 69 -15.5 122.5t-42 90t-62 55.5t-75.5 19
t-74.5 -17.5t-60.5 -52t-41 -85.5t-15 -119q0 -69 15.5 -123t42.5 -90.5t62.5 -55.5t75.5 -19q39 0 74 17.5t60.5 52t40.5 86t15 119.5zM554 825q-8 -72 -34 -103.5t-70 -31.5q-22 0 -44 11t-42 24.5t-38 24.5t-32 11q-17 0 -25 -15t-19 -47h-44q9 72 34.5 103.5t69.5 31.5
q23 0 44.5 -11t41 -24l37 -24t31.5 -11q16 0 26.5 14.5t21.5 46.5h42v0z" />
    <glyph glyph-name="OE" unicode="&#x152;" horiz-adv-x="999" 
d="M934 0h-530q-81 0 -147.5 22t-114 61.5t-73.5 94t-26 120.5q0 65 24.5 124.5t72.5 104.5t118.5 71.5t161.5 26.5h516v-203h-63l-22 85q-7 26 -16.5 40.5t-30.5 22t-58 9.5t-99 2h-48v-243h29q47 0 66.5 5.5t26.5 25.5l24 68h49l-23 -239h-47l-9 64q-1 9 -5 15t-13 10
t-26 5.5t-46 1.5h-26v-250h48q65 0 103.5 2.5t60.5 10.5t32.5 22.5t19.5 39.5l23 76h67zM476 567l-72 15q-54 0 -96 -20t-71 -55t-44 -82.5t-15 -101.5q0 -63 16.5 -114.5t50 -87.5t83.5 -56t116 -20h32v522z" />
    <glyph glyph-name="oe" unicode="&#x153;" horiz-adv-x="834" 
d="M679 298q4 60 -15.5 93t-53.5 33q-38 0 -69.5 -32t-37.5 -96q50 0 89 1q17 0 32.5 0.5t28 0.5h20t6.5 0zM384 201q0 63 -11.5 114.5t-35.5 76.5q-11 11 -27.5 20t-39.5 9q-48 0 -77.5 -44.5t-30.5 -125.5q0 -65 10 -115.5t36 -77.5q10 -10 27.5 -18.5t40.5 -8.5
q47 0 77 46t31 124zM439 56q-33 -33 -77.5 -52t-98.5 -19t-97 19t-72.5 51.5t-45 76t-14.5 92.5q1 51 20 95.5t52 77.5t78.5 52t99.5 19q56 0 99 -20t72 -55q32 35 76.5 55t97.5 20q36 0 67 -10.5t53.5 -30.5t35 -48.5t12.5 -65.5q0 -12 -1.5 -27t-4.5 -28l-289 4v-11
q0 -41 11 -74.5t30.5 -57t46.5 -36.5t58 -13q34 0 66.5 16t58.5 47l22 -12q-25 -66 -76.5 -101t-124.5 -35q-48 0 -87.5 18.5t-67.5 52.5z" />
    <glyph glyph-name="endash" unicode="&#x2013;" horiz-adv-x="470" 
d="M30 215l3 60h406l3 -60h-412z" />
    <glyph glyph-name="emdash" unicode="&#x2014;" horiz-adv-x="940" 
d="M30 215l3 60h876l3 -60h-882z" />
    <glyph glyph-name="quotedblleft" unicode="&#x201c;" horiz-adv-x="458" 
d="M433 421q0 -27 -21 -49.5t-58 -22.5q-20 0 -38.5 8.5t-33 23t-23 34.5t-8.5 43q0 32 12.5 61t33.5 55.5t49.5 50.5t60.5 45l29 -25q-39 -27 -66 -59.5t-27 -72.5q0 -24 14 -41t31 -27.5t31 -16t14 -7.5zM210 421q0 -27 -21 -49.5t-58 -22.5q-21 0 -39.5 8.5t-32.5 23
t-22.5 34.5t-8.5 43q0 32 12.5 61t33.5 55.5t49.5 50.5t60.5 45l29 -25q-40 -27 -66.5 -59.5t-26.5 -72.5q0 -24 14 -41t31 -27.5t31 -16t14 -7.5z" />
    <glyph glyph-name="quotedblright" unicode="&#x201d;" horiz-adv-x="458" 
d="M440 550q0 -31 -12.5 -60.5t-33.5 -55.5t-49.5 -50t-60.5 -45l-29 24q39 27 66 59.5t27 72.5q0 24 -14 41t-31 27.5t-31 16t-14 7.5q0 27 21 49.5t58 22.5q20 0 39 -8.5t33 -23t22.5 -34.5t8.5 -43zM216 550q0 -31 -12.5 -60.5t-33.5 -55.5t-49 -50t-60 -45l-30 24
q40 27 66.5 59.5t26.5 72.5q0 24 -14 41t-31 27.5t-31 16t-14 7.5q0 27 21 49.5t58 22.5q21 0 39.5 -8.5t32.5 -23t22.5 -34.5t8.5 -43z" />
    <glyph glyph-name="quoteleft" unicode="&#x2018;" horiz-adv-x="242" 
d="M210 421q0 -27 -21 -49.5t-58 -22.5q-21 0 -39.5 8.5t-32.5 23t-22.5 34.5t-8.5 43q0 32 12.5 61t33.5 55.5t49.5 50.5t60.5 45l29 -25q-40 -27 -66.5 -59.5t-26.5 -72.5q0 -24 14 -41t31 -27.5t31 -16t14 -7.5z" />
    <glyph glyph-name="quoteright" unicode="&#x2019;" horiz-adv-x="242" 
d="M216 550q0 -31 -12.5 -60.5t-33.5 -55.5t-49 -50t-60 -45l-30 24q40 27 66.5 59.5t26.5 72.5q0 24 -14 41t-31 27.5t-31 16t-14 7.5q0 27 21 49.5t58 22.5q21 0 39.5 -8.5t32.5 -23t22.5 -34.5t8.5 -43z" />
    <glyph glyph-name="ydieresis" unicode="&#xff;" horiz-adv-x="483" 
d="M503 415l-30 -6q-19 -3 -29.5 -17t-22.5 -43l-120 -314l-57 -168q-23 -66 -51.5 -97.5t-73.5 -31.5q-32 0 -54 18t-22 45q0 23 14 41.5t42 18.5q26 0 41.5 -13t22.5 -29q12 5 22 21.5t21 51.5l26 76v6l-178 396q-7 16 -15.5 23t-28.5 12l-23 9l-4 39h248l-3 -39l-30 -8
q-29 -6 -16 -38l106 -250l81 231q10 27 5.5 39.5t-23.5 15.5l-33 11l-3 38h191zM424 606q0 -28 -17 -48.5t-49 -20.5q-31 0 -47.5 20.5t-16.5 48.5t16.5 49t47.5 21q32 0 49 -21t17 -49zM209 606q0 -28 -17 -48.5t-48 -20.5t-48.5 20.5t-17.5 48.5t17.5 49t48.5 21t48 -21
t17 -49z" />
    <glyph glyph-name="Ydieresis" unicode="&#x178;" horiz-adv-x="606" 
d="M615 584l-20 -6q-12 -4 -22.5 -9t-22.5 -16.5t-26 -30.5t-33 -50l-119 -206v-205q0 -7 6.5 -11t29.5 -6l49 -4l3 -40h-309l3 40l51 4q35 4 35 19v190l-171 285q-9 14 -20.5 23.5t-28.5 14.5l-29 8l-3 41h285l-3 -41l-35 -6q-10 -2 -15.5 -8t-5 -18t8 -31.5t23.5 -48.5
l89 -160h7l89 159q32 54 30 78t-32 29l-28 6l-3 41h220zM491 773q0 -28 -17 -48.5t-49 -20.5q-31 0 -47.5 20.5t-16.5 48.5t16.5 49t47.5 21q32 0 49 -21t17 -49zM276 773q0 -28 -17 -48.5t-48 -20.5t-48.5 20.5t-17.5 48.5t17.5 49t48.5 21t48 -21t17 -49z" />
    <glyph glyph-name="fraction" unicode="&#x2044;" horiz-adv-x="525" 
d="M60 -15h-63l469 653h62z" />
    <glyph glyph-name="currency" unicode="&#xa4;" horiz-adv-x="529" 
d="M512 118q-24 -58 -74 -96t-120 -38q-92 0 -153.5 61.5t-81.5 170.5h-64l3 47h55q-1 8 -1 16v16q0 11 0.5 22.5t1.5 22.5h-59l3 47h63q12 54 36.5 98.5t59.5 76t79 49t95 17.5q66 0 106 -24.5t40 -60.5q0 -26 -16 -41.5t-40 -15.5q-31 0 -49 25.5t-21 57.5q-9 5 -19 8.5
t-24 3.5q-28 0 -52 -14.5t-42.5 -40t-31 -61.5t-17.5 -78h201l3 -47h-208v-19q0 -31 3 -58h202l3 -47h-197q19 -74 58.5 -113t100.5 -39q41 0 75.5 19t61.5 48l20 -13v0z" />
    <glyph glyph-name="guilsinglleft" unicode="&#x2039;" horiz-adv-x="310" 
d="M267 37l-234 154v60l234 154l11 -21l-145 -163l145 -163z" />
    <glyph glyph-name="guilsinglright" unicode="&#x203a;" horiz-adv-x="310" 
d="M52 37l-11 21l145 163l-145 163l11 21l234 -154v-60z" />
    <glyph glyph-name="fi" unicode="&#xfb01;" horiz-adv-x="596" 
d="M330 0l3 39l23 3q14 2 24 6t10 13v326h-187v-327q0 -8 7 -12t31 -6l41 -3l3 -39h-260l3 39l24 3q34 3 34 19v323l-80 7l6 57h69l2 23q3 53 23.5 95t54.5 71t79.5 44.5t99.5 15.5q27 0 52 -6t43.5 -17.5t29.5 -28.5t11 -39q0 -28 -18 -44.5t-45 -16.5q-29 0 -50 18.5
t-31 62.5l-1 4l-62 11q-29 -20 -47.5 -61.5t-18.5 -108.5v-23h187l117 19v-407q0 -10 10 -13t28 -5l21 -3l3 -39h-239z" />
    <glyph glyph-name="fl" unicode="&#xfb02;" horiz-adv-x="594" 
d="M203 387v-327q0 -8 7 -12t31 -6l41 -3l3 -39h-260l3 39l24 3q34 3 34 19v323l-80 7l6 57h69l2 23q3 53 23.5 95t54.5 71t79.5 44.5t99.5 15.5q29 0 55 -6.5t45 -19.5l67 26v-637q0 -8 7 -12t31 -6l21 -3l3 -39h-239l3 39l23 3q34 3 34 19v326h-187zM390 548
q-20 6 -35 24.5t-23 53.5l-1 4l-62 11q-29 -20 -47.5 -61.5t-18.5 -108.5v-23h187v100v0z" />
    <glyph glyph-name="daggerdbl" unicode="&#x2021;" horiz-adv-x="470" 
d="M258 20v-175h-44v175h-183l4 45h179v338h-179l-4 45h183v178h44v-178h184l-4 -45h-180v-338h180l4 -45h-184z" />
    <glyph glyph-name="periodcentered" unicode="&#xb7;" horiz-adv-x="232" 
d="M194 239q0 -31 -22 -54.5t-55 -23.5t-55.5 23t-22.5 55t22.5 54.5t55.5 22.5t55 -22.5t22 -54.5z" />
    <glyph glyph-name="quotesinglbase" unicode="&#x201a;" horiz-adv-x="242" 
d="M216 27q0 -32 -12.5 -61t-33.5 -55.5t-49 -50.5t-60 -45l-30 24q40 27 66.5 59.5t26.5 72.5q0 25 -14 42t-31 27.5t-31 16t-14 7.5q0 27 21 49.5t58 22.5q21 0 39.5 -8.5t32.5 -23t22.5 -34.5t8.5 -43z" />
    <glyph glyph-name="quotedblbase" unicode="&#x201e;" horiz-adv-x="453" 
d="M440 26q0 -32 -12.5 -61t-33.5 -55t-49.5 -50t-60.5 -45l-29 24q39 27 66 59.5t27 72.5q0 24 -14 41t-31 27.5t-31 16t-14 7.5q0 27 21 49.5t58 22.5q20 0 39 -8.5t33 -23t22.5 -34.5t8.5 -43zM216 26q0 -32 -12.5 -61t-33.5 -55t-49 -50t-60 -45l-30 24q40 27 66.5 59.5
t26.5 72.5q0 24 -14 41t-31 27.5t-31 16t-14 7.5q0 27 21 49.5t58 22.5q21 0 39.5 -8.5t32.5 -23t22.5 -34.5t8.5 -43z" />
    <glyph glyph-name="perthousand" unicode="&#x2030;" horiz-adv-x="1126" 
d="M349 482q0 -33 -11.5 -63t-33 -52.5t-52 -36t-69.5 -13.5q-38 0 -69 13.5t-52.5 36t-33 52.5t-11.5 63q0 34 11.5 64.5t33 53t52.5 36t69 13.5q39 0 69.5 -13.5t52 -36t33 -53t11.5 -64.5zM147 -15h-54l507 654h54zM729 142q0 -34 -11.5 -64.5t-33 -53t-52.5 -36
t-69 -13.5q-39 0 -69.5 13.5t-52 36t-33 53t-11.5 64.5q0 33 11.5 63t33 52.5t52 36t69.5 13.5q38 0 69 -13.5t52.5 -36t33 -52.5t11.5 -63zM300 482q0 25 -8 47.5t-23 39t-37 26t-49 9.5t-49 -9.5t-37 -26t-23 -39t-8 -47.5q0 -24 8 -45.5t23 -38t37 -26.5t49 -10t49 10
t37 26.5t23 38t8 45.5zM680 142q0 24 -8 45.5t-23 38t-37 26.5t-49 10t-49 -10t-37 -26.5t-23 -38t-8 -45.5q0 -25 8 -47.5t23 -39t37 -26t49 -9.5t49 9.5t37 26t23 39t8 47.5zM1109 142q0 -34 -11.5 -64.5t-33 -53t-52.5 -36t-69 -13.5q-39 0 -69.5 13.5t-52 36t-33 53
t-11.5 64.5q0 33 11.5 63t33 52.5t52 36t69.5 13.5q38 0 69 -13.5t52.5 -36t33 -52.5t11.5 -63zM1060 142q0 24 -8 45.5t-23 38t-37 26.5t-49 10t-49 -10t-37 -26.5t-23 -38t-8 -45.5q0 -25 8 -47.5t23 -39t37 -26t49 -9.5t49 9.5t37 26t23 39t8 47.5z" />
    <glyph glyph-name="Acircumflex" unicode="&#xc2;" horiz-adv-x="631" 
d="M343 0l3 41l39 6q15 2 23 7.5t9 17t-4 31t-16 50.5l-18 55h-204l-13 -41q-20 -60 -17.5 -87.5t30.5 -32.5l33 -6l3 -41h-231l3 41l25 6q17 5 29 11.5t24.5 25t28 55.5t39.5 101l117 324v42l123 36l189 -555q11 -29 48 -37l39 -9l3 -41h-305zM284 509h-9l-85 -252h174z
M422 682l-105 105h-2l-105 -105h-37l116 197h54l116 -197h-37z" />
    <glyph glyph-name="Ecircumflex" unicode="&#xca;" horiz-adv-x="642" 
d="M577 0h-541l3 40l36 4q19 2 26.5 6.5t7.5 12.5v500q0 7 -6.5 11t-31.5 7l-32 4l-3 40h543v-206h-68l-22 83q-7 27 -17 42.5t-31 23.5t-57 10t-96 2h-47v-242h25q43 0 63 5.5t28 26.5l24 68h52l-23 -242h-50l-10 64q-1 9 -4.5 15.5t-13 10.5t-26 5.5t-43.5 1.5h-22v-248
h49q62 0 99 2.5t59 10.5t33.5 23.5t20.5 41.5l22 74h72zM427 682l-105 105h-2l-105 -105h-37l116 197h54l116 -197h-37z" />
    <glyph glyph-name="Aacute" unicode="&#xc1;" horiz-adv-x="631" 
d="M343 0l3 41l39 6q15 2 23 7.5t9 17t-4 31t-16 50.5l-18 55h-204l-13 -41q-20 -60 -17.5 -87.5t30.5 -32.5l33 -6l3 -41h-231l3 41l25 6q17 5 29 11.5t24.5 25t28 55.5t39.5 101l117 324v42l123 36l189 -555q11 -29 48 -37l39 -9l3 -41h-305zM284 509h-9l-85 -252h174z
M312 682h-46l94 182h129z" />
    <glyph glyph-name="Edieresis" unicode="&#xcb;" horiz-adv-x="642" 
d="M577 0h-541l3 40l36 4q19 2 26.5 6.5t7.5 12.5v500q0 7 -6.5 11t-31.5 7l-32 4l-3 40h543v-206h-68l-22 83q-7 27 -17 42.5t-31 23.5t-57 10t-96 2h-47v-242h25q43 0 63 5.5t28 26.5l24 68h52l-23 -242h-50l-10 64q-1 9 -4.5 15.5t-13 10.5t-26 5.5t-43.5 1.5h-22v-248
h49q62 0 99 2.5t59 10.5t33.5 23.5t20.5 41.5l22 74h72zM494 773q0 -28 -17 -48.5t-49 -20.5q-31 0 -47.5 20.5t-16.5 48.5t16.5 49t47.5 21q32 0 49 -21t17 -49zM279 773q0 -28 -17 -48.5t-48 -20.5t-48.5 20.5t-17.5 48.5t17.5 49t48.5 21t48 -21t17 -49z" />
    <glyph glyph-name="Egrave" unicode="&#xc8;" horiz-adv-x="642" 
d="M577 0h-541l3 40l36 4q19 2 26.5 6.5t7.5 12.5v500q0 7 -6.5 11t-31.5 7l-32 4l-3 40h543v-206h-68l-22 83q-7 27 -17 42.5t-31 23.5t-57 10t-96 2h-47v-242h25q43 0 63 5.5t28 26.5l24 68h52l-23 -242h-50l-10 64q-1 9 -4.5 15.5t-13 10.5t-26 5.5t-43.5 1.5h-22v-248
h49q62 0 99 2.5t59 10.5t33.5 23.5t20.5 41.5l22 74h72zM328 682l-177 182h127l95 -182h-45z" />
    <glyph glyph-name="Iacute" unicode="&#xcd;" horiz-adv-x="373" 
d="M37 0l3 40l46 4q35 4 35 19v500q0 7 -7 11t-31 7l-43 4l-3 40h300l-3 -40l-47 -4q-20 -2 -27 -6.5t-7 -12.5v-501q0 -7 6.5 -11t29.5 -6l45 -4l3 -40h-300zM199 682h-46l94 182h129z" />
    <glyph glyph-name="Icircumflex" unicode="&#xce;" horiz-adv-x="373" 
d="M37 0l3 40l46 4q35 4 35 19v500q0 7 -7 11t-31 7l-43 4l-3 40h300l-3 -40l-47 -4q-20 -2 -27 -6.5t-7 -12.5v-501q0 -7 6.5 -11t29.5 -6l45 -4l3 -40h-300zM293 682l-105 105h-2l-105 -105h-37l116 197h54l116 -197h-37z" />
    <glyph glyph-name="Idieresis" unicode="&#xcf;" horiz-adv-x="373" 
d="M37 0l3 40l46 4q35 4 35 19v500q0 7 -7 11t-31 7l-43 4l-3 40h300l-3 -40l-47 -4q-20 -2 -27 -6.5t-7 -12.5v-501q0 -7 6.5 -11t29.5 -6l45 -4l3 -40h-300zM360 773q0 -28 -17 -48.5t-49 -20.5q-31 0 -47.5 20.5t-16.5 48.5t16.5 49t47.5 21q32 0 49 -21t17 -49zM145 773
q0 -28 -17 -48.5t-48 -20.5t-48.5 20.5t-17.5 48.5t17.5 49t48.5 21t48 -21t17 -49z" />
    <glyph glyph-name="Igrave" unicode="&#xcc;" horiz-adv-x="373" 
d="M37 0l3 40l46 4q35 4 35 19v500q0 7 -7 11t-31 7l-43 4l-3 40h300l-3 -40l-47 -4q-20 -2 -27 -6.5t-7 -12.5v-501q0 -7 6.5 -11t29.5 -6l45 -4l3 -40h-300zM176 682l-177 182h127l95 -182h-45z" />
    <glyph glyph-name="Oacute" unicode="&#xd3;" horiz-adv-x="761" 
d="M718 316q0 -72 -27 -133t-73.5 -105.5t-108 -69t-131.5 -24.5q-75 0 -136.5 23.5t-106 65.5t-68.5 101.5t-24 131.5t27 133.5t73.5 105.5t108.5 69t131 25q75 0 136.5 -23.5t106 -66t68.5 -102t24 -131.5zM573 305q0 69 -15.5 122.5t-42 90t-62 55.5t-75.5 19
t-74.5 -17.5t-60.5 -52t-41 -85.5t-15 -119q0 -69 15.5 -123t42.5 -90.5t62.5 -55.5t75.5 -19q39 0 74 17.5t60.5 52t40.5 86t15 119.5zM377 682h-46l94 182h129z" />
    <glyph glyph-name="Ocircumflex" unicode="&#xd4;" horiz-adv-x="761" 
d="M718 316q0 -72 -27 -133t-73.5 -105.5t-108 -69t-131.5 -24.5q-75 0 -136.5 23.5t-106 65.5t-68.5 101.5t-24 131.5t27 133.5t73.5 105.5t108.5 69t131 25q75 0 136.5 -23.5t106 -66t68.5 -102t24 -131.5zM573 305q0 69 -15.5 122.5t-42 90t-62 55.5t-75.5 19
t-74.5 -17.5t-60.5 -52t-41 -85.5t-15 -119q0 -69 15.5 -123t42.5 -90.5t62.5 -55.5t75.5 -19q39 0 74 17.5t60.5 52t40.5 86t15 119.5zM486 682l-105 105h-2l-105 -105h-37l116 197h54l116 -197h-37z" />
    <glyph glyph-name="apple" unicode="&#xf8ff;" horiz-adv-x="758" 
d="M583 236l69 -189l-189 69l-85 -181l-84 180l-187 -68l68 187l-181 86l181 83l-68 189l187 -69l86 181l83 -181l189 69l-69 -189l180 -82zM531 382l50 139l-139 -50l-63 133l-63 -133l-139 50l51 -139l-134 -63l134 -63l-51 -138l139 51l62 -135l64 135l139 -51l-50 140
l132 62z" />
    <glyph glyph-name="Ograve" unicode="&#xd2;" horiz-adv-x="761" 
d="M718 316q0 -72 -27 -133t-73.5 -105.5t-108 -69t-131.5 -24.5q-75 0 -136.5 23.5t-106 65.5t-68.5 101.5t-24 131.5t27 133.5t73.5 105.5t108.5 69t131 25q75 0 136.5 -23.5t106 -66t68.5 -102t24 -131.5zM573 305q0 69 -15.5 122.5t-42 90t-62 55.5t-75.5 19
t-74.5 -17.5t-60.5 -52t-41 -85.5t-15 -119q0 -69 15.5 -123t42.5 -90.5t62.5 -55.5t75.5 -19q39 0 74 17.5t60.5 52t40.5 86t15 119.5zM400 682l-177 182h127l95 -182h-45z" />
    <glyph glyph-name="Uacute" unicode="&#xda;" horiz-adv-x="710" 
d="M693 585l-47 -10q-11 -2 -18.5 -8t-12.5 -25.5t-7.5 -58.5t-2.5 -108v-165q0 -52 -17 -95t-49.5 -73t-78.5 -46.5t-103 -16.5t-104.5 13t-81 39.5t-52 66.5t-18.5 93v372q0 7 -6.5 11t-31.5 7l-32 4l-3 40h279l-3 -40l-36 -4q-21 -2 -28 -6.5t-7 -12.5v-336
q0 -91 42 -136t118 -45q78 0 119.5 44.5t41.5 136.5v149q0 68 -2 107t-6.5 59t-11.5 26t-18 8l-54 10l-3 40h237zM387 682h-46l94 182h129z" />
    <glyph glyph-name="Ucircumflex" unicode="&#xdb;" horiz-adv-x="710" 
d="M693 585l-47 -10q-11 -2 -18.5 -8t-12.5 -25.5t-7.5 -58.5t-2.5 -108v-165q0 -52 -17 -95t-49.5 -73t-78.5 -46.5t-103 -16.5t-104.5 13t-81 39.5t-52 66.5t-18.5 93v372q0 7 -6.5 11t-31.5 7l-32 4l-3 40h279l-3 -40l-36 -4q-21 -2 -28 -6.5t-7 -12.5v-336
q0 -91 42 -136t118 -45q78 0 119.5 44.5t41.5 136.5v149q0 68 -2 107t-6.5 59t-11.5 26t-18 8l-54 10l-3 40h237zM481 682l-105 105h-2l-105 -105h-37l116 197h54l116 -197h-37z" />
    <glyph glyph-name="Ugrave" unicode="&#xd9;" horiz-adv-x="710" 
d="M693 585l-47 -10q-11 -2 -18.5 -8t-12.5 -25.5t-7.5 -58.5t-2.5 -108v-165q0 -52 -17 -95t-49.5 -73t-78.5 -46.5t-103 -16.5t-104.5 13t-81 39.5t-52 66.5t-18.5 93v372q0 7 -6.5 11t-31.5 7l-32 4l-3 40h279l-3 -40l-36 -4q-21 -2 -28 -6.5t-7 -12.5v-336
q0 -91 42 -136t118 -45q78 0 119.5 44.5t41.5 136.5v149q0 68 -2 107t-6.5 59t-11.5 26t-18 8l-54 10l-3 40h237zM375 682l-177 182h127l95 -182h-45z" />
    <glyph glyph-name="dotlessi" unicode="&#x131;" horiz-adv-x="296" 
d="M30 0l3 39l23 3q34 3 34 19v240q0 24 -2 38t-6.5 22.5t-13 13t-21.5 7.5l-20 6l1 31l179 49v-408q0 -8 7 -12t31 -6l22 -3l3 -39h-240z" />
    <glyph glyph-name="circumflex" unicode="&#x2c6;" 
d="M306 515l-105 105h-2l-105 -105h-37l116 197h54l116 -197h-37z" />
    <glyph glyph-name="tilde" unicode="&#x2dc;" 
d="M374 658q-8 -72 -34 -103.5t-70 -31.5q-22 0 -44 11t-42 24.5t-38 24.5t-32 11q-17 0 -25 -15t-19 -47h-44q9 72 34.5 103.5t69.5 31.5q23 0 44.5 -11t41 -24l37 -24t31.5 -11q16 0 26.5 14.5t21.5 46.5h42v0z" />
    <glyph glyph-name="macron" unicode="&#xaf;" 
d="M53 546l6 58h283l6 -58h-295z" />
    <glyph glyph-name="breve" unicode="&#x2d8;" 
d="M351 697q-6 -40 -17.5 -74.5t-29.5 -59.5t-43.5 -39t-60.5 -14q-34 0 -60 14t-44 39t-29.5 59.5t-17.5 74.5h45q9 -24 19 -46t23 -38.5t28.5 -26t35.5 -9.5t36 10t28.5 26.5t23 38.5t19.5 45h44v0z" />
    <glyph glyph-name="dotaccent" unicode="&#x2d9;" 
d="M267 611q0 -29 -18 -50t-50 -21t-49 21t-17 50t17 50.5t49 21.5t50 -21.5t18 -50.5z" />
    <glyph glyph-name="ring" unicode="&#x2da;" 
d="M299 613q0 -41 -26.5 -70.5t-72.5 -29.5t-72.5 29.5t-26.5 70.5t26.5 70.5t72.5 29.5t72.5 -29.5t26.5 -70.5zM264 613q0 26 -17 47t-47 21t-47 -21t-17 -47t17 -46.5t47 -20.5t47 20.5t17 46.5z" />
    <glyph glyph-name="cedilla" unicode="&#xb8;" 
d="M321 -149q0 -27 -16 -49t-45 -38.5t-70 -26t-91 -12.5l-10 27q157 18 157 81q0 23 -21 37.5t-63 14.5q-37 0 -69 -7v24l115 119h50l-74 -75q63 -2 100 -26.5t37 -68.5z" />
    <glyph glyph-name="hungarumlaut" unicode="&#x2dd;" 
d="M284 515h-41l92 182h118zM108 515h-41l91 182h119z" />
    <glyph glyph-name="ogonek" unicode="&#x2db;" 
d="M321 -189q-23 -20 -51.5 -34.5t-65.5 -14.5q-24 0 -46 7.5t-39 21.5t-27 33.5t-10 43.5q0 26 11 49t30.5 42.5t45 35t55.5 26.5h57q-63 -30 -94 -68t-31 -70q0 -28 20 -47.5t58 -19.5q20 0 40 6t37 15l10 -26v0z" />
    <glyph glyph-name="caron" unicode="&#x2c7;" 
d="M227 515h-54l-116 197h37l105 -105h2l105 105h37z" />
    <glyph glyph-name="ff" unicode="&#xfb00;" horiz-adv-x="648" 
d="M735 614q0 -29 -18 -44.5t-41 -15.5q-28 0 -48 19.5t-30 63.5l-1 4l-29 2q-28 -19 -42.5 -57.5t-14.5 -105.5v-32h137l-7 -61h-130v-327q0 -8 7 -12t31 -6l41 -3l3 -39h-259l3 39l24 3q14 2 24 6t10 13v327h-192v-322q0 -8 6 -13.5t24 -7.5l52 -6l3 -39h-263l3 39l30 6
q28 4 28 22v317l-80 7l6 57h69l2 13q5 50 24.5 91.5t50.5 71.5t71 46.5t85 16.5q23 0 43.5 -5.5t36 -16t24.5 -25t9 -31.5q0 -29 -18 -44.5t-41 -15.5q-28 0 -48 19.5t-30 63.5l-1 4l-29 2q-28 -19 -42.5 -57.5t-14.5 -105.5v-27h187l1 17q3 50 23 92t51.5 72t72 46.5
t84.5 16.5q23 0 43.5 -5.5t36 -16t24.5 -25t9 -31.5z" />
    <glyph glyph-name="ffi" unicode="&#xfb03;" horiz-adv-x="904" 
d="M815 467v-407q0 -10 10 -13t28 -5l21 -3l3 -39h-239l3 39l23 3q14 2 24 6t10 13v326h-187v-327q0 -8 7 -12t31 -6l41 -3l3 -39h-259l3 39l24 3q14 2 24 6t10 13v327h-192v-322q0 -8 6 -13.5t24 -7.5l52 -6l3 -39h-263l3 39l30 6q28 4 28 22v317l-80 7l6 57h69l2 13
q5 50 24.5 91.5t50.5 71.5t71 46.5t85 16.5q23 0 43.5 -5.5t36 -16t24.5 -25t9 -31.5q0 -29 -18 -44.5t-41 -15.5q-28 0 -48 19.5t-30 63.5l-1 4l-29 2q-28 -19 -42.5 -57.5t-14.5 -105.5v-27h187l1 23q4 53 24.5 95t54 71t79 44.5t99.5 15.5q27 0 52 -6t43.5 -17.5
t29.5 -28.5t11 -39q0 -28 -18 -44.5t-45 -16.5q-29 0 -50 18.5t-31 62.5l-1 4l-62 11q-29 -20 -47.5 -61.5t-18.5 -108.5v-23h187z" />
    <glyph glyph-name="ffl" unicode="&#xfb04;" horiz-adv-x="902" 
d="M511 387v-327q0 -8 7 -12t31 -6l41 -3l3 -39h-259l3 39l24 3q14 2 24 6t10 13v327h-192v-322q0 -8 6 -13.5t24 -7.5l52 -6l3 -39h-263l3 39l30 6q28 4 28 22v317l-80 7l6 57h69l2 13q5 50 24.5 91.5t50.5 71.5t71 46.5t85 16.5q23 0 43.5 -5.5t36 -16t24.5 -25t9 -31.5
q0 -29 -18 -44.5t-41 -15.5q-28 0 -48 19.5t-30 63.5l-1 4l-29 2q-28 -19 -42.5 -57.5t-14.5 -105.5v-27h187l1 23q4 53 24.5 95t54 71t79 44.5t99.5 15.5q29 0 55 -6.5t45 -19.5l67 26v-637q0 -8 7 -12t31 -6l21 -3l3 -39h-239l3 39l23 3q34 3 34 19v326h-187zM698 548
q-20 6 -35 24.5t-23 53.5l-1 4l-62 11q-29 -20 -47.5 -61.5t-18.5 -108.5v-23h187v100v0z" />
    <glyph glyph-name="Pi" unicode="&#x3a0;" horiz-adv-x="526" 
d="M512 585l-52 -11q-23 -4 -23 -24v-331q0 -61 -17 -105.5t-48 -73t-73.5 -42.5t-92.5 -14q-49 0 -85 10t-59 27.5t-34.5 39.5t-11.5 46q0 35 21 56.5t50 21.5q26 0 45.5 -15.5t19.5 -43.5q0 -20 -7 -35.5t-17 -26.5q11 -12 32.5 -22.5t46.5 -10.5q46 0 72 33.5t26 110.5
v375q0 20 -23 24l-68 12l-3 39h304z" />
    <glyph glyph-name="Euro" unicode="&#x20ac;" horiz-adv-x="529" 
d="M512 118q-24 -58 -74 -96t-120 -38q-92 0 -153.5 61.5t-81.5 170.5h-64l3 47h55q-1 8 -1 16v16q0 11 0.5 22.5t1.5 22.5h-59l3 47h63q12 54 36.5 98.5t59.5 76t79 49t95 17.5q66 0 106 -24.5t40 -60.5q0 -26 -16 -41.5t-40 -15.5q-31 0 -49 25.5t-21 57.5q-9 5 -19 8.5
t-24 3.5q-28 0 -52 -14.5t-42.5 -40t-31 -61.5t-17.5 -78h201l3 -47h-208v-19q0 -31 3 -58h202l3 -47h-197q19 -74 58.5 -113t100.5 -39q41 0 75.5 19t61.5 48l20 -13v0z" />
    <glyph glyph-name="Eth" unicode="&#xd0;" horiz-adv-x="707" 
d="M354 339l3 -46h-119v-233l71 -15q52 -1 93.5 18t70 53.5t43.5 82t15 102.5q0 63 -16 114.5t-48.5 88t-81.5 56.5t-115 20h-32v-241h116zM32 293l3 46h74v211q0 20 -23 24l-48 11l-3 40l260 4q85 1 154.5 -21t118.5 -62.5t76 -96.5t27 -122q0 -68 -24.5 -127.5t-72.5 -104
t-118 -70t-162 -25.5h-259l3 40l48 11q23 4 23 24v218h-77z" />
    <glyph glyph-name="eth" unicode="&#xf0;" horiz-adv-x="538" 
d="M160 253q0 -66 14.5 -115.5t41.5 -76.5q10 -11 25.5 -19t38.5 -8q47 0 74 45t27 120q0 64 -14 114.5t-39 75.5q-11 11 -27 20t-39 9q-48 0 -75 -45t-27 -120zM131 510v48l98 33q-21 14 -46 24.5t-54 18.5l16 36q85 -16 155 -56l122 41v-48l-36 -12q-14 -5 -25.5 -8.5
t-11.5 -4.5q72 -54 113.5 -134.5t42.5 -181.5q0 -63 -18.5 -115t-50 -89t-74.5 -57.5t-93 -20.5q-54 0 -97.5 19t-74 52t-47 77t-16.5 93q0 53 17 97t46.5 76t68 49.5t81.5 17.5q36 0 67.5 -15.5t54.5 -47.5q-12 43 -35.5 83t-59.5 73z" />
    <glyph glyph-name="minus" unicode="&#x2212;" horiz-adv-x="486" 
d="M41 208l3 54h399l3 -54h-405z" />
    <glyph glyph-name="multiply" unicode="&#xd7;" horiz-adv-x="486" 
d="M413 28l-168 169l-169 -169l-37 37l169 169l-169 168l37 37l169 -169l169 170l37 -37l-170 -169l169 -169z" />
    <glyph glyph-name="divide" unicode="&#xf7;" horiz-adv-x="486" 
d="M41 208l3 54h399l3 -54h-405zM296 94q0 -20 -14 -36t-37 -16t-37.5 16t-14.5 36t14.5 35.5t37.5 15.5t37 -15.5t14 -35.5zM296 374q0 -20 -14.5 -36t-37.5 -16t-37 16t-14 36t14 36t37 16t37.5 -16t14.5 -36z" />
    <glyph glyph-name="onequarter" unicode="&#xbc;" horiz-adv-x="648" 
d="M735 614q0 -29 -18 -44.5t-41 -15.5q-28 0 -48 19.5t-30 63.5l-1 4l-29 2q-28 -19 -42.5 -57.5t-14.5 -105.5v-32h137l-7 -61h-130v-327q0 -8 7 -12t31 -6l41 -3l3 -39h-259l3 39l24 3q14 2 24 6t10 13v327h-192v-322q0 -8 6 -13.5t24 -7.5l52 -6l3 -39h-263l3 39l30 6
q28 4 28 22v317l-80 7l6 57h69l2 13q5 50 24.5 91.5t50.5 71.5t71 46.5t85 16.5q23 0 43.5 -5.5t36 -16t24.5 -25t9 -31.5q0 -29 -18 -44.5t-41 -15.5q-28 0 -48 19.5t-30 63.5l-1 4l-29 2q-28 -19 -42.5 -57.5t-14.5 -105.5v-27h187l1 17q3 50 23 92t51.5 72t72 46.5
t84.5 16.5q23 0 43.5 -5.5t36 -16t24.5 -25t9 -31.5z" />
    <glyph glyph-name="threequarters" unicode="&#xbe;" horiz-adv-x="902" 
d="M511 387v-327q0 -8 7 -12t31 -6l41 -3l3 -39h-259l3 39l24 3q14 2 24 6t10 13v327h-192v-322q0 -8 6 -13.5t24 -7.5l52 -6l3 -39h-263l3 39l30 6q28 4 28 22v317l-80 7l6 57h69l2 13q5 50 24.5 91.5t50.5 71.5t71 46.5t85 16.5q23 0 43.5 -5.5t36 -16t24.5 -25t9 -31.5
q0 -29 -18 -44.5t-41 -15.5q-28 0 -48 19.5t-30 63.5l-1 4l-29 2q-28 -19 -42.5 -57.5t-14.5 -105.5v-27h187l1 23q4 53 24.5 95t54 71t79 44.5t99.5 15.5q29 0 55 -6.5t45 -19.5l67 26v-637q0 -8 7 -12t31 -6l21 -3l3 -39h-239l3 39l23 3q34 3 34 19v326h-187zM698 548
q-20 6 -35 24.5t-23 53.5l-1 4l-62 11q-29 -20 -47.5 -61.5t-18.5 -108.5v-23h187v100v0z" />
    <glyph glyph-name="onehalf" unicode="&#xbd;" horiz-adv-x="904" 
d="M815 467v-407q0 -10 10 -13t28 -5l21 -3l3 -39h-239l3 39l23 3q14 2 24 6t10 13v326h-187v-327q0 -8 7 -12t31 -6l41 -3l3 -39h-259l3 39l24 3q14 2 24 6t10 13v327h-192v-322q0 -8 6 -13.5t24 -7.5l52 -6l3 -39h-263l3 39l30 6q28 4 28 22v317l-80 7l6 57h69l2 13
q5 50 24.5 91.5t50.5 71.5t71 46.5t85 16.5q23 0 43.5 -5.5t36 -16t24.5 -25t9 -31.5q0 -29 -18 -44.5t-41 -15.5q-28 0 -48 19.5t-30 63.5l-1 4l-29 2q-28 -19 -42.5 -57.5t-14.5 -105.5v-27h187l1 23q4 53 24.5 95t54 71t79 44.5t99.5 15.5q27 0 52 -6t43.5 -17.5
t29.5 -28.5t11 -39q0 -28 -18 -44.5t-45 -16.5q-29 0 -50 18.5t-31 62.5l-1 4l-62 11q-29 -20 -47.5 -61.5t-18.5 -108.5v-23h187z" />
    <glyph glyph-name="brokenbar" unicode="&#xa6;" horiz-adv-x="526" 
d="M512 585l-52 -11q-23 -4 -23 -24v-331q0 -61 -17 -105.5t-48 -73t-73.5 -42.5t-92.5 -14q-49 0 -85 10t-59 27.5t-34.5 39.5t-11.5 46q0 35 21 56.5t50 21.5q26 0 45.5 -15.5t19.5 -43.5q0 -20 -7 -35.5t-17 -26.5q11 -12 32.5 -22.5t46.5 -10.5q46 0 72 33.5t26 110.5
v375q0 20 -23 24l-68 12l-3 39h304z" />
    </font>
</defs>
</svg>
