<?xml version="1.0" standalone="no"?>
<!DOCTYPE svg PUBLIC "-//W3C//DTD SVG 1.1//EN" "http://www.w3.org/Graphics/SVG/1.1/DTD/svg11.dtd" >
<svg>
<metadata>
Created by FontForge 20090622 at Wed Feb 24 21:36:46 2016
 By deploy user
Copyright &#239;&#190;&#169; 2004, Joshua Darden &#38; Phil's Fonts, Inc. All rights reserved. Published by Garagefonts USA 301-260-2285 www.garagefonts.com
</metadata>
<defs>
<font id="FreightTextBoldItalic" horiz-adv-x="400" >
  <font-face 
    font-family="FreightText BoldItalic"
    font-weight="400"
    font-style="italic"
    font-stretch="normal"
    units-per-em="1000"
    panose-1="2 0 8 3 7 0 0 9 0 4"
    ascent="800"
    descent="-200"
    x-height="469"
    cap-height="625"
    bbox="-176 -275 1105 864"
    underline-thickness="20"
    underline-position="-113"
    slope="-12"
    unicode-range="U+0020-U+FB04"
  />
<missing-glyph horiz-adv-x="500" 
 />
    <glyph glyph-name=".notdef" horiz-adv-x="500" 
 />
    <glyph glyph-name=".null" horiz-adv-x="0" 
 />
    <glyph glyph-name="nonmarkingreturn" horiz-adv-x="182" 
 />
    <glyph glyph-name="space" unicode=" " horiz-adv-x="182" 
 />
    <glyph glyph-name="space" unicode="&#xa0;" horiz-adv-x="182" 
 />
    <glyph glyph-name="lslash" unicode="&#x142;" horiz-adv-x="295" 
d="M-1 169v48l88 24l65 316q6 26 -11 34l-58 27l7 28l199 51l-92 -426l83 23v-49q-26 -8 -47 -13q-18 -5 -32.5 -8.5t-14.5 -4.5l-34 -156l27 -9l74 51l17 -21q-11 -19 -27 -37t-34.5 -32t-38 -22.5t-39.5 -8.5q-9 0 -24 7.5t-28.5 18t-23 21t-8.5 15.5l30 144z" />
    <glyph glyph-name="Scaron" unicode="&#x160;" horiz-adv-x="535" 
d="M480 183q0 -46 -19 -83t-52 -62.5t-78 -39t-98 -13.5q-65 0 -115.5 9.5t-94.5 23.5l17 192l64 -1l31 -150q22 -10 49 -16t63 -6q55 0 84.5 27t30.5 70q0 23 -10 41t-27 33.5t-40.5 29l-49.5 28.5q-37 20 -66 38.5t-49 40.5t-31 49.5t-11 65.5t18 70.5t49.5 56.5
t73.5 37.5t90 13.5q25 0 45.5 -2t38.5 -5t36 -7t38 -9q0 1 8.5 3.5l19.5 5.5q12 4 27 8l-27 -205l-63 2l-21 134q-24 10 -52.5 16t-61.5 6q-21 0 -39 -6t-31.5 -16.5t-21.5 -24.5t-8 -30q0 -25 9.5 -44t27.5 -35t42.5 -30.5l53.5 -30.5q32 -17 59.5 -34.5t47.5 -39.5
t31.5 -49t11.5 -62zM388 682h-119l-64 182h44l86 -120h2l119 120h45z" />
    <glyph glyph-name="scaron" unicode="&#x161;" horiz-adv-x="383" 
d="M380 384q0 -29 -16 -46t-43 -17q-25 0 -39 16t-14 38q0 5 1.5 12t4.5 12q-15 8 -37.5 15.5t-44.5 9.5q-7 -4 -14 -11.5t-13 -16t-10 -16.5t-4 -13q-1 -12 7 -24.5t20 -26t26 -26.5l26 -25l38 -36.5t31.5 -35t21.5 -35.5t7 -38q-1 -31 -17.5 -56t-42.5 -42.5t-58.5 -27
t-66.5 -9.5q-27 0 -53.5 4.5t-47.5 14.5t-34 27t-13 42q0 28 16 45t45 17q23 0 37 -15.5t14 -38.5q0 -5 -1.5 -12t-4.5 -12q17 -8 45 -16.5t50 -9.5q6 4 12.5 11.5t12.5 16t10 18t4 16.5q1 11 -6 22.5t-18.5 24t-26 25.5l-28.5 26l-38 35.5t-31.5 35.5t-21.5 36t-7 38
q2 33 18 58t41.5 41.5t56.5 25t62 8.5q27 0 53 -4t46.5 -13.5t32.5 -26t12 -41.5zM307 515h-119l-64 182h44l86 -120h2l119 120h45z" />
    <glyph glyph-name="Yacute" unicode="&#xdd;" horiz-adv-x="597" 
d="M655 584l-24 -7q-13 -3 -24.5 -8t-25 -16t-29.5 -30t-38 -51l-144 -209l-24 -188q-3 -20 20 -24l59 -11l-1 -40h-307l6 40l64 11q13 2 18.5 8.5t7.5 15.5l24 182l-122 265q-13 25 -24 36t-29 16l-30 10l-3 41h287l-3 -41l-40 -6q-27 -4 -26.5 -27t20.5 -71l71 -174h8
l115 173q32 47 33 69.5t-30 28.5l-36 7l-3 41h233zM372 682h-45l119 182h127z" />
    <glyph glyph-name="yacute" unicode="&#xfd;" horiz-adv-x="476" 
d="M480 389q0 -22 -11.5 -50.5t-29.5 -59.5t-40.5 -63l-45.5 -62l-91 -123l-56 -112q-42 -85 -87 -127.5t-102 -42.5q-19 0 -37 6t-31.5 16.5t-21.5 26t-8 33.5q0 27 17.5 44t40.5 17q30 0 50.5 -22t19.5 -58l18 -1l126 167l-68 20l-11 390l-29 6l-64 -72l-20 22
q9 21 23.5 43t31.5 40t36.5 30t38.5 12q9 0 25.5 -3.5t32 -9.5t27.5 -13.5t12 -14.5l-7 -379h13l156 270v12q-27 11 -41.5 28.5t-14.5 36.5q0 31 19 52.5t50 21.5q33 0 56 -21.5t23 -59.5zM281 515h-45l119 182h127z" />
    <glyph glyph-name="Thorn" unicode="&#xde;" horiz-adv-x="588" 
d="M568 327q0 -48 -21.5 -85.5t-59 -63.5t-87 -39.5t-106.5 -13.5q-17 0 -34 1t-33 3l-8 -54q-3 -21 20 -24l62 -11l2 -40h-296l4 40l49 11q14 3 19 8.5t7 15.5l65 475q2 9 -1.5 15t-18.5 9l-45 11l-3 40h280l-3 -40l-50 -11q-23 -6 -26 -24l-6 -47h54q53 0 96.5 -12
t74.5 -34.5t48 -55.5t17 -74zM432 322q0 31 -10 56.5t-28 43.5t-42 27.5t-51 9.5h-29l-39 -286q24 -6 48 -6q67 0 109 40.5t42 114.5z" />
    <glyph glyph-name="thorn" unicode="&#xfe;" horiz-adv-x="507" 
d="M479 324q0 -37 -8.5 -75t-23.5 -73t-35.5 -66.5t-45.5 -56.5q-31 -31 -67 -49.5t-71 -18.5q-29 0 -53.5 14.5t-38.5 37.5h-6l-42 -209q-3 -18 21 -24l65 -11l4 -39h-274l3 39l47 11q13 3 18 9t7 15l157 729q6 26 -12 34l-57 27l6 28l204 51l-57 -229l-50 -205h10
q27 53 50 92t45 64.5t45 37.5t49 12q23 0 43 -10.5t35 -29t23.5 -45.5t8.5 -60zM368 292q0 37 -12.5 63t-35.5 26q-27 0 -61 -47.5t-89 -140.5l-25 -88q11 -15 24.5 -28t28 -23t28.5 -16t24 -6q16 0 32 16q17 17 32.5 46t27.5 63t19 69.5t7 65.5z" />
    <glyph glyph-name="Zcaron" unicode="&#x17d;" horiz-adv-x="602" 
d="M511 0h-507l7 45l443 526v8h-103q-46 0 -74.5 -3.5t-46.5 -13t-29.5 -26t-23.5 -42.5l-31 -77h-67l27 208h512l-6 -46l-448 -526l-1 -8h105q54 0 86 5t51 15t29.5 26t21.5 37l32 72h71zM432 682h-119l-64 182h44l86 -120h2l119 120h45z" />
    <glyph glyph-name="zcaron" unicode="&#x17e;" horiz-adv-x="424" 
d="M297 322q-18 6 -39 18t-42 26t-40.5 28.5l-34.5 26.5l-16 -15q11 -14 16.5 -26t5.5 -26q0 -23 -14 -36.5t-36 -15.5q-29 -2 -43.5 14.5t-14.5 38.5q0 20 9.5 39t27.5 35t43 26.5t55 12.5q38 0 63 -10t41 -26t25.5 -34.5t16.5 -36.5q2 0 3.5 0.5t3.5 0.5h5l27 107
q31 2 53 -16t22 -46q0 -35 -26 -60t-74 -36l-202 -175q20 -7 43 -21t45.5 -29.5l43.5 -31l36 -26.5l16 15q-12 14 -18 26.5t-6 27.5q0 21 14.5 35t37.5 15q28 2 41.5 -15t13.5 -39q0 -20 -8.5 -39.5t-25 -35.5t-40.5 -27t-56 -14q-35 0 -61 9.5t-44.5 25.5t-31.5 38.5
t-22 47.5h-8q-3 0 -5 -1l-28 -111q-32 -2 -54 16.5t-22 45.5q0 72 97 94l207 180v0zM323 515h-119l-64 182h44l86 -120h2l119 120h45z" />
    <glyph glyph-name="Lslash" unicode="&#x141;" horiz-adv-x="579" 
d="M34 174v48l73 20l2 13t5 35l6.5 49.5l7.5 56.5l21 154q2 9 -2 15t-18 9l-46 11l-2 40h284l-4 -40l-53 -11q-23 -6 -26 -24l-18 -135q-3 -25 -6.5 -49.5t-6 -44t-4.5 -31l-2 -11.5l95 26v-49l-50 -14l-35 -9t-16 -5l-25 -183h30q50 0 82 3.5t53 12t33.5 23.5t23.5 39
l37 83h71l-49 -206h-489l4 40l49 11q14 3 19 9t7 15l16 117z" />
    <glyph glyph-name="exclam" unicode="!" horiz-adv-x="294" 
d="M155 202q-1 -3 -5 -5t-8.5 -2t-8 2t-3.5 6l4 387q0 23 16.5 36t45.5 13h4q37 0 54.5 -15.5t9.5 -41.5zM192 54q0 -28 -19.5 -49t-49.5 -21t-50 20.5t-20 49.5t20 49t50 20t49.5 -20.5t19.5 -48.5z" />
    <glyph glyph-name="quotedbl" unicode="&#x22;" horiz-adv-x="380" 
d="M246 403h-44l111 242h1l90 -31zM75 403h-45l111 242h1l91 -31z" />
    <glyph glyph-name="numbersign" unicode="#" horiz-adv-x="581" 
d="M458 398l-45 -173h125l-1 -48h-138l-49 -183h-48l48 183h-157l-49 -183h-49l49 183h-124l1 48h137l45 173h-125l2 47h137l50 186h49l-49 -186h156l50 186h48l-49 -186h125l-2 -47h-137zM409 398h-157l-45 -173h158z" />
    <glyph glyph-name="dollar" unicode="$" horiz-adv-x="539" 
d="M168 -166h-46l41 154q-40 5 -74.5 13t-65.5 17l17 192l64 -1l31 -150q17 -8 43 -15l60 221q-36 18 -65.5 36.5t-50.5 41t-32.5 51t-11.5 66.5t18 70.5t49.5 56.5t73.5 37.5t90 13.5h15t13 -1l28 101h46l-28 -105q21 -3 41 -7.5t43 -10.5q0 1 8.5 3.5l19.5 5.5q12 4 27 8
l-27 -205l-63 2l-21 134q-10 5 -21 8l-22 6l-54 -200q34 -18 64.5 -36.5t53 -41t35.5 -50.5t13 -66q0 -46 -19 -83t-52 -62.5t-78 -39t-98 -13.5h-12t-12 1zM324 585q-6 1 -12.5 1h-13.5q-21 0 -40 -6t-33 -16.5t-22 -25t-8 -30.5q0 -37 21 -62.5t58 -48.5zM222 37
q6 -1 12 -1h12q57 0 87 27.5t31 71.5q0 37 -24 62t-62 48z" />
    <glyph glyph-name="percent" unicode="%" horiz-adv-x="746" 
d="M390 500q0 -39 -14.5 -73t-39 -59.5t-58 -40t-72.5 -14.5q-32 0 -60.5 10.5t-49.5 30t-33.5 47t-12.5 61.5q0 38 14.5 71.5t39 59t58 40t70.5 14.5q33 0 61.5 -10t50 -29t34 -46.5t12.5 -61.5zM99 -15h-59l630 654h59zM724 164q0 -39 -14.5 -73t-39.5 -59.5t-58.5 -40
t-71.5 -14.5q-67 0 -110.5 39t-43.5 108q0 39 14 73t38.5 59.5t57.5 40t72 14.5q32 0 60.5 -10t49.5 -29t33.5 -46.5t12.5 -61.5zM340 490q0 50 -31 81.5t-81 31.5q-28 0 -51.5 -11.5t-41 -31t-27.5 -44.5t-10 -52q0 -50 32.5 -79.5t79.5 -29.5q28 0 51.5 10.5t41 29
t27.5 43t10 52.5zM676 158q0 24 -9 44t-24 34.5t-35.5 22.5t-43.5 8q-28 0 -51.5 -11.5t-41 -31t-27.5 -44.5t-10 -52q0 -50 31.5 -79.5t78.5 -29.5q28 0 52 11.5t42 30.5t28 44t10 53z" />
    <glyph glyph-name="ampersand" unicode="&#x26;" horiz-adv-x="663" 
d="M372 117q-54 -64 -109.5 -98t-119.5 -34q-30 0 -56 12t-44.5 33t-29.5 50t-11 62q0 41 16 72.5t41 54t56 37t60 20.5v2q-29 26 -49 59.5t-20 78.5q0 41 19 73.5t49.5 54.5t69 33.5t77.5 11.5t71.5 -9.5t56 -26.5t37 -41.5t13.5 -54.5q0 -61 -49.5 -100t-136.5 -59v-2
l127 -135h2l106 95v2q-40 21 -40 58q0 29 20.5 47t50.5 18q34 0 55 -22t21 -53q0 -45 -37 -79.5t-112 -68.5l-42 -22l152 -162l-122 -47l-120 140h-2zM383 504q0 37 -19 65t-56 28q-38 0 -61.5 -27t-23.5 -67q0 -23 4 -40.5t12 -32.5t19.5 -29t26.5 -29q51 29 74.5 62
t23.5 70zM200 304q-37 -26 -60.5 -59t-23.5 -73q0 -42 25.5 -67t65.5 -25q57 0 140 60z" />
    <glyph glyph-name="quotesingle" unicode="'" horiz-adv-x="209" 
d="M75 403h-45l111 242h1l91 -31z" />
    <glyph glyph-name="parenleft" unicode="(" horiz-adv-x="395" 
d="M359 -253q-41 20 -88.5 60.5t-87.5 99.5t-66.5 135.5t-26.5 167.5t26.5 167t66.5 135t87.5 99.5t88.5 61.5l27 -39q-38 -21 -80 -60t-77.5 -93.5t-59 -122.5t-23.5 -148t23.5 -148.5t59 -123.5t77.5 -93.5t80 -58.5l-27 -39v0z" />
    <glyph glyph-name="parenright" unicode=")" horiz-adv-x="395" 
d="M9 -215q38 20 80 59t77.5 94t59 123.5t23.5 148.5t-23.5 148t-59 122.5t-77.5 93.5t-80 60l29 39q41 -21 87.5 -61.5t86.5 -99.5t66.5 -135t26.5 -167t-26.5 -167.5t-66.5 -135.5t-86.5 -99.5t-87.5 -60.5z" />
    <glyph glyph-name="asterisk" unicode="*" horiz-adv-x="354" 
d="M339 426l-102 41l-10 -13l72 -84l-19 -57l-21 -7l-50 34l5 111l-15 4l-54 -93l-61 -2l-15 17l16 60l105 28v20l-105 29l-16 59l14 18l62 -2l54 -94l16 5l-5 110l50 33l21 -7l19 -57l-73 -84l10 -13l102 41l48 -38v-22z" />
    <glyph glyph-name="plus" unicode="+" horiz-adv-x="480" 
d="M269 281v-182h-57v182h-183l3 57h180v183h57v-183h179l3 -57h-182z" />
    <glyph glyph-name="comma" unicode="," horiz-adv-x="232" 
d="M175 38q0 -32 -15.5 -61.5t-41.5 -56t-60 -49.5t-71 -42l-25 24q22 13 42 28.5t35 32.5t24 35.5t9 37.5q0 21 -10.5 37t-23.5 27t-23.5 17t-10.5 7q0 24 23 43.5t54 19.5q42 0 68 -29.5t26 -70.5z" />
    <glyph glyph-name="hyphen" unicode="-" horiz-adv-x="333" 
d="M33 215l3 60h263l3 -60h-269z" />
    <glyph glyph-name="period" unicode="." horiz-adv-x="232" 
d="M173 62q0 -31 -22 -54.5t-55 -23.5t-55.5 23t-22.5 55t22.5 54.5t55.5 22.5t55 -22.5t22 -54.5z" />
    <glyph glyph-name="slash" unicode="/" horiz-adv-x="279" 
d="M220 665h53l-216 -877h-53z" />
    <glyph glyph-name="zero" unicode="0" horiz-adv-x="514" 
d="M471 272q0 -54 -16.5 -106t-47 -92t-74 -64.5t-96.5 -24.5q-42 0 -78.5 14.5t-63 42.5t-42 68.5t-15.5 91.5q0 55 17 107t47.5 92t74 64.5t95.5 24.5q42 0 78.5 -15t63 -43t42 -68.5t15.5 -91.5zM388 272q0 31 -9.5 57t-25.5 45t-37.5 29.5t-46.5 10.5q-40 0 -68 -21.5
t-46 -53t-26 -68.5t-8 -69q0 -31 9 -57t25 -44.5t38 -29t47 -10.5q40 0 68 21t46 53t26 69t8 68z" />
    <glyph glyph-name="one" unicode="1" horiz-adv-x="381" 
d="M21 0l6 42l65 11q14 2 19.5 8.5t6.5 14.5l43 324l-106 13l8 34l227 44l-55 -415q-1 -8 3 -14.5t17 -8.5l66 -11v-42h-300z" />
    <glyph glyph-name="two" unicode="2" horiz-adv-x="471" 
d="M373 0h-366l3 73l105 70t83.5 61t56 56.5t22.5 56.5q2 41 -22.5 66t-69.5 27q-29 2 -63 -12.5t-67 -40.5l-8 28q20 21 46 40.5t55 33.5t60 22t61 7q31 -1 57.5 -10.5t45 -26.5t28.5 -41t8 -53q-2 -40 -28.5 -74t-68.5 -65.5t-95.5 -62l-109.5 -64.5l-1 -5h32
q65 0 104.5 1.5t62.5 5.5t34 12.5t20 21.5l28 42h43z" />
    <glyph glyph-name="three" unicode="3" horiz-adv-x="436" 
d="M380 37q0 -50 -26.5 -92.5t-67.5 -74t-90 -49.5t-95 -18q-19 0 -44 4.5t-47.5 14.5t-38 26.5t-15.5 41.5t17.5 43t43.5 18q19 0 33 -9t23 -23.5t13.5 -32t4.5 -33.5q11 -3 23 -3q31 0 57 12.5t45 33t29.5 48t10.5 57.5q0 52 -31 85t-84 33q-19 0 -37.5 -4.5t-35.5 -9.5
l-13 31l69.5 37.5t65 42.5t48.5 49.5t19 57.5q0 42 -27.5 64.5t-67.5 22.5q-35 0 -68.5 -17t-62.5 -37l-9 29q42 42 99 73t121 31q27 0 53.5 -7.5t47.5 -23t34 -38t13 -52.5q0 -38 -21 -68.5t-52 -55t-67 -42.5l-66 -32v-5q13 4 26.5 5.5t26.5 1.5q30 0 56 -9.5t45.5 -27.5
t30.5 -43t11 -55z" />
    <glyph glyph-name="four" unicode="4" horiz-adv-x="523" 
d="M376 29l-27 -213h-111l27 213h-270l-2 45l393 422l50 -11l-52 -401h120l-15 -55h-113zM312 345h-5l-244 -261h210z" />
    <glyph glyph-name="five" unicode="5" horiz-adv-x="463" 
d="M423 372h-251l-43 -106q39 -15 82 -37t79 -51.5t59 -67.5t23 -87q0 -51 -22.5 -92t-59 -70.5t-82.5 -45t-93 -15.5q-19 0 -46 4t-52 13.5t-42 26.5t-17 43t17 44.5t43 18.5q20 0 33.5 -8.5t22 -22t12 -30.5t3.5 -34q25 -10 48 -10q27 0 50.5 9.5t40.5 26.5t27 40t10 50
q0 42 -23 75t-57 58.5t-73 44.5t-71 32l117 295h282z" />
    <glyph glyph-name="six" unicode="6" horiz-adv-x="541" 
d="M500 243q0 -56 -22.5 -103t-58.5 -81.5t-80.5 -54t-88.5 -19.5q-45 0 -83.5 17t-66.5 47.5t-44 74.5t-16 98q0 84 42 160.5t112 137t162 100t191 48.5l18 -37q-152 -34 -254.5 -112.5t-146.5 -194.5l8 -2q37 45 83.5 72t93.5 27q30 0 57.5 -12t48 -35t33 -56t12.5 -75z
M379 230q0 62 -27 95.5t-61 33.5q-38 0 -68 -25t-51 -62q-5 -16 -10.5 -41.5t-5.5 -54.5q0 -65 25.5 -106.5t71.5 -41.5q26 0 49 16t40 43.5t27 64.5t10 78z" />
    <glyph glyph-name="seven" unicode="7" horiz-adv-x="476" 
d="M84 -184h-73l366 562l1 3h-90q-55 0 -86.5 -1t-48.5 -4t-24 -9t-13 -15l-38 -60h-38l48 184h386v-42z" />
    <glyph glyph-name="eight" unicode="8" horiz-adv-x="529" 
d="M478 171q0 -46 -20 -80.5t-52 -57.5t-73 -35t-83 -12q-39 0 -77.5 10t-69 30t-50 50t-19.5 70q0 33 12.5 59.5t33.5 46.5t48.5 33t57.5 20v3q-41 25 -69 60t-28 85q0 43 17.5 77.5t47.5 58.5t68.5 36.5t80.5 12.5q38 0 73.5 -9.5t63 -29t44 -48.5t16.5 -67
q0 -32 -11.5 -56.5t-30.5 -42t-44 -29t-54 -19.5v-3q23 -13 44 -29.5t37.5 -36.5t26.5 -44t10 -53zM388 484q0 23 -6 43.5t-18 36t-30 25t-42 9.5q-43 0 -68.5 -26t-25.5 -70q0 -26 11.5 -47.5t30 -38.5t40.5 -31.5l43 -27.5q35 23 50 55t15 72zM368 123q0 30 -14 53.5
t-35.5 43t-47 35.5t-48.5 29q-35 -23 -55.5 -58t-20.5 -79q0 -54 31 -87t86 -33q46 0 75 24t29 72z" />
    <glyph glyph-name="nine" unicode="9" horiz-adv-x="541" 
d="M37 232q0 56 22.5 103t58.5 81.5t80.5 54t88.5 19.5q45 0 83.5 -17t66.5 -47.5t44 -74t16 -97.5q0 -84 -42 -161t-112 -137.5t-162 -100t-191 -48.5l-18 38q152 33 254.5 111t146.5 190l-8 2q-37 -45 -83.5 -72t-93.5 -27q-30 0 -57.5 13t-48 37t-33 57.5t-12.5 75.5z
M158 245q0 -62 27 -98t62 -36q37 0 67 25t51 62q6 20 11 46t5 55q0 65 -25.5 106.5t-70.5 41.5q-26 0 -49 -16t-40.5 -43.5t-27.5 -64.5t-10 -78z" />
    <glyph glyph-name="colon" unicode=":" horiz-adv-x="232" 
d="M215 365q0 -32 -22 -55t-55 -23q-34 0 -56.5 23t-22.5 55t22.5 54.5t56.5 22.5q33 0 55 -23t22 -54zM173 62q0 -31 -22 -54.5t-55 -23.5t-55.5 23t-22.5 55t22.5 54.5t55.5 22.5t55 -22.5t22 -54.5z" />
    <glyph glyph-name="semicolon" unicode=";" horiz-adv-x="232" 
d="M215 365q0 -32 -22 -55t-55 -23t-55.5 23t-22.5 55t22.5 54.5t55.5 22.5t55 -23t22 -54zM175 33q0 -32 -15.5 -61.5t-41.5 -56t-60 -49.5t-71 -42l-25 24q22 13 42 28.5t35 32.5t24 35.5t9 37.5q0 21 -10.5 37t-23.5 27t-23.5 17t-10.5 7q0 24 23 43.5t54 19.5
q42 0 68 -29.5t26 -70.5z" />
    <glyph glyph-name="less" unicode="&#x3c;" horiz-adv-x="480" 
d="M27 216v37l406 188l15 -57l-325 -148v-2l325 -147l-15 -58z" />
    <glyph glyph-name="equal" unicode="=" horiz-adv-x="475" 
d="M43 292l-4 63h398l-4 -63h-390zM39 114l4 63h390l4 -63h-398z" />
    <glyph glyph-name="greater" unicode="&#x3e;" horiz-adv-x="480" 
d="M42 29l-15 58l325 147v2l-325 148l15 57l406 -188v-37z" />
    <glyph glyph-name="question" unicode="?" horiz-adv-x="388" 
d="M389 461q0 -38 -12.5 -64t-32.5 -43t-44.5 -27t-48.5 -17l-34.5 -11.5t-28.5 -12t-19.5 -15.5t-7.5 -22q0 -17 9 -33t25 -30l-49 1q-21 14 -39.5 41t-18.5 58q0 29 13 49.5t33.5 34.5t46 23t50.5 16l34.5 10t29 10.5t20 12.5t7.5 17q0 14 -11.5 27.5t-31 23.5t-46 16
t-57.5 6q-18 0 -34 -2t-29 -4q-15 16 -15 38q0 32 25 53.5t73 21.5q39 0 74 -14t61.5 -38.5t42 -57t15.5 -68.5zM197 54q0 -28 -19.5 -49t-49.5 -21t-50 20.5t-20 49.5t20 49t50 20t49.5 -20.5t19.5 -48.5z" />
    <glyph glyph-name="at" unicode="@" horiz-adv-x="872" 
d="M482 117q0 5 4.5 22.5t10.5 38l11.5 39l7.5 25.5h-13l-44.5 -74t-42.5 -61t-42.5 -41.5t-44.5 -15.5t-43 9t-35 24t-23.5 35.5t-8.5 44.5q0 30 9 65.5t24.5 70.5t36 67t44.5 55q27 27 58.5 42t60.5 15q37 0 59.5 -20t33.5 -58h10l27 71h87l-60 -168l-35 -173
q-4 -17 13.5 -31t50.5 -14q32 0 59.5 16.5t48 45.5t33 68t13.5 84q3 72 -21 130t-69 99t-107.5 64t-136.5 24q-75 1 -141 -27.5t-116 -77.5t-80 -114.5t-32 -138.5q-2 -81 23.5 -147.5t72 -114t110 -73.5t137.5 -26q32 0 64 5.5t63 14.5l11 -37q-37 -13 -70.5 -19t-72.5 -6
q-81 0 -152.5 30t-123.5 83.5t-81.5 126.5t-26.5 160q2 84 35.5 157.5t90 128.5t132 86t161.5 30q81 -1 151 -27t121 -72.5t79 -111.5t25 -145q-2 -58 -21.5 -107t-51.5 -85t-74 -56t-89 -20q-34 0 -58 8t-38.5 20t-20 27t-3.5 29zM525 354q-6 12 -18 24t-26 21t-29 15
t-27 6q-20 0 -33 -13q-10 -10 -22.5 -36t-22.5 -58t-17 -65t-7 -58q0 -30 15.5 -47t32.5 -17q12 0 27.5 15t33 38.5t35.5 52.5l35 56q2 3 6 13.5t7.5 22l6.5 20.5t3 10z" />
    <glyph glyph-name="A" unicode="A" horiz-adv-x="620" 
d="M304 0l3 41l39 6q27 4 30.5 20t-4.5 57l-14 84h-188l-17 -46q-21 -50 -18 -79t29 -34l36 -8l3 -41h-237l3 41l28 9q15 4 26 9.5t22.5 19t25 39t34.5 70.5l174 384v38l133 30l108 -549q4 -17 11 -26.5t27 -14.5l38 -9l3 -41h-295zM309 514h-8l-111 -257h160z" />
    <glyph glyph-name="B" unicode="B" horiz-adv-x="609" 
d="M570 172q0 -32 -12 -58.5t-34 -49.5q-32 -31 -83.5 -47.5t-117.5 -16.5h-316l4 40l49 11q14 3 19 8.5t7 15.5l64 475q2 9 -1.5 15t-18.5 9l-45 11l-3 40h292q111 0 162 -39t51 -102q0 -33 -14 -59.5t-37.5 -46.5t-54.5 -33.5t-64 -21.5q0 2 1.5 -0.5t1.5 -4.5
q30 -6 57 -18t48 -30t33 -42.5t12 -55.5zM448 463q0 56 -38.5 87t-98.5 31h-23l-33 -238h57q27 0 51.5 7.5t43.5 22.5t30 37.5t11 52.5zM426 168q0 30 -10 54.5t-27.5 41t-41 25.5t-50.5 9h-48l-33 -244l55 -11h21q30 0 55 10t42.5 27t27 40t9.5 48z" />
    <glyph glyph-name="C" unicode="C" horiz-adv-x="650" 
d="M555 0l-60 12q-30 -11 -70 -19.5t-84 -8.5q-73 0 -128 20.5t-91.5 57.5t-54.5 89t-18 115q0 72 30 142t84 124q48 48 112.5 77.5t140.5 29.5q21 0 43.5 -2.5t43 -6t37.5 -8t27 -8.5l86 23l-30 -223h-69l-23 144q-20 14 -45.5 23t-59.5 9q-48 0 -90 -26t-73.5 -72
t-49.5 -107t-18 -132q0 -121 62 -181q39 -39 103 -39q25 0 49.5 6.5t46.5 17.5l70 149h76z" />
    <glyph glyph-name="D" unicode="D" horiz-adv-x="686" 
d="M664 349q0 -72 -24.5 -131t-77.5 -112q-47 -48 -124.5 -77t-173.5 -29h-257l4 40l49 11q14 3 19 8.5t7 15.5l64 475q2 9 -1.5 15t-18.5 9l-45 11l-3 40q77 1 137 1h129q76 0 135 -20.5t99 -57t61 -87.5t21 -112zM520 350q0 51 -11 93t-34 72t-60 47t-88 17h-40l-70 -519
l67 -15q50 2 93 23t74.5 59.5t50 94.5t18.5 128z" />
    <glyph glyph-name="E" unicode="E" horiz-adv-x="627" 
d="M539 0h-532l4 40l49 11q14 3 19 8.5t7 15.5l65 475q2 9 -2 15t-18 9l-46 11l-2 40h541l-27 -206h-69l-11 83q-3 27 -11 42.5t-28 23.5t-56 10t-95 2h-39l-34 -242h19q42 0 63 5.5t32 26.5l34 68h51l-55 -242h-51l1 64q0 9 -3 15.5t-12 10.5t-26 5.5t-44 1.5h-15l-33 -248
h43q61 0 98.5 2.5t61 10.5t36.5 23.5t25 41.5l34 74h72z" />
    <glyph glyph-name="F" unicode="F" horiz-adv-x="602" 
d="M513 419l-11 83q-4 27 -12 43t-28 23.5t-56 9.5t-95 2h-23l-34 -254h22q42 0 63.5 5t32.5 28l34 68h50l-55 -242h-50l4 63q1 20 -17 26.5t-72 6.5h-20l-27 -206q-3 -20 20 -24l52 -11l3 -40h-287l4 40l49 11q14 3 19 8.5t7 15.5l65 475q2 9 -2 15t-18 9l-46 11l-2 40h526
l-27 -206h-69z" />
    <glyph glyph-name="G" unicode="G" horiz-adv-x="701" 
d="M670 243l-47 -11q-24 -6 -27 -24l-24 -142l58 -9l3 -33q-25 -7 -57 -14t-68.5 -13t-75.5 -9.5t-77 -3.5q-78 0 -135.5 20t-95.5 57t-56.5 89t-18.5 116q0 72 30 142t84 124q48 48 117.5 77.5t145.5 29.5q21 0 43.5 -2.5t43 -6t37.5 -8t27 -8.5l86 23l-30 -220h-69
l-22 141q-21 14 -51.5 23t-64.5 9q-48 0 -90 -26t-73.5 -72t-49.5 -107t-18 -132q0 -121 62 -181q19 -19 47 -29t59 -10q23 0 42.5 3.5t36.5 9.5l25 162q2 11 -2.5 16t-19.5 8l-47 11l-3 40h279z" />
    <glyph glyph-name="H" unicode="H" horiz-adv-x="741" 
d="M397 0l3 40l49 11q14 3 19 8t7 16l30 220h-256l-30 -220q-3 -19 20 -24l47 -11l3 -40h-280l3 40l49 11q14 3 19 8.5t7 15.5l64 475q2 9 -1.5 15t-18.5 9l-45 11l-3 40h280l-3 -40l-50 -11q-23 -6 -26 -24l-28 -206h256l28 206q2 11 -2 16t-18 8l-46 11l-3 40h281l-4 -40
l-49 -11q-23 -6 -26 -24l-65 -475q-3 -19 20 -24l46 -11l3 -40h-280z" />
    <glyph glyph-name="I" unicode="I" horiz-adv-x="373" 
d="M9 0l3 40l59 11q14 3 19 8.5t7 15.5l65 475q2 9 -2 15.5t-18 8.5l-56 11l-3 40h300l-3 -40l-60 -11q-23 -5 -26 -24l-64 -475q-3 -18 20 -24l56 -11l4 -40h-301z" />
    <glyph glyph-name="J" unicode="J" horiz-adv-x="441" 
d="M460 585l-53 -11q-23 -4 -26 -24l-40 -298q-19 -140 -78.5 -204t-156.5 -64q-27 0 -50 5.5t-40.5 16.5t-27 27t-9.5 36q1 24 19 40t42 16q15 0 29.5 -4.5t26 -15.5t19 -31t9.5 -51h1q15 8 27 21.5t21 36t16.5 55t13.5 77.5l45 337q2 9 -2 15.5t-18 8.5l-65 11l-3 40h304z
" />
    <glyph glyph-name="K" unicode="K" horiz-adv-x="671" 
d="M378 0l3 40l26 9q21 6 6 35l-105 211l-69 -58l-21 -162q-3 -19 20 -24l46 -11l2 -40h-280l4 40l49 11q14 3 19 8.5t7 15.5l65 475q2 9 -2 15t-18 9l-46 11l-2 40h280l-4 -40l-50 -11q-23 -6 -26 -24l-32 -247l175 165q35 34 52.5 54t17.5 32q-1 17 -24 25l-26 7l-2 39
h261l-4 -38l-26 -7q-27 -7 -58.5 -26.5t-75.5 -55.5l-138 -120l153 -281q8 -16 14.5 -25t13 -14t13.5 -8t17 -6l18 -4l2 -40h-255z" />
    <glyph glyph-name="L" unicode="L" horiz-adv-x="579" 
d="M495 0h-489l4 40l49 11q14 3 19 9t7 15l64 475q2 9 -2 15t-18 9l-46 11l-2 40h284l-4 -40l-53 -11q-23 -6 -26 -24l-68 -505h30q50 0 82 3.5t53 12t33.5 23.5t23.5 39l37 83h71z" />
    <glyph glyph-name="M" unicode="M" horiz-adv-x="863" 
d="M525 0l3 40l54 12q8 2 13.5 8.5t10.5 26t9.5 55t10.5 93.5l33 313h-10l-238 -528h-120l-64 537h-10l-53 -318q-11 -66 -16 -103t-6 -55t3 -22.5t11 -6.5l55 -12l3 -40h-222l3 40l53 12q8 2 14.5 6.5t13.5 22.5t15 55t19 103l52 310q2 9 -2 16.5t-15 9.5l-58 10l-2 40h263
l56 -474h10l214 474h251l-3 -40l-59 -11q-24 -4 -26 -25l-34 -314q-7 -61 -10 -97t-1.5 -54.5t6.5 -24t14 -7.5l50 -12l2 -40h-293z" />
    <glyph glyph-name="N" unicode="N" horiz-adv-x="715" 
d="M738 585l-48 -10q-12 -3 -21.5 -11.5t-17 -30t-14.5 -59t-15 -98.5l-53 -384h-97l-262 509h-7l-34 -252q-9 -61 -12.5 -99t-2 -59.5t7.5 -30t18 -10.5l52 -10l3 -40h-239l3 40l48 10q12 3 21 11.5t16.5 30.5t14.5 59.5t15 97.5l37 268q3 24 -1 38t-23 19l-43 11l-2 40
h209l238 -465h8l29 216q9 62 12.5 100t2.5 59.5t-7 29.5t-17 10l-54 10l-3 40h241z" />
    <glyph glyph-name="O" unicode="O" horiz-adv-x="715" 
d="M686 348q0 -78 -29.5 -146.5t-81.5 -121.5q-45 -46 -104 -70.5t-129 -24.5q-64 0 -118 21.5t-93 60t-61 91.5t-22 117q0 73 24.5 137.5t70.5 114.5q47 51 110 81t140 30q64 0 118 -21.5t93 -60t60.5 -91.5t21.5 -117zM543 378q0 47 -11 94t-41 79q-19 17 -43 27.5
t-58 10.5q-37 0 -66.5 -17.5t-51.5 -46.5t-37 -66t-25 -75t-14.5 -74.5t-4.5 -65.5q0 -48 11 -94t42 -76q18 -18 42 -28.5t58 -10.5q37 0 66.5 17.5t51.5 46t37.5 65t25 75t14 75t4.5 64.5z" />
    <glyph glyph-name="P" unicode="P" horiz-adv-x="588" 
d="M584 449q0 -48 -21.5 -85.5t-59 -63.5t-87 -39.5t-106.5 -13.5q-17 0 -34 1.5t-33 3.5l-24 -177q-3 -21 20 -24l62 -11l2 -40h-296l4 40l49 11q14 3 19 8.5t7 15.5l65 475q2 9 -2 15t-18 9l-46 11l-2 40h265q53 0 96.5 -12t74.5 -34.5t48 -55.5t17 -74zM447 444
q0 31 -10 56.5t-28 43.5t-41.5 28t-50.5 10h-29l-40 -287l24.5 -4t23.5 -2q67 0 109 41t42 114z" />
    <glyph glyph-name="Q" unicode="Q" horiz-adv-x="717" 
d="M653 -174q-27 -8 -66 -13.5t-90 -6.5q-51 0 -90 9t-71.5 32t-59.5 62t-54 98q-39 16 -71.5 42t-55 60.5t-35 76.5t-12.5 89q0 73 24.5 137t69.5 114q46 51 109.5 81.5t140.5 30.5q64 0 118 -21.5t93 -60t61 -91.5t22 -117q0 -78 -29 -147.5t-80 -119.5
q-35 -35 -85.5 -60.5t-108.5 -32.5q22 -36 47 -60.5t56.5 -39.5t71.5 -22t92 -8l3 -32v0zM543 379q0 47 -11 94t-42 79q-18 17 -42.5 27.5t-57.5 10.5q-38 0 -67 -18t-51 -47t-37 -66t-24.5 -75.5t-14 -75t-4.5 -65.5q0 -23 2.5 -47t8.5 -46.5t16 -42t25 -34.5
q18 -18 42.5 -28.5t59.5 -10.5q37 0 66 17.5t51 46.5t37 66t24.5 75t14 75t4.5 65z" />
    <glyph glyph-name="R" unicode="R" horiz-adv-x="633" 
d="M423 0l-34 80l-90 188l-52 3l-28 -196q-3 -16 20 -24l44 -11l3 -40h-278l3 40l49 11q14 3 19 9t7 15l63 475q3 19 -20 24l-46 11l-2 40h295q54 0 95 -11.5t69 -32t42 -47.5t14 -58q0 -69 -45.5 -116.5t-129.5 -70.5l109 -197q8 -14 14.5 -22.5t13 -13.5t13 -7.5
t13.5 -4.5l17 -4l2 -40h-180zM450 454q0 59 -35 93t-93 34h-35l-35 -259l62 -13q58 8 97 43.5t39 101.5z" />
    <glyph glyph-name="S" unicode="S" horiz-adv-x="535" 
d="M480 183q0 -46 -19 -83t-52 -62.5t-78 -39t-98 -13.5q-65 0 -115.5 9.5t-94.5 23.5l17 192l64 -1l31 -150q22 -10 49 -16t63 -6q55 0 84.5 27t30.5 70q0 23 -10 41t-27 33.5t-40.5 29l-49.5 28.5q-37 20 -66 38.5t-49 40.5t-31 49.5t-11 65.5t18 70.5t49.5 56.5
t73.5 37.5t90 13.5q25 0 45.5 -2t38.5 -5t36 -7t38 -9q0 1 8.5 3.5l19.5 5.5q12 4 27 8l-27 -205l-63 2l-21 134q-24 10 -52.5 16t-61.5 6q-21 0 -39 -6t-31.5 -16.5t-21.5 -24.5t-8 -30q0 -25 9.5 -44t27.5 -35t42.5 -30.5l53.5 -30.5q32 -17 59.5 -34.5t47.5 -39.5
t31.5 -49t11.5 -62z" />
    <glyph glyph-name="T" unicode="T" horiz-adv-x="641" 
d="M572 415l-11 83q-3 27 -11 43t-22 24.5t-36.5 11.5t-55.5 3h-6l-67 -505q-3 -19 20 -24l60 -11l3 -40h-306l3 40l62 11q14 2 19.5 8.5t6.5 15.5l67 505h-4q-33 0 -55.5 -2.5t-38.5 -10.5t-28 -24t-24 -42l-35 -86h-72l45 210h578l-27 -210h-65z" />
    <glyph glyph-name="U" unicode="U" horiz-adv-x="708" 
d="M737 585l-48 -10q-12 -3 -21 -11.5t-16.5 -30t-14.5 -59t-16 -98.5l-24 -170q-9 -58 -32 -101t-57.5 -71t-78.5 -41.5t-95 -13.5q-52 0 -95.5 12.5t-75 38t-49.5 63.5t-18 89q0 30 3 55l43 313q2 9 -2 15t-18 9l-45 11l-3 40h280l-3 -40l-50 -11q-23 -6 -26 -24l-43 -313
q-2 -13 -3.5 -27.5t-1.5 -32.5q0 -63 39.5 -98t105.5 -35q35 0 63.5 9.5t50 30.5t36.5 55t22 84l22 153q9 62 12.5 100t2 59t-7.5 29.5t-18 10.5l-52 10l-3 40h240z" />
    <glyph glyph-name="V" unicode="V" horiz-adv-x="612" 
d="M673 584l-30 -9q-15 -4 -25.5 -9.5t-22 -19.5t-25 -39.5t-34.5 -69.5l-206 -437h-110l-110 534q-3 17 -10.5 26.5t-27.5 14.5l-37 9l-3 41h295l-3 -41l-40 -6q-27 -4 -30.5 -20t4.5 -57l67 -386h7l159 360q22 48 17 72t-31 29l-34 8l-3 41h236z" />
    <glyph glyph-name="W" unicode="W" horiz-adv-x="932" 
d="M1003 584l-30 -9q-16 -5 -29 -12t-26 -21.5t-27 -39t-33 -65.5l-186 -437h-114l-56 385h-7l-175 -385h-115l-94 534q-4 17 -11 27t-27 14l-41 9l-3 41h301l-3 -41l-42 -6q-21 -3 -26.5 -21.5t0.5 -55.5l52 -388h7l158 356l-10 65q-2 17 -10 27t-28 14l-41 9l-3 41h300
l-3 -41l-42 -6q-23 -3 -27.5 -20.5t1.5 -56.5l51 -387h8l130 330q28 66 27 95.5t-30 36.5l-30 8l-3 41h240z" />
    <glyph glyph-name="X" unicode="X" horiz-adv-x="640" 
d="M322 0l3 40l34 6q23 5 26.5 24.5t-17.5 56.5l-67 133h-7l-105 -127q-34 -38 -31 -58t33 -28l30 -7l3 -40h-248l3 40l35 9q26 6 51.5 27.5t51.5 50.5l155 173l-110 194q-22 38 -35 56.5t-29 23.5l-37 11l-2 40h292l-4 -40l-33 -6q-22 -5 -26.5 -23.5t17.5 -57.5l55 -111h7
l97 117q29 32 27 49.5t-30 24.5l-31 7l-3 40h239l-3 -40l-35 -9q-12 -3 -27 -12.5t-30 -22t-30 -27.5t-28 -30l-122 -136l123 -224q20 -36 32 -52t29 -21l36 -11l3 -40h-292z" />
    <glyph glyph-name="Y" unicode="Y" horiz-adv-x="597" 
d="M655 584l-24 -7q-13 -3 -24.5 -8t-25 -16t-29.5 -30t-38 -51l-144 -209l-24 -188q-3 -20 20 -24l59 -11l-1 -40h-307l6 40l64 11q13 2 18.5 8.5t7.5 15.5l24 182l-122 265q-13 25 -24 36t-29 16l-30 10l-3 41h287l-3 -41l-40 -6q-27 -4 -26.5 -27t20.5 -71l71 -174h8
l115 173q32 47 33 69.5t-30 28.5l-36 7l-3 41h233z" />
    <glyph glyph-name="Z" unicode="Z" horiz-adv-x="602" 
d="M511 0h-507l7 45l443 526v8h-103q-46 0 -74.5 -3.5t-46.5 -13t-29.5 -26t-23.5 -42.5l-31 -77h-67l27 208h512l-6 -46l-448 -526l-1 -8h105q54 0 86 5t51 15t29.5 26t21.5 37l32 72h71z" />
    <glyph glyph-name="bracketleft" unicode="[" horiz-adv-x="368" 
d="M92 -222v873h258v-48h-203v-777h203v-48h-258z" />
    <glyph glyph-name="backslash" unicode="\" horiz-adv-x="279" 
d="M221 -212l-216 877h53l216 -877h-53z" />
    <glyph glyph-name="bracketright" unicode="]" horiz-adv-x="368" 
d="M18 -174h203v777h-203v48h258v-873h-258v48z" />
    <glyph glyph-name="asciicircum" unicode="^" 
d="M327 515l-86 120h-2l-118 -120h-46l115 182h118l65 -182h-46z" />
    <glyph glyph-name="underscore" unicode="_" horiz-adv-x="470" 
d="M-24 -53l3 53h482l3 -53h-488z" />
    <glyph glyph-name="grave" unicode="`" horiz-adv-x="399" 
d="M245 515l-151 182h127l70 -182h-46z" />
    <glyph glyph-name="a" unicode="a" horiz-adv-x="528" 
d="M376 391l27 77h103l-60 -181l-53 -224l27 -9l74 51l17 -21q-11 -19 -27 -37t-34.5 -32t-38.5 -22.5t-40 -8.5q-9 0 -24.5 4t-30 10t-25 13t-10.5 14q0 8 6 27l14.5 44l18 52.5l17.5 51.5h-10l-52.5 -88t-46 -68t-45 -43.5t-48.5 -15.5q-48 0 -80.5 34.5t-32.5 100.5
q0 38 9.5 76.5t25.5 75.5t38 69.5t47 57.5q31 31 67.5 50t71.5 19q38 0 58.5 -23t28.5 -54h8zM354 329q-9 15 -22 28.5t-28 24.5t-30.5 17.5t-28.5 6.5q-11 0 -18 -4t-15 -12q-15 -15 -29 -43t-25.5 -61t-18 -68.5t-6.5 -65.5q0 -38 14 -58.5t37 -20.5q14 0 28.5 11t31.5 33
t38 55.5l49 77.5l23 79v0z" />
    <glyph glyph-name="b" unicode="b" horiz-adv-x="508" 
d="M479 324q0 -37 -8 -74.5t-23 -72.5t-35.5 -66t-45.5 -56q-31 -31 -73 -51t-90 -20q-33 0 -63.5 10.5t-54 24.5t-37 28t-12.5 20l99 490q6 26 -12 34l-57 27l6 28l204 51l-57 -229l-54 -215h10q54 107 97.5 161.5t95.5 54.5q23 0 43 -10.5t35 -29t23.5 -45.5t8.5 -60z
M368 292q0 37 -12.5 63t-35.5 26q-16 0 -31 -12t-32.5 -36t-38.5 -59l-49 -81l-25 -93q12 -15 27 -27.5t30.5 -21.5t30 -14t24.5 -5q16 0 32 16q17 17 31.5 46t25.5 63t17 69.5t6 65.5z" />
    <glyph glyph-name="c" unicode="c" horiz-adv-x="426" 
d="M318 391q-11 8 -35 14.5t-44 6.5q-4 0 -9 -3.5t-10 -8.5q-12 -11 -25.5 -36t-25.5 -57.5t-20 -69t-8 -71.5q0 -49 25 -78t63 -29q17 0 49.5 17.5t77.5 48.5l16 -21q-18 -24 -38 -45.5t-43.5 -38t-50 -26t-56.5 -9.5q-37 0 -66 13t-49 35.5t-30.5 53.5t-10.5 66
q0 55 21 111.5t58 102t86 74t106 28.5q26 0 49 -7.5t40 -21t26.5 -31.5t9.5 -40q0 -32 -19 -52.5t-44 -20.5q-29 0 -42 16.5t-13 38.5q0 11 3.5 21.5t8.5 18.5z" />
    <glyph glyph-name="d" unicode="d" horiz-adv-x="528" 
d="M511 84q-11 -19 -27 -37t-34.5 -32t-38.5 -22.5t-40 -8.5q-9 0 -24 5.5t-29 13.5t-24 16.5t-10 15.5q0 8 5.5 25.5l13.5 41l17 49l17 49.5h-10l-52.5 -88t-46 -68t-45 -43.5t-48.5 -15.5q-48 0 -80.5 34.5t-32.5 100.5q0 38 9.5 76.5t25.5 75.5t38 69.5t47 57.5
q31 31 67.5 50t71.5 19q38 0 54.5 -23t25.5 -54h8l35 166q6 26 -12 34l-57 27l6 28l205 52l-110 -443l-43 -192l27 -9l74 51l17 -21v0zM354 329q-9 15 -22 28.5t-28 24.5t-30.5 17.5t-28.5 6.5q-11 0 -18 -4t-15 -12q-15 -15 -29 -43t-25.5 -61t-18 -68.5t-6.5 -65.5
q0 -38 14 -58.5t37 -20.5q14 0 28.5 11t31.5 33t38 55.5l49 77.5l23 79v0z" />
    <glyph glyph-name="e" unicode="e" horiz-adv-x="422" 
d="M141 157q0 -43 25 -70.5t63 -27.5q17 0 49.5 17.5t77.5 48.5l16 -21q-18 -24 -38 -45.5t-43.5 -38t-50 -26t-56.5 -9.5q-38 0 -67 13t-49 35.5t-30 53.5t-10 66q0 56 21 112.5t57 101.5t84 73.5t102 28.5q60 0 91.5 -29t31.5 -71q0 -26 -16 -46.5t-49.5 -42t-85.5 -47.5
l-123 -63v-13zM143 205q47 26 80 46.5t54 38.5t30.5 35.5t9.5 38.5q0 10 -8.5 18.5t-20.5 15t-24.5 10t-20.5 3.5q-13 0 -19.5 -3t-11.5 -8q-9 -9 -19.5 -28t-21 -45t-18.5 -57t-13 -65h3z" />
    <glyph glyph-name="f" unicode="f" horiz-adv-x="303" 
d="M470 603q0 -26 -17 -46t-44 -20q-32 0 -51.5 28.5t-24.5 67.5l-63 -11q-6 -16 -12 -38t-11 -45t-9.5 -46.5t-7.5 -44.5h120l4 -57h-134l-60 -298q-19 -98 -47.5 -174t-64.5 -113q-26 -27 -58.5 -39.5t-66.5 -12.5q-41 0 -70 22.5t-29 57.5q0 27 16.5 44t41.5 17
q32 0 51 -24.5t23 -57.5l53 16q5 12 9.5 30l10 40.5t10.5 47.5t9 50l60 387l-87 7l3 34l97 31q10 48 29.5 93t51.5 77t70.5 49.5t86.5 17.5q50 0 80.5 -26t30.5 -64z" />
    <glyph glyph-name="g" unicode="g" horiz-adv-x="466" 
d="M360 390l-1 -10q28 -22 39.5 -47t11.5 -52q0 -36 -16 -65t-42.5 -50t-60.5 -32t-70 -11q-17 0 -35 2.5t-35 7.5q-15 -4 -25 -16.5t-10 -24.5q0 -19 23 -30t59 -23l46 -13q70 -21 112.5 -51t42.5 -86q0 -28 -17.5 -55t-51 -48.5t-84 -34.5t-116.5 -13q-44 0 -80.5 8
t-63 23t-41 37t-14.5 50q0 23 12 41.5t31.5 33.5t44.5 25.5t50 17.5v8q-18 11 -30.5 27t-12.5 39q0 34 24.5 58t66.5 37v8q-32 20 -51.5 53.5t-19.5 71.5q0 42 17 77.5t46 61t67.5 40t81.5 14.5q17 0 34 -2t33 -5t29.5 -6.5t22.5 -6.5l126 2l-25 -90zM312 356q0 11 -7 21.5
t-17.5 18.5t-23.5 13t-26 5q-12 0 -19.5 -3t-12.5 -8q-13 -13 -23 -33t-17 -42.5t-10.5 -46t-3.5 -42.5q1 -21 7.5 -38.5t14.5 -25.5q5 -5 13.5 -9t17.5 -4q31 0 55 26q14 14 24 35t16 44t9 46.5t3 42.5zM309 -149q0 24 -26 41t-83 36l-51.5 16.5t-49.5 19.5
q-33 -16 -53 -38.5t-20 -50.5q0 -38 42 -63t114 -25q55 0 91 18.5t36 45.5z" />
    <glyph glyph-name="h" unicode="h" horiz-adv-x="532" 
d="M501 84q-11 -19 -27 -37t-34.5 -32t-38 -22.5t-39.5 -8.5q-9 0 -24.5 4t-29.5 10t-24.5 13.5t-10.5 14.5q0 8 4.5 26.5t12.5 43.5l18 55.5l21 63.5l22 72t11 54q0 15 -14.5 25t-31.5 10q-25 0 -59 -55t-90 -172l-33 -151l-121 -1l37 150l86 410q6 26 -12 34l-57 27l6 28
l204 51l-57 -230l-62 -260h11q35 76 65 134t56 84q44 44 96 44q38 0 63 -22.5t25 -57.5q0 -33 -14.5 -84t-31.5 -105q-3 -11 -9.5 -31.5l-13.5 -41.5l-13.5 -39.5l-8.5 -24.5l27 -9l74 51l17 -21v0z" />
    <glyph glyph-name="i" unicode="i" horiz-adv-x="280" 
d="M299 622q0 -18 -5.5 -34t-15 -28t-22 -18.5t-25.5 -6.5q-32 0 -49 20t-17 47q0 18 5.5 34t15 28t22 19t25.5 7q32 0 49 -20.5t17 -47.5zM261 84q-11 -19 -27 -37t-34.5 -32t-38 -22.5t-39.5 -8.5q-9 0 -25 4.5t-30.5 11t-24.5 14t-9 12.5l96 362l-30 6l-65 -72l-20 22
q9 21 23.5 43t31.5 40t36.5 30t38.5 12q9 0 26.5 -4.5t34 -10.5t28.5 -13.5t10 -13.5l-100 -364l27 -9l74 51l17 -21v0z" />
    <glyph glyph-name="j" unicode="j" horiz-adv-x="267" 
d="M302 622q0 -18 -5.5 -34t-15 -28t-22 -18.5t-25.5 -6.5q-32 0 -49 20t-17 47q0 18 5.5 34t15 28t22 19t25.5 7q32 0 49 -20.5t17 -47.5zM160 79q-23 -100 -52 -173.5t-70 -114.5q-25 -24 -53 -38t-62 -14q-39 0 -66.5 21t-27.5 56q0 27 18 43t41 16q31 0 50 -22t26 -53
l25 6q10 23 22.5 71t31.5 133l86 377l-34 8l-63 -73l-21 22q9 21 23.5 43t31.5 40t36.5 30t39.5 12q9 0 26.5 -4t34 -10.5t28.5 -14t10 -13.5z" />
    <glyph glyph-name="k" unicode="k" horiz-adv-x="471" 
d="M460 102q-8 -21 -23.5 -41.5t-34 -37t-40 -26.5t-41.5 -10q-6 0 -14 2.5t-16.5 6t-14.5 8t-7 7.5l-70 209l-37 -16l-29 -206l-120 -1l37 150l86 410q6 26 -12 34l-57 27l6 28l202 51l-56 -229l-58 -227h7l193 102v12q-21 6 -32.5 22t-11.5 36q0 28 21 47.5t50 19.5
q34 0 56 -22t22 -52q0 -28 -12.5 -49t-35 -37.5t-54.5 -30.5t-71 -29l31 -104l49 -85l43 32l44 -1v0z" />
    <glyph glyph-name="l" unicode="l" horiz-adv-x="273" 
d="M254 84q-11 -19 -27 -37t-34.5 -32t-38.5 -22.5t-40 -8.5q-9 0 -24.5 4.5t-30 11t-24.5 14t-9 12.5l110 531q6 26 -12 34l-57 27l6 28l200 51l-138 -634l28 -9l73 51l18 -21v0z" />
    <glyph glyph-name="m" unicode="m" horiz-adv-x="815" 
d="M794 84q-11 -19 -27 -37t-34.5 -32t-38.5 -22.5t-40 -8.5q-9 0 -24 4t-29.5 10t-24.5 13.5t-10 14.5q0 8 4.5 26.5t12.5 43.5l18 55.5l20 63.5l23 72t11 54q0 15 -14.5 25t-31.5 10q-25 0 -60 -55.5t-91 -171.5l-39 -151l-122 -1l50 178l13.5 47.5l14 48.5t10.5 42t4 28
q0 15 -14.5 25t-31.5 10q-25 0 -59 -55t-90 -172l-33 -151l-121 -1l37 150l49 241l-29 6l-64 -72l-21 22q10 21 24 43t31.5 40t36.5 30t39 12q9 0 25.5 -3t32.5 -8t27.5 -11.5t11.5 -13.5q0 -12 -7 -43.5t-16.5 -67.5l-18.5 -68.5l-13 -46.5h11q35 76 65 134t56 84
q44 44 96 44q38 0 60 -23t22 -59q0 -16 -6 -42t-13.5 -53t-15.5 -50.5t-11 -34.5h11q38 85 67 138.5t55 79.5q44 44 97 44q38 0 63 -22.5t25 -57.5q0 -33 -14 -84t-32 -105q-3 -11 -10 -31.5l-14 -42t-13.5 -39.5t-8.5 -24l28 -9l73 51l18 -21v0z" />
    <glyph glyph-name="n" unicode="n" horiz-adv-x="550" 
d="M528 84q-11 -19 -27 -37t-34.5 -32t-38 -22.5t-39.5 -8.5q-9 0 -24.5 4t-29.5 10t-24.5 13.5t-10.5 14.5q0 8 4.5 26.5t12.5 43.5l18 55.5l21 63.5l22 72t11 54q0 15 -14.5 25t-31.5 10q-25 0 -59 -55t-90 -172l-33 -151l-121 -1l37 150l49 238l-28 7l-66 -70l-20 22
q10 21 24 43t31 40t36.5 30t38.5 12q9 0 25.5 -3t32.5 -8t28 -11.5t12 -13.5q0 -12 -7 -43.5t-16.5 -67.5l-18.5 -68.5l-13 -46.5h11q35 76 65 134t56 84q44 44 96 44q38 0 63 -22.5t25 -57.5q0 -33 -14.5 -84t-31.5 -105q-3 -11 -10 -31.5l-14 -42l-13 -39.5l-8 -24l27 -9
l74 51l17 -21v0z" />
    <glyph glyph-name="o" unicode="o" horiz-adv-x="481" 
d="M449 265q0 -52 -18 -102.5t-50.5 -90t-76.5 -63.5t-96 -24q-43 0 -76 15t-55.5 42t-34 64t-11.5 82q0 53 18.5 103.5t51 90t77 63.5t95.5 24q43 0 75.5 -15t55 -42t34 -64.5t11.5 -82.5zM340 313q0 45 -16.5 76.5t-50.5 31.5q-22 0 -41.5 -17t-35 -43t-26.5 -57t-17 -58
q-6 -26 -9.5 -52t-3.5 -49q0 -22 4.5 -42.5t12.5 -36t21 -25t29 -9.5q23 0 42.5 17.5t35 44.5t26.5 58.5t17 59.5q5 26 8.5 52t3.5 49z" />
    <glyph glyph-name="p" unicode="p" horiz-adv-x="530" 
d="M153 37l-42 -209q-3 -18 21 -24l65 -11l4 -39h-274l3 39l47 11q13 3 18 9t7 15l125 559l-30 7l-64 -72l-21 22q10 21 24 43t31.5 40t36.5 30t39 12q9 0 25.5 -4.5t32 -11.5t27 -15t11.5 -15q0 -10 -4.5 -27t-11 -39t-14.5 -46l-16 -48h10q27 53 50 92t45 64.5t45 37.5
t49 12q23 0 43 -10.5t35 -29t23.5 -45.5t8.5 -60q0 -37 -8.5 -75t-23.5 -73t-35.5 -66.5t-45.5 -56.5q-31 -31 -67 -49.5t-71 -18.5q-29 0 -53.5 14.5t-38.5 37.5h-6zM171 115q11 -15 24 -29.5t27 -26.5t27.5 -19.5t23.5 -7.5q16 0 32 16q17 17 32.5 46t27.5 63t19 69.5
t7 65.5q0 37 -12.5 63t-35.5 26q-27 0 -61 -47.5t-89 -140.5l-22 -78v0z" />
    <glyph glyph-name="q" unicode="q" horiz-adv-x="503" 
d="M327 200l-52.5 -88t-46 -68t-45 -43.5t-48.5 -15.5q-48 0 -80.5 34.5t-32.5 100.5q0 38 9.5 76.5t25.5 75.5t38 69.5t47 57.5q31 31 67.5 50t71.5 19q38 0 58.5 -23t28.5 -54h8l27 77h103l-60 -181l-97 -459q-3 -19 21 -24l51 -11l3 -39h-271l3 39l58 11q13 3 18 9t7 15
l53 225l45 147h-10v0zM354 329q-9 15 -22 28.5t-28 24.5t-30.5 17.5t-28.5 6.5q-11 0 -18 -4t-15 -12q-15 -15 -29 -43t-25.5 -61t-18 -68.5t-6.5 -65.5q0 -38 14 -58.5t37 -20.5q14 0 28.5 11t31.5 33t38 55.5l49 77.5l23 79v0z" />
    <glyph glyph-name="r" unicode="r" horiz-adv-x="451" 
d="M351 389q-4 1 -8 3q-8 4 -10 2q-5 -4 -16.5 -22t-26 -43.5l-30.5 -55.5l-31 -58l-26.5 -51t-17.5 -36l-24 -130l-121 -1l37 150l49 241l-29 6l-64 -72l-21 22q10 21 24 43t31.5 40t36.5 30t39 12q9 0 25.5 -3t32.5 -8t27.5 -11.5t11.5 -13.5q0 -12 -7.5 -45t-18 -71
t-21.5 -74t-18 -56h14q6 18 20 49.5l29.5 64t31 59.5t24.5 36q11 20 21 34.5t21.5 23.5t25 13t31.5 4q31 0 54 -21t23 -61q0 -33 -19 -54.5t-45 -21.5q-30 0 -47 21.5t-8 54.5z" />
    <glyph glyph-name="s" unicode="s" horiz-adv-x="383" 
d="M380 384q0 -29 -16 -46t-43 -17q-25 0 -39 16t-14 38q0 5 1.5 12t4.5 12q-15 8 -37.5 15.5t-44.5 9.5q-7 -4 -14 -11.5t-13 -16t-10 -16.5t-4 -13q-1 -12 7 -24.5t20 -26t26 -26.5l26 -25l38 -36.5t31.5 -35t21.5 -35.5t7 -38q-1 -31 -17.5 -56t-42.5 -42.5t-58.5 -27
t-66.5 -9.5q-27 0 -53.5 4.5t-47.5 14.5t-34 27t-13 42q0 28 16 45t45 17q23 0 37 -15.5t14 -38.5q0 -5 -1.5 -12t-4.5 -12q17 -8 45 -16.5t50 -9.5q6 4 12.5 11.5t12.5 16t10 18t4 16.5q1 11 -6 22.5t-18.5 24t-26 25.5l-28.5 26l-38 35.5t-31.5 35.5t-21.5 36t-7 38
q2 33 18 58t41.5 41.5t56.5 25t62 8.5q27 0 53 -4t46.5 -13.5t32.5 -26t12 -41.5z" />
    <glyph glyph-name="t" unicode="t" horiz-adv-x="331" 
d="M155 592h108l-30 -144h126l3 -57h-139l-74 -328l28 -9l73 51l18 -21q-11 -19 -27 -37t-34.5 -32t-38.5 -22.5t-40 -8.5q-9 0 -25 4t-30.5 10t-24.5 13t-9 12l77 360l-82 8l3 34l93 37z" />
    <glyph glyph-name="u" unicode="u" horiz-adv-x="550" 
d="M25 344q9 21 23.5 43t31.5 40t36.5 30t39.5 12q9 0 25 -5.5t31 -13.5t26 -16.5t11 -15.5q0 -9 -4 -26t-11.5 -40l-17 -52l-20.5 -61l-21.5 -70t-10.5 -51q0 -15 14 -28t31 -13q25 0 60 55.5t92 171.5l35 153h121l-42 -150l-24 -117q-4 -22 -8.5 -44l-8.5 -40l-6.5 -30
t-3.5 -15l27 -10l71 51l18 -20q-11 -19 -27 -37t-34 -31.5t-37.5 -21.5t-39.5 -8q-9 0 -24.5 4t-29.5 10t-24.5 13.5t-10.5 14.5q0 12 7.5 44t17.5 67l19 66.5t13 43.5h-11q-36 -77 -67 -134.5t-57 -83.5q-21 -21 -45.5 -32.5t-50.5 -11.5q-39 0 -63.5 25t-24.5 59t14 83
t31 102l13 40l13 40l10.5 33.5l6.5 20.5l-29 6l-64 -72l-21 22v0z" />
    <glyph glyph-name="v" unicode="v" horiz-adv-x="474" 
d="M245 4l-125 -19l-9 403l-29 6l-64 -72l-20 22q9 21 23.5 43t31.5 40t36.5 30t38.5 12q9 0 25.5 -4t32.5 -10t27.5 -13t11.5 -14v-372h11l111 187q17 29 25.5 50t8.5 41q0 22 -20.5 40.5t-52.5 24.5q8 31 31.5 51t55.5 20q33 0 58.5 -22t25.5 -61q0 -44 -27.5 -91
t-77.5 -113z" />
    <glyph glyph-name="w" unicode="w" horiz-adv-x="732" 
d="M380 291l-131 -287l-128 -19l-10 403l-29 6l-64 -72l-20 22q9 21 23.5 43t31.5 40t36.5 30t38.5 12q9 0 25.5 -4t32.5 -10t27.5 -13t11.5 -14l3 -372h9l141 318l-5 95l55 -10l54 -10l16 -393h10l95 187l24 49.5t10 41.5q0 22 -18.5 40.5t-49.5 24.5q8 31 30.5 51t53.5 20
q32 0 56 -22t23 -61q0 -44 -26.5 -90t-73.5 -114l-118 -179l-120 -19l-6 306h-8z" />
    <glyph glyph-name="x" unicode="x" horiz-adv-x="510" 
d="M532 400q-1 -32 -17.5 -52t-40.5 -20q-28 0 -41 17.5t-10 48.5l-28 5l-92 -156l67 -177h21l56 62l18 -21q-10 -21 -22.5 -42.5t-27.5 -39t-32.5 -28.5t-37.5 -11q-7 0 -20.5 4t-27 10t-24 12t-11.5 10l-36 151h-8q-32 -68 -52.5 -106t-36 -56t-28.5 -22t-30 -4
q-40 0 -64.5 20t-23.5 50q1 32 17 52t41 20q28 0 41.5 -17.5t10.5 -48.5l27 -6l46 81q9 15 17 30l14 26.5t10 18l4 6.5l-68 172h-22l-55 -62l-18 21q10 21 22.5 42.5t27.5 39t32.5 28.5t36.5 11q7 0 20.5 -3t27 -8.5t24.5 -12t12 -12.5l36 -151h6q27 63 48 100t38 56.5
t33 25.5t32 6q39 0 64 -19.5t24 -50.5z" />
    <glyph glyph-name="y" unicode="y" horiz-adv-x="476" 
d="M480 389q0 -22 -11.5 -50.5t-29.5 -59.5t-40.5 -63l-45.5 -62l-91 -123l-56 -112q-42 -85 -87 -127.5t-102 -42.5q-19 0 -37 6t-31.5 16.5t-21.5 26t-8 33.5q0 27 17.5 44t40.5 17q30 0 50.5 -22t19.5 -58l18 -1l126 167l-68 20l-11 390l-29 6l-64 -72l-20 22
q9 21 23.5 43t31.5 40t36.5 30t38.5 12q9 0 25.5 -3.5t32 -9.5t27.5 -13.5t12 -14.5l-7 -379h13l156 270v12q-27 11 -41.5 28.5t-14.5 36.5q0 31 19 52.5t50 21.5q33 0 56 -21.5t23 -59.5z" />
    <glyph glyph-name="z" unicode="z" horiz-adv-x="427" 
d="M297 322q-18 6 -39 18t-42 26t-40.5 28.5l-34.5 26.5l-16 -15q11 -14 16.5 -26t5.5 -26q0 -23 -14 -36.5t-36 -15.5q-29 -2 -43.5 14.5t-14.5 38.5q0 20 9.5 39t27.5 35t43 26.5t55 12.5q38 0 63 -10t41 -26t25.5 -34.5t16.5 -36.5q2 0 3.5 0.5t3.5 0.5h5l27 107
q31 2 53 -16t22 -46q0 -35 -26 -60t-74 -36l-202 -175q20 -7 43 -21t45.5 -29.5l43.5 -31l36 -26.5l16 15q-12 14 -18 26.5t-6 27.5q0 21 14.5 35t37.5 15q28 2 41.5 -15t13.5 -39q0 -20 -8.5 -39.5t-25 -35.5t-40.5 -27t-56 -14q-35 0 -61 9.5t-44.5 25.5t-31.5 38.5
t-22 47.5h-8q-3 0 -5 -1l-28 -111q-32 -2 -54 16.5t-22 45.5q0 72 97 94l207 180v0z" />
    <glyph glyph-name="braceleft" unicode="{" horiz-adv-x="349" 
d="M322 -223q-109 5 -162 45t-53 106q0 28 8.5 52.5t18.5 47.5t18.5 44.5t8.5 43.5q0 40 -30.5 57t-93.5 23l-11 32l11 30q58 7 91 23.5t33 56.5q0 22 -8.5 43.5t-18.5 44.5t-18.5 48t-8.5 52q0 66 53 106.5t162 45.5v-38q-59 -5 -84.5 -28.5t-25.5 -58.5q0 -24 8.5 -46
t18.5 -45.5t18.5 -48.5t8.5 -55q0 -24 -11.5 -45.5t-32 -38t-48.5 -27.5t-62 -14v-12q34 -4 62 -15t48.5 -27.5t32 -38t11.5 -45.5q0 -29 -8.5 -54t-18.5 -48t-18.5 -45.5t-8.5 -46.5q0 -35 25.5 -59t84.5 -29v-36v0z" />
    <glyph glyph-name="bar" unicode="|" horiz-adv-x="275" 
d="M113 690h49v-877h-49v877z" />
    <glyph glyph-name="braceright" unicode="}" horiz-adv-x="349" 
d="M311 196q-63 -6 -94 -23t-31 -57q0 -22 8.5 -43.5t18.5 -44.5t18.5 -47.5t8.5 -52.5q0 -66 -52.5 -106t-161.5 -45v36q59 5 84.5 29t25.5 59q0 24 -8.5 46.5t-18.5 45.5t-18.5 48t-8.5 54q0 24 11.5 45.5t31.5 38t48.5 27.5t62.5 15v12q-34 3 -62.5 14t-48.5 27.5
t-31.5 38t-11.5 45.5q0 30 8.5 55t18.5 48.5t18.5 45.5t8.5 46q0 35 -25.5 58.5t-84.5 28.5v38q109 -5 161.5 -45.5t52.5 -106.5q0 -27 -8.5 -52t-18.5 -48t-18.5 -44.5t-8.5 -43.5q0 -40 33 -56.5t92 -23.5l11 -30z" />
    <glyph glyph-name="asciitilde" unicode="~" horiz-adv-x="384" 
d="M268 241q16 0 28 14.5t29 46.5h41q-17 -73 -46 -102t-73 -29q-22 0 -43 11t-39.5 24.5l-34.5 24.5t-30 11q-17 0 -27 -15t-26 -47h-43q17 72 46 101.5t73 29.5q23 0 43 -11t38 -24l34 -24t30 -11z" />
    <glyph glyph-name="Adieresis" unicode="&#xc4;" horiz-adv-x="620" 
d="M304 0l3 41l39 6q27 4 30.5 20t-4.5 57l-14 84h-188l-17 -46q-21 -50 -18 -79t29 -34l36 -8l3 -41h-237l3 41l28 9q15 4 26 9.5t22.5 19t25 39t34.5 70.5l174 384v38l133 30l108 -549q4 -17 11 -26.5t27 -14.5l38 -9l3 -41h-295zM309 514h-8l-111 -257h160zM530 773
q0 -28 -17 -48.5t-48 -20.5t-48 20.5t-17 48.5t17 49t48 21t48 -21t17 -49zM316 773q0 -28 -17 -48.5t-48 -20.5t-48.5 20.5t-17.5 48.5t17.5 49t48.5 21t48 -21t17 -49z" />
    <glyph glyph-name="Aring" unicode="&#xc5;" horiz-adv-x="620" 
d="M311 514h-10l-111 -260h159zM427 692q0 26 -17 47t-47 21t-47 -21t-17 -47t17 -46.5t47 -20.5t47 20.5t17 46.5zM298 615q-16 14 -25 34t-9 43q2 41 27.5 70.5t71.5 29.5t72 -29.5t26 -70.5q0 -26 -11 -48t-31 -35l101 -518q3 -17 10.5 -26.5t27.5 -14.5l38 -9l3 -41
h-295l3 41l39 6q27 4 30.5 20t-4.5 57l-14 84h-188l-17 -46q-21 -50 -18 -79t29 -34l36 -8l3 -41h-237l3 41l28 9q15 4 26 9.5t22 19.5t25 39.5t35 69.5l193 427v0z" />
    <glyph glyph-name="Ccedilla" unicode="&#xc7;" horiz-adv-x="650" 
d="M307 -15q-65 5 -113.5 27t-80.5 59t-48 86.5t-16 108.5q0 72 30 142t84 124q48 48 112.5 77.5t140.5 29.5q21 0 43.5 -2.5t43 -6t37.5 -8t27 -8.5l86 23l-30 -223h-69l-23 144q-20 14 -45.5 23t-59.5 9q-48 0 -90 -26t-73.5 -72t-49.5 -107t-18 -132q0 -121 62 -181
q39 -39 103 -39q25 0 49.5 6.5t46.5 17.5l70 149h76l-47 -206l-60 12q-28 -11 -64 -18.5t-77 -9.5l-43 -38q59 -2 93 -24.5t34 -61.5q0 -28 -17.5 -51.5t-49 -41.5t-76 -28.5t-97.5 -13.5l-6 27q82 10 125 32t43 53q0 23 -18.5 35.5t-58.5 12.5q-36 0 -70 -7l3 24l91 83v0z
" />
    <glyph glyph-name="Eacute" unicode="&#xc9;" horiz-adv-x="627" 
d="M539 0h-532l4 40l49 11q14 3 19 8.5t7 15.5l65 475q2 9 -2 15t-18 9l-46 11l-2 40h541l-27 -206h-69l-11 83q-3 27 -11 42.5t-28 23.5t-56 10t-95 2h-39l-34 -242h19q42 0 63 5.5t32 26.5l34 68h51l-55 -242h-51l1 64q0 9 -3 15.5t-12 10.5t-26 5.5t-44 1.5h-15l-33 -248
h43q61 0 98.5 2.5t61 10.5t36.5 23.5t25 41.5l34 74h72zM347 682h-45l119 182h127z" />
    <glyph glyph-name="Ntilde" unicode="&#xd1;" horiz-adv-x="715" 
d="M738 585l-48 -10q-12 -3 -21.5 -11.5t-17 -30t-14.5 -59t-15 -98.5l-53 -384h-97l-262 509h-7l-34 -252q-9 -61 -12.5 -99t-2 -59.5t7.5 -30t18 -10.5l52 -10l3 -40h-239l3 40l48 10q12 3 21 11.5t16.5 30.5t14.5 59.5t15 97.5l37 268q3 24 -1 38t-23 19l-43 11l-2 40
h209l238 -465h8l29 216q9 62 12.5 100t2.5 59.5t-7 29.5t-17 10l-54 10l-3 40h241zM587 825q-17 -72 -47 -103.5t-74 -31.5q-22 0 -42.5 11t-39 24.5l-34.5 24.5t-30 11q-17 0 -27 -15t-26 -47h-43q17 72 46.5 103.5t73.5 31.5q23 0 42.5 -11t37.5 -24l34 -24t30 -11
q16 0 28 14.5t29 46.5h42v0z" />
    <glyph glyph-name="Odieresis" unicode="&#xd6;" horiz-adv-x="715" 
d="M686 348q0 -78 -29.5 -146.5t-81.5 -121.5q-45 -46 -104 -70.5t-129 -24.5q-64 0 -118 21.5t-93 60t-61 91.5t-22 117q0 73 24.5 137.5t70.5 114.5q47 51 110 81t140 30q64 0 118 -21.5t93 -60t60.5 -91.5t21.5 -117zM543 378q0 47 -11 94t-41 79q-19 17 -43 27.5
t-58 10.5q-37 0 -66.5 -17.5t-51.5 -46.5t-37 -66t-25 -75t-14.5 -74.5t-4.5 -65.5q0 -48 11 -94t42 -76q18 -18 42 -28.5t58 -10.5q37 0 66.5 17.5t51.5 46t37.5 65t25 75t14 75t4.5 64.5zM587 773q0 -28 -17 -48.5t-48 -20.5t-48 20.5t-17 48.5t17 49t48 21t48 -21t17 -49
zM373 773q0 -28 -17 -48.5t-48 -20.5t-48.5 20.5t-17.5 48.5t17.5 49t48.5 21t48 -21t17 -49z" />
    <glyph glyph-name="Udieresis" unicode="&#xdc;" horiz-adv-x="708" 
d="M737 585l-48 -10q-12 -3 -21 -11.5t-16.5 -30t-14.5 -59t-16 -98.5l-24 -170q-9 -58 -32 -101t-57.5 -71t-78.5 -41.5t-95 -13.5q-52 0 -95.5 12.5t-75 38t-49.5 63.5t-18 89q0 30 3 55l43 313q2 9 -2 15t-18 9l-45 11l-3 40h280l-3 -40l-50 -11q-23 -6 -26 -24l-43 -313
q-2 -13 -3.5 -27.5t-1.5 -32.5q0 -63 39.5 -98t105.5 -35q35 0 63.5 9.5t50 30.5t36.5 55t22 84l22 153q9 62 12.5 100t2 59t-7.5 29.5t-18 10.5l-52 10l-3 40h240zM584 773q0 -28 -17 -48.5t-48 -20.5t-48 20.5t-17 48.5t17 49t48 21t48 -21t17 -49zM370 773
q0 -28 -17 -48.5t-48 -20.5t-48.5 20.5t-17.5 48.5t17.5 49t48.5 21t48 -21t17 -49z" />
    <glyph glyph-name="aacute" unicode="&#xe1;" horiz-adv-x="528" 
d="M376 391l27 77h103l-60 -181l-53 -224l27 -9l74 51l17 -21q-11 -19 -27 -37t-34.5 -32t-38.5 -22.5t-40 -8.5q-9 0 -24.5 4t-30 10t-25 13t-10.5 14q0 8 6 27l14.5 44l18 52.5l17.5 51.5h-10l-52.5 -88t-46 -68t-45 -43.5t-48.5 -15.5q-48 0 -80.5 34.5t-32.5 100.5
q0 38 9.5 76.5t25.5 75.5t38 69.5t47 57.5q31 31 67.5 50t71.5 19q38 0 58.5 -23t28.5 -54h8zM354 329q-9 15 -22 28.5t-28 24.5t-30.5 17.5t-28.5 6.5q-11 0 -18 -4t-15 -12q-15 -15 -29 -43t-25.5 -61t-18 -68.5t-6.5 -65.5q0 -38 14 -58.5t37 -20.5q14 0 28.5 11t31.5 33
t38 55.5l49 77.5l23 79v0zM297 515h-45l119 182h127z" />
    <glyph glyph-name="agrave" unicode="&#xe0;" horiz-adv-x="528" 
d="M324 515l-151 182h127l70 -182h-46zM376 391l27 77h103l-60 -181l-53 -224l27 -9l74 51l17 -21q-11 -19 -27 -37t-34.5 -32t-38.5 -22.5t-40 -8.5q-9 0 -24.5 4t-30 10t-25 13t-10.5 14q0 8 6 27l14.5 44l18 52.5l17.5 51.5h-10l-52.5 -88t-46 -68t-45 -43.5t-48.5 -15.5
q-48 0 -80.5 34.5t-32.5 100.5q0 38 9.5 76.5t25.5 75.5t38 69.5t47 57.5q31 31 67.5 50t71.5 19q38 0 58.5 -23t28.5 -54h8zM354 329q-9 15 -22 28.5t-28 24.5t-30.5 17.5t-28.5 6.5q-11 0 -18 -4t-15 -12q-15 -15 -29 -43t-25.5 -61t-18 -68.5t-6.5 -65.5q0 -38 14 -58.5
t37 -20.5q14 0 28.5 11t31.5 33t38 55.5l49 77.5l23 79v0z" />
    <glyph glyph-name="acircumflex" unicode="&#xe2;" horiz-adv-x="528" 
d="M376 391l27 77h103l-60 -181l-53 -224l27 -9l74 51l17 -21q-11 -19 -27 -37t-34.5 -32t-38.5 -22.5t-40 -8.5q-9 0 -24.5 4t-30 10t-25 13t-10.5 14q0 8 6 27l14.5 44l18 52.5l17.5 51.5h-10l-52.5 -88t-46 -68t-45 -43.5t-48.5 -15.5q-48 0 -80.5 34.5t-32.5 100.5
q0 38 9.5 76.5t25.5 75.5t38 69.5t47 57.5q31 31 67.5 50t71.5 19q38 0 58.5 -23t28.5 -54h8zM354 329q-9 15 -22 28.5t-28 24.5t-30.5 17.5t-28.5 6.5q-11 0 -18 -4t-15 -12q-15 -15 -29 -43t-25.5 -61t-18 -68.5t-6.5 -65.5q0 -38 14 -58.5t37 -20.5q14 0 28.5 11t31.5 33
t38 55.5l49 77.5l23 79v0zM416 515l-86 120h-2l-118 -120h-46l114 182h118l66 -182h-46z" />
    <glyph glyph-name="adieresis" unicode="&#xe4;" horiz-adv-x="528" 
d="M376 391l27 77h103l-60 -181l-53 -224l27 -9l74 51l17 -21q-11 -19 -27 -37t-34.5 -32t-38.5 -22.5t-40 -8.5q-9 0 -24.5 4t-30 10t-25 13t-10.5 14q0 8 6 27l14.5 44l18 52.5l17.5 51.5h-10l-52.5 -88t-46 -68t-45 -43.5t-48.5 -15.5q-48 0 -80.5 34.5t-32.5 100.5
q0 38 9.5 76.5t25.5 75.5t38 69.5t47 57.5q31 31 67.5 50t71.5 19q38 0 58.5 -23t28.5 -54h8zM354 329q-9 15 -22 28.5t-28 24.5t-30.5 17.5t-28.5 6.5q-11 0 -18 -4t-15 -12q-15 -15 -29 -43t-25.5 -61t-18 -68.5t-6.5 -65.5q0 -38 14 -58.5t37 -20.5q14 0 28.5 11t31.5 33
t38 55.5l49 77.5l23 79v0zM494 606q0 -28 -17 -48.5t-48 -20.5t-48 20.5t-17 48.5t17 49t48 21t48 -21t17 -49zM280 606q0 -28 -17 -48.5t-48 -20.5t-48.5 20.5t-17.5 48.5t17.5 49t48.5 21t48 -21t17 -49z" />
    <glyph glyph-name="atilde" unicode="&#xe3;" horiz-adv-x="528" 
d="M376 391l27 77h103l-60 -181l-53 -224l27 -9l74 51l17 -21q-11 -19 -27 -37t-34.5 -32t-38.5 -22.5t-40 -8.5q-9 0 -24.5 4t-30 10t-25 13t-10.5 14q0 8 6 27l14.5 44l18 52.5l17.5 51.5h-10l-52.5 -88t-46 -68t-45 -43.5t-48.5 -15.5q-48 0 -80.5 34.5t-32.5 100.5
q0 38 9.5 76.5t25.5 75.5t38 69.5t47 57.5q31 31 67.5 50t71.5 19q38 0 58.5 -23t28.5 -54h8zM354 329q-9 15 -22 28.5t-28 24.5t-30.5 17.5t-28.5 6.5q-11 0 -18 -4t-15 -12q-15 -15 -29 -43t-25.5 -61t-18 -68.5t-6.5 -65.5q0 -38 14 -58.5t37 -20.5q14 0 28.5 11t31.5 33
t38 55.5l49 77.5l23 79v0zM500 658q-17 -72 -47 -103.5t-74 -31.5q-22 0 -42.5 11t-39 24.5l-34.5 24.5t-30 11q-17 0 -27 -15t-26 -47h-43q17 72 46.5 103.5t73.5 31.5q23 0 42.5 -11t37.5 -24l34 -24t30 -11q16 0 28 14.5t29 46.5h42v0z" />
    <glyph glyph-name="aring" unicode="&#xe5;" horiz-adv-x="528" 
d="M376 391l27 77h103l-60 -181l-53 -224l27 -9l74 51l17 -21q-11 -19 -27 -37t-34.5 -32t-38.5 -22.5t-40 -8.5q-9 0 -24.5 4t-30 10t-25 13t-10.5 14q0 8 6 27l14.5 44l18 52.5l17.5 51.5h-10l-52.5 -88t-46 -68t-45 -43.5t-48.5 -15.5q-48 0 -80.5 34.5t-32.5 100.5
q0 38 9.5 76.5t25.5 75.5t38 69.5t47 57.5q31 31 67.5 50t71.5 19q38 0 58.5 -23t28.5 -54h8zM354 329q-9 15 -22 28.5t-28 24.5t-30.5 17.5t-28.5 6.5q-11 0 -18 -4t-15 -12q-15 -15 -29 -43t-25.5 -61t-18 -68.5t-6.5 -65.5q0 -38 14 -58.5t37 -20.5q14 0 28.5 11t31.5 33
t38 55.5l49 77.5l23 79v0zM430 613q0 -41 -26 -70.5t-72 -29.5t-73 29.5t-26 70.5t27 70.5t72 29.5t72 -29.5t26 -70.5zM396 613q0 26 -17 47t-47 21t-47 -21t-17 -47t17 -46.5t47 -20.5t47 20.5t17 46.5z" />
    <glyph glyph-name="ccedilla" unicode="&#xe7;" horiz-adv-x="426" 
d="M162 -14q-64 8 -99 54.5t-35 112.5q0 55 21 111.5t58 102t86 74t106 28.5q26 0 49 -7.5t40 -21t26.5 -31.5t9.5 -40q0 -32 -19 -52.5t-44 -20.5q-29 0 -42 16.5t-13 38.5q0 11 3.5 21.5t8.5 18.5q-11 8 -35 14.5t-44 6.5q-4 0 -9 -3.5t-10 -8.5q-12 -11 -25.5 -36
t-25.5 -57.5t-20 -69t-8 -71.5q0 -49 25 -78t63 -29q17 0 49.5 17.5t77.5 48.5l16 -21q-32 -42 -70.5 -75.5t-89.5 -41.5l-47 -41q59 -2 93 -24.5t34 -61.5q0 -28 -17.5 -51.5t-49 -41.5t-76 -28.5t-97.5 -13.5l-6 27q82 10 125 32t43 53q0 23 -18.5 35.5t-58.5 12.5
q-36 0 -70 -7l3 24l92 84v0z" />
    <glyph glyph-name="eacute" unicode="&#xe9;" horiz-adv-x="422" 
d="M141 157q0 -43 25 -70.5t63 -27.5q17 0 49.5 17.5t77.5 48.5l16 -21q-18 -24 -38 -45.5t-43.5 -38t-50 -26t-56.5 -9.5q-38 0 -67 13t-49 35.5t-30 53.5t-10 66q0 56 21 112.5t57 101.5t84 73.5t102 28.5q60 0 91.5 -29t31.5 -71q0 -26 -16 -46.5t-49.5 -42t-85.5 -47.5
l-123 -63v-13zM143 205q47 26 80 46.5t54 38.5t30.5 35.5t9.5 38.5q0 10 -8.5 18.5t-20.5 15t-24.5 10t-20.5 3.5q-13 0 -19.5 -3t-11.5 -8q-9 -9 -19.5 -28t-21 -45t-18.5 -57t-13 -65h3zM265 515h-45l119 182h127z" />
    <glyph glyph-name="egrave" unicode="&#xe8;" horiz-adv-x="422" 
d="M287 515l-151 182h127l70 -182h-46zM141 157q0 -43 25 -70.5t63 -27.5q17 0 49.5 17.5t77.5 48.5l16 -21q-18 -24 -38 -45.5t-43.5 -38t-50 -26t-56.5 -9.5q-38 0 -67 13t-49 35.5t-30 53.5t-10 66q0 56 21 112.5t57 101.5t84 73.5t102 28.5q60 0 91.5 -29t31.5 -71
q0 -26 -16 -46.5t-49.5 -42t-85.5 -47.5l-123 -63v-13zM143 205q47 26 80 46.5t54 38.5t30.5 35.5t9.5 38.5q0 10 -8.5 18.5t-20.5 15t-24.5 10t-20.5 3.5q-13 0 -19.5 -3t-11.5 -8q-9 -9 -19.5 -28t-21 -45t-18.5 -57t-13 -65h3z" />
    <glyph glyph-name="ecircumflex" unicode="&#xea;" horiz-adv-x="422" 
d="M141 157q0 -43 25 -70.5t63 -27.5q17 0 49.5 17.5t77.5 48.5l16 -21q-18 -24 -38 -45.5t-43.5 -38t-50 -26t-56.5 -9.5q-38 0 -67 13t-49 35.5t-30 53.5t-10 66q0 56 21 112.5t57 101.5t84 73.5t102 28.5q60 0 91.5 -29t31.5 -71q0 -26 -16 -46.5t-49.5 -42t-85.5 -47.5
l-123 -63v-13zM143 205q47 26 80 46.5t54 38.5t30.5 35.5t9.5 38.5q0 10 -8.5 18.5t-20.5 15t-24.5 10t-20.5 3.5q-13 0 -19.5 -3t-11.5 -8q-9 -9 -19.5 -28t-21 -45t-18.5 -57t-13 -65h3zM371 515l-86 120h-2l-118 -120h-46l114 182h118l66 -182h-46z" />
    <glyph glyph-name="edieresis" unicode="&#xeb;" horiz-adv-x="422" 
d="M141 157q0 -43 25 -70.5t63 -27.5q17 0 49.5 17.5t77.5 48.5l16 -21q-18 -24 -38 -45.5t-43.5 -38t-50 -26t-56.5 -9.5q-38 0 -67 13t-49 35.5t-30 53.5t-10 66q0 56 21 112.5t57 101.5t84 73.5t102 28.5q60 0 91.5 -29t31.5 -71q0 -26 -16 -46.5t-49.5 -42t-85.5 -47.5
l-123 -63v-13zM143 205q47 26 80 46.5t54 38.5t30.5 35.5t9.5 38.5q0 10 -8.5 18.5t-20.5 15t-24.5 10t-20.5 3.5q-13 0 -19.5 -3t-11.5 -8q-9 -9 -19.5 -28t-21 -45t-18.5 -57t-13 -65h3zM456 606q0 -28 -17 -48.5t-48 -20.5t-48 20.5t-17 48.5t17 49t48 21t48 -21t17 -49z
M242 606q0 -28 -17 -48.5t-48 -20.5t-48.5 20.5t-17.5 48.5t17.5 49t48.5 21t48 -21t17 -49z" />
    <glyph glyph-name="iacute" unicode="&#xed;" horiz-adv-x="280" 
d="M153 515h-45l119 182h127zM261 84q-11 -19 -27 -37t-34.5 -32t-38 -22.5t-39.5 -8.5q-9 0 -25 4.5t-30.5 11t-24.5 14t-9 12.5l96 362l-30 6l-65 -72l-20 22q9 21 23.5 43t31.5 40t36.5 30t38.5 12q9 0 26.5 -4.5t34 -10.5t28.5 -13.5t10 -13.5l-100 -364l27 -9l74 51
l17 -21v0z" />
    <glyph glyph-name="igrave" unicode="&#xec;" horiz-adv-x="280" 
d="M185 515l-151 182h127l70 -182h-46zM261 84q-11 -19 -27 -37t-34.5 -32t-38 -22.5t-39.5 -8.5q-9 0 -25 4.5t-30.5 11t-24.5 14t-9 12.5l96 362l-30 6l-65 -72l-20 22q9 21 23.5 43t31.5 40t36.5 30t38.5 12q9 0 26.5 -4.5t34 -10.5t28.5 -13.5t10 -13.5l-100 -364l27 -9
l74 51l17 -21v0z" />
    <glyph glyph-name="icircumflex" unicode="&#xee;" horiz-adv-x="280" 
d="M261 84q-11 -19 -27 -37t-34.5 -32t-38 -22.5t-39.5 -8.5q-9 0 -25 4.5t-30.5 11t-24.5 14t-9 12.5l96 362l-30 6l-65 -72l-20 22q9 21 23.5 43t31.5 40t36.5 30t38.5 12q9 0 26.5 -4.5t34 -10.5t28.5 -13.5t10 -13.5l-100 -364l27 -9l74 51l17 -21v0zM280 515l-86 120
h-2l-118 -120h-46l114 182h118l66 -182h-46z" />
    <glyph glyph-name="idieresis" unicode="&#xef;" horiz-adv-x="280" 
d="M365 606q0 -28 -17 -48.5t-48 -20.5t-48 20.5t-17 48.5t17 49t48 21t48 -21t17 -49zM151 606q0 -28 -17 -48.5t-48 -20.5t-48.5 20.5t-17.5 48.5t17.5 49t48.5 21t48 -21t17 -49zM261 84q-11 -19 -27 -37t-34.5 -32t-38 -22.5t-39.5 -8.5q-9 0 -25 4.5t-30.5 11t-24.5 14
t-9 12.5l96 362l-30 6l-65 -72l-20 22q9 21 23.5 43t31.5 40t36.5 30t38.5 12q9 0 26.5 -4.5t34 -10.5t28.5 -13.5t10 -13.5l-100 -364l27 -9l74 51l17 -21v0z" />
    <glyph glyph-name="ntilde" unicode="&#xf1;" horiz-adv-x="550" 
d="M528 84q-11 -19 -27 -37t-34.5 -32t-38 -22.5t-39.5 -8.5q-9 0 -24.5 4t-29.5 10t-24.5 13.5t-10.5 14.5q0 8 4.5 26.5t12.5 43.5l18 55.5l21 63.5l22 72t11 54q0 15 -14.5 25t-31.5 10q-25 0 -59 -55t-90 -172l-33 -151l-121 -1l37 150l49 238l-28 7l-66 -70l-20 22
q10 21 24 43t31 40t36.5 30t38.5 12q9 0 25.5 -3t32.5 -8t28 -11.5t12 -13.5q0 -12 -7 -43.5t-16.5 -67.5l-18.5 -68.5l-13 -46.5h11q35 76 65 134t56 84q44 44 96 44q38 0 63 -22.5t25 -57.5q0 -33 -14.5 -84t-31.5 -105q-3 -11 -10 -31.5l-14 -42l-13 -39.5l-8 -24l27 -9
l74 51l17 -21v0zM499 658q-17 -72 -47 -103.5t-74 -31.5q-22 0 -42.5 11t-39 24.5l-34.5 24.5t-30 11q-17 0 -27 -15t-26 -47h-43q17 72 46.5 103.5t73.5 31.5q23 0 42.5 -11t37.5 -24l34 -24t30 -11q16 0 28 14.5t29 46.5h42v0z" />
    <glyph glyph-name="oacute" unicode="&#xf3;" horiz-adv-x="481" 
d="M449 265q0 -52 -18 -102.5t-50.5 -90t-76.5 -63.5t-96 -24q-43 0 -76 15t-55.5 42t-34 64t-11.5 82q0 53 18.5 103.5t51 90t77 63.5t95.5 24q43 0 75.5 -15t55 -42t34 -64.5t11.5 -82.5zM340 313q0 45 -16.5 76.5t-50.5 31.5q-22 0 -41.5 -17t-35 -43t-26.5 -57t-17 -58
q-6 -26 -9.5 -52t-3.5 -49q0 -22 4.5 -42.5t12.5 -36t21 -25t29 -9.5q23 0 42.5 17.5t35 44.5t26.5 58.5t17 59.5q5 26 8.5 52t3.5 49zM284 515h-45l119 182h127z" />
    <glyph glyph-name="ograve" unicode="&#xf2;" horiz-adv-x="481" 
d="M291 515l-151 182h127l70 -182h-46zM449 265q0 -52 -18 -102.5t-50.5 -90t-76.5 -63.5t-96 -24q-43 0 -76 15t-55.5 42t-34 64t-11.5 82q0 53 18.5 103.5t51 90t77 63.5t95.5 24q43 0 75.5 -15t55 -42t34 -64.5t11.5 -82.5zM340 313q0 45 -16.5 76.5t-50.5 31.5
q-22 0 -41.5 -17t-35 -43t-26.5 -57t-17 -58q-6 -26 -9.5 -52t-3.5 -49q0 -22 4.5 -42.5t12.5 -36t21 -25t29 -9.5q23 0 42.5 17.5t35 44.5t26.5 58.5t17 59.5q5 26 8.5 52t3.5 49z" />
    <glyph glyph-name="ocircumflex" unicode="&#xf4;" horiz-adv-x="481" 
d="M449 265q0 -52 -18 -102.5t-50.5 -90t-76.5 -63.5t-96 -24q-43 0 -76 15t-55.5 42t-34 64t-11.5 82q0 53 18.5 103.5t51 90t77 63.5t95.5 24q43 0 75.5 -15t55 -42t34 -64.5t11.5 -82.5zM340 313q0 45 -16.5 76.5t-50.5 31.5q-22 0 -41.5 -17t-35 -43t-26.5 -57t-17 -58
q-6 -26 -9.5 -52t-3.5 -49q0 -22 4.5 -42.5t12.5 -36t21 -25t29 -9.5q23 0 42.5 17.5t35 44.5t26.5 58.5t17 59.5q5 26 8.5 52t3.5 49zM391 515l-86 120h-2l-118 -120h-46l114 182h118l66 -182h-46z" />
    <glyph glyph-name="odieresis" unicode="&#xf6;" horiz-adv-x="481" 
d="M449 265q0 -52 -18 -102.5t-50.5 -90t-76.5 -63.5t-96 -24q-43 0 -76 15t-55.5 42t-34 64t-11.5 82q0 53 18.5 103.5t51 90t77 63.5t95.5 24q43 0 75.5 -15t55 -42t34 -64.5t11.5 -82.5zM340 313q0 45 -16.5 76.5t-50.5 31.5q-22 0 -41.5 -17t-35 -43t-26.5 -57t-17 -58
q-6 -26 -9.5 -52t-3.5 -49q0 -22 4.5 -42.5t12.5 -36t21 -25t29 -9.5q23 0 42.5 17.5t35 44.5t26.5 58.5t17 59.5q5 26 8.5 52t3.5 49zM481 606q0 -28 -17 -48.5t-48 -20.5t-48 20.5t-17 48.5t17 49t48 21t48 -21t17 -49zM267 606q0 -28 -17 -48.5t-48 -20.5t-48.5 20.5
t-17.5 48.5t17.5 49t48.5 21t48 -21t17 -49z" />
    <glyph glyph-name="otilde" unicode="&#xf5;" horiz-adv-x="481" 
d="M449 265q0 -52 -18 -102.5t-50.5 -90t-76.5 -63.5t-96 -24q-43 0 -76 15t-55.5 42t-34 64t-11.5 82q0 53 18.5 103.5t51 90t77 63.5t95.5 24q43 0 75.5 -15t55 -42t34 -64.5t11.5 -82.5zM340 313q0 45 -16.5 76.5t-50.5 31.5q-22 0 -41.5 -17t-35 -43t-26.5 -57t-17 -58
q-6 -26 -9.5 -52t-3.5 -49q0 -22 4.5 -42.5t12.5 -36t21 -25t29 -9.5q23 0 42.5 17.5t35 44.5t26.5 58.5t17 59.5q5 26 8.5 52t3.5 49zM487 658q-17 -72 -47 -103.5t-74 -31.5q-22 0 -42.5 11t-39 24.5l-34.5 24.5t-30 11q-17 0 -27 -15t-26 -47h-43q17 72 46.5 103.5
t73.5 31.5q23 0 42.5 -11t37.5 -24l34 -24t30 -11q16 0 28 14.5t29 46.5h42v0z" />
    <glyph glyph-name="uacute" unicode="&#xfa;" horiz-adv-x="550" 
d="M25 344q9 21 23.5 43t31.5 40t36.5 30t39.5 12q9 0 25 -5.5t31 -13.5t26 -16.5t11 -15.5q0 -9 -4 -26t-11.5 -40l-17 -52l-20.5 -61l-21.5 -70t-10.5 -51q0 -15 14 -28t31 -13q25 0 60 55.5t92 171.5l35 153h121l-42 -150l-24 -117q-4 -22 -8.5 -44l-8.5 -40l-6.5 -30
t-3.5 -15l27 -10l71 51l18 -20q-11 -19 -27 -37t-34 -31.5t-37.5 -21.5t-39.5 -8q-9 0 -24.5 4t-29.5 10t-24.5 13.5t-10.5 14.5q0 12 7.5 44t17.5 67l19 66.5t13 43.5h-11q-36 -77 -67 -134.5t-57 -83.5q-21 -21 -45.5 -32.5t-50.5 -11.5q-39 0 -63.5 25t-24.5 59t14 83
t31 102l13 40l13 40l10.5 33.5l6.5 20.5l-29 6l-64 -72l-21 22v0zM303 515h-45l119 182h127z" />
    <glyph glyph-name="ugrave" unicode="&#xf9;" horiz-adv-x="550" 
d="M315 515l-151 182h127l70 -182h-46zM25 344q9 21 23.5 43t31.5 40t36.5 30t39.5 12q9 0 25 -5.5t31 -13.5t26 -16.5t11 -15.5q0 -9 -4 -26t-11.5 -40l-17 -52l-20.5 -61l-21.5 -70t-10.5 -51q0 -15 14 -28t31 -13q25 0 60 55.5t92 171.5l35 153h121l-42 -150l-24 -117
q-4 -22 -8.5 -44l-8.5 -40l-6.5 -30t-3.5 -15l27 -10l71 51l18 -20q-11 -19 -27 -37t-34 -31.5t-37.5 -21.5t-39.5 -8q-9 0 -24.5 4t-29.5 10t-24.5 13.5t-10.5 14.5q0 12 7.5 44t17.5 67l19 66.5t13 43.5h-11q-36 -77 -67 -134.5t-57 -83.5q-21 -21 -45.5 -32.5
t-50.5 -11.5q-39 0 -63.5 25t-24.5 59t14 83t31 102l13 40l13 40l10.5 33.5l6.5 20.5l-29 6l-64 -72l-21 22v0z" />
    <glyph glyph-name="ucircumflex" unicode="&#xfb;" horiz-adv-x="550" 
d="M25 344q9 21 23.5 43t31.5 40t36.5 30t39.5 12q9 0 25 -5.5t31 -13.5t26 -16.5t11 -15.5q0 -9 -4 -26t-11.5 -40l-17 -52l-20.5 -61l-21.5 -70t-10.5 -51q0 -15 14 -28t31 -13q25 0 60 55.5t92 171.5l35 153h121l-42 -150l-24 -117q-4 -22 -8.5 -44l-8.5 -40l-6.5 -30
t-3.5 -15l27 -10l71 51l18 -20q-11 -19 -27 -37t-34 -31.5t-37.5 -21.5t-39.5 -8q-9 0 -24.5 4t-29.5 10t-24.5 13.5t-10.5 14.5q0 12 7.5 44t17.5 67l19 66.5t13 43.5h-11q-36 -77 -67 -134.5t-57 -83.5q-21 -21 -45.5 -32.5t-50.5 -11.5q-39 0 -63.5 25t-24.5 59t14 83
t31 102l13 40l13 40l10.5 33.5l6.5 20.5l-29 6l-64 -72l-21 22v0zM420 515l-86 120h-2l-118 -120h-46l114 182h118l66 -182h-46z" />
    <glyph glyph-name="udieresis" unicode="&#xfc;" horiz-adv-x="550" 
d="M25 344q9 21 23.5 43t31.5 40t36.5 30t39.5 12q9 0 25 -5.5t31 -13.5t26 -16.5t11 -15.5q0 -9 -4 -26t-11.5 -40l-17 -52l-20.5 -61l-21.5 -70t-10.5 -51q0 -15 14 -28t31 -13q25 0 60 55.5t92 171.5l35 153h121l-42 -150l-24 -117q-4 -22 -8.5 -44l-8.5 -40l-6.5 -30
t-3.5 -15l27 -10l71 51l18 -20q-11 -19 -27 -37t-34 -31.5t-37.5 -21.5t-39.5 -8q-9 0 -24.5 4t-29.5 10t-24.5 13.5t-10.5 14.5q0 12 7.5 44t17.5 67l19 66.5t13 43.5h-11q-36 -77 -67 -134.5t-57 -83.5q-21 -21 -45.5 -32.5t-50.5 -11.5q-39 0 -63.5 25t-24.5 59t14 83
t31 102l13 40l13 40l10.5 33.5l6.5 20.5l-29 6l-64 -72l-21 22v0zM505 606q0 -28 -17 -48.5t-48 -20.5t-48 20.5t-17 48.5t17 49t48 21t48 -21t17 -49zM291 606q0 -28 -17 -48.5t-48 -20.5t-48.5 20.5t-17.5 48.5t17.5 49t48.5 21t48 -21t17 -49z" />
    <glyph glyph-name="dagger" unicode="&#x2020;" horiz-adv-x="470" 
d="M465 388h-180v-543h-45v543h-179l-4 46h183v192h45v-192h184z" />
    <glyph glyph-name="degree" unicode="&#xb0;" horiz-adv-x="410" 
d="M410 501q0 -39 -14.5 -73t-39 -59.5t-58 -40t-72.5 -14.5q-32 0 -60.5 10.5t-49.5 30t-33.5 47t-12.5 61.5q0 38 14.5 71.5t39 59t58 40t70.5 14.5q33 0 61.5 -10t50 -29t34 -46.5t12.5 -61.5zM360 491q0 50 -31.5 81t-81.5 31q-28 0 -51.5 -11t-40.5 -30.5t-27 -44.5
t-10 -52q0 -25 8.5 -45t23.5 -34.5t35.5 -22.5t43.5 -8q28 0 51.5 11t41 29.5t28 43t10.5 52.5z" />
    <glyph glyph-name="cent" unicode="&#xa2;" horiz-adv-x="410" 
d="M169 -165h-46l38 151q-30 3 -55 17t-42 36.5t-26.5 52.5t-9.5 64q0 55 18.5 110t52 100t80.5 73.5t104 29.5h2l43 167h47l-45 -174q37 -11 59.5 -35t22.5 -55q0 -32 -19 -50t-44 -18q-18 0 -31.5 8t-20.5 19l-69 -270q18 3 51.5 22l70.5 42l17 -21q-33 -42 -71.5 -73.5
t-87.5 -40.5zM271 401q-9 4 -20.5 6t-22.5 2q-7 0 -19 -10q-12 -12 -24 -37.5t-21.5 -58t-16 -69t-6.5 -70.5q0 -76 43 -98z" />
    <glyph glyph-name="sterling" unicode="&#xa3;" horiz-adv-x="527" 
d="M151 302l4 53t5 47q7 49 26.5 90.5t50.5 72t72.5 47.5t90.5 17q62 0 96.5 -24t34.5 -62q0 -28 -16 -46t-46 -18q-16 0 -28.5 7.5t-20 20.5t-9 29.5t4.5 35.5q-6 5 -17.5 10.5t-26.5 5.5t-28.5 -6.5t-25.5 -23.5t-21 -45.5t-15 -73.5q-5 -36 -8 -70.5t-7 -66.5h143l3 -46
h-153l-4 -23l-4 -22q-15 -66 -45 -105v-5l34 -9.5t38.5 -10.5t39 -8.5t35.5 -3.5q46 0 68 22q11 12 20.5 28t19.5 37l25 -9q0 -78 -35 -124.5t-106 -46.5q-33 0 -59 10.5t-46 25.5t-35.5 31t-27.5 26q-32 -36 -78 -60.5t-99 -32.5l-7 47q39 8 65 22t43 34.5t26.5 48
t13.5 63.5q2 14 3 30.5l2 34.5h-110l3 46h111v0z" />
    <glyph glyph-name="section" unicode="&#xa7;" horiz-adv-x="457" 
d="M437 281q0 -46 -28.5 -81.5t-68.5 -54.5q25 -28 25 -63q0 -26 -13.5 -52t-37.5 -46.5t-58.5 -33.5t-76.5 -13q-28 0 -53 5.5t-44 16t-30 26t-11 35.5q0 27 18.5 44.5t42.5 17.5q16 0 30 -7t24.5 -19t16 -28.5t5.5 -36.5q11 -6 22 -8t21 -2q28 0 44.5 18t16.5 44
q0 15 -9.5 28.5t-25.5 26.5t-36 26.5l-41 26.5l-47 30.5t-42 33t-30.5 38t-11.5 45.5q2 47 30.5 82t68.5 54q-24 29 -24 63q0 28 13 53t37 44.5t57 31t72 11.5q27 0 51 -5.5t42 -16t28.5 -25.5t10.5 -34q0 -27 -18.5 -45.5t-42.5 -18.5q-31 0 -49 26t-17 65q-7 4 -19 7
t-20 3q-18 0 -30 -5t-19 -13.5t-10 -18.5t-3 -19q0 -16 9.5 -30t25 -27t35.5 -25.5l41 -26.5l46 -31t41.5 -33.5t30 -38t11.5 -44.5zM359 227q0 32 -25.5 55.5t-58.5 45.5l-61.5 40.5t-55.5 44.5q-17 -9 -28 -25t-11 -36q0 -32 26.5 -55t62.5 -46l60 -40t54 -44
q20 11 28.5 25.5t8.5 34.5z" />
    <glyph glyph-name="bullet" unicode="&#x2022;" horiz-adv-x="455" 
d="M420 232q0 -11 -6 -30.5t-14.5 -40.5t-18 -39.5t-17.5 -26.5q-7 -7 -25.5 -17t-39.5 -18.5t-41 -14.5t-31 -6q-10 0 -30 6t-41 14.5t-39 18.5t-25 17q-7 8 -17 26.5t-19 39.5t-15 40.5t-6 30.5t6 30.5t15 40.5t19 39.5t17 25.5q8 8 26 17.5t39 18t41 14.5t30 6
q11 0 30.5 -6t40.5 -14.5t39.5 -18t25.5 -17.5q8 -7 17.5 -25.5t18 -39.5t14.5 -40.5t6 -30.5z" />
    <glyph glyph-name="paragraph" unicode="&#xb6;" horiz-adv-x="489" 
d="M322 -32l38 280l-30 -3.5t-32 -1.5q-53 0 -97 13t-75.5 37t-48.5 57t-17 73q0 55 19.5 93.5t55 62.5t86 35t111.5 11h140l-86 -657h-64z" />
    <glyph glyph-name="germandbls" unicode="&#xdf;" horiz-adv-x="615" 
d="M563 124q-1 -34 -18.5 -60t-44 -43.5t-59.5 -26.5t-66 -9q-27 0 -52.5 4.5t-45.5 14.5t-32.5 27t-12.5 42q0 29 16 45.5t45 16.5q23 0 37 -15.5t14 -38.5q0 -5 -1.5 -12t-4.5 -12q18 -9 45.5 -16t55.5 -9q10 8 20 27.5t11 33.5q0 11 -6.5 22.5t-18 23.5t-25.5 25l-29 27
l-38.5 36t-32 34.5t-21 35t-6.5 37.5q2 35 17.5 60.5t40.5 42t55.5 24.5t61.5 8q27 0 53 -4t46.5 -13.5t32.5 -26t12 -41.5q0 -29 -16 -45.5t-43 -16.5q-25 0 -39 16t-14 38q0 5 1.5 11.5t4.5 11.5q-14 8 -40.5 15.5t-47.5 9.5q-12 -10 -21.5 -27.5t-10.5 -29.5t6.5 -24.5
t19 -25t26 -26l27.5 -26.5l38.5 -36.5t32 -34.5t21 -34t6.5 -36zM475 603q0 -26 -17 -46t-44 -20q-32 0 -51.5 28.5t-24.5 67.5l-63 -11q-12 -33 -21.5 -79.5l-18.5 -94.5l-70 -355q-20 -98 -48 -174t-64 -113q-26 -27 -58.5 -39.5t-66.5 -12.5q-41 0 -70 22.5t-29 57.5
q0 27 16.5 44t41.5 17q32 0 51 -24.5t23 -57.5l53 16q5 12 9.5 30t9.5 40.5t10 47.5t9 50l59 387l-85 7l3 34l96 31q10 48 29.5 93t51.5 77t69.5 49.5t88.5 17.5q50 0 80.5 -26t30.5 -64z" />
    <glyph glyph-name="registered" unicode="&#xae;" horiz-adv-x="768" 
d="M733 313q0 -73 -27 -136.5t-74.5 -110.5t-111 -74.5t-136.5 -27.5q-72 0 -136 27.5t-111 74.5t-74.5 110.5t-27.5 136.5q0 72 27.5 136t74.5 111.5t111 75t136 27.5q73 0 136.5 -27.5t111 -75t74.5 -111.5t27 -136zM692 313q0 64 -24 120.5t-66 99t-98 67.5t-120 25
t-120 -25t-98 -67.5t-66 -99t-24 -120.5t24 -120.5t66 -99t98 -67t120 -24.5t120 24.5t98 67t66 99t24 120.5zM462 129l-22 41l-69 115l-31 2v-104q0 -10 14 -14l27 -6l2 -34h-167l3 34l28 6q14 4 14 14v261q0 11 -14 14l-28 7l-3 34h178q74 0 107.5 -28.5t33.5 -65.5
q0 -78 -89 -103l75 -113q9 -12 16 -15.5t13 -5.5l21 -5l3 -34h-112zM452 391q0 38 -24 56.5t-64 17.5l-24 -1v-142l35 -4q35 2 56 18.5t21 54.5z" />
    <glyph glyph-name="copyright" unicode="&#xa9;" horiz-adv-x="768" 
d="M733 311q0 -72 -27.5 -136t-74.5 -111t-111 -74.5t-136 -27.5t-136 27.5t-111 74.5t-74.5 111t-27.5 136q0 73 27.5 137t74.5 111.5t111 75t136 27.5t136 -27.5t111 -75t74.5 -111.5t27.5 -137zM692 311q0 64 -24 121t-66 99.5t-98 67.5t-120 25t-120 -25t-98 -67.5
t-66 -99.5t-24 -121t24 -120.5t66 -99t98 -67t120 -24.5t120 24.5t98 67t66 99t24 120.5zM525 127l-38 8q-19 -8 -45 -13t-48 -5q-52 0 -90 15.5t-62.5 42t-36.5 61.5t-12 74q0 43 15.5 78.5t42.5 61.5t63.5 40.5t78.5 14.5q29 0 51 -5t36 -10l52 14v-138h-42l-27 85
q-25 19 -74 19q-50 0 -82 -37.5t-32 -110.5q0 -35 8.5 -66t24.5 -54.5t39.5 -37t54.5 -13.5q35 0 55 14l35 89h45z" />
    <glyph glyph-name="trademark" unicode="&#x2122;" horiz-adv-x="937" 
d="M762 253l1 30l33 7q8 2 10.5 12.5t1.5 46.5l-5 232h-10l-97 -316h-68l-75 319h-10l-6 -195q-1 -33 -1.5 -52.5t1 -29.5t4 -13.5t7.5 -5.5l32 -5l2 -30h-139l2 30l30 5q6 1 9.5 4t6.5 13t4.5 30t2.5 54l6 185q0 5 -2 9t-10 6l-35 6l-2 30h170l55 -272h10l78 272h168
l-2 -30l-33 -6q-8 -2 -11 -6t-3 -9l4 -225q0 -19 1.5 -30t4 -17.5t6.5 -8.5t8 -3l30 -7l2 -30h-181zM406 480h-41l-5 19q-7 28 -13.5 46t-16 28.5t-23.5 15t-38 4.5h-1v-290q0 -4 2.5 -8t9.5 -6l39 -6l2 -30h-188l2 30l39 6q8 2 10.5 6t2.5 8v290h-1q-20 0 -33.5 -5
t-23.5 -16t-17 -29t-15 -44l-6 -19h-38l8 145h345v-145z" />
    <glyph glyph-name="acute" unicode="&#xb4;" horiz-adv-x="399" 
d="M208 515h-45l119 182h127z" />
    <glyph glyph-name="dieresis" unicode="&#xa8;" 
d="M420 606q0 -28 -17 -48.5t-48 -20.5t-48 20.5t-17 48.5t17 49t48 21t48 -21t17 -49zM206 606q0 -28 -17 -48.5t-48 -20.5t-48.5 20.5t-17.5 48.5t17.5 49t48.5 21t48 -21t17 -49z" />
    <glyph glyph-name="AE" unicode="&#xc6;" horiz-adv-x="875" 
d="M789 0h-523l6 39l51 11q23 5 26 24l20 148h-189l-31 -50q-20 -29 -31 -54t-11 -39t8.5 -21t21.5 -9l35 -8l3 -41h-236l3 41l28 9q15 5 27 11.5t25.5 20t30 36.5t40.5 60l219 345q14 23 8.5 36t-25.5 17l-47 10l-1 39h627l-27 -206h-69l-11 83q-3 27 -11 42.5t-28 23.5
t-56 10t-95 2h-31l-34 -242h11q42 0 63 5.5t32 26.5l34 68h51l-55 -242h-51l1 64q0 9 -3 15.5t-12 10.5t-26 5.5t-44 1.5h-7l-33 -248h35q61 0 98.5 2.5t61 10.5t36.5 23.5t25 41.5l34 74h72zM417 583h-7l-201 -315h166z" />
    <glyph glyph-name="Oslash" unicode="&#xd8;" horiz-adv-x="715" 
d="M255 68q19 -16 41.5 -26t54.5 -10q37 0 66.5 17.5t51.5 46.5t38 66t25.5 75.5t14.5 75t5 65.5q0 38 -8 75.5t-26 66.5zM492 555q-34 37 -96 37q-37 0 -66.5 -18t-52 -47t-38 -66t-25.5 -75.5t-14.5 -75.5t-4.5 -66q0 -38 7.5 -75.5t26.5 -66.5zM186 28
q-61 38 -96.5 101.5t-34.5 145.5q0 73 24 137.5t70 114.5q47 51 110 81t140 30q68 0 126 -25l44 75h47l-27 -47q-11 -17 -19.5 -31.5t-8.5 -15.5q61 -37 96.5 -100.5t34.5 -145.5q0 -78 -29.5 -146.5t-81.5 -121.5q-45 -46 -104 -70.5t-129 -24.5q-35 0 -66.5 6t-59.5 19
l-49 -84h-46l59 102v0z" />
    <glyph glyph-name="yen" unicode="&#xa5;" horiz-adv-x="612" 
d="M651 585l-19 -6q-13 -4 -25 -9t-25 -15.5t-28.5 -28.5t-36.5 -47l-123 -174h148l4 -46h-173l-10 -79h179l4 -46h-187l-8 -60q-3 -20 20 -24l63 -11l3 -39h-304l3 39l65 11q23 4 26 24l8 60h-160l2 46h166l10 79h-179l3 46h162l-116 239q-13 24 -39 31l-34 10l-3 40h278
l-3 -40l-35 -6q-21 -4 -22 -29t22 -76l61 -150h6l105 154q36 52 39 74t-27 28l-22 5l-3 40h208z" />
    <glyph glyph-name="mu" unicode="&#xb5;" horiz-adv-x="466" 
d="M360 390l-1 -10q28 -22 39.5 -47t11.5 -52q0 -36 -16 -65t-42.5 -50t-60.5 -32t-70 -11q-17 0 -35 2.5t-35 7.5q-15 -4 -25 -16.5t-10 -24.5q0 -19 23 -30t59 -23l46 -13q70 -21 112.5 -51t42.5 -86q0 -28 -17.5 -55t-51 -48.5t-84 -34.5t-116.5 -13q-44 0 -80.5 8
t-63 23t-41 37t-14.5 50q0 23 12 41.5t31.5 33.5t44.5 25.5t50 17.5v8q-18 11 -30.5 27t-12.5 39q0 34 24.5 58t66.5 37v8q-32 20 -51.5 53.5t-19.5 71.5q0 42 17 77.5t46 61t67.5 40t81.5 14.5q17 0 34 -2t33 -5t29.5 -6.5t22.5 -6.5l126 2l-25 -90zM312 356q0 11 -7 21.5
t-17.5 18.5t-23.5 13t-26 5q-12 0 -19.5 -3t-12.5 -8q-13 -13 -23 -33t-17 -42.5t-10.5 -46t-3.5 -42.5q1 -21 7.5 -38.5t14.5 -25.5q5 -5 13.5 -9t17.5 -4q31 0 55 26q14 14 24 35t16 44t9 46.5t3 42.5zM309 -149q0 24 -26 41t-83 36l-51.5 16.5t-49.5 19.5
q-33 -16 -53 -38.5t-20 -50.5q0 -38 42 -63t114 -25q55 0 91 18.5t36 45.5z" />
    <glyph glyph-name="plusminus" unicode="&#xb1;" horiz-adv-x="768" 
d="M733 311q0 -72 -27.5 -135.5t-74.5 -111t-111 -74.5t-136 -27t-136 27t-111 74.5t-74.5 111t-27.5 135.5q0 73 27.5 137t74.5 111.5t111 75t136 27.5t136 -27.5t111 -75t74.5 -111.5t27.5 -137zM692 311q0 64 -24 121t-66 99.5t-98 67.5t-120 25t-120 -25t-98 -67.5
t-66 -99.5t-24 -121t24 -120.5t66 -99t98 -67t120 -24.5t120 24.5t98 67t66 99t24 120.5zM554 393q0 -28 -11.5 -51.5t-31.5 -40.5t-47 -26t-57 -9q-23 0 -43 3v-88q0 -10 14 -13l36 -7l2 -34h-175l2 34l29 7q13 3 13 13v262q0 10 -13 13l-29 8l-2 33h162q77 0 114 -28
t37 -76zM474 385q0 37 -23.5 57.5t-58.5 20.5h-28v-160q10 -2 17.5 -3t21.5 -1q32 0 51.5 22.5t19.5 63.5z" />
    <glyph glyph-name="ordfeminine" unicode="&#xaa;" horiz-adv-x="385" 
d="M308 582l15 56l73 -4l-38 -148l-31 -141l20 -5l58 52l11 -15q-9 -15 -22.5 -31.5t-28.5 -30t-30.5 -22t-29.5 -8.5q-7 0 -16.5 5t-18 12t-14.5 15t-6 13q0 14 15 50.5t33 93.5h-7l-46 -80t-39.5 -59.5t-36.5 -37t-37 -12.5q-33 0 -54 26t-21 75q0 26 6 54t16.5 55t26 51
t33.5 42q25 26 52 38t53 12q29 0 40.5 -17t17.5 -39h6zM293 534q-18 19 -40.5 36t-42.5 17q-13 0 -24 -11q-8 -8 -16.5 -25.5t-15 -40.5t-11 -48.5t-4.5 -49.5q0 -29 11 -43.5t28 -14.5q7 0 17.5 10.5t23.5 28.5t28 41.5l31 49.5l15 50v0z" />
    <glyph glyph-name="ordmasculine" unicode="&#xba;" horiz-adv-x="351" 
d="M367 490q0 -38 -13 -75t-36.5 -66t-55.5 -46.5t-71 -17.5q-63 0 -96.5 41t-33.5 107q0 39 13 75.5t36.5 65.5t56 46.5t71.5 17.5q63 0 96 -41t33 -107zM287 525q0 32 -12 54.5t-37 22.5q-16 0 -30 -12.5t-25.5 -31.5t-19.5 -42t-12 -43q-9 -37 -9 -71q0 -33 12 -56.5
t36 -23.5q17 0 31.5 12.5t25.5 32t19 42.5t12 44q9 38 9 72z" />
    <glyph glyph-name="ae" unicode="&#xe6;" horiz-adv-x="691" 
d="M371 354q40 55 85 85t105 30t91.5 -29t31.5 -71q0 -26 -16 -46.5t-49.5 -42t-85.5 -47.5l-123 -63v-13q0 -43 24.5 -70.5t62.5 -27.5q17 0 49.5 17.5t78.5 48.5l16 -21q-18 -24 -38.5 -45.5t-43.5 -38t-49.5 -26t-56.5 -9.5q-37 0 -65.5 12.5t-48.5 34.5t-31 52t-12 64v7
q-21 -35 -42 -66t-41.5 -54t-41 -36.5t-40.5 -13.5q-49 0 -79 39.5t-30 105.5q0 38 8.5 75t24 72t36.5 66t46 56q31 31 67.5 50t71.5 19q42 0 64.5 -33t30.5 -81zM412 205q47 26 80 46.5t53.5 38.5t30 35.5t9.5 38.5q0 10 -8.5 18.5t-20 15t-24 10t-21.5 3.5q-12 0 -18.5 -3
t-11.5 -8q-9 -9 -20 -28t-21 -45t-18.5 -57t-13.5 -65h4v0zM351 316q-9 19 -23 35.5t-29.5 28.5t-31 19t-28.5 7q-11 0 -18 -4t-15 -12q-15 -15 -28.5 -41t-23 -57.5t-15.5 -65.5t-6 -64q0 -38 12.5 -62t31.5 -24q18 0 36.5 19t37.5 48t38.5 64l38.5 68q2 3 5 9l6.5 12.5
t7 12t4.5 7.5z" />
    <glyph glyph-name="oslash" unicode="&#xf8;" horiz-adv-x="481" 
d="M249 206l-32 -55.5l-28 -49t-20 -34.5l-8 -13q19 -24 46 -24q23 0 43 17.5t36 44.5t27 59t17 60q6 26 9 52.5t3 49.5q0 22 -5 45zM319 401q-9 11 -20.5 17t-25.5 6q-22 0 -42 -17.5t-35.5 -43.5t-27.5 -57.5t-18 -59.5q-6 -26 -9 -52t-3 -49q0 -22 5 -47zM99 20
q-33 27 -50.5 70.5t-17.5 97.5q0 53 18.5 103.5t51 90t77 63.5t95.5 24q41 0 76 -16l83 145h44l-95 -164q34 -26 51 -69.5t17 -99.5q0 -52 -18 -102.5t-50.5 -90t-76.5 -63.5t-96 -24q-45 0 -77 16l-75 -130h-43l43 75l16 27.5l14 24l9.5 16.5z" />
    <glyph glyph-name="questiondown" unicode="&#xbf;" horiz-adv-x="388" 
d="M12 166q0 38 12.5 63.5t32.5 42.5t44.5 27.5t48.5 17.5q36 11 62.5 22.5t26.5 37.5q0 17 -9 33t-24 30l49 -1q10 -7 20.5 -17.5t18.5 -23.5t13.5 -28t5.5 -30q0 -29 -13 -49.5t-33.5 -34.5t-46 -23t-50.5 -16l-34.5 -10t-29 -10.5t-20 -12.5t-7.5 -16q0 -14 11.5 -27.5
t31 -23.5t46 -16t56.5 -6q18 0 34.5 2t29.5 4q15 -16 15 -39q0 -32 -25 -53t-74 -21q-39 0 -73.5 14t-61 38t-42 56.5t-15.5 69.5zM204 572q0 29 19.5 49.5t49.5 20.5q29 0 49.5 -20.5t20.5 -49.5q0 -28 -20.5 -48.5t-49.5 -20.5q-30 0 -49.5 20.5t-19.5 48.5z" />
    <glyph glyph-name="exclamdown" unicode="&#xa1;" horiz-adv-x="294" 
d="M119 569q0 29 20 49.5t50 20.5q29 0 49.5 -20.5t20.5 -49.5q0 -28 -20.5 -48.5t-49.5 -20.5q-30 0 -50 20.5t-20 48.5zM157 422q1 3 5 4.5t8.5 1.5t8 -2t3.5 -6l-4 -386q-1 -23 -17 -36.5t-45 -13.5h-4q-37 0 -55 16t-10 42z" />
    <glyph glyph-name="logicalnot" unicode="&#xac;" horiz-adv-x="528" 
d="M376 391l27 77h103l-60 -181l-53 -224l27 -9l74 51l17 -21q-11 -19 -27 -37t-34.5 -32t-38.5 -22.5t-40 -8.5q-9 0 -24.5 4t-30 10t-25 13t-10.5 14q0 8 6 27l14.5 44l18 52.5l17.5 51.5h-10l-52.5 -88t-46 -68t-45 -43.5t-48.5 -15.5q-48 0 -80.5 34.5t-32.5 100.5
q0 38 9.5 76.5t25.5 75.5t38 69.5t47 57.5q31 31 67.5 50t71.5 19q38 0 58.5 -23t28.5 -54h8zM354 329q-9 15 -22 28.5t-28 24.5t-30.5 17.5t-28.5 6.5q-11 0 -18 -4t-15 -12q-15 -15 -29 -43t-25.5 -61t-18 -68.5t-6.5 -65.5q0 -38 14 -58.5t37 -20.5q14 0 28.5 11t31.5 33
t38 55.5l49 77.5l23 79v0z" />
    <glyph glyph-name="florin" unicode="&#x192;" horiz-adv-x="540" 
d="M565 549q0 -28 -17 -49t-45 -21q-33 0 -52.5 24t-21.5 64l-47 -9q-5 -11 -10.5 -31.5t-10.5 -44.5l-10 -48.5t-10 -45.5h127l4 -57h-139q-19 -98 -44.5 -172.5t-72.5 -122.5q-27 -26 -63 -39t-70 -13q-41 0 -70 22.5t-29 57.5q0 27 16.5 44t41.5 17q32 0 51.5 -22
t22.5 -55l55 16q9 23 20 68t18 95l13 97l-87 7l3 34l95 31q16 63 38.5 106.5t45.5 67.5q15 16 34.5 28.5t39.5 20.5t39 12.5t35 4.5q44 0 72 -24.5t28 -62.5z" />
    <glyph glyph-name="guillemotleft" unicode="&#xab;" horiz-adv-x="500" 
d="M437 41l-213 154v56l259 158l9 -21l-182 -167l141 -159zM228 51l-210 144v56l253 148l8 -21l-163 -157l126 -149z" />
    <glyph glyph-name="guillemotright" unicode="&#xbb;" horiz-adv-x="500" 
d="M215 47l-9 21l164 157l-126 149l15 21l208 -144v-56zM3 37l-9 21l181 167l-140 159l13 21l214 -154v-56z" />
    <glyph glyph-name="ellipsis" unicode="&#x2026;" horiz-adv-x="696" 
d="M637 62q0 -31 -22 -54.5t-55 -23.5t-55.5 23t-22.5 55t22.5 54.5t55.5 22.5t55 -22.5t22 -54.5zM405 62q0 -31 -22 -54.5t-55 -23.5t-55.5 23t-22.5 55t22.5 54.5t55.5 22.5t55 -22.5t22 -54.5zM173 62q0 -31 -22 -54.5t-55 -23.5t-55.5 23t-22.5 55t22.5 54.5t55.5 22.5
t55 -22.5t22 -54.5z" />
    <glyph glyph-name="Agrave" unicode="&#xc0;" horiz-adv-x="620" 
d="M304 0l3 41l39 6q27 4 30.5 20t-4.5 57l-14 84h-188l-17 -46q-21 -50 -18 -79t29 -34l36 -8l3 -41h-237l3 41l28 9q15 4 26 9.5t22.5 19t25 39t34.5 70.5l174 384v38l133 30l108 -549q4 -17 11 -26.5t27 -14.5l38 -9l3 -41h-295zM309 514h-8l-111 -257h160zM355 682
l-151 182h127l70 -182h-46z" />
    <glyph glyph-name="Atilde" unicode="&#xc3;" horiz-adv-x="620" 
d="M304 0l3 41l39 6q27 4 30.5 20t-4.5 57l-14 84h-188l-17 -46q-21 -50 -18 -79t29 -34l36 -8l3 -41h-237l3 41l28 9q15 4 26 9.5t22.5 19t25 39t34.5 70.5l174 384v38l133 30l108 -549q4 -17 11 -26.5t27 -14.5l38 -9l3 -41h-295zM309 514h-8l-111 -257h160zM544 825
q-17 -72 -47 -103.5t-74 -31.5q-22 0 -42.5 11t-39 24.5l-34.5 24.5t-30 11q-17 0 -27 -15t-26 -47h-43q17 72 46.5 103.5t73.5 31.5q23 0 42.5 -11t37.5 -24l34 -24t30 -11q16 0 28 14.5t29 46.5h42v0z" />
    <glyph glyph-name="Otilde" unicode="&#xd5;" horiz-adv-x="715" 
d="M686 348q0 -78 -29.5 -146.5t-81.5 -121.5q-45 -46 -104 -70.5t-129 -24.5q-64 0 -118 21.5t-93 60t-61 91.5t-22 117q0 73 24.5 137.5t70.5 114.5q47 51 110 81t140 30q64 0 118 -21.5t93 -60t60.5 -91.5t21.5 -117zM543 378q0 47 -11 94t-41 79q-19 17 -43 27.5
t-58 10.5q-37 0 -66.5 -17.5t-51.5 -46.5t-37 -66t-25 -75t-14.5 -74.5t-4.5 -65.5q0 -48 11 -94t42 -76q18 -18 42 -28.5t58 -10.5q37 0 66.5 17.5t51.5 46t37.5 65t25 75t14 75t4.5 64.5zM596 825q-17 -72 -47 -103.5t-74 -31.5q-22 0 -42.5 11t-39 24.5l-34.5 24.5
t-30 11q-17 0 -27 -15t-26 -47h-43q17 72 46.5 103.5t73.5 31.5q23 0 42.5 -11t37.5 -24l34 -24t30 -11q16 0 28 14.5t29 46.5h42v0z" />
    <glyph glyph-name="OE" unicode="&#x152;" horiz-adv-x="968" 
d="M882 0h-518q-76 0 -135 20t-99 56.5t-61 87.5t-21 112q0 72 24.5 131t78.5 112q47 47 124 76.5t173 29.5h519l-32 -206h-64l-11 83q-3 27 -11 42.5t-28 23.5t-56 10t-95 2h-39l-34 -242h19q42 0 65.5 7t35.5 29l28 64h51l-55 -242h-51l1 64q0 9 -3 15.5t-12 10.5t-26 5.5
t-44 1.5h-15l-33 -248h43q61 0 98.5 2.5t61 10.5t36.5 23.5t25 41.5l34 74h72zM428 580q-49 -2 -92.5 -23t-75 -59.5t-50 -94.5t-18.5 -128q0 -106 48 -167.5t145 -61.5h40l71 519z" />
    <glyph glyph-name="oe" unicode="&#x153;" horiz-adv-x="716" 
d="M709 369q0 -26 -16 -46.5t-49.5 -42t-85.5 -47.5l-123 -63v-13q0 -43 25 -70.5t63 -27.5q17 0 49.5 17.5t77.5 48.5l16 -21q-18 -24 -38 -45.5t-43.5 -38t-50 -26t-56.5 -9.5q-48 0 -77 20t-44 53q-29 -33 -66 -53t-83 -20q-43 0 -76 15t-55.5 42t-34 64t-11.5 82
q0 53 18 103t50 90t76.5 64t97.5 24q55 0 90 -24.5t52 -66.5q31 41 74 66t97 25q60 0 91.5 -29t31.5 -71zM437 205q47 26 80 46.5t54 38.5t30.5 35.5t9.5 38.5q0 10 -8.5 18.5t-20.5 15t-24.5 10t-20.5 3.5q-13 0 -19.5 -3t-11.5 -8q-9 -9 -19.5 -28t-21 -45t-18.5 -57
t-13 -65h3v0zM340 313q0 45 -16.5 76.5t-50.5 31.5q-22 0 -41.5 -17t-35 -43t-26.5 -57t-17 -58q-6 -26 -9.5 -52t-3.5 -49q0 -22 4.5 -42.5t12.5 -36t21 -25t29 -9.5q23 0 42.5 17.5t35 44.5t26.5 58.5t17 59.5q5 26 8.5 52t3.5 49z" />
    <glyph glyph-name="endash" unicode="&#x2013;" horiz-adv-x="470" 
d="M31 290l3 60h406l3 -60h-412z" />
    <glyph glyph-name="emdash" unicode="&#x2014;" horiz-adv-x="940" 
d="M31 215l3 60h876l3 -60h-882z" />
    <glyph glyph-name="quotedblleft" unicode="&#x201c;" horiz-adv-x="458" 
d="M445 412q0 -24 -22.5 -43.5t-53.5 -19.5q-21 0 -38.5 8t-30 21.5t-19.5 32t-7 38.5q0 32 15.5 61.5t41.5 56t60 49.5t71 42l25 -24q-22 -13 -42 -28.5t-35 -32.5t-24 -35.5t-9 -37.5q0 -21 10.5 -37t23.5 -27t23.5 -17t10.5 -7zM223 412q0 -24 -23 -43.5t-54 -19.5
q-42 0 -68.5 29.5t-26.5 70.5q0 32 15.5 61.5t42 56t60.5 49.5t71 42l24 -24q-22 -13 -42 -28.5t-35 -32.5t-24 -35.5t-9 -37.5q0 -21 11 -37t23.5 -27t23.5 -17t11 -7z" />
    <glyph glyph-name="quotedblright" unicode="&#x201d;" horiz-adv-x="458" 
d="M482 559q0 -32 -15.5 -61.5t-41.5 -56t-60 -49.5t-71 -42l-24 24q22 12 42 27.5t35 33t24 36t9 36.5q0 21 -11 37.5t-23.5 27.5t-23.5 16.5t-11 6.5q0 25 23 44.5t54 19.5q21 0 38 -8t29.5 -22t19.5 -32t7 -38zM260 559q0 -32 -15.5 -61.5t-42 -56t-60.5 -49.5t-71 -42
l-24 24q22 12 42 27.5t35 33t24 36t9 36.5q0 21 -10.5 37.5t-23.5 27.5t-23.5 16.5t-10.5 6.5q0 25 22.5 44.5t53.5 19.5q21 0 38 -8t30 -22t20 -32t7 -38z" />
    <glyph glyph-name="quoteleft" unicode="&#x2018;" horiz-adv-x="242" 
d="M222 412q-3 -25 -25 -44t-54 -19q-21 0 -38 8t-29 21t-18.5 30.5t-6.5 35.5q0 32 16.5 63t45 59.5t67 53.5t83.5 44l20 -24q-23 -13 -45 -29.5t-39 -35t-27.5 -38.5t-10.5 -40t9.5 -35.5t21 -26t21 -16.5t9.5 -7z" />
    <glyph glyph-name="quoteright" unicode="&#x2019;" horiz-adv-x="242" 
d="M256 559q0 -32 -15.5 -61.5t-41.5 -56t-60 -49.5t-71 -42l-25 24q22 12 42 27.5t35.5 33t24.5 36t9 36.5q0 21 -11 37.5t-23.5 27.5t-23.5 16.5t-11 6.5q0 25 23 44.5t54 19.5q21 0 38 -8t29.5 -22t19.5 -32t7 -38z" />
    <glyph glyph-name="ydieresis" unicode="&#xff;" horiz-adv-x="476" 
d="M480 389q0 -22 -11.5 -50.5t-29.5 -59.5t-40.5 -63l-45.5 -62l-91 -123l-56 -112q-42 -85 -87 -127.5t-102 -42.5q-19 0 -37 6t-31.5 16.5t-21.5 26t-8 33.5q0 27 17.5 44t40.5 17q30 0 50.5 -22t19.5 -58l18 -1l126 167l-68 20l-11 390l-29 6l-64 -72l-20 22
q9 21 23.5 43t31.5 40t36.5 30t38.5 12q9 0 25.5 -3.5t32 -9.5t27.5 -13.5t12 -14.5l-7 -379h13l156 270v12q-27 11 -41.5 28.5t-14.5 36.5q0 31 19 52.5t50 21.5q33 0 56 -21.5t23 -59.5zM473 606q0 -28 -17 -48.5t-48 -20.5t-48 20.5t-17 48.5t17 49t48 21t48 -21t17 -49z
M259 606q0 -28 -17 -48.5t-48 -20.5t-48.5 20.5t-17.5 48.5t17.5 49t48.5 21t48 -21t17 -49z" />
    <glyph glyph-name="Ydieresis" unicode="&#x178;" horiz-adv-x="597" 
d="M655 584l-24 -7q-13 -3 -24.5 -8t-25 -16t-29.5 -30t-38 -51l-144 -209l-24 -188q-3 -20 20 -24l59 -11l-1 -40h-307l6 40l64 11q13 2 18.5 8.5t7.5 15.5l24 182l-122 265q-13 25 -24 36t-29 16l-30 10l-3 41h287l-3 -41l-40 -6q-27 -4 -26.5 -27t20.5 -71l71 -174h8
l115 173q32 47 33 69.5t-30 28.5l-36 7l-3 41h233zM548 773q0 -28 -17 -48.5t-48 -20.5t-48 20.5t-17 48.5t17 49t48 21t48 -21t17 -49zM334 773q0 -28 -17 -48.5t-48 -20.5t-48.5 20.5t-17.5 48.5t17.5 49t48.5 21t48 -21t17 -49z" />
    <glyph glyph-name="fraction" unicode="&#x2044;" horiz-adv-x="617" 
d="M65 -14h-65l554 652h65z" />
    <glyph glyph-name="currency" unicode="&#xa4;" horiz-adv-x="519" 
d="M187 216q10 -74 47.5 -115.5t103.5 -41.5q39 0 72 16.5t62 40.5l14 -20q-29 -48 -79.5 -79.5t-110.5 -31.5q-50 0 -89 18t-66.5 49t-44 73.5t-21.5 90.5h-65l3 47h60v6q0 18 2 36t5 35h-54l3 47h62q15 53 42.5 97.5t65 76.5t83.5 50.5t98 18.5q73 0 112 -26t40 -61
q0 -29 -16 -47t-42 -18q-16 0 -28.5 7.5t-20.5 20t-12.5 28.5t-3.5 34q-8 6 -23.5 10.5t-30.5 4.5q-58 0 -100 -53.5t-60 -142.5h202l3 -47h-213q-2 -17 -3 -33t-1 -33v-11h198l3 -47h-197v0z" />
    <glyph glyph-name="guilsinglleft" unicode="&#x2039;" horiz-adv-x="300" 
d="M237 41l-214 154v56l260 158l9 -21l-181 -167l139 -159z" />
    <glyph glyph-name="guilsinglright" unicode="&#x203a;" horiz-adv-x="300" 
d="M25 37l-9 21l165 163l-124 163l13 21l214 -154l-6 -60z" />
    <glyph glyph-name="fi" unicode="&#xfb01;" horiz-adv-x="538" 
d="M160 93q-20 -98 -48.5 -174t-63.5 -113q-26 -26 -58.5 -39t-66.5 -13q-41 0 -70 22.5t-29 57.5q0 27 16.5 44t41.5 17q32 0 51.5 -24.5t22.5 -57.5l52 16q9 23 20 70.5t19 98.5l60 386l-87 7l3 34l96 31q3 20 10 42.5t17 45t24 44t32 39.5q32 32 79.5 51.5t104.5 19.5
q58 0 91 -27t33 -68q0 -26 -18 -46t-45 -20q-16 0 -29 8t-22.5 21.5t-16.5 31t-11 36.5l-93 -13q-17 -39 -27 -82t-18 -91h118q14 10 27.5 15.5t27.5 5.5q9 0 24.5 -7.5t29.5 -17.5t24 -20.5t8 -16.5l-91 -336l18 -9l82 58l17 -22q-11 -19 -27.5 -39.5t-35.5 -36.5
t-39.5 -26.5t-40.5 -10.5q-9 0 -24 7.5t-28.5 17.5t-22.5 20.5t-8 15.5l90 339l-8 6h-153z" />
    <glyph glyph-name="fl" unicode="&#xfb02;" horiz-adv-x="544" 
d="M218 391l-58 -298q-20 -98 -48.5 -174t-63.5 -113q-26 -26 -58.5 -39t-66.5 -13q-41 0 -70 22.5t-29 57.5q0 27 16.5 44t41.5 17q32 0 51.5 -24.5t22.5 -57.5l54 16q10 23 21 70.5t18 98.5l56 386l-85 7l3 34l96 31q3 20 10 42.5t17 45t24 44t32 39.5q32 32 79.5 51.5
t104.5 19.5q25 0 45 -5.5t35 -14.5l77 19l-135 -626l19 -9l81 58l18 -22q-12 -19 -28.5 -39.5t-35.5 -36.5t-39 -26.5t-40 -10.5q-9 0 -23.5 7.5t-28 17.5t-22.5 20.5t-8 15.5l71 345h-154zM406 551q-14 12 -23.5 35.5t-14.5 47.5l-93 -13q-17 -39 -27 -82t-18 -91h154
l22 103v0z" />
    <glyph glyph-name="daggerdbl" unicode="&#x2021;" horiz-adv-x="470" 
d="M286 20v-175h-44v175h-183l4 45h179v338h-179l-4 45h183v178h44v-178h184l-4 -45h-180v-338h180l4 -45h-184z" />
    <glyph glyph-name="periodcentered" unicode="&#xb7;" horiz-adv-x="232" 
d="M185 238q0 -31 -22 -54.5t-55 -23.5t-55.5 23t-22.5 55t22.5 54.5t55.5 22.5t55 -22.5t22 -54.5z" />
    <glyph glyph-name="quotesinglbase" unicode="&#x201a;" horiz-adv-x="242" 
d="M175 38q0 -32 -15.5 -61.5t-41.5 -56t-60 -49.5t-71 -42l-25 24q22 12 42 27.5t35.5 33t24.5 36t9 36.5q0 21 -11 37.5t-23.5 27.5t-23.5 16.5t-11 6.5q0 25 23 44.5t54 19.5q21 0 38 -8t29.5 -22t19.5 -32t7 -38z" />
    <glyph glyph-name="quotedblbase" unicode="&#x201e;" horiz-adv-x="458" 
d="M401 38q0 -32 -15.5 -61.5t-41.5 -56t-60 -49.5t-71 -42l-24 24q22 12 42 27.5t35 33t24 36t9 36.5q0 21 -11 37.5t-23.5 27.5t-23.5 16.5t-11 6.5q0 25 23 44.5t54 19.5q21 0 38 -8t29.5 -22t19.5 -32t7 -38zM179 38q0 -32 -15.5 -61.5t-42 -56t-60.5 -49.5t-71 -42
l-24 24q22 12 42 27.5t35 33t24 36t9 36.5q0 21 -10.5 37.5t-23.5 27.5t-23.5 16.5t-10.5 6.5q0 25 22.5 44.5t53.5 19.5q21 0 38 -8t30 -22t20 -32t7 -38z" />
    <glyph glyph-name="perthousand" unicode="&#x2030;" horiz-adv-x="1126" 
d="M390 500q0 -39 -14.5 -73t-39 -59.5t-58 -40t-72.5 -14.5q-32 0 -60.5 10.5t-49.5 30t-33.5 47t-12.5 61.5q0 38 14.5 71.5t39 59t58 40t70.5 14.5q33 0 61.5 -10t50 -29t34 -46.5t12.5 -61.5zM99 -15h-59l630 654h59zM724 164q0 -39 -14.5 -73t-39.5 -59.5t-58.5 -40
t-71.5 -14.5q-67 0 -110.5 39t-43.5 108q0 39 14 73t38.5 59.5t57.5 40t72 14.5q32 0 60.5 -10t49.5 -29t33.5 -46.5t12.5 -61.5zM340 490q0 50 -31 81.5t-81 31.5q-28 0 -51.5 -11.5t-41 -31t-27.5 -44.5t-10 -52q0 -50 32.5 -79.5t79.5 -29.5q28 0 51.5 10.5t41 29
t27.5 43t10 52.5zM676 158q0 24 -9 44t-24 34.5t-35.5 22.5t-43.5 8q-28 0 -51.5 -11.5t-41 -31t-27.5 -44.5t-10 -52q0 -50 31.5 -79.5t78.5 -29.5q28 0 52 11.5t42 30.5t28 44t10 53zM1105 164q0 -39 -14.5 -73t-39.5 -59.5t-58.5 -40t-71.5 -14.5q-67 0 -110.5 39
t-43.5 108q0 39 14 73t38.5 59.5t57.5 40t72 14.5q32 0 60.5 -10t49.5 -29t33.5 -46.5t12.5 -61.5zM1057 158q0 24 -9 44t-24 34.5t-35.5 22.5t-43.5 8q-28 0 -51.5 -11.5t-41 -31t-27.5 -44.5t-10 -52q0 -50 31.5 -79.5t78.5 -29.5q28 0 52 11.5t42 30.5t28 44t10 53z" />
    <glyph glyph-name="Acircumflex" unicode="&#xc2;" horiz-adv-x="620" 
d="M304 0l3 41l39 6q27 4 30.5 20t-4.5 57l-14 84h-188l-17 -46q-21 -50 -18 -79t29 -34l36 -8l3 -41h-237l3 41l28 9q15 4 26 9.5t22.5 19t25 39t34.5 70.5l174 384v38l133 30l108 -549q4 -17 11 -26.5t27 -14.5l38 -9l3 -41h-295zM309 514h-8l-111 -257h160zM450 682
l-86 120h-2l-118 -120h-46l114 182h118l66 -182h-46z" />
    <glyph glyph-name="Ecircumflex" unicode="&#xca;" horiz-adv-x="627" 
d="M539 0h-532l4 40l49 11q14 3 19 8.5t7 15.5l65 475q2 9 -2 15t-18 9l-46 11l-2 40h541l-27 -206h-69l-11 83q-3 27 -11 42.5t-28 23.5t-56 10t-95 2h-39l-34 -242h19q42 0 63 5.5t32 26.5l34 68h51l-55 -242h-51l1 64q0 9 -3 15.5t-12 10.5t-26 5.5t-44 1.5h-15l-33 -248
h43q61 0 98.5 2.5t61 10.5t36.5 23.5t25 41.5l34 74h72zM459 682l-86 120h-2l-118 -120h-46l114 182h118l66 -182h-46z" />
    <glyph glyph-name="Aacute" unicode="&#xc1;" horiz-adv-x="620" 
d="M304 0l3 41l39 6q27 4 30.5 20t-4.5 57l-14 84h-188l-17 -46q-21 -50 -18 -79t29 -34l36 -8l3 -41h-237l3 41l28 9q15 4 26 9.5t22.5 19t25 39t34.5 70.5l174 384v38l133 30l108 -549q4 -17 11 -26.5t27 -14.5l38 -9l3 -41h-295zM309 514h-8l-111 -257h160zM343 682h-45
l119 182h127z" />
    <glyph glyph-name="Edieresis" unicode="&#xcb;" horiz-adv-x="627" 
d="M539 0h-532l4 40l49 11q14 3 19 8.5t7 15.5l65 475q2 9 -2 15t-18 9l-46 11l-2 40h541l-27 -206h-69l-11 83q-3 27 -11 42.5t-28 23.5t-56 10t-95 2h-39l-34 -242h19q42 0 63 5.5t32 26.5l34 68h51l-55 -242h-51l1 64q0 9 -3 15.5t-12 10.5t-26 5.5t-44 1.5h-15l-33 -248
h43q61 0 98.5 2.5t61 10.5t36.5 23.5t25 41.5l34 74h72zM544 773q0 -28 -17 -48.5t-48 -20.5t-48 20.5t-17 48.5t17 49t48 21t48 -21t17 -49zM330 773q0 -28 -17 -48.5t-48 -20.5t-48.5 20.5t-17.5 48.5t17.5 49t48.5 21t48 -21t17 -49z" />
    <glyph glyph-name="Egrave" unicode="&#xc8;" horiz-adv-x="627" 
d="M539 0h-532l4 40l49 11q14 3 19 8.5t7 15.5l65 475q2 9 -2 15t-18 9l-46 11l-2 40h541l-27 -206h-69l-11 83q-3 27 -11 42.5t-28 23.5t-56 10t-95 2h-39l-34 -242h19q42 0 63 5.5t32 26.5l34 68h51l-55 -242h-51l1 64q0 9 -3 15.5t-12 10.5t-26 5.5t-44 1.5h-15l-33 -248
h43q61 0 98.5 2.5t61 10.5t36.5 23.5t25 41.5l34 74h72zM374 682l-151 182h127l70 -182h-46z" />
    <glyph glyph-name="Iacute" unicode="&#xcd;" horiz-adv-x="373" 
d="M9 0l3 40l59 11q14 3 19 8.5t7 15.5l65 475q2 9 -2 15.5t-18 8.5l-56 11l-3 40h300l-3 -40l-60 -11q-23 -5 -26 -24l-64 -475q-3 -18 20 -24l56 -11l4 -40h-301zM260 682h-45l119 182h127z" />
    <glyph glyph-name="Icircumflex" unicode="&#xce;" horiz-adv-x="373" 
d="M9 0l3 40l59 11q14 3 19 8.5t7 15.5l65 475q2 9 -2 15.5t-18 8.5l-56 11l-3 40h300l-3 -40l-60 -11q-23 -5 -26 -24l-64 -475q-3 -18 20 -24l56 -11l4 -40h-301zM340 682l-86 120h-2l-118 -120h-46l114 182h118l66 -182h-46z" />
    <glyph glyph-name="Idieresis" unicode="&#xcf;" horiz-adv-x="373" 
d="M9 0l3 40l59 11q14 3 19 8.5t7 15.5l65 475q2 9 -2 15.5t-18 8.5l-56 11l-3 40h300l-3 -40l-60 -11q-23 -5 -26 -24l-64 -475q-3 -18 20 -24l56 -11l4 -40h-301zM418 773q0 -28 -17 -48.5t-48 -20.5t-48 20.5t-17 48.5t17 49t48 21t48 -21t17 -49zM204 773
q0 -28 -17 -48.5t-48 -20.5t-48.5 20.5t-17.5 48.5t17.5 49t48.5 21t48 -21t17 -49z" />
    <glyph glyph-name="Igrave" unicode="&#xcc;" horiz-adv-x="373" 
d="M9 0l3 40l59 11q14 3 19 8.5t7 15.5l65 475q2 9 -2 15.5t-18 8.5l-56 11l-3 40h300l-3 -40l-60 -11q-23 -5 -26 -24l-64 -475q-3 -18 20 -24l56 -11l4 -40h-301zM232 682l-151 182h127l70 -182h-46z" />
    <glyph glyph-name="Oacute" unicode="&#xd3;" horiz-adv-x="715" 
d="M686 348q0 -78 -29.5 -146.5t-81.5 -121.5q-45 -46 -104 -70.5t-129 -24.5q-64 0 -118 21.5t-93 60t-61 91.5t-22 117q0 73 24.5 137.5t70.5 114.5q47 51 110 81t140 30q64 0 118 -21.5t93 -60t60.5 -91.5t21.5 -117zM543 378q0 47 -11 94t-41 79q-19 17 -43 27.5
t-58 10.5q-37 0 -66.5 -17.5t-51.5 -46.5t-37 -66t-25 -75t-14.5 -74.5t-4.5 -65.5q0 -48 11 -94t42 -76q18 -18 42 -28.5t58 -10.5q37 0 66.5 17.5t51.5 46t37.5 65t25 75t14 75t4.5 64.5zM396 682h-45l119 182h127z" />
    <glyph glyph-name="Ocircumflex" unicode="&#xd4;" horiz-adv-x="715" 
d="M686 348q0 -78 -29.5 -146.5t-81.5 -121.5q-45 -46 -104 -70.5t-129 -24.5q-64 0 -118 21.5t-93 60t-61 91.5t-22 117q0 73 24.5 137.5t70.5 114.5q47 51 110 81t140 30q64 0 118 -21.5t93 -60t60.5 -91.5t21.5 -117zM543 378q0 47 -11 94t-41 79q-19 17 -43 27.5
t-58 10.5q-37 0 -66.5 -17.5t-51.5 -46.5t-37 -66t-25 -75t-14.5 -74.5t-4.5 -65.5q0 -48 11 -94t42 -76q18 -18 42 -28.5t58 -10.5q37 0 66.5 17.5t51.5 46t37.5 65t25 75t14 75t4.5 64.5zM517 682l-86 120h-2l-118 -120h-46l114 182h118l66 -182h-46z" />
    <glyph glyph-name="apple" unicode="&#xf8ff;" horiz-adv-x="758" 
d="M583 236l69 -189l-189 69l-85 -181l-84 180l-187 -68l68 187l-181 86l181 83l-68 189l187 -69l86 181l83 -181l189 69l-69 -189l180 -82zM531 382l50 139l-139 -50l-63 133l-63 -133l-139 50l51 -139l-134 -63l134 -63l-51 -138l139 51l62 -135l64 135l139 -51l-50 140
l132 62z" />
    <glyph glyph-name="Ograve" unicode="&#xd2;" horiz-adv-x="715" 
d="M686 348q0 -78 -29.5 -146.5t-81.5 -121.5q-45 -46 -104 -70.5t-129 -24.5q-64 0 -118 21.5t-93 60t-61 91.5t-22 117q0 73 24.5 137.5t70.5 114.5q47 51 110 81t140 30q64 0 118 -21.5t93 -60t60.5 -91.5t21.5 -117zM543 378q0 47 -11 94t-41 79q-19 17 -43 27.5
t-58 10.5q-37 0 -66.5 -17.5t-51.5 -46.5t-37 -66t-25 -75t-14.5 -74.5t-4.5 -65.5q0 -48 11 -94t42 -76q18 -18 42 -28.5t58 -10.5q37 0 66.5 17.5t51.5 46t37.5 65t25 75t14 75t4.5 64.5zM398 682l-151 182h127l70 -182h-46z" />
    <glyph glyph-name="Uacute" unicode="&#xda;" horiz-adv-x="708" 
d="M737 585l-48 -10q-12 -3 -21 -11.5t-16.5 -30t-14.5 -59t-16 -98.5l-24 -170q-9 -58 -32 -101t-57.5 -71t-78.5 -41.5t-95 -13.5q-52 0 -95.5 12.5t-75 38t-49.5 63.5t-18 89q0 30 3 55l43 313q2 9 -2 15t-18 9l-45 11l-3 40h280l-3 -40l-50 -11q-23 -6 -26 -24l-43 -313
q-2 -13 -3.5 -27.5t-1.5 -32.5q0 -63 39.5 -98t105.5 -35q35 0 63.5 9.5t50 30.5t36.5 55t22 84l22 153q9 62 12.5 100t2 59t-7.5 29.5t-18 10.5l-52 10l-3 40h240zM428 682h-45l119 182h127z" />
    <glyph glyph-name="Ucircumflex" unicode="&#xdb;" horiz-adv-x="708" 
d="M737 585l-48 -10q-12 -3 -21 -11.5t-16.5 -30t-14.5 -59t-16 -98.5l-24 -170q-9 -58 -32 -101t-57.5 -71t-78.5 -41.5t-95 -13.5q-52 0 -95.5 12.5t-75 38t-49.5 63.5t-18 89q0 30 3 55l43 313q2 9 -2 15t-18 9l-45 11l-3 40h280l-3 -40l-50 -11q-23 -6 -26 -24l-43 -313
q-2 -13 -3.5 -27.5t-1.5 -32.5q0 -63 39.5 -98t105.5 -35q35 0 63.5 9.5t50 30.5t36.5 55t22 84l22 153q9 62 12.5 100t2 59t-7.5 29.5t-18 10.5l-52 10l-3 40h240zM528 682l-86 120h-2l-118 -120h-46l114 182h118l66 -182h-46z" />
    <glyph glyph-name="Ugrave" unicode="&#xd9;" horiz-adv-x="708" 
d="M737 585l-48 -10q-12 -3 -21 -11.5t-16.5 -30t-14.5 -59t-16 -98.5l-24 -170q-9 -58 -32 -101t-57.5 -71t-78.5 -41.5t-95 -13.5q-52 0 -95.5 12.5t-75 38t-49.5 63.5t-18 89q0 30 3 55l43 313q2 9 -2 15t-18 9l-45 11l-3 40h280l-3 -40l-50 -11q-23 -6 -26 -24l-43 -313
q-2 -13 -3.5 -27.5t-1.5 -32.5q0 -63 39.5 -98t105.5 -35q35 0 63.5 9.5t50 30.5t36.5 55t22 84l22 153q9 62 12.5 100t2 59t-7.5 29.5t-18 10.5l-52 10l-3 40h240zM425 682l-151 182h127l70 -182h-46z" />
    <glyph glyph-name="dotlessi" unicode="&#x131;" horiz-adv-x="280" 
d="M261 84q-11 -19 -27 -37t-34.5 -32t-38 -22.5t-39.5 -8.5q-9 0 -25 4.5t-30.5 11t-24.5 14t-9 12.5l96 362l-30 6l-65 -72l-20 22q9 21 23.5 43t31.5 40t36.5 30t38.5 12q9 0 26.5 -4.5t34 -10.5t28.5 -13.5t10 -13.5l-100 -364l27 -9l74 51l17 -21v0z" />
    <glyph glyph-name="circumflex" unicode="&#x2c6;" 
d="M330 515l-86 120h-2l-118 -120h-46l114 182h118l66 -182h-46z" />
    <glyph glyph-name="tilde" unicode="&#x2dc;" 
d="M419 658q-17 -72 -47 -103.5t-74 -31.5q-22 0 -42.5 11t-39 24.5l-34.5 24.5t-30 11q-17 0 -27 -15t-26 -47h-43q17 72 46.5 103.5t73.5 31.5q23 0 42.5 -11t37.5 -24l34 -24t30 -11q16 0 28 14.5t29 46.5h42v0z" />
    <glyph glyph-name="macron" unicode="&#xaf;" 
d="M83 546l12 58h284l1 -58h-297z" />
    <glyph glyph-name="breve" unicode="&#x2d8;" 
d="M402 697q-11 -40 -27 -74.5t-37.5 -59.5t-49 -39t-62.5 -14q-34 0 -57.5 14t-37.5 39t-21 59.5t-9 74.5h44q6 -24 13 -46t17.5 -38.5t24.5 -26t34 -9.5t37 10t32.5 26.5t29 38.5l26.5 45h43v0z" />
    <glyph glyph-name="dotaccent" unicode="&#x2d9;" 
d="M315 611q0 -29 -18 -50t-50 -21t-49 21t-17 50t17 50.5t49 21.5t50 -21.5t18 -50.5z" />
    <glyph glyph-name="ring" unicode="&#x2da;" 
d="M346 613q0 -41 -26 -70.5t-72 -29.5t-73 29.5t-26 70.5t27 70.5t72 29.5t72 -29.5t26 -70.5zM312 613q0 26 -17 47t-47 21t-47 -21t-17 -47t17 -46.5t47 -20.5t47 20.5t17 46.5z" />
    <glyph glyph-name="cedilla" unicode="&#xb8;" 
d="M17 -248q82 10 125 32t43 53q0 23 -18.5 35.5t-58.5 12.5q-36 0 -70 -7l3 24l130 119h50l-85 -75q59 -2 93 -24.5t34 -61.5q0 -28 -17.5 -51.5t-49 -41.5t-76 -28.5t-97.5 -13.5z" />
    <glyph glyph-name="hungarumlaut" unicode="&#x2dd;" 
d="M311 515h-41l116 182h119zM135 515h-42l117 182h119z" />
    <glyph glyph-name="ogonek" unicode="&#x2db;" 
d="M255 -189q-25 -20 -54.5 -34.5t-67.5 -14.5q-45 0 -77 26t-32 70q0 27 13 51t35 45t52 38t63 29h56q-74 -33 -108.5 -74t-34.5 -73q0 -26 17 -42t51 -16q21 0 41.5 6t38.5 15l7 -26v0z" />
    <glyph glyph-name="caron" unicode="&#x2c7;" 
d="M286 515h-119l-64 182h44l86 -120h2l119 120h45z" />
    <glyph glyph-name="ff" unicode="&#xfb00;" horiz-adv-x="558" 
d="M407 528q-15 0 -27.5 8t-22 21.5t-15.5 31t-9 36.5l-67 -13q-11 -33 -18.5 -74.5t-17.5 -89.5h154q5 22 10.5 42t12.5 38zM468 628q31 32 72 49t79 17q48 0 77 -25t29 -63q0 -27 -17 -47.5t-45 -20.5q-32 0 -51.5 28.5t-23.5 68.5l-52 -9q-6 -14 -11 -34.5t-10 -44.5
l-10 -49.5l-10 -49.5h122l4 -57h-138l-53 -268q-20 -98 -48.5 -174t-63.5 -113q-26 -27 -57.5 -39.5t-63.5 -12.5q-41 0 -69.5 22t-28.5 57q0 28 16.5 45t41.5 17q32 0 51 -24.5t22 -58.5l49 17q5 12 10 30t10.5 40.5t10 47.5t8.5 50l54 364h-154l-58 -298
q-20 -98 -48.5 -174t-63.5 -113q-26 -26 -58.5 -39t-66.5 -13q-41 0 -70 22.5t-29 57.5q0 27 16.5 44t41.5 17q32 0 51.5 -24.5t22.5 -57.5l52 16q9 23 20 70.5t19 98.5l60 386l-87 7l3 34l96 31q10 48 28 88t50 72t69.5 49t87.5 17q40 0 68 -17.5t39 -43.5z" />
    <glyph glyph-name="ffi" unicode="&#xfb03;" horiz-adv-x="803" 
d="M472 632q32 30 78.5 48t100.5 18q58 0 91 -27t33 -68q0 -26 -18 -46t-45 -20q-16 0 -29 8t-22.5 21.5t-16.5 31t-11 36.5l-95 -13q-17 -39 -26 -82t-17 -91h118q14 10 27.5 15.5t27.5 5.5q9 0 24.5 -7.5t29.5 -17.5t24 -20.5t8 -16.5l-91 -336l18 -9l82 58l17 -22
q-11 -19 -27.5 -39.5t-35.5 -36.5t-39.5 -26.5t-40.5 -10.5q-9 0 -24 7.5t-28.5 17.5t-22.5 20.5t-8 15.5l90 339l-8 6h-153l-53 -268q-20 -98 -48.5 -174t-63.5 -113q-26 -27 -57.5 -39.5t-63.5 -12.5q-41 0 -69.5 22t-28.5 57q0 28 16.5 45t41.5 17q32 0 51 -24.5
t22 -58.5l49 17q5 12 10 30t10.5 40.5t10 47.5t8.5 50l54 364h-154l-58 -298q-20 -98 -48.5 -174t-63.5 -113q-26 -26 -58.5 -39t-66.5 -13q-41 0 -70 22.5t-29 57.5q0 27 16.5 44t41.5 17q32 0 51.5 -24.5t22.5 -57.5l52 16q9 23 20 70.5t19 98.5l60 386l-87 7l3 34l96 31
q7 40 25.5 86.5t54.5 81.5q32 32 68.5 49.5t94.5 17.5q41 0 69.5 -17t40.5 -42zM407 536q-26 5 -43 33t-23 62l-73 -12q-12 -39 -21 -81t-17 -90h154q5 26 10 47.5t13 40.5z" />
    <glyph glyph-name="ffl" unicode="&#xfb04;" horiz-adv-x="809" 
d="M671 551q-14 12 -23.5 35t-14.5 48l-95 -13q-17 -39 -26 -82t-17 -91h154l22 103v0zM407 536q-26 5 -43 33t-23 62l-73 -12q-12 -39 -21 -81t-17 -90h154q5 26 10 47.5t13 40.5zM472 632q32 30 78.5 48t100.5 18q25 0 45 -5.5t35 -14.5l77 19l-135 -626l19 -9l81 58
l18 -22q-12 -19 -28.5 -39.5t-35.5 -36.5t-39 -26.5t-40 -10.5q-9 0 -23.5 7.5t-28 17.5t-22.5 20.5t-8 15.5l71 345h-154l-53 -268q-20 -98 -48.5 -174t-63.5 -113q-26 -27 -57.5 -39.5t-63.5 -12.5q-41 0 -69.5 22t-28.5 57q0 28 16.5 45t41.5 17q32 0 51 -24.5t22 -58.5
l49 17q5 12 10 30t10.5 40.5t10 47.5t8.5 50l54 364h-154l-58 -298q-20 -98 -48.5 -174t-63.5 -113q-26 -26 -58.5 -39t-66.5 -13q-41 0 -70 22.5t-29 57.5q0 27 16.5 44t41.5 17q32 0 51.5 -24.5t22.5 -57.5l52 16q9 23 20 70.5t19 98.5l60 386l-87 7l3 34l96 31
q7 40 25.5 86.5t54.5 81.5q32 32 68.5 49.5t94.5 17.5q41 0 69.5 -17t40.5 -42z" />
    <glyph glyph-name="Pi" unicode="&#x3a0;" horiz-adv-x="517" 
d="M551 586l-56 -11q-22 -5 -25 -24l-50 -362q-7 -53 -28.5 -91.5t-53.5 -63t-72 -36.5t-85 -12q-38 0 -72.5 10t-60.5 29t-41.5 45t-15.5 57q0 35 22.5 57t54.5 21q26 -1 44.5 -17.5t18.5 -42.5q0 -20 -8 -36t-20 -27q11 -21 35.5 -35t47.5 -14q45 0 73.5 35t38.5 110
l48 373q1 9 -2.5 15t-17.5 9l-67 11l-3 39h298z" />
    <glyph glyph-name="Euro" unicode="&#x20ac;" horiz-adv-x="519" 
d="M187 216q10 -74 47.5 -115.5t103.5 -41.5q39 0 72 16.5t62 40.5l14 -20q-29 -48 -79.5 -79.5t-110.5 -31.5q-50 0 -89 18t-66.5 49t-44 73.5t-21.5 90.5h-65l3 47h60v6q0 18 2 36t5 35h-54l3 47h62q15 53 42.5 97.5t65 76.5t83.5 50.5t98 18.5q73 0 112 -26t40 -61
q0 -29 -16 -47t-42 -18q-16 0 -28.5 7.5t-20.5 20t-12.5 28.5t-3.5 34q-8 6 -23.5 10.5t-30.5 4.5q-58 0 -100 -53.5t-60 -142.5h202l3 -47h-213q-2 -17 -3 -33t-1 -33v-11h198l3 -47h-197v0z" />
    <glyph glyph-name="Eth" unicode="&#xd0;" horiz-adv-x="686" 
d="M365 339l3 -46h-120l-1 -10t-3 -26.5t-5 -37l-6 -42.5l-16 -117l67 -15q50 2 93 23t74.5 59.5t50 94.5t18.5 128q0 51 -11 93t-34 72t-60 47t-88 17h-40l-32 -240h110zM44 293l3 46h74l29 211q2 9 -1.5 15t-18.5 9l-45 11l-3 40q77 1 137 1h129q76 0 135 -20.5t99 -57
t61 -87.5t21 -112q0 -72 -24.5 -131t-77.5 -112q-47 -48 -124.5 -77t-173.5 -29h-257l4 40l49 11q14 3 19 8.5t7 15.5l29 218h-71z" />
    <glyph glyph-name="eth" unicode="&#xf0;" horiz-adv-x="481" 
d="M153 246q-6 -26 -9.5 -52t-3.5 -49q0 -22 4.5 -42.5t12.5 -36t21 -25t29 -9.5q23 0 42.5 17.5t35 44.5t26.5 58.5t17 59.5q5 26 8.5 55t3.5 46q0 45 -16.5 76.5t-50.5 31.5q-22 0 -41.5 -17t-35 -43t-26.5 -57t-17 -58zM137 519l11 48l105 26q-19 15 -41 26.5t-49 22.5
l24 39q79 -24 139 -70l135 34l-11 -47l-83 -22q47 -47 72 -107t26 -130q0 -72 -20.5 -136t-55.5 -112.5t-81.5 -77t-99.5 -28.5q-43 0 -76 15t-55.5 42t-34 64t-11.5 82q0 53 18 103.5t49.5 90t73.5 63.5t91 24q59 0 87 -45q-5 37 -19.5 71t-40.5 63z" />
    <glyph glyph-name="minus" unicode="&#x2212;" horiz-adv-x="486" 
d="M41 283l3 54h399l3 -54h-405z" />
    <glyph glyph-name="multiply" unicode="&#xd7;" horiz-adv-x="486" 
d="M413 103l-168 169l-169 -169l-37 37l169 169l-169 168l37 37l169 -169l169 170l37 -37l-170 -169l169 -169z" />
    <glyph glyph-name="divide" unicode="&#xf7;" horiz-adv-x="486" 
d="M41 283l3 54h399l3 -54h-405zM296 169q0 -20 -14 -36t-37 -16t-37.5 16t-14.5 36t14.5 35.5t37.5 15.5t37 -15.5t14 -35.5zM296 449q0 -20 -14.5 -36t-37.5 -16t-37 16t-14 36t14 36t37 16t37.5 -16t14.5 -36z" />
    <glyph glyph-name="onequarter" unicode="&#xbc;" horiz-adv-x="558" 
d="M407 528q-15 0 -27.5 8t-22 21.5t-15.5 31t-9 36.5l-67 -13q-11 -33 -18.5 -74.5t-17.5 -89.5h154q5 22 10.5 42t12.5 38zM468 628q31 32 72 49t79 17q48 0 77 -25t29 -63q0 -27 -17 -47.5t-45 -20.5q-32 0 -51.5 28.5t-23.5 68.5l-52 -9q-6 -14 -11 -34.5t-10 -44.5
l-10 -49.5l-10 -49.5h122l4 -57h-138l-53 -268q-20 -98 -48.5 -174t-63.5 -113q-26 -27 -57.5 -39.5t-63.5 -12.5q-41 0 -69.5 22t-28.5 57q0 28 16.5 45t41.5 17q32 0 51 -24.5t22 -58.5l49 17q5 12 10 30t10.5 40.5t10 47.5t8.5 50l54 364h-154l-58 -298
q-20 -98 -48.5 -174t-63.5 -113q-26 -26 -58.5 -39t-66.5 -13q-41 0 -70 22.5t-29 57.5q0 27 16.5 44t41.5 17q32 0 51.5 -24.5t22.5 -57.5l52 16q9 23 20 70.5t19 98.5l60 386l-87 7l3 34l96 31q10 48 28 88t50 72t69.5 49t87.5 17q40 0 68 -17.5t39 -43.5z" />
    <glyph glyph-name="threequarters" unicode="&#xbe;" horiz-adv-x="809" 
d="M671 551q-14 12 -23.5 35t-14.5 48l-95 -13q-17 -39 -26 -82t-17 -91h154l22 103v0zM407 536q-26 5 -43 33t-23 62l-73 -12q-12 -39 -21 -81t-17 -90h154q5 26 10 47.5t13 40.5zM472 632q32 30 78.5 48t100.5 18q25 0 45 -5.5t35 -14.5l77 19l-135 -626l19 -9l81 58
l18 -22q-12 -19 -28.5 -39.5t-35.5 -36.5t-39 -26.5t-40 -10.5q-9 0 -23.5 7.5t-28 17.5t-22.5 20.5t-8 15.5l71 345h-154l-53 -268q-20 -98 -48.5 -174t-63.5 -113q-26 -27 -57.5 -39.5t-63.5 -12.5q-41 0 -69.5 22t-28.5 57q0 28 16.5 45t41.5 17q32 0 51 -24.5t22 -58.5
l49 17q5 12 10 30t10.5 40.5t10 47.5t8.5 50l54 364h-154l-58 -298q-20 -98 -48.5 -174t-63.5 -113q-26 -26 -58.5 -39t-66.5 -13q-41 0 -70 22.5t-29 57.5q0 27 16.5 44t41.5 17q32 0 51.5 -24.5t22.5 -57.5l52 16q9 23 20 70.5t19 98.5l60 386l-87 7l3 34l96 31
q7 40 25.5 86.5t54.5 81.5q32 32 68.5 49.5t94.5 17.5q41 0 69.5 -17t40.5 -42z" />
    <glyph glyph-name="onehalf" unicode="&#xbd;" horiz-adv-x="803" 
d="M472 632q32 30 78.5 48t100.5 18q58 0 91 -27t33 -68q0 -26 -18 -46t-45 -20q-16 0 -29 8t-22.5 21.5t-16.5 31t-11 36.5l-95 -13q-17 -39 -26 -82t-17 -91h118q14 10 27.5 15.5t27.5 5.5q9 0 24.5 -7.5t29.5 -17.5t24 -20.5t8 -16.5l-91 -336l18 -9l82 58l17 -22
q-11 -19 -27.5 -39.5t-35.5 -36.5t-39.5 -26.5t-40.5 -10.5q-9 0 -24 7.5t-28.5 17.5t-22.5 20.5t-8 15.5l90 339l-8 6h-153l-53 -268q-20 -98 -48.5 -174t-63.5 -113q-26 -27 -57.5 -39.5t-63.5 -12.5q-41 0 -69.5 22t-28.5 57q0 28 16.5 45t41.5 17q32 0 51 -24.5
t22 -58.5l49 17q5 12 10 30t10.5 40.5t10 47.5t8.5 50l54 364h-154l-58 -298q-20 -98 -48.5 -174t-63.5 -113q-26 -26 -58.5 -39t-66.5 -13q-41 0 -70 22.5t-29 57.5q0 27 16.5 44t41.5 17q32 0 51.5 -24.5t22.5 -57.5l52 16q9 23 20 70.5t19 98.5l60 386l-87 7l3 34l96 31
q7 40 25.5 86.5t54.5 81.5q32 32 68.5 49.5t94.5 17.5q41 0 69.5 -17t40.5 -42zM407 536q-26 5 -43 33t-23 62l-73 -12q-12 -39 -21 -81t-17 -90h154q5 26 10 47.5t13 40.5z" />
    <glyph glyph-name="brokenbar" unicode="&#xa6;" horiz-adv-x="517" 
d="M551 586l-56 -11q-22 -5 -25 -24l-50 -362q-7 -53 -28.5 -91.5t-53.5 -63t-72 -36.5t-85 -12q-38 0 -72.5 10t-60.5 29t-41.5 45t-15.5 57q0 35 22.5 57t54.5 21q26 -1 44.5 -17.5t18.5 -42.5q0 -20 -8 -36t-20 -27q11 -21 35.5 -35t47.5 -14q45 0 73.5 35t38.5 110
l48 373q1 9 -2.5 15t-17.5 9l-67 11l-3 39h298z" />
    </font>
</defs>
</svg>
