<?xml version="1.0" encoding="UTF-8" standalone="no"?>
<svg width="14px" height="11px" viewBox="0 0 14 11" version="1.1" xmlns="http://www.w3.org/2000/svg" xmlns:xlink="http://www.w3.org/1999/xlink" xmlns:sketch="http://www.bohemiancoding.com/sketch/ns">
    <!-- Generator: Sketch 3.5 (25232) - http://www.bohemiancoding.com/sketch -->
    <title>,, copy 3</title>
    <desc>Created with Sketch.</desc>
    <defs></defs>
    <g id="Page-1" stroke="none" stroke-width="1" fill="none" fill-rule="evenodd" sketch:type="MSPage">
        <g id="Interaction-&amp;-states---Article-metadata-+-end-of-article" sketch:type="MSArtboardGroup" transform="translate(-128.000000, -3254.000000)" fill="#FFFFFF">
            <g id="Liminaire-de-l'article" sketch:type="MSLayerGroup" transform="translate(25.000000, 687.000000)">
                <g id="Boîte-à-outils" transform="translate(0.000000, 2374.000000)" sketch:type="MSShapeGroup">
                    <g transform="translate(85.000000, 123.720930)" id="Citer">
                        <g transform="translate(0.000000, 49.379845)">
                            <path d="M23.92,23.6378295 C23.92,24.3257916 23.786668,24.9814956 23.52,25.6049612 C23.253332,26.2284269 22.8960022,26.8250101 22.448,27.3947287 C21.9999978,27.9644473 21.472003,28.5072842 20.864,29.0232558 C20.255997,29.5392274 19.6106701,30.0229435 18.928,30.4744186 L18,29.7004651 C18.8320042,29.1199971 19.5306638,28.4804169 20.096,27.7817054 C20.6613362,27.0829939 20.944,26.3036736 20.944,25.4437209 C20.944,24.9277494 20.7946682,24.4870303 20.496,24.1215504 C20.1973318,23.7560705 19.8720018,23.4550916 19.52,23.2186047 C19.1679982,22.9821177 18.8426682,22.8047551 18.544,22.6865116 C18.2453318,22.5682681 18.096,22.498398 18.096,22.4768992 C18.096,21.8964312 18.3199978,21.3643435 18.768,20.8806202 C19.2160022,20.3968968 19.8239962,20.1550388 20.592,20.1550388 C21.0400022,20.1550388 21.4613314,20.2464074 21.856,20.4291473 C22.2506686,20.6118872 22.6026651,20.8591199 22.912,21.1708527 C23.2213349,21.4825855 23.4666658,21.8480599 23.648,22.2672868 C23.8293342,22.6865137 23.92,23.1433567 23.92,23.6378295 L23.92,23.6378295 Z M31.344,23.6378295 C31.344,24.3257916 31.210668,24.9814956 30.944,25.6049612 C30.677332,26.2284269 30.3200022,26.8250101 29.872,27.3947287 C29.4239978,27.9644473 28.896003,28.5072842 28.288,29.0232558 C27.679997,29.5392274 27.0346701,30.0229435 26.352,30.4744186 L25.424,29.7004651 C26.2560042,29.1199971 26.9546638,28.4804169 27.52,27.7817054 C28.0853362,27.0829939 28.368,26.3036736 28.368,25.4437209 C28.368,24.9277494 28.2186682,24.4870303 27.92,24.1215504 C27.6213318,23.7560705 27.2960018,23.4550916 26.944,23.2186047 C26.5919982,22.9821177 26.2666682,22.8047551 25.968,22.6865116 C25.6693318,22.5682681 25.52,22.498398 25.52,22.4768992 C25.52,21.8964312 25.7439978,21.3643435 26.192,20.8806202 C26.6400022,20.3968968 27.2479962,20.1550388 28.016,20.1550388 C28.4640022,20.1550388 28.8853314,20.2464074 29.28,20.4291473 C29.6746686,20.6118872 30.0266651,20.8591199 30.336,21.1708527 C30.6453349,21.4825855 30.8906658,21.8480599 31.072,22.2672868 C31.2533342,22.6865137 31.344,23.1433567 31.344,23.6378295 L31.344,23.6378295 Z" id=",,-copy-3"></path>
                        </g>
                    </g>
                </g>
            </g>
        </g>
    </g>
</svg>