<?xml version="1.0" encoding="UTF-8" standalone="no"?>
<svg width="20px" height="19px" viewBox="0 0 20 19" version="1.1" xmlns="http://www.w3.org/2000/svg" xmlns:xlink="http://www.w3.org/1999/xlink" xmlns:sketch="http://www.bohemiancoding.com/sketch/ns">
    <!-- Generator: Sketch 3.5 (25232) - http://www.bohemiancoding.com/sketch -->
    <title>Shape Copy 6</title>
    <desc>Created with Sketch.</desc>
    <defs></defs>
    <g id="Page-1" stroke="none" stroke-width="1" fill="none" fill-rule="evenodd" sketch:type="MSPage">
        <g id="Interaction-&amp;-states---Article-metadata-+-end-of-article" sketch:type="MSArtboardGroup" transform="translate(-982.000000, -3397.000000)" fill="#FFFFFF">
            <g id="Liminaire-de-l'article" sketch:type="MSLayerGroup" transform="translate(25.000000, 687.000000)">
                <g id="Boîte-à-outils" transform="translate(0.000000, 2374.000000)" sketch:type="MSShapeGroup">
                    <g id="Boîte-à-outils---Etc.-clicked" transform="translate(940.000000, 123.720930)">
                        <g id="Etc." transform="translate(0.000000, 147.131783)">
                            <g id="Etc.-Hover-/-click">
                                <g id="Imprimer" transform="translate(0.000000, 49.379845)">
                                    <g id="Group-2" transform="translate(17.000000, 16.124031)">
                                        <path d="M17,5.03875969 L3,5.03875969 C1.3,5.03875969 0,6.34883721 0,8.0620155 L0,14.1085271 L4,14.1085271 L4,18.1395349 L16,18.1395349 L16,14.1085271 L20,14.1085271 L20,8.0620155 C20,6.34883721 18.7,5.03875969 17,5.03875969 L17,5.03875969 Z M14,16.124031 L6,16.124031 L6,11.0852713 L14,11.0852713 L14,16.124031 L14,16.124031 Z M17,9.06976744 C16.4,9.06976744 16,8.66666667 16,8.0620155 C16,7.45736434 16.4,7.05426357 17,7.05426357 C17.6,7.05426357 18,7.45736434 18,8.0620155 C18,8.66666667 17.6,9.06976744 17,9.06976744 L17,9.06976744 Z M16,0 L4,0 L4,4.03100775 L16,4.03100775 L16,0 L16,0 Z" id="Shape-Copy-6"></path>
                                    </g>
                                </g>
                            </g>
                        </g>
                    </g>
                </g>
            </g>
        </g>
    </g>
</svg>