<?xml version="1.0" standalone="no"?>
<!DOCTYPE svg PUBLIC "-//W3C//DTD SVG 1.1//EN" "http://www.w3.org/Graphics/SVG/1.1/DTD/svg11.dtd" >
<svg>
<metadata>
Created by FontForge 20120731 at Fri May 20 22:59:12 2016
 By ,,,
Copyright (c) 2012 by 205 Corp. All rights reserved.
</metadata>
<defs>
<font id="Maax" horiz-adv-x="690" >
  <font-face 
    font-family="Maax"
    font-weight="400"
    font-stretch="normal"
    units-per-em="1000"
    panose-1="2 0 5 6 0 0 0 2 0 3"
    ascent="750"
    descent="-250"
    x-height="490"
    cap-height="701"
    bbox="-27 -219 1780 884"
    underline-thickness="50"
    underline-position="-50"
    unicode-range="U+0020-FB02"
  />
<missing-glyph horiz-adv-x="1848" 
d="M149 72h339v-72h-420v23q0 101 45 155.5t156 93.5l35 13q58 20 84 45t26 66q0 40 -32.5 65.5t-89.5 25.5q-114 0 -166 -116l-52 52q29 63 84.5 99.5t128.5 36.5q89 0 146.5 -45t57.5 -124q0 -64 -39 -103t-107 -65l-55 -20q-75 -27 -106 -54t-35 -76zM1178 274
q0 122 -81.5 203.5t-197.5 81.5t-195 -81.5t-79 -203.5q0 -123 79 -204t195 -81t197.5 81.5t81.5 203.5zM1102 274q0 -90 -60 -152t-143 -62q-85 0 -141 61t-56 153t56 152.5t141 60.5q83 0 143 -61.5t60 -151.5zM1703 81q0 -71 -48 -114t-119 -43q-105 0 -169 94l-54 -53
q83 -113 218 -113q113 0 181 67t68 162q0 106 -66 166.5t-160 60.5t-143 -53l12 220h304v72h-374l-17 -387h70q17 31 55.5 53.5t83.5 22.5q69 0 113.5 -41t44.5 -114z" />
    <glyph glyph-name="arrowwest" unicode="&#x3c;&#x2d;" horiz-adv-x="804" 
d="M408 551l-227 -226h577v-71h-575l225 -220l-50 -57l-312 313l312 312z" />
    <glyph glyph-name="arrownorth" unicode="&#x7c;^" horiz-adv-x="716" 
d="M620 350l-224 224v-574h-76v574l-224 -224l-50 50l312 312l312 -312z" />
    <glyph glyph-name="arroweast" unicode="&#x2d;&#x3e;" horiz-adv-x="804" 
d="M623 325l-227 226l50 51l312 -312l-312 -313l-50 57l225 220h-575v71h577z" />
    <glyph glyph-name="arrowsouth" unicode="&#x7c;v" horiz-adv-x="716" 
d="M396 127l224 224l50 -50l-312 -312l-312 312l50 50l224 -224v574h76v-574z" />
    <glyph glyph-name="arrowwest2" unicode="&#x3c;&#x2d;&#x2d;" horiz-adv-x="1100" 
d="M408 551l-227 -226h873v-71h-872l226 -220l-50 -57l-312 313l312 312z" />
    <glyph glyph-name="arrowwest3" unicode="&#x3c;&#x2d;&#x2d;&#x2d;" horiz-adv-x="1385" 
d="M408 551l-227 -226h1158v-71h-1157l226 -220l-50 -57l-312 313l312 312z" />
    <glyph glyph-name="arroweast2" unicode="&#x2d;&#x2d;&#x3e;" horiz-adv-x="1100" 
d="M919 325l-227 226l50 51l312 -312l-312 -313l-50 57l226 220h-872v71h873z" />
    <glyph glyph-name="arroweast3" unicode="&#x2d;&#x2d;&#x2d;&#x3e;" horiz-adv-x="1385" 
d="M1204 325l-227 226l50 51l312 -312l-312 -313l-50 57l226 220h-1157v71h1158z" />
    <glyph glyph-name=".notdef" horiz-adv-x="1848" 
d="M149 72h339v-72h-420v23q0 101 45 155.5t156 93.5l35 13q58 20 84 45t26 66q0 40 -32.5 65.5t-89.5 25.5q-114 0 -166 -116l-52 52q29 63 84.5 99.5t128.5 36.5q89 0 146.5 -45t57.5 -124q0 -64 -39 -103t-107 -65l-55 -20q-75 -27 -106 -54t-35 -76zM1178 274
q0 122 -81.5 203.5t-197.5 81.5t-195 -81.5t-79 -203.5q0 -123 79 -204t195 -81t197.5 81.5t81.5 203.5zM1102 274q0 -90 -60 -152t-143 -62q-85 0 -141 61t-56 153t56 152.5t141 60.5q83 0 143 -61.5t60 -151.5zM1703 81q0 -71 -48 -114t-119 -43q-105 0 -169 94l-54 -53
q83 -113 218 -113q113 0 181 67t68 162q0 106 -66 166.5t-160 60.5t-143 -53l12 220h304v72h-374l-17 -387h70q17 31 55.5 53.5t83.5 22.5q69 0 113.5 -41t44.5 -114z" />
    <glyph glyph-name=".null" horiz-adv-x="0" 
 />
    <glyph glyph-name="nonmarkingreturn" horiz-adv-x="333" 
 />
    <glyph glyph-name="space" unicode=" " horiz-adv-x="308" 
 />
    <glyph glyph-name="exclam" unicode="!" horiz-adv-x="291" 
d="M105 211v490h76v-490h-76zM91 42q0 23 15.5 39t38.5 16t38.5 -16t15.5 -39q0 -22 -15.5 -37.5t-38.5 -15.5q-22 0 -38 15.5t-16 37.5z" />
    <glyph glyph-name="quotedbl" unicode="&#x22;" horiz-adv-x="429" 
d="M85 701h72v-245h-72v245zM271 701h72v-245h-72v245z" />
    <glyph glyph-name="numbersign" unicode="#" horiz-adv-x="784" 
d="M85 274h134l43 153h-124v69h144l59 205h69l-59 -205h171l58 205h71l-59 -205h114v-69h-134l-43 -153h124v-69h-143l-57 -205h-71l58 205h-171l-58 -205h-70l58 205h-114v69zM332 427l-44 -153h171l44 153h-171z" />
    <glyph glyph-name="dollar" unicode="$" horiz-adv-x="650" 
d="M292 -114v105q-73 7 -133 41t-96 85l52 54q65 -91 177 -108v260l-14 3q-86 15 -142 63t-56 129q0 82 61.5 133t150.5 59v105h71v-105q115 -13 200 -105l-51 -56q-62 73 -149 88v-249l11 -2q101 -16 157 -66.5t56 -133.5q0 -79 -61 -133.5t-163 -61.5v-105h-71zM364 311
h-1v-251q66 5 107 38t41 87q0 100 -147 126zM156 521q0 -95 136 -121v239q-60 -6 -98 -38.5t-38 -79.5z" />
    <glyph glyph-name="percent" unicode="%" horiz-adv-x="695" 
d="M57 584q0 53 37.5 90.5t91.5 37.5q53 0 90 -37.5t37 -90.5t-37 -90.5t-90 -37.5q-54 0 -91.5 37.5t-37.5 90.5zM123 584q0 -29 19 -47t44 -18q24 0 42.5 18t18.5 47q0 30 -18.5 48t-42.5 18q-25 0 -44 -18.5t-19 -47.5zM382 116q0 54 37.5 91.5t91.5 37.5q53 0 90 -37.5
t37 -91.5q0 -52 -37 -89.5t-90 -37.5q-54 0 -91.5 37t-37.5 90zM448 116q0 -29 19 -47t44 -18q24 0 42.5 18t18.5 47t-18.5 47.5t-42.5 18.5q-25 0 -44 -18.5t-19 -47.5zM93 0l428 701h80l-427 -701h-81z" />
    <glyph glyph-name="ampersand" unicode="&#x26;" horiz-adv-x="669" 
d="M515 0l-56 71q-79 -82 -191 -82q-59 0 -104 19.5t-69.5 50.5t-36.5 64t-12 66q0 126 123 191l36 19q-44 55 -60 88.5t-16 75.5q0 66 45.5 107.5t123.5 41.5q77 0 122 -44.5t45 -111.5q0 -93 -102 -151l-47 -27l148 -191q48 74 71 166h77q-29 -124 -101 -225l98 -128h-94z
M269 57q84 0 147 70l-167 216l-15 -8q-60 -31 -87 -65t-27 -81q0 -52 40 -92t109 -40zM203 563q0 -43 50 -106l19 -24l38 21q81 42 81 103q0 38 -26.5 62.5t-69.5 24.5t-67.5 -22t-24.5 -59z" />
    <glyph glyph-name="quotesingle" unicode="'" horiz-adv-x="243" 
d="M85 701h72v-245h-72v245z" />
    <glyph glyph-name="parenleft" unicode="(" horiz-adv-x="360" 
d="M157 260q0 -121 43.5 -221.5t136.5 -194.5l-53 -49q-204 198 -204 465q0 265 204 465l53 -49q-93 -95 -136.5 -195.5t-43.5 -220.5z" />
    <glyph glyph-name="parenright" unicode=")" horiz-adv-x="360" 
d="M203 260q0 121 -43.5 221.5t-136.5 194.5l53 49q204 -198 204 -465q0 -265 -204 -465l-53 49q93 95 136.5 195.5t43.5 220.5z" />
    <glyph glyph-name="asterisk" unicode="*" horiz-adv-x="458" 
d="M99 484l80 100l-122 27l19 70l121 -39l-4 127h73l-5 -127l121 39l19 -70l-122 -27l80 -100l-58 -43l-72 106l-72 -106z" />
    <glyph glyph-name="plus" unicode="+" horiz-adv-x="630" 
d="M70 280h208v210h71v-210h211v-68h-211v-212h-71v212h-208v68z" />
    <glyph glyph-name="comma" unicode="," horiz-adv-x="268" 
d="M91 -125h-80l95 239h93z" />
    <glyph glyph-name="hyphen" unicode="-" horiz-adv-x="502" 
d="M80 228v68h342v-68h-342z" />
    <glyph glyph-name="period" unicode="." horiz-adv-x="302" 
d="M91 48q0 25 17 42.5t42 17.5q26 0 43.5 -17t17.5 -43q0 -25 -17.5 -42t-43.5 -17q-25 0 -42 17t-17 42z" />
    <glyph glyph-name="slash" unicode="/" horiz-adv-x="531" 
d="M107 0l295 701h79l-295 -701h-79z" />
    <glyph glyph-name="zero" unicode="0" horiz-adv-x="618" 
d="M484 351q0 132 -45.5 211t-129.5 79t-130 -79.5t-46 -210.5t46 -211t130 -80t129.5 79.5t45.5 211.5zM57 351q0 71 15 134t44.5 114.5t79 82t113.5 30.5t113.5 -30.5t79 -82t44.5 -114.5t15 -134t-15 -134t-44.5 -115t-79 -82.5t-113.5 -30.5t-113.5 30.5t-79 82.5
t-44.5 115t-15 134z" />
    <glyph glyph-name="one" unicode="1" horiz-adv-x="527" 
d="M68 72h178v515q-63 -50 -178 -50v68q61 3 114 26t76 70h65v-629h169v-72h-424v72z" />
    <glyph glyph-name="two" unicode="2" horiz-adv-x="577" 
d="M138 72h367v-72h-448v23q0 108 48.5 181.5t174.5 136.5l19 9q64 32 98 67.5t34 97.5q0 57 -42 91.5t-106 34.5q-63 0 -106 -37.5t-68 -96.5l-52 53q31 70 88 111t137 41q94 0 160 -54t66 -154q0 -71 -41.5 -122t-126.5 -95l-56 -28q-140 -72 -146 -187z" />
    <glyph glyph-name="three" unicode="3" horiz-adv-x="569" 
d="M384 366q49 -20 82.5 -64t33.5 -107q0 -99 -66.5 -152.5t-164.5 -53.5q-64 0 -127 27t-102 74l52 52q72 -82 182 -82q64 0 107 34t43 100q0 64 -48.5 95t-123.5 31h-53v73h42q75 0 120.5 34.5t45.5 96.5q0 59 -42.5 88t-94.5 29q-96 0 -162 -76l-51 52q87 95 209 95
q87 0 152 -49.5t65 -139.5q0 -57 -32.5 -100t-66.5 -57z" />
    <glyph glyph-name="four" unicode="4" horiz-adv-x="583" 
d="M537 177h-97v-177h-76v177h-324v66l329 458h71v-452h97v-72zM121 249h243v335z" />
    <glyph glyph-name="five" unicode="5" horiz-adv-x="552" 
d="M447 218q0 73 -45 114t-114 41q-44 0 -83 -22.5t-56 -54.5h-69l17 405h374v-72h-305l-11 -237q20 23 58.5 38t84.5 15q93 0 159 -60t66 -167q0 -95 -67.5 -162t-180.5 -67q-129 0 -218 107l54 53q70 -89 168 -89q71 0 119.5 43.5t48.5 114.5z" />
    <glyph glyph-name="six" unicode="6" horiz-adv-x="616" 
d="M329 -11q-117 0 -186 100.5t-69 267.5q0 161 70.5 258t191.5 97q120 0 193 -90l-52 -55q-53 74 -141 74q-87 0 -141 -82t-49 -211q28 52 78.5 79t104.5 27q93 0 161.5 -64t68.5 -168q0 -106 -70 -169.5t-160 -63.5zM329 382q-62 0 -106.5 -44t-44.5 -115q0 -69 45 -116
t111 -47q59 0 103.5 42t44.5 120q0 73 -45 116.5t-108 43.5z" />
    <glyph glyph-name="seven" unicode="7" horiz-adv-x="535" 
d="M46 487v214h454v-66q-218 -261 -247 -595l-3 -40h-77l4 39q15 171 74.5 327t155.5 263h-290v-142h-71z" />
    <glyph glyph-name="eight" unicode="8" horiz-adv-x="554" 
d="M277 -11q-95 0 -160.5 54t-65.5 142q0 62 40.5 109t81.5 58q-37 16 -71 55t-34 97q0 87 62.5 139t146.5 52t146.5 -52t62.5 -139q0 -58 -34 -97t-71 -55q41 -11 81.5 -58t40.5 -109q0 -88 -65.5 -142t-160.5 -54zM277 313q-65 0 -107 -34t-42 -93q0 -58 43 -92t106 -34
t106 34t43 92q0 59 -42.5 93t-106.5 34zM277 624q-50 0 -91 -31t-41 -90q0 -55 37 -86.5t95 -31.5q57 0 94.5 31.5t37.5 86.5q0 59 -41 90t-91 31z" />
    <glyph glyph-name="nine" unicode="9" horiz-adv-x="598" 
d="M286 712q114 0 184.5 -100.5t70.5 -267.5q0 -164 -67.5 -259.5t-194.5 -95.5q-119 0 -192 90l52 56q52 -75 140 -75q94 0 145 80.5t46 212.5q-28 -53 -78.5 -79.5t-105.5 -26.5q-92 0 -160.5 64t-68.5 168q0 106 69.5 169.5t159.5 63.5zM286 319q65 0 108.5 44t43.5 109
q0 72 -45 120.5t-111 48.5q-62 0 -105.5 -41.5t-43.5 -120.5q0 -72 46.5 -116t106.5 -44z" />
    <glyph glyph-name="colon" unicode=":" horiz-adv-x="291" 
d="M80 48q0 25 17 42.5t42 17.5q26 0 43.5 -17t17.5 -43q0 -25 -17.5 -42t-43.5 -17q-25 0 -42 17t-17 42zM80 436q0 25 17 42.5t42 17.5q26 0 43.5 -17t17.5 -43q0 -25 -17.5 -42t-43.5 -17q-25 0 -42 17t-17 42z" />
    <glyph glyph-name="semicolon" unicode=";" horiz-adv-x="311" 
d="M112 436q0 25 17 42.5t42 17.5q26 0 43.5 -17t17.5 -43q0 -25 -17.5 -42t-43.5 -17q-25 0 -42 17t-17 42zM117 -125h-80l95 239h93z" />
    <glyph glyph-name="less" unicode="&#x3c;" horiz-adv-x="605" 
d="M46 204v82l491 216v-78l-420 -179l420 -179v-77z" />
    <glyph glyph-name="equal" unicode="=" horiz-adv-x="650" 
d="M80 319v69h490v-69h-490zM80 137v68h490v-68h-490z" />
    <glyph glyph-name="greater" unicode="&#x3e;" horiz-adv-x="605" 
d="M559 286v-82l-491 -215v77l420 179l-420 179v78z" />
    <glyph glyph-name="question" unicode="?" horiz-adv-x="546" 
d="M278 211h-77v161l25 1q85 4 130 44t45 98q0 55 -39.5 90.5t-99.5 35.5q-114 0 -177 -109l-51 56q39 57 97.5 90.5t130.5 33.5q93 0 154.5 -53.5t61.5 -140.5q0 -79 -53 -137t-147 -73v-97zM180 48q0 25 17 42.5t42 17.5q26 0 43.5 -17t17.5 -43q0 -25 -17.5 -42
t-43.5 -17q-25 0 -42 17t-17 42z" />
    <glyph glyph-name="at" unicode="@" horiz-adv-x="1076" 
d="M361 245q0 -81 43.5 -134.5t115.5 -53.5q73 0 117 53.5t44 134.5t-44 134t-117 53t-116 -53t-43 -134zM691 74q-32 -41 -79 -63t-99 -22q-100 0 -164 74t-64 182t64 182.5t164 74.5q99 0 165 -77v65h74v-361q0 -72 51 -72q52 0 83 64.5t31 142.5q0 164 -98 272t-276 108
q-174 0 -283.5 -112t-109.5 -279t113.5 -278.5t296.5 -111.5q101 0 192 36v-70q-87 -34 -192 -34q-212 0 -346.5 132t-134.5 326q0 126 57.5 230.5t164.5 166.5t242 62q139 0 242 -62t154 -162.5t51 -223.5q0 -120 -56.5 -197.5t-136.5 -77.5q-41 0 -68 23.5t-38 61.5z" />
    <glyph glyph-name="A" unicode="A" 
d="M388 701l273 -701h-82l-64 161h-342l-62 -161h-83l274 701h86zM344 603l-141 -369h284z" />
    <glyph glyph-name="B" unicode="B" horiz-adv-x="659" 
d="M80 0v701h257q112 0 177 -46.5t65 -139.5q0 -46 -24.5 -87.5t-66.5 -62.5q50 -23 79 -68t29 -98q0 -92 -66 -145.5t-175 -53.5h-275zM156 72h208q70 0 112.5 32.5t42.5 96.5q0 59 -42.5 89.5t-108.5 30.5h-212v-249zM351 629h-195v-236h196q66 0 108 30.5t42 89.5
t-42 87.5t-109 28.5z" />
    <glyph glyph-name="C" unicode="C" horiz-adv-x="700" 
d="M617 165l49 -56q-49 -56 -119 -88t-149 -32q-151 0 -251.5 105t-100.5 255q0 151 99.5 257t247.5 106q165 0 262 -120l-51 -54q-80 103 -211 103q-116 0 -193.5 -84t-77.5 -208q0 -122 78.5 -205.5t197.5 -83.5q138 0 219 105z" />
    <glyph glyph-name="D" unicode="D" horiz-adv-x="695" 
d="M80 0v701h190q75 0 139.5 -17.5t120.5 -55.5t88 -108t32 -165q0 -77 -21.5 -138.5t-57.5 -101.5t-86 -66.5t-103 -37.5t-112 -11h-190zM279 629h-123v-557h124q59 0 109 15.5t92 47.5t66 88.5t24 131.5q0 73 -24 127.5t-66 85.5t-92.5 46t-109.5 15z" />
    <glyph glyph-name="E" unicode="E" horiz-adv-x="614" 
d="M80 0v701h459v-72h-383v-236h372v-72h-372v-249h383v-72h-459z" />
    <glyph glyph-name="F" unicode="F" horiz-adv-x="556" 
d="M156 0h-76v701h436v-72h-360v-236h338v-72h-338v-321z" />
    <glyph glyph-name="G" unicode="G" horiz-adv-x="728" 
d="M398 277v72h268v-240q-49 -56 -119 -88t-149 -32q-151 0 -251.5 105t-100.5 255q0 151 99.5 257t247.5 106q165 0 262 -120l-51 -54q-80 103 -211 103q-116 0 -193.5 -84t-77.5 -208q0 -122 78.5 -205.5t197.5 -83.5q118 0 194 76v141h-194z" />
    <glyph glyph-name="H" unicode="H" horiz-adv-x="693" 
d="M537 0v321h-381v-321h-76v701h76v-308h381v308h76v-701h-76z" />
    <glyph glyph-name="I" unicode="I" horiz-adv-x="236" 
d="M80 0v701h76v-701h-76z" />
    <glyph glyph-name="J" unicode="J" horiz-adv-x="483" 
d="M17 98l54 54q47 -92 133 -92q67 0 101 41.5t34 116.5v483h76v-483q0 -105 -55 -167t-158 -62q-62 0 -110 30.5t-75 78.5z" />
    <glyph glyph-name="K" unicode="K" horiz-adv-x="601" 
d="M58 0v701h77v-405l327 405h89l-242 -302l258 -399h-92l-219 335l-121 -150v-185h-77z" />
    <glyph glyph-name="L" unicode="L" horiz-adv-x="537" 
d="M80 0v701h76v-629h341v-72h-417z" />
    <glyph glyph-name="M" unicode="M" horiz-adv-x="798" 
d="M361 155l-205 377v-532h-76v701h74l245 -459l245 459h74v-701h-76v532l-205 -377h-76z" />
    <glyph glyph-name="N" unicode="N" horiz-adv-x="712" 
d="M554 0l-398 568v-568h-76v701h78l398 -570v570h77v-701h-79z" />
    <glyph glyph-name="O" unicode="O" horiz-adv-x="791" 
d="M46 351q0 150 100 255.5t248 105.5q149 0 250.5 -105.5t101.5 -255.5q0 -152 -101 -257t-251 -105q-149 0 -248.5 105t-99.5 257zM122 351q0 -125 77 -208t199 -83q120 0 196.5 83t76.5 208q0 123 -76.5 206.5t-196.5 83.5q-121 0 -198.5 -83.5t-77.5 -206.5z" />
    <glyph glyph-name="P" unicode="P" horiz-adv-x="609" 
d="M324 258h-168v-258h-76v701h244q117 0 186.5 -60.5t69.5 -161.5t-69 -161t-187 -60zM335 629h-179v-300h179q78 0 123.5 38t45.5 112q0 72 -45.5 111t-123.5 39z" />
    <glyph glyph-name="Q" unicode="Q" horiz-adv-x="814" 
d="M46 351q0 150 100 255.5t248 105.5q149 0 250.5 -105.5t101.5 -255.5q0 -132 -80 -233l91 -90l-51 -51l-90 90q-96 -78 -222 -78q-149 0 -248.5 105t-99.5 257zM481 202l51 51l83 -84q56 78 56 182q0 123 -76.5 206.5t-196.5 83.5q-121 0 -198.5 -83.5t-77.5 -206.5
q0 -125 77 -208t199 -83q97 0 168 57z" />
    <glyph glyph-name="R" unicode="R" horiz-adv-x="649" 
d="M506 0l-183 258h-167v-258h-76v701h244q117 0 186.5 -60.5t69.5 -161.5q0 -81 -45 -136.5t-125 -75.5l187 -267h-91zM335 629h-179v-300h179q78 0 123.5 38t45.5 112q0 72 -45.5 111t-123.5 39z" />
    <glyph glyph-name="S" unicode="S" horiz-adv-x="638" 
d="M358 311l-86 15q-86 15 -142 63t-56 129q0 89 72 141.5t170 52.5q143 0 241 -107l-51 -56q-76 92 -196 92q-69 0 -114.5 -33.5t-45.5 -86.5q0 -99 149 -123l69 -12q101 -16 157 -66.5t56 -133.5q0 -85 -70 -141t-186 -56q-86 0 -156.5 35.5t-111.5 92.5l52 54
q81 -111 225 -111q74 0 122.5 33t48.5 92q0 100 -147 126z" />
    <glyph glyph-name="T" unicode="T" horiz-adv-x="586" 
d="M34 701h518v-72h-224v-629h-76v629h-218v72z" />
    <glyph glyph-name="U" unicode="U" horiz-adv-x="668" 
d="M523 275v426h77v-426q0 -126 -71 -206t-195 -80t-195 80t-71 206v426h77v-427q0 -93 49.5 -153.5t139.5 -60.5t139.5 61t49.5 154z" />
    <glyph glyph-name="V" unicode="V" horiz-adv-x="619" 
d="M311 92l213 609h80l-251 -701h-86l-252 701h80z" />
    <glyph glyph-name="W" unicode="W" horiz-adv-x="887" 
d="M641 115l152 586h84l-194 -701h-85l-154 576l-154 -576h-86l-194 701h84l154 -586l150 586h91z" />
    <glyph glyph-name="X" unicode="X" horiz-adv-x="651" 
d="M325 421l185 280h94l-229 -342l242 -359h-94l-198 298l-198 -298h-94l242 359l-229 342h94z" />
    <glyph glyph-name="Y" unicode="Y" horiz-adv-x="578" 
d="M107 701l183 -343l181 343h84l-228 -418v-283h-76v283l-228 418h84z" />
    <glyph glyph-name="Z" unicode="Z" horiz-adv-x="621" 
d="M65 701h494v-68l-402 -561h399v-72h-493v68l401 561h-399v72z" />
    <glyph glyph-name="bracketleft" unicode="[" horiz-adv-x="361" 
d="M91 -194v895h236v-72h-159v-751h159v-72h-236z" />
    <glyph glyph-name="backslash" unicode="\" horiz-adv-x="531" 
d="M120 701l295 -701h-79l-295 701h79z" />
    <glyph glyph-name="bracketright" unicode="]" horiz-adv-x="361" 
d="M270 701v-895h-236v72h159v751h-159v72h236z" />
    <glyph glyph-name="asciicircum" unicode="^" horiz-adv-x="621" 
d="M348 701l216 -359h-80l-174 290l-174 -290h-79l215 359h76z" />
    <glyph glyph-name="underscore" unicode="_" horiz-adv-x="570" 
d="M57 -194v69h456v-69h-456z" />
    <glyph glyph-name="grave" unicode="`" horiz-adv-x="556" 
d="M165 701h97l91 -131h-74z" />
    <glyph glyph-name="a" unicode="a" horiz-adv-x="520" 
d="M222 -11q-70 0 -117.5 39.5t-47.5 109.5q0 73 50 113.5t131 40.5q54 0 134 -24v50q0 55 -33.5 85t-87.5 30q-45 0 -79 -23.5t-49 -57.5l-51 48q58 102 180 102q89 0 141.5 -50t52.5 -142v-310h-72v51q-55 -62 -152 -62zM131 136q0 -37 26.5 -59t68.5 -22q45 0 84 22.5
t62 55.5v66q-72 24 -130 24q-56 0 -83.5 -24t-27.5 -63z" />
    <glyph glyph-name="b" unicode="b" horiz-adv-x="604" 
d="M547 245q0 -108 -64 -182t-164 -74t-167 78v-67h-72v701h74v-276q66 77 165 77q100 0 164 -74.5t64 -182.5zM471 245q0 81 -43 134t-116 53t-116.5 -53t-43.5 -134t43.5 -134t116.5 -53t116 53t43 134z" />
    <glyph glyph-name="c" unicode="c" horiz-adv-x="545" 
d="M448 130l51 -47q-78 -94 -196 -94q-105 0 -175.5 74.5t-70.5 181.5q0 106 72.5 181.5t176.5 75.5q111 0 183 -87l-50 -49q-55 66 -133 66q-75 0 -124 -53.5t-49 -133.5q0 -82 47 -134.5t129 -52.5q83 0 139 72z" />
    <glyph glyph-name="d" unicode="d" horiz-adv-x="604" 
d="M57 245q0 108 64 182.5t164 74.5q99 0 165 -77v276h74v-701h-71v67q-68 -78 -168 -78t-164 74t-64 182zM133 245q0 -81 43 -134t116 -53t117 53t44 134t-44 134t-117 53t-116 -53t-43 -134z" />
    <glyph glyph-name="e" unicode="e" horiz-adv-x="556" 
d="M498 222h-365q5 -77 49 -120.5t116 -43.5q82 0 140 72l51 -47q-78 -94 -191 -94q-110 0 -175.5 70t-65.5 183q0 111 60.5 185.5t162.5 74.5q75 0 126.5 -39t72 -92.5t20.5 -114.5zM282 432q-62 0 -99 -40t-47 -104h288q-5 65 -43 104.5t-99 39.5z" />
    <glyph glyph-name="f" unicode="f" horiz-adv-x="331" 
d="M275 701l27 -1v-67h-26q-55 0 -77 -25.5t-22 -80.5v-37h114v-68h-114v-422h-74v422h-80v68h80v37q0 91 43.5 132.5t128.5 41.5z" />
    <glyph glyph-name="g" unicode="g" horiz-adv-x="593" 
d="M74 -96l54 52q52 -93 149 -93q79 0 120.5 47t41.5 124v51q-55 -74 -160 -74q-94 0 -158 70t-64 175q0 106 64 176t158 70q103 0 162 -75v63h72v-450q0 -112 -63.5 -178.5t-172.5 -66.5q-132 0 -203 109zM133 256q0 -77 43 -126t110 -49t111 49t44 126q0 78 -44 127
t-111 49t-110 -49t-43 -127z" />
    <glyph glyph-name="h" unicode="h" horiz-adv-x="559" 
d="M154 701v-270q25 32 66 51.5t87 19.5q94 0 144.5 -56.5t50.5 -160.5v-285h-75v291q0 68 -33 105t-92 37q-72 0 -110 -51t-38 -139v-243h-74v701h74z" />
    <glyph glyph-name="i" unicode="i" horiz-adv-x="249" 
d="M87 0v490h74v-490h-74zM68 657q0 23 16.5 39t39.5 16t39.5 -16t16.5 -39t-16.5 -39.5t-39.5 -16.5t-39.5 16.5t-16.5 39.5z" />
    <glyph glyph-name="j" unicode="j" horiz-adv-x="278" 
d="M86 657q0 22 16.5 38.5t39.5 16.5t39.5 -16t16.5 -39t-16.5 -39.5t-39.5 -16.5t-39.5 16.5t-16.5 39.5zM105 -42v532h74v-544q0 -78 -35 -111.5t-108 -33.5l-51 2v67q33 -1 44 -1q45 0 60.5 20.5t15.5 68.5z" />
    <glyph glyph-name="k" unicode="k" horiz-adv-x="535" 
d="M80 0v701h74v-462l227 251h97l-191 -207l202 -283h-95l-160 225l-80 -87v-138h-74z" />
    <glyph glyph-name="l" unicode="l" horiz-adv-x="234" 
d="M80 0v701h74v-701h-74z" />
    <glyph glyph-name="m" unicode="m" horiz-adv-x="855" 
d="M152 490v-59q21 30 59 50.5t82 20.5q100 0 146 -81q55 81 153 81q189 0 189 -217v-285h-74v291q0 142 -114 142q-61 0 -93.5 -42.5t-32.5 -120.5v-270h-74v286q0 147 -110 147q-63 0 -96 -42.5t-33 -120.5v-270h-74v490h72z" />
    <glyph glyph-name="n" unicode="n" horiz-adv-x="576" 
d="M152 490v-60q25 32 67 52t88 20q94 0 144.5 -56.5t50.5 -160.5v-285h-75v291q0 68 -33 105t-92 37q-72 0 -110 -51t-38 -139v-243h-74v490h72z" />
    <glyph glyph-name="o" unicode="o" horiz-adv-x="608" 
d="M57 245q0 107 70.5 182t175.5 75t176.5 -75t71.5 -182t-71 -181.5t-177 -74.5q-105 0 -175.5 74.5t-70.5 181.5zM133 245q0 -80 48 -133.5t122 -53.5q75 0 123 53.5t48 133.5t-48 133.5t-123 53.5q-74 0 -122 -53.5t-48 -133.5z" />
    <glyph glyph-name="p" unicode="p" horiz-adv-x="604" 
d="M547 245q0 -108 -64 -182t-164 -74t-165 76v-259h-74v684h72v-67q68 79 167 79q100 0 164 -74.5t64 -182.5zM471 245q0 81 -43 134t-116 53t-116.5 -53t-43.5 -134t43.5 -134t116.5 -53t116 53t43 134z" />
    <glyph glyph-name="q" unicode="q" horiz-adv-x="604" 
d="M57 245q0 108 64 182.5t164 74.5q99 0 168 -79v67h71v-684h-74v259q-65 -76 -165 -76t-164 74t-64 182zM133 245q0 -81 43 -134t116 -53t117 53t44 134t-44 134t-117 53t-116 -53t-43 -134z" />
    <glyph glyph-name="r" unicode="r" horiz-adv-x="363" 
d="M334 496v-71q-8 1 -17 1q-87 0 -125 -49t-38 -168v-209h-74v490h72v-65q32 40 69 56t91 16q11 0 22 -1z" />
    <glyph glyph-name="s" unicode="s" horiz-adv-x="484" 
d="M276 203l-73 17q-139 33 -139 141q0 66 50 103.5t119 37.5q98 0 174 -79l-50 -53q-60 63 -129 63q-40 0 -65 -19t-25 -50q0 -56 73 -72l77 -18q139 -33 139 -138q0 -65 -50 -106t-133 -41q-63 0 -115.5 26.5t-82.5 65.5l49 51q60 -75 148 -75q52 0 81 20t29 55
q0 53 -77 71z" />
    <glyph glyph-name="t" unicode="t" horiz-adv-x="342" 
d="M245 -2q-72 0 -107 33.5t-35 112.5v278h-80v68h80v137h74v-137h114v-68h-114v-267q0 -48 15.5 -68.5t59.5 -20.5l39 1v-67q-20 -2 -46 -2z" />
    <glyph glyph-name="u" unicode="u" horiz-adv-x="555" 
d="M404 0v62q-57 -73 -155 -73q-184 0 -184 216v285h74v-288q0 -70 30.5 -106.5t89.5 -36.5q71 0 106.5 49.5t35.5 138.5v243h74v-490h-71z" />
    <glyph glyph-name="v" unicode="v" horiz-adv-x="506" 
d="M478 490l-186 -490h-78l-186 490h81l144 -400l144 400h81z" />
    <glyph glyph-name="w" unicode="w" horiz-adv-x="771" 
d="M222 81l113 409h100l113 -409l113 409h81l-146 -490h-92l-119 405l-118 -405h-93l-146 490h81z" />
    <glyph glyph-name="x" unicode="x" horiz-adv-x="513" 
d="M135 490l121 -183l122 183h89l-164 -238l176 -252h-89l-134 198l-133 -198h-89l176 252l-164 238h89z" />
    <glyph glyph-name="y" unicode="y" horiz-adv-x="540" 
d="M238 -194h-81l74 188l-203 496h83l161 -407l158 407h82z" />
    <glyph glyph-name="z" unicode="z" horiz-adv-x="504" 
d="M74 490h356v-63l-274 -359h285v-68h-378v63l271 359h-260v68z" />
    <glyph glyph-name="braceleft" unicode="{" horiz-adv-x="417" 
d="M225 538v-568q0 -92 87 -92h71v-72h-84q-78 0 -114.5 45t-36.5 115v252h-114v72h114v251q0 70 36.5 115t114.5 45h84v-71h-71q-87 0 -87 -92z" />
    <glyph glyph-name="bar" unicode="|" horiz-adv-x="393" 
d="M160 -194v895h74v-895h-74z" />
    <glyph glyph-name="braceright" unicode="}" horiz-adv-x="417" 
d="M192 -30v568q0 92 -87 92h-71v71h84q78 0 114.5 -45t36.5 -115v-251h114v-72h-114v-252q0 -70 -36.5 -115t-114.5 -45h-84v72h71q87 0 87 92z" />
    <glyph glyph-name="asciitilde" unicode="~" horiz-adv-x="495" 
d="M365 319h62q5 -54 -18 -87t-68 -33q-17 0 -62 15l-62 28q-36 12 -44 12q-36 0 -36 -49h-63q-5 54 18 87t69 33q28 0 61 -15l63 -27q33 -13 43 -13q37 0 37 49z" />
    <glyph glyph-name="exclamdown" unicode="&#xa1;" horiz-adv-x="291" 
d="M186 279v-473h-77v473h77zM199 448q0 -23 -15.5 -39t-37.5 -16q-23 0 -39 16t-16 39t16 38.5t39 15.5q22 0 37.5 -15.5t15.5 -38.5z" />
    <glyph glyph-name="cent" unicode="&#xa2;" horiz-adv-x="545" 
d="M448 130l51 -47q-67 -81 -167 -92v-105h-74v107q-88 16 -144.5 86.5t-56.5 165.5q0 93 57 164t144 88v107h74v-104q93 -9 157 -85l-50 -49q-44 54 -107 64v-371q68 9 116 71zM133 245q0 -68 32.5 -117t92.5 -64v361q-56 -16 -90.5 -65t-34.5 -115z" />
    <glyph glyph-name="sterling" unicode="&#xa3;" horiz-adv-x="620" 
d="M63 325v68h68q-12 57 -12 105q0 57 20.5 100.5t54 67t69 35t72.5 11.5q123 0 202 -107l-53 -54q-61 90 -149 90q-65 0 -102.5 -40t-37.5 -102q0 -41 13 -106h199v-68h-185l56 -253h194v142h68v-214h-477v72h138l-56 253h-82z" />
    <glyph glyph-name="yen" unicode="&#xa5;" horiz-adv-x="601" 
d="M124 701l183 -315l172 315h82l-192 -338h165v-69h-190v-80h191v-68h-191v-146h-76v146h-189v68h189v80h-189v69h162l-201 338h84z" />
    <glyph glyph-name="brokenbar" unicode="&#xa6;" horiz-adv-x="393" 
d="M160 -194v365h74v-365h-74zM160 336v365h74v-365h-74z" />
    <glyph glyph-name="section" unicode="&#xa7;" horiz-adv-x="627" 
d="M551 209q0 -79 -67 -138q43 -47 43 -112q0 -68 -54 -116t-145 -48q-154 0 -235 139l54 50q67 -119 182 -119q59 0 90 25.5t31 68.5q0 71 -101 106l-116 40q-76 27 -121.5 75t-45.5 115q0 89 75 145q-37 46 -37 105q0 74 55 120.5t141 46.5q67 0 119.5 -31.5t84.5 -78.5
l-54 -54q-25 42 -66 68t-89 26q-50 0 -82.5 -25.5t-32.5 -68.5q0 -67 88 -101l101 -39q92 -35 137 -82t45 -117zM356 332l-162 65q-22 -16 -37 -44.5t-15 -54.5q0 -43 29.5 -71t90.5 -51l168 -65q44 33 44 94q0 43 -29 73t-89 54z" />
    <glyph glyph-name="dieresis" unicode="&#xa8;" horiz-adv-x="556" 
d="M132 655q0 22 14.5 37t36.5 15t37 -15t15 -37t-15 -36.5t-37 -14.5t-36.5 14.5t-14.5 36.5zM313 655q0 22 14.5 37t36.5 15t37 -15t15 -37t-15 -36.5t-37 -14.5t-36.5 14.5t-14.5 36.5z" />
    <glyph glyph-name="copyright" unicode="&#xa9;" horiz-adv-x="826" 
d="M57 351q0 150 103 255.5t253 105.5q149 0 252.5 -106t103.5 -255q0 -152 -103 -257t-253 -105t-253 105t-103 257zM122 351q0 -126 83.5 -212.5t207.5 -86.5t208 86.5t84 212.5q0 124 -84 211t-208 87t-207.5 -87t-83.5 -211zM531 264l46 -41q-63 -73 -156 -73
q-86 0 -142 57.5t-56 142.5t57.5 142t142.5 57q92 0 146 -66l-45 -44q-45 49 -101 49q-57 0 -94 -40.5t-37 -97.5q0 -58 36 -98t97 -40q60 0 106 52z" />
    <glyph glyph-name="ordfeminine" unicode="&#xaa;" horiz-adv-x="410" 
d="M171 334q-51 0 -85.5 30.5t-34.5 80.5q0 53 40 84t97 31q42 0 90 -15v25q0 84 -82 84q-64 0 -89 -58l-44 42q40 74 135 74q66 0 105 -36.5t39 -104.5v-229h-63v34q-40 -42 -108 -42zM115 445q0 -24 17.5 -39t46.5 -15q59 0 99 51v45q-45 16 -81 16t-59 -15.5t-23 -42.5z
" />
    <glyph glyph-name="guillemotleft" unicode="&#xab;" horiz-adv-x="544" 
d="M34 245l137 245h82l-139 -245l139 -245h-82zM256 245l137 245h82l-139 -245l139 -245h-82z" />
    <glyph glyph-name="logicalnot" unicode="&#xac;" horiz-adv-x="627" 
d="M68 228v68h479v-211h-68v143h-411z" />
    <glyph glyph-name="registered" unicode="&#xae;" horiz-adv-x="659" 
d="M57 435q0 115 78.5 196t192.5 81t194 -81t80 -196q0 -114 -80 -194.5t-194 -80.5t-192.5 80.5t-78.5 194.5zM120 435q0 -90 60 -152t148 -62q89 0 149.5 62t60.5 152q0 91 -60.5 153.5t-149.5 62.5q-88 0 -148 -62.5t-60 -153.5zM389 319l-54 77h-45v-77h-52v251h113
q40 0 65 -24.5t25 -61.5q0 -27 -14.5 -49t-39.5 -32l61 -84h-59zM337 526h-47v-84h47q53 0 53 42t-53 42z" />
    <glyph glyph-name="macron" unicode="&#xaf;" horiz-adv-x="556" 
d="M161 701h228v-68h-228v68z" />
    <glyph glyph-name="degree" unicode="&#xb0;" horiz-adv-x="410" 
d="M51 559q0 64 45 108.5t109 44.5t109 -44.5t45 -108.5q0 -65 -44.5 -109.5t-109.5 -44.5q-64 0 -109 45t-45 109zM120 559q0 -39 24 -64t61 -25q36 0 60.5 25t24.5 64q0 38 -24.5 63.5t-60.5 25.5q-37 0 -61 -25.5t-24 -63.5z" />
    <glyph glyph-name="plusminus" unicode="&#xb1;" horiz-adv-x="650" 
d="M80 -68v68h490v-68h-490zM80 360h208v210h71v-210h211v-68h-211v-212h-71v212h-208v68z" />
    <glyph glyph-name="twosuperior" unicode="&#xb2;" horiz-adv-x="415" 
d="M139 367h203v-59h-276v12q0 64 32 112.5t103 88.5l10 5q26 15 37 22t21.5 21.5t10.5 32.5q0 22 -19 37t-51 15q-30 0 -56 -17.5t-42 -44.5l-44 43q54 77 141 77q60 0 99 -29.5t39 -81.5q0 -42 -22.5 -68.5t-73.5 -55.5l-32 -18q-68 -38 -80 -92z" />
    <glyph glyph-name="threesuperior" unicode="&#xb3;" horiz-adv-x="397" 
d="M263 514q65 -28 65 -99q0 -56 -42 -87.5t-102 -31.5q-88 0 -138 67l43 43q42 -51 97 -51q34 0 55.5 16t21.5 43q0 65 -90 65h-31v59h24q42 0 64.5 17t22.5 46q0 25 -19.5 39t-46.5 14q-52 0 -89 -45l-42 42q47 61 131 61q52 0 91.5 -30t39.5 -78q0 -33 -17 -57.5
t-38 -32.5z" />
    <glyph glyph-name="acute" unicode="&#xb4;" horiz-adv-x="556" 
d="M308 701h97l-114 -131h-74z" />
    <glyph glyph-name="mu" unicode="&#xb5;" horiz-adv-x="570" 
d="M80 -194v684h74v-295q0 -66 31 -101t89 -35q71 0 106.5 49.5t35.5 138.5v243h74v-490h-72v62q-55 -73 -149 -73q-73 0 -115 45v-228h-74z" />
    <glyph glyph-name="mu" unicode="&#x3bc;" horiz-adv-x="570" 
d="M80 -194v684h74v-295q0 -66 31 -101t89 -35q71 0 106.5 49.5t35.5 138.5v243h74v-490h-72v62q-55 -73 -149 -73q-73 0 -115 45v-228h-74z" />
    <glyph glyph-name="paragraph" unicode="&#xb6;" horiz-adv-x="685" 
d="M377 258h-92q-118 0 -187.5 60t-69.5 161t70 161.5t187 60.5h320v-895h-76v827h-75v-827h-77v452z" />
    <glyph glyph-name="periodcentered" unicode="&#xb7;" horiz-adv-x="372" 
d="M123 261q0 25 17 42.5t42 17.5q26 0 43.5 -17t17.5 -43q0 -25 -17.5 -42t-43.5 -17q-25 0 -42 17t-17 42z" />
    <glyph glyph-name="cedilla" unicode="&#xb8;" horiz-adv-x="545" 
d="M279 -137h-80l63 131h74z" />
    <glyph glyph-name="onesuperior" unicode="&#xb9;" horiz-adv-x="386" 
d="M80 366h100v250q-34 -25 -100 -25v57q82 2 106 53h59v-335h96v-58h-261v58z" />
    <glyph glyph-name="ordmasculine" unicode="&#xba;" horiz-adv-x="481" 
d="M51 521q0 80 55.5 135.5t134.5 55.5q78 0 133.5 -56t55.5 -135t-55.5 -134.5t-133.5 -55.5q-79 0 -134.5 55.5t-55.5 134.5zM116 521q0 -56 34.5 -92.5t90.5 -36.5q55 0 89.5 37t34.5 92q0 56 -34.5 93t-89.5 37q-56 0 -90.5 -37t-34.5 -93z" />
    <glyph glyph-name="guillemotright" unicode="&#xbb;" horiz-adv-x="544" 
d="M150 490l137 -245l-137 -245h-82l139 245l-139 245h82zM373 490l137 -245l-137 -245h-82l139 245l-139 245h82z" />
    <glyph glyph-name="onequarter" unicode="&#xbc;" horiz-adv-x="936" 
d="M879 81h-53v-81h-64v81h-192v52l194 255h62v-249h53v-58zM643 139h119v156zM246 0l428 701h80l-427 -701h-81zM80 366h100v250q-34 -25 -100 -25v57q82 2 106 53h59v-335h96v-58h-261v58z" />
    <glyph glyph-name="onehalf" unicode="&#xbd;" horiz-adv-x="974" 
d="M246 0l428 701h80l-427 -701h-81zM80 366h100v250q-34 -25 -100 -25v57q82 2 106 53h59v-335h96v-58h-261v58zM709 59h203v-59h-276v12q0 64 32 112.5t103 88.5l10 5q26 15 37 22t21.5 21.5t10.5 32.5q0 22 -19 37t-51 15q-30 0 -56 -17.5t-42 -44.5l-44 43q54 77 141 77
q60 0 99 -29.5t39 -81.5q0 -42 -22.5 -68.5t-73.5 -55.5l-32 -18q-68 -38 -80 -92z" />
    <glyph glyph-name="threequarters" unicode="&#xbe;" horiz-adv-x="868" 
d="M822 81h-53v-81h-64v81h-192v52l194 255h62v-249h53v-58zM586 139h119v156zM263 514q65 -28 65 -99q0 -56 -42 -87.5t-102 -31.5q-88 0 -138 67l43 43q42 -51 97 -51q34 0 55.5 16t21.5 43q0 65 -90 65h-31v59h24q42 0 64.5 17t22.5 46q0 25 -19.5 39t-46.5 14
q-52 0 -89 -45l-42 42q47 61 131 61q52 0 91.5 -30t39.5 -78q0 -33 -17 -57.5t-38 -32.5zM209 0l428 701h80l-427 -701h-81z" />
    <glyph glyph-name="questiondown" unicode="&#xbf;" horiz-adv-x="546" 
d="M341 279h-78v-91q-95 -16 -147 -71t-52 -133q0 -87 60.5 -138t154.5 -51q73 0 131 33.5t97 90.5l-51 56q-62 -108 -177 -108q-61 0 -100 32t-39 87q0 57 45 95t131 42l25 1v155zM361 442q0 -25 -17 -42.5t-42 -17.5q-26 0 -43 17t-17 43q0 25 17.5 42.5t42.5 17.5
t42 -17.5t17 -42.5z" />
    <glyph glyph-name="Agrave" unicode="&#xc0;" 
d="M399 701l273 -701h-82l-64 161h-342l-62 -161h-83l274 701h86zM355 603l-141 -369h284zM214 872h103l91 -103h-85z" />
    <glyph glyph-name="Aacute" unicode="&#xc1;" 
d="M399 701l273 -701h-82l-64 161h-342l-62 -161h-83l274 701h86zM355 603l-141 -369h284zM370 872h103l-108 -103h-86z" />
    <glyph glyph-name="Acircumflex" unicode="&#xc2;" 
d="M399 701l273 -701h-82l-64 161h-342l-62 -161h-83l274 701h86zM355 603l-141 -369h284zM296 872h97l97 -103h-80l-65 62l-66 -62h-79z" />
    <glyph glyph-name="Atilde" unicode="&#xc3;" 
d="M399 701l273 -701h-82l-64 161h-342l-62 -161h-83l274 701h86zM355 603l-141 -369h284zM424 872h57q0 -48 -20.5 -75.5t-54.5 -27.5q-22 0 -42 10l-30 12q-25 10 -38 10q-28 0 -30 -32h-57q0 48 20.5 75.5t54.5 27.5q24 0 42 -9l30 -13q30 -10 37 -10q29 0 31 32z" />
    <glyph glyph-name="Adieresis" unicode="&#xc4;" 
d="M399 701l273 -701h-82l-64 161h-342l-62 -161h-83l274 701h86zM355 603l-141 -369h284zM214 820q0 22 14.5 37t36.5 15t37 -15t15 -37t-15 -36.5t-37 -14.5t-36.5 14.5t-14.5 36.5zM395 820q0 22 14.5 37t36.5 15t37 -15t15 -37t-15 -36.5t-37 -14.5t-36.5 14.5
t-14.5 36.5z" />
    <glyph glyph-name="Aring" unicode="&#xc5;" 
d="M269 777q0 39 25.5 64t61.5 25q38 0 64 -25t26 -64q0 -52 -47 -77l273 -700h-82l-64 161h-342l-62 -161h-83l275 701q-45 25 -45 76zM355 603l-141 -369h284zM324 777q0 -14 10 -23.5t24 -9.5t23.5 9.5t9.5 23.5q0 15 -9.5 24.5t-23.5 9.5t-24 -9.5t-10 -24.5z" />
    <glyph glyph-name="AE" unicode="&#xc6;" horiz-adv-x="893" 
d="M824 701v-72h-420l92 -236h317v-72h-289l98 -249h202v-72h-256l-64 161h-342l-63 -161h-82l274 701h533zM333 603l-141 -369h283z" />
    <glyph glyph-name="Ccedilla" unicode="&#xc7;" horiz-adv-x="700" 
d="M379 -137h-80l61 128q-137 13 -225.5 115.5t-88.5 242.5q0 151 99.5 257t247.5 106q165 0 262 -120l-51 -54q-80 103 -211 103q-116 0 -193.5 -84t-77.5 -208q0 -122 78.5 -205.5t197.5 -83.5q138 0 219 105l49 -56q-90 -104 -232 -118z" />
    <glyph glyph-name="Egrave" unicode="&#xc8;" horiz-adv-x="608" 
d="M80 0v701h459v-72h-383v-236h372v-72h-372v-249h383v-72h-459zM182 872h103l91 -103h-85z" />
    <glyph glyph-name="Eacute" unicode="&#xc9;" horiz-adv-x="608" 
d="M80 0v701h459v-72h-383v-236h372v-72h-372v-249h383v-72h-459zM336 872h103l-108 -103h-86z" />
    <glyph glyph-name="Ecircumflex" unicode="&#xca;" horiz-adv-x="608" 
d="M80 0v701h459v-72h-383v-236h372v-72h-372v-249h383v-72h-459zM266 872h97l97 -103h-80l-65 62l-66 -62h-79z" />
    <glyph glyph-name="Edieresis" unicode="&#xcb;" horiz-adv-x="608" 
d="M80 0v701h459v-72h-383v-236h372v-72h-372v-249h383v-72h-459zM168 813q0 22 14.5 37t36.5 15t37 -15t15 -37t-15 -36.5t-37 -14.5t-36.5 14.5t-14.5 36.5zM349 813q0 22 14.5 37t36.5 15t37 -15t15 -37t-15 -36.5t-37 -14.5t-36.5 14.5t-14.5 36.5z" />
    <glyph glyph-name="Igrave" unicode="&#xcc;" horiz-adv-x="236" 
d="M80 0v701h76v-701h-76zM-16 872h103l91 -103h-85z" />
    <glyph glyph-name="Iacute" unicode="&#xcd;" horiz-adv-x="236" 
d="M80 0v701h76v-701h-76zM147 872h103l-108 -103h-86z" />
    <glyph glyph-name="Icircumflex" unicode="&#xce;" horiz-adv-x="236" 
d="M80 0v701h76v-701h-76zM69 872h97l97 -103h-80l-65 62l-66 -62h-79z" />
    <glyph glyph-name="Idieresis" unicode="&#xcf;" horiz-adv-x="236" 
d="M80 0v701h76v-701h-76zM-24 815q0 22 14.5 37t36.5 15t37 -15t15 -37t-15 -36.5t-37 -14.5t-36.5 14.5t-14.5 36.5zM157 815q0 22 14.5 37t36.5 15t37 -15t15 -37t-15 -36.5t-37 -14.5t-36.5 14.5t-14.5 36.5z" />
    <glyph glyph-name="Eth" unicode="&#xd0;" horiz-adv-x="718" 
d="M103 0v321h-80v72h80v308h190q75 0 139.5 -17.5t120.5 -55.5t88 -108t32 -165q0 -77 -21.5 -138.5t-57.5 -101.5t-86 -66.5t-103 -37.5t-112 -11h-190zM302 629h-123v-236h129v-72h-129v-249h124q59 0 109 15.5t92 47.5t66 88.5t24 131.5q0 73 -24 127.5t-66 85.5
t-92.5 46t-109.5 15z" />
    <glyph glyph-name="Ntilde" unicode="&#xd1;" horiz-adv-x="712" 
d="M554 0l-398 568v-568h-76v701h78l398 -570v570h77v-701h-79zM433 872h57q0 -48 -20.5 -75.5t-54.5 -27.5q-22 0 -42 10l-30 12q-25 10 -38 10q-28 0 -30 -32h-57q0 48 20.5 75.5t54.5 27.5q24 0 42 -9l30 -13q30 -10 37 -10q29 0 31 32z" />
    <glyph glyph-name="Ograve" unicode="&#xd2;" horiz-adv-x="791" 
d="M46 351q0 150 100 255.5t248 105.5q149 0 250.5 -105.5t101.5 -255.5q0 -152 -101 -257t-251 -105q-149 0 -248.5 105t-99.5 257zM122 351q0 -125 77 -208t199 -83q120 0 196.5 83t76.5 208q0 123 -76.5 206.5t-196.5 83.5q-121 0 -198.5 -83.5t-77.5 -206.5zM249 872
h103l91 -103h-85z" />
    <glyph glyph-name="Oacute" unicode="&#xd3;" horiz-adv-x="791" 
d="M46 351q0 150 100 255.5t248 105.5q149 0 250.5 -105.5t101.5 -255.5q0 -152 -101 -257t-251 -105q-149 0 -248.5 105t-99.5 257zM122 351q0 -125 77 -208t199 -83q120 0 196.5 83t76.5 208q0 123 -76.5 206.5t-196.5 83.5q-121 0 -198.5 -83.5t-77.5 -206.5zM424 872
h103l-108 -103h-86z" />
    <glyph glyph-name="Ocircumflex" unicode="&#xd4;" horiz-adv-x="791" 
d="M46 351q0 150 100 255.5t248 105.5q149 0 250.5 -105.5t101.5 -255.5q0 -152 -101 -257t-251 -105q-149 0 -248.5 105t-99.5 257zM122 351q0 -125 77 -208t199 -83q120 0 196.5 83t76.5 208q0 123 -76.5 206.5t-196.5 83.5q-121 0 -198.5 -83.5t-77.5 -206.5zM346 872h97
l97 -103h-80l-65 62l-66 -62h-79z" />
    <glyph glyph-name="Otilde" unicode="&#xd5;" horiz-adv-x="791" 
d="M46 351q0 150 100 255.5t248 105.5q149 0 250.5 -105.5t101.5 -255.5q0 -152 -101 -257t-251 -105q-149 0 -248.5 105t-99.5 257zM122 351q0 -125 77 -208t199 -83q120 0 196.5 83t76.5 208q0 123 -76.5 206.5t-196.5 83.5q-121 0 -198.5 -83.5t-77.5 -206.5zM473 872h57
q0 -48 -20.5 -75.5t-54.5 -27.5q-22 0 -42 10l-30 12q-25 10 -38 10q-28 0 -30 -32h-57q0 48 20.5 75.5t54.5 27.5q24 0 42 -9l30 -13q30 -10 37 -10q29 0 31 32z" />
    <glyph glyph-name="Odieresis" unicode="&#xd6;" horiz-adv-x="791" 
d="M46 351q0 150 100 255.5t248 105.5q149 0 250.5 -105.5t101.5 -255.5q0 -152 -101 -257t-251 -105q-149 0 -248.5 105t-99.5 257zM122 351q0 -125 77 -208t199 -83q120 0 196.5 83t76.5 208q0 123 -76.5 206.5t-196.5 83.5q-121 0 -198.5 -83.5t-77.5 -206.5zM252 815
q0 22 14.5 37t36.5 15t37 -15t15 -37t-15 -36.5t-37 -14.5t-36.5 14.5t-14.5 36.5zM433 815q0 22 14.5 37t36.5 15t37 -15t15 -37t-15 -36.5t-37 -14.5t-36.5 14.5t-14.5 36.5z" />
    <glyph glyph-name="multiply" unicode="&#xd7;" horiz-adv-x="568" 
d="M129 449l155 -155l154 154l49 -48l-154 -154l155 -156l-48 -48l-156 155l-155 -155l-49 48l156 156l-155 155z" />
    <glyph glyph-name="Oslash" unicode="&#xd8;" horiz-adv-x="803" 
d="M52 351q0 150 100 255.5t248 105.5q95 0 175 -47l41 59l55 -40l-41 -58q58 -51 90 -122.5t32 -152.5q0 -152 -101 -257t-251 -105q-98 0 -180 49l-42 -60l-56 40l43 62q-113 107 -113 271zM677 351q0 133 -87 217l-329 -471q63 -37 143 -37q120 0 196.5 83t76.5 208z
M128 351q0 -128 79 -210l328 467q-60 33 -131 33q-121 0 -198.5 -83.5t-77.5 -206.5z" />
    <glyph glyph-name="Ugrave" unicode="&#xd9;" horiz-adv-x="668" 
d="M523 275v426h77v-426q0 -126 -71 -206t-195 -80t-195 80t-71 206v426h77v-427q0 -93 49.5 -153.5t139.5 -60.5t139.5 61t49.5 154zM210 872h103l91 -103h-85z" />
    <glyph glyph-name="Uacute" unicode="&#xda;" horiz-adv-x="668" 
d="M523 275v426h77v-426q0 -126 -71 -206t-195 -80t-195 80t-71 206v426h77v-427q0 -93 49.5 -153.5t139.5 -60.5t139.5 61t49.5 154zM360 872h103l-108 -103h-86z" />
    <glyph glyph-name="Ucircumflex" unicode="&#xdb;" horiz-adv-x="668" 
d="M523 275v426h77v-426q0 -126 -71 -206t-195 -80t-195 80t-71 206v426h77v-427q0 -93 49.5 -153.5t139.5 -60.5t139.5 61t49.5 154zM289 872h97l97 -103h-80l-65 62l-66 -62h-79z" />
    <glyph glyph-name="Udieresis" unicode="&#xdc;" horiz-adv-x="668" 
d="M523 275v426h77v-426q0 -126 -71 -206t-195 -80t-195 80t-71 206v426h77v-427q0 -93 49.5 -153.5t139.5 -60.5t139.5 61t49.5 154zM194 815q0 22 14.5 37t36.5 15t37 -15t15 -37t-15 -36.5t-37 -14.5t-36.5 14.5t-14.5 36.5zM375 815q0 22 14.5 37t36.5 15t37 -15t15 -37
t-15 -36.5t-37 -14.5t-36.5 14.5t-14.5 36.5z" />
    <glyph glyph-name="Yacute" unicode="&#xdd;" horiz-adv-x="578" 
d="M107 701l183 -343l181 343h84l-228 -418v-283h-76v283l-228 418h84zM325 872h103l-108 -103h-86z" />
    <glyph glyph-name="Thorn" unicode="&#xde;" horiz-adv-x="609" 
d="M324 138h-168v-138h-76v701h76v-120h168q118 0 187 -60.5t69 -161.5t-69.5 -161t-186.5 -60zM335 510h-179v-300h179q78 0 123.5 38t45.5 111q0 72 -45.5 111.5t-123.5 39.5z" />
    <glyph glyph-name="germandbls" unicode="&#xdf;" horiz-adv-x="644" 
d="M85 0v430q0 129 63 200t183 71q91 0 158 -57t67 -141q0 -47 -21.5 -86t-55.5 -59q48 -25 78 -68.5t30 -100.5q0 -93 -62.5 -141t-159.5 -48h-95v68h80q67 0 115 29.5t48 92.5q0 59 -45 92.5t-115 33.5h-83v68h75q59 0 97.5 30.5t38.5 91.5q0 52 -41.5 89.5t-108.5 37.5
q-83 0 -127 -51.5t-44 -151.5v-430h-75z" />
    <glyph glyph-name="agrave" unicode="&#xe0;" horiz-adv-x="520" 
d="M222 -11q-70 0 -117.5 39.5t-47.5 109.5q0 73 50 113.5t131 40.5q54 0 134 -24v50q0 55 -33.5 85t-87.5 30q-45 0 -79 -23.5t-49 -57.5l-51 48q58 102 180 102q89 0 141.5 -50t52.5 -142v-310h-72v51q-55 -62 -152 -62zM131 136q0 -37 26.5 -59t68.5 -22q45 0 84 22.5
t62 55.5v66q-72 24 -130 24q-56 0 -83.5 -24t-27.5 -63zM138 701h97l91 -131h-74z" />
    <glyph glyph-name="aacute" unicode="&#xe1;" horiz-adv-x="520" 
d="M222 -11q-70 0 -117.5 39.5t-47.5 109.5q0 73 50 113.5t131 40.5q54 0 134 -24v50q0 55 -33.5 85t-87.5 30q-45 0 -79 -23.5t-49 -57.5l-51 48q58 102 180 102q89 0 141.5 -50t52.5 -142v-310h-72v51q-55 -62 -152 -62zM131 136q0 -37 26.5 -59t68.5 -22q45 0 84 22.5
t62 55.5v66q-72 24 -130 24q-56 0 -83.5 -24t-27.5 -63zM286 701h97l-114 -131h-74z" />
    <glyph glyph-name="acircumflex" unicode="&#xe2;" horiz-adv-x="520" 
d="M222 -11q-70 0 -117.5 39.5t-47.5 109.5q0 73 50 113.5t131 40.5q54 0 134 -24v50q0 55 -33.5 85t-87.5 30q-45 0 -79 -23.5t-49 -57.5l-51 48q58 102 180 102q89 0 141.5 -50t52.5 -142v-310h-72v51q-55 -62 -152 -62zM131 136q0 -37 26.5 -59t68.5 -22q45 0 84 22.5
t62 55.5v66q-72 24 -130 24q-56 0 -83.5 -24t-27.5 -63zM207 701h97l97 -131h-74l-72 82l-71 -82h-74z" />
    <glyph glyph-name="atilde" unicode="&#xe3;" horiz-adv-x="520" 
d="M222 -11q-70 0 -117.5 39.5t-47.5 109.5q0 73 50 113.5t131 40.5q54 0 134 -24v50q0 55 -33.5 85t-87.5 30q-45 0 -79 -23.5t-49 -57.5l-51 48q58 102 180 102q89 0 141.5 -50t52.5 -142v-310h-72v51q-55 -62 -152 -62zM131 136q0 -37 26.5 -59t68.5 -22q45 0 84 22.5
t62 55.5v66q-72 24 -130 24q-56 0 -83.5 -24t-27.5 -63zM336 701h57q0 -48 -20.5 -75.5t-54.5 -27.5q-22 0 -42 10l-30 12q-25 10 -38 10q-28 0 -30 -32h-57q0 48 20.5 75.5t54.5 27.5q24 0 42 -9l30 -13q30 -10 37 -10q29 0 31 32z" />
    <glyph glyph-name="adieresis" unicode="&#xe4;" horiz-adv-x="520" 
d="M222 -11q-70 0 -117.5 39.5t-47.5 109.5q0 73 50 113.5t131 40.5q54 0 134 -24v50q0 55 -33.5 85t-87.5 30q-45 0 -79 -23.5t-49 -57.5l-51 48q58 102 180 102q89 0 141.5 -50t52.5 -142v-310h-72v51q-55 -62 -152 -62zM131 136q0 -37 26.5 -59t68.5 -22q45 0 84 22.5
t62 55.5v66q-72 24 -130 24q-56 0 -83.5 -24t-27.5 -63zM116 655q0 22 14.5 37t36.5 15t37 -15t15 -37t-15 -36.5t-37 -14.5t-36.5 14.5t-14.5 36.5zM297 655q0 22 14.5 37t36.5 15t37 -15t15 -37t-15 -36.5t-37 -14.5t-36.5 14.5t-14.5 36.5z" />
    <glyph glyph-name="aring" unicode="&#xe5;" horiz-adv-x="520" 
d="M222 -11q-70 0 -117.5 39.5t-47.5 109.5q0 73 50 113.5t131 40.5q54 0 134 -24v50q0 55 -33.5 85t-87.5 30q-45 0 -79 -23.5t-49 -57.5l-51 48q58 102 180 102q89 0 141.5 -50t52.5 -142v-310h-72v51q-55 -62 -152 -62zM131 136q0 -37 26.5 -59t68.5 -22q45 0 84 22.5
t62 55.5v66q-72 24 -130 24q-56 0 -83.5 -24t-27.5 -63zM182 635q0 34 22 55.5t53 21.5q34 0 56.5 -21.5t22.5 -55.5q0 -32 -22.5 -54t-56.5 -22q-31 0 -53 22.5t-22 53.5zM230 635q0 -13 8.5 -21t21.5 -8q12 0 20 8t8 21t-8 20.5t-20 7.5q-13 0 -21.5 -7.5t-8.5 -20.5z" />
    <glyph glyph-name="ae" unicode="&#xe6;" horiz-adv-x="871" 
d="M418 81q-68 -92 -201 -92q-68 0 -114 41t-46 108q0 73 58 113t147 40h111v27q0 53 -32.5 84t-87.5 31q-93 0 -130 -81l-51 48q58 102 182 102q120 0 168 -90q64 90 173 90q75 0 126.5 -39t72 -92.5t20.5 -114.5l-1 -34h-365q5 -77 48.5 -120.5t115.5 -43.5q84 0 140 72
l52 -47q-80 -94 -198 -94q-126 0 -188 92zM131 136q0 -37 26 -59t65 -22q53 0 99.5 27t64.5 64q-13 36 -13 76h-113q-61 0 -95 -23.5t-34 -62.5zM596 432q-61 0 -98.5 -40t-47.5 -104h289q-5 65 -43.5 104.5t-99.5 39.5z" />
    <glyph glyph-name="ccedilla" unicode="&#xe7;" horiz-adv-x="545" 
d="M279 -137h-80l62 130q-89 14 -146.5 85.5t-57.5 166.5q0 106 72.5 181.5t176.5 75.5q111 0 183 -87l-50 -49q-55 66 -133 66q-75 0 -124 -53.5t-49 -133.5q0 -82 47 -134.5t129 -52.5q83 0 139 72l51 -47q-67 -81 -165 -92z" />
    <glyph glyph-name="egrave" unicode="&#xe8;" horiz-adv-x="556" 
d="M498 222h-365q5 -77 49 -120.5t116 -43.5q82 0 140 72l51 -47q-78 -94 -191 -94q-110 0 -175.5 70t-65.5 183q0 111 60.5 185.5t162.5 74.5q75 0 126.5 -39t72 -92.5t20.5 -114.5zM282 432q-62 0 -99 -40t-47 -104h288q-5 65 -43 104.5t-99 39.5zM165 701h97l91 -131h-74
z" />
    <glyph glyph-name="eacute" unicode="&#xe9;" horiz-adv-x="556" 
d="M133 222h365q1 17 1 34q0 61 -20.5 114.5t-72 92.5t-126.5 39q-102 0 -162.5 -74.5t-60.5 -185.5q0 -113 65.5 -183t175.5 -70q113 0 191 94l-51 47q-58 -72 -140 -72q-72 0 -116 43.5t-49 120.5zM282 432q61 0 99 -39.5t43 -104.5h-288q10 64 47 104t99 40zM308 701h97
l-114 -131h-74z" />
    <glyph glyph-name="ecircumflex" unicode="&#xea;" horiz-adv-x="556" 
d="M133 222h365q1 17 1 34q0 61 -20.5 114.5t-72 92.5t-126.5 39q-102 0 -162.5 -74.5t-60.5 -185.5q0 -113 65.5 -183t175.5 -70q113 0 191 94l-51 47q-58 -72 -140 -72q-72 0 -116 43.5t-49 120.5zM282 432q61 0 99 -39.5t43 -104.5h-288q10 64 47 104t99 40zM235 701h97
l97 -131h-74l-72 82l-71 -82h-74z" />
    <glyph glyph-name="edieresis" unicode="&#xeb;" horiz-adv-x="556" 
d="M133 222h365q1 17 1 34q0 61 -20.5 114.5t-72 92.5t-126.5 39q-102 0 -162.5 -74.5t-60.5 -185.5q0 -113 65.5 -183t175.5 -70q113 0 191 94l-51 47q-58 -72 -140 -72q-72 0 -116 43.5t-49 120.5zM282 432q61 0 99 -39.5t43 -104.5h-288q10 64 47 104t99 40zM138 655
q0 22 14.5 37t36.5 15t37 -15t15 -37t-15 -36.5t-37 -14.5t-36.5 14.5t-14.5 36.5zM319 655q0 22 14.5 37t36.5 15t37 -15t15 -37t-15 -36.5t-37 -14.5t-36.5 14.5t-14.5 36.5z" />
    <glyph glyph-name="igrave" unicode="&#xec;" horiz-adv-x="249" 
d="M87 0v490h74v-490h-74zM-6 701h97l91 -131h-74z" />
    <glyph glyph-name="iacute" unicode="&#xed;" horiz-adv-x="249" 
d="M87 0v490h74v-490h-74zM155 701h97l-114 -131h-74z" />
    <glyph glyph-name="icircumflex" unicode="&#xee;" horiz-adv-x="249" 
d="M87 0v490h74v-490h-74zM75 701h97l97 -131h-74l-72 82l-71 -82h-74z" />
    <glyph glyph-name="idieresis" unicode="&#xef;" horiz-adv-x="249" 
d="M87 0v490h74v-490h-74zM-18 655q0 22 14.5 37t36.5 15t37 -15t15 -37t-15 -36.5t-37 -14.5t-36.5 14.5t-14.5 36.5zM163 655q0 22 14.5 37t36.5 15t37 -15t15 -37t-15 -36.5t-37 -14.5t-36.5 14.5t-14.5 36.5z" />
    <glyph glyph-name="eth" unicode="&#xf0;" horiz-adv-x="593" 
d="M186 512v68l75 41l-57 80h88l31 -46l104 57v-68l-69 -38l112 -161q84 -121 84 -217q0 -104 -68 -171.5t-175 -67.5q-102 0 -172.5 63t-70.5 170q0 104 70.5 168t167.5 64q47 0 86 -17l-96 135zM477 221q0 72 -48 116.5t-118 44.5t-118 -44.5t-48 -116.5t48 -116.5
t118 -44.5q69 0 117.5 44.5t48.5 116.5z" />
    <glyph glyph-name="ntilde" unicode="&#xf1;" horiz-adv-x="576" 
d="M152 490v-60q25 32 67 52t88 20q94 0 144.5 -56.5t50.5 -160.5v-285h-75v291q0 68 -33 105t-92 37q-72 0 -110 -51t-38 -139v-243h-74v490h72zM364 701h57q0 -48 -20.5 -75.5t-54.5 -27.5q-22 0 -42 10l-30 12q-25 10 -38 10q-28 0 -30 -32h-57q0 48 20.5 75.5t54.5 27.5
q24 0 42 -9l30 -13q30 -10 37 -10q29 0 31 32z" />
    <glyph glyph-name="ograve" unicode="&#xf2;" horiz-adv-x="608" 
d="M57 245q0 107 70.5 182t175.5 75t176.5 -75t71.5 -182t-71 -181.5t-177 -74.5q-105 0 -175.5 74.5t-70.5 181.5zM133 245q0 -80 48 -133.5t122 -53.5q75 0 123 53.5t48 133.5t-48 133.5t-123 53.5q-74 0 -122 -53.5t-48 -133.5zM181 701h97l91 -131h-74z" />
    <glyph glyph-name="oacute" unicode="&#xf3;" horiz-adv-x="608" 
d="M57 245q0 107 70.5 182t175.5 75t176.5 -75t71.5 -182t-71 -181.5t-177 -74.5q-105 0 -175.5 74.5t-70.5 181.5zM133 245q0 -80 48 -133.5t122 -53.5q75 0 123 53.5t48 133.5t-48 133.5t-123 53.5q-74 0 -122 -53.5t-48 -133.5zM318 701h97l-114 -131h-74z" />
    <glyph glyph-name="ocircumflex" unicode="&#xf4;" horiz-adv-x="608" 
d="M57 245q0 107 70.5 182t175.5 75t176.5 -75t71.5 -182t-71 -181.5t-177 -74.5q-105 0 -175.5 74.5t-70.5 181.5zM133 245q0 -80 48 -133.5t122 -53.5q75 0 123 53.5t48 133.5t-48 133.5t-123 53.5q-74 0 -122 -53.5t-48 -133.5zM254 701h97l97 -131h-74l-72 82l-71 -82
h-74z" />
    <glyph glyph-name="otilde" unicode="&#xf5;" horiz-adv-x="608" 
d="M57 245q0 107 70.5 182t175.5 75t176.5 -75t71.5 -182t-71 -181.5t-177 -74.5q-105 0 -175.5 74.5t-70.5 181.5zM133 245q0 -80 48 -133.5t122 -53.5q75 0 123 53.5t48 133.5t-48 133.5t-123 53.5q-74 0 -122 -53.5t-48 -133.5zM377 701h57q0 -48 -20.5 -75.5
t-54.5 -27.5q-22 0 -42 10l-30 12q-25 10 -38 10q-28 0 -30 -32h-57q0 48 20.5 75.5t54.5 27.5q24 0 42 -9l30 -13q30 -10 37 -10q29 0 31 32z" />
    <glyph glyph-name="odieresis" unicode="&#xf6;" horiz-adv-x="608" 
d="M57 245q0 107 70.5 182t175.5 75t176.5 -75t71.5 -182t-71 -181.5t-177 -74.5q-105 0 -175.5 74.5t-70.5 181.5zM133 245q0 -80 48 -133.5t122 -53.5q75 0 123 53.5t48 133.5t-48 133.5t-123 53.5q-74 0 -122 -53.5t-48 -133.5zM160 655q0 22 14.5 37t36.5 15t37 -15
t15 -37t-15 -36.5t-37 -14.5t-36.5 14.5t-14.5 36.5zM341 655q0 22 14.5 37t36.5 15t37 -15t15 -37t-15 -36.5t-37 -14.5t-36.5 14.5t-14.5 36.5z" />
    <glyph glyph-name="divide" unicode="&#xf7;" horiz-adv-x="650" 
d="M80 215v68h490v-68h-490zM267 48q0 25 17 42.5t42 17.5q26 0 43.5 -17t17.5 -43q0 -25 -17.5 -42t-43.5 -17q-25 0 -42 17t-17 42zM267 441q0 25 17 42.5t42 17.5q26 0 43.5 -17t17.5 -43q0 -25 -17.5 -42t-43.5 -17q-25 0 -42 17t-17 42z" />
    <glyph glyph-name="oslash" unicode="&#xf8;" horiz-adv-x="619" 
d="M63 245q0 107 70.5 182t175.5 75q62 0 116 -30l29 41l56 -40l-29 -42q76 -76 76 -186q0 -107 -71 -181.5t-177 -74.5q-63 0 -118 30l-29 -42l-56 40l30 43q-73 75 -73 185zM480 245q0 75 -42 126l-207 -295q35 -18 78 -18q75 0 123 53.5t48 133.5zM139 245q0 -75 40 -124
l206 293q-35 18 -76 18q-74 0 -122 -53.5t-48 -133.5z" />
    <glyph glyph-name="ugrave" unicode="&#xf9;" horiz-adv-x="547" 
d="M396 0v62q-57 -73 -155 -73q-184 0 -184 216v285h74v-288q0 -70 30.5 -106.5t89.5 -36.5q71 0 106.5 49.5t35.5 138.5v243h74v-490h-71zM134 701h97l91 -131h-74z" />
    <glyph glyph-name="uacute" unicode="&#xfa;" horiz-adv-x="547" 
d="M396 0v62q-57 -73 -155 -73q-184 0 -184 216v285h74v-288q0 -70 30.5 -106.5t89.5 -36.5q71 0 106.5 49.5t35.5 138.5v243h74v-490h-71zM286 701h97l-114 -131h-74z" />
    <glyph glyph-name="ucircumflex" unicode="&#xfb;" horiz-adv-x="547" 
d="M396 0v62q-57 -73 -155 -73q-184 0 -184 216v285h74v-288q0 -70 30.5 -106.5t89.5 -36.5q71 0 106.5 49.5t35.5 138.5v243h74v-490h-71zM213 701h97l97 -131h-74l-72 82l-71 -82h-74z" />
    <glyph glyph-name="udieresis" unicode="&#xfc;" horiz-adv-x="547" 
d="M396 0v62q-57 -73 -155 -73q-184 0 -184 216v285h74v-288q0 -70 30.5 -106.5t89.5 -36.5q71 0 106.5 49.5t35.5 138.5v243h74v-490h-71zM122 655q0 22 14.5 37t36.5 15t37 -15t15 -37t-15 -36.5t-37 -14.5t-36.5 14.5t-14.5 36.5zM303 655q0 22 14.5 37t36.5 15t37 -15
t15 -37t-15 -36.5t-37 -14.5t-36.5 14.5t-14.5 36.5z" />
    <glyph glyph-name="yacute" unicode="&#xfd;" horiz-adv-x="540" 
d="M157 -194h81l274 684h-82l-158 -407l-161 407h-83l203 -496zM314 701h97l-114 -131h-74z" />
    <glyph glyph-name="thorn" unicode="&#xfe;" horiz-adv-x="604" 
d="M547 245q0 -108 -64 -182t-164 -74t-165 76v-259h-74v895h74v-278q68 79 165 79q100 0 164 -74.5t64 -182.5zM471 245q0 81 -43 134t-116 53t-116.5 -53t-43.5 -134t43.5 -134t116.5 -53t116 53t43 134z" />
    <glyph glyph-name="ydieresis" unicode="&#xff;" horiz-adv-x="540" 
d="M157 -194h81l274 684h-82l-158 -407l-161 407h-83l203 -496zM131 655q0 22 14.5 37t36.5 15t37 -15t15 -37t-15 -36.5t-37 -14.5t-36.5 14.5t-14.5 36.5zM312 655q0 22 14.5 37t36.5 15t37 -15t15 -37t-15 -36.5t-37 -14.5t-36.5 14.5t-14.5 36.5z" />
    <glyph glyph-name="dotlessi" unicode="&#x131;" horiz-adv-x="249" 
d="M87 0v490h74v-490h-74z" />
    <glyph glyph-name="Lslash" unicode="&#x141;" horiz-adv-x="577" 
d="M42 290l-19 68l97 28v315h76v-292l102 30l19 -69l-121 -36v-262h341v-72h-417v312z" />
    <glyph glyph-name="lslash" unicode="&#x142;" horiz-adv-x="351" 
d="M48 290l-20 68l108 32v311h74v-290l93 28l20 -69l-113 -33v-337h-74v315z" />
    <glyph glyph-name="OE" unicode="&#x152;" horiz-adv-x="914" 
d="M51 351q0 156 104.5 253t265.5 97h425v-72h-326v-236h314v-72h-314v-249h326v-72h-425q-161 0 -265.5 97t-104.5 254zM128 351q0 -130 80 -204.5t213 -74.5h22v557h-22q-127 0 -210 -75.5t-83 -202.5z" />
    <glyph glyph-name="oe" unicode="&#x153;" horiz-adv-x="974" 
d="M915 222h-364q5 -77 48.5 -120.5t115.5 -43.5q84 0 140 72l51 -47q-78 -94 -191 -94q-145 0 -207 117q-33 -55 -86.5 -86t-118.5 -31q-105 0 -175.5 74.5t-70.5 181.5t70.5 182t175.5 75q65 0 118.5 -31.5t86.5 -87.5q60 119 190 119q57 0 100.5 -22t68.5 -59t37.5 -78.5
t12.5 -86.5zM133 245q0 -80 48 -133.5t122 -53.5t122.5 53t48.5 134q0 82 -48.5 134.5t-122.5 52.5t-122 -53.5t-48 -133.5zM699 432q-62 0 -99 -40t-47 -104h288q-4 65 -42.5 104.5t-99.5 39.5z" />
    <glyph glyph-name="Scaron" unicode="&#x160;" horiz-adv-x="638" 
d="M358 311l-86 15q-86 15 -142 63t-56 129q0 89 72 141.5t170 52.5q143 0 241 -107l-51 -56q-76 92 -196 92q-69 0 -114.5 -33.5t-45.5 -86.5q0 -99 149 -123l69 -12q101 -16 157 -66.5t56 -133.5q0 -85 -70 -141t-186 -56q-86 0 -156.5 35.5t-111.5 92.5l52 54
q81 -111 225 -111q74 0 122.5 33t48.5 92q0 100 -147 126zM368 769h-97l-96 103h79l66 -62l65 62h80z" />
    <glyph glyph-name="scaron" unicode="&#x161;" horiz-adv-x="484" 
d="M276 203l-73 17q-139 33 -139 141q0 66 50 103.5t119 37.5q98 0 174 -79l-50 -53q-60 63 -129 63q-40 0 -65 -19t-25 -50q0 -56 73 -72l77 -18q139 -33 139 -138q0 -65 -50 -106t-133 -41q-63 0 -115.5 26.5t-82.5 65.5l49 51q60 -75 148 -75q52 0 81 20t29 55
q0 53 -77 71zM284 570h-97l-97 131h74l71 -82l72 82h74z" />
    <glyph glyph-name="Ydieresis" unicode="&#x178;" horiz-adv-x="578" 
d="M107 701l183 -343l181 343h84l-228 -418v-283h-76v283l-228 418h84zM154 815q0 22 14.5 37t36.5 15t37 -15t15 -37t-15 -36.5t-37 -14.5t-36.5 14.5t-14.5 36.5zM335 815q0 22 14.5 37t36.5 15t37 -15t15 -37t-15 -36.5t-37 -14.5t-36.5 14.5t-14.5 36.5z" />
    <glyph glyph-name="Zcaron" unicode="&#x17d;" horiz-adv-x="621" 
d="M65 701h494v-68l-402 -561h399v-72h-493v68l401 561h-399v72zM356 769h-97l-96 103h79l66 -62l65 62h80z" />
    <glyph glyph-name="zcaron" unicode="&#x17e;" horiz-adv-x="504" 
d="M74 490h356v-63l-274 -359h285v-68h-378v63l271 359h-260v68zM296 570h-97l-97 131h74l71 -82l72 82h73z" />
    <glyph glyph-name="florin" unicode="&#x192;" horiz-adv-x="365" 
d="M125 -21v443h-91v68h91v37q0 91 43.5 132.5t129.5 41.5l38 -1v-68q-26 1 -37 1q-55 0 -77.5 -25.5t-22.5 -80.5v-37h126v-68h-126v-443q0 -91 -43.5 -132.5t-128.5 -41.5l-38 1v69q26 -2 37 -2q55 0 77 25.5t22 80.5z" />
    <glyph glyph-name="circumflex" unicode="&#x2c6;" horiz-adv-x="556" 
d="M230 701h97l97 -131h-74l-72 82l-71 -82h-74z" />
    <glyph glyph-name="caron" unicode="&#x2c7;" horiz-adv-x="484" 
d="M283 570h-97l-97 131h74l71 -82l72 82h74z" />
    <glyph glyph-name="breve" unicode="&#x2d8;" horiz-adv-x="556" 
d="M280 559q-61 0 -97.5 39.5t-41.5 102.5h66q4 -35 23 -54.5t50 -19.5q65 0 73 74h67q-5 -63 -42 -102.5t-98 -39.5z" />
    <glyph glyph-name="dotaccent" unicode="&#x2d9;" horiz-adv-x="249" 
d="M68 655q0 5 2 11q2 8 4 11l3 5q10 16 31 23q3 0 4 1q2 0 6 0.5t6 0.5h4q1 0 2.5 -0.5t2.5 -0.5h2q2 -1 4 -1l5 -2q7 -2 11 -6q9 -6 15 -15l4 -5l2 -6q2 -6 4 -16v-9v-2l-1 -2v-3l-3 -8l-2 -6l-6 -9q-4 -6 -9 -9l-4 -3l-5 -3q-10 -6 -22 -6h-13q-16 3 -26 12q-6 3 -9 9
l-3 3l-3 6q-1 2 -4 10q-1 2 -1 4q0 1 -1 3v13z" />
    <glyph glyph-name="ring" unicode="&#x2da;" horiz-adv-x="520" 
d="M180 635q0 34 22 55.5t53 21.5q34 0 56.5 -21.5t22.5 -55.5q0 -32 -22.5 -54t-56.5 -22q-31 0 -53 22.5t-22 53.5zM228 635q0 -13 8.5 -21t21.5 -8q12 0 20 8t8 21t-8 20.5t-20 7.5q-13 0 -21.5 -7.5t-8.5 -20.5z" />
    <glyph glyph-name="ogonek" unicode="&#x2db;" horiz-adv-x="556" 
d="M226 701h97l-114 -131h-74zM391 701h97l-114 -131h-74z" />
    <glyph glyph-name="tilde" unicode="&#x2dc;" horiz-adv-x="576" 
d="M359 701h57q0 -48 -20.5 -75.5t-54.5 -27.5q-22 0 -42 10l-30 12q-25 10 -38 10q-28 0 -30 -32h-57q0 48 20.5 75.5t54.5 27.5q24 0 42 -9l30 -13q30 -10 37 -10q29 0 31 32z" />
    <glyph glyph-name="hungarumlaut" unicode="&#x2dd;" horiz-adv-x="545" 
d="M279 -137h-80l63 131h74z" />
    <glyph glyph-name="Delta" unicode="&#x394;" horiz-adv-x="700" 
d="M318 701h64l238 -636v-65h-540v65zM350 601l-196 -530h392z" />
    <glyph glyph-name="Delta" unicode="&#x2206;" horiz-adv-x="700" 
d="M318 701h64l238 -636v-65h-540v65zM350 601l-196 -530h392z" />
    <glyph glyph-name="Omega" unicode="&#x3a9;" horiz-adv-x="762" 
d="M646 68v-68h-197v184q77 16 122 79t45 145q0 102 -68 168t-166 66t-166.5 -66t-68.5 -168q0 -82 45 -145t121 -79v-184h-197v68h126v74q-74 27 -121 100.5t-47 165.5q0 130 89.5 217t217.5 87q126 0 216 -87.5t90 -216.5q0 -91 -47 -164.5t-119 -101.5v-74h125z" />
    <glyph glyph-name="Omega" unicode="&#x2126;" horiz-adv-x="762" 
d="M646 68v-68h-197v184q77 16 122 79t45 145q0 102 -68 168t-166 66t-166.5 -66t-68.5 -168q0 -82 45 -145t121 -79v-184h-197v68h126v74q-74 27 -121 100.5t-47 165.5q0 130 89.5 217t217.5 87q126 0 216 -87.5t90 -216.5q0 -91 -47 -164.5t-119 -101.5v-74h125z" />
    <glyph glyph-name="pi" unicode="&#x3c0;" horiz-adv-x="642" 
d="M434 0v422h-227v-422h-70v422h-80v68h528v-68h-80v-422h-71z" />
    <glyph glyph-name="endash" unicode="&#x2013;" horiz-adv-x="576" 
d="M80 228v68h422v-68h-422z" />
    <glyph glyph-name="emdash" unicode="&#x2014;" horiz-adv-x="855" 
d="M80 228v68h701v-68h-701z" />
    <glyph glyph-name="quoteleft" unicode="&#x2018;" horiz-adv-x="262" 
d="M224 472h-80l-106 229h93z" />
    <glyph glyph-name="quoteright" unicode="&#x2019;" horiz-adv-x="262" 
d="M121 472h-80l93 229h93z" />
    <glyph glyph-name="quotesinglbase" unicode="&#x201a;" horiz-adv-x="268" 
d="M93 -115h-80l93 229h93z" />
    <glyph glyph-name="quotedblleft" unicode="&#x201c;" horiz-adv-x="446" 
d="M412 472h-80l-106 229h93zM227 472h-80l-106 229h93z" />
    <glyph glyph-name="quotedblright" unicode="&#x201d;" horiz-adv-x="446" 
d="M121 472h-80l93 229h93zM306 472h-80l93 229h93z" />
    <glyph glyph-name="quotedblbase" unicode="&#x201e;" horiz-adv-x="450" 
d="M108 -115h-80l93 229h93zM290 -115h-80l93 229h93z" />
    <glyph glyph-name="dagger" unicode="&#x2020;" horiz-adv-x="548" 
d="M46 490h190v211h76v-211h191v-72h-191v-612h-76v612h-190v72z" />
    <glyph glyph-name="daggerdbl" unicode="&#x2021;" horiz-adv-x="548" 
d="M46 186h190v232h-190v72h190v211h76v-211h191v-72h-191v-232h191v-72h-191v-308h-76v308h-190v72z" />
    <glyph glyph-name="bullet" unicode="&#x2022;" horiz-adv-x="404" 
d="M68 262q0 56 39 95t95 39q55 0 94 -39t39 -95t-38.5 -94.5t-94.5 -38.5t-95 39t-39 94z" />
    <glyph glyph-name="ellipsis" unicode="&#x2026;" horiz-adv-x="769" 
d="M91 48q0 25 17 42.5t42 17.5q26 0 43.5 -17t17.5 -43q0 -25 -17.5 -42t-43.5 -17q-25 0 -42 17t-17 42zM347 48q0 25 17 42.5t42 17.5q26 0 43.5 -17t17.5 -43q0 -25 -17.5 -42t-43.5 -17q-25 0 -42 17t-17 42zM604 48q0 25 17 42.5t42 17.5q26 0 43.5 -17t17.5 -43
q0 -25 -17.5 -42t-43.5 -17q-25 0 -42 17t-17 42z" />
    <glyph glyph-name="perthousand" unicode="&#x2030;" horiz-adv-x="1009" 
d="M57 584q0 53 37.5 90.5t91.5 37.5q53 0 90 -37.5t37 -90.5t-37 -90.5t-90 -37.5q-54 0 -91.5 37.5t-37.5 90.5zM123 584q0 -29 19 -47t44 -18q24 0 42.5 18t18.5 47q0 30 -18.5 48t-42.5 18q-25 0 -44 -18.5t-19 -47.5zM382 116q0 54 37.5 91.5t91.5 37.5q53 0 90 -37.5
t37 -91.5q0 -52 -37 -89.5t-90 -37.5q-54 0 -91.5 37t-37.5 90zM448 116q0 -29 19 -47t44 -18q24 0 42.5 18t18.5 47t-18.5 47.5t-42.5 18.5q-25 0 -44 -18.5t-19 -47.5zM695 116q0 54 37.5 91.5t91.5 37.5q53 0 90.5 -37.5t37.5 -91.5q0 -53 -37.5 -90t-90.5 -37
q-54 0 -91.5 37t-37.5 90zM762 116q0 -29 18.5 -47t43.5 -18t43.5 18t18.5 47t-18.5 47.5t-43.5 18.5t-43.5 -18t-18.5 -48zM92 0l428 701h80l-427 -701h-81z" />
    <glyph glyph-name="guilsinglleft" unicode="&#x2039;" horiz-adv-x="321" 
d="M34 245l137 245h82l-139 -245l139 -245h-82z" />
    <glyph glyph-name="guilsinglright" unicode="&#x203a;" horiz-adv-x="416" 
d="M372 245l-137 -245h-82l139 245l-139 245h82z" />
    <glyph glyph-name="fraction" unicode="&#x2044;" horiz-adv-x="580" 
d="M36 0l428 701h80l-427 -701h-81z" />
    <glyph glyph-name="Euro" unicode="&#x20ac;" horiz-adv-x="693" 
d="M57 388v68h77q24 117 98.5 186.5t182.5 69.5q131 0 211 -109l-50 -52q-59 90 -161 90q-76 0 -129.5 -49t-73.5 -136h244v-68h-254q-1 -13 -1 -39q0 -15 2 -41h253v-69h-243q20 -84 72 -131.5t129 -47.5q103 0 173 86l49 -56q-96 -101 -222 -101q-109 0 -181.5 67.5
t-97.5 182.5h-78v69h68q-1 13 -1 41q0 26 1 39h-68z" />
    <glyph glyph-name="trademark" unicode="&#x2122;" horiz-adv-x="847" 
d="M23 701h289v-58h-114v-335h-63v335h-112v58zM545 389l-96 190v-271h-63v393h68l123 -251l124 251h66v-393h-62v271l-95 -190h-65z" />
    <glyph glyph-name="arrownorthwest" unicode="&#x2196;" horiz-adv-x="669" 
d="M521 449h-316l404 -405l-52 -53l-405 405v-316h-72v441h441v-72z" />
    <glyph glyph-name="arrownortheast" unicode="&#x2197;" horiz-adv-x="669" 
d="M464 449h-316v72h441v-441h-72v316l-405 -405l-52 53z" />
    <glyph glyph-name="arrowsoutheast" unicode="&#x2198;" horiz-adv-x="669" 
d="M182 72h316l-404 405l52 53l405 -405v316h72v-441h-441v72z" />
    <glyph glyph-name="arrowsouthwest" unicode="&#x2199;" horiz-adv-x="669" 
d="M205 72h316v-72h-441v441h72v-316l405 405l52 -53z" />
    <glyph glyph-name="partialdiff" unicode="&#x2202;" horiz-adv-x="587" 
d="M280 -11q-86 0 -154.5 64t-68.5 169q0 103 67.5 167.5t155.5 64.5q54 0 102.5 -25.5t75.5 -75.5q5 132 -46 210t-144 78q-89 0 -140 -74l-53 55q73 90 193 90q127 0 194.5 -95.5t67.5 -259.5q0 -167 -68 -267.5t-182 -100.5zM286 382q-60 0 -106.5 -44t-46.5 -116
q0 -78 42.5 -120t100.5 -42q66 0 108 48t42 121q0 65 -40 109t-100 44z" />
    <glyph glyph-name="product" unicode="&#x220f;" horiz-adv-x="641" 
d="M484 -194v616h-328v-616h-71v684h470v-684h-71z" />
    <glyph glyph-name="summation" unicode="&#x2211;" horiz-adv-x="519" 
d="M137 630l220 -376l-220 -377h325v-71h-411v65l221 383l-221 382v65h411v-71h-325z" />
    <glyph glyph-name="minus" unicode="&#x2212;" horiz-adv-x="650" 
d="M80 226v68h490v-68h-490z" />
    <glyph glyph-name="radical" unicode="&#x221a;" horiz-adv-x="697" 
d="M46 490h159l147 -399l227 610h74l-262 -701h-76l-160 422h-109v68z" />
    <glyph glyph-name="infinity" unicode="&#x221e;" horiz-adv-x="1145" 
d="M572 308l48 66q95 128 217 128q98 0 168.5 -75.5t70.5 -181.5q0 -105 -70.5 -180.5t-168.5 -75.5q-125 0 -216 126l-49 67l-48 -66q-94 -127 -216 -127q-98 0 -169 75.5t-71 180.5t71 181t169 76q124 0 215 -127zM308 431q-70 0 -118.5 -54t-48.5 -132t48.5 -132
t118.5 -54q51 0 86 27t75 80l57 79l-57 80q-39 52 -74.5 79t-86.5 27zM618 244l58 -79q37 -51 73.5 -78.5t87.5 -27.5q69 0 117.5 54t48.5 132t-48.5 132t-117.5 54q-51 0 -87 -27.5t-74 -79.5z" />
    <glyph glyph-name="integral" unicode="&#x222b;" horiz-adv-x="348" 
d="M137 -21v548q0 91 43.5 132.5t128.5 41.5l39 -1v-68q-27 1 -38 1q-55 0 -77 -25.5t-22 -80.5v-548q0 -91 -43.5 -132.5t-128.5 -41.5l-39 1v69q26 -2 38 -2q55 0 77 25.5t22 80.5z" />
    <glyph glyph-name="approxequal" unicode="&#x2248;" horiz-adv-x="653" 
d="M507 429h63q5 -62 -24 -102.5t-80 -40.5q-27 0 -78 17l-137 48q-33 13 -57 13q-52 0 -52 -72h-62q-5 62 24 102t80 40q27 0 78 -17l137 -48q36 -12 57 -12q51 0 51 72zM507 236h63q5 -62 -24 -102.5t-80 -40.5q-29 0 -78 18l-137 47q-33 13 -57 13q-52 0 -52 -72h-62
q-5 62 24 102.5t80 40.5q27 0 78 -17l137 -48q33 -13 57 -13q51 0 51 72z" />
    <glyph glyph-name="notequal" unicode="&#x2260;" horiz-adv-x="650" 
d="M80 308v69h285l70 113h79l-69 -113h125v-69h-168l-70 -114h238v-68h-280l-77 -126h-80l77 126h-130v68h172l71 114h-243z" />
    <glyph glyph-name="lessequal" unicode="&#x2264;" horiz-adv-x="605" 
d="M46 255v71l491 176v-78l-391 -133l391 -134v-77zM47 -68v68h490v-68h-490z" />
    <glyph glyph-name="greaterequal" unicode="&#x2265;" horiz-adv-x="605" 
d="M560 326v-71l-492 -175v77l391 134l-391 133v78zM69 -68v68h490v-68h-490z" />
    <glyph glyph-name="lozenge" unicode="&#x25ca;" horiz-adv-x="650" 
d="M293 701h64l224 -454l-224 -452h-64l-225 452zM146 247l179 -362l179 362l-179 364z" />
    <glyph glyph-name="fi" unicode="&#xfb01;" horiz-adv-x="613" 
d="M440 0v422h-241v-422h-74v422h-91v68h91v37q0 91 43.5 132.5t129.5 41.5l27 -1v-68q-15 1 -26 1q-55 0 -77.5 -25.5t-22.5 -80.5v-37h315v-490h-74zM422 660l1 2q3 19 20 33l9 6q7 4 14 5h3q1 0 2 0.5t2 0.5h5q6 0 9 -1q1 0 3 -0.5t3 -0.5l4 -2l6 -2l6 -4q6 -4 8 -7l6 -6
l2 -4q2 -2 2 -3q5 -7 6 -15q1 -3 1 -11v-5l-2 -9q-3 -12 -13 -24l-2 -2l-5 -4q-1 -1 -3 -2q-4 -3 -6 -4l-6 -3h-1q-2 -1 -3 -1l-6 -2h-18l-7 2q-1 0 -4 1l-12 6l-3 3q-7 5 -12 12l-6 12q-2 4 -2 8q-1 2 -1 7v14z" />
    <glyph glyph-name="fl" unicode="&#xfb02;" horiz-adv-x="594" 
d="M298 701h216v-701h-74v633h-141q-55 0 -77.5 -25.5t-22.5 -80.5v-37h126v-68h-126v-422h-74v422h-91v68h91v37q0 91 43.5 132.5t129.5 41.5z" />
    <glyph glyph-name="acutecap" horiz-adv-x="608" 
d="M336 872h103l-108 -103h-86z" />
    <glyph glyph-name="caroncap" horiz-adv-x="608" 
d="M361 769h-97l-96 103h79l66 -62l65 62h80z" />
    <glyph glyph-name="ringcap" 
d="M255 777q0 39 25.5 64t61.5 25q38 0 64 -25t26 -64q0 -36 -26 -61.5t-64 -25.5q-35 0 -61 26t-26 61zM310 777q0 -14 10 -23.5t24 -9.5t23.5 9.5t9.5 23.5q0 15 -9.5 24.5t-23.5 9.5t-24 -9.5t-10 -24.5z" />
    <glyph glyph-name="gravecap" horiz-adv-x="608" 
d="M182 872h103l91 -103h-85z" />
    <glyph glyph-name="circumflexcap" horiz-adv-x="608" 
d="M264 872h97l97 -103h-80l-65 62l-66 -62h-79z" />
    <glyph glyph-name="zero.onum" 
d="M621 274q0 -122 -81.5 -203.5t-197.5 -81.5t-195 81t-79 204q0 122 79 203.5t195 81.5t197.5 -81.5t81.5 -203.5zM545 274q0 90 -60 151.5t-143 61.5q-85 0 -141 -60.5t-56 -152.5t56 -153t141 -61q83 0 143 62t60 152z" />
    <glyph glyph-name="one.onum" horiz-adv-x="510" 
d="M63 72h166v361q-63 -50 -166 -50v68q133 6 178 96h65v-475h158v-72h-401v72z" />
    <glyph glyph-name="two.onum" horiz-adv-x="560" 
d="M149 72h339v-72h-420v23q0 101 45 155.5t156 93.5l35 13q58 20 84 45t26 66q0 40 -32.5 65.5t-89.5 25.5q-114 0 -166 -116l-52 52q29 63 84.5 99.5t128.5 36.5q89 0 146.5 -45t57.5 -124q0 -64 -39 -103t-107 -65l-55 -20q-75 -27 -106 -54t-35 -76z" />
    <glyph glyph-name="three.onum" horiz-adv-x="563" 
d="M378 218q50 -20 83.5 -63t33.5 -103q0 -98 -64 -149t-162 -51q-64 0 -124 26.5t-99 74.5l52 53q69 -82 176 -82q63 0 103.5 32.5t40.5 94.5q0 61 -46 91t-120 30h-53v73h42q74 0 117 33t43 92q0 58 -40.5 87.5t-90.5 29.5q-89 0 -156 -75l-51 51q86 96 203 96
q86 0 149 -50t63 -140q0 -56 -32 -96.5t-68 -54.5z" />
    <glyph glyph-name="four.onum" horiz-adv-x="611" 
d="M554 0h-97v-137h-76v137h-324v66l329 481h71v-475h97v-72zM144 72h237v345z" />
    <glyph glyph-name="five.onum" horiz-adv-x="592" 
d="M458 81q0 73 -44.5 114t-113.5 41q-45 0 -83.5 -22.5t-55.5 -53.5h-70l17 387h374v-72h-304l-12 -220q49 53 143 53t160 -60.5t66 -166.5q0 -95 -68 -162t-181 -67q-135 0 -218 113l54 53q64 -94 169 -94q71 0 119 43t48 114z" />
    <glyph glyph-name="six.onum" horiz-adv-x="627" 
d="M329 -11q-114 0 -181.5 98t-67.5 264q0 160 70 252t192 92q120 0 193 -90l-53 -56q-51 75 -140 75q-88 0 -141.5 -74.5t-48.5 -201.5q27 49 75 74.5t102 25.5q89 0 156.5 -64t67.5 -167q0 -106 -68.5 -167t-155.5 -61zM324 376q-60 0 -100 -44t-40 -109q0 -69 42 -116
t108 -47q58 0 100.5 41t42.5 116q0 72 -46.5 115.5t-106.5 43.5z" />
    <glyph glyph-name="seven.onum" horiz-adv-x="557" 
d="M57 333v214h455v-66q-217 -236 -248 -578l-3 -40h-76l3 39q14 168 73.5 316t156.5 257h-289v-142h-72z" />
    <glyph glyph-name="eight.onum" horiz-adv-x="600" 
d="M300 -11q-96 0 -164 52.5t-68 139.5q0 59 38.5 106t78.5 57q-36 14 -68 53.5t-32 94.5q0 86 64.5 136t150.5 50t150 -50t64 -136q0 -55 -32 -94t-67 -54q40 -10 78 -57t38 -106q0 -88 -67.5 -140t-163.5 -52zM300 306q-67 0 -111 -32.5t-44 -91.5q0 -58 45.5 -90
t109.5 -32t109.5 32t45.5 90t-45 91t-110 33zM300 606q-52 0 -95 -28t-43 -87q0 -54 39.5 -84t98.5 -30q58 0 98 30t40 84q0 59 -43 87t-95 28z" />
    <glyph glyph-name="nine.onum" horiz-adv-x="627" 
d="M298 559q113 0 181 -98.5t68 -264.5q0 -160 -70 -252t-192 -92q-120 0 -193 90l53 56q51 -74 140 -74q88 0 141.5 74t48.5 201q-27 -49 -75 -74.5t-102 -25.5q-89 0 -156.5 64.5t-67.5 167.5q0 105 68.5 166.5t155.5 61.5zM303 171q60 0 100 44t40 109q0 69 -42 116
t-108 47q-58 0 -100.5 -40.5t-42.5 -115.5q0 -72 46.5 -116t106.5 -44z" />
    <glyph glyph-name="zero.ss01" horiz-adv-x="618" 
d="M57 351q0 71 15 134t44.5 114.5t79 82t113.5 30.5t113.5 -30.5t79 -82t44.5 -114.5t15 -134t-15 -134t-44.5 -115t-79 -82.5t-113.5 -30.5t-113.5 30.5t-79 82.5t-44.5 115t-15 134zM309 641q-84 0 -130 -79.5t-46 -210.5q0 -59 9 -108l312 286q-46 112 -145 112z
M484 351q0 55 -9 103l-310 -286q47 -108 144 -108q84 0 129.5 79.5t45.5 211.5z" />
    <glyph glyph-name="one.ss01" horiz-adv-x="538" 
d="M68 72h183v557h-171v72h249v-629h175v-72h-436v72z" />
    <glyph glyph-name="two.ss01" horiz-adv-x="596" 
d="M149 496q0 -62 43 -104t106 -42t106.5 42t43.5 104t-43 104t-106 42t-106.5 -42t-43.5 -104zM76 496q0 92 65 154t158 62t157.5 -62t64.5 -154q0 -59 -29 -107.5t-85 -101.5l-227 -215h342v-72h-448v66l229 219q-5 -2 -20 -2q-86 0 -146.5 62t-60.5 151z" />
    <glyph glyph-name="three.ss01" horiz-adv-x="586" 
d="M472 632l-176 -218q91 -1 150.5 -60.5t59.5 -140.5q0 -98 -66 -161t-171 -63q-143 0 -223 112l51 52q67 -94 172 -94q71 0 117.5 40t46.5 108q0 63 -43 101.5t-123 38.5h-64v64l174 217h-294v72h389v-68z" />
    <glyph glyph-name="four.ss01" horiz-adv-x="564" 
d="M399 413v-164h120v-72h-120v-177h-76v177h-268v156l268 367h91l-283 -391v-60h192v164h76z" />
    <glyph glyph-name="five.ss01" horiz-adv-x="591" 
d="M455 225q0 65 -45 109t-109 44q-54 0 -91 -25.5t-53 -65.5h-71v414h396v-72h-320v-232q55 53 141 53q90 0 159 -61t69 -163q0 -99 -66 -168t-182 -69q-135 0 -215 111l55 53q58 -91 163 -91q73 0 121 45.5t48 117.5z" />
    <glyph glyph-name="six.ss01" horiz-adv-x="619" 
d="M308 -11q-107 0 -175 67.5t-68 171.5q0 96 84 217l178 256h92l-188 -264q39 17 83 17q97 0 167 -64t70 -168q0 -107 -70.5 -170t-172.5 -63zM143 221q0 -72 48 -116.5t117 -44.5q70 0 118 44.5t48 116.5t-48 116.5t-118 44.5t-117.5 -44.5t-47.5 -116.5z" />
    <glyph glyph-name="seven.ss01" horiz-adv-x="535" 
d="M51 470v231h449v-71l-273 -630h-81l277 630h-298v-160h-74z" />
    <glyph glyph-name="eight.ss01" horiz-adv-x="544" 
d="M272 -11q-95 0 -156 59.5t-61 144.5q0 58 29.5 104.5t69.5 69.5q-34 23 -58 62.5t-24 89.5q0 80 56.5 136.5t143.5 56.5q86 0 143 -56.5t57 -136.5q0 -50 -24 -89.5t-58 -62.5q40 -23 69.5 -69.5t29.5 -104.5q0 -85 -61 -144.5t-156 -59.5zM272 330q-61 0 -101 -39.5
t-40 -97.5t39.5 -96t101.5 -38t101.5 38t39.5 96t-40 97.5t-101 39.5zM272 642q-51 0 -87.5 -33.5t-36.5 -86.5q0 -52 34 -87t90 -35t90 35t34 87q0 53 -36.5 86.5t-87.5 33.5z" />
    <glyph glyph-name="nine.ss01" horiz-adv-x="611" 
d="M311 712q107 0 175 -67.5t68 -171.5q0 -96 -84 -217l-178 -256h-91l188 264q-39 -17 -83 -17q-97 0 -167.5 64t-70.5 168q0 107 70.5 170t172.5 63zM477 480q0 72 -48.5 116.5t-117.5 44.5q-70 0 -118 -44.5t-48 -116.5t48 -116.5t118 -44.5t118 44.5t48 116.5z" />
    <glyph glyph-name="A.ss01" horiz-adv-x="664" 
d="M430 700l189 -700h-81l-44 161h-324l-44 -161h-81l189 700h196zM291 630l-103 -396h288l-103 396h-82z" />
    <glyph glyph-name="Aacute.ss01" horiz-adv-x="664" 
d="M430 700l189 -700h-81l-44 161h-324l-44 -161h-81l189 700h196zM291 630l-103 -396h288l-103 396h-82zM355 872h103l-108 -103h-86z" />
    <glyph glyph-name="Agrave.ss01" horiz-adv-x="664" 
d="M430 700l189 -700h-81l-44 161h-324l-44 -161h-81l189 700h196zM291 630l-103 -396h288l-103 396h-82zM207 872h103l91 -103h-85z" />
    <glyph glyph-name="Acircumflex.ss01" horiz-adv-x="664" 
d="M430 700l189 -700h-81l-44 161h-324l-44 -161h-81l189 700h196zM291 630l-103 -396h288l-103 396h-82zM282 872h97l97 -103h-80l-65 62l-66 -62h-79z" />
    <glyph glyph-name="Adieresis.ss01" horiz-adv-x="664" 
d="M430 700l189 -700h-81l-44 161h-324l-44 -161h-81l189 700h196zM291 630l-103 -396h288l-103 396h-82zM189 832q0 22 14.5 37t36.5 15t37 -15t15 -37t-15 -36.5t-37 -14.5t-36.5 14.5t-14.5 36.5zM370 832q0 22 14.5 37t36.5 15t37 -15t15 -37t-15 -36.5t-37 -14.5
t-36.5 14.5t-14.5 36.5z" />
    <glyph glyph-name="Atilde.ss01" horiz-adv-x="664" 
d="M430 700l189 -700h-81l-44 161h-324l-44 -161h-81l189 700h196zM291 630l-103 -396h288l-103 396h-82zM406 872h57q0 -48 -20.5 -75.5t-54.5 -27.5q-22 0 -42 10l-30 12q-25 10 -38 10q-28 0 -30 -32h-57q0 48 20.5 75.5t54.5 27.5q24 0 42 -9l30 -13q30 -10 37 -10
q29 0 31 32z" />
    <glyph glyph-name="Aring.ss01" horiz-adv-x="664" 
d="M243 777q0 39 25.5 64t61.5 25q38 0 64 -25t26 -64q0 -25 -13 -45.5t-35 -31.5h58l189 -700h-81l-44 161h-324l-44 -161h-81l189 700h56q-47 24 -47 77zM291 630l-103 -396h288l-103 396h-82zM298 777q0 -14 10 -23.5t24 -9.5t23.5 9.5t9.5 23.5q0 15 -9.5 24.5
t-23.5 9.5t-24 -9.5t-10 -24.5z" />
    <glyph glyph-name="AE.ss01" horiz-adv-x="889" 
d="M234 700h580v-72h-365l64 -235h290v-72h-271l67 -249h215v-72h-276l-44 161h-324l-44 -161h-81zM291 630l-103 -396h288l-103 396h-82z" />
    <glyph glyph-name="Ccedilla.ss01" horiz-adv-x="700" 
d="M436 -137h-74v128q-137 13 -226.5 115.5t-89.5 242.5q0 151 99.5 257t247.5 106q165 0 262 -120l-51 -54q-80 103 -211 103q-116 0 -193.5 -84t-77.5 -208q0 -122 78.5 -205.5t197.5 -83.5q138 0 219 105l49 -56q-91 -104 -230 -118v-128z" />
    <glyph glyph-name="G.ss01" horiz-adv-x="728" 
d="M398 277v72h268v-349h-74v45q-85 -56 -194 -56q-151 0 -251.5 105t-100.5 255q0 151 99.5 257t247.5 106q165 0 262 -120l-51 -54q-80 103 -211 103q-116 0 -193.5 -84t-77.5 -208q0 -122 78.5 -205.5t197.5 -83.5q120 0 194 74v143h-194z" />
    <glyph glyph-name="I.ss01" horiz-adv-x="473" 
d="M63 633v68h347v-68h-135v-565h135v-68h-347v68h135v565h-135z" />
    <glyph glyph-name="Iacute.ss01" horiz-adv-x="473" 
d="M63 633v68h347v-68h-135v-565h135v-68h-347v68h135v565h-135zM266 872h103l-108 -103h-86z" />
    <glyph glyph-name="Igrave.ss01" horiz-adv-x="473" 
d="M63 633v68h347v-68h-135v-565h135v-68h-347v68h135v565h-135zM102 872h103l91 -103h-85z" />
    <glyph glyph-name="Icircumflex.ss01" horiz-adv-x="473" 
d="M63 633v68h347v-68h-135v-565h135v-68h-347v68h135v565h-135zM188 872h97l97 -103h-80l-65 62l-66 -62h-79z" />
    <glyph glyph-name="Idieresis.ss01" horiz-adv-x="473" 
d="M63 633v68h347v-68h-135v-565h135v-68h-347v68h135v565h-135zM96 832q0 22 14.5 37t36.5 15t37 -15t15 -37t-15 -36.5t-37 -14.5t-36.5 14.5t-14.5 36.5zM277 832q0 22 14.5 37t36.5 15t37 -15t15 -37t-15 -36.5t-37 -14.5t-36.5 14.5t-14.5 36.5z" />
    <glyph glyph-name="J.ss01" horiz-adv-x="527" 
d="M154 629v72h304v-483q0 -105 -54 -167t-158 -62q-98 0 -155 62.5t-57 154.5v32h77v-32q0 -70 38.5 -108t96.5 -38q136 0 136 158v411h-228z" />
    <glyph glyph-name="K.ss01" horiz-adv-x="592" 
d="M58 0v701h77v-301h122l205 301h87l-226 -331l232 -370h-90l-207 330h-123v-330h-77z" />
    <glyph glyph-name="M.ss01" horiz-adv-x="821" 
d="M408 90l131 611h202v-701h-76v632h-63l-139 -632h-110l-136 632h-61v-632h-76v701h200z" />
    <glyph glyph-name="Q.ss01" horiz-adv-x="810" 
d="M46 351q0 150 100 255.5t248 105.5q149 0 250.5 -105.5t101.5 -255.5q0 -152 -101 -257t-251 -105q-149 0 -248.5 105t-99.5 257zM396 285l50 51l169 -168q56 76 56 183q0 123 -76.5 206.5t-196.5 83.5q-121 0 -198.5 -83.5t-77.5 -206.5q0 -125 77 -208t199 -83
q97 0 167 56z" />
    <glyph glyph-name="V.ss01" horiz-adv-x="644" 
d="M366 70l175 630h83l-199 -700h-206l-199 700h83l175 -630h88z" />
    <glyph glyph-name="W.ss01" horiz-adv-x="926" 
d="M658 70l175 630h83l-199 -700h-191l-63 225l-63 -225h-191l-199 700h83l175 -630h75l78 278l-100 352h79l63 -231l63 231h79l-100 -352l78 -278h75z" />
    <glyph glyph-name="X.ss01" horiz-adv-x="651" 
d="M377 325h-110l-143 -325h-81l159 359l-146 342h81l130 -306h110l130 306h81l-146 -342l159 -359h-81z" />
    <glyph glyph-name="a.ss01" horiz-adv-x="530" 
d="M118 422v68h327v-490h-212q-73 0 -120.5 44.5t-47.5 108.5q0 63 49 108t119 45h138v116h-253zM238 67h133v172h-133q-45 0 -73 -25t-28 -61t28 -61t73 -25z" />
    <glyph glyph-name="aacute.ss01" horiz-adv-x="604" 
d="M145 422v68h327v-490h-212q-73 0 -120.5 44.5t-47.5 108.5q0 63 49 108t119 45h138v116h-253zM265 67h133v172h-133q-45 0 -73 -25t-28 -61t28 -61t73 -25zM356 701h97l-114 -131h-74z" />
    <glyph glyph-name="agrave.ss01" horiz-adv-x="604" 
d="M145 422v68h327v-490h-212q-73 0 -120.5 44.5t-47.5 108.5q0 63 49 108t119 45h138v116h-253zM265 67h133v172h-133q-45 0 -73 -25t-28 -61t28 -61t73 -25zM184 701h97l91 -131h-74z" />
    <glyph glyph-name="acircumflex.ss01" horiz-adv-x="604" 
d="M145 422v68h327v-490h-212q-73 0 -120.5 44.5t-47.5 108.5q0 63 49 108t119 45h138v116h-253zM265 67h133v172h-133q-45 0 -73 -25t-28 -61t28 -61t73 -25zM276 701h97l97 -131h-74l-72 82l-71 -82h-74z" />
    <glyph glyph-name="adieresis.ss01" horiz-adv-x="604" 
d="M145 422v68h327v-490h-212q-73 0 -120.5 44.5t-47.5 108.5q0 63 49 108t119 45h138v116h-253zM265 67h133v172h-133q-45 0 -73 -25t-28 -61t28 -61t73 -25zM179 655q0 22 14.5 37t36.5 15t37 -15t15 -37t-15 -36.5t-37 -14.5t-36.5 14.5t-14.5 36.5zM360 655
q0 22 14.5 37t36.5 15t37 -15t15 -37t-15 -36.5t-37 -14.5t-36.5 14.5t-14.5 36.5z" />
    <glyph glyph-name="atilde.ss01" horiz-adv-x="604" 
d="M145 422v68h327v-490h-212q-73 0 -120.5 44.5t-47.5 108.5q0 63 49 108t119 45h138v116h-253zM265 67h133v172h-133q-45 0 -73 -25t-28 -61t28 -61t73 -25zM405 701h57q0 -48 -20.5 -75.5t-54.5 -27.5q-22 0 -42 10l-30 12q-25 10 -38 10q-28 0 -30 -32h-57
q0 48 20.5 75.5t54.5 27.5q24 0 42 -9l30 -13q30 -10 37 -10q29 0 31 32z" />
    <glyph glyph-name="aring.ss01" horiz-adv-x="604" 
d="M145 422v68h327v-490h-212q-73 0 -120.5 44.5t-47.5 108.5q0 63 49 108t119 45h138v116h-253zM265 67h133v172h-133q-45 0 -73 -25t-28 -61t28 -61t73 -25zM249 635q0 34 22 55.5t53 21.5q34 0 56.5 -21.5t22.5 -55.5q0 -32 -22.5 -54t-56.5 -22q-31 0 -53 22.5t-22 53.5
zM297 635q0 -13 8.5 -21t21.5 -8q12 0 20 8t8 21t-8 20.5t-20 7.5q-13 0 -21.5 -7.5t-8.5 -20.5z" />
    <glyph glyph-name="ae.ss01" horiz-adv-x="801" 
d="M228 280h143v142h-253v68h455q75 0 119 -37t44 -103q0 -65 -47 -102.5t-116 -37.5h-128v-143h278v-67h-495q-72 0 -117.5 37.5t-45.5 102.5t45.5 102.5t117.5 37.5zM371 67v146h-138q-96 0 -96 -73t96 -73h138zM568 423h-123v-146h123q96 0 96 73t-96 73z" />
    <glyph glyph-name="ccedilla.ss01" horiz-adv-x="545" 
d="M334 -137h-72v130q-90 14 -147.5 85t-57.5 167q0 106 72.5 181.5t176.5 75.5q111 0 183 -87l-50 -49q-55 66 -133 66q-75 0 -124 -53.5t-49 -133.5q0 -82 47 -134.5t129 -52.5q83 0 139 72l51 -47q-68 -80 -163 -92z" />
    <glyph glyph-name="e.ss01" horiz-adv-x="511" 
d="M263 157q-66 0 -109 37v-127h278v-67h-352v315q0 86 52.5 136.5t130.5 50.5t130.5 -49t52.5 -124q0 -73 -53.5 -122.5t-129.5 -49.5zM263 226q48 0 78.5 30.5t30.5 72.5q0 43 -31 73.5t-78 30.5q-48 0 -78.5 -30.5t-30.5 -73.5t30.5 -73t78.5 -30z" />
    <glyph glyph-name="eacute.ss01" horiz-adv-x="511" 
d="M296 701h97l-114 -131h-74zM263 157q-66 0 -109 37v-127h278v-67h-352v315q0 86 52.5 136.5t130.5 50.5t130.5 -49t52.5 -124q0 -73 -53.5 -122.5t-129.5 -49.5zM263 226q48 0 78.5 30.5t30.5 72.5q0 43 -31 73.5t-78 30.5q-48 0 -78.5 -30.5t-30.5 -73.5t30.5 -73
t78.5 -30z" />
    <glyph glyph-name="egrave.ss01" horiz-adv-x="511" 
d="M263 157q-66 0 -109 37v-127h278v-67h-352v315q0 86 52.5 136.5t130.5 50.5t130.5 -49t52.5 -124q0 -73 -53.5 -122.5t-129.5 -49.5zM263 226q48 0 78.5 30.5t30.5 72.5q0 43 -31 73.5t-78 30.5q-48 0 -78.5 -30.5t-30.5 -73.5t30.5 -73t78.5 -30zM148 701h97l91 -131
h-74z" />
    <glyph glyph-name="ecircumflex.ss01" horiz-adv-x="511" 
d="M263 157q-66 0 -109 37v-127h278v-67h-352v315q0 86 52.5 136.5t130.5 50.5t130.5 -49t52.5 -124q0 -73 -53.5 -122.5t-129.5 -49.5zM263 226q48 0 78.5 30.5t30.5 72.5q0 43 -31 73.5t-78 30.5q-48 0 -78.5 -30.5t-30.5 -73.5t30.5 -73t78.5 -30zM217 701h97l97 -131
h-74l-72 82l-71 -82h-74z" />
    <glyph glyph-name="edieresis.ss01" horiz-adv-x="511" 
d="M263 157q-66 0 -109 37v-127h278v-67h-352v315q0 86 52.5 136.5t130.5 50.5t130.5 -49t52.5 -124q0 -73 -53.5 -122.5t-129.5 -49.5zM263 226q48 0 78.5 30.5t30.5 72.5q0 43 -31 73.5t-78 30.5q-48 0 -78.5 -30.5t-30.5 -73.5t30.5 -73t78.5 -30zM122 655q0 22 14.5 37
t36.5 15t37 -15t15 -37t-15 -36.5t-37 -14.5t-36.5 14.5t-14.5 36.5zM303 655q0 22 14.5 37t36.5 15t37 -15t15 -37t-15 -36.5t-37 -14.5t-36.5 14.5t-14.5 36.5z" />
    <glyph glyph-name="f.ss01" horiz-adv-x="418" 
d="M23 422v68h80v72q0 62 43.5 106t108.5 44t109 -44t44 -106v-11h-74v10q0 35 -24 58.5t-55 23.5t-54.5 -23t-23.5 -59v-71h231v-68h-231v-422h-74v422h-80z" />
    <glyph glyph-name="g.ss01" horiz-adv-x="573" 
d="M513 490v-70h-66q58 -61 58 -146q0 -89 -60.5 -151t-146.5 -62q-15 0 -20 2l235 -191v-66h-443v67h332l-234 194q-108 91 -108 207q0 92 64.5 154t157.5 62h231zM432 274q0 60 -41.5 102t-102.5 44h-6q-63 0 -106 -42t-43 -104t43.5 -104t106.5 -42t106 42t43 104z" />
    <glyph glyph-name="h.ss01" horiz-adv-x="559" 
d="M154 701v-211h313v-490h-74v422h-239v-422h-74v701h74z" />
    <glyph glyph-name="j.ss01" horiz-adv-x="293" 
d="M101 657q0 22 16.5 38.5t39.5 16.5t39.5 -16t16.5 -39t-16.5 -39.5t-39.5 -16.5t-39.5 16.5t-16.5 39.5zM195 -194h-195v68h120v616h75v-684z" />
    <glyph glyph-name="k.ss01" horiz-adv-x="503" 
d="M80 0v701h74v-423h122l112 212h81l-129 -245l138 -245h-81l-121 209h-122v-209h-74z" />
    <glyph glyph-name="l.ss01" horiz-adv-x="233" 
d="M153 0h-73v701h73v-701z" />
    <glyph glyph-name="m.ss01" horiz-adv-x="826" 
d="M747 490v-490h-74v422h-223v-422h-74v422h-222v-422h-74v490h667z" />
    <glyph glyph-name="n.ss01" horiz-adv-x="547" 
d="M80 490h387v-490h-74v422h-239v-422h-74v490z" />
    <glyph glyph-name="ntilde.ss01" horiz-adv-x="547" 
d="M467 490h-387v-490h74v422h239v-422h74v490zM354 701h57q0 -48 -20.5 -75.5t-54.5 -27.5q-22 0 -42 10l-30 12q-25 10 -38 10q-28 0 -30 -32h-57q0 48 20.5 75.5t54.5 27.5q24 0 42 -9l30 -13q30 -10 37 -10q29 0 31 32z" />
    <glyph glyph-name="oe.ss01" horiz-adv-x="908" 
d="M660 157q-77 0 -122 50q-12 -85 -66 -140h357v-67h-526q-105 0 -175.5 72t-70.5 178t70.5 179t175.5 73q128 0 193 -96q23 46 66.5 71t97.5 25q78 0 130.5 -49t52.5 -124q0 -73 -53.5 -122.5t-129.5 -49.5zM133 250q0 -80 47.5 -131t122.5 -51q76 0 123.5 51t47.5 131
t-47.5 131t-123.5 51q-75 0 -122.5 -51t-47.5 -131zM660 226q48 0 78.5 30.5t30.5 72.5q0 43 -30.5 73.5t-78.5 30.5t-78.5 -30.5t-30.5 -73.5t30.5 -73t78.5 -30z" />
    <glyph glyph-name="r.ss01" horiz-adv-x="363" 
d="M154 422v-422h-74v490h248v-68h-174z" />
    <glyph glyph-name="s.ss01" horiz-adv-x="484" 
d="M233 502q98 0 174 -79l-50 -53q-60 63 -129 63q-39 0 -61 -17.5t-22 -42.5q0 -22 15.5 -39t50.5 -39l218 -133q-7 -80 -58 -126.5t-137 -46.5q-117 0 -188 92l49 51q56 -75 138 -75q49 0 78.5 20.5t36.5 52.5l-183 109q-94 55 -94 131q0 59 47.5 95.5t114.5 36.5z" />
    <glyph glyph-name="t.ss01" horiz-adv-x="382" 
d="M331 0h-203v422h-105v68h105v137h69v-137h139v-68h-139v-354h134v-68z" />
    <glyph glyph-name="u.ss01" horiz-adv-x="536" 
d="M456 0h-376v490h74v-422h228v422h74v-490z" />
    <glyph glyph-name="uacute.ss01" horiz-adv-x="536" 
d="M80 0h376v490h-74v-422h-228v422h-74v-490zM308 701h97l-114 -131h-74z" />
    <glyph glyph-name="ugrave.ss01" horiz-adv-x="536" 
d="M456 0h-376v490h74v-422h228v422h74v-490zM137 701h97l91 -131h-74z" />
    <glyph glyph-name="ucircumflex.ss01" horiz-adv-x="536" 
d="M80 0h376v490h-74v-422h-228v422h-74v-490zM219 701h97l97 -131h-74l-72 82l-71 -82h-74z" />
    <glyph glyph-name="udieresis.ss01" horiz-adv-x="536" 
d="M80 0h376v490h-74v-422h-228v422h-74v-490zM126 655q0 22 14.5 37t36.5 15t37 -15t15 -37t-15 -36.5t-37 -14.5t-36.5 14.5t-14.5 36.5zM307 655q0 22 14.5 37t36.5 15t37 -15t15 -37t-15 -36.5t-37 -14.5t-36.5 14.5t-14.5 36.5z" />
    <glyph glyph-name="y.ss01" horiz-adv-x="540" 
d="M308 -194h-78v185l-202 499h82l160 -407l160 407h82l-204 -499v-185z" />
    <glyph glyph-name="yacute.ss01" horiz-adv-x="540" 
d="M308 -194h-78v185l-202 499h82l160 -407l160 407h82l-204 -499v-185zM298 701h97l-114 -131h-74z" />
    <glyph glyph-name="ydieresis.ss01" horiz-adv-x="540" 
d="M308 -194h-78v185l-202 499h82l160 -407l160 407h82l-204 -499v-185zM132 655q0 22 14.5 37t36.5 15t37 -15t15 -37t-15 -36.5t-37 -14.5t-36.5 14.5t-14.5 36.5zM313 655q0 22 14.5 37t36.5 15t37 -15t15 -37t-15 -36.5t-37 -14.5t-36.5 14.5t-14.5 36.5z" />
    <glyph glyph-name="period.ss01" horiz-adv-x="308" 
d="M91 51q0 27 18.5 45t44.5 18t44.5 -18t18.5 -45q0 -26 -18.5 -44t-44.5 -18t-44.5 18t-18.5 44z" />
    <glyph glyph-name="colon.ss01" horiz-adv-x="326" 
d="M91 51q0 27 18.5 45t44.5 18t44.5 -18t18.5 -45q0 -26 -18.5 -44t-44.5 -18t-44.5 18t-18.5 44zM91 439q0 27 18.5 45t44.5 18t44.5 -18t18.5 -45q0 -26 -18.5 -44t-44.5 -18t-44.5 18t-18.5 44z" />
    <glyph glyph-name="comma.ss01" horiz-adv-x="307" 
d="M101 -148l-78 34l102 234l79 -35z" />
    <glyph glyph-name="semicolon.ss01" horiz-adv-x="308" 
d="M91 439q0 27 18.5 45t44.5 18t44.5 -18t18.5 -45q0 -26 -18.5 -44t-44.5 -18t-44.5 18t-18.5 44zM101 -148l-78 34l102 234l79 -35z" />
    <glyph glyph-name="ellipsis.ss01" horiz-adv-x="769" 
d="M91 51q0 27 18.5 45t44.5 18t44.5 -18t18.5 -45q0 -26 -18.5 -44t-44.5 -18t-44.5 18t-18.5 44zM346 51q0 27 18.5 45t44.5 18t44.5 -18t18.5 -45q0 -26 -18.5 -44t-44.5 -18t-44.5 18t-18.5 44zM602 51q0 27 18.5 45t44.5 18t44.5 -18t18.5 -45q0 -26 -18.5 -44
t-44.5 -18t-44.5 18t-18.5 44z" />
    <glyph glyph-name="question.ss01" horiz-adv-x="534" 
d="M221 272h-24v70h22q86 0 134.5 47t48.5 108q0 59 -42.5 101.5t-102.5 42.5q-113 0 -176 -109l-51 56q39 57 97 90.5t130 33.5q92 0 157 -62t65 -150t-69 -158t-189 -70zM298 52q0 -26 -18 -44.5t-45 -18.5q-26 0 -44.5 18.5t-18.5 44.5t18.5 44.5t44.5 18.5
q27 0 45 -18.5t18 -44.5z" />
    <glyph glyph-name="questiondown.ss01" horiz-adv-x="492" 
d="M312 221h-24q-120 0 -189 -70t-69 -158t65 -150t157 -62q148 0 227 124l-51 56q-63 -109 -176 -109q-60 0 -102.5 42.5t-42.5 101.5q0 61 48.5 108t134.5 47h22v70zM333 439q0 -26 -18 -44.5t-45 -18.5q-26 0 -44.5 18.5t-18.5 44.5t18.5 44.5t44.5 18.5q27 0 45 -18.5
t18 -44.5z" />
    <glyph glyph-name="exclam.ss01" horiz-adv-x="308" 
d="M115 228v473h77v-473h-77zM91 51q0 27 18.5 45t44.5 18t44.5 -18t18.5 -45q0 -26 -18.5 -44t-44.5 -18t-44.5 18t-18.5 44z" />
    <glyph glyph-name="exclamdown.ss01" horiz-adv-x="308" 
d="M193 262v-456h-77v456h77zM217 439q0 -26 -18.5 -44.5t-44.5 -18.5t-44.5 18.5t-18.5 44.5t18.5 44.5t44.5 18.5t44.5 -18.5t18.5 -44.5z" />
    <glyph glyph-name="quotedblleft.ss01" horiz-adv-x="421" 
d="M120 456l-74 32l104 224l63 -27zM282 450l-75 32l105 225l63 -28z" />
    <glyph glyph-name="quotedblright.ss01" horiz-adv-x="421" 
d="M301 707l74 -32l-104 -224l-63 27zM139 713l75 -32l-105 -225l-63 28z" />
    <glyph glyph-name="quoteleft.ss01" horiz-adv-x="259" 
d="M120 456l-74 32l104 224l63 -27z" />
    <glyph glyph-name="quoteright.ss01" horiz-adv-x="259" 
d="M139 712l74 -32l-104 -224l-63 27z" />
    <glyph glyph-name="quotesinglbase.ss01" horiz-adv-x="259" 
d="M139 120l74 -32l-105 -225l-62 28z" />
    <glyph glyph-name="quotedblbase.ss01" horiz-adv-x="421" 
d="M301 114l74 -32l-104 -224l-63 27zM139 120l75 -32l-105 -225l-63 28z" />
    <glyph glyph-name="ampersand.ss01" horiz-adv-x="687" 
d="M336 629h-38q-59 0 -93.5 -32.5t-34.5 -82.5t34.5 -82.5t93.5 -32.5h147v302h76v-302h134v-72h-134v-327h-236q-95 0 -158.5 53.5t-63.5 144.5q0 52 28 97.5t75 74.5q-32 23 -52.5 61.5t-20.5 81.5q0 84 59 136t150 52h34v-72zM139 198q0 -54 38 -90t102 -36h166v255
h-166q-64 0 -102 -37t-38 -92z" />
    <glyph glyph-name="germandbls.ss01" horiz-adv-x="594" 
d="M247 327v71l163 230h-260v-628h-76v700h423v-72l-165 -230q92 -2 154 -57t62 -142q0 -88 -64.5 -143.5t-158.5 -55.5h-78v71h72q68 0 110.5 34.5t42.5 93.5t-42.5 93.5t-110.5 34.5h-72z" />
    <glyph glyph-name="dollar.ss01" horiz-adv-x="638" 
d="M358 311l-86 15q-86 15 -142 63t-56 129q0 82 63 134t153 59v104h71v-106q113 -14 196 -104l-51 -56q-76 92 -196 92q-69 0 -114.5 -33.5t-45.5 -86.5q0 -99 149 -123l69 -12q101 -16 157 -66.5t56 -133.5q0 -78 -59.5 -132.5t-160.5 -62.5v-105h-71v105q-75 7 -135.5 41
t-97.5 85l52 54q81 -111 225 -111q74 0 122.5 33t48.5 92q0 100 -147 126z" />
    <glyph glyph-name="zero.ss02" horiz-adv-x="618" 
d="M484 351q0 132 -45.5 211t-129.5 79t-130 -79.5t-46 -210.5t46 -211t130 -80t129.5 79.5t45.5 211.5zM57 351q0 71 15 134t44.5 114.5t79 82t113.5 30.5t113.5 -30.5t79 -82t44.5 -114.5t15 -134t-15 -134t-44.5 -115t-79 -82.5t-113.5 -30.5t-113.5 30.5t-79 82.5
t-44.5 115t-15 134z" />
    <glyph glyph-name="one.ss02" horiz-adv-x="340" 
d="M164 0v565l-116 -95v88l182 154h9v-712h-75z" />
    <glyph glyph-name="two.ss02" horiz-adv-x="573" 
d="M195 72h310v-72h-457v9l294 359q65 79 65 147q0 60 -38.5 93t-96.5 33q-108 0 -162 -116l-53 52q29 61 87 98t125 37q95 0 155 -53t60 -143q0 -53 -27.5 -104t-85.5 -123z" />
    <glyph glyph-name="three.ss02" horiz-adv-x="570" 
d="M484 692l-192 -283q97 -9 152.5 -64.5t55.5 -141.5q0 -90 -70 -152t-172 -62q-132 0 -223 112l51 52q75 -94 177 -94q70 0 117 39t47 104q0 61 -48.5 98t-130.5 37h-82v10l189 282h-288v72h417v-9z" />
    <glyph glyph-name="four.ss02" horiz-adv-x="586" 
d="M540 177h-97v-177h-76v177h-346v9l413 532h9v-469h97v-72zM152 249h215v275z" />
    <glyph glyph-name="five.ss02" horiz-adv-x="564" 
d="M438 225q0 67 -47 110t-113 43q-54 0 -93 -25.5t-55 -65.5l-67 20l98 394h298v-72h-244l-55 -219q50 40 121 40q91 0 162 -59.5t71 -164.5q0 -101 -68 -169t-185 -68q-69 0 -126 34t-89 82l52 50q67 -95 166 -95q74 0 124 46.5t50 118.5z" />
    <glyph glyph-name="six.ss02" horiz-adv-x="611" 
d="M300 -11q-107 0 -175 67.5t-68 171.5q0 96 84 217l178 256h88l-188 -264q39 17 87 17q97 0 167 -64t70 -168q0 -107 -70.5 -170t-172.5 -63zM135 221q0 -72 48 -116.5t117 -44.5q70 0 118 44.5t48 116.5t-48 116.5t-118 44.5t-117.5 -44.5t-47.5 -116.5z" />
    <glyph glyph-name="seven.ss02" horiz-adv-x="488" 
d="M10 630v71h461v-9l-276 -692h-84l255 630h-356z" />
    <glyph glyph-name="eight.ss02" horiz-adv-x="568" 
d="M285 -11q-97 0 -162.5 58.5t-65.5 156.5q0 64 32 113.5t82 76.5q-70 58 -70 138q0 77 54 128.5t130 51.5t130 -51.5t54 -128.5q0 -80 -70 -138q50 -27 82 -76.5t32 -113.5q0 -98 -65.5 -156.5t-162.5 -58.5zM285 357q-64 0 -108 -43t-44 -107q0 -67 43.5 -107.5
t108.5 -40.5t108.5 40.5t43.5 107.5q0 64 -44 107t-108 43zM285 642q-45 0 -78.5 -31t-33.5 -79q0 -47 33.5 -76.5t78.5 -29.5t78.5 29.5t33.5 76.5q0 48 -33.5 79t-78.5 31z" />
    <glyph glyph-name="nine.ss02" horiz-adv-x="611" 
d="M311 712q107 0 175 -67.5t68 -171.5q0 -96 -84 -217l-178 -256h-88l188 264q-39 -17 -86 -17q-97 0 -167.5 64t-70.5 168q0 107 70.5 170t172.5 63zM477 480q0 72 -48.5 116.5t-117.5 44.5q-70 0 -118 -44.5t-48 -116.5t48 -116.5t118 -44.5t118 44.5t48 116.5z" />
    <glyph glyph-name="A.ss02" 
d="M349 718l329 -718h-83l-75 161h-354l-73 -161h-82l329 718h9zM344 557l-147 -323h294z" />
    <glyph glyph-name="Aacute.ss02" 
d="M349 718l329 -718h-83l-75 161h-354l-73 -161h-82l329 718h9zM344 557l-147 -323h294zM393 872h103l-108 -103h-86z" />
    <glyph glyph-name="Agrave.ss02" 
d="M349 718l329 -718h-83l-75 161h-354l-73 -161h-82l329 718h9zM344 557l-147 -323h294zM182 872h103l91 -103h-85z" />
    <glyph glyph-name="Acircumflex.ss02" 
d="M349 718l329 -718h-83l-75 161h-354l-73 -161h-82l329 718h9zM344 557l-147 -323h294zM296 872h97l97 -103h-80l-65 62l-66 -62h-79z" />
    <glyph glyph-name="Adieresis.ss02" 
d="M349 718l329 -718h-83l-75 161h-354l-73 -161h-82l329 718h9zM344 557l-147 -323h294zM203 820q0 22 14.5 37t36.5 15t37 -15t15 -37t-15 -36.5t-37 -14.5t-36.5 14.5t-14.5 36.5zM384 820q0 22 14.5 37t36.5 15t37 -15t15 -37t-15 -36.5t-37 -14.5t-36.5 14.5
t-14.5 36.5z" />
    <glyph glyph-name="Atilde.ss02" 
d="M349 718l329 -718h-83l-75 161h-354l-73 -161h-82l329 718h9zM344 557l-147 -323h294zM424 872h57q0 -48 -20.5 -75.5t-54.5 -27.5q-22 0 -42 10l-30 12q-25 10 -38 10q-28 0 -30 -32h-57q0 48 20.5 75.5t54.5 27.5q24 0 42 -9l30 -13q30 -10 37 -10q29 0 31 32z" />
    <glyph glyph-name="Aring.ss02" 
d="M255 788q0 39 25.5 64t61.5 25q38 0 64 -25t26 -64q0 -32 -21.5 -57t-54.5 -29l322 -702h-83l-75 161h-354l-73 -161h-82l321 701q-32 4 -54.5 29t-22.5 58zM344 557l-147 -323h294zM310 788q0 -14 10 -23.5t24 -9.5t23.5 9.5t9.5 23.5q0 15 -9.5 24.5t-23.5 9.5
t-24 -9.5t-10 -24.5z" />
    <glyph glyph-name="AE.ss02" horiz-adv-x="893" 
d="M824 701v-72h-440l110 -236h319v-72h-285l116 -249h180v-72h-229l-77 161h-349l-76 -161h-82l326 701h487zM344 546l-143 -312h286z" />
    <glyph glyph-name="K.ss02" horiz-adv-x="555" 
d="M135 328v-328h-77v701h77v-310l282 310h99l-307 -340l323 -361h-101z" />
    <glyph glyph-name="M.ss02" horiz-adv-x="798" 
d="M396 98l-240 375v-473h-76v718h9l310 -488l310 488h9v-718h-76v473l-237 -375h-9z" />
    <glyph glyph-name="N.ss02" horiz-adv-x="712" 
d="M624 -17l-468 538v-521h-76v718h9l467 -540v523h77v-718h-9z" />
    <glyph glyph-name="Ntilde.ss02" horiz-adv-x="712" 
d="M624 -17l-468 538v-521h-76v718h9l467 -540v523h77v-718h-9zM433 872h57q0 -48 -20.5 -75.5t-54.5 -27.5q-22 0 -42 10l-30 12q-25 10 -38 10q-28 0 -30 -32h-57q0 48 20.5 75.5t54.5 27.5q24 0 42 -9l30 -13q30 -10 37 -10q29 0 31 32z" />
    <glyph glyph-name="Q.ss02" horiz-adv-x="814" 
d="M46 351q0 150 100 255.5t248 105.5q149 0 250.5 -105.5t101.5 -255.5q0 -132 -80 -233l101 -100l-51 -51l-100 100q-96 -78 -222 -78q-149 0 -248.5 105t-99.5 257zM398 60q118 0 195.5 83.5t77.5 207.5q0 123 -76.5 206.5t-196.5 83.5q-121 0 -198.5 -83.5t-77.5 -206.5
q0 -125 77 -208t199 -83z" />
    <glyph glyph-name="R.ss02" horiz-adv-x="649" 
d="M504 0l-211 258h-137v-258h-76v701h244q117 0 186.5 -60.5t69.5 -161.5q0 -87 -52 -144t-142 -72l211 -263h-93zM335 629h-179v-300h179q78 0 123.5 38t45.5 112q0 72 -45.5 111t-123.5 39z" />
    <glyph glyph-name="S.ss02" horiz-adv-x="582" 
d="M336 305l-103 41q-76 30 -116 74t-40 111q0 83 59 132t152 49q74 0 120.5 -28.5t80.5 -79.5l-53 -54q-29 44 -64.5 67.5t-89.5 23.5q-58 0 -93.5 -31.5t-35.5 -75.5t26.5 -70t87.5 -51l79 -32q95 -38 135.5 -83t40.5 -117q0 -80 -63.5 -136t-175.5 -56q-156 0 -238 128
l52 54q34 -55 78.5 -83t111.5 -28q71 0 115 33t44 87q0 46 -26.5 74.5t-83.5 50.5z" />
    <glyph glyph-name="Scaron.ss02" horiz-adv-x="582" 
d="M336 305l-103 41q-76 30 -116 74t-40 111q0 83 59 132t152 49q74 0 120.5 -28.5t80.5 -79.5l-53 -54q-29 44 -64.5 67.5t-89.5 23.5q-58 0 -93.5 -31.5t-35.5 -75.5t26.5 -70t87.5 -51l79 -32q95 -38 135.5 -83t40.5 -117q0 -80 -63.5 -136t-175.5 -56q-156 0 -238 128
l52 54q34 -55 78.5 -83t111.5 -28q71 0 115 33t44 87q0 46 -26.5 74.5t-83.5 50.5zM337 769h-97l-96 103h79l66 -62l65 62h80z" />
    <glyph glyph-name="V.ss02" horiz-adv-x="610" 
d="M306 178l199 523h82l-277 -718h-9l-278 718h82z" />
    <glyph glyph-name="W.ss02" horiz-adv-x="935" 
d="M125 701l157 -500l181 517h9l181 -517l156 500h80l-228 -718h-9l-185 529l-184 -529h-9l-228 718h79z" />
    <glyph glyph-name="Z.ss02" horiz-adv-x="663" 
d="M81 701h539v-9l-442 -620h423v-72h-558v9l444 620h-406v72z" />
    <glyph glyph-name="Zcaron.ss02" horiz-adv-x="663" 
d="M81 701h539v-9l-442 -620h423v-72h-558v9l444 620h-406v72zM387 769h-97l-96 103h79l66 -62l65 62h80z" />
    <glyph glyph-name="a.ss02" horiz-adv-x="612" 
d="M57 245q0 108 67.5 182.5t171.5 74.5q101 0 162 -74v62h74v-490h-74v62q-62 -73 -162 -73q-104 0 -171.5 74t-67.5 182zM133 245q0 -81 44.5 -134t118.5 -53q71 0 117.5 53.5t46.5 133.5t-46.5 133.5t-117.5 53.5t-117 -53.5t-46 -133.5z" />
    <glyph glyph-name="aacute.ss02" horiz-adv-x="612" 
d="M57 245q0 108 67.5 182.5t171.5 74.5q101 0 162 -74v62h74v-490h-74v62q-62 -73 -162 -73q-104 0 -171.5 74t-67.5 182zM133 245q0 -81 44.5 -134t118.5 -53q71 0 117.5 53.5t46.5 133.5t-46.5 133.5t-117.5 53.5t-117 -53.5t-46 -133.5zM329 701h97l-114 -131h-74z" />
    <glyph glyph-name="agrave.ss02" horiz-adv-x="612" 
d="M57 245q0 108 67.5 182.5t171.5 74.5q101 0 162 -74v62h74v-490h-74v62q-62 -73 -162 -73q-104 0 -171.5 74t-67.5 182zM133 245q0 -81 44.5 -134t118.5 -53q71 0 117.5 53.5t46.5 133.5t-46.5 133.5t-117.5 53.5t-117 -53.5t-46 -133.5zM186 701h97l91 -131h-74z" />
    <glyph glyph-name="acircumflex.ss02" horiz-adv-x="612" 
d="M57 245q0 108 67.5 182.5t171.5 74.5q101 0 162 -74v62h74v-490h-74v62q-62 -73 -162 -73q-104 0 -171.5 74t-67.5 182zM133 245q0 -81 44.5 -134t118.5 -53q71 0 117.5 53.5t46.5 133.5t-46.5 133.5t-117.5 53.5t-117 -53.5t-46 -133.5zM250 701h97l97 -131h-74l-72 82
l-71 -82h-74z" />
    <glyph glyph-name="adieresis.ss02" horiz-adv-x="612" 
d="M57 245q0 108 67.5 182.5t171.5 74.5q101 0 162 -74v62h74v-490h-74v62q-62 -73 -162 -73q-104 0 -171.5 74t-67.5 182zM133 245q0 -81 44.5 -134t118.5 -53q71 0 117.5 53.5t46.5 133.5t-46.5 133.5t-117.5 53.5t-117 -53.5t-46 -133.5zM159 655q0 22 14.5 37t36.5 15
t37 -15t15 -37t-15 -36.5t-37 -14.5t-36.5 14.5t-14.5 36.5zM340 655q0 22 14.5 37t36.5 15t37 -15t15 -37t-15 -36.5t-37 -14.5t-36.5 14.5t-14.5 36.5z" />
    <glyph glyph-name="atilde.ss02" horiz-adv-x="612" 
d="M57 245q0 108 67.5 182.5t171.5 74.5q101 0 162 -74v62h74v-490h-74v62q-62 -73 -162 -73q-104 0 -171.5 74t-67.5 182zM133 245q0 -81 44.5 -134t118.5 -53q71 0 117.5 53.5t46.5 133.5t-46.5 133.5t-117.5 53.5t-117 -53.5t-46 -133.5zM378 701h57q0 -48 -20.5 -75.5
t-54.5 -27.5q-22 0 -42 10l-30 12q-25 10 -38 10q-28 0 -30 -32h-57q0 48 20.5 75.5t54.5 27.5q24 0 42 -9l30 -13q30 -10 37 -10q29 0 31 32z" />
    <glyph glyph-name="aring.ss02" horiz-adv-x="612" 
d="M57 245q0 108 67.5 182.5t171.5 74.5q101 0 162 -74v62h74v-490h-74v62q-62 -73 -162 -73q-104 0 -171.5 74t-67.5 182zM133 245q0 -81 44.5 -134t118.5 -53q71 0 117.5 53.5t46.5 133.5t-46.5 133.5t-117.5 53.5t-117 -53.5t-46 -133.5zM220 635q0 34 22 55.5t53 21.5
q34 0 56.5 -21.5t22.5 -55.5q0 -32 -22.5 -54t-56.5 -22q-31 0 -53 22.5t-22 53.5zM268 635q0 -13 8.5 -21t21.5 -8q12 0 20 8t8 21t-8 20.5t-20 7.5q-13 0 -21.5 -7.5t-8.5 -20.5z" />
    <glyph glyph-name="k.ss02" horiz-adv-x="498" 
d="M80 0v701h74v-421l207 210h97l-231 -235l243 -255h-102l-214 225v-225h-74z" />
    <glyph glyph-name="v.ss02" horiz-adv-x="449" 
d="M438 490l-209 -507h-9l-209 507h79l135 -334l134 334h79z" />
    <glyph glyph-name="w.ss02" horiz-adv-x="668" 
d="M189 174l140 333h10l140 -333l100 316h78l-166 -507h-9l-148 365l-148 -365h-9l-166 507h78z" />
    <glyph glyph-name="z.ss02" horiz-adv-x="505" 
d="M66 490h390v-9l-296 -413h290v-68h-418v9l293 413h-259v68z" />
    <glyph glyph-name="zcaron.ss02" horiz-adv-x="505" 
d="M66 490h390v-9l-296 -413h290v-68h-418v9l293 413h-259v68zM302 570h-97l-97 131h74l71 -82l72 82h74z" />
    <glyph glyph-name="question.ss02" horiz-adv-x="490" 
d="M228 434l41 16q42 16 60.5 40t18.5 61q0 40 -31.5 65t-78.5 25q-88 0 -147 -87l-46 51q25 44 77.5 75.5t115.5 31.5q81 0 131.5 -45t50.5 -114q0 -114 -131 -166l-43 -18q-64 -27 -64 -69q0 -21 14 -35.5t36 -14.5q35 0 54 31l50 -44q-39 -55 -105 -55q-51 0 -84.5 33.5
t-33.5 80.5q0 91 115 138zM170 48q0 25 17.5 42.5t42.5 17.5q26 0 43 -17t17 -43q0 -25 -17.5 -42t-43.5 -17q-25 0 -42 17t-17 42z" />
    <glyph glyph-name="questiondown.ss02" horiz-adv-x="490" 
d="M325 444q0 -25 -17 -42.5t-42 -17.5q-26 0 -43.5 17t-17.5 43q0 25 17.5 42t43.5 17q25 0 42 -17t17 -42zM267 63l-41 -16q-79 -31 -79 -96q0 -39 31.5 -62t78.5 -23q88 0 147 87l46 -51q-25 -44 -77.5 -75.5t-115.5 -31.5q-82 0 -132 43t-50 111q0 109 131 161l43 18
q64 27 64 67q0 21 -14 34.5t-36 13.5q-35 0 -54 -31l-50 44q39 55 105 55q52 0 85 -32.5t33 -79.5q0 -48 -28 -80t-87 -56z" />
    <glyph glyph-name="ampersand.ss02" horiz-adv-x="687" 
d="M543 0l-64 80l-21 -17q-92 -74 -194 -74q-94 0 -145 53.5t-51 129.5q0 123 144 212l21 13q-68 92 -68 162q0 65 45.5 109t115.5 44q67 0 111.5 -41.5t44.5 -106.5q0 -57 -30.5 -96t-96.5 -84l-11 -7l146 -187l98 83l46 -58l-97 -82l103 -133h-97zM266 60q72 0 147 63
l19 16l-155 198l-25 -15q-53 -32 -80.5 -65t-27.5 -83q0 -49 34.5 -81.5t87.5 -32.5zM321 641q-36 0 -57.5 -24.5t-21.5 -59.5q0 -49 44 -104l14 -18l9 6q31 19 48.5 33t33 38.5t15.5 52.5q0 33 -24.5 54.5t-60.5 21.5z" />
    <glyph glyph-name="germandbls.ss02" horiz-adv-x="594" 
d="M247 71h72q68 0 110.5 34.5t42.5 93.5q0 60 -42.5 94t-110.5 34h-72v72h61q56 0 92 34.5t36 85.5q0 50 -40 85t-97 35q-73 0 -111 -43.5t-38 -118.5v-477h-76v477q0 106 63 170t162 64q90 0 152 -55t62 -136q0 -97 -70 -147q52 -27 78.5 -73.5t26.5 -101.5
q0 -87 -64.5 -142.5t-158.5 -55.5h-78v71z" />
    <glyph glyph-name="dollar.ss02" horiz-adv-x="582" 
d="M336 305l-103 41q-76 30 -116 74t-40 111q0 75 49.5 123t130.5 56v105h71v-106q99 -12 161 -105l-53 -54q-29 44 -64.5 67.5t-89.5 23.5q-58 0 -93.5 -31.5t-35.5 -75.5t26.5 -70t87.5 -51l79 -32q95 -38 135.5 -83t40.5 -117t-51 -125t-143 -64v-106h-71v104
q-139 11 -212 127l52 54q34 -55 78.5 -83t111.5 -28q71 0 115 33t44 87q0 46 -26.5 74.5t-83.5 50.5z" />
    <glyph glyph-name="zero.ss03" horiz-adv-x="618" 
d="M484 351q0 132 -45.5 211t-129.5 79t-130 -79.5t-46 -210.5t46 -211t130 -80t129.5 79.5t45.5 211.5zM57 351q0 71 15 134t44.5 114.5t79 82t113.5 30.5t113.5 -30.5t79 -82t44.5 -114.5t15 -134t-15 -134t-44.5 -115t-79 -82.5t-113.5 -30.5t-113.5 30.5t-79 82.5
t-44.5 115t-15 134z" />
    <glyph glyph-name="one.ss03" horiz-adv-x="442" 
d="M223 0v536h-147v53q77 4 109.5 26t51.5 86h62v-701h-76z" />
    <glyph glyph-name="two.ss03" horiz-adv-x="553" 
d="M138 72h347v-72h-428v23q0 106 41 178t144 133l52 31q59 35 88 70t29 85q0 53 -34.5 87t-91.5 34q-60 0 -97 -36t-44 -98h-76q8 95 69.5 150t147.5 55t144.5 -52t58.5 -140q0 -68 -38 -119t-120 -99l-56 -33q-130 -76 -136 -197z" />
    <glyph glyph-name="three.ss03" horiz-adv-x="579" 
d="M407 366q49 -20 80.5 -65t31.5 -106q0 -95 -69.5 -150.5t-166.5 -55.5t-163 54.5t-75 143.5h75q6 -60 52.5 -93.5t110.5 -33.5q71 0 116 34.5t45 98.5q0 65 -46.5 96t-121.5 31h-63v73h51q72 0 113.5 35t41.5 91q0 59 -41.5 90.5t-94.5 31.5q-60 0 -97.5 -30t-45.5 -79
h-77q14 87 75.5 133.5t142.5 46.5q87 0 151 -49.5t64 -139.5q0 -57 -26.5 -97t-62.5 -60z" />
    <glyph glyph-name="four.ss03" horiz-adv-x="583" 
d="M537 177h-97v-177h-76v177h-324v66l329 458h71v-452h97v-72zM121 249h243v335z" />
    <glyph glyph-name="five.ss03" horiz-adv-x="552" 
d="M447 218q0 73 -45 114t-114 41q-44 0 -83 -22.5t-56 -54.5h-69l21 405h370v-72h-302l-14 -237q20 23 58.5 38t84.5 15q93 0 159 -60t66 -167q0 -97 -61 -163t-172 -66q-83 0 -144.5 50t-77.5 127h78q12 -49 53.5 -77.5t94.5 -28.5q69 0 111 42.5t42 115.5z" />
    <glyph glyph-name="six.ss03" horiz-adv-x="616" 
d="M329 -11q-117 0 -186 100.5t-69 267.5q0 162 68.5 258.5t188.5 96.5q77 0 134.5 -45t70.5 -123h-75q-14 48 -50.5 72.5t-85.5 24.5q-81 0 -131 -81t-45 -210q28 52 77 78t103 26q93 0 161.5 -64t68.5 -168q0 -106 -70 -169.5t-160 -63.5zM329 382q-62 0 -106.5 -44
t-44.5 -115q0 -69 45 -116t111 -47q59 0 103.5 42t44.5 120q0 73 -45 116.5t-108 43.5z" />
    <glyph glyph-name="seven.ss03" horiz-adv-x="535" 
d="M46 629v72h454v-66q-218 -261 -247 -595l-3 -40h-77l4 39q15 171 74.5 327t155.5 263h-361z" />
    <glyph glyph-name="eight.ss03" horiz-adv-x="554" 
d="M277 -11q-95 0 -160.5 55.5t-65.5 144.5q0 62 41 111t81 60q-37 15 -71 56t-34 100q0 87 62.5 140.5t146.5 53.5t146.5 -53.5t62.5 -140.5q0 -59 -34 -100t-71 -56q40 -11 81 -60t41 -111q0 -89 -65.5 -144.5t-160.5 -55.5zM277 321q-64 0 -106.5 -35.5t-42.5 -95.5
q0 -59 43.5 -94.5t105.5 -35.5t105.5 35.5t43.5 94.5t-43 95t-106 36zM277 639q-49 0 -90.5 -32.5t-41.5 -91.5q0 -56 37.5 -89t94.5 -33q56 0 94 33t38 89q0 59 -41.5 91.5t-90.5 32.5z" />
    <glyph glyph-name="nine.ss03" horiz-adv-x="598" 
d="M286 712q119 0 186 -98.5t67 -257.5q0 -170 -64 -268.5t-190 -98.5q-77 0 -134.5 45t-70.5 123h75q14 -48 50 -72.5t86 -24.5q85 0 129.5 79.5t45.5 211.5q-28 -52 -77 -78t-103 -26q-92 0 -160.5 64t-68.5 168q0 106 69.5 169.5t159.5 63.5zM286 319q62 0 107 44t45 115
q0 68 -45 115.5t-111 47.5q-59 0 -104 -42t-45 -120q0 -73 45 -116.5t108 -43.5z" />
    <glyph glyph-name="A.ss03" horiz-adv-x="673" 
d="M380 701l273 -701h-82l-82 206h-305l-81 -206h-83l274 701h86zM336 603l-124 -324h250z" />
    <glyph glyph-name="Aacute.ss03" 
d="M388 701l273 -701h-82l-82 206h-305l-81 -206h-83l274 701h86zM344 603l-124 -324h250zM370 872h103l-108 -103h-86z" />
    <glyph glyph-name="Agrave.ss03" 
d="M388 701l273 -701h-82l-82 206h-305l-81 -206h-83l274 701h86zM344 603l-124 -324h250zM203 872h103l91 -103h-85z" />
    <glyph glyph-name="Acircumflex.ss03" 
d="M388 701l273 -701h-82l-82 206h-305l-81 -206h-83l274 701h86zM344 603l-124 -324h250zM296 872h97l97 -103h-80l-65 62l-66 -62h-79z" />
    <glyph glyph-name="Adieresis.ss03" 
d="M388 701l273 -701h-82l-82 206h-305l-81 -206h-83l274 701h86zM344 603l-124 -324h250zM219 787v85h78v-85h-78zM391 787v85h78v-85h-78z" />
    <glyph glyph-name="Atilde.ss03" 
d="M388 701l273 -701h-82l-82 206h-305l-81 -206h-83l274 701h86zM344 603l-124 -324h250zM421 872h57q0 -48 -20.5 -75.5t-54.5 -27.5q-22 0 -42 10l-30 12q-25 10 -38 10q-28 0 -30 -32h-57q0 48 20.5 75.5t54.5 27.5q24 0 42 -9l30 -13q30 -10 37 -10q29 0 31 32z" />
    <glyph glyph-name="Aring.ss03" 
d="M255 777q0 39 25.5 64t61.5 25q38 0 64 -25t26 -64q0 -51 -46 -76h2l273 -701h-82l-82 206h-305l-81 -206h-83l274 700q-47 25 -47 77zM344 603l-124 -324h250zM310 777q0 -14 10 -23.5t24 -9.5t23.5 9.5t9.5 23.5q0 15 -9.5 24.5t-23.5 9.5t-24 -9.5t-10 -24.5z" />
    <glyph glyph-name="AE.ss03" horiz-adv-x="921" 
d="M853 701v-72h-437l92 -236h328v-72h-300l97 -249h220v-72h-274l-82 206h-305l-81 -206h-83l274 701h551zM344 603l-124 -324h250z" />
    <glyph glyph-name="C.ss03" horiz-adv-x="615" 
d="M526 165l49 -56q-48 -60 -100.5 -90t-127.5 -30q-98 0 -167 52t-99.5 131.5t-30.5 176.5q0 98 32 178.5t100.5 132.5t164.5 52q77 0 128.5 -29t93.5 -91l-51 -54q-60 103 -171 103q-110 0 -165.5 -83.5t-55.5 -208.5t54.5 -207t166.5 -82q59 0 100.5 26t78.5 79z" />
    <glyph glyph-name="Ccedilla.ss03" horiz-adv-x="605" 
d="M324 -137h-80l62 129q-125 15 -190.5 116t-65.5 241q0 98 32 178.5t100.5 132.5t164.5 52q77 0 128.5 -29t93.5 -91l-51 -54q-60 103 -171 103q-110 0 -165.5 -83.5t-55.5 -208.5t54.5 -207t166.5 -82q59 0 100.5 26t78.5 79l49 -56q-43 -54 -88.5 -83t-107.5 -35z" />
    <glyph glyph-name="D.ss03" horiz-adv-x="655" 
d="M80 0v700h190q153 0 241.5 -82t88.5 -263q0 -183 -89.5 -269t-240.5 -86h-190zM279 628h-123v-556h124q241 0 241 283q0 273 -242 273z" />
    <glyph glyph-name="Edieresis.ss03" horiz-adv-x="591" 
d="M80 0v701h459v-72h-383v-236h372v-72h-372v-249h383v-72h-459zM190 787v85h78v-85h-78zM362 787v85h78v-85h-78z" />
    <glyph glyph-name="G.ss03" horiz-adv-x="695" 
d="M373 277v72h247v-349h-68v100q-31 -50 -85 -80.5t-119 -30.5q-137 0 -217.5 101t-80.5 259t87.5 260.5t221.5 102.5q161 0 248 -131l-51 -54q-71 114 -197 114q-105 0 -168.5 -80.5t-63.5 -211.5t58.5 -210t164.5 -79q89 0 140 60t56 157h-173z" />
    <glyph glyph-name="Idieresis.ss03" horiz-adv-x="236" 
d="M80 0v701h76v-701h-76zM-7 787v85h78v-85h-78zM165 787v85h78v-85h-78z" />
    <glyph glyph-name="J.ss03" horiz-adv-x="515" 
d="M370 218v483h77v-483q0 -105 -54.5 -167t-157.5 -62q-98 0 -155 62.5t-57 154.5v32h76v-32q0 -70 38.5 -108t97.5 -38q135 0 135 158z" />
    <glyph glyph-name="M.ss03" horiz-adv-x="821" 
d="M367 0l-211 547v-547h-76v700h99l231 -611l233 611h98v-700h-76v547l-211 -547h-87z" />
    <glyph glyph-name="O.ss03" horiz-adv-x="700" 
d="M50 351q0 154 80 257.5t218 103.5q139 0 220.5 -103.5t81.5 -257.5q0 -156 -81.5 -259t-220.5 -103q-138 0 -218 103t-80 259zM126 351q0 -130 57.5 -210.5t168.5 -80.5q109 0 166 80.5t57 210.5q0 128 -57 209t-166 81q-111 0 -168.5 -81t-57.5 -209z" />
    <glyph glyph-name="Oacute.ss03" 
d="M45 351q0 154 80 257.5t218 103.5q139 0 220.5 -103.5t81.5 -257.5q0 -156 -81.5 -259t-220.5 -103q-138 0 -218 103t-80 259zM121 351q0 -130 57.5 -210.5t168.5 -80.5q109 0 166 80.5t57 210.5q0 128 -57 209t-166 81q-111 0 -168.5 -81t-57.5 -209zM362 872h103
l-108 -103h-86z" />
    <glyph glyph-name="Ograve.ss03" 
d="M45 351q0 154 80 257.5t218 103.5q139 0 220.5 -103.5t81.5 -257.5q0 -156 -81.5 -259t-220.5 -103q-138 0 -218 103t-80 259zM121 351q0 -130 57.5 -210.5t168.5 -80.5q109 0 166 80.5t57 210.5q0 128 -57 209t-166 81q-111 0 -168.5 -81t-57.5 -209zM222 872h103
l91 -103h-85z" />
    <glyph glyph-name="Ocircumflex.ss03" 
d="M45 351q0 154 80 257.5t218 103.5q139 0 220.5 -103.5t81.5 -257.5q0 -156 -81.5 -259t-220.5 -103q-138 0 -218 103t-80 259zM121 351q0 -130 57.5 -210.5t168.5 -80.5q109 0 166 80.5t57 210.5q0 128 -57 209t-166 81q-111 0 -168.5 -81t-57.5 -209zM300 872h97
l97 -103h-80l-65 62l-66 -62h-79z" />
    <glyph glyph-name="Odieresis.ss03" horiz-adv-x="700" 
d="M224 787v85h78v-85h-78zM396 787v85h78v-85h-78zM50 351q0 154 80 257.5t218 103.5q139 0 220.5 -103.5t81.5 -257.5q0 -156 -81.5 -259t-220.5 -103q-138 0 -218 103t-80 259zM126 351q0 -130 57.5 -210.5t168.5 -80.5q109 0 166 80.5t57 210.5q0 128 -57 209t-166 81
q-111 0 -168.5 -81t-57.5 -209z" />
    <glyph glyph-name="Otilde.ss03" horiz-adv-x="700" 
d="M50 351q0 154 80 257.5t218 103.5q139 0 220.5 -103.5t81.5 -257.5q0 -156 -81.5 -259t-220.5 -103q-138 0 -218 103t-80 259zM126 351q0 -130 57.5 -210.5t168.5 -80.5q109 0 166 80.5t57 210.5q0 128 -57 209t-166 81q-111 0 -168.5 -81t-57.5 -209zM426 872h57
q0 -48 -20.5 -75.5t-54.5 -27.5q-22 0 -42 10l-30 12q-25 10 -38 10q-28 0 -30 -32h-57q0 48 20.5 75.5t54.5 27.5q24 0 42 -9l30 -13q30 -10 37 -10q29 0 31 32z" />
    <glyph glyph-name="Q.ss03" horiz-adv-x="700" 
d="M343 0q-139 0 -218.5 100t-79.5 256q0 154 80 255t218 101q139 0 220.5 -101.5t81.5 -254.5q0 -95 -32.5 -171.5t-96.5 -120.5l134 7v-71h-307zM121 356q0 -129 57.5 -207t168.5 -78q110 0 166.5 78t56.5 207q0 128 -56.5 207t-166.5 79q-111 0 -168.5 -79t-57.5 -207z
" />
    <glyph glyph-name="R.ss03" horiz-adv-x="628" 
d="M578 0h-79l-21 155q-7 49 -21 78t-41 42t-52.5 16.5t-72.5 3.5h-135v-295h-76v700h255q113 0 176.5 -49.5t63.5 -147.5q0 -66 -34.5 -112.5t-87.5 -65.5q42 -17 65 -48.5t33 -97.5zM344 628h-188v-261h188q75 0 114 34.5t39 98.5q0 60 -39 94t-114 34z" />
    <glyph glyph-name="Udieresis.ss03" horiz-adv-x="668" 
d="M523 275v426h77v-426q0 -126 -71 -206t-195 -80t-195 80t-71 206v426h77v-427q0 -93 49.5 -153.5t139.5 -60.5t139.5 61t49.5 154zM208 787v85h78v-85h-78zM380 787v85h78v-85h-78z" />
    <glyph glyph-name="Ydieresis.ss03" horiz-adv-x="578" 
d="M107 701l183 -343l181 343h84l-228 -418v-283h-76v283l-228 418h84zM170 787v85h78v-85h-78zM342 787v85h78v-85h-78z" />
    <glyph glyph-name="a.ss03" horiz-adv-x="534" 
d="M225 -11q-78 0 -121.5 40t-43.5 103q0 128 177 154l138 19v20q0 55 -29.5 82t-81.5 27q-47 0 -77 -24t-35 -65h-76q5 66 56.5 111.5t130.5 45.5q84 0 135 -46.5t51 -128.5v-210q0 -35 8.5 -45t33.5 -10l13 1v-63q-17 -3 -40 -3q-32 0 -53.5 17t-24.5 47q-52 -72 -161 -72
zM131 133q0 -34 25 -55t69 -21q69 0 109.5 39.5t40.5 104.5v38l-143 -22q-47 -8 -74 -29.5t-27 -54.5z" />
    <glyph glyph-name="aacute.ss03" horiz-adv-x="514" 
d="M214 -11q-78 0 -121.5 40t-43.5 103q0 128 177 154l138 19v20q0 55 -29.5 82t-81.5 27q-47 0 -77 -24t-35 -65h-76q5 66 56.5 111.5t130.5 45.5q84 0 135 -46.5t51 -128.5v-210q0 -35 9 -45t35 -10h11v-62q-19 -2 -42 -2q-32 0 -52.5 16.5t-23.5 46.5q-52 -72 -161 -72z
M120 133q0 -34 25 -55t69 -21q69 0 109.5 39.5t40.5 104.5v38l-143 -22q-47 -8 -74 -29.5t-27 -54.5zM291 701h97l-114 -131h-74z" />
    <glyph glyph-name="agrave.ss03" horiz-adv-x="514" 
d="M214 -11q-78 0 -121.5 40t-43.5 103q0 128 177 154l138 19v20q0 55 -29.5 82t-81.5 27q-47 0 -77 -24t-35 -65h-76q5 66 56.5 111.5t130.5 45.5q84 0 135 -46.5t51 -128.5v-210q0 -35 9 -45t35 -10h11v-62q-19 -2 -42 -2q-32 0 -52.5 16.5t-23.5 46.5q-52 -72 -161 -72z
M120 133q0 -34 25 -55t69 -21q69 0 109.5 39.5t40.5 104.5v38l-143 -22q-47 -8 -74 -29.5t-27 -54.5zM126 701h97l91 -131h-74z" />
    <glyph glyph-name="acircumflex.ss03" horiz-adv-x="514" 
d="M214 -11q-78 0 -121.5 40t-43.5 103q0 128 177 154l138 19v20q0 55 -29.5 82t-81.5 27q-47 0 -77 -24t-35 -65h-76q5 66 56.5 111.5t130.5 45.5q84 0 135 -46.5t51 -128.5v-210q0 -35 9 -45t35 -10h11v-62q-19 -2 -42 -2q-32 0 -52.5 16.5t-23.5 46.5q-52 -72 -161 -72z
M120 133q0 -34 25 -55t69 -21q69 0 109.5 39.5t40.5 104.5v38l-143 -22q-47 -8 -74 -29.5t-27 -54.5zM202 701h97l97 -131h-74l-72 82l-71 -82h-74z" />
    <glyph glyph-name="adieresis.ss03" horiz-adv-x="514" 
d="M214 -11q-78 0 -121.5 40t-43.5 103q0 128 177 154l138 19v20q0 55 -29.5 82t-81.5 27q-47 0 -77 -24t-35 -65h-76q5 66 56.5 111.5t130.5 45.5q84 0 135 -46.5t51 -128.5v-210q0 -35 9 -45t35 -10h11v-62q-19 -2 -42 -2q-32 0 -52.5 16.5t-23.5 46.5q-52 -72 -161 -72z
M120 133q0 -34 25 -55t69 -21q69 0 109.5 39.5t40.5 104.5v38l-143 -22q-47 -8 -74 -29.5t-27 -54.5zM130 616v85h78v-85h-78zM302 616v85h78v-85h-78z" />
    <glyph glyph-name="atilde.ss03" horiz-adv-x="514" 
d="M214 -11q-78 0 -121.5 40t-43.5 103q0 128 177 154l138 19v20q0 55 -29.5 82t-81.5 27q-47 0 -77 -24t-35 -65h-76q5 66 56.5 111.5t130.5 45.5q84 0 135 -46.5t51 -128.5v-210q0 -35 9 -45t35 -10h11v-62q-19 -2 -42 -2q-32 0 -52.5 16.5t-23.5 46.5q-52 -72 -161 -72z
M120 133q0 -34 25 -55t69 -21q69 0 109.5 39.5t40.5 104.5v38l-143 -22q-47 -8 -74 -29.5t-27 -54.5zM331 701h57q0 -48 -20.5 -75.5t-54.5 -27.5q-22 0 -42 10l-30 12q-25 10 -38 10q-28 0 -30 -32h-57q0 48 20.5 75.5t54.5 27.5q24 0 42 -9l30 -13q30 -10 37 -10
q29 0 31 32z" />
    <glyph glyph-name="aring.ss03" horiz-adv-x="514" 
d="M214 -11q-78 0 -121.5 40t-43.5 103q0 128 177 154l138 19v20q0 55 -29.5 82t-81.5 27q-47 0 -77 -24t-35 -65h-76q5 66 56.5 111.5t130.5 45.5q84 0 135 -46.5t51 -128.5v-210q0 -35 9 -45t35 -10h11v-62q-19 -2 -42 -2q-32 0 -52.5 16.5t-23.5 46.5q-52 -72 -161 -72z
M120 133q0 -34 25 -55t69 -21q69 0 109.5 39.5t40.5 104.5v38l-143 -22q-47 -8 -74 -29.5t-27 -54.5zM178 635q0 34 22 55.5t53 21.5q34 0 56.5 -21.5t22.5 -55.5q0 -32 -22.5 -54t-56.5 -22q-31 0 -53 22.5t-22 53.5zM226 635q0 -13 8.5 -21t21.5 -8q12 0 20 8t8 21
t-8 20.5t-20 7.5q-13 0 -21.5 -7.5t-8.5 -20.5z" />
    <glyph glyph-name="ae.ss03" horiz-adv-x="870" 
d="M408 96q-66 -107 -197 -107q-78 0 -123 40t-45 103q0 78 58.5 117t149.5 39h117v37q0 49 -33 79t-83 30q-47 0 -79.5 -24.5t-37.5 -64.5h-76q5 65 59 111t133 46q59 0 103.5 -25t66.5 -69q63 94 173 94q57 0 100.5 -22t68.5 -59t37.5 -78.5t12.5 -86.5l-1 -34h-365
q5 -77 48.5 -120.5t115.5 -43.5q84 0 140 72l52 -47q-80 -94 -192 -94q-138 0 -203 107zM595 432q-61 0 -98.5 -40t-47.5 -104h289q-5 65 -43.5 104.5t-99.5 39.5zM114 133q0 -34 27 -55t72 -21q64 0 109.5 40.5t45.5 103.5v21h-118q-64 0 -100 -24t-36 -65z" />
    <glyph glyph-name="edieresis.ss03" horiz-adv-x="556" 
d="M133 222h365q1 17 1 34q0 61 -20.5 114.5t-72 92.5t-126.5 39q-102 0 -162.5 -74.5t-60.5 -185.5q0 -113 65.5 -183t175.5 -70q113 0 191 94l-51 47q-58 -72 -140 -72q-72 0 -116 43.5t-49 120.5zM282 432q61 0 99 -39.5t43 -104.5h-288q10 64 47 104t99 40zM152 616v85
h78v-85h-78zM324 616v85h78v-85h-78z" />
    <glyph glyph-name="i.ss03" horiz-adv-x="286" 
d="M105 604v97h79v-97h-79zM107 0v490h74v-490h-74z" />
    <glyph glyph-name="idieresis.ss03" horiz-adv-x="286" 
d="M18 616v85h79v-85h-79zM107 0v490h74v-490h-74zM190 616v85h79v-85h-79z" />
    <glyph glyph-name="j.ss03" horiz-adv-x="261" 
d="M105 -42v532h74v-544q0 -78 -35 -111.5t-108 -33.5l-51 2v67q33 -1 44 -1q45 0 60.5 20.5t15.5 68.5zM102 604v97h79v-97h-79z" />
    <glyph glyph-name="odieresis.ss03" horiz-adv-x="608" 
d="M57 245q0 107 70.5 182t175.5 75t176.5 -75t71.5 -182t-71 -181.5t-177 -74.5q-105 0 -175.5 74.5t-70.5 181.5zM133 245q0 -80 48 -133.5t122 -53.5q75 0 123 53.5t48 133.5t-48 133.5t-123 53.5q-74 0 -122 -53.5t-48 -133.5zM177 616v85h78v-85h-78zM349 616v85h78
v-85h-78z" />
    <glyph glyph-name="udieresis.ss03" horiz-adv-x="547" 
d="M396 0v62q-57 -73 -155 -73q-184 0 -184 216v285h74v-288q0 -70 30.5 -106.5t89.5 -36.5q71 0 106.5 49.5t35.5 138.5v243h74v-490h-71zM135 616v85h78v-85h-78zM307 616v85h78v-85h-78z" />
    <glyph glyph-name="y.ss03" horiz-adv-x="540" 
d="M145 -197l-63 2v76q23 -2 53 -2q29 0 43.5 10.5t25.5 36.5l27 68l-203 496h83l161 -407l158 407h82l-235 -586q-21 -54 -52 -77.5t-80 -23.5z" />
    <glyph glyph-name="yacute.ss03" horiz-adv-x="540" 
d="M145 -197l-63 2v76q23 -2 53 -2q29 0 43.5 10.5t25.5 36.5l27 68l-203 496h83l161 -407l158 407h82l-235 -586q-21 -54 -52 -77.5t-80 -23.5zM297 701h97l-114 -131h-74z" />
    <glyph glyph-name="ydieresis.ss03" horiz-adv-x="546" 
d="M145 -197l-63 2v76q23 -2 53 -2q29 0 43.5 10.5t25.5 36.5l27 68l-203 496h83l161 -407l158 407h82l-235 -586q-21 -54 -52 -77.5t-80 -23.5zM147 616v85h78v-85h-78zM319 616v85h78v-85h-78z" />
    <glyph glyph-name="period.ss03" horiz-adv-x="302" 
d="M103 0v103h96v-103h-96z" />
    <glyph glyph-name="colon.ss03" horiz-adv-x="302" 
d="M103 0v103h96v-103h-96zM103 388v103h96v-103h-96z" />
    <glyph glyph-name="comma.ss03" horiz-adv-x="302" 
d="M103 0v103h96v-120q0 -104 -104 -115v57q46 6 46 64v11h-38z" />
    <glyph glyph-name="semicolon.ss03" horiz-adv-x="302" 
d="M103 0v103h96v-120q0 -104 -104 -115v57q46 6 46 64v11h-38zM103 388v103h96v-103h-96z" />
    <glyph glyph-name="ellipsis.ss03" horiz-adv-x="701" 
d="M69 0v103h96v-103h-96zM302 0v103h96v-103h-96zM536 0v103h96v-103h-96z" />
    <glyph glyph-name="question.ss03" horiz-adv-x="512" 
d="M260 211h-76v18q0 28 6 49.5t22 41t27 29.5t36 31l36 29q67 55 67 114q0 56 -40 87t-97 31q-52 0 -91.5 -31t-46.5 -89h-75q8 92 71.5 141.5t142.5 49.5q90 0 151.5 -51.5t61.5 -138.5t-81 -154l-46 -37q-39 -33 -53.5 -54.5t-14.5 -58.5v-7zM176 0v103h96v-103h-96z" />
    <glyph glyph-name="questiondown.ss03" horiz-adv-x="512" 
d="M328 279h-76v-7q0 -34 -12.5 -52.5t-45.5 -46.5q-7 -5 -10 -8l-46 -37q-81 -67 -81 -149q0 -85 61 -134.5t152 -49.5q80 0 142.5 46.5t70.5 139.5h-74q-7 -57 -48.5 -85.5t-94.5 -28.5q-56 0 -94.5 29.5t-38.5 81.5q0 34 16.5 57t51.5 52l36 29q2 2 14 11.5t14.5 12
t12.5 11t12.5 12t10 12t10 14t7 14.5t6 17.5t3 19t1.5 21.5v18zM336 490v-102h-97v102h97z" />
    <glyph glyph-name="exclam.ss03" horiz-adv-x="291" 
d="M105 211v490h76v-490h-76zM96 0v103h97v-103h-97z" />
    <glyph glyph-name="exclamdown.ss03" horiz-adv-x="326" 
d="M105 -194v473h76v-473h-76zM96 388v102h97v-102h-97z" />
    <glyph glyph-name="quotedblright.ss03" horiz-adv-x="399" 
d="M68 598v103h97v-120q0 -104 -105 -115v57q47 7 47 64v11h-39zM234 598v103h97v-120q0 -104 -105 -115v57q46 7 46 64v11h-38z" />
    <glyph glyph-name="quotedblleft.ss03" horiz-adv-x="399" 
d="M331 575v-103h-97v120q0 104 105 115v-57q-47 -7 -47 -64v-11h39zM165 575v-103h-97v120q0 104 105 115v-57q-46 -7 -46 -64v-11h38z" />
    <glyph glyph-name="quoteleft.ss03" horiz-adv-x="234" 
d="M165 575v-103h-97v120q0 104 105 115v-57q-46 -7 -46 -64v-11h38z" />
    <glyph glyph-name="quoteright.ss03" horiz-adv-x="234" 
d="M69 598v103h97v-120q0 -104 -105 -115v57q46 7 46 64v11h-38z" />
    <glyph glyph-name="quotesinglbase.ss03" horiz-adv-x="234" 
d="M68 0v103h97v-120q0 -104 -105 -115v57q47 6 47 64v11h-39z" />
    <glyph glyph-name="quotedblbase.ss03" horiz-adv-x="399" 
d="M68 0v103h97v-120q0 -104 -105 -115v57q47 6 47 64v11h-39zM234 0v103h97v-120q0 -104 -105 -115v57q46 6 46 64v11h-38z" />
    <glyph glyph-name="dieresis.ss03" horiz-adv-x="556" 
d="M152 616v85h78v-85h-78zM324 616v85h78v-85h-78z" />
    </font>
</defs>
</svg>
