<svg xmlns="http://www.w3.org/2000/svg">
<defs>
<font id="Maax-RegularMono" horiz-adv-x="620" >
  <font-face 
    font-family="Maax"
    font-weight="400"
    font-stretch="normal"
    units-per-em="1000"
    panose-1="2 0 5 9 0 0 0 2 0 2"
    ascent="750"
    descent="-250"
    x-height="490"
    cap-height="701"
    bbox="5 -210 618 951"
    underline-thickness="50"
    underline-position="-50"
    unicode-range="U+0020-FB02"
  />
<missing-glyph 
d="M92 81q0 38 26.5 65t64.5 27q37 0 64.5 -27.5t27.5 -64.5t-27 -64t-65 -27t-64.5 26.5t-26.5 64.5zM345 81q0 38 27 65t64 27q38 0 65 -27.5t27 -64.5t-27 -64t-65 -27t-64.5 27t-26.5 64zM403 276q0 26 18.5 44t43.5 18q26 0 44.5 -18t18.5 -44t-18.5 -44.5t-44.5 -18.5
t-44 18.5t-18 44.5zM92 276q0 26 18 44t44 18t44.5 -18.5t18.5 -43.5q0 -26 -18.5 -44.5t-44.5 -18.5t-44 18.5t-18 44.5zM248 276q0 25 18.5 43.5t44.5 18.5q25 0 43.5 -18t18.5 -44t-18 -44.5t-44 -18.5t-44.5 18.5t-18.5 44.5zM92 429q0 19 13 32t30 13q19 0 32 -13
t13 -32q0 -17 -13 -30t-32 -13q-17 0 -30 13t-13 30zM208 429q0 19 13 32t31 13q19 0 32 -13t13 -32q0 -17 -13 -30t-32 -13q-18 0 -31 13t-13 30zM324 429q0 19 13 32t31 13t31 -13t13 -32q0 -17 -13 -30t-31 -13t-31 13t-13 30zM440 429q0 19 13 32t30 13q19 0 32 -13
t13 -32q0 -17 -13 -30t-32 -13q-17 0 -30 13t-13 30zM92 542q0 14 9.5 24t23.5 10t24 -10t10 -24t-10 -23.5t-24 -9.5q-13 0 -23 9.5t-10 23.5zM184 542q0 14 9.5 24t23.5 10t24 -10t10 -24t-10 -23.5t-24 -9.5q-13 0 -23 9.5t-10 23.5zM277 542q0 14 9.5 24t23.5 10t24 -10
t10 -24t-10 -23.5t-24 -9.5t-23.5 9.5t-9.5 23.5zM370 542q0 14 9.5 24t23.5 10t24 -10t10 -24t-10 -23.5t-24 -9.5q-13 0 -23 9.5t-10 23.5zM461 542q0 14 9.5 24t23.5 10t24 -10t10 -24t-10 -23.5t-24 -9.5t-23.5 9.5t-9.5 23.5zM92 626q0 10 6.5 16.5t16.5 6.5t17 -6.5
t7 -16.5t-6.5 -17t-17.5 -7q-10 0 -16.5 7t-6.5 17zM169 626q0 10 7 16.5t17 6.5t17 -6.5t7 -16.5t-7 -17t-17 -7t-17 7t-7 17zM247 626q0 10 7 16.5t17 6.5t17 -6.5t7 -16.5t-7 -17t-17 -7t-17 7t-7 17zM325 626q0 10 7 16.5t17 6.5t16.5 -6.5t6.5 -16.5t-6.5 -17t-16.5 -7

<glyph glyph-name=".notdef" 
d="M92 81q0 38 26.5 65t64.5 27q37 0 64.5 -27.5t27.5 -64.5t-27 -64t-65 -27t-64.5 26.5t-26.5 64.5zM345 81q0 38 27 65t64 27q38 0 65 -27.5t27 -64.5t-27 -64t-65 -27t-64.5 27t-26.5 64zM403 276q0 26 18.5 44t43.5 18q26 0 44.5 -18t18.5 -44t-18.5 -44.5t-44.5 -18.5
t-44 18.5t-18 44.5zM92 276q0 26 18 44t44 18t44.5 -18.5t18.5 -43.5q0 -26 -18.5 -44.5t-44.5 -18.5t-44 18.5t-18 44.5zM248 276q0 25 18.5 43.5t44.5 18.5q25 0 43.5 -18t18.5 -44t-18 -44.5t-44 -18.5t-44.5 18.5t-18.5 44.5zM92 429q0 19 13 32t30 13q19 0 32 -13
t13 -32q0 -17 -13 -30t-32 -13q-17 0 -30 13t-13 30zM208 429q0 19 13 32t31 13q19 0 32 -13t13 -32q0 -17 -13 -30t-32 -13q-18 0 -31 13t-13 30zM324 429q0 19 13 32t31 13t31 -13t13 -32q0 -17 -13 -30t-31 -13t-31 13t-13 30zM440 429q0 19 13 32t30 13q19 0 32 -13
t13 -32q0 -17 -13 -30t-32 -13q-17 0 -30 13t-13 30zM92 542q0 14 9.5 24t23.5 10t24 -10t10 -24t-10 -23.5t-24 -9.5q-13 0 -23 9.5t-10 23.5zM184 542q0 14 9.5 24t23.5 10t24 -10t10 -24t-10 -23.5t-24 -9.5q-13 0 -23 9.5t-10 23.5zM277 542q0 14 9.5 24t23.5 10t24 -10
t10 -24t-10 -23.5t-24 -9.5t-23.5 9.5t-9.5 23.5zM370 542q0 14 9.5 24t23.5 10t24 -10t10 -24t-10 -23.5t-24 -9.5q-13 0 -23 9.5t-10 23.5zM461 542q0 14 9.5 24t23.5 10t24 -10t10 -24t-10 -23.5t-24 -9.5t-23.5 9.5t-9.5 23.5zM92 626q0 10 6.5 16.5t16.5 6.5t17 -6.5
t7 -16.5t-6.5 -17t-17.5 -7q-10 0 -16.5 7t-6.5 17zM169 626q0 10 7 16.5t17 6.5t17 -6.5t7 -16.5t-7 -17t-17 -7t-17 7t-7 17zM247 626q0 10 7 16.5t17 6.5t17 -6.5t7 -16.5t-7 -17t-17 -7t-17 7t-7 17zM325 626q0 10 7 16.5t17 6.5t16.5 -6.5t6.5 -16.5t-6.5 -17t-16.5 -7
q-11 0 -17.5 7t-6.5 17zM401 626q0 10 7 16.5t17 6.5t16.5 -6.5t6.5 -16.5t-6.5 -17t-16.5 -7q-11 0 -17.5 7t-6.5 17zM481 626q0 10 6.5 16.5t16.5 6.5t17 -6.5t7 -16.5t-7 -17t-17 -7t-16.5 7t-6.5 17zM92 693q0 18 17 18q7 0 12.5 -5.5t5.5 -12.5q0 -17 -18 -17
q-17 0 -17 17zM159 693q0 7 5 12.5t12 5.5q8 0 13 -5.5t5 -12.5q0 -17 -18 -17q-7 0 -12 5t-5 12zM225 693q0 7 5 12.5t12 5.5q18 0 18 -18q0 -17 -18 -17q-7 0 -12 5t-5 12zM293 693q0 18 17 18q8 0 13 -5.5t5 -12.5q0 -17 -18 -17q-17 0 -17 17zM359 693q0 7 5 12.5
t12 5.5q18 0 18 -18q0 -17 -18 -17q-7 0 -12 5t-5 12zM425 693q0 18 17 18q8 0 13 -5.5t5 -12.5q0 -17 -18 -17q-17 0 -17 17zM493 693q0 18 17 18q8 0 13 -5.5t5 -12.5q0 -17 -18 -17q-17 0 -17 17z" />
    <glyph glyph-name=".null" horiz-adv-x="0" 
 />
    <glyph glyph-name="nonmarkingreturn" horiz-adv-x="333" 
 />
    <glyph glyph-name="space" unicode=" " 
 />
    <glyph glyph-name="exclam" unicode="!" 
d="M280 261l-19 440h96l-19 -440h-58zM217 82q0 38 27.5 65.5t65.5 27.5t65.5 -27.5t27.5 -65.5t-27.5 -65.5t-65.5 -27.5t-65.5 27.5t-27.5 65.5z" />
    <glyph glyph-name="quotedbl" unicode="&#x22;" 
d="M141 701h118l-24 -245h-70zM341 701h118l-24 -245h-70z" />
    <glyph glyph-name="numbersign" unicode="#" 
d="M488 496h93v-69h-108l-35 -153h143v-69h-158l-46 -205h-71l46 205h-151l-46 -205h-70l47 205h-92v69h107l35 153h-142v69h158l47 205h69l-47 -205h150l47 205h71zM252 427l-35 -153h150l35 153h-150z" />
    <glyph glyph-name="dollar" unicode="$" 
d="M267 -114v929h71v-929h-71zM341 301l-91 29q-70 23 -112 72t-42 122q0 80 60 134t146 54q78 0 131.5 -38.5t76.5 -104.5l-71 -29q-14 42 -48 70.5t-84 28.5q-57 0 -94.5 -30.5t-37.5 -81.5q0 -90 103 -121l75 -23q83 -24 125.5 -77t42.5 -127t-61 -132t-156 -58
q-89 0 -146.5 45t-82.5 111l72 32q22 -55 61.5 -85t92.5 -30q61 0 101 33.5t40 83.5q0 89 -101 122z" />
    <glyph glyph-name="percent" unicode="%" 
d="M49 584q0 53 37.5 90.5t91.5 37.5q53 0 90 -37.5t37 -90.5t-37 -90.5t-90 -37.5q-54 0 -91.5 37.5t-37.5 90.5zM115 584q0 -29 19 -47t44 -18q24 0 42.5 18t18.5 47q0 30 -18.5 48t-42.5 18q-25 0 -44 -18.5t-19 -47.5zM314 116q0 54 37.5 91.5t91.5 37.5q53 0 90 -37.5
t37 -91.5q0 -52 -37 -89.5t-90 -37.5q-54 0 -91.5 37t-37.5 90zM380 116q0 -29 19 -47t44 -18q24 0 42.5 18t18.5 47t-18.5 47.5t-42.5 18.5q-25 0 -44 -18.5t-19 -47.5zM56 0l428 701h80l-427 -701h-81z" />
    <glyph glyph-name="ampersand" unicode="&#x26;" 
d="M465 0l-41 64q-59 -75 -166 -75q-96 0 -149 62.5t-53 134.5q0 117 109 189l35 23q-41 61 -56 93t-15 72q0 65 43.5 107t111.5 42q67 0 109.5 -42.5t42.5 -108.5q0 -48 -28 -90.5t-69 -68.5l-39 -25l121 -185q33 74 42 171h76q-18 -136 -72 -238l80 -125h-82zM259 57
q80 0 124 65l-145 217l-16 -10q-48 -30 -69 -61.5t-21 -78.5q0 -52 34.5 -92t92.5 -40zM202 563q0 -41 43 -106l16 -22l33 20q29 17 49.5 45t20.5 62q0 37 -23.5 59.5t-57.5 22.5q-36 0 -58.5 -22t-22.5 -59z" />
    <glyph glyph-name="quotesingle" unicode="'" 
d="M241 701h118l-24 -245h-70z" />
    <glyph glyph-name="parenleft" unicode="(" 
d="M248 260q0 -121 43.5 -221.5t136.5 -194.5l-53 -49q-204 198 -204 465q0 265 204 465l53 -49q-93 -95 -136.5 -195.5t-43.5 -220.5z" />
    <glyph glyph-name="parenright" unicode=")" 
d="M351 260q0 121 -43.5 221.5t-136.5 194.5l53 49q204 -198 204 -465q0 -265 -204 -465l-53 49q93 95 136.5 195.5t43.5 220.5z" />
    <glyph glyph-name="asterisk" unicode="*" 
d="M180 484l80 100l-122 27l19 70l121 -39l-5 127h74l-5 -127l121 39l19 -70l-122 -27l80 -100l-58 -43l-72 106l-72 -106z" />
    <glyph glyph-name="plus" unicode="+" 
d="M65 280h208v210h71v-210h211v-68h-211v-212h-71v212h-208v68z" />
    <glyph glyph-name="comma" unicode="," 
d="M202 83q0 37 26 63t63 26q47 0 75 -35.5t28 -89.5q0 -71 -43 -136t-135 -106l-30 55q115 51 132 149q-7 -4 -16 -6t-14 -3h-6q-31 0 -55.5 23.5t-24.5 59.5z" />
    <glyph glyph-name="hyphen" unicode="-" 
d="M129 226v72h342v-72h-342z" />
    <glyph glyph-name="period" unicode="." 
d="M206 93q0 43 30.5 73.5t73.5 30.5t73.5 -30.5t30.5 -73.5t-30.5 -73.5t-73.5 -30.5t-73.5 30.5t-30.5 73.5z" />
    <glyph glyph-name="slash" unicode="/" 
d="M113 0l295 701h79l-295 -701h-79z" />
    <glyph glyph-name="zero" unicode="0" 
d="M68 353q0 72 14 134.5t42.5 114t77 81t112.5 29.5q52 0 93 -20.5t68 -55t44.5 -82t25 -98t7.5 -107.5q0 -97 -23.5 -175.5t-80.5 -131.5t-141 -53q-64 0 -112 31t-74.5 84t-39.5 115t-13 134zM313 641q-84 0 -126.5 -77.5t-42.5 -211.5q0 -94 16 -151l271 370
q-41 70 -118 70zM475 363q0 73 -14 135l-273 -367q42 -71 121 -71q42 0 74 22.5t49 55t27 77t13 78.5t3 70z" />
    <glyph glyph-name="one" unicode="1" 
d="M290 72v464h-167v53q81 4 121.5 27t59.5 85h62v-629h172v-72h-426v72h178z" />
    <glyph glyph-name="two" unicode="2" 
d="M173 496h-74v9q0 90 61.5 147.5t158.5 57.5q93 0 151 -56t58 -142q0 -135 -151 -215l-53 -28q-149 -79 -149 -197h362v-72h-445v23q0 105 46.5 179.5t153.5 131.5l49 26q110 58 110 152q0 54 -35.5 90.5t-96.5 36.5q-65 0 -105.5 -38t-40.5 -105z" />
    <glyph glyph-name="three" unicode="3" 
d="M418 366q53 -19 87.5 -65t34.5 -106q0 -95 -69.5 -150.5t-166.5 -55.5t-163 54.5t-75 143.5h75q6 -60 52.5 -93.5t110.5 -33.5q71 0 116 34.5t45 98.5q0 65 -46.5 96t-121.5 31h-53v73h41q72 0 113.5 35t41.5 91q0 59 -41.5 90.5t-94.5 31.5q-60 0 -97.5 -30t-45.5 -79
h-77q14 87 75.5 133.5t142.5 46.5q87 0 151 -49.5t64 -139.5q0 -56 -30 -97t-69 -60z" />
    <glyph glyph-name="four" unicode="4" 
d="M142 247h227v212h72v-212h131v-69h-131v-178h-72v178h-314v65q7 8 19 23.5t44 64t58.5 99.5t54 125.5t39.5 145.5h72q-12 -74 -37 -148t-52 -127t-52.5 -95t-42.5 -63z" />
    <glyph glyph-name="five" unicode="5" 
d="M470 218q0 73 -45 114t-114 41q-44 0 -83 -22.5t-56 -54.5h-69l32 405h359v-72h-292l-20 -237q47 53 139 53q93 0 159 -60t66 -167q0 -97 -61 -163t-172 -66q-83 0 -144.5 50t-77.5 127h78q12 -49 53.5 -77.5t94.5 -28.5q69 0 111 42.5t42 115.5z" />
    <glyph glyph-name="six" unicode="6" 
d="M321 -11q-117 0 -181 97t-64 251q0 166 64.5 270.5t182.5 104.5q77 0 134.5 -45t70.5 -123h-75q-29 97 -131 97q-79 0 -126 -80t-45 -211q25 49 71.5 76.5t98.5 27.5q93 0 161.5 -64t68.5 -168q0 -106 -70 -169.5t-160 -63.5zM321 382q-62 0 -106.5 -44t-44.5 -115
q0 -69 45 -116t111 -47q59 0 103.5 42t44.5 120q0 73 -45 116.5t-108 43.5z" />
    <glyph glyph-name="seven" unicode="7" 
d="M93 487v214h454v-66q-218 -261 -247 -595l-3 -40h-77l4 39q15 171 74.5 327t155.5 263h-290v-142h-71z" />
    <glyph glyph-name="eight" unicode="8" 
d="M310 -11q-95 0 -160.5 55.5t-65.5 144.5q0 62 41 111t81 60q-37 15 -71 56t-34 100q0 87 62.5 140.5t146.5 53.5t146.5 -53.5t62.5 -140.5q0 -59 -34 -100t-71 -56q40 -11 81 -60t41 -111q0 -89 -65.5 -144.5t-160.5 -55.5zM310 321q-64 0 -106.5 -35.5t-42.5 -95.5
q0 -59 43.5 -94.5t105.5 -35.5t105.5 35.5t43.5 94.5t-43 95t-106 36zM310 639q-49 0 -90.5 -32.5t-41.5 -91.5q0 -56 37.5 -89t94.5 -33q56 0 94 33t38 89q0 59 -41.5 91.5t-90.5 32.5z" />
    <glyph glyph-name="nine" unicode="9" 
d="M300 712q117 0 181 -97t64 -251q0 -166 -64.5 -270.5t-182.5 -104.5q-77 0 -134.5 45t-70.5 123h75q29 -97 131 -97q79 0 126 80t45 211q-25 -49 -71.5 -76.5t-98.5 -27.5q-93 0 -161.5 64t-68.5 168q0 106 70 169.5t160 63.5zM300 319q62 0 106.5 44t44.5 115
q0 69 -45 116t-111 47q-59 0 -103.5 -42t-44.5 -120q0 -73 45 -116.5t108 -43.5z" />
    <glyph glyph-name="colon" unicode=":" 
d="M217 82q0 38 27.5 65.5t65.5 27.5t65.5 -27.5t27.5 -65.5t-27.5 -65.5t-65.5 -27.5t-65.5 27.5t-27.5 65.5zM217 403q0 38 27.5 65.5t65.5 27.5t65.5 -27.5t27.5 -65.5t-27.5 -65.5t-65.5 -27.5t-65.5 27.5t-27.5 65.5z" />
    <glyph glyph-name="semicolon" unicode=";" 
d="M216 403q0 38 27.5 65.5t65.5 27.5t65.5 -27.5t27.5 -65.5t-27.5 -65.5t-65.5 -27.5t-65.5 27.5t-27.5 65.5zM218 83q0 37 26 63t63 26q47 0 75 -35.5t28 -89.5q0 -71 -43 -136t-135 -106l-30 55q115 51 132 149q-7 -4 -16 -6t-14 -3h-6q-31 0 -55.5 23.5t-24.5 59.5z
" />
    <glyph glyph-name="less" unicode="&#x3c;" 
d="M55 204v82l484 216v-78l-413 -179l413 -179v-77z" />
    <glyph glyph-name="equal" unicode="=" 
d="M90 319v68h440v-68h-440zM90 137v68h440v-68h-440z" />
    <glyph glyph-name="greater" unicode="&#x3e;" 
d="M570 286v-82l-484 -215v77l413 179l-413 179v78z" />
    <glyph glyph-name="question" unicode="?" 
d="M324 236h-76v18q0 71 96 138l24 17q67 48 67 114q0 56 -40 87t-97 31q-52 0 -91.5 -31t-46.5 -89h-75q8 93 69.5 142t139.5 49q91 0 154.5 -52t63.5 -138q0 -97 -81 -154l-34 -24q-73 -52 -73 -102v-6zM195 82q0 38 27.5 65.5t65.5 27.5t65.5 -27.5t27.5 -65.5
t-27.5 -65.5t-65.5 -27.5t-65.5 27.5t-27.5 65.5z" />
    <glyph glyph-name="at" unicode="@" 
d="M247 245q0 -185 63 -185q59 0 59 185q0 187 -60 187q-62 0 -62 -187zM381 54q-33 -65 -86 -65q-118 0 -118 256q0 257 113 257q52 0 76 -57v45h73v-373q0 -57 33 -57q14 0 25 17t19 65t8 122q0 86 -8 149t-29 119.5t-63 86t-104 29.5q-111 0 -166 -109.5t-55 -285.5
q0 -175 59 -283t179 -108q86 0 144 37l32 -60q-72 -44 -176 -44q-105 0 -175.5 63t-100.5 163t-30 232q0 98 16 179t49.5 145t90.5 99.5t133 35.5q65 0 113.5 -24t78.5 -63.5t48 -98.5t25 -121.5t7 -140.5q0 -126 -30 -200.5t-93 -74.5q-65 0 -88 65z" />
    <glyph glyph-name="A" unicode="A" 
d="M490 0l-41 160h-281l-41 -160h-84l179 701h176l178 -701h-86zM287 627l-100 -392h244l-100 392h-44z" />
    <glyph glyph-name="B" unicode="B" 
d="M96 0v701h197q112 0 177 -46.5t65 -139.5q0 -46 -24.5 -87.5t-66.5 -62.5q50 -23 79 -68t29 -98q0 -92 -66 -145.5t-175 -53.5h-215zM173 73h146q70 0 112.5 32t42.5 96q0 59 -42 89t-109 30h-150v-247zM306 628h-133v-234h134q66 0 108 30t42 89t-42 87t-109 28z" />
    <glyph glyph-name="C" unicode="C" 
d="M482 200l71 -27q-25 -84 -81 -134t-143 -50q-131 0 -198.5 101t-67.5 261q0 157 69 259t197 102q89 0 147.5 -51.5t79.5 -134.5l-72 -26q-17 62 -55.5 100t-95.5 38q-92 0 -140 -79.5t-48 -207.5q0 -125 51 -205.5t137 -80.5q57 0 95 37t54 98z" />
    <glyph glyph-name="D" unicode="D" 
d="M94 0v701h140q72 0 126.5 -16t100 -53.5t69.5 -107t24 -169.5t-24 -171t-69.5 -110.5t-100.5 -56.5t-126 -17h-140zM232 628h-61v-555h62q122 0 181.5 67.5t59.5 214.5q0 148 -59 210.5t-183 62.5z" />
    <glyph glyph-name="E" unicode="E" 
d="M127 0v701h389v-73h-312v-235h297v-73h-297v-247h317v-73h-394z" />
    <glyph glyph-name="F" unicode="F" 
d="M204 0h-77v701h390v-73h-313v-235h296v-73h-296v-320z" />
    <glyph glyph-name="G" unicode="G" 
d="M489 0v107q-23 -56 -69 -87t-108 -31q-130 0 -194.5 100.5t-64.5 261.5q0 154 72 257.5t192 103.5q187 0 232 -176l-71 -31q-33 134 -157 134q-87 0 -136.5 -81t-49.5 -207q0 -128 47.5 -208t133.5 -80q70 0 113.5 57.5t47.5 156.5h-151v72h228v-349h-65z" />
    <glyph glyph-name="H" unicode="H" 
d="M454 0v321h-288v-321h-77v701h77v-307h288v307h77v-701h-77z" />
    <glyph glyph-name="I" unicode="I" 
d="M102 628v73h416v-73h-170v-555h170v-73h-416v73h169v555h-169z" />
    <glyph glyph-name="J" unicode="J" 
d="M77 218v32h77v-32q0 -75 33.5 -116.5t100.5 -41.5t100.5 41.5t33.5 116.5v410h-239v73h316v-483q0 -105 -55 -167t-158 -62q-100 0 -154.5 62t-54.5 167z" />
    <glyph glyph-name="K" unicode="K" 
d="M101 0v701h77v-398l287 398h90l-206 -288l219 -413h-84l-186 345l-120 -166v-179h-77z" />
    <glyph glyph-name="L" unicode="L" 
d="M119 0v701h77v-628h350v-73h-427z" />
    <glyph glyph-name="M" unicode="M" 
d="M450 628l-87 -403h-106l-87 403h-21v-628h-79v701h156l84 -397l84 397h156v-701h-79v628h-21z" />
    <glyph glyph-name="N" unicode="N" 
d="M388 0l-215 632h-13v-632h-77v701h147l215 -634h13v634h78v-701h-148z" />
    <glyph glyph-name="O" unicode="O" 
d="M310 61q90 0 132 79t42 211q0 131 -42 210t-132 79t-132 -79t-42 -211q0 -131 42 -210t132 -79zM310 -11q-130 0 -193 100.5t-63 260.5q0 78 14.5 142t44 114t80 78t117.5 28q130 0 193 -100.5t63 -260.5q0 -78 -14.5 -142t-44 -114t-80 -78t-117.5 -28z" />
    <glyph glyph-name="P" unicode="P" 
d="M312 258h-122v-258h-77v701h199q114 0 177.5 -62.5t63.5 -159.5t-63.5 -159t-177.5 -62zM322 628h-132v-298h132q74 0 114 39.5t40 109.5q0 67 -40 108t-114 41z" />
    <glyph glyph-name="Q" unicode="Q" 
d="M300 -11q-126 0 -192.5 102t-66.5 259q0 159 66.5 260.5t192.5 101.5t192.5 -102t66.5 -259q0 -155 -61 -252l73 -72l-51 -51l-68 68q-63 -55 -152 -55zM300 63q56 0 97 35l-102 103l51 51l95 -95q37 74 37 194q0 129 -45 208t-133 79t-133 -79.5t-45 -208.5
q0 -128 45 -207.5t133 -79.5z" />
    <glyph glyph-name="R" unicode="R" 
d="M465 0l-151 258h-137v-258h-77v701h204q108 0 172 -60.5t64 -161.5q0 -78 -39.5 -130.5t-108.5 -75.5l159 -273h-86zM314 628h-137v-298h137q64 0 106.5 38t42.5 111q0 70 -42.5 109.5t-106.5 39.5z" />
    <glyph glyph-name="S" unicode="S" 
d="M341 301l-91 29q-70 23 -112 72t-42 122q0 80 60 134t146 54q78 0 131.5 -38.5t76.5 -104.5l-71 -29q-14 42 -48 70.5t-84 28.5q-57 0 -94.5 -30.5t-37.5 -81.5q0 -90 103 -121l75 -23q83 -24 125.5 -77t42.5 -127t-61 -132t-156 -58q-89 0 -146.5 45t-82.5 111l72 32
q22 -55 61.5 -85t92.5 -30q61 0 101 33.5t40 83.5q0 89 -101 122z" />
    <glyph glyph-name="T" unicode="T" 
d="M51 701h518v-73h-224v-628h-77v628h-217v73z" />
    <glyph glyph-name="U" unicode="U" 
d="M457 271v430h79v-436q0 -127 -57 -201.5t-169 -74.5t-169 74.5t-57 201.5v436h79v-431q0 -203 147 -203t147 204z" />
    <glyph glyph-name="V" unicode="V" 
d="M326 72l176 629h83l-199 -701h-152l-200 701h83l179 -629h30z" />
    <glyph glyph-name="W" unicode="W" 
d="M100 701l73 -630h10l81 630h91l80 -630h10l74 630h83l-97 -701h-124l-72 558l-71 -558h-124l-97 701h83z" />
    <glyph glyph-name="X" unicode="X" 
d="M310 422l154 279h91l-194 -342l207 -359h-91l-167 297l-167 -297h-91l207 359l-194 342h91z" />
    <glyph glyph-name="Y" unicode="Y" 
d="M139 701l172 -365l170 365h84l-217 -458v-243h-76v243l-217 458h84z" />
    <glyph glyph-name="Z" unicode="Z" 
d="M84 701h444v-68l-355 -561h352v-72h-443v68l354 561h-352v72z" />
    <glyph glyph-name="bracketleft" unicode="[" 
d="M224 -194v895h236v-72h-159v-751h159v-72h-236z" />
    <glyph glyph-name="backslash" unicode="\" 
d="M202 701l295 -701h-79l-295 701h79z" />
    <glyph glyph-name="bracketright" unicode="]" 
d="M386 701v-895h-236v72h159v751h-159v72h236z" />
    <glyph glyph-name="asciicircum" unicode="^" 
d="M56 342l215 359h78l215 -359h-83l-171 287l-171 -287h-83z" />
    <glyph glyph-name="underscore" unicode="_" 
d="M82 -194v69h456v-69h-456z" />
    <glyph glyph-name="grave" unicode="`" 
d="M158 740h134l96 -170h-76z" />
    <glyph glyph-name="a" unicode="a" 
d="M177 332h-76v14q0 64 55.5 110.5t134.5 46.5q83 0 134.5 -47.5t51.5 -130.5v-199q0 -36 11.5 -49.5t42.5 -13.5h32v-59q-28 -7 -59 -7q-39 0 -62.5 21.5t-27.5 53.5q-58 -82 -166 -82q-79 0 -124.5 40t-45.5 103q0 64 48 103.5t134 50.5l143 18v21q0 52 -30.5 80.5
t-81.5 28.5q-52 0 -82.5 -26.5t-31.5 -76.5zM153 134q0 -35 24 -55.5t71 -20.5q68 0 111.5 40t43.5 104v40l-148 -20q-49 -7 -75.5 -30t-26.5 -58z" />
    <glyph glyph-name="b" unicode="b" 
d="M560 245q0 -108 -64 -182t-164 -74q-110 0 -171 88v-77h-68v701h74v-286q24 39 67.5 63t97.5 24q100 0 164 -74.5t64 -182.5zM484 245q0 81 -43 134t-116 53t-117 -53t-44 -134t44 -134t117 -53t116 53t43 134z" />
    <glyph glyph-name="c" unicode="c" 
d="M474 173l64 -21q-15 -65 -72 -114t-145 -49q-107 0 -175.5 69t-68.5 182q0 111 68.5 186.5t173.5 75.5q79 0 138 -43.5t78 -107.5l-69 -22q-15 44 -53.5 73.5t-92.5 29.5q-75 0 -121 -52t-46 -134q0 -81 45.5 -134.5t123.5 -53.5q115 0 152 115z" />
    <glyph glyph-name="d" unicode="d" 
d="M63 245q0 108 64 182.5t164 74.5q54 0 97.5 -24t67.5 -63v286h74v-701h-71v77q-60 -88 -168 -88q-100 0 -164 74t-64 182zM139 245q0 -81 43 -134t116 -53t117 53t44 134t-44 134t-117 53t-116 -53t-43 -134z" />
    <glyph glyph-name="e" unicode="e" 
d="M526 222h-365q5 -77 49 -120.5t116 -43.5q82 0 140 72l51 -47q-78 -94 -191 -94q-110 0 -175.5 70t-65.5 183q0 111 60.5 185.5t162.5 74.5q75 0 126.5 -39t72 -92.5t20.5 -114.5zM310 432q-62 0 -99 -40t-47 -104h288q-5 65 -43 104.5t-99 39.5z" />
    <glyph glyph-name="f" unicode="f" 
d="M467 578q-12 64 -86 64q-43 0 -70.5 -27.5t-27.5 -87.5v-37h253v-68h-253v-422h-74v422h-146v68h146v37q0 88 49 135.5t122 47.5t113 -38.5t44 -93.5h-70z" />
    <glyph glyph-name="g" unicode="g" 
d="M86 -96l54 52q52 -93 149 -93q79 0 120.5 47t41.5 124v61q-56 -84 -160 -84q-94 0 -158 70t-64 175q0 106 64 176t158 70q49 0 94.5 -24t67.5 -61v73h72v-450q0 -112 -63.5 -178.5t-172.5 -66.5q-132 0 -203 109zM145 256q0 -77 43 -126t110 -49t111 49t44 126
q0 78 -44 127t-111 49t-110 -49t-43 -127z" />
    <glyph glyph-name="h" unicode="h" 
d="M178 701v-280q23 36 64.5 58.5t88.5 22.5q94 0 144.5 -56.5t50.5 -160.5v-285h-75v291q0 68 -33 105t-92 37q-72 0 -110 -51t-38 -139v-243h-74v701h74z" />
    <glyph glyph-name="i" unicode="i" 
d="M101 490h264v-422h187v-68h-450v68h189v354h-190v68zM238 658q0 34 24 58t58 24t58 -24t24 -58t-24 -58t-58 -24t-58 24t-24 58z" />
    <glyph glyph-name="j" unicode="j" 
d="M153 422v68h280v-514q0 -87 -47 -136.5t-122 -49.5q-84 0 -124.5 49t-40.5 109v20h72v-20q0 -41 26.5 -65.5t65.5 -24.5q43 0 69.5 29.5t26.5 88.5v446h-206zM301 658q0 34 24 58t58 24t58 -24t24 -58t-24 -58t-58 -24t-58 24t-24 58z" />
    <glyph glyph-name="k" unicode="k" 
d="M137 0v701h74v-462l227 251h97l-191 -207l202 -283h-91l-162 227l-82 -89v-138h-74z" />
    <glyph glyph-name="l" unicode="l" 
d="M81 701h274v-633h197v-68h-470v68h199v565h-200v68z" />
    <glyph glyph-name="m" unicode="m" 
d="M127 490v-59q10 31 38 51t61 20q37 0 62 -21.5t34 -59.5q16 38 48.5 59.5t72.5 21.5q62 0 94 -45t32 -122v-335h-73v331q0 102 -70 102q-37 0 -57 -33t-20 -90v-310h-71v326q0 107 -67 107q-39 0 -60 -33.5t-21 -89.5v-310h-73v490h70z" />
    <glyph glyph-name="n" unicode="n" 
d="M176 490v-70q25 38 66.5 60t88.5 22q94 0 144.5 -56.5t50.5 -160.5v-285h-75v291q0 68 -33 105t-92 37q-72 0 -110 -51t-38 -139v-243h-74v490h72z" />
    <glyph glyph-name="o" unicode="o" 
d="M63 245q0 107 70.5 182t175.5 75t176.5 -75t71.5 -182t-71 -181.5t-177 -74.5q-105 0 -175.5 74.5t-70.5 181.5zM139 245q0 -80 48 -133.5t122 -53.5q75 0 123 53.5t48 133.5t-48 133.5t-123 53.5q-74 0 -122 -53.5t-48 -133.5z" />
    <glyph glyph-name="p" unicode="p" 
d="M560 245q0 -108 -64 -182.5t-164 -74.5q-54 0 -97.5 24t-67.5 63v-270h-74v685h71v-77q60 88 168 88q100 0 164 -74t64 -182zM484 245q0 81 -43 134t-116 53t-117 -53t-44 -134t44 -134t117 -53t116 53t43 134z" />
    <glyph glyph-name="q" unicode="q" 
d="M61 245q0 108 64 182t164 74q108 0 168 -88v77h71v-685h-74v270q-24 -39 -67.5 -63t-97.5 -24q-100 0 -164 74.5t-64 182.5zM137 245q0 -81 43 -134t116 -53t117 53t44 134t-44 134t-117 53t-116 -53t-43 -134z" />
    <glyph glyph-name="r" unicode="r" 
d="M529 266h-75v23q0 67 -31 105.5t-79 38.5q-65 0 -99 -57.5t-34 -148.5v-227h-75v490h71v-80q17 38 58 65t87 27q81 0 129 -56t48 -155v-25z" />
    <glyph glyph-name="s" unicode="s" 
d="M349 204l-93 15q-69 11 -110 48t-41 92q0 66 56 104.5t133 38.5q60 0 116 -27t88 -78l-59 -42q-54 78 -151 78q-47 0 -77.5 -20t-30.5 -51q0 -58 84 -72l94 -16q70 -12 110.5 -47t40.5 -90q0 -64 -59 -106t-143 -42q-66 0 -122.5 25.5t-89.5 71.5l58 49q55 -78 153 -78
q54 0 91.5 20.5t37.5 55.5q0 28 -23 46.5t-63 24.5z" />
    <glyph glyph-name="t" unicode="t" 
d="M357 -11q-72 0 -118.5 47t-46.5 136v250h-146v68h146v136h74v-136h253v-68h-253v-250q0 -60 26 -87.5t66 -27.5q37 0 60 21t29 54h70q-6 -59 -47.5 -101t-112.5 -42z" />
    <glyph glyph-name="u" unicode="u" 
d="M439 0v62q-57 -73 -155 -73q-184 0 -184 216v285h74v-288q0 -70 30.5 -106.5t89.5 -36.5q71 0 106.5 49.5t35.5 138.5v243h74v-490h-71z" />
    <glyph glyph-name="v" unicode="v" 
d="M555 490l-186 -490h-118l-186 490h84l153 -410h16l153 410h84z" />
    <glyph glyph-name="w" unicode="w" 
d="M375 0l-66 405l-66 -405h-117l-89 490h80l63 -411h12l68 411h98l68 -411h12l63 411h80l-89 -490h-117z" />
    <glyph glyph-name="x" unicode="x" 
d="M459 0l-147 205l-151 -205h-89l185 254l-172 237h89l136 -189l136 189h89l-173 -237l186 -254h-89z" />
    <glyph glyph-name="y" unicode="y" 
d="M190 -197l-78 2v76q38 -2 68 -2q29 0 43.5 10.5t25.5 36.5l27 68l-203 496h83l161 -407l158 407h82l-235 -586q-22 -54 -52.5 -77.5t-79.5 -23.5z" />
    <glyph glyph-name="z" unicode="z" 
d="M108 490h396v-63l-313 -359h324v-68h-418v63l311 359h-300v68z" />
    <glyph glyph-name="braceleft" unicode="{" 
d="M316 538v-568q0 -92 87 -92h71v-72h-84q-78 0 -114.5 45t-36.5 115v252h-114v72h114v251q0 70 36.5 115t114.5 45h84v-71h-71q-87 0 -87 -92z" />
    <glyph glyph-name="bar" unicode="|" 
d="M273 -194v895h74v-895h-74z" />
    <glyph glyph-name="braceright" unicode="}" 
d="M304 -30v568q0 92 -87 92h-71v71h84q78 0 114.5 -45t36.5 -115v-251h114v-72h-114v-252q0 -70 -36.5 -115t-114.5 -45h-84v72h71q87 0 87 92z" />
    <glyph glyph-name="asciitilde" unicode="~" 
d="M453 319h68q0 -53 -31 -86.5t-80 -33.5q-23 0 -62 13l-92 33q-27 9 -44 9q-20 0 -33 -13.5t-13 -35.5h-68q0 53 31 86.5t80 33.5q23 0 62 -13l92 -33q27 -9 44 -9q20 0 33 13.5t13 35.5z" />
    <glyph glyph-name="exclamdown" unicode="&#xa1;" 
d="M340 231l19 -425h-96l19 425h58zM403 410q0 -38 -27.5 -65.5t-65.5 -27.5t-65.5 27.5t-27.5 65.5t27.5 65.5t65.5 27.5t65.5 -27.5t27.5 -65.5z" />
    <glyph glyph-name="cent" unicode="&#xa2;" 
d="M282 -114v718h72v-718h-72zM474 173l64 -21q-15 -65 -72 -114t-145 -49q-107 0 -175.5 69t-68.5 182q0 111 68.5 186.5t173.5 75.5q79 0 138 -43.5t78 -107.5l-69 -22q-15 44 -53.5 73.5t-92.5 29.5q-75 0 -121 -52t-46 -134q0 -81 45.5 -134.5t123.5 -53.5
q115 0 152 115z" />
    <glyph glyph-name="sterling" unicode="&#xa3;" 
d="M70 325v68h68q-12 57 -12 105q0 57 20.5 100.5t54 67t69 35t72.5 11.5q123 0 202 -107l-53 -54q-61 90 -149 90q-65 0 -102.5 -40t-37.5 -102q0 -41 13 -106h199v-68h-185l56 -253h194v142h68v-214h-477v72h138l-56 253h-82z" />
    <glyph glyph-name="yen" unicode="&#xa5;" 
d="M538 363v-69h-190v-80h190v-68h-190v-146h-76v146h-190v68h190v80h-190v69h153l-180 338h84l172 -333l170 333h84l-180 -338h153z" />
    <glyph glyph-name="brokenbar" unicode="&#xa6;" 
d="M273 -194v365h74v-365h-74zM273 336v365h74v-365h-74z" />
    <glyph glyph-name="section" unicode="&#xa7;" 
d="M555 209q0 -79 -67 -138q43 -47 43 -112q0 -67 -58.5 -115.5t-150.5 -48.5q-78 0 -138 38.5t-90 103.5l57 43q58 -115 172 -115q60 0 95.5 26t35.5 68q0 71 -101 106l-116 40q-76 27 -121.5 75t-45.5 115q0 89 75 145q-37 46 -37 105q0 74 55 120.5t141 46.5
q67 0 119.5 -31.5t84.5 -78.5l-53 -52q-25 41 -66.5 66.5t-89.5 25.5q-50 0 -82.5 -25.5t-32.5 -68.5q0 -67 88 -101l101 -39q92 -35 137 -82t45 -117zM360 332l-162 65q-55 -40 -55 -98q0 -43 30.5 -71t92.5 -52l168 -65q44 33 44 94q0 43 -29 73t-89 54z" />
    <glyph glyph-name="dieresis" unicode="&#xa8;" 
d="M117 663q0 32 22.5 54.5t54.5 22.5t54.5 -22.5t22.5 -54.5t-22.5 -54.5t-54.5 -22.5t-54.5 22.5t-22.5 54.5zM349 663q0 32 22.5 54.5t54.5 22.5t54.5 -22.5t22.5 -54.5t-22.5 -54.5t-54.5 -22.5t-54.5 22.5t-22.5 54.5z" />
    <glyph glyph-name="copyright" unicode="&#xa9;" 
d="M380 270l61 -18q-16 -46 -51.5 -75t-83.5 -29q-69 0 -106 51.5t-37 153.5q0 94 39.5 146t105.5 52q52 0 86 -30.5t47 -80.5l-62 -13q-15 59 -71 59q-74 0 -74 -133q0 -139 76 -139q50 0 70 56zM571 350q0 -169 -69.5 -265.5t-199.5 -96.5t-199.5 96.5t-69.5 265.5
q0 175 69 268.5t200 93.5t200 -93.5t69 -268.5zM506 350q0 147 -55 225t-149 78t-149 -78t-55 -225t55 -224.5t149 -77.5t149 77.5t55 224.5z" />
    <glyph glyph-name="ordfeminine" unicode="&#xaa;" 
d="M216 586h-65q0 61 42 93.5t105 32.5q65 0 105 -33.5t40 -103.5v-132q0 -26 8.5 -36t31.5 -10h23v-54q-20 -5 -48 -5q-30 0 -49.5 14t-22.5 37q-38 -56 -122 -56q-54 0 -90 31t-36 80q0 98 134 114l107 13v10q0 35 -21.5 53t-59.5 18q-36 0 -58.5 -16.5t-23.5 -49.5z
M202 444q0 -24 19 -37.5t48 -13.5q49 0 79.5 26.5t30.5 70.5v24l-105 -13q-72 -10 -72 -57z" />
    <glyph glyph-name="guillemotleft" unicode="&#xab;" 
d="M80 245l137 245h82l-139 -245l139 -245h-82zM302 245l137 245h82l-139 -245l139 -245h-82z" />
    <glyph glyph-name="logicalnot" unicode="&#xac;" 
d="M83 228v68h453v-211h-68v143h-385z" />
    <glyph glyph-name="registered" unicode="&#xae;" 
d="M37 435q0 115 78.5 196t192.5 81t194 -81t80 -196q0 -114 -80 -194.5t-194 -80.5t-192.5 80.5t-78.5 194.5zM100 435q0 -90 60 -152t148 -62q89 0 149.5 62t60.5 152q0 91 -60.5 153.5t-149.5 62.5q-88 0 -148 -62.5t-60 -153.5zM359 319l-44 77h-35v-77h-62v251h113
q40 0 65 -24.5t25 -61.5q0 -54 -46 -79l53 -86h-69zM317 516h-37v-65h37q19 0 31 9t12 24q0 32 -43 32z" />
    <glyph glyph-name="macron" unicode="&#xaf;" 
d="M196 701h228v-68h-228v68z" />
    <glyph glyph-name="degree" unicode="&#xb0;" 
d="M156 559q0 64 45 108.5t109 44.5t109 -44.5t45 -108.5q0 -65 -45 -109.5t-109 -44.5t-109 45t-45 109zM223 559q0 -36 25 -61t61 -25t61 25t25 61t-25 61t-61 25t-61 -25t-25 -61z" />
    <glyph glyph-name="plusminus" unicode="&#xb1;" 
d="M90 335h183v189h71v-189h186v-68h-186v-187h-71v187h-183v68zM90 -68v68h440v-68h-440z" />
    <glyph glyph-name="twosuperior" unicode="&#xb2;" 
d="M234 368h228v-60h-301v22q0 67 34.5 111.5t110.5 75.5l10 4q42 17 57.5 32.5t15.5 40.5q0 26 -21 43t-54 17q-35 0 -56.5 -20t-24.5 -56h-66q4 61 44 97.5t103 36.5q62 0 101 -33t39 -87q0 -43 -24.5 -71t-73.5 -49l-32 -14q-83 -37 -90 -90z" />
    <glyph glyph-name="threesuperior" unicode="&#xb3;" 
d="M396 514q65 -28 65 -99q0 -56 -45 -87.5t-109 -31.5q-55 0 -102.5 29.5t-55.5 90.5h70q13 -61 90 -61q36 0 61.5 17t25.5 46q0 61 -90 61h-41v59h34q87 0 87 58q0 26 -21.5 42t-54.5 16q-36 0 -58 -16.5t-27 -43.5h-66q8 61 51.5 89.5t99.5 28.5q59 0 100 -29.5t41 -78.5
q0 -33 -17 -57.5t-38 -32.5z" />
    <glyph glyph-name="acute" unicode="&#xb4;" 
d="M328 740h134l-154 -170h-76z" />
    <glyph glyph-name="mu" unicode="&#xb5;" 
d="M106 -194v684h74v-295q0 -66 31 -101t89 -35q71 0 106.5 49.5t35.5 138.5v243h74v-490h-72v62q-55 -73 -149 -73q-73 0 -115 45v-228h-74z" />
    <glyph glyph-name="paragraph" unicode="&#xb6;" 
d="M315 258h-16q-118 0 -187.5 60t-69.5 161t70 161.5t187 60.5h244v-895h-76v827h-75v-827h-77v452z" />
    <glyph glyph-name="periodcentered" unicode="&#xb7;" 
d="M206 268q0 43 30.5 73.5t73.5 30.5t73.5 -30.5t30.5 -73.5t-30.5 -73.5t-73.5 -30.5t-73.5 30.5t-30.5 73.5z" />
    <glyph glyph-name="cedilla" unicode="&#xb8;" 
d="M301 -137h-80l63 131h74z" />
    <glyph glyph-name="onesuperior" unicode="&#xb9;" 
d="M158 366h140v205h-130v47q70 2 101 19.5t40 63.5h54v-335h131v-58h-336v58z" />
    <glyph glyph-name="ordmasculine" unicode="&#xba;" 
d="M120 521q0 80 55.5 135.5t134.5 55.5q78 0 133.5 -56t55.5 -135t-55.5 -134.5t-133.5 -55.5q-79 0 -134.5 55.5t-55.5 134.5zM185 521q0 -56 34.5 -92.5t90.5 -36.5q55 0 89.5 37t34.5 92q0 56 -34.5 93t-89.5 37q-56 0 -90.5 -37t-34.5 -93z" />
    <glyph glyph-name="guillemotright" unicode="&#xbb;" 
d="M181 490l137 -245l-137 -245h-82l139 245l-139 245h82zM404 490l137 -245l-137 -245h-82l139 245l-139 245h82z" />
    <glyph glyph-name="onequarter" unicode="&#xbc;" 
d="M315 -4h-121l164 245h-77l-166 -251v-56h200v-87h63v87h97v62h-97v90h-63v-90zM55 324v58h519v-58h-519zM149 516h140v205h-130v47q70 2 101 19.5t40 63.5h54v-335h131v-58h-336v58z" />
    <glyph glyph-name="onehalf" unicode="&#xbd;" 
d="M55 324v58h519v-58h-519zM149 516h140v205h-130v47q70 2 101 19.5t40 63.5h54v-335h131v-58h-336v58zM235 -90h228v-60h-301v22q0 67 34.5 111.5t110.5 75.5l10 4q42 17 57.5 32.5t15.5 40.5q0 26 -21 43t-54 17q-35 0 -56.5 -20t-24.5 -56h-66q4 61 44 97.5t103 36.5
q62 0 101 -33t39 -87q0 -43 -24.5 -71t-73.5 -49l-32 -14q-83 -37 -90 -90z" />
    <glyph glyph-name="threequarters" unicode="&#xbe;" 
d="M194 -4h121v90h63v-90h97v-62h-97v-87h-63v87h-200v56l166 251h77zM55 324v58h519v-58h-519zM399 664q65 -28 65 -99q0 -56 -45 -87.5t-109 -31.5q-55 0 -102.5 29.5t-55.5 90.5h70q13 -61 90 -61q36 0 61.5 17t25.5 46q0 61 -90 61h-41v59h34q87 0 87 58q0 26 -21.5 42
t-54.5 16q-36 0 -58 -16.5t-27 -43.5h-66q8 61 51.5 89.5t99.5 28.5q59 0 100 -29.5t41 -78.5q0 -33 -17 -57.5t-38 -32.5z" />
    <glyph glyph-name="questiondown" unicode="&#xbf;" 
d="M372 256h-76v-6q0 -45 -73 -97l-34 -24q-81 -58 -81 -151q0 -83 63.5 -133t154.5 -50q79 0 140 47t69 139h-75q-7 -57 -46.5 -86t-91.5 -29q-56 0 -96.5 29t-40.5 82q0 63 67 111l24 17q96 67 96 138v13zM425 410q0 -38 -27.5 -65.5t-65.5 -27.5t-65.5 27.5t-27.5 65.5
t27.5 65.5t65.5 27.5t65.5 -27.5t27.5 -65.5z" />
    <glyph glyph-name="Agrave" unicode="&#xc0;" 
d="M490 0l-41 160h-281l-41 -160h-84l179 701h176l178 -701h-86zM287 627l-100 -392h244l-100 392h-44zM147 872h144l71 -112h-86z" />
    <glyph glyph-name="Aacute" unicode="&#xc1;" 
d="M490 0l-41 160h-281l-41 -160h-84l179 701h176l178 -701h-86zM287 627l-100 -392h244l-100 392h-44zM328 872h144l-129 -112h-86z" />
    <glyph glyph-name="Acircumflex" unicode="&#xc2;" 
d="M490 0l-41 160h-281l-41 -160h-84l179 701h176l178 -701h-86zM287 627l-100 -392h244l-100 392h-44zM249 872h121l87 -112h-79l-69 67l-68 -67h-79z" />
    <glyph glyph-name="Atilde" unicode="&#xc3;" 
d="M490 0l-41 160h-281l-41 -160h-84l179 701h176l178 -701h-86zM287 627l-100 -392h244l-100 392h-44zM391 872h60q0 -47 -22.5 -72.5t-57.5 -25.5q-22 0 -42 8l-35 15q-25 10 -35 10q-13 0 -21 -9t-9 -23h-60q0 47 23 73t58 26q21 0 41 -8l35 -16q21 -10 35 -10
q13 0 21 9.5t9 22.5z" />
    <glyph glyph-name="Adieresis" unicode="&#xc4;" 
d="M490 0l-41 160h-281l-41 -160h-84l179 701h176l178 -701h-86zM287 627l-100 -392h244l-100 392h-44zM116 837q0 32 22.5 54.5t54.5 22.5t54.5 -22.5t22.5 -54.5t-22.5 -54.5t-54.5 -22.5t-54.5 22.5t-22.5 54.5zM348 837q0 32 22.5 54.5t54.5 22.5t54.5 -22.5t22.5 -54.5
t-22.5 -54.5t-54.5 -22.5t-54.5 22.5t-22.5 54.5z" />
    <glyph glyph-name="Aring" unicode="&#xc5;" 
d="M490 0l-41 160h-281l-41 -160h-84l179 701h176l178 -701h-86zM287 627l-100 -392h244l-100 392h-44zM221 812q0 39 25.5 64t61.5 25q38 0 64 -25t26 -64q0 -36 -26 -61.5t-64 -25.5q-35 0 -61 26t-26 61zM280 812q0 -13 8.5 -21.5t21.5 -8.5t21.5 8.5t8.5 21.5t-8.5 21.5
t-21.5 8.5t-21.5 -8.5t-8.5 -21.5z" />
    <glyph glyph-name="AE" unicode="&#xc6;" 
d="M299 0v160h-164l-41 -160h-84l179 701h399v-73h-212v-235h197v-73h-197v-247h217v-73h-294zM254 627l-100 -392h145v392h-45z" />
    <glyph glyph-name="Ccedilla" unicode="&#xc7;" 
d="M482 200l71 -27q-25 -84 -81 -134t-143 -50q-131 0 -198.5 101t-67.5 261q0 157 69 259t197 102q89 0 147.5 -51.5t79.5 -134.5l-72 -26q-17 62 -55.5 100t-95.5 38q-92 0 -140 -79.5t-48 -207.5q0 -125 51 -205.5t137 -80.5q57 0 95 37t54 98zM316 -137h-80l63 131h74z
" />
    <glyph glyph-name="Egrave" unicode="&#xc8;" 
d="M127 0v701h389v-73h-312v-235h297v-73h-297v-247h317v-73h-394zM182 872h144l71 -112h-86z" />
    <glyph glyph-name="Eacute" unicode="&#xc9;" 
d="M127 0v701h389v-73h-312v-235h297v-73h-297v-247h317v-73h-394zM323 872h144l-129 -112h-86z" />
    <glyph glyph-name="Ecircumflex" unicode="&#xca;" 
d="M127 0v701h389v-73h-312v-235h297v-73h-297v-247h317v-73h-394zM264 872h121l87 -112h-79l-69 67l-68 -67h-79z" />
    <glyph glyph-name="Edieresis" unicode="&#xcb;" 
d="M127 0v701h389v-73h-312v-235h297v-73h-297v-247h317v-73h-394zM130 837q0 32 22.5 54.5t54.5 22.5t54.5 -22.5t22.5 -54.5t-22.5 -54.5t-54.5 -22.5t-54.5 22.5t-22.5 54.5zM362 837q0 32 22.5 54.5t54.5 22.5t54.5 -22.5t22.5 -54.5t-22.5 -54.5t-54.5 -22.5
t-54.5 22.5t-22.5 54.5z" />
    <glyph glyph-name="Igrave" unicode="&#xcc;" 
d="M102 628v73h416v-73h-170v-555h170v-73h-416v73h169v555h-169zM152 872h144l71 -112h-86z" />
    <glyph glyph-name="Iacute" unicode="&#xcd;" 
d="M102 628v73h416v-73h-170v-555h170v-73h-416v73h169v555h-169zM328 872h144l-129 -112h-86z" />
    <glyph glyph-name="Icircumflex" unicode="&#xce;" 
d="M102 628v73h416v-73h-170v-555h170v-73h-416v73h169v555h-169zM249 872h121l87 -112h-79l-69 67l-68 -67h-79z" />
    <glyph glyph-name="Idieresis" unicode="&#xcf;" 
d="M102 628v73h416v-73h-170v-555h170v-73h-416v73h169v555h-169zM117 837q0 32 22.5 54.5t54.5 22.5t54.5 -22.5t22.5 -54.5t-22.5 -54.5t-54.5 -22.5t-54.5 22.5t-22.5 54.5zM349 837q0 32 22.5 54.5t54.5 22.5t54.5 -22.5t22.5 -54.5t-22.5 -54.5t-54.5 -22.5t-54.5 22.5
t-22.5 54.5z" />
    <glyph glyph-name="Eth" unicode="&#xd0;" 
d="M308 393v-72h-285v72h285zM99 0v701h140q72 0 126.5 -16t100 -53.5t69.5 -107t24 -169.5t-24 -171t-69.5 -110.5t-100.5 -56.5t-126 -17h-140zM237 628h-61v-555h62q122 0 181.5 67.5t59.5 214.5q0 148 -59 210.5t-183 62.5z" />
    <glyph glyph-name="Ntilde" unicode="&#xd1;" 
d="M388 0l-215 632h-13v-632h-77v701h147l215 -634h13v634h78v-701h-148zM391 872h60q0 -47 -22.5 -72.5t-57.5 -25.5q-22 0 -42 8l-35 15q-25 10 -35 10q-13 0 -21 -9t-9 -23h-60q0 47 23 73t58 26q21 0 41 -8l35 -16q21 -10 35 -10q13 0 21 9.5t9 22.5z" />
    <glyph glyph-name="Ograve" unicode="&#xd2;" 
d="M310 61q90 0 132 79t42 211q0 131 -42 210t-132 79t-132 -79t-42 -211q0 -131 42 -210t132 -79zM310 -11q-130 0 -193 100.5t-63 260.5q0 78 14.5 142t44 114t80 78t117.5 28q130 0 193 -100.5t63 -260.5q0 -78 -14.5 -142t-44 -114t-80 -78t-117.5 -28zM162 872h144
l71 -112h-86z" />
    <glyph glyph-name="Oacute" unicode="&#xd3;" 
d="M310 61q-90 0 -132 79t-42 210q0 132 42 211t132 79t132 -79t42 -210q0 -132 -42 -211t-132 -79zM310 -11q67 0 117.5 28t80 78t44 114t14.5 142q0 160 -63 260.5t-193 100.5q-67 0 -117.5 -28t-80 -78t-44 -114t-14.5 -142q0 -160 63 -260.5t193 -100.5zM318 872h144
l-129 -112h-86z" />
    <glyph glyph-name="Ocircumflex" unicode="&#xd4;" 
d="M310 61q-90 0 -132 79t-42 210q0 132 42 211t132 79t132 -79t42 -210q0 -132 -42 -211t-132 -79zM310 -11q67 0 117.5 28t80 78t44 114t14.5 142q0 160 -63 260.5t-193 100.5q-67 0 -117.5 -28t-80 -78t-44 -114t-14.5 -142q0 -160 63 -260.5t193 -100.5zM250 872h121
l87 -112h-79l-69 67l-68 -67h-79z" />
    <glyph glyph-name="Otilde" unicode="&#xd5;" 
d="M310 61q-90 0 -132 79t-42 210q0 132 42 211t132 79t132 -79t42 -210q0 -132 -42 -211t-132 -79zM310 -11q67 0 117.5 28t80 78t44 114t14.5 142q0 160 -63 260.5t-193 100.5q-67 0 -117.5 -28t-80 -78t-44 -114t-14.5 -142q0 -160 63 -260.5t193 -100.5zM387 872h60
q0 -47 -22.5 -72.5t-57.5 -25.5q-22 0 -42 8l-35 15q-25 10 -35 10q-13 0 -21 -9t-9 -23h-60q0 47 23 73t58 26q21 0 41 -8l35 -16q21 -10 35 -10q13 0 21 9.5t9 22.5z" />
    <glyph glyph-name="Odieresis" unicode="&#xd6;" 
d="M310 61q-90 0 -132 79t-42 210q0 132 42 211t132 79t132 -79t42 -210q0 -132 -42 -211t-132 -79zM310 -11q67 0 117.5 28t80 78t44 114t14.5 142q0 160 -63 260.5t-193 100.5q-67 0 -117.5 -28t-80 -78t-44 -114t-14.5 -142q0 -160 63 -260.5t193 -100.5zM116 837
q0 32 22.5 54.5t54.5 22.5t54.5 -22.5t22.5 -54.5t-22.5 -54.5t-54.5 -22.5t-54.5 22.5t-22.5 54.5zM348 837q0 32 22.5 54.5t54.5 22.5t54.5 -22.5t22.5 -54.5t-22.5 -54.5t-54.5 -22.5t-54.5 22.5t-22.5 54.5z" />
    <glyph glyph-name="multiply" unicode="&#xd7;" 
d="M155 449l155 -155l154 154l49 -48l-154 -154l155 -156l-48 -48l-156 155l-155 -155l-49 48l156 156l-155 155z" />
    <glyph glyph-name="Oslash" unicode="&#xd8;" 
d="M110 -19l-56 37l457 703l55 -37zM310 61q90 0 132 79t42 211q0 131 -42 210t-132 79t-132 -79t-42 -211q0 -131 42 -210t132 -79zM310 -11q-130 0 -193 100.5t-63 260.5q0 78 14.5 142t44 114t80 78t117.5 28q130 0 193 -100.5t63 -260.5q0 -78 -14.5 -142t-44 -114
t-80 -78t-117.5 -28z" />
    <glyph glyph-name="Ugrave" unicode="&#xd9;" 
d="M457 271v430h79v-436q0 -127 -57 -201.5t-169 -74.5t-169 74.5t-57 201.5v436h79v-431q0 -203 147 -203t147 204zM162 872h144l71 -112h-86z" />
    <glyph glyph-name="Uacute" unicode="&#xda;" 
d="M457 271v430h79v-436q0 -127 -57 -201.5t-169 -74.5t-169 74.5t-57 201.5v436h79v-431q0 -203 147 -203t147 204zM313 872h144l-129 -112h-86z" />
    <glyph glyph-name="Ucircumflex" unicode="&#xdb;" 
d="M457 271v430h79v-436q0 -127 -57 -201.5t-169 -74.5t-169 74.5t-57 201.5v436h79v-431q0 -203 147 -203t147 204zM249 872h121l87 -112h-79l-69 67l-68 -67h-79z" />
    <glyph glyph-name="Udieresis" unicode="&#xdc;" 
d="M457 271v430h79v-436q0 -127 -57 -201.5t-169 -74.5t-169 74.5t-57 201.5v436h79v-431q0 -203 147 -203t147 204zM116 837q0 32 22.5 54.5t54.5 22.5t54.5 -22.5t22.5 -54.5t-22.5 -54.5t-54.5 -22.5t-54.5 22.5t-22.5 54.5zM348 837q0 32 22.5 54.5t54.5 22.5
t54.5 -22.5t22.5 -54.5t-22.5 -54.5t-54.5 -22.5t-54.5 22.5t-22.5 54.5z" />
    <glyph glyph-name="Yacute" unicode="&#xdd;" 
d="M139 701l172 -365l170 365h84l-217 -458v-243h-76v243l-217 458h84zM318 872h144l-129 -112h-86z" />
    <glyph glyph-name="Thorn" unicode="&#xde;" 
d="M294 138h-148v-138h-76v701h76v-120h148q118 0 187 -60.5t69 -161.5t-69.5 -161t-186.5 -60zM305 510h-159v-300h159q78 0 123.5 38t45.5 111q0 72 -45.5 111.5t-123.5 39.5z" />
    <glyph glyph-name="germandbls" unicode="&#xdf;" 
d="M94 0v470q0 106 57 168.5t159 62.5q91 0 155.5 -57t64.5 -141q0 -47 -21.5 -86t-55.5 -59q48 -25 78 -68.5t30 -100.5q0 -93 -60 -141t-157 -48h-55v68h40q66 0 112 29t46 93q0 60 -43 93t-112 33h-43v68h35q58 0 94.5 30.5t36.5 91.5q0 53 -39 90t-106 37
q-68 0 -104.5 -41t-36.5 -122v-470h-75z" />
    <glyph glyph-name="agrave" unicode="&#xe0;" 
d="M177 332h-76v14q0 64 55.5 110.5t134.5 46.5q83 0 134.5 -47.5t51.5 -130.5v-199q0 -36 11.5 -49.5t42.5 -13.5h32v-59q-28 -7 -59 -7q-39 0 -62.5 21.5t-27.5 53.5q-58 -82 -166 -82q-79 0 -124.5 40t-45.5 103q0 64 48 103.5t134 50.5l143 18v21q0 52 -30.5 80.5
t-81.5 28.5q-52 0 -82.5 -26.5t-31.5 -76.5zM153 134q0 -35 24 -55.5t71 -20.5q68 0 111.5 40t43.5 104v40l-148 -20q-49 -7 -75.5 -30t-26.5 -58zM138 740h134l96 -170h-76z" />
    <glyph glyph-name="aacute" unicode="&#xe1;" 
d="M177 332h-76v14q0 64 55.5 110.5t134.5 46.5q83 0 134.5 -47.5t51.5 -130.5v-199q0 -36 11.5 -49.5t42.5 -13.5h32v-59q-28 -7 -59 -7q-39 0 -62.5 21.5t-27.5 53.5q-58 -82 -166 -82q-79 0 -124.5 40t-45.5 103q0 64 48 103.5t134 50.5l143 18v21q0 52 -30.5 80.5
t-81.5 28.5q-52 0 -82.5 -26.5t-31.5 -76.5zM153 134q0 -35 24 -55.5t71 -20.5q68 0 111.5 40t43.5 104v40l-148 -20q-49 -7 -75.5 -30t-26.5 -58zM309 740h134l-154 -170h-76z" />
    <glyph glyph-name="acircumflex" unicode="&#xe2;" 
d="M177 332h-76v14q0 64 55.5 110.5t134.5 46.5q83 0 134.5 -47.5t51.5 -130.5v-199q0 -36 11.5 -49.5t42.5 -13.5h32v-59q-28 -7 -59 -7q-39 0 -62.5 21.5t-27.5 53.5q-58 -82 -166 -82q-79 0 -124.5 40t-45.5 103q0 64 48 103.5t134 50.5l143 18v21q0 52 -30.5 80.5
t-81.5 28.5q-52 0 -82.5 -26.5t-31.5 -76.5zM153 134q0 -35 24 -55.5t71 -20.5q68 0 111.5 40t43.5 104v40l-148 -20q-49 -7 -75.5 -30t-26.5 -58zM227 701h121l97 -131h-86l-72 76l-71 -76h-86z" />
    <glyph glyph-name="atilde" unicode="&#xe3;" 
d="M177 332h-76v14q0 64 55.5 110.5t134.5 46.5q83 0 134.5 -47.5t51.5 -130.5v-199q0 -36 11.5 -49.5t42.5 -13.5h32v-59q-28 -7 -59 -7q-39 0 -62.5 21.5t-27.5 53.5q-58 -82 -166 -82q-79 0 -124.5 40t-45.5 103q0 64 48 103.5t134 50.5l143 18v21q0 52 -30.5 80.5
t-81.5 28.5q-52 0 -82.5 -26.5t-31.5 -76.5zM153 134q0 -35 24 -55.5t71 -20.5q68 0 111.5 40t43.5 104v40l-148 -20q-49 -7 -75.5 -30t-26.5 -58zM371 701h60q0 -47 -22.5 -72.5t-57.5 -25.5q-22 0 -42 8l-35 15q-25 10 -35 10q-13 0 -21 -9t-9 -23h-60q0 47 23 73t58 26
q21 0 41 -8l35 -16q21 -10 35 -10q13 0 21 9.5t9 22.5z" />
    <glyph glyph-name="adieresis" unicode="&#xe4;" 
d="M177 332h-76v14q0 64 55.5 110.5t134.5 46.5q83 0 134.5 -47.5t51.5 -130.5v-199q0 -36 11.5 -49.5t42.5 -13.5h32v-59q-28 -7 -59 -7q-39 0 -62.5 21.5t-27.5 53.5q-58 -82 -166 -82q-79 0 -124.5 40t-45.5 103q0 64 48 103.5t134 50.5l143 18v21q0 52 -30.5 80.5
t-81.5 28.5q-52 0 -82.5 -26.5t-31.5 -76.5zM153 134q0 -35 24 -55.5t71 -20.5q68 0 111.5 40t43.5 104v40l-148 -20q-49 -7 -75.5 -30t-26.5 -58zM100 663q0 32 22.5 54.5t54.5 22.5t54.5 -22.5t22.5 -54.5t-22.5 -54.5t-54.5 -22.5t-54.5 22.5t-22.5 54.5zM332 663
q0 32 22.5 54.5t54.5 22.5t54.5 -22.5t22.5 -54.5t-22.5 -54.5t-54.5 -22.5t-54.5 22.5t-22.5 54.5z" />
    <glyph glyph-name="aring" unicode="&#xe5;" 
d="M177 332h-76v14q0 64 55.5 110.5t134.5 46.5q83 0 134.5 -47.5t51.5 -130.5v-199q0 -36 11.5 -49.5t42.5 -13.5h32v-59q-28 -7 -59 -7q-39 0 -62.5 21.5t-27.5 53.5q-58 -82 -166 -82q-79 0 -124.5 40t-45.5 103q0 64 48 103.5t134 50.5l143 18v21q0 52 -30.5 80.5
t-81.5 28.5q-52 0 -82.5 -26.5t-31.5 -76.5zM153 134q0 -35 24 -55.5t71 -20.5q68 0 111.5 40t43.5 104v40l-148 -20q-49 -7 -75.5 -30t-26.5 -58zM218 635q0 34 22 55.5t53 21.5q34 0 56.5 -21.5t22.5 -55.5q0 -32 -22.5 -54t-56.5 -22q-31 0 -53 22.5t-22 53.5zM270 636
q0 -10 8 -18t18 -8t18 8t8 18t-8 18t-18 8t-18 -8t-8 -18z" />
    <glyph glyph-name="ae" unicode="&#xe6;" 
d="M307 74q-15 -35 -51.5 -59.5t-89.5 -24.5q-65 0 -105 39.5t-40 101.5q0 64 40 104t107 52l102 18v21q0 55 -17.5 82t-58.5 27q-80 0 -84 -103h-76q0 75 43 123t115 48q87 0 125 -72q41 71 118 71q165 0 165 -236l-1 -44h-255v-31q5 -64 31 -98.5t68 -34.5q69 0 96 72
l56 -32q-22 -51 -62 -80t-90 -29q-94 0 -136 85zM93 132q0 -34 20 -54t53 -20q104 0 104 144v40l-88 -17q-89 -18 -89 -93zM437 432q-47 0 -67.5 -37.5t-24.5 -106.5h180q0 144 -88 144z" />
    <glyph glyph-name="ccedilla" unicode="&#xe7;" 
d="M474 173l64 -21q-15 -65 -72 -114t-145 -49q-107 0 -175.5 69t-68.5 182q0 111 68.5 186.5t173.5 75.5q79 0 138 -43.5t78 -107.5l-69 -22q-15 44 -53.5 73.5t-92.5 29.5q-75 0 -121 -52t-46 -134q0 -81 45.5 -134.5t123.5 -53.5q115 0 152 115zM301 -137h-80l63 131h74z
" />
    <glyph glyph-name="egrave" unicode="&#xe8;" 
d="M526 222h-365q5 -77 49 -120.5t116 -43.5q82 0 140 72l51 -47q-78 -94 -191 -94q-110 0 -175.5 70t-65.5 183q0 111 60.5 185.5t162.5 74.5q75 0 126.5 -39t72 -92.5t20.5 -114.5zM310 432q-62 0 -99 -40t-47 -104h288q-5 65 -43 104.5t-99 39.5zM150 740h134l96 -170
h-76z" />
    <glyph glyph-name="eacute" unicode="&#xe9;" 
d="M161 222h365q1 17 1 34q0 61 -20.5 114.5t-72 92.5t-126.5 39q-102 0 -162.5 -74.5t-60.5 -185.5q0 -113 65.5 -183t175.5 -70q113 0 191 94l-51 47q-58 -72 -140 -72q-72 0 -116 43.5t-49 120.5zM310 432q61 0 99 -39.5t43 -104.5h-288q10 64 47 104t99 40zM336 740h134
l-154 -170h-76z" />
    <glyph glyph-name="ecircumflex" unicode="&#xea;" 
d="M161 222h365q1 17 1 34q0 61 -20.5 114.5t-72 92.5t-126.5 39q-102 0 -162.5 -74.5t-60.5 -185.5q0 -113 65.5 -183t175.5 -70q113 0 191 94l-51 47q-58 -72 -140 -72q-72 0 -116 43.5t-49 120.5zM310 432q61 0 99 -39.5t43 -104.5h-288q10 64 47 104t99 40zM248 701h121
l97 -131h-86l-72 76l-71 -76h-86z" />
    <glyph glyph-name="edieresis" unicode="&#xeb;" 
d="M161 222h365q1 17 1 34q0 61 -20.5 114.5t-72 92.5t-126.5 39q-102 0 -162.5 -74.5t-60.5 -185.5q0 -113 65.5 -183t175.5 -70q113 0 191 94l-51 47q-58 -72 -140 -72q-72 0 -116 43.5t-49 120.5zM310 432q61 0 99 -39.5t43 -104.5h-288q10 64 47 104t99 40zM117 663
q0 32 22.5 54.5t54.5 22.5t54.5 -22.5t22.5 -54.5t-22.5 -54.5t-54.5 -22.5t-54.5 22.5t-22.5 54.5zM349 663q0 32 22.5 54.5t54.5 22.5t54.5 -22.5t22.5 -54.5t-22.5 -54.5t-54.5 -22.5t-54.5 22.5t-22.5 54.5z" />
    <glyph glyph-name="igrave" unicode="&#xec;" 
d="M101 490h264v-422h187v-68h-450v68h189v354h-190v68zM165 740h134l96 -170h-76z" />
    <glyph glyph-name="iacute" unicode="&#xed;" 
d="M101 490h264v-422h187v-68h-450v68h189v354h-190v68zM355 740h134l-154 -170h-76z" />
    <glyph glyph-name="icircumflex" unicode="&#xee;" 
d="M101 490h264v-422h187v-68h-450v68h189v354h-190v68zM264 701h121l97 -131h-86l-72 76l-71 -76h-86z" />
    <glyph glyph-name="idieresis" unicode="&#xef;" 
d="M101 490h264v-422h187v-68h-450v68h189v354h-190v68zM127 663q0 32 22.5 54.5t54.5 22.5t54.5 -22.5t22.5 -54.5t-22.5 -54.5t-54.5 -22.5t-54.5 22.5t-22.5 54.5zM359 663q0 32 22.5 54.5t54.5 22.5t54.5 -22.5t22.5 -54.5t-22.5 -54.5t-54.5 -22.5t-54.5 22.5
t-22.5 54.5z" />
    <glyph glyph-name="eth" unicode="&#xf0;" 
d="M180 512v68l75 41l-57 80h88l31 -46l104 57v-68l-69 -38l112 -161q84 -121 84 -217q0 -104 -68 -171.5t-175 -67.5q-102 0 -172.5 63t-70.5 170q0 104 70.5 168t167.5 64q47 0 86 -17l-96 135zM471 221q0 72 -48 116.5t-118 44.5t-118 -44.5t-48 -116.5t48 -116.5
t118 -44.5q69 0 117.5 44.5t48.5 116.5z" />
    <glyph glyph-name="ntilde" unicode="&#xf1;" 
d="M176 490v-70q25 38 66.5 60t88.5 22q94 0 144.5 -56.5t50.5 -160.5v-285h-75v291q0 68 -33 105t-92 37q-72 0 -110 -51t-38 -139v-243h-74v490h72zM401 701h60q0 -47 -22.5 -72.5t-57.5 -25.5q-22 0 -42 8l-35 15q-25 10 -35 10q-13 0 -21 -9t-9 -23h-60q0 47 23 73
t58 26q21 0 41 -8l35 -16q21 -10 35 -10q13 0 21 9.5t9 22.5z" />
    <glyph glyph-name="ograve" unicode="&#xf2;" 
d="M63 245q0 107 70.5 182t175.5 75t176.5 -75t71.5 -182t-71 -181.5t-177 -74.5q-105 0 -175.5 74.5t-70.5 181.5zM139 245q0 -80 48 -133.5t122 -53.5q75 0 123 53.5t48 133.5t-48 133.5t-123 53.5q-74 0 -122 -53.5t-48 -133.5zM140 740h134l96 -170h-76z" />
    <glyph glyph-name="oacute" unicode="&#xf3;" 
d="M63 245q0 107 70.5 182t175.5 75t176.5 -75t71.5 -182t-71 -181.5t-177 -74.5q-105 0 -175.5 74.5t-70.5 181.5zM139 245q0 -80 48 -133.5t122 -53.5q75 0 123 53.5t48 133.5t-48 133.5t-123 53.5q-74 0 -122 -53.5t-48 -133.5zM336 740h134l-154 -170h-76z" />
    <glyph glyph-name="ocircumflex" unicode="&#xf4;" 
d="M63 245q0 107 70.5 182t175.5 75t176.5 -75t71.5 -182t-71 -181.5t-177 -74.5q-105 0 -175.5 74.5t-70.5 181.5zM139 245q0 -80 48 -133.5t122 -53.5q75 0 123 53.5t48 133.5t-48 133.5t-123 53.5q-74 0 -122 -53.5t-48 -133.5zM249 701h121l97 -131h-86l-72 76l-71 -76
h-86z" />
    <glyph glyph-name="otilde" unicode="&#xf5;" 
d="M63 245q0 107 70.5 182t175.5 75t176.5 -75t71.5 -182t-71 -181.5t-177 -74.5q-105 0 -175.5 74.5t-70.5 181.5zM139 245q0 -80 48 -133.5t122 -53.5q75 0 123 53.5t48 133.5t-48 133.5t-123 53.5q-74 0 -122 -53.5t-48 -133.5zM390 701h60q0 -47 -22.5 -72.5
t-57.5 -25.5q-22 0 -42 8l-35 15q-25 10 -35 10q-13 0 -21 -9t-9 -23h-60q0 47 23 73t58 26q21 0 41 -8l35 -16q21 -10 35 -10q13 0 21 9.5t9 22.5z" />
    <glyph glyph-name="odieresis" unicode="&#xf6;" 
d="M63 245q0 107 70.5 182t175.5 75t176.5 -75t71.5 -182t-71 -181.5t-177 -74.5q-105 0 -175.5 74.5t-70.5 181.5zM139 245q0 -80 48 -133.5t122 -53.5q75 0 123 53.5t48 133.5t-48 133.5t-123 53.5q-74 0 -122 -53.5t-48 -133.5zM117 663q0 32 22.5 54.5t54.5 22.5
t54.5 -22.5t22.5 -54.5t-22.5 -54.5t-54.5 -22.5t-54.5 22.5t-22.5 54.5zM349 663q0 32 22.5 54.5t54.5 22.5t54.5 -22.5t22.5 -54.5t-22.5 -54.5t-54.5 -22.5t-54.5 22.5t-22.5 54.5z" />
    <glyph glyph-name="divide" unicode="&#xf7;" 
d="M65 220v68h490v-68h-490zM218 428q0 38 27.5 65.5t65.5 27.5t65.5 -27.5t27.5 -65.5t-27.5 -65.5t-65.5 -27.5t-65.5 27.5t-27.5 65.5zM218 81q0 38 27.5 65.5t65.5 27.5t65.5 -27.5t27.5 -65.5t-27.5 -65.5t-65.5 -27.5t-65.5 27.5t-27.5 65.5z" />
    <glyph glyph-name="oslash" unicode="&#xf8;" 
d="M161 -22l-54 38l348 496l54 -38zM63 245q0 107 70.5 182t175.5 75t176.5 -75t71.5 -182t-71 -181.5t-177 -74.5q-105 0 -175.5 74.5t-70.5 181.5zM139 245q0 -80 48 -133.5t122 -53.5q75 0 123 53.5t48 133.5t-48 133.5t-123 53.5q-74 0 -122 -53.5t-48 -133.5z" />
    <glyph glyph-name="ugrave" unicode="&#xf9;" 
d="M439 0v62q-57 -73 -155 -73q-184 0 -184 216v285h74v-288q0 -70 30.5 -106.5t89.5 -36.5q71 0 106.5 49.5t35.5 138.5v243h74v-490h-71zM135 740h134l96 -170h-76z" />
    <glyph glyph-name="uacute" unicode="&#xfa;" 
d="M439 0v62q-57 -73 -155 -73q-184 0 -184 216v285h74v-288q0 -70 30.5 -106.5t89.5 -36.5q71 0 106.5 49.5t35.5 138.5v243h74v-490h-71zM346 740h134l-154 -170h-76z" />
    <glyph glyph-name="ucircumflex" unicode="&#xfb;" 
d="M439 0v62q-57 -73 -155 -73q-184 0 -184 216v285h74v-288q0 -70 30.5 -106.5t89.5 -36.5q71 0 106.5 49.5t35.5 138.5v243h74v-490h-71zM249 701h121l97 -131h-86l-72 76l-71 -76h-86z" />
    <glyph glyph-name="udieresis" unicode="&#xfc;" 
d="M439 0v62q-57 -73 -155 -73q-184 0 -184 216v285h74v-288q0 -70 30.5 -106.5t89.5 -36.5q71 0 106.5 49.5t35.5 138.5v243h74v-490h-71zM112 663q0 32 22.5 54.5t54.5 22.5t54.5 -22.5t22.5 -54.5t-22.5 -54.5t-54.5 -22.5t-54.5 22.5t-22.5 54.5zM344 663
q0 32 22.5 54.5t54.5 22.5t54.5 -22.5t22.5 -54.5t-22.5 -54.5t-54.5 -22.5t-54.5 22.5t-22.5 54.5z" />
    <glyph glyph-name="yacute" unicode="&#xfd;" 
d="M190 -197l-78 2v76q38 -2 68 -2q29 0 43.5 10.5t25.5 36.5l27 68l-203 496h83l161 -407l158 407h82l-235 -586q-22 -54 -52.5 -77.5t-79.5 -23.5zM351 740h134l-154 -170h-76z" />
    <glyph glyph-name="thorn" unicode="&#xfe;" 
d="M547 245q0 -108 -64 -182t-164 -74t-165 76v-259h-74v895h74v-278q68 79 165 79q100 0 164 -74.5t64 -182.5zM471 245q0 81 -43 134t-116 53t-116.5 -53t-43.5 -134t43.5 -134t116.5 -53t116 53t43 134z" />
    <glyph glyph-name="ydieresis" unicode="&#xff;" 
d="M190 -197l-78 2v76q38 -2 68 -2q29 0 43.5 10.5t25.5 36.5l27 68l-203 496h83l161 -407l158 407h82l-235 -586q-22 -54 -52.5 -77.5t-79.5 -23.5zM124 663q0 32 22.5 54.5t54.5 22.5t54.5 -22.5t22.5 -54.5t-22.5 -54.5t-54.5 -22.5t-54.5 22.5t-22.5 54.5zM356 663
q0 32 22.5 54.5t54.5 22.5t54.5 -22.5t22.5 -54.5t-22.5 -54.5t-54.5 -22.5t-54.5 22.5t-22.5 54.5z" />
    <glyph glyph-name="dotlessi" unicode="&#x131;" 
d="M101 490h264v-422h187v-68h-450v68h189v354h-190v68z" />
    <glyph glyph-name="Lslash" unicode="&#x141;" 
d="M43 290l-20 68l295 87l20 -69zM119 0v701h77v-628h350v-73h-427z" />
    <glyph glyph-name="lslash" unicode="&#x142;" 
d="M163 290l-20 68l295 87l20 -69zM81 701h274v-633h197v-68h-470v68h199v565h-200v68z" />
    <glyph glyph-name="OE" unicode="&#x152;" 
d="M292 0q-131 0 -193.5 95.5t-62.5 254.5q0 161 62.5 256t193.5 95h289v-73h-212v-235h197v-73h-197v-247h217v-73h-294zM292 629q-174 0 -174 -279q0 -278 174 -278v557z" />
    <glyph glyph-name="oe" unicode="&#x153;" 
d="M15 245q0 257 171 257q89 0 127 -95q17 46 53 70.5t77 24.5q46 0 78.5 -21t48.5 -57.5t23 -74.5t7 -83l-1 -44h-252q0 -79 26.5 -121.5t72.5 -42.5q66 0 93 72l56 -32q-22 -51 -60.5 -80t-88.5 -29q-94 0 -133 95q-18 -46 -53.5 -70.5t-78.5 -24.5q-166 0 -166 256z
M91 245q0 -187 90 -187q94 0 94 187t-94 187q-90 0 -90 -187zM440 432q-47 0 -67 -37.5t-24 -106.5h176q0 144 -85 144z" />
    <glyph glyph-name="Scaron" unicode="&#x160;" 
d="M341 301l-91 29q-70 23 -112 72t-42 122q0 80 60 134t146 54q78 0 131.5 -38.5t76.5 -104.5l-71 -29q-14 42 -48 70.5t-84 28.5q-57 0 -94.5 -30.5t-37.5 -81.5q0 -90 103 -121l75 -23q83 -24 125.5 -77t42.5 -127t-61 -132t-156 -58q-89 0 -146.5 45t-82.5 111l72 32
q22 -55 61.5 -85t92.5 -30q61 0 101 33.5t40 83.5q0 89 -101 122zM366 760h-121l-87 112h79l69 -67l68 67h79z" />
    <glyph glyph-name="scaron" unicode="&#x161;" 
d="M349 204l-93 15q-69 11 -110 48t-41 92q0 66 56 104.5t133 38.5q60 0 116 -27t88 -78l-59 -42q-54 78 -151 78q-47 0 -77.5 -20t-30.5 -51q0 -58 84 -72l94 -16q70 -12 110.5 -47t40.5 -90q0 -64 -59 -106t-143 -42q-66 0 -122.5 25.5t-89.5 71.5l58 49q55 -78 153 -78
q54 0 91.5 20.5t37.5 55.5q0 28 -23 46.5t-63 24.5zM370 570h-121l-97 131h86l72 -76l71 76h86z" />
    <glyph glyph-name="Ydieresis" unicode="&#x178;" 
d="M139 701l172 -365l170 365h84l-217 -458v-243h-76v243l-217 458h84zM118 874q0 32 22.5 54.5t54.5 22.5t54.5 -22.5t22.5 -54.5t-22.5 -54.5t-54.5 -22.5t-54.5 22.5t-22.5 54.5zM350 874q0 32 22.5 54.5t54.5 22.5t54.5 -22.5t22.5 -54.5t-22.5 -54.5t-54.5 -22.5
t-54.5 22.5t-22.5 54.5z" />
    <glyph glyph-name="Zcaron" unicode="&#x17d;" 
d="M84 701h444v-68l-355 -561h352v-72h-443v68l354 561h-352v72zM370 781h-121l-97 131h86l72 -76l71 76h86z" />
    <glyph glyph-name="zcaron" unicode="&#x17e;" 
d="M108 490h396v-63l-313 -359h324v-68h-418v63l311 359h-300v68zM370 570h-121l-97 131h86l72 -76l71 76h86z" />
    <glyph glyph-name="florin" unicode="&#x192;" 
d="M258 -20v442h-142v68h142v36q0 91 43.5 132.5t128.5 41.5h89v-67h-88q-55 0 -77 -26t-22 -81v-36h175v-68h-175v-442q0 -91 -43.5 -132.5t-128.5 -41.5h-89v68h88q55 0 77 25.5t22 80.5z" />
    <glyph glyph-name="circumflex" unicode="&#x2c6;" 
d="M249 701h121l97 -131h-86l-72 76l-71 -76h-86z" />
    <glyph glyph-name="caron" unicode="&#x2c7;" 
d="M370 570h-121l-97 131h86l72 -76l71 76h86z" />
    <glyph glyph-name="breve" unicode="&#x2d8;" 
d="M309 564q-60 0 -97 38.5t-42 98.5h66q4 -31 23 -50t50 -19t50 18.5t23 50.5h67q-5 -60 -42 -98.5t-98 -38.5z" />
    <glyph glyph-name="dotaccent" unicode="&#x2d9;" 
d="M228 658q0 34 24 58t58 24t58 -24t24 -58t-24 -58t-58 -24t-58 24t-24 58z" />
    <glyph glyph-name="ring" unicode="&#x2da;" 
d="M213 635q0 34 22 55.5t53 21.5q34 0 56.5 -21.5t22.5 -55.5q0 -32 -22.5 -54t-56.5 -22q-31 0 -53 22.5t-22 53.5zM265 636q0 -10 7.5 -18t18.5 -8t18.5 8t7.5 18t-7.5 18t-18.5 8t-18.5 -8t-7.5 -18z" />
    <glyph glyph-name="ogonek" unicode="&#x2db;" 
d="M506 -157h-90q3 30 12.5 57.5t21.5 45.5t23 32t19 20l7 6h64q-6 -7 -15.5 -21t-25.5 -56t-16 -84z" />
    <glyph glyph-name="tilde" unicode="&#x2dc;" 
d="M396 701h60q0 -47 -22.5 -72.5t-57.5 -25.5q-22 0 -42 8l-35 15q-25 10 -35 10q-13 0 -21 -9t-9 -23h-60q0 47 23 73t58 26q21 0 41 -8l35 -16q21 -10 35 -10q13 0 21 9.5t9 22.5z" />
    <glyph glyph-name="hungarumlaut" unicode="&#x2dd;" 
d="M268 740h109l-119 -170h-71zM443 740h109l-119 -170h-71z" />
    <glyph glyph-name="pi" unicode="&#x3c0;" 
d="M413 0v422h-207v-422h-70v422h-80v68h508v-68h-80v-422h-71z" />
    <glyph glyph-name="endash" unicode="&#x2013;" 
d="M83 228v68h453v-68h-453z" />
    <glyph glyph-name="emdash" unicode="&#x2014;" 
d="M40 228v68h540v-68h-540z" />
    <glyph glyph-name="quoteleft" unicode="&#x2018;" 
d="M398 435q0 -37 -26 -63t-63 -26q-47 0 -75 35.5t-28 89.5q0 71 43 136t135 106l30 -55q-115 -51 -132 -149q7 4 16 6.5t14 2.5h6q31 0 55.5 -24t24.5 -59z" />
    <glyph glyph-name="quoteright" unicode="&#x2019;" 
d="M222 624q0 37 26 63t63 26q47 0 75 -35.5t28 -89.5q0 -71 -43 -136t-135 -106l-30 55q115 51 132 149q-7 -4 -16 -6t-14 -2l-6 -1q-31 0 -55.5 23.5t-24.5 59.5z" />
    <glyph glyph-name="quotesinglbase" unicode="&#x201a;" 
d="M222 83q0 37 26 63t63 26q47 0 75 -35.5t28 -89.5q0 -71 -43 -136t-135 -106l-30 55q115 51 132 149q-7 -4 -16 -6t-14 -3h-6q-31 0 -55.5 23.5t-24.5 59.5z" />
    <glyph glyph-name="quotedblleft" unicode="&#x201c;" 
d="M267 435q0 -37 -26 -63t-63 -26q-47 0 -75 35.5t-28 89.5q0 71 43 136t135 106l30 -55q-115 -51 -132 -149q7 4 16 6.5t15 2.5h5q31 0 55.5 -24t24.5 -59zM529 435q0 -37 -26 -63t-63 -26q-47 0 -75 35.5t-28 89.5q0 71 43 136t135 106l30 -55q-115 -51 -132 -149
q7 4 16 6.5t15 2.5h5q31 0 55.5 -24t24.5 -59z" />
    <glyph glyph-name="quotedblright" unicode="&#x201d;" 
d="M353 624q0 37 26 63t63 26q47 0 75 -35.5t28 -89.5q0 -71 -43 -136t-135 -106l-30 55q115 51 132 149q-7 -4 -16 -6t-15 -2l-5 -1q-31 0 -55.5 23.5t-24.5 59.5zM91 624q0 37 26 63t63 26q47 0 75 -35.5t28 -89.5q0 -71 -43 -136t-135 -106l-30 55q115 51 132 149
q-7 -4 -16 -6t-15 -2l-5 -1q-31 0 -55.5 23.5t-24.5 59.5z" />
    <glyph glyph-name="quotedblbase" unicode="&#x201e;" 
d="M353 83q0 37 26 63t63 26q47 0 75 -35.5t28 -89.5q0 -71 -43 -136t-135 -106l-30 55q115 51 132 149q-7 -4 -16 -6t-15 -3h-5q-31 0 -55.5 23.5t-24.5 59.5zM91 83q0 37 26 63t63 26q47 0 75 -35.5t28 -89.5q0 -71 -43 -136t-135 -106l-30 55q115 51 132 149
q-7 -4 -16 -6t-15 -3h-5q-31 0 -55.5 23.5t-24.5 59.5z" />
    <glyph glyph-name="dagger" unicode="&#x2020;" 
d="M81 490h190v211h76v-211h191v-72h-191v-612h-76v612h-190v72z" />
    <glyph glyph-name="daggerdbl" unicode="&#x2021;" 
d="M81 186h190v232h-190v72h190v211h76v-211h191v-72h-191v-232h191v-72h-191v-308h-76v308h-190v72z" />
    <glyph glyph-name="bullet" unicode="&#x2022;" 
d="M176 262q0 56 39 95t95 39q55 0 94 -39t39 -95t-38.5 -94.5t-94.5 -38.5t-95 39t-39 94z" />
    <glyph glyph-name="ellipsis" unicode="&#x2026;" 
d="M230 70q0 33 23.5 56.5t56.5 23.5t56.5 -23.5t23.5 -56.5t-23.5 -56.5t-56.5 -23.5t-56.5 23.5t-23.5 56.5zM16 70q0 33 23.5 56.5t56.5 23.5t56.5 -23.5t23.5 -56.5t-23.5 -56.5t-56.5 -23.5t-56.5 23.5t-23.5 56.5zM444 70q0 33 23.5 56.5t56.5 23.5t56.5 -23.5
t23.5 -56.5t-23.5 -56.5t-56.5 -23.5t-56.5 23.5t-23.5 56.5z" />
    <glyph glyph-name="perthousand" unicode="&#x2030;" 
d="M133 116q0 54 36.5 91.5t90.5 37.5q61 0 96 -49q33 49 98 49q53 0 89.5 -37.5t36.5 -91.5q0 -53 -36.5 -90t-89.5 -37q-65 0 -98 49q-35 -49 -96 -49q-54 0 -90.5 37t-36.5 90zM40 584q0 53 37.5 90.5t91.5 37.5q53 0 90 -37.5t37 -90.5t-37 -90.5t-90 -37.5
q-54 0 -91.5 37.5t-37.5 90.5zM40 310l540 242v-70l-540 -242v70zM106 584q0 -29 19 -47t44 -18q24 0 42.5 18t18.5 47q0 30 -18 48t-43 18t-44 -18.5t-19 -47.5zM390 116q0 -29 18.5 -47t43.5 -18t43.5 18t18.5 47t-18.5 47.5t-43.5 18.5t-43.5 -18t-18.5 -48zM323 116
q0 29 -18.5 47.5t-42.5 18.5q-25 0 -44 -18.5t-19 -47.5t19 -47t44 -18q24 0 42.5 17.5t18.5 47.5z" />
    <glyph glyph-name="guilsinglleft" unicode="&#x2039;" 
d="M192 245l137 245h82l-139 -245l139 -245h-82z" />
    <glyph glyph-name="guilsinglright" unicode="&#x203a;" 
d="M428 245l-137 -245h-82l139 245l-139 245h82z" />
    <glyph glyph-name="fraction" unicode="&#x2044;" 
d="M36 0l443 701h85l-442 -701h-86z" />
    <glyph glyph-name="Euro" unicode="&#x20ac;" 
d="M380 239h-181q16 -82 55.5 -128t103.5 -46q103 0 139 135l71 -27q-54 -184 -214 -184q-99 0 -158.5 68.5t-78.5 181.5h-77v69h69q-1 14 -1 43q0 25 1 37h-69v68h76q20 114 80.5 185t157.5 71q88 0 141.5 -50.5t75.5 -135.5l-72 -26q-37 138 -141 138q-134 0 -161 -182
h183v-68h-190v-37q0 -29 1 -43h189v-69z" />
    <glyph glyph-name="trademark" unicode="&#x2122;" 
d="M5 701h229v-58h-85v-335h-61v335h-83v58zM393 439l-46 170v-301h-58v393h83l58 -216l59 216h81v-393h-57v301l-45 -170h-75z" />
    <glyph glyph-name="Omega" unicode="&#x2126;" 
d="M550 68v-68h-182v194q68 26 101.5 85.5t33.5 133.5q0 104 -53.5 166.5t-138.5 62.5t-139 -63t-54 -166q0 -76 32 -134.5t102 -84.5v-194h-182v68h111v89q-64 34 -100 103.5t-36 152.5q0 131 75 215t190 84q113 0 188.5 -84.5t75.5 -214.5q0 -82 -35.5 -151.5
t-98.5 -104.5v-89h110z" />
    <glyph glyph-name="arrownorthwest" unicode="&#x2196;" 
d="M509 418h-316l376 -376l-52 -53l-377 376v-316h-72v441h441v-72z" />
    <glyph glyph-name="arrownortheast" unicode="&#x2197;" 
d="M427 418h-316v72h441v-441h-72v316l-377 -376l-52 53z" />
    <glyph glyph-name="arrowsoutheast" unicode="&#x2198;" 
d="M111 72h316l-376 376l52 53l377 -376v316h72v-441h-441v72z" />
    <glyph glyph-name="arrowsouthwest" unicode="&#x2199;" 
d="M193 72h316v-72h-441v441h72v-316l377 376l52 -53z" />
    <glyph glyph-name="partialdiff" unicode="&#x2202;" 
d="M291 -11q-86 0 -154.5 64t-68.5 169q0 103 67.5 167.5t155.5 64.5q54 0 102.5 -25.5t75.5 -75.5q5 132 -46 210t-144 78q-89 0 -140 -74l-53 55q73 90 193 90q127 0 194.5 -95.5t67.5 -259.5q0 -167 -68 -267.5t-182 -100.5zM297 382q-60 0 -106.5 -44t-46.5 -116
q0 -78 42.5 -120t100.5 -42q66 0 108 48t42 121q0 65 -40 109t-100 44z" />
    <glyph glyph-name="Delta" unicode="&#x2206;" 
d="M268 701h84l203 -636v-65h-490v65zM310 610l-171 -539h342z" />
    <glyph glyph-name="product" unicode="&#x220f;" 
d="M474 -194v616h-328v-616h-71v684h470v-684h-71z" />
    <glyph glyph-name="summation" unicode="&#x2211;" 
d="M163 630l270 -376l-270 -377h367v-71h-461v65l271 383l-271 382v65h461v-71h-367z" />
    <glyph glyph-name="minus" unicode="&#x2212;" 
d="M90 226v68h440v-68h-440z" />
    <glyph glyph-name="radical" unicode="&#x221a;" 
d="M46 490h154l117 -404l197 615h74l-227 -701h-88l-125 422h-102v68z" />
    <glyph glyph-name="infinity" unicode="&#x221e;" 
d="M156 431q-67 0 -67 -186t67 -186q43 0 82 97l36 89l-36 90q-39 96 -82 96zM310 152l-13 -31q-28 -67 -60 -99.5t-81 -32.5q-140 0 -140 256q0 116 33 186.5t107 70.5q49 0 79.5 -32t60.5 -100l14 -32l13 32q27 67 59.5 99.5t81.5 32.5q74 0 107 -70.5t33 -186.5
q0 -256 -140 -256q-48 0 -78 31.5t-62 100.5zM464 60q67 0 67 185q0 187 -67 187q-43 0 -82 -98l-36 -89l36 -90q39 -95 82 -95z" />
    <glyph glyph-name="integral" unicode="&#x222b;" 
d="M273 -20v546q0 91 43.5 132.5t128.5 41.5h89v-67h-88q-55 0 -77 -26t-22 -81v-546q0 -91 -43.5 -132.5t-128.5 -41.5h-89v68h88q55 0 77 25.5t22 80.5z" />
    <glyph glyph-name="approxequal" unicode="&#x2248;" 
d="M472 231h63q0 -62 -27 -97.5t-77 -35.5q-29 0 -78 18l-97 37q-42 16 -57 16q-52 0 -52 -65h-62q0 62 29 97.5t80 35.5q29 0 73 -17l97 -38q43 -16 57 -16q51 0 51 65zM472 424h63q0 -62 -27 -97.5t-77 -35.5q-29 0 -78 18l-97 37q-42 16 -57 16q-52 0 -52 -65h-62
q0 62 29 97.5t80 35.5q29 0 73 -17l97 -38q43 -16 57 -16q51 0 51 65z" />
    <glyph glyph-name="notequal" unicode="&#x2260;" 
d="M420 490h80l-301 -490h-80zM90 309v68h440v-68h-440zM90 127v68h440v-68h-440z" />
    <glyph glyph-name="lessequal" unicode="&#x2264;" 
d="M85 255v71l441 176v-78l-353 -133l353 -134v-77zM86 -68v68h440v-68h-440z" />
    <glyph glyph-name="greaterequal" unicode="&#x2265;" 
d="M535 326v-71l-441 -175v77l353 134l-353 133v78zM534 0v-68h-440v68h440z" />
    <glyph glyph-name="lozenge" unicode="&#x25ca;" 
d="M278 701h64l224 -454l-224 -452h-64l-225 452zM131 247l179 -362l179 362l-179 364z" />
    <glyph glyph-name="apple" unicode="&#xf8ff;" 
d="M53 246q0 107 75 182t181 75q107 0 182 -75.5t75 -181.5t-75 -181t-182 -75t-181.5 75t-74.5 181zM526 246q0 90 -63 153.5t-153 63.5t-153.5 -63.5t-63.5 -153.5t63.5 -153t153.5 -63t153 63t63 153zM486 246q0 74 -51.5 125.5t-124.5 51.5q-74 0 -125.5 -51.5
t-51.5 -125.5q0 -73 51.5 -124.5t125.5 -51.5t125 51t51 125zM173 246q0 57 40 97t96 40q57 0 97 -40t40 -97t-40 -96.5t-97 -39.5q-56 0 -96 39.5t-40 96.5zM213 246q0 40 28 68.5t68 28.5q41 0 69 -28.5t28 -68.5t-28 -68t-69 -28q-40 0 -68 28t-28 68zM367 246
q0 23 -16.5 40.5t-39.5 17.5t-40.5 -17.5t-17.5 -40.5t17.5 -39.5t40.5 -16.5t39.5 16.5t16.5 39.5z" />
    <glyph glyph-name="fi" unicode="&#xfb01;" 
d="M11 422v67h85v14q0 93 56.5 150t147.5 57q94 0 147.5 -50.5t53.5 -107.5h-74q-3 31 -36.5 60.5t-89.5 29.5q-61 0 -96 -37t-35 -102v-13h331v-422h112v-68h-295v68h109v354h-257v-422h-74v422h-85z" />
    <glyph glyph-name="fl" unicode="&#xfb02;" 
d="M432 68v444q0 54 -35 92t-94 38q-64 0 -96 -36.5t-32 -102.5v-13h148v-68h-148v-422h-74v422h-85v67h85v14q0 94 53.5 150.5t147.5 56.5q92 0 148 -56.5t56 -141.5v-444h112v-68h-295v68h109z" />
    <glyph glyph-name="acutecap" 
d="M323 872h144l-129 -112h-86z" />
    <glyph glyph-name="caroncap" 
d="M370 760h-121l-87 112h79l69 -67l68 67h79z" />
    <glyph glyph-name="ringcap" 
d="M221 812q0 39 25.5 64t61.5 25q38 0 64 -25t26 -64q0 -36 -26 -61.5t-64 -25.5q-35 0 -61 26t-26 61zM280 812q0 -13 8.5 -21.5t21.5 -8.5t21.5 8.5t8.5 21.5t-8.5 21.5t-21.5 8.5t-21.5 -8.5t-8.5 -21.5z" />
    <glyph glyph-name="gravecap" 
d="M177 872h144l71 -112h-86z" />
    <glyph glyph-name="circumflexcap" 
d="M249 872h121l87 -112h-79l-69 67l-68 -67h-79z" />
    <glyph glyph-name="arrowwest" 
d="M377 536l-212 -211h425v-71h-423l210 -205l-50 -57l-297 298l297 297z" />
    <glyph glyph-name="arrownorth" 
d="M540 382l-192 192v-574h-76v574l-192 -192l-50 50l280 280l280 -280z" />
    <glyph glyph-name="arroweast" 
d="M455 325l-212 211l50 51l297 -297l-297 -298l-50 57l210 205h-423v71h425z" />
    <glyph glyph-name="arrowsouth" 
d="M80 319l192 -192v574h76v-574l192 192l50 -50l-280 -280l-280 280z" />
    <glyph glyph-name="_0000" horiz-adv-x="0" 
 />
  </font>
</defs>
</svg>
