<?xml version="1.0" standalone="no"?>
<!DOCTYPE svg PUBLIC "-//W3C//DTD SVG 1.1//EN" "http://www.w3.org/Graphics/SVG/1.1/DTD/svg11.dtd" >
<svg>
<metadata>
Created by FontForge 20120731 at Fri May 20 22:59:10 2016
 By ,,,
Copyright (c) 2012 by 205 Corp. All rights reserved.
</metadata>
<defs>
<font id="Maax-Medium" horiz-adv-x="690" >
  <font-face 
    font-family="Maax"
    font-weight="500"
    font-stretch="normal"
    units-per-em="1000"
    panose-1="2 0 6 3 0 0 0 2 0 3"
    ascent="750"
    descent="-250"
    x-height="490"
    cap-height="701"
    bbox="-23 -205 1847 884"
    underline-thickness="50"
    underline-position="-80"
    unicode-range="U+0020-FB02"
  />
<missing-glyph horiz-adv-x="1927" 
d="M228 108h317v-108h-454v23q0 109 53.5 175t164.5 105l35 13q50 17 67 34t17 41q0 26 -23.5 42.5t-68.5 16.5q-107 0 -163 -103l-76 76q37 63 97.5 99.5t135.5 36.5q94 0 156.5 -45t62.5 -124q0 -112 -151 -169l-56 -20q-31 -11 -45 -17.5t-31.5 -17.5t-25.5 -24.5
t-12 -33.5zM952 -11q-118 0 -204.5 80.5t-86.5 204.5t86.5 204.5t204.5 80.5t204.5 -80.5t86.5 -204.5t-86.5 -204.5t-204.5 -80.5zM952 450q-73 0 -122 -49.5t-49 -126.5q0 -78 49 -127.5t122 -49.5t122 49.5t49 127.5q0 77 -49 126.5t-122 49.5zM1727 90q0 -59 -39 -94.5
t-101 -35.5q-95 0 -153 86l-83 -82q38 -51 97 -81.5t133 -30.5q119 0 192.5 65.5t73.5 166.5q0 112 -69.5 174t-165.5 62q-78 0 -130 -42l8 161h301v108h-410l-17 -414h108q15 37 48 58t74 21q57 0 95 -34t38 -88z" />
    <glyph glyph-name="arrowwest" unicode="&#x3c;&#x2d;" horiz-adv-x="804" 
d="M434 524l-181 -180h505v-109h-503l179 -173l-76 -85l-312 313l312 312z" />
    <glyph glyph-name="arrownorth" unicode="&#x7c;^" horiz-adv-x="716" 
d="M593 324l-178 178v-502h-114v500l-171 -176l-84 76l312 312l312 -312z" />
    <glyph glyph-name="arroweast" unicode="&#x2d;&#x3e;" horiz-adv-x="804" 
d="M551 344l-181 180l76 78l312 -312l-312 -313l-76 85l179 173h-503v109h505z" />
    <glyph glyph-name="arrowsouth" unicode="&#x7c;v" horiz-adv-x="716" 
d="M415 199l178 178l77 -76l-312 -312l-312 312l84 76l171 -176v500h114v-502z" />
    <glyph glyph-name="arrowwest2" unicode="&#x3c;&#x2d;&#x2d;" horiz-adv-x="1100" 
d="M255 235l179 -173l-76 -85l-312 313l312 312l76 -78l-180 -180h800v-109h-799z" />
    <glyph glyph-name="arrowwest3" unicode="&#x3c;&#x2d;&#x2d;&#x2d;" horiz-adv-x="1385" 
d="M255 235l179 -173l-76 -85l-312 313l312 312l76 -78l-180 -180h1085v-109h-1084z" />
    <glyph glyph-name="arroweast2" unicode="&#x2d;&#x2d;&#x3e;" horiz-adv-x="1100" 
d="M666 62l179 173h-799v109h800l-180 180l76 78l312 -312l-312 -313z" />
    <glyph glyph-name="arroweast3" unicode="&#x2d;&#x2d;&#x2d;&#x3e;" horiz-adv-x="1385" 
d="M951 62l179 173h-1084v109h1085l-180 180l76 78l312 -312l-312 -313z" />
    <glyph glyph-name=".notdef" horiz-adv-x="1927" 
d="M228 108h317v-108h-454v23q0 109 53.5 175t164.5 105l35 13q50 17 67 34t17 41q0 26 -23.5 42.5t-68.5 16.5q-107 0 -163 -103l-76 76q37 63 97.5 99.5t135.5 36.5q94 0 156.5 -45t62.5 -124q0 -112 -151 -169l-56 -20q-31 -11 -45 -17.5t-31.5 -17.5t-25.5 -24.5
t-12 -33.5zM952 -11q-118 0 -204.5 80.5t-86.5 204.5t86.5 204.5t204.5 80.5t204.5 -80.5t86.5 -204.5t-86.5 -204.5t-204.5 -80.5zM952 450q-73 0 -122 -49.5t-49 -126.5q0 -78 49 -127.5t122 -49.5t122 49.5t49 127.5q0 77 -49 126.5t-122 49.5zM1727 90q0 -59 -39 -94.5
t-101 -35.5q-95 0 -153 86l-83 -82q38 -51 97 -81.5t133 -30.5q119 0 192.5 65.5t73.5 166.5q0 112 -69.5 174t-165.5 62q-78 0 -130 -42l8 161h301v108h-410l-17 -414h108q15 37 48 58t74 21q57 0 95 -34t38 -88z" />
    <glyph glyph-name=".null" horiz-adv-x="0" 
 />
    <glyph glyph-name="nonmarkingreturn" horiz-adv-x="333" 
 />
    <glyph glyph-name="space" unicode=" " horiz-adv-x="250" 
 />
    <glyph glyph-name="exclam" unicode="!" horiz-adv-x="326" 
d="M104 211v490h118v-490h-118zM92 60q0 30 21 51t51 21t51 -21t21 -51q0 -29 -21 -50t-51 -21t-51 21t-21 50z" />
    <glyph glyph-name="quotedbl" unicode="&#x22;" horiz-adv-x="454" 
d="M74 701h114v-268h-114v268zM266 701h114v-268h-114v268z" />
    <glyph glyph-name="numbersign" unicode="#" horiz-adv-x="878" 
d="M80 285h142l38 132h-128v104h156l53 180h113l-53 -180h171l52 180h114l-53 -180h113v-104h-141l-38 -132h127v-105h-157l-50 -180h-114l52 180h-171l-52 -180h-113l52 180h-113v105zM373 417l-38 -132h171l38 132h-171z" />
    <glyph glyph-name="dollar" unicode="$" horiz-adv-x="673" 
d="M290 -114v107q-138 17 -227 130l81 82q61 -82 146 -101v200q-100 18 -155 70.5t-55 137.5q0 82 59.5 135t150.5 62v106h96v-108q114 -18 200 -107l-83 -88q-54 64 -117 82v-186q113 -18 168.5 -74t55.5 -142q0 -82 -59.5 -136.5t-164.5 -64.5v-105h-96zM490 190
q0 75 -104 98v-190q50 6 77 31t27 61zM200 515q0 -70 90 -90v176q-44 -7 -67 -31.5t-23 -54.5z" />
    <glyph glyph-name="percent" unicode="%" horiz-adv-x="735" 
d="M57 572q0 59 40.5 99.5t99.5 40.5t99 -40.5t40 -99.5q0 -58 -40.5 -98.5t-98.5 -40.5t-99 40.5t-41 98.5zM148 572q0 -22 14.5 -36t34.5 -14q18 0 32.5 14t14.5 36q0 23 -14.5 37.5t-32.5 14.5q-20 0 -34.5 -14.5t-14.5 -37.5zM399 128q0 58 40.5 99t99.5 41
q58 0 98.5 -40.5t40.5 -99.5q0 -58 -40 -98.5t-99 -40.5t-99.5 40.5t-40.5 98.5zM490 128q0 -22 14.5 -36t34.5 -14q18 0 32.5 14t14.5 36q0 23 -14.5 37t-32.5 14q-20 0 -34.5 -14t-14.5 -37zM115 34l424 690l82 -55l-425 -692z" />
    <glyph glyph-name="ampersand" unicode="&#x26;" horiz-adv-x="687" 
d="M519 0l-44 54q-82 -65 -190 -65q-115 0 -174.5 60t-59.5 139q0 130 143 209l10 5q-36 50 -49 85t-13 72q0 65 49.5 108.5t128.5 43.5q78 0 128.5 -47.5t50.5 -114.5q0 -55 -34.5 -99t-82.5 -72l-10 -6l109 -139q31 54 47 120h121q-26 -122 -97 -216l107 -137h-140z
M282 92q73 0 125 48l-137 177l-4 -2q-98 -48 -98 -123q0 -43 33.5 -71.5t80.5 -28.5zM319 608q-22 0 -40 -16t-18 -43q0 -33 38 -84l7 -9l6 3q71 40 71 88q0 28 -18 44.5t-46 16.5z" />
    <glyph glyph-name="quotesingle" unicode="'" horiz-adv-x="262" 
d="M74 701h114v-268h-114v268z" />
    <glyph glyph-name="parenleft" unicode="(" horiz-adv-x="399" 
d="M199 260q0 -221 166 -389l-81 -76q-89 86 -146.5 205t-57.5 260q0 140 57.5 259t146.5 206l80 -75q-165 -157 -165 -390z" />
    <glyph glyph-name="parenright" unicode=")" horiz-adv-x="399" 
d="M200 260q0 221 -166 389l81 76q89 -86 146.5 -205t57.5 -260q0 -140 -57.5 -259t-146.5 -206l-80 75q165 157 165 390z" />
    <glyph glyph-name="asterisk" unicode="*" horiz-adv-x="477" 
d="M303 578l78 -92l-75 -56l-68 102l-67 -102l-75 56l77 92l-116 27l23 86l117 -37l-4 121h91l-5 -121l118 37l23 -86z" />
    <glyph glyph-name="plus" unicode="+" horiz-adv-x="650" 
d="M80 194v105h191v191h105v-191h194v-105h-194v-194h-105v194h-191z" />
    <glyph glyph-name="comma" unicode="," horiz-adv-x="299" 
d="M131 -138h-110l102 252h125z" />
    <glyph glyph-name="hyphen" unicode="-" horiz-adv-x="524" 
d="M80 210v105h365v-105h-365z" />
    <glyph glyph-name="period" unicode="." horiz-adv-x="326" 
d="M91 60q0 30 21 51t51 21t51 -21t21 -51q0 -29 -21 -50t-51 -21t-51 21t-21 50z" />
    <glyph glyph-name="slash" unicode="/" horiz-adv-x="538" 
d="M73 0l295 701h122l-294 -701h-123z" />
    <glyph glyph-name="zero" unicode="0" horiz-adv-x="648" 
d="M471 351q0 118 -38 185.5t-109 67.5t-109 -67.5t-38 -185.5t38 -186t109 -68t109 68t38 186zM57 351q0 160 69.5 260.5t197.5 100.5t197.5 -100.5t69.5 -260.5t-69.5 -261t-197.5 -101t-197.5 101t-69.5 261z" />
    <glyph glyph-name="one" unicode="1" horiz-adv-x="561" 
d="M68 108h174v443q-64 -51 -174 -51v105q60 3 111 26t74 70h108v-593h166v-108h-459v108z" />
    <glyph glyph-name="two" unicode="2" horiz-adv-x="606" 
d="M187 108h348v-108h-478v23q0 123 53 199t185 142l18 9q56 27 80 56t24 75q0 45 -32 72.5t-86 27.5q-56 0 -98.5 -32.5t-65.5 -89.5l-78 78q30 68 94 110t145 42q101 0 171.5 -56t70.5 -158q0 -136 -156 -216l-61 -31q-27 -14 -45.5 -26t-39.5 -29.5t-33 -39.5t-16 -48z
" />
    <glyph glyph-name="three" unicode="3" horiz-adv-x="610" 
d="M441 366q41 -20 70.5 -63t29.5 -102q0 -100 -71 -156t-180 -56q-74 0 -138.5 31t-105.5 81l81 81q69 -85 168 -85q55 0 91 29t36 73q0 50 -39.5 76.5t-110.5 26.5h-52v110h41q71 0 107.5 27.5t36.5 74.5q0 45 -33.5 67.5t-80.5 22.5q-90 0 -151 -76l-77 77
q95 107 227 107q97 0 165.5 -49t68.5 -145q0 -97 -83 -152z" />
    <glyph glyph-name="four" unicode="4" horiz-adv-x="622" 
d="M577 154h-97v-154h-120v154h-320v97l329 450h111v-439h97v-108zM170 262h190v266z" />
    <glyph glyph-name="five" unicode="5" horiz-adv-x="587" 
d="M433 227q0 55 -37.5 91.5t-92.5 36.5q-88 0 -125 -79h-108l17 425h410v-108h-300l-9 -172q52 42 128 42q97 0 167 -60t70 -176q0 -105 -73 -171.5t-193 -66.5q-74 0 -133 30t-97 81l83 82q65 -85 156 -85q60 0 98.5 37t38.5 93z" />
    <glyph glyph-name="six" unicode="6" horiz-adv-x="634" 
d="M333 -11q-129 0 -199.5 99t-70.5 269q0 159 79 257t206 98t204 -90l-77 -79q-54 61 -130 61q-66 0 -113.5 -56.5t-51.5 -163.5q61 70 164 70q96 0 164.5 -64t68.5 -168q0 -107 -71 -170t-173 -63zM333 345q-51 0 -87 -33.5t-36 -88.5q0 -53 35.5 -89.5t91.5 -36.5
q53 0 86.5 34t33.5 91q0 55 -34.5 89t-89.5 34z" />
    <glyph glyph-name="seven" unicode="7" horiz-adv-x="569" 
d="M46 470v231h489v-100q-213 -222 -242 -561l-3 -40h-121l3 39q30 331 213 554h-224v-123h-115z" />
    <glyph glyph-name="eight" unicode="8" horiz-adv-x="611" 
d="M306 -11q-111 0 -180 56t-69 150q0 113 99 166q-33 19 -57.5 57t-24.5 94q0 90 65 145t167 55t166.5 -55t64.5 -145q0 -56 -24.5 -94t-57.5 -57q99 -53 99 -166q0 -94 -69 -150t-179 -56zM306 304q-56 0 -92.5 -29t-36.5 -76q0 -49 37 -75.5t92 -26.5t91.5 26.5
t36.5 75.5q0 50 -36.5 77.5t-91.5 27.5zM306 604q-45 0 -78.5 -24.5t-33.5 -72.5q0 -43 30 -68.5t82 -25.5q51 0 81 25.5t30 68.5q0 48 -33.5 72.5t-77.5 24.5z" />
    <glyph glyph-name="nine" unicode="9" horiz-adv-x="621" 
d="M298 712q128 0 197 -98.5t69 -269.5q0 -161 -76.5 -258t-208.5 -97q-127 0 -204 90l77 79q54 -61 130 -61q67 0 115.5 56.5t49.5 163.5q-61 -70 -161 -70q-96 0 -162.5 63.5t-66.5 168.5q0 108 70 170.5t171 62.5zM298 356q51 0 85 33t34 89q0 53 -34 89.5t-90 36.5
q-53 0 -84.5 -34t-31.5 -91q0 -55 32.5 -89t88.5 -34z" />
    <glyph glyph-name="colon" unicode=":" horiz-adv-x="291" 
d="M67 60q0 30 21 51t51 21t51 -21t21 -51q0 -29 -21 -50t-51 -21t-51 21t-21 50zM67 429q0 30 21 51t51 21t51 -21t21 -51q0 -29 -21 -50t-51 -21t-51 21t-21 50z" />
    <glyph glyph-name="semicolon" unicode=";" horiz-adv-x="299" 
d="M121 -138h-110l102 252h125zM101 429q0 30 21 51t51 21t51 -21t21 -51q0 -29 -21 -50t-51 -21t-51 21t-21 50z" />
    <glyph glyph-name="less" unicode="&#x3c;" horiz-adv-x="605" 
d="M46 182v126l491 194v-121l-366 -136l366 -136v-120z" />
    <glyph glyph-name="equal" unicode="=" horiz-adv-x="650" 
d="M80 308v105h490v-105h-490zM80 112v105h490v-105h-490z" />
    <glyph glyph-name="greater" unicode="&#x3e;" horiz-adv-x="605" 
d="M559 308v-126l-491 -193v120l366 136l-366 136v121z" />
    <glyph glyph-name="question" unicode="?" horiz-adv-x="535" 
d="M168 60q0 30 20.5 51t50.5 21t51 -21t21 -51q0 -29 -21 -50t-51 -21t-50.5 21t-20.5 50zM299 211h-118v183h33q62 0 106 29t44 82q0 45 -32.5 71.5t-78.5 26.5q-99 0 -154 -98l-76 83q39 57 98 90.5t131 33.5q100 0 165.5 -58.5t65.5 -150.5q0 -78 -50.5 -133t-133.5 -72
v-87z" />
    <glyph glyph-name="at" unicode="@" horiz-adv-x="1082" 
d="M674 48q-66 -59 -154 -59q-106 0 -173 72.5t-67 183.5t67 184t173 73q85 0 139 -56v44h112v-333q0 -66 44 -66q35 0 62.5 52t28.5 121q5 150 -90.5 251t-266.5 101q-159 0 -267 -102t-108 -267q0 -169 107.5 -262t285.5 -93q99 0 192 35v-98q-89 -34 -198 -34
q-219 0 -356 122t-137 330q0 209 136 337t345 128q213 0 338.5 -121.5t125.5 -314.5q0 -124 -61.5 -205.5t-159.5 -81.5q-80 0 -118 59zM397 245q0 -66 33.5 -112t96.5 -46q62 0 97 46t35 112q0 65 -35 109t-97 44q-63 0 -96.5 -43.5t-33.5 -109.5z" />
    <glyph glyph-name="A" unicode="A" 
d="M405 701l273 -701h-125l-59 149h-299l-58 -149h-126l274 701h120zM344 539l-106 -280h213z" />
    <glyph glyph-name="B" unicode="B" horiz-adv-x="693" 
d="M80 0v701h292q111 0 176 -46.5t65 -139.5t-79 -150q96 -59 96 -166q0 -92 -65.5 -145.5t-175.5 -53.5h-309zM199 108h156q155 0 155 102q0 93 -151 93h-160v-195zM342 593h-143v-181h149q144 0 144 92q0 51 -39.5 70t-110.5 19z" />
    <glyph glyph-name="C" unicode="C" horiz-adv-x="700" 
d="M596 203l75 -82q-105 -132 -279 -132q-159 0 -262.5 100.5t-103.5 259.5q0 162 102.5 262.5t259.5 100.5q176 0 273 -132l-77 -80q-72 103 -194 103q-104 0 -173 -72t-69 -182q0 -108 70 -179.5t176 -71.5q123 0 202 105z" />
    <glyph glyph-name="D" unicode="D" horiz-adv-x="724" 
d="M80 0v701h219q75 0 139.5 -17.5t120 -55.5t87.5 -108t32 -165q0 -96 -32 -167t-87.5 -111t-120 -58.5t-139.5 -18.5h-219zM276 593h-77v-485h78q60 0 107 11t87.5 37.5t62.5 76.5t22 122q0 69 -22 117.5t-62.5 73.5t-87.5 36t-108 11z" />
    <glyph glyph-name="E" unicode="E" horiz-adv-x="642" 
d="M80 0v701h493v-108h-374v-181h357v-109h-357v-195h374v-108h-493z" />
    <glyph glyph-name="F" unicode="F" horiz-adv-x="579" 
d="M199 0h-119v701h459v-108h-340v-181h317v-109h-317v-303z" />
    <glyph glyph-name="G" unicode="G" horiz-adv-x="754" 
d="M412 259v108h279v-246q-49 -60 -125.5 -96t-165.5 -36q-148 0 -251 101.5t-103 258.5q0 161 102.5 262t258.5 101q175 0 274 -132l-78 -80q-72 103 -194 103q-104 0 -172.5 -72t-68.5 -182q0 -108 69.5 -179.5t176.5 -71.5q93 0 159 58v103h-161z" />
    <glyph glyph-name="H" unicode="H" horiz-adv-x="727" 
d="M528 0v303h-329v-303h-119v701h119v-289h329v289h120v-701h-120z" />
    <glyph glyph-name="I" unicode="I" horiz-adv-x="279" 
d="M80 0v701h119v-701h-119z" />
    <glyph glyph-name="J" unicode="J" horiz-adv-x="518" 
d="M23 93l85 85q44 -81 117 -81q48 0 76 33t28 99v472h120v-460q0 -120 -59 -186t-170 -66q-125 0 -197 104z" />
    <glyph glyph-name="K" unicode="K" horiz-adv-x="666" 
d="M80 0v701h119v-326l262 326h148l-237 -296l260 -405h-143l-199 304l-91 -111v-193h-119z" />
    <glyph glyph-name="L" unicode="L" horiz-adv-x="571" 
d="M80 0v701h119v-593h332v-108h-451z" />
    <glyph glyph-name="M" unicode="M" horiz-adv-x="832" 
d="M361 155l-162 307v-462h-119v701h125l211 -414l211 414h125v-701h-119v462l-162 -307h-110z" />
    <glyph glyph-name="N" unicode="N" horiz-adv-x="747" 
d="M547 0l-348 494v-494h-119v701h119l348 -496v496h120v-701h-120z" />
    <glyph glyph-name="O" unicode="O" horiz-adv-x="803" 
d="M46 351q0 153 101.5 257t252.5 104t254 -104t103 -257q0 -154 -103 -258t-254 -104t-252.5 104t-101.5 258zM168 351q0 -109 66.5 -181t169.5 -72q101 0 167 72.5t66 180.5q0 107 -66 179t-167 72q-103 0 -169.5 -72t-66.5 -179z" />
    <glyph glyph-name="P" unicode="P" horiz-adv-x="643" 
d="M347 239h-148v-239h-119v701h267q124 0 195.5 -60.5t71.5 -168.5q0 -109 -72 -171t-195 -62zM332 593h-133v-245h133q163 0 163 123q0 122 -163 122z" />
    <glyph glyph-name="Q" unicode="Q" horiz-adv-x="825" 
d="M46 351q0 153 101.5 257t252.5 104t254 -104t103 -257q0 -125 -71 -220l77 -76l-78 -78l-77 77q-90 -65 -208 -65q-151 0 -252.5 104t-101.5 258zM438 225l77 77l88 -88q34 60 34 137q0 107 -66 179t-167 72q-103 0 -169.5 -72t-66.5 -179q0 -109 66.5 -181t169.5 -72
q69 0 124 36z" />
    <glyph glyph-name="R" unicode="R" horiz-adv-x="666" 
d="M491 0l-147 239h-145v-239h-119v701h267q124 0 195.5 -60.5t71.5 -168.5q0 -77 -37.5 -132t-105.5 -81l161 -259h-141zM332 593h-133v-245h133q163 0 163 123q0 122 -163 122z" />
    <glyph glyph-name="S" unicode="S" horiz-adv-x="661" 
d="M369 290l-85 14q-100 18 -155 70.5t-55 137.5q0 90 72 145t175 55q153 0 259 -112l-83 -88q-76 92 -181 92q-60 0 -91 -26.5t-31 -62.5q0 -77 116 -95l70 -12q113 -18 168.5 -74t55.5 -142q0 -90 -72 -146.5t-196 -56.5q-173 0 -279 134l81 82q38 -50 87.5 -79t125.5 -29
q64 0 98.5 26t34.5 67q0 80 -115 100z" />
    <glyph glyph-name="T" unicode="T" horiz-adv-x="609" 
d="M34 701h541v-108h-214v-593h-119v593h-208v108z" />
    <glyph glyph-name="U" unicode="U" horiz-adv-x="702" 
d="M514 311v390h120v-390q0 -157 -76.5 -239.5t-206.5 -82.5t-206.5 82.5t-76.5 239.5v390h120v-391q0 -213 163 -213t163 214z" />
    <glyph glyph-name="V" unicode="V" horiz-adv-x="667" 
d="M334 144l181 557h123l-239 -701h-131l-241 701h123z" />
    <glyph glyph-name="W" unicode="W" horiz-adv-x="935" 
d="M665 189l119 512h128l-182 -701h-132l-131 507l-131 -507h-131l-183 701h127l122 -512l128 512h137z" />
    <glyph glyph-name="X" unicode="X" horiz-adv-x="674" 
d="M180 701l156 -244l158 244h138l-226 -342l239 -359h-138l-171 258l-170 -258h-138l240 359l-226 342h138z" />
    <glyph glyph-name="Y" unicode="Y" horiz-adv-x="635" 
d="M150 701l168 -326l166 326h128l-235 -456v-245h-119v245l-235 456h127z" />
    <glyph glyph-name="Z" unicode="Z" horiz-adv-x="644" 
d="M65 701h516v-103l-364 -490h362v-108h-516v103l364 490h-362v108z" />
    <glyph glyph-name="bracketleft" unicode="[" horiz-adv-x="384" 
d="M91 -194v895h259v-107h-140v-681h140v-107h-259z" />
    <glyph glyph-name="backslash" unicode="\" horiz-adv-x="532" 
d="M139 701l345 -820h-123l-344 820h122z" />
    <glyph glyph-name="bracketright" unicode="]" horiz-adv-x="384" 
d="M293 701v-895h-259v107h140v681h-140v107h259z" />
    <glyph glyph-name="asciicircum" unicode="^" horiz-adv-x="655" 
d="M382 701l216 -359h-123l-148 250l-148 -250h-122l215 359h110z" />
    <glyph glyph-name="underscore" unicode="_" horiz-adv-x="604" 
d="M57 -194v105h490v-105h-490z" />
    <glyph glyph-name="grave" unicode="`" horiz-adv-x="556" 
d="M144 701h140l91 -131h-112z" />
    <glyph glyph-name="a" unicode="a" horiz-adv-x="514" 
d="M211 -11q-70 0 -117.5 40.5t-47.5 108.5q0 80 57 122t147 42q48 0 99 -17v33q0 37 -27.5 59t-68.5 22q-77 0 -116 -71l-77 72q28 50 81 76t113 26q95 0 152 -47t57 -138v-317h-112v38q-56 -49 -140 -49zM160 146q0 -25 19 -41t55 -16q71 0 115 42v56q-53 20 -102 20
q-40 0 -63.5 -16t-23.5 -45z" />
    <glyph glyph-name="b" unicode="b" horiz-adv-x="609" 
d="M559 245q0 -111 -67 -183.5t-172 -72.5q-86 0 -139 55v-44h-112v701h114v-247q56 48 137 48q105 0 172 -73t67 -184zM181 245q0 -66 34 -111t97 -45q62 0 96.5 45t34.5 111t-34.5 111t-96.5 45q-63 0 -97 -45t-34 -111z" />
    <glyph glyph-name="c" unicode="c" horiz-adv-x="539" 
d="M306 398q-58 0 -95.5 -43t-37.5 -110t38 -110t96 -43q43 0 70.5 18.5t55.5 57.5l78 -73q-73 -106 -208 -106q-102 0 -174 73.5t-72 182.5t72 183t174 74q123 0 199 -98l-79 -76q-53 70 -117 70z" />
    <glyph glyph-name="d" unicode="d" horiz-adv-x="604" 
d="M45 245q0 111 67 184t172 73q81 0 137 -48v247h114v-701h-112v44q-53 -55 -139 -55q-105 0 -172 72.5t-67 183.5zM423 245q0 66 -34 111t-97 45q-62 0 -96.5 -45t-34.5 -111t34.5 -111t96.5 -45q63 0 97 45t34 111z" />
    <glyph glyph-name="e" unicode="e" horiz-adv-x="544" 
d="M497 211h-335q4 -55 39 -87t90 -32q79 0 126 69l77 -72q-78 -100 -203 -100q-110 0 -178 70.5t-68 182.5q0 110 62.5 185t166.5 75q57 0 101.5 -21.5t70.5 -58t39 -80t13 -91.5zM275 398q-45 0 -72 -28t-35 -68h209q-1 38 -25.5 67t-76.5 29z" />
    <glyph glyph-name="f" unicode="f" horiz-adv-x="348" 
d="M292 701l44 -1v-105q-15 1 -26 1q-53 0 -78 -23.5t-25 -76.5v-6h118v-102h-118v-388h-112v388h-72v102h72v25q0 186 197 186z" />
    <glyph glyph-name="g" unicode="g" horiz-adv-x="597" 
d="M67 -96l82 78q47 -85 136 -85q59 0 94.5 35t35.5 102v25q-52 -48 -131 -48q-103 0 -168.5 69.5t-65.5 175.5q0 107 66 176.5t168 69.5q81 0 133 -52v40h112v-450q0 -111 -66 -178t-176 -67q-83 0 -137 34.5t-83 74.5zM166 256q0 -62 34 -101.5t91 -39.5t91.5 39.5
t34.5 101.5q0 63 -34.5 102.5t-91.5 39.5t-91 -39.5t-34 -102.5z" />
    <glyph glyph-name="h" unicode="h" horiz-adv-x="560" 
d="M184 271v-271h-114v701h114v-245q50 46 122 46q88 0 142.5 -57.5t54.5 -159.5v-285h-114v285q0 52 -25.5 83t-71.5 31q-52 0 -80 -34.5t-28 -93.5z" />
    <glyph glyph-name="i" unicode="i" horiz-adv-x="254" 
d="M69 0v490h114v-490h-114zM55 639q0 30 21 50.5t51 20.5t51 -20.5t21 -50.5t-21 -51t-51 -21t-51 21t-21 51z" />
    <glyph glyph-name="j" unicode="j" horiz-adv-x="310" 
d="M117 -2v492h114v-515q0 -92 -45 -133t-142 -41l-44 1v108q15 -1 26 -1q53 0 72 18t19 71zM104 639q0 30 21 50.5t51 20.5q29 0 50 -20.5t21 -50.5t-21 -51t-50 -21q-30 0 -51 21t-21 51z" />
    <glyph glyph-name="k" unicode="k" horiz-adv-x="539" 
d="M70 0v701h114v-401l170 190h142l-191 -212l200 -278h-130l-146 199l-45 -51v-148h-114z" />
    <glyph glyph-name="l" unicode="l" horiz-adv-x="254" 
d="M70 0v701h114v-701h-114z" />
    <glyph glyph-name="m" unicode="m" horiz-adv-x="851" 
d="M375 0v293q0 49 -23.5 77.5t-66.5 28.5q-49 0 -75 -32.5t-26 -87.5v-279h-114v490h112v-43q47 55 127 55q91 0 137 -64q57 64 153 64q97 0 146 -55.5t49 -161.5v-285h-114v293q0 49 -23.5 77.5t-66.5 28.5q-49 0 -75.5 -32.5t-26.5 -87.5v-279h-113z" />
    <glyph glyph-name="n" unicode="n" horiz-adv-x="555" 
d="M179 271v-271h-114v490h112v-40q46 52 127 52q91 0 142.5 -57t51.5 -160v-285h-114v285q0 52 -25.5 83t-71.5 31q-52 0 -80 -34.5t-28 -93.5z" />
    <glyph glyph-name="o" unicode="o" horiz-adv-x="596" 
d="M45 245q0 110 73 183.5t180 73.5q106 0 179.5 -73.5t73.5 -183.5q0 -109 -73.5 -182.5t-179.5 -73.5q-107 0 -180 73t-73 183zM161 245q0 -67 38.5 -110t98.5 -43q59 0 97.5 43t38.5 110t-38.5 110t-97.5 43q-60 0 -98.5 -43t-38.5 -110z" />
    <glyph glyph-name="p" unicode="p" horiz-adv-x="609" 
d="M559 245q0 -111 -67 -183.5t-172 -72.5q-80 0 -137 47v-230h-114v684h112v-44q53 56 139 56q105 0 172 -73t67 -184zM181 244q0 -66 34 -110.5t97 -44.5q62 0 96.5 45t34.5 110t-34.5 110t-96.5 45q-63 0 -97 -44.5t-34 -110.5z" />
    <glyph glyph-name="q" unicode="q" horiz-adv-x="609" 
d="M50 245q0 111 67 184t172 73q87 0 139 -56v44h112v-684h-114v230q-57 -47 -137 -47q-105 0 -172 72.5t-67 183.5zM428 244q0 66 -34 110.5t-97 44.5q-62 0 -96.5 -45t-34.5 -110t34.5 -110t96.5 -45q63 0 97 44.5t34 110.5z" />
    <glyph glyph-name="r" unicode="r" horiz-adv-x="380" 
d="M363 496v-108q-8 1 -18 1q-84 0 -117.5 -47t-33.5 -150v-192h-114v490h112v-53q50 60 149 60q10 0 22 -1z" />
    <glyph glyph-name="s" unicode="s" horiz-adv-x="473" 
d="M268 185l-65 16q-149 34 -149 155q0 67 50 106.5t129 39.5q106 0 185 -82l-73 -78q-45 62 -115 62q-31 0 -49 -13.5t-18 -32.5q0 -34 48 -46l77 -18q150 -34 150 -153q0 -67 -50.5 -109.5t-143.5 -42.5q-128 0 -203 95l72 74q54 -71 140 -71q40 0 57.5 14.5t17.5 35.5
q0 16 -13 27.5t-47 20.5z" />
    <glyph glyph-name="t" unicode="t" horiz-adv-x="348" 
d="M252 -1q-95 0 -132 39.5t-37 134.5v215h-72v102h72v137h113v-137h117v-102h-117v-198q0 -53 16 -71t64 -18l37 2v-102q-22 -2 -61 -2z" />
    <glyph glyph-name="u" unicode="u" horiz-adv-x="549" 
d="M171 490v-293q0 -49 24 -77.5t68 -28.5q48 0 75 34t27 89v276h114v-490h-112v40q-47 -51 -127 -51q-83 0 -133 57t-50 159v285h114z" />
    <glyph glyph-name="v" unicode="v" horiz-adv-x="472" 
d="M472 490l-174 -490h-124l-174 490h123l113 -343l113 343h123z" />
    <glyph glyph-name="w" unicode="w" horiz-adv-x="782" 
d="M235 152l89 338h146l89 -338l83 338h123l-135 -490h-138l-95 348l-96 -348h-138l-135 490h124z" />
    <glyph glyph-name="x" unicode="x" horiz-adv-x="502" 
d="M165 490l91 -146l92 146h131l-159 -238l170 -252h-131l-103 160l-102 -160h-131l170 252l-159 238h131z" />
    <glyph glyph-name="y" unicode="y" horiz-adv-x="546" 
d="M255 -194h-120l76 188l-194 496h130l128 -354l130 354h124z" />
    <glyph glyph-name="z" unicode="z" horiz-adv-x="504" 
d="M68 490h373v-97l-239 -290h251v-103h-390v97l237 291h-232v102z" />
    <glyph glyph-name="braceleft" unicode="{" horiz-adv-x="417" 
d="M264 510v-512q0 -49 19.5 -70t63.5 -21h36v-106h-84q-78 0 -114.5 45t-36.5 114v239h-114v109h114v239q0 70 36.5 115t114.5 45h84v-106h-36q-44 0 -63.5 -21t-19.5 -70z" />
    <glyph glyph-name="bar" unicode="|" horiz-adv-x="435" 
d="M160 -194v895h116v-895h-116z" />
    <glyph glyph-name="braceright" unicode="}" horiz-adv-x="417" 
d="M153 -2v512q0 49 -19.5 70t-63.5 21h-36v106h84q78 0 114.5 -45t36.5 -115v-239h114v-109h-114v-239q0 -69 -36.5 -114t-114.5 -45h-84v106h36q44 0 63.5 21t19.5 70z" />
    <glyph glyph-name="asciitilde" unicode="~" horiz-adv-x="495" 
d="M353 336h86q4 -71 -23 -109.5t-75 -38.5q-23 0 -55 8l-68 22q-30 8 -39 8q-31 0 -31 -38h-85q-4 71 23 109.5t75 38.5q32 0 54 -8l69 -21q24 -8 39 -8q30 0 30 37z" />
    <glyph glyph-name="exclamdown" unicode="&#xa1;" horiz-adv-x="326" 
d="M222 279v-473h-118v473h118zM235 430q0 -30 -21 -51t-51 -21t-51 21t-21 51t21 51t51 21t51 -21t21 -51z" />
    <glyph glyph-name="cent" unicode="&#xa2;" horiz-adv-x="551" 
d="M252 -114v110q-82 19 -135.5 87.5t-53.5 161.5q0 92 53.5 161t135.5 89v109h97v-105q94 -12 159 -95l-79 -76q-39 51 -80 64v-296q46 11 90 72l78 -73q-62 -90 -168 -103v-106h-97zM179 245q0 -47 19.5 -83.5t53.5 -54.5v276q-34 -18 -53.5 -54.5t-19.5 -83.5z" />
    <glyph glyph-name="sterling" unicode="&#xa3;" horiz-adv-x="654" 
d="M63 325v112h67q-3 27 -3 53q0 57 21 102t55 70t71 37.5t74 12.5q136 0 221 -115l-82 -83q-59 90 -132 90q-49 0 -79 -30.5t-30 -89.5q0 -24 3 -47h192v-112h-170l47 -211h152v123h105v-237h-512v114h134l-46 211h-88z" />
    <glyph glyph-name="yen" unicode="&#xa5;" horiz-adv-x="635" 
d="M84 283v99h127l-183 319h128l168 -292l157 292h125l-174 -319h130v-99h-179v-69h179v-99h-179v-115h-120v115h-179v99h179v69h-179z" />
    <glyph glyph-name="brokenbar" unicode="&#xa6;" horiz-adv-x="435" 
d="M160 336v365h116v-365h-116zM160 -194v365h116v-365h-116z" />
    <glyph glyph-name="section" unicode="&#xa7;" horiz-adv-x="627" 
d="M556 206q0 -76 -60 -132q36 -43 36 -98q0 -77 -55.5 -129t-153.5 -52q-149 0 -235 139l78 75q58 -109 154 -109q42 0 69 17.5t27 51.5q0 19 -6 32.5t-23 24t-30 16t-42 15.5l-82 28q-173 61 -173 208q0 89 76 145q-38 46 -38 107q0 73 61 120t148 47q67 0 119.5 -31.5
t84.5 -78.5l-78 -78q-28 41 -58 62.5t-73 21.5q-38 0 -63 -19t-25 -48q0 -57 82 -90l73 -28q97 -37 142 -84.5t45 -132.5zM279 189l135 -51q27 35 27 71q0 37 -22.5 59.5t-79.5 44.5l-132 53q-30 -28 -30 -70q0 -37 22.5 -61t79.5 -46z" />
    <glyph glyph-name="dieresis" unicode="&#xa8;" horiz-adv-x="556" 
d="M119 644q0 26 18.5 44.5t43.5 18.5t44 -18.5t19 -44.5t-19 -44.5t-44 -18.5t-43.5 18.5t-18.5 44.5zM310 644q0 26 19 44.5t44 18.5t43.5 -18.5t18.5 -44.5t-18.5 -44.5t-43.5 -18.5t-44 18.5t-19 44.5z" />
    <glyph glyph-name="copyright" unicode="&#xa9;" horiz-adv-x="826" 
d="M57 351q0 150 103 255.5t253 105.5q149 0 252.5 -106t103.5 -255q0 -152 -103 -257t-253 -105t-253 105t-103 257zM133 351q0 -121 80.5 -204t199.5 -83t199.5 83t80.5 204q0 119 -81 202.5t-199 83.5q-119 0 -199.5 -83.5t-80.5 -202.5zM515 280l62 -57
q-63 -73 -156 -73q-86 0 -142 57.5t-56 142.5t57.5 142t142.5 57q92 0 146 -66l-62 -61q-37 42 -84 42q-46 0 -75 -33t-29 -81q0 -49 28.5 -82t77.5 -33q51 0 90 45z" />
    <glyph glyph-name="ordfeminine" unicode="&#xaa;" horiz-adv-x="416" 
d="M177 334q-52 0 -89 30t-37 82q0 59 41.5 89t101.5 30q30 0 67 -10v18q0 26 -16.5 41.5t-45.5 15.5q-48 0 -74 -51l-61 59q40 74 140 74q69 0 109 -36.5t40 -104.5v-229h-91v19q-34 -27 -85 -27zM144 448q0 -34 46 -34q41 0 71 28v31q-36 13 -66 13q-25 0 -38 -11t-13 -27
z" />
    <glyph glyph-name="guillemotleft" unicode="&#xab;" horiz-adv-x="633" 
d="M34 245l137 245h125l-139 -245l139 -245h-125zM302 245l137 245h125l-139 -245l139 -245h-125z" />
    <glyph glyph-name="logicalnot" unicode="&#xac;" horiz-adv-x="627" 
d="M68 210v105h479v-248h-108v143h-371z" />
    <glyph glyph-name="registered" unicode="&#xae;" horiz-adv-x="659" 
d="M57 435q0 115 78.5 196t192.5 81t194 -81t80 -196q0 -114 -80 -194.5t-194 -80.5t-192.5 80.5t-78.5 194.5zM131 435q0 -85 57 -143.5t140 -58.5q84 0 141.5 58.5t57.5 143.5q0 86 -57.5 145.5t-141.5 59.5q-83 0 -140 -59.5t-57 -145.5zM377 316l-48 69h-34v-69h-68v251
h113q45 0 76 -22t31 -67q0 -58 -52 -82l59 -80h-77zM328 508h-33v-62h33q50 0 50 32q0 30 -50 30z" />
    <glyph glyph-name="macron" unicode="&#xaf;" horiz-adv-x="556" 
d="M169 701h239v-95h-239v95z" />
    <glyph glyph-name="degree" unicode="&#xb0;" horiz-adv-x="445" 
d="M57 547q0 70 48 117.5t117 47.5q70 0 118 -47.5t48 -117.5q0 -69 -48 -117t-118 -48q-69 0 -117 48t-48 117zM156 547q0 -29 19 -48.5t47 -19.5q27 0 46 19.5t19 48.5t-19 49t-46 20q-28 0 -47 -20t-19 -49z" />
    <glyph glyph-name="plusminus" unicode="&#xb1;" horiz-adv-x="650" 
d="M80 0v105h490v-105h-490zM80 379v105h191v191h105v-191h194v-105h-194v-194h-105v194h-191z" />
    <glyph glyph-name="twosuperior" unicode="&#xb2;" horiz-adv-x="426" 
d="M190 390h171v-82h-289v12q0 66 33 111t101 91l11 7q30 21 41.5 33.5t11.5 28.5q0 41 -51 41q-55 0 -86 -63l-60 60q49 83 148 83q61 0 102 -31.5t41 -87.5q0 -40 -21.5 -68.5t-68.5 -60.5l-32 -22q-25 -16 -36 -26.5t-16 -25.5z" />
    <glyph glyph-name="threesuperior" unicode="&#xb3;" horiz-adv-x="402" 
d="M276 513q24 -11 41 -35.5t17 -56.5q0 -63 -45 -94t-108 -31q-86 0 -141 72l59 59q32 -50 85 -50q26 0 42 12t16 33q0 45 -69 45h-36v82h29q65 0 65 43q0 18 -14 29t-37 11q-45 0 -73 -44l-57 57q54 67 135 67q57 0 98 -29t41 -85q0 -27 -13.5 -50t-34.5 -35z" />
    <glyph glyph-name="acute" unicode="&#xb4;" horiz-adv-x="556" 
d="M287 701h140l-119 -131h-112z" />
    <glyph glyph-name="mu" unicode="&#xb5;" horiz-adv-x="581" 
d="M80 -194v684h114v-292q0 -51 24.5 -79t66.5 -28q48 0 75.5 34t27.5 89v276h114v-490h-112v40q-48 -51 -116 -51q-48 0 -80 22v-205h-114z" />
    <glyph glyph-name="mu" unicode="&#x3bc;" horiz-adv-x="581" 
d="M80 -194v684h114v-292q0 -51 24.5 -79t66.5 -28q48 0 75.5 34t27.5 89v276h114v-490h-112v40q-48 -51 -116 -51q-48 0 -80 22v-205h-114z" />
    <glyph glyph-name="paragraph" unicode="&#xb6;" horiz-adv-x="759" 
d="M337 258h-52q-118 0 -187.5 60t-69.5 161t70 161.5t187 60.5h394v-895h-116v792h-109v-792h-117v452z" />
    <glyph glyph-name="periodcentered" unicode="&#xb7;" horiz-adv-x="372" 
d="M110 262q0 30 21 51t51 21t51 -21t21 -51q0 -29 -21 -50t-51 -21t-51 21t-21 50z" />
    <glyph glyph-name="cedilla" unicode="&#xb8;" horiz-adv-x="539" 
d="M294 -137h-115l68 131h104z" />
    <glyph glyph-name="onesuperior" unicode="&#xb9;" horiz-adv-x="414" 
d="M80 389h100v204q-34 -25 -100 -25v80q82 2 106 53h86v-312h96v-81h-288v81z" />
    <glyph glyph-name="ordmasculine" unicode="&#xba;" horiz-adv-x="492" 
d="M51 521q0 83 57 137t138 54q80 0 137.5 -54.5t57.5 -136.5t-57.5 -136t-137.5 -54q-81 0 -138 54t-57 136zM150 521q0 -43 26.5 -71.5t69.5 -28.5q42 0 69 28.5t27 71.5t-27 72t-69 29q-43 0 -69.5 -29t-26.5 -72z" />
    <glyph glyph-name="guillemotright" unicode="&#xbb;" horiz-adv-x="633" 
d="M194 490l137 -245l-137 -245h-125l139 245l-139 245h125zM462 490l137 -245l-137 -245h-125l139 245l-139 245h125z" />
    <glyph glyph-name="onequarter" unicode="&#xbc;" horiz-adv-x="966" 
d="M909 79h-60v-79h-92v79h-176v75l181 228h87v-222h60v-81zM673 160h84v106zM89 389h100v204q-34 -25 -100 -25v80q82 2 106 53h86v-312h96v-81h-288v81zM240 0l432 701h117l-432 -701h-117z" />
    <glyph glyph-name="onehalf" unicode="&#xbd;" horiz-adv-x="999" 
d="M80 389h100v204q-34 -25 -100 -25v80q82 2 106 53h86v-312h96v-81h-288v81zM762 71h171v-82h-289v12q0 66 33 111t101 91l11 7q30 21 41.5 33.5t11.5 28.5q0 41 -51 41q-55 0 -86 -63l-60 60q49 83 148 83q61 0 102 -31.5t41 -87.5q0 -40 -21.5 -68.5t-68.5 -60.5
l-32 -22q-25 -16 -36 -26.5t-16 -25.5zM231 0l432 701h117l-432 -701h-117z" />
    <glyph glyph-name="threequarters" unicode="&#xbe;" horiz-adv-x="893" 
d="M836 79h-60v-79h-92v79h-176v75l181 228h87v-222h60v-81zM600 160h84v106zM276 513q24 -11 41 -35.5t17 -56.5q0 -63 -45 -94t-108 -31q-86 0 -141 72l59 59q32 -50 85 -50q26 0 42 12t16 33q0 45 -69 45h-36v82h29q65 0 65 43q0 18 -14 29t-37 11q-45 0 -73 -44l-57 57
q54 67 135 67q57 0 98 -29t41 -85q0 -27 -13.5 -50t-34.5 -35zM167 0l432 701h117l-432 -701h-117z" />
    <glyph glyph-name="questiondown" unicode="&#xbf;" horiz-adv-x="535" 
d="M344 430q0 -30 -21 -51t-51 -21q-29 0 -50 21t-21 51t21 51t50 21q30 0 51 -21t21 -51zM331 279h-118v-86q-85 -18 -135 -67.5t-50 -126.5q0 -92 65.5 -148t166.5 -56q72 0 131 33.5t98 90.5l-76 83q-55 -98 -154 -98q-48 0 -79.5 24.5t-31.5 68.5q0 52 42.5 75.5
t107.5 23.5h33v183z" />
    <glyph glyph-name="Agrave" unicode="&#xc0;" 
d="M405 701l273 -701h-125l-59 149h-299l-58 -149h-126l274 701h120zM344 539l-106 -280h213zM184 872h146l86 -103h-123z" />
    <glyph glyph-name="Aacute" unicode="&#xc1;" 
d="M405 701l273 -701h-125l-59 149h-299l-58 -149h-126l274 701h120zM344 539l-106 -280h213zM347 872h146l-109 -103h-123z" />
    <glyph glyph-name="Acircumflex" unicode="&#xc2;" 
d="M405 701l273 -701h-125l-59 149h-299l-58 -149h-126l274 701h120zM344 539l-106 -280h213zM277 872h136l91 -103h-113l-46 44l-46 -44h-113z" />
    <glyph glyph-name="Atilde" unicode="&#xc3;" 
d="M405 701l273 -701h-125l-59 149h-299l-58 -149h-126l274 701h120zM344 539l-106 -280h213zM412 872h80q0 -49 -25 -81.5t-63 -32.5q-21 0 -42 7l-40 15q-27 8 -33 8q-22 0 -24 -24h-80q0 49 25 81.5t63 32.5q21 0 42 -7l40 -15q27 -8 33 -8q22 0 24 24z" />
    <glyph glyph-name="Adieresis" unicode="&#xc4;" 
d="M405 701l273 -701h-125l-59 149h-299l-58 -149h-126l274 701h120zM344 539l-106 -280h213zM178 821q0 26 18.5 44.5t43.5 18.5q26 0 44.5 -19t18.5 -44t-18.5 -44t-44.5 -19q-25 0 -43.5 18.5t-18.5 44.5zM369 821q0 25 18.5 44t44.5 19q25 0 43.5 -18.5t18.5 -44.5
t-18.5 -44.5t-43.5 -18.5q-26 0 -44.5 19t-18.5 44z" />
    <glyph glyph-name="Aring" unicode="&#xc5;" 
d="M242 781q0 44 30 73t70 29q43 0 73.5 -29t30.5 -73q0 -50 -41 -81l273 -700h-125l-59 149h-299l-58 -149h-126l273 698q-42 32 -42 83zM344 539l-106 -280h213zM304 781q0 -16 12 -27.5t28 -11.5t27.5 11.5t11.5 27.5t-11.5 27.5t-27.5 11.5t-28 -11.5t-12 -27.5z" />
    <glyph glyph-name="AE" unicode="&#xc6;" horiz-adv-x="921" 
d="M853 0h-300l-59 149h-299l-58 -149h-126l274 701h568v-108h-406l70 -181h319v-109h-276l76 -195h217v-108zM344 539l-106 -280h213z" />
    <glyph glyph-name="Ccedilla" unicode="&#xc7;" horiz-adv-x="700" 
d="M376 -137h-115l68 131q-135 19 -219 115.5t-84 239.5q0 162 102.5 262.5t259.5 100.5q176 0 273 -132l-77 -80q-72 103 -194 103q-104 0 -173 -72t-69 -182q0 -108 70 -179.5t176 -71.5q123 0 202 105l75 -82q-94 -118 -240 -130z" />
    <glyph glyph-name="Egrave" unicode="&#xc8;" horiz-adv-x="642" 
d="M80 0v701h493v-108h-374v-181h357v-109h-357v-195h374v-108h-493zM184 872h146l86 -103h-123z" />
    <glyph glyph-name="Eacute" unicode="&#xc9;" horiz-adv-x="642" 
d="M80 0v701h493v-108h-374v-181h357v-109h-357v-195h374v-108h-493zM331 872h146l-109 -103h-123z" />
    <glyph glyph-name="Ecircumflex" unicode="&#xca;" horiz-adv-x="642" 
d="M80 0v701h493v-108h-374v-181h357v-109h-357v-195h374v-108h-493zM263 872h136l91 -103h-113l-46 44l-46 -44h-113z" />
    <glyph glyph-name="Edieresis" unicode="&#xcb;" horiz-adv-x="642" 
d="M80 0v701h493v-108h-374v-181h357v-109h-357v-195h374v-108h-493zM173 821q0 26 18.5 44.5t43.5 18.5t44 -19t19 -44t-19 -44t-44 -19t-43.5 18.5t-18.5 44.5zM364 821q0 25 19 44t44 19t43.5 -18.5t18.5 -44.5t-18.5 -44.5t-43.5 -18.5t-44 19t-19 44z" />
    <glyph glyph-name="Igrave" unicode="&#xcc;" horiz-adv-x="279" 
d="M80 0v701h119v-701h-119zM-23 872h146l86 -103h-123z" />
    <glyph glyph-name="Iacute" unicode="&#xcd;" horiz-adv-x="279" 
d="M80 0v701h119v-701h-119zM153 872h146l-109 -103h-123z" />
    <glyph glyph-name="Icircumflex" unicode="&#xce;" horiz-adv-x="279" 
d="M80 0v701h119v-701h-119zM73 872h136l91 -103h-113l-46 44l-46 -44h-113z" />
    <glyph glyph-name="Idieresis" unicode="&#xcf;" horiz-adv-x="279" 
d="M80 0v701h119v-701h-119zM-18 821q0 26 18.5 44.5t43.5 18.5q26 0 44.5 -19t18.5 -44t-18.5 -44t-44.5 -19q-25 0 -43.5 18.5t-18.5 44.5zM173 821q0 25 18.5 44t44.5 19q25 0 43.5 -18.5t18.5 -44.5t-18.5 -44.5t-43.5 -18.5q-26 0 -44.5 19t-18.5 44z" />
    <glyph glyph-name="Eth" unicode="&#xd0;" horiz-adv-x="758" 
d="M114 0v303h-80v109h80v289h219q75 0 139.5 -17.5t120 -55.5t87.5 -108t32 -165q0 -96 -32 -167t-87.5 -111t-120 -58.5t-139.5 -18.5h-219zM310 593h-77v-181h120v-109h-120v-195h78q60 0 107 11t87.5 37.5t62.5 76.5t22 122q0 69 -22 117.5t-62.5 73.5t-87.5 36t-108 11
z" />
    <glyph glyph-name="Ntilde" unicode="&#xd1;" horiz-adv-x="747" 
d="M547 0l-348 494v-494h-119v701h119l348 -496v496h120v-701h-120zM447 872h80q0 -49 -25 -81.5t-63 -32.5q-21 0 -42 7l-40 15q-27 8 -33 8q-22 0 -24 -24h-80q0 49 25 81.5t63 32.5q21 0 42 -7l40 -15q27 -8 33 -8q22 0 24 24z" />
    <glyph glyph-name="Ograve" unicode="&#xd2;" horiz-adv-x="803" 
d="M46 351q0 153 101.5 257t252.5 104t254 -104t103 -257q0 -154 -103 -258t-254 -104t-252.5 104t-101.5 258zM168 351q0 -109 66.5 -181t169.5 -72q101 0 167 72.5t66 180.5q0 107 -66 179t-167 72q-103 0 -169.5 -72t-66.5 -179zM233 872h146l86 -103h-123z" />
    <glyph glyph-name="Oacute" unicode="&#xd3;" horiz-adv-x="803" 
d="M46 351q0 153 101.5 257t252.5 104t254 -104t103 -257q0 -154 -103 -258t-254 -104t-252.5 104t-101.5 258zM168 351q0 -109 66.5 -181t169.5 -72q101 0 167 72.5t66 180.5q0 107 -66 179t-167 72q-103 0 -169.5 -72t-66.5 -179zM411 872h146l-109 -103h-123z" />
    <glyph glyph-name="Ocircumflex" unicode="&#xd4;" horiz-adv-x="803" 
d="M46 351q0 153 101.5 257t252.5 104t254 -104t103 -257q0 -154 -103 -258t-254 -104t-252.5 104t-101.5 258zM168 351q0 -109 66.5 -181t169.5 -72q101 0 167 72.5t66 180.5q0 107 -66 179t-167 72q-103 0 -169.5 -72t-66.5 -179zM330 872h136l91 -103h-113l-46 44
l-46 -44h-113z" />
    <glyph glyph-name="Otilde" unicode="&#xd5;" horiz-adv-x="803" 
d="M46 351q0 153 101.5 257t252.5 104t254 -104t103 -257q0 -154 -103 -258t-254 -104t-252.5 104t-101.5 258zM168 351q0 -109 66.5 -181t169.5 -72q101 0 167 72.5t66 180.5q0 107 -66 179t-167 72q-103 0 -169.5 -72t-66.5 -179zM469 872h80q0 -49 -25 -81.5t-63 -32.5
q-21 0 -42 7l-40 15q-27 8 -33 8q-22 0 -24 -24h-80q0 49 25 81.5t63 32.5q21 0 42 -7l40 -15q27 -8 33 -8q22 0 24 24z" />
    <glyph glyph-name="Odieresis" unicode="&#xd6;" horiz-adv-x="803" 
d="M46 351q0 153 101.5 257t252.5 104t254 -104t103 -257q0 -154 -103 -258t-254 -104t-252.5 104t-101.5 258zM168 351q0 -109 66.5 -181t169.5 -72q101 0 167 72.5t66 180.5q0 107 -66 179t-167 72q-103 0 -169.5 -72t-66.5 -179zM244 821q0 26 18.5 44.5t43.5 18.5
q26 0 44.5 -19t18.5 -44t-18.5 -44t-44.5 -19q-25 0 -43.5 18.5t-18.5 44.5zM435 821q0 25 18.5 44t44.5 19q25 0 43.5 -18.5t18.5 -44.5t-18.5 -44.5t-43.5 -18.5q-26 0 -44.5 19t-18.5 44z" />
    <glyph glyph-name="multiply" unicode="&#xd7;" horiz-adv-x="605" 
d="M82 393l74 74l147 -147l146 147l74 -74l-146 -147l149 -148l-75 -74l-148 148l-149 -148l-74 74l149 148z" />
    <glyph glyph-name="Oslash" unicode="&#xd8;" horiz-adv-x="803" 
d="M46 351q0 153 101.5 257t252.5 104q85 0 163 -38l41 59l79 -57l-40 -58q114 -106 114 -267q0 -154 -103 -258t-254 -104q-90 0 -169 41l-42 -60l-78 57l42 60q-107 104 -107 264zM637 351q0 101 -61 172l-280 -400q50 -25 108 -25q101 0 167 72.5t66 180.5zM168 351
q0 -97 53 -166l277 397q-43 20 -94 20q-103 0 -169.5 -72t-66.5 -179z" />
    <glyph glyph-name="Ugrave" unicode="&#xd9;" horiz-adv-x="702" 
d="M514 311v390h120v-390q0 -157 -76.5 -239.5t-206.5 -82.5t-206.5 82.5t-76.5 239.5v390h120v-391q0 -213 163 -213t163 214zM192 872h146l86 -103h-123z" />
    <glyph glyph-name="Uacute" unicode="&#xda;" horiz-adv-x="702" 
d="M514 311v390h120v-390q0 -157 -76.5 -239.5t-206.5 -82.5t-206.5 82.5t-76.5 239.5v390h120v-391q0 -213 163 -213t163 214zM348 872h146l-109 -103h-123z" />
    <glyph glyph-name="Ucircumflex" unicode="&#xdb;" horiz-adv-x="702" 
d="M514 311v390h120v-390q0 -157 -76.5 -239.5t-206.5 -82.5t-206.5 82.5t-76.5 239.5v390h120v-391q0 -213 163 -213t163 214zM281 872h136l91 -103h-113l-46 44l-46 -44h-113z" />
    <glyph glyph-name="Udieresis" unicode="&#xdc;" horiz-adv-x="702" 
d="M514 311v390h120v-390q0 -157 -76.5 -239.5t-206.5 -82.5t-206.5 82.5t-76.5 239.5v390h120v-391q0 -213 163 -213t163 214zM194 821q0 26 18.5 44.5t43.5 18.5q26 0 44.5 -19t18.5 -44t-18.5 -44t-44.5 -19q-25 0 -43.5 18.5t-18.5 44.5zM385 821q0 25 18.5 44t44.5 19
q25 0 43.5 -18.5t18.5 -44.5t-18.5 -44.5t-43.5 -18.5q-26 0 -44.5 19t-18.5 44z" />
    <glyph glyph-name="Yacute" unicode="&#xdd;" horiz-adv-x="635" 
d="M150 701l168 -326l166 326h128l-235 -456v-245h-119v245l-235 456h127zM325 872h146l-109 -103h-123z" />
    <glyph glyph-name="Thorn" unicode="&#xde;" horiz-adv-x="643" 
d="M335 129h-136v-129h-119v700h119v-109h136q124 0 196 -61t72 -169q0 -109 -72.5 -170.5t-195.5 -61.5zM320 482h-121v-245h121q163 0 163 123q0 122 -163 122z" />
    <glyph glyph-name="germandbls" unicode="&#xdf;" horiz-adv-x="638" 
d="M74 0v430q0 130 67.5 200.5t189.5 70.5q96 0 163.5 -56.5t67.5 -144.5q0 -92 -70 -137q101 -57 101 -168q0 -84 -61 -139.5t-167 -55.5h-95v103h80q58 0 93.5 25t35.5 71q0 48 -38 74.5t-105 26.5h-66v102h59q54 0 86 27.5t32 72.5q0 40 -31 68t-85 28q-143 0 -143 -168
v-430h-114z" />
    <glyph glyph-name="agrave" unicode="&#xe0;" horiz-adv-x="514" 
d="M211 -11q-70 0 -117.5 40.5t-47.5 108.5q0 80 57 122t147 42q48 0 99 -17v33q0 37 -27.5 59t-68.5 22q-77 0 -116 -71l-77 72q28 50 81 76t113 26q95 0 152 -47t57 -138v-317h-112v38q-56 -49 -140 -49zM160 146q0 -25 19 -41t55 -16q71 0 115 42v56q-53 20 -102 20
q-40 0 -63.5 -16t-23.5 -45zM127 701h140l91 -131h-112z" />
    <glyph glyph-name="aacute" unicode="&#xe1;" horiz-adv-x="514" 
d="M211 -11q-70 0 -117.5 40.5t-47.5 108.5q0 80 57 122t147 42q48 0 99 -17v33q0 37 -27.5 59t-68.5 22q-77 0 -116 -71l-77 72q28 50 81 76t113 26q95 0 152 -47t57 -138v-317h-112v38q-56 -49 -140 -49zM160 146q0 -25 19 -41t55 -16q71 0 115 42v56q-53 20 -102 20
q-40 0 -63.5 -16t-23.5 -45zM264 701h140l-119 -131h-112z" />
    <glyph glyph-name="acircumflex" unicode="&#xe2;" horiz-adv-x="514" 
d="M211 -11q-70 0 -117.5 40.5t-47.5 108.5q0 80 57 122t147 42q48 0 99 -17v33q0 37 -27.5 59t-68.5 22q-77 0 -116 -71l-77 72q28 50 81 76t113 26q95 0 152 -47t57 -138v-317h-112v38q-56 -49 -140 -49zM160 146q0 -25 19 -41t55 -16q71 0 115 42v56q-53 20 -102 20
q-40 0 -63.5 -16t-23.5 -45zM196 701h129l97 -131h-112l-50 60l-50 -60h-111z" />
    <glyph glyph-name="atilde" unicode="&#xe3;" horiz-adv-x="514" 
d="M211 -11q-70 0 -117.5 40.5t-47.5 108.5q0 80 57 122t147 42q48 0 99 -17v33q0 37 -27.5 59t-68.5 22q-77 0 -116 -71l-77 72q28 50 81 76t113 26q95 0 152 -47t57 -138v-317h-112v38q-56 -49 -140 -49zM160 146q0 -25 19 -41t55 -16q71 0 115 42v56q-53 20 -102 20
q-40 0 -63.5 -16t-23.5 -45zM332 701h80q0 -49 -25 -81.5t-63 -32.5q-21 0 -42 7l-40 15q-27 8 -33 8q-22 0 -24 -24h-80q0 49 25 81.5t63 32.5q21 0 42 -7l40 -15q27 -8 33 -8q22 0 24 24z" />
    <glyph glyph-name="adieresis" unicode="&#xe4;" horiz-adv-x="514" 
d="M211 -11q-70 0 -117.5 40.5t-47.5 108.5q0 80 57 122t147 42q48 0 99 -17v33q0 37 -27.5 59t-68.5 22q-77 0 -116 -71l-77 72q28 50 81 76t113 26q95 0 152 -47t57 -138v-317h-112v38q-56 -49 -140 -49zM160 146q0 -25 19 -41t55 -16q71 0 115 42v56q-53 20 -102 20
q-40 0 -63.5 -16t-23.5 -45zM100 644q0 26 18.5 44.5t43.5 18.5q26 0 44.5 -18.5t18.5 -44.5t-18.5 -44.5t-44.5 -18.5q-25 0 -43.5 18.5t-18.5 44.5zM291 644q0 26 18.5 44.5t44.5 18.5q25 0 43.5 -18.5t18.5 -44.5t-18.5 -44.5t-43.5 -18.5q-26 0 -44.5 18.5t-18.5 44.5z
" />
    <glyph glyph-name="aring" unicode="&#xe5;" horiz-adv-x="514" 
d="M211 -11q-70 0 -117.5 40.5t-47.5 108.5q0 80 57 122t147 42q48 0 99 -17v33q0 37 -27.5 59t-68.5 22q-77 0 -116 -71l-77 72q28 50 81 76t113 26q95 0 152 -47t57 -138v-317h-112v38q-56 -49 -140 -49zM160 146q0 -25 19 -41t55 -16q71 0 115 42v56q-53 20 -102 20
q-40 0 -63.5 -16t-23.5 -45zM259 712q34 0 57.5 -22.5t23.5 -57.5q0 -33 -24 -56t-57 -23t-57 23t-24 56q0 35 23.5 57.5t57.5 22.5zM259 609q10 0 16.5 6.5t6.5 16.5t-6.5 16t-16.5 6t-16.5 -6t-6.5 -16t6.5 -16.5t16.5 -6.5z" />
    <glyph glyph-name="ae" unicode="&#xe6;" horiz-adv-x="858" 
d="M812 210h-335q4 -55 38.5 -86.5t89.5 -31.5q78 0 127 69l76 -72q-78 -100 -203 -100q-106 0 -174 66q-78 -66 -197 -66q-78 0 -127.5 40t-49.5 109q0 80 57 122t147 42h99v16q0 37 -27.5 59t-68.5 22q-77 0 -116 -71l-76 72q28 50 81 76t113 26q106 0 167 -69
q62 69 155 69q111 0 168 -74t57 -177zM171 148q0 -25 20 -42t60 -17q72 0 125 51q-10 26 -12 70h-105q-40 0 -64 -16t-24 -46zM589 398q-44 0 -71.5 -28.5t-35.5 -67.5h210q-1 38 -25.5 67t-77.5 29z" />
    <glyph glyph-name="ccedilla" unicode="&#xe7;" horiz-adv-x="539" 
d="M300 -137h-115l68 131q-85 18 -140.5 87t-55.5 164q0 109 72 183t174 74q123 0 199 -98l-79 -76q-53 70 -117 70q-58 0 -95.5 -43t-37.5 -110t38 -110t96 -43q43 0 70.5 18.5t55.5 57.5l78 -73q-57 -82 -154 -101z" />
    <glyph glyph-name="egrave" unicode="&#xe8;" horiz-adv-x="556" 
d="M509 211h-335q4 -55 39 -87t90 -32q79 0 126 69l77 -72q-78 -100 -203 -100q-110 0 -178 70.5t-68 182.5q0 110 62.5 185t166.5 75q57 0 101.5 -21.5t70.5 -58t39 -80t13 -91.5zM287 398q-45 0 -72 -28t-35 -68h209q-1 38 -25.5 67t-76.5 29zM143 701h140l91 -131h-112z
" />
    <glyph glyph-name="eacute" unicode="&#xe9;" horiz-adv-x="556" 
d="M174 211h335q1 23 1 40q0 48 -13 91.5t-39 80t-70.5 58t-101.5 21.5q-104 0 -166.5 -75t-62.5 -185q0 -112 68 -182.5t178 -70.5q125 0 203 100l-77 72q-47 -69 -126 -69q-55 0 -90 32t-39 87zM287 398q52 0 76.5 -29t25.5 -67h-209q8 40 35 68t72 28zM294 701h140
l-119 -131h-112z" />
    <glyph glyph-name="ecircumflex" unicode="&#xea;" horiz-adv-x="556" 
d="M174 211h335q1 23 1 40q0 48 -13 91.5t-39 80t-70.5 58t-101.5 21.5q-104 0 -166.5 -75t-62.5 -185q0 -112 68 -182.5t178 -70.5q125 0 203 100l-77 72q-47 -69 -126 -69q-55 0 -90 32t-39 87zM287 398q52 0 76.5 -29t25.5 -67h-209q8 40 35 68t72 28zM226 701h129
l97 -131h-112l-50 60l-50 -60h-111z" />
    <glyph glyph-name="edieresis" unicode="&#xeb;" horiz-adv-x="556" 
d="M174 211h335q1 23 1 40q0 48 -13 91.5t-39 80t-70.5 58t-101.5 21.5q-104 0 -166.5 -75t-62.5 -185q0 -112 68 -182.5t178 -70.5q125 0 203 100l-77 72q-47 -69 -126 -69q-55 0 -90 32t-39 87zM287 398q52 0 76.5 -29t25.5 -67h-209q8 40 35 68t72 28zM126 644
q0 26 18.5 44.5t43.5 18.5q26 0 44.5 -18.5t18.5 -44.5t-18.5 -44.5t-44.5 -18.5q-25 0 -43.5 18.5t-18.5 44.5zM317 644q0 26 18.5 44.5t44.5 18.5q25 0 43.5 -18.5t18.5 -44.5t-18.5 -44.5t-43.5 -18.5q-26 0 -44.5 18.5t-18.5 44.5z" />
    <glyph glyph-name="igrave" unicode="&#xec;" horiz-adv-x="287" 
d="M88 0v490h114v-490h-114zM-16 701h140l91 -131h-112z" />
    <glyph glyph-name="iacute" unicode="&#xed;" horiz-adv-x="285" 
d="M86 0v490h114v-490h-114zM165 701h140l-119 -131h-112z" />
    <glyph glyph-name="icircumflex" unicode="&#xee;" horiz-adv-x="287" 
d="M88 0v490h114v-490h-114zM81 701h129l97 -131h-112l-50 60l-50 -60h-111z" />
    <glyph glyph-name="idieresis" unicode="&#xef;" horiz-adv-x="287" 
d="M88 0v490h114v-490h-114zM-13 644q0 26 18.5 44.5t43.5 18.5t44 -18.5t19 -44.5t-19 -44.5t-44 -18.5t-43.5 18.5t-18.5 44.5zM178 644q0 26 19 44.5t44 18.5t43.5 -18.5t18.5 -44.5t-18.5 -44.5t-43.5 -18.5t-44 18.5t-19 44.5z" />
    <glyph glyph-name="eth" unicode="&#xf0;" horiz-adv-x="593" 
d="M311 -11q-102 0 -172.5 63t-70.5 170q0 104 68 168t164 64q21 0 32 -4l-61 85l-102 -56v91l56 31l-70 100h137l32 -46l103 57v-91l-58 -32l101 -144q84 -121 84 -211q0 -105 -68.5 -175t-174.5 -70zM434 221q0 55 -36 89.5t-87 34.5t-87 -34.5t-36 -89.5t36 -89.5
t87 -34.5t87 34.5t36 89.5z" />
    <glyph glyph-name="ntilde" unicode="&#xf1;" horiz-adv-x="570" 
d="M194 0v271q0 59 28 93.5t80 34.5q46 0 71.5 -31t25.5 -83v-285h114v285q0 103 -51.5 160t-142.5 57q-81 0 -127 -52v40h-112v-490h114zM369 701h80q0 -49 -25 -81.5t-63 -32.5q-21 0 -42 7l-40 15q-27 8 -33 8q-22 0 -24 -24h-80q0 49 25 81.5t63 32.5q21 0 42 -7l40 -15
q27 -8 33 -8q22 0 24 24z" />
    <glyph glyph-name="ograve" unicode="&#xf2;" horiz-adv-x="597" 
d="M46 245q0 110 73 183.5t180 73.5q106 0 179.5 -73.5t73.5 -183.5q0 -109 -73 -182.5t-180 -73.5t-180 73t-73 183zM162 245q0 -67 38.5 -110t98.5 -43q59 0 97.5 43t38.5 110t-38.5 110t-97.5 43q-60 0 -98.5 -43t-38.5 -110zM144 701h140l91 -131h-112z" />
    <glyph glyph-name="oacute" unicode="&#xf3;" horiz-adv-x="597" 
d="M46 245q0 110 73 183.5t180 73.5q106 0 179.5 -73.5t73.5 -183.5q0 -109 -73 -182.5t-180 -73.5t-180 73t-73 183zM162 245q0 -67 38.5 -110t98.5 -43q59 0 97.5 43t38.5 110t-38.5 110t-97.5 43q-60 0 -98.5 -43t-38.5 -110zM298 701h140l-119 -131h-112z" />
    <glyph glyph-name="ocircumflex" unicode="&#xf4;" horiz-adv-x="597" 
d="M46 245q0 110 73 183.5t180 73.5q106 0 179.5 -73.5t73.5 -183.5q0 -109 -73 -182.5t-180 -73.5t-180 73t-73 183zM162 245q0 -67 38.5 -110t98.5 -43q59 0 97.5 43t38.5 110t-38.5 110t-97.5 43q-60 0 -98.5 -43t-38.5 -110zM235 701h129l97 -131h-112l-50 60l-50 -60
h-111z" />
    <glyph glyph-name="otilde" unicode="&#xf5;" horiz-adv-x="597" 
d="M46 245q0 110 73 183.5t180 73.5q106 0 179.5 -73.5t73.5 -183.5q0 -109 -73 -182.5t-180 -73.5t-180 73t-73 183zM162 245q0 -67 38.5 -110t98.5 -43q59 0 97.5 43t38.5 110t-38.5 110t-97.5 43q-60 0 -98.5 -43t-38.5 -110zM370 701h80q0 -49 -25 -81.5t-63 -32.5
q-21 0 -42 7l-40 15q-27 8 -33 8q-22 0 -24 -24h-80q0 49 25 81.5t63 32.5q21 0 42 -7l40 -15q27 -8 33 -8q22 0 24 24z" />
    <glyph glyph-name="odieresis" unicode="&#xf6;" horiz-adv-x="597" 
d="M46 245q0 110 73 183.5t180 73.5q106 0 179.5 -73.5t73.5 -183.5q0 -109 -73 -182.5t-180 -73.5t-180 73t-73 183zM162 245q0 -67 38.5 -110t98.5 -43q59 0 97.5 43t38.5 110t-38.5 110t-97.5 43q-60 0 -98.5 -43t-38.5 -110zM141 644q0 26 18.5 44.5t43.5 18.5t44 -18.5
t19 -44.5t-19 -44.5t-44 -18.5t-43.5 18.5t-18.5 44.5zM332 644q0 26 19 44.5t44 18.5t43.5 -18.5t18.5 -44.5t-18.5 -44.5t-43.5 -18.5t-44 18.5t-19 44.5z" />
    <glyph glyph-name="divide" unicode="&#xf7;" horiz-adv-x="650" 
d="M80 192v105h490v-105h-490zM253 60q0 30 21 51t51 21t51 -21t21 -51q0 -29 -21 -50t-51 -21t-51 21t-21 50zM253 429q0 30 21 51t51 21t51 -21t21 -51q0 -29 -21 -50t-51 -21t-51 21t-21 50z" />
    <glyph glyph-name="oslash" unicode="&#xf8;" horiz-adv-x="608" 
d="M57 245q0 110 73 183.5t180 73.5q54 0 103 -22l29 41l78 -56l-28 -40q71 -73 71 -180q0 -109 -73.5 -182.5t-179.5 -73.5q-54 0 -108 23l-30 -43l-77 56l30 42q-68 71 -68 178zM446 245q0 49 -21 85l-161 -230q22 -8 46 -8q59 0 97.5 43t38.5 110zM173 245q0 -46 19 -82
l159 228q-23 7 -41 7q-60 0 -98.5 -43t-38.5 -110z" />
    <glyph glyph-name="ugrave" unicode="&#xf9;" horiz-adv-x="559" 
d="M182 490v-293q0 -49 24 -77.5t68 -28.5q48 0 75 34t27 89v276h114v-490h-112v40q-46 -51 -127 -51q-83 0 -133 57t-50 159v285h114zM123 701h140l91 -131h-112z" />
    <glyph glyph-name="uacute" unicode="&#xfa;" horiz-adv-x="559" 
d="M182 490v-293q0 -49 24 -77.5t68 -28.5q48 0 75 34t27 89v276h114v-490h-112v40q-46 -51 -127 -51q-83 0 -133 57t-50 159v285h114zM295 701h140l-119 -131h-112z" />
    <glyph glyph-name="ucircumflex" unicode="&#xfb;" horiz-adv-x="559" 
d="M182 490v-293q0 -49 24 -77.5t68 -28.5q48 0 75 34t27 89v276h114v-490h-112v40q-46 -51 -127 -51q-83 0 -133 57t-50 159v285h114zM218 701h129l97 -131h-112l-50 60l-50 -60h-111z" />
    <glyph glyph-name="udieresis" unicode="&#xfc;" horiz-adv-x="559" 
d="M182 490v-293q0 -49 24 -77.5t68 -28.5q48 0 75 34t27 89v276h114v-490h-112v40q-46 -51 -127 -51q-83 0 -133 57t-50 159v285h114zM120 644q0 26 18.5 44.5t43.5 18.5q26 0 44.5 -18.5t18.5 -44.5t-18.5 -44.5t-44.5 -18.5q-25 0 -43.5 18.5t-18.5 44.5zM311 644
q0 26 18.5 44.5t44.5 18.5q25 0 43.5 -18.5t18.5 -44.5t-18.5 -44.5t-43.5 -18.5q-26 0 -44.5 18.5t-18.5 44.5z" />
    <glyph glyph-name="yacute" unicode="&#xfd;" horiz-adv-x="557" 
d="M146 -194h120l274 684h-124l-130 -354l-128 354h-130l194 -496zM303 701h140l-119 -131h-112z" />
    <glyph glyph-name="thorn" unicode="&#xfe;" horiz-adv-x="616" 
d="M570 245q0 -111 -67 -183.5t-172 -72.5q-80 0 -137 47v-230h-114v895h112v-255q52 56 139 56q105 0 172 -73t67 -184zM454 245q0 66 -33.5 109.5t-96.5 43.5t-97.5 -44t-34.5 -109q0 -66 34.5 -112t97.5 -46t96.5 46t33.5 112z" />
    <glyph glyph-name="ydieresis" unicode="&#xff;" horiz-adv-x="546" 
d="M135 -194h120l274 684h-124l-130 -354l-128 354h-130l194 -496zM116 644q0 26 18.5 44.5t43.5 18.5q26 0 44.5 -18.5t18.5 -44.5t-18.5 -44.5t-44.5 -18.5q-25 0 -43.5 18.5t-18.5 44.5zM307 644q0 26 18.5 44.5t44.5 18.5q25 0 43.5 -18.5t18.5 -44.5t-18.5 -44.5
t-43.5 -18.5q-26 0 -44.5 18.5t-18.5 44.5z" />
    <glyph glyph-name="dotlessi" unicode="&#x131;" horiz-adv-x="287" 
d="M88 0v490h114v-490h-114z" />
    <glyph glyph-name="Lslash" unicode="&#x141;" horiz-adv-x="616" 
d="M52 275l-29 99l101 30v297h119v-261l77 23l30 -99l-107 -32v-224h332v-108h-451v296z" />
    <glyph glyph-name="lslash" unicode="&#x142;" horiz-adv-x="360" 
d="M46 275l-29 93l105 31v302h114v-268l79 24l28 -93l-107 -32v-332h-114v298z" />
    <glyph glyph-name="OE" unicode="&#x152;" horiz-adv-x="960" 
d="M400 701h491v-108h-316v-181h299v-109h-299v-195h316v-108h-491q-151 0 -250 98.5t-99 252.5q0 153 99 251.5t250 98.5zM404 591q-103 0 -167 -67t-64 -173q0 -108 64 -175t167 -67h51v482h-51z" />
    <glyph glyph-name="oe" unicode="&#x153;" horiz-adv-x="945" 
d="M898 211h-335q4 -55 39 -87t90 -32q78 0 127 69l76 -72q-78 -100 -203 -100q-124 0 -192 91q-69 -91 -191 -91q-106 0 -179 73t-73 183t73 183.5t179 73.5q120 0 190 -92q66 92 176 92q57 0 101.5 -21.5t70.5 -58t39 -80t13 -91.5zM173 245q0 -67 38.5 -110t97.5 -43
q57 0 97 42t40 108q0 69 -38 112.5t-99 43.5q-59 0 -97.5 -43t-38.5 -110zM676 398q-45 0 -72 -28t-35 -68h210q-2 39 -26.5 67.5t-76.5 28.5z" />
    <glyph glyph-name="Scaron" unicode="&#x160;" horiz-adv-x="661" 
d="M369 290l-85 14q-100 18 -155 70.5t-55 137.5q0 90 72 145t175 55q153 0 259 -112l-83 -88q-76 92 -181 92q-60 0 -91 -26.5t-31 -62.5q0 -77 116 -95l70 -12q113 -18 168.5 -74t55.5 -142q0 -90 -72 -146.5t-196 -56.5q-173 0 -279 134l81 82q38 -50 87.5 -79t125.5 -29
q64 0 98.5 26t34.5 67q0 80 -115 100zM397 769h-136l-91 103h113l46 -44l46 44h113z" />
    <glyph glyph-name="scaron" unicode="&#x161;" horiz-adv-x="473" 
d="M268 185l-65 16q-149 34 -149 155q0 67 50 106.5t129 39.5q106 0 185 -82l-73 -78q-45 62 -115 62q-31 0 -49 -13.5t-18 -32.5q0 -34 48 -46l77 -18q150 -34 150 -153q0 -67 -50.5 -109.5t-143.5 -42.5q-128 0 -203 95l72 74q54 -71 140 -71q40 0 57.5 14.5t17.5 35.5
q0 16 -13 27.5t-47 20.5zM307 570h-140l-97 131h110l56 -65l56 65h112z" />
    <glyph glyph-name="Ydieresis" unicode="&#x178;" horiz-adv-x="635" 
d="M150 701l168 -326l166 326h128l-235 -456v-245h-119v245l-235 456h127zM166 821q0 26 18.5 44.5t43.5 18.5q26 0 44.5 -19t18.5 -44t-18.5 -44t-44.5 -19q-25 0 -43.5 18.5t-18.5 44.5zM357 821q0 25 18.5 44t44.5 19q25 0 43.5 -18.5t18.5 -44.5t-18.5 -44.5
t-43.5 -18.5q-26 0 -44.5 19t-18.5 44z" />
    <glyph glyph-name="Zcaron" unicode="&#x17d;" horiz-adv-x="644" 
d="M65 701h516v-103l-364 -490h362v-108h-516v103l364 490h-362v108zM395 769h-136l-91 103h113l46 -44l46 44h113z" />
    <glyph glyph-name="zcaron" unicode="&#x17e;" horiz-adv-x="504" 
d="M68 490h373v-97l-239 -290h251v-103h-390v97l237 291h-232v102zM323 570h-129l-96 131h110l50 -60l50 60h111z" />
    <glyph glyph-name="florin" unicode="&#x192;" horiz-adv-x="393" 
d="M242 388v-397q0 -92 -50.5 -139t-147.5 -47l-55 1v103q26 -1 37 -1q53 0 78 23.5t25 76.5v380h-83v102h83v25q0 186 197 186l56 -1v-103q-26 1 -38 1q-53 0 -77.5 -23.5t-24.5 -76.5v-8h128v-102h-128z" />
    <glyph glyph-name="circumflex" unicode="&#x2c6;" horiz-adv-x="556" 
d="M220 701h129l97 -131h-112l-50 60l-50 -60h-111z" />
    <glyph glyph-name="caron" unicode="&#x2c7;" horiz-adv-x="473" 
d="M308 570h-140l-97 131h110l56 -65l56 65h112z" />
    <glyph glyph-name="breve" unicode="&#x2d8;" horiz-adv-x="556" 
d="M288 559q-61 0 -100.5 40t-43.5 102h89q5 -51 55 -51t56 51h89q-5 -63 -44 -102.5t-101 -39.5z" />
    <glyph glyph-name="dotaccent" unicode="&#x2d9;" horiz-adv-x="280" 
d="M74 635q0 30 21 51t51 21t51 -21t21 -51t-21 -51t-51 -21t-51 21t-21 51z" />
    <glyph glyph-name="ring" unicode="&#x2da;" horiz-adv-x="520" 
d="M258 712q34 0 57.5 -22.5t23.5 -57.5q0 -33 -24 -56t-57 -23t-57 23t-24 56q0 35 23.5 57.5t57.5 22.5zM258 609q10 0 16.5 6.5t6.5 16.5t-6.5 16t-16.5 6t-16.5 -6t-6.5 -16t6.5 -16.5t16.5 -6.5z" />
    <glyph glyph-name="ogonek" unicode="&#x2db;" horiz-adv-x="556" 
d="M211 701h140l-119 -131h-112zM402 701h140l-119 -131h-112z" />
    <glyph glyph-name="tilde" unicode="&#x2dc;" horiz-adv-x="576" 
d="M368 701h80q0 -49 -25 -81.5t-63 -32.5q-21 0 -42 7l-40 15q-27 8 -33 8q-22 0 -24 -24h-80q0 49 25 81.5t63 32.5q21 0 42 -7l40 -15q27 -8 33 -8q22 0 24 24z" />
    <glyph glyph-name="hungarumlaut" unicode="&#x2dd;" horiz-adv-x="556" 
d="M302 -137h-117l68 131h106z" />
    <glyph glyph-name="Delta" unicode="&#x394;" horiz-adv-x="700" 
d="M295 701h110l227 -602v-99h-564v99zM350 561l-168 -456h336z" />
    <glyph glyph-name="Delta" unicode="&#x2206;" horiz-adv-x="700" 
d="M295 701h110l227 -602v-99h-564v99zM350 561l-168 -456h336z" />
    <glyph glyph-name="Omega" unicode="&#x3a9;" horiz-adv-x="784" 
d="M675 103v-103h-237v218q76 12 117 65.5t41 124.5q0 87 -57.5 143.5t-145.5 56.5q-87 0 -145.5 -56.5t-58.5 -143.5q0 -71 41.5 -124.5t117.5 -65.5v-218h-237v103h125v45q-70 29 -116 96.5t-46 163.5q0 135 94 219.5t224 84.5q129 0 223.5 -84.5t94.5 -219.5
q0 -95 -46 -162.5t-115 -97.5v-45h126z" />
    <glyph glyph-name="Omega" unicode="&#x2126;" horiz-adv-x="784" 
d="M675 103v-103h-237v218q76 12 117 65.5t41 124.5q0 87 -57.5 143.5t-145.5 56.5q-87 0 -145.5 -56.5t-58.5 -143.5q0 -71 41.5 -124.5t117.5 -65.5v-218h-237v103h125v45q-70 29 -116 96.5t-46 163.5q0 135 94 219.5t224 84.5q129 0 223.5 -84.5t94.5 -219.5
q0 -95 -46 -162.5t-115 -97.5v-45h126z" />
    <glyph glyph-name="pi" unicode="&#x3c0;" horiz-adv-x="653" 
d="M412 0v388h-170v-388h-111v388h-80v102h551v-102h-80v-388h-110z" />
    <glyph glyph-name="endash" unicode="&#x2013;" horiz-adv-x="587" 
d="M80 210v105h433v-105h-433z" />
    <glyph glyph-name="emdash" unicode="&#x2014;" horiz-adv-x="878" 
d="M80 210v105h724v-105h-724z" />
    <glyph glyph-name="quoteleft" unicode="&#x2018;" horiz-adv-x="282" 
d="M236 472h-105l-108 229h120z" />
    <glyph glyph-name="quoteright" unicode="&#x2019;" horiz-adv-x="282" 
d="M128 472h-105l93 229h120z" />
    <glyph glyph-name="quotesinglbase" unicode="&#x201a;" horiz-adv-x="259" 
d="M105 -115h-105l93 229h120z" />
    <glyph glyph-name="quotedblleft" unicode="&#x201c;" horiz-adv-x="458" 
d="M412 472h-105l-108 229h120zM236 472h-105l-109 229h120z" />
    <glyph glyph-name="quotedblright" unicode="&#x201d;" horiz-adv-x="458" 
d="M128 472h-105l93 229h120zM304 472h-105l94 229h120z" />
    <glyph glyph-name="quotedblbase" unicode="&#x201e;" horiz-adv-x="434" 
d="M105 -115h-105l93 229h120zM281 -115h-105l93 229h120z" />
    <glyph glyph-name="dagger" unicode="&#x2020;" horiz-adv-x="571" 
d="M46 490h181v211h112v-211h187v-107h-187v-577h-112v577h-181v107z" />
    <glyph glyph-name="daggerdbl" unicode="&#x2021;" horiz-adv-x="571" 
d="M227 186v197h-181v107h181v211h112v-211h187v-107h-187v-197h187v-107h-187v-273h-112v273h-181v107h181z" />
    <glyph glyph-name="bullet" unicode="&#x2022;" horiz-adv-x="404" 
d="M68 262q0 56 39 95t95 39q55 0 94 -39t39 -95t-38.5 -94.5t-94.5 -38.5t-95 39t-39 94z" />
    <glyph glyph-name="ellipsis" unicode="&#x2026;" horiz-adv-x="769" 
d="M78 60q0 30 21 51t51 21t51 -21t21 -51q0 -29 -21 -50t-51 -21t-51 21t-21 50zM335 60q0 30 21 51t51 21t51 -21t21 -51q0 -29 -21 -50t-51 -21t-51 21t-21 50zM591 60q0 30 21 51t51 21t51 -21t21 -51q0 -29 -21 -50t-51 -21t-51 21t-21 50z" />
    <glyph glyph-name="perthousand" unicode="&#x2030;" horiz-adv-x="1060" 
d="M724 128q0 59 40.5 99.5t99.5 40.5q58 0 98.5 -40.5t40.5 -99.5q0 -58 -40.5 -98.5t-98.5 -40.5q-59 0 -99.5 40t-40.5 99zM815 128q0 -22 14.5 -36t34.5 -14q18 0 32.5 14t14.5 36q0 23 -14.5 37t-32.5 14q-20 0 -34.5 -14t-14.5 -37zM57 572q0 59 40.5 99.5t99.5 40.5
t99 -40.5t40 -99.5q0 -58 -40.5 -98.5t-98.5 -40.5t-99 40.5t-41 98.5zM148 572q0 -22 14.5 -36t34.5 -14q18 0 32.5 14t14.5 36q0 23 -14.5 37.5t-32.5 14.5q-20 0 -34.5 -14.5t-14.5 -37.5zM399 128q0 58 40.5 99t99.5 41q58 0 98.5 -40.5t40.5 -99.5q0 -58 -40 -98.5
t-99 -40.5t-99.5 40.5t-40.5 98.5zM490 128q0 -22 14.5 -36t34.5 -14q18 0 32.5 14t14.5 36q0 23 -14.5 37t-32.5 14q-20 0 -34.5 -14t-14.5 -37zM115 34l424 690l82 -55l-425 -692z" />
    <glyph glyph-name="guilsinglleft" unicode="&#x2039;" horiz-adv-x="365" 
d="M34 245l137 245h125l-139 -245l139 -245h-125z" />
    <glyph glyph-name="guilsinglright" unicode="&#x203a;" horiz-adv-x="365" 
d="M194 490l137 -245l-137 -245h-125l139 245l-139 245h125z" />
    <glyph glyph-name="fraction" unicode="&#x2044;" horiz-adv-x="622" 
d="M19 0l432 701h117l-432 -701h-117z" />
    <glyph glyph-name="Euro" unicode="&#x20ac;" horiz-adv-x="716" 
d="M63 382v99h83q29 107 103.5 169t182.5 62q135 0 217 -109l-76 -79q-56 80 -143 80q-52 0 -95 -31t-65 -92h214v-99h-234q-1 -11 -1 -33q0 -25 1 -36h234v-99h-214q45 -117 161 -117q86 0 153 76l75 -83q-96 -101 -228 -101q-109 0 -182.5 60t-101.5 165h-84v99h68
q0 6 -0.5 18t-0.5 18q0 22 1 33h-68z" />
    <glyph glyph-name="trademark" unicode="&#x2122;" horiz-adv-x="870" 
d="M23 701h301v-79h-109v-314h-86v314h-106v79zM545 377l-73 151v-220h-86v393h91l111 -234l113 234h89v-393h-85v220l-72 -151h-88z" />
    <glyph glyph-name="arrownorthwest" unicode="&#x2196;" horiz-adv-x="669" 
d="M521 413h-253l356 -355l-81 -81l-355 356v-253h-108v441h441v-108z" />
    <glyph glyph-name="arrownortheast" unicode="&#x2197;" horiz-adv-x="669" 
d="M401 413h-253v108h441v-441h-108v253l-355 -356l-81 81z" />
    <glyph glyph-name="arrowsoutheast" unicode="&#x2198;" horiz-adv-x="669" 
d="M182 108h253l-356 355l81 81l355 -356v253h108v-441h-441v108z" />
    <glyph glyph-name="arrowsouthwest" unicode="&#x2199;" horiz-adv-x="669" 
d="M268 108h253v-108h-441v441h108v-253l355 356l81 -81z" />
    <glyph glyph-name="partialdiff" unicode="&#x2202;" horiz-adv-x="587" 
d="M275 -11q-86 0 -152 63.5t-66 169.5q0 103 67.5 167.5t155.5 64.5q84 0 134 -46q-4 90 -47 143t-105 53q-70 0 -112 -60l-75 78q73 90 193 90q126 0 194 -103t68 -269q0 -169 -68 -260t-187 -91zM286 348q-49 0 -83.5 -34.5t-34.5 -91.5q0 -60 31 -93.5t77 -33.5
q58 0 90 35t32 99q0 54 -33.5 86.5t-78.5 32.5z" />
    <glyph glyph-name="product" unicode="&#x220f;" horiz-adv-x="652" 
d="M462 -194v582h-272v-582h-110v684h492v-684h-110z" />
    <glyph glyph-name="summation" unicode="&#x2211;" horiz-adv-x="530" 
d="M179 595l197 -341l-197 -342h294v-106h-422v101l199 347l-199 347v100h422v-106h-294z" />
    <glyph glyph-name="minus" unicode="&#x2212;" horiz-adv-x="650" 
d="M80 207v105h490v-105h-490z" />
    <glyph glyph-name="radical" unicode="&#x221a;" horiz-adv-x="727" 
d="M46 490h185l127 -344l204 555h120l-262 -701h-122l-148 388h-104v102z" />
    <glyph glyph-name="infinity" unicode="&#x221e;" horiz-adv-x="1156" 
d="M578 341l5 7q24 33 44 55.5t50.5 47.5t69 38t84.5 13q110 0 183.5 -75t73.5 -182t-73.5 -181.5t-183.5 -74.5q-49 0 -88 12.5t-70 39.5t-46 45t-42 55l-7 9l-6 -8q-27 -37 -42.5 -55t-47 -45.5t-70.5 -40t-87 -12.5q-109 0 -183 74.5t-74 181.5t74 182t183 75
q49 0 88 -12.5t70.5 -40t46.5 -45.5t42 -55zM648 245l36 -49q36 -50 69.5 -76.5t77.5 -26.5q61 0 102.5 43.5t41.5 108.5t-41.5 108.5t-102.5 43.5q-44 0 -77 -26t-70 -77zM325 397q-61 0 -102.5 -43.5t-41.5 -108.5t41.5 -108.5t102.5 -43.5q44 0 77 26.5t71 77.5l35 48
l-36 49q-37 51 -70 77t-77 26z" />
    <glyph glyph-name="integral" unicode="&#x222b;" horiz-adv-x="348" 
d="M117 8v507q0 186 198 186l44 -1v-103q-15 1 -26 1q-53 0 -78 -23.5t-25 -76.5v-507q0 -186 -197 -186l-44 1v103q14 -1 26 -1q53 0 77.5 23.5t24.5 76.5z" />
    <glyph glyph-name="approxequal" unicode="&#x2248;" horiz-adv-x="663" 
d="M258 433l148 -35q28 -7 45 -7q40 0 40 43h97q5 -64 -28 -106t-98 -42q-28 0 -56 7l-148 35q-28 7 -46 7q-40 0 -40 -43h-97q-4 64 29 106t98 42q28 0 56 -7zM258 235l148 -36q32 -6 45 -6q40 0 40 43h97q5 -64 -28 -106t-98 -42q-28 0 -56 7l-148 35q-37 7 -46 7
q-40 0 -40 -44h-97q-4 65 29 107t98 42q28 0 56 -7z" />
    <glyph glyph-name="notequal" unicode="&#x2260;" horiz-adv-x="650" 
d="M80 297v105h283l55 88h113l-54 -88h93v-105h-158l-56 -91h214v-105h-278l-62 -101h-114l62 101h-98v105h163l56 91h-219z" />
    <glyph glyph-name="lessequal" unicode="&#x2264;" horiz-adv-x="605" 
d="M46 173v137l490 192v-116l-308 -108h308v-105h-490zM46 0v105h490v-105h-490z" />
    <glyph glyph-name="greaterequal" unicode="&#x2265;" horiz-adv-x="605" 
d="M559 310v-137h-490v105h308l-308 108v116zM559 105v-105h-490v105h490z" />
    <glyph glyph-name="lozenge" unicode="&#x25ca;" horiz-adv-x="673" 
d="M287 701h98l219 -454l-219 -452h-98l-219 452zM188 247l148 -313l148 313l-148 315z" />
    <glyph glyph-name="fi" unicode="&#xfb01;" horiz-adv-x="661" 
d="M463 0v388h-233v-388h-113v388h-83v102h83v25q0 186 198 186l45 -1v-103q-20 1 -27 1q-53 0 -78 -23.5t-25 -76.5v-8h347v-490h-114zM449 635q0 30 21 51t51 21t51 -21t21 -51t-21 -51t-51 -21t-51 21t-21 51z" />
    <glyph glyph-name="fl" unicode="&#xfb02;" horiz-adv-x="665" 
d="M315 701h270v-701h-114v598h-138q-53 0 -78 -23.5t-25 -76.5v-8h129v-102h-129v-388h-113v388h-83v102h83v25q0 186 198 186z" />
    <glyph glyph-name="acutecap" horiz-adv-x="642" 
d="M331 872h146l-109 -103h-123z" />
    <glyph glyph-name="caroncap" horiz-adv-x="642" 
d="M396 769h-136l-91 103h113l46 -44l46 44h113z" />
    <glyph glyph-name="ringcap" 
d="M242 781q0 44 30 73t70 29q43 0 73.5 -29t30.5 -73q0 -42 -30 -72t-74 -30q-40 0 -70 30.5t-30 71.5zM304 781q0 -16 12 -27.5t28 -11.5t27.5 11.5t11.5 27.5t-11.5 27.5t-27.5 11.5t-28 -11.5t-12 -27.5z" />
    <glyph glyph-name="gravecap" horiz-adv-x="642" 
d="M182 872h146l86 -103h-123z" />
    <glyph glyph-name="circumflexcap" horiz-adv-x="642" 
d="M262 872h136l91 -103h-113l-46 44l-46 -44h-113z" />
    <glyph glyph-name="zero.onum" horiz-adv-x="718" 
d="M359 -11q-118 0 -204.5 80.5t-86.5 204.5t86.5 204.5t204.5 80.5t204.5 -80.5t86.5 -204.5t-86.5 -204.5t-204.5 -80.5zM359 450q-73 0 -122 -49.5t-49 -126.5q0 -78 49 -127.5t122 -49.5t122 49.5t49 127.5q0 77 -49 126.5t-122 49.5z" />
    <glyph glyph-name="one.onum" horiz-adv-x="544" 
d="M63 108h162v289q-63 -50 -162 -50v104q129 6 173 96h108v-439h154v-108h-435v108z" />
    <glyph glyph-name="two.onum" horiz-adv-x="583" 
d="M205 108h317v-108h-454v23q0 109 53.5 175t164.5 105l35 13q50 17 67 34t17 41q0 26 -23.5 42.5t-68.5 16.5q-107 0 -163 -103l-76 76q37 63 97.5 99.5t135.5 36.5q94 0 156.5 -45t62.5 -124q0 -112 -151 -169l-56 -20q-31 -11 -45 -17.5t-31.5 -17.5t-25.5 -24.5
t-12 -33.5z" />
    <glyph glyph-name="three.onum" horiz-adv-x="598" 
d="M430 220q41 -20 70.5 -63t29.5 -98q0 -97 -69 -152t-177 -55q-69 0 -133 31.5t-105 81.5l81 81q68 -86 163 -86q52 0 86 27.5t34 70.5q0 98 -143 98h-53v110h41q138 0 138 98q0 41 -31 63.5t-77 22.5q-84 0 -145 -76l-77 77q95 108 221 108q95 0 162 -49.5t67 -142.5
q0 -90 -83 -147z" />
    <glyph glyph-name="four.onum" horiz-adv-x="651" 
d="M594 0h-97v-137h-120v137h-320v97l329 450h111v-439h97v-108zM187 108h190v266z" />
    <glyph glyph-name="five.onum" horiz-adv-x="627" 
d="M450 90q0 54 -38 88t-95 34q-41 0 -74 -21t-48 -58h-108l17 414h410v-108h-301l-8 -161q52 42 130 42q96 0 165.5 -62t69.5 -174q0 -101 -73.5 -166.5t-192.5 -65.5q-74 0 -133 30.5t-97 81.5l83 82q58 -86 153 -86q62 0 101 35.5t39 94.5z" />
    <glyph glyph-name="six.onum" horiz-adv-x="661" 
d="M341 -11q-126 0 -196.5 94.5t-70.5 261.5q0 161 76.5 255.5t208.5 94.5q127 0 204 -90l-76 -79q-54 61 -130 61q-68 0 -116 -52.5t-49 -156.5q55 70 160 70q95 0 162 -64t67 -165q0 -105 -69.5 -167.5t-170.5 -62.5zM341 340q-48 0 -83.5 -33t-35.5 -87q0 -52 35 -87.5
t88 -35.5q50 0 83.5 32.5t33.5 89.5q0 54 -34.5 87.5t-86.5 33.5z" />
    <glyph glyph-name="seven.onum" horiz-adv-x="592" 
d="M57 316v231h489v-100q-213 -222 -242 -544l-3 -40h-121l4 39q27 310 213 537h-225v-123h-115z" />
    <glyph glyph-name="eight.onum" horiz-adv-x="600" 
d="M300 -11q-109 0 -176 56t-67 143q0 55 30 99t69 65q-32 19 -57 59t-25 93q0 83 63 137t163 54t163 -54t63 -137q0 -53 -25.5 -93.5t-57.5 -58.5q39 -21 69.5 -65t30.5 -99q0 -87 -67 -143t-176 -56zM300 295q-54 0 -88.5 -28t-34.5 -72q0 -43 35.5 -70.5t87.5 -27.5
t87.5 27.5t35.5 70.5t-35 71.5t-88 28.5zM300 587q-43 0 -74.5 -23.5t-31.5 -68.5q0 -38 28.5 -64.5t77.5 -26.5q48 0 77 27t29 64q0 45 -31.5 68.5t-74.5 23.5z" />
    <glyph glyph-name="nine.onum" horiz-adv-x="661" 
d="M315 559q126 0 196 -95t70 -262q0 -161 -76.5 -255.5t-208.5 -94.5q-127 0 -204 90l77 80q54 -62 130 -62q67 0 115.5 52.5t49.5 156.5q-56 -70 -161 -70q-95 0 -162 64t-67 165q0 105 70 168t171 63zM315 207q47 0 82.5 33t35.5 87q0 52 -35 87.5t-88 35.5
q-50 0 -83 -32.5t-33 -89.5q0 -54 34.5 -87.5t86.5 -33.5z" />
    <glyph glyph-name="zero.ss01" horiz-adv-x="638" 
d="M57 351q0 71 15 134t45.5 115t82 82t119.5 30t119.5 -30t82 -82t45.5 -115t15 -134t-15 -134t-45.5 -115t-82.5 -82.5t-119 -30.5t-119 30.5t-82.5 82.5t-45.5 115t-15 134zM319 607q-70 0 -108 -67.5t-38 -188.5q0 -44 4 -73l256 249q-39 80 -114 80zM464 351
q0 25 -4 67l-254 -247q37 -77 113 -77q70 0 107.5 67.5t37.5 189.5z" />
    <glyph glyph-name="one.ss01" horiz-adv-x="561" 
d="M68 108h174v485h-162v108h281v-593h166v-108h-459v108z" />
    <glyph glyph-name="two.ss01" horiz-adv-x="606" 
d="M200 503q0 -42 30.5 -70.5t72.5 -28.5q43 0 73 28.5t30 70.5t-30 70.5t-72 28.5q-43 0 -73.5 -28.5t-30.5 -70.5zM81 502q0 88 65 149t158 61q94 0 157.5 -58.5t63.5 -149.5q0 -106 -98 -204l-192 -192h299v-108h-460v102l193 194q-75 4 -130.5 62.5t-55.5 143.5z" />
    <glyph glyph-name="three.ss01" horiz-adv-x="610" 
d="M513 598l-158 -175q81 -18 133.5 -74.5t52.5 -142.5q0 -101 -71 -159t-180 -58q-74 0 -138.5 31t-105.5 81l81 81q69 -85 168 -85q56 0 91.5 29t35.5 79t-40 79t-110 29h-69v104l156 176h-291v108h445v-103z" />
    <glyph glyph-name="four.ss01" horiz-adv-x="605" 
d="M433 413v-146h127v-108h-127v-159h-120v159h-267v197l250 344h138l-272 -377v-56h151v146h120z" />
    <glyph glyph-name="five.ss01" horiz-adv-x="593" 
d="M439 227q0 56 -35.5 92t-94.5 36q-40 0 -72 -22t-45 -57h-107v425h418v-108h-300v-161q53 31 118 31q98 0 168 -60t70 -176q0 -105 -74 -171.5t-197 -66.5q-143 0 -225 111l83 82q63 -85 151 -85q66 0 104 36t38 94z" />
    <glyph glyph-name="six.ss01" horiz-adv-x="611" 
d="M300 -11q-106 0 -174.5 70t-68.5 175q0 90 84 211l178 256h140l-177 -251q11 4 29 4q96 0 164 -64t68 -168q0 -107 -70.5 -170t-172.5 -63zM177 221q0 -55 36 -89.5t87 -34.5t87 34.5t36 89.5t-36 89.5t-87 34.5t-87 -34.5t-36 -89.5z" />
    <glyph glyph-name="seven.ss01" horiz-adv-x="546" 
d="M34 470v231h478v-108l-257 -593h-128l259 593h-238v-123h-114z" />
    <glyph glyph-name="eight.ss01" horiz-adv-x="588" 
d="M289 -11q-107 0 -172 59t-65 147q0 111 88 166q-30 22 -50.5 61.5t-20.5 89.5q0 87 60.5 143.5t159.5 56.5q100 0 160 -56t60 -144q0 -50 -20.5 -89.5t-50.5 -61.5q88 -55 88 -166q0 -92 -64.5 -149t-172.5 -57zM289 304q-53 0 -85 -30t-32 -75q0 -47 32.5 -74.5
t84.5 -27.5t85 27.5t33 74.5q0 48 -32.5 76.5t-85.5 28.5zM289 604q-41 0 -70.5 -25.5t-29.5 -71.5q0 -41 25.5 -67.5t74.5 -26.5q48 0 74 26.5t26 67.5q0 46 -29.5 71.5t-70.5 25.5z" />
    <glyph glyph-name="nine.ss01" horiz-adv-x="611" 
d="M311 712q106 0 174.5 -70t68.5 -175q0 -90 -84 -211l-178 -256h-139l176 250q-12 -3 -29 -3q-96 0 -164 64t-68 168q0 107 70.5 170t172.5 63zM434 480q0 55 -36 89.5t-87 34.5t-87 -34.5t-36 -89.5t36 -89.5t87 -34.5t87 34.5t36 89.5z" />
    <glyph glyph-name="A.ss01" horiz-adv-x="674" 
d="M455 700l189 -700h-121l-39 142h-294l-39 -142h-121l189 700h236zM307 596l-90 -347h241l-92 347h-59z" />
    <glyph glyph-name="Aacute.ss01" horiz-adv-x="684" 
d="M460 700l189 -700h-121l-39 142h-294l-39 -142h-121l189 700h236zM312 596l-90 -347h241l-92 347h-59zM336 872h146l-109 -103h-123z" />
    <glyph glyph-name="Agrave.ss01" horiz-adv-x="684" 
d="M460 700l189 -700h-121l-39 142h-294l-39 -142h-121l189 700h236zM312 596l-90 -347h241l-92 347h-59zM207 872h146l86 -103h-123z" />
    <glyph glyph-name="Acircumflex.ss01" horiz-adv-x="684" 
d="M460 700l189 -700h-121l-39 142h-294l-39 -142h-121l189 700h236zM312 596l-90 -347h241l-92 347h-59zM290 872h136l91 -103h-113l-46 44l-46 -44h-113z" />
    <glyph glyph-name="Adieresis.ss01" horiz-adv-x="684" 
d="M460 700l189 -700h-121l-39 142h-294l-39 -142h-121l189 700h236zM312 596l-90 -347h241l-92 347h-59zM184 821q0 26 18.5 44.5t43.5 18.5q26 0 44.5 -19t18.5 -44t-18.5 -44t-44.5 -19q-25 0 -43.5 18.5t-18.5 44.5zM375 821q0 25 18.5 44t44.5 19q25 0 43.5 -18.5
t18.5 -44.5t-18.5 -44.5t-43.5 -18.5q-26 0 -44.5 19t-18.5 44z" />
    <glyph glyph-name="Atilde.ss01" horiz-adv-x="684" 
d="M460 700l189 -700h-121l-39 142h-294l-39 -142h-121l189 700h236zM312 596l-90 -347h241l-92 347h-59zM425 872h80q0 -49 -25 -81.5t-63 -32.5q-21 0 -42 7l-40 15q-27 8 -33 8q-22 0 -24 -24h-80q0 49 25 81.5t63 32.5q21 0 42 -7l40 -15q27 -8 33 -8q22 0 24 24z" />
    <glyph glyph-name="Aring.ss01" horiz-adv-x="684" 
d="M240 781q0 44 30 73t70 29q43 0 73.5 -29t30.5 -73q0 -50 -41 -81h57l189 -700h-121l-39 142h-294l-39 -142h-121l189 700h56q-40 32 -40 81zM312 596l-90 -347h241l-92 347h-59zM302 781q0 -16 12 -27.5t28 -11.5t27.5 11.5t11.5 27.5t-11.5 27.5t-27.5 11.5t-28 -11.5
t-12 -27.5z" />
    <glyph glyph-name="AE.ss01" horiz-adv-x="893" 
d="M224 700h600v-107h-335l49 -181h269v-108h-240l53 -197h204v-107h-296l-39 142h-294l-39 -142h-121zM312 596l-90 -347h241l-92 347h-59z" />
    <glyph glyph-name="Ccedilla.ss01" horiz-adv-x="700" 
d="M434 -136h-112v131q-132 21 -214 117t-82 237q0 162 102.5 262.5t259.5 100.5q176 0 273 -132l-77 -80q-72 103 -194 103q-104 0 -173 -72t-69 -182q0 -108 70 -179.5t176 -71.5q123 0 202 105l75 -82q-92 -117 -237 -130v-127z" />
    <glyph glyph-name="G.ss01" horiz-adv-x="754" 
d="M412 259v108h279v-367h-118v28q-80 -39 -173 -39q-148 0 -251 101.5t-103 258.5q0 161 102.5 262t258.5 101q175 0 274 -132l-78 -80q-72 103 -194 103q-104 0 -172.5 -72t-68.5 -182q0 -108 69.5 -179.5t176.5 -71.5q93 0 159 58v103h-161z" />
    <glyph glyph-name="I.ss01" horiz-adv-x="473" 
d="M63 593v108h347v-108h-114v-485h114v-108h-347v108h114v485h-114z" />
    <glyph glyph-name="Iacute.ss01" horiz-adv-x="473" 
d="M63 593v108h347v-108h-114v-485h114v-108h-347v108h114v485h-114zM251 872h146l-109 -103h-123z" />
    <glyph glyph-name="Igrave.ss01" horiz-adv-x="473" 
d="M63 593v108h347v-108h-114v-485h114v-108h-347v108h114v485h-114zM75 872h146l86 -103h-123z" />
    <glyph glyph-name="Icircumflex.ss01" horiz-adv-x="473" 
d="M63 593v108h347v-108h-114v-485h114v-108h-347v108h114v485h-114zM169 872h136l91 -103h-113l-46 44l-46 -44h-113z" />
    <glyph glyph-name="Idieresis.ss01" horiz-adv-x="473" 
d="M63 593v108h347v-108h-114v-485h114v-108h-347v108h114v485h-114zM79 821q0 26 18.5 44.5t43.5 18.5t44 -19t19 -44t-19 -44t-44 -19t-43.5 18.5t-18.5 44.5zM270 821q0 25 19 44t44 19t43.5 -18.5t18.5 -44.5t-18.5 -44.5t-43.5 -18.5t-44 19t-19 44z" />
    <glyph glyph-name="J.ss01" horiz-adv-x="561" 
d="M154 593v108h338v-460q0 -121 -58.5 -186.5t-170.5 -65.5q-108 0 -168.5 66t-60.5 174v21h120v-21q0 -68 31 -100t78 -32q59 0 84.5 35t25.5 109v352h-219z" />
    <glyph glyph-name="K.ss01" horiz-adv-x="612" 
d="M58 0v701h117v-280h77l190 280h127l-226 -331l232 -370h-127l-194 308h-79v-308h-117z" />
    <glyph glyph-name="M.ss01" horiz-adv-x="861" 
d="M428 195l106 506h252v-701h-120v592h-33l-130 -592h-150l-127 592h-32v-592h-119v701h250z" />
    <glyph glyph-name="Q.ss01" horiz-adv-x="811" 
d="M50 351q0 153 101.5 257t252.5 104t254 -104t103 -257q0 -154 -103 -258t-254 -104t-252.5 104t-101.5 258zM388 273l79 81l140 -140q34 60 34 137q0 107 -66 179t-167 72q-103 0 -169.5 -72t-66.5 -179q0 -109 66.5 -181t169.5 -72q67 0 121 34z" />
    <glyph glyph-name="V.ss01" horiz-adv-x="674" 
d="M367 104l161 596h121l-194 -700h-236l-194 700h121l162 -596h59z" />
    <glyph glyph-name="W.ss01" horiz-adv-x="972" 
d="M541 0l-54 203l-56 -203h-211l-205 701h126l164 -593h43l76 275l-88 318h106l44 -154l40 154h110l-88 -318l76 -275h43l164 593h126l-205 -701h-211z" />
    <glyph glyph-name="X.ss01" horiz-adv-x="656" 
d="M360 304h-64l-136 -304h-125l159 359l-146 342h125l123 -286h64l123 286h125l-146 -342l159 -359h-125z" />
    <glyph glyph-name="a.ss01" horiz-adv-x="532" 
d="M98 390v100h359v-490h-224q-81 0 -129.5 42.5t-48.5 113.5q0 70 49.5 113t128.5 43h112v78h-247zM231 98h114v116h-114q-73 0 -73 -58t73 -58z" />
    <glyph glyph-name="aacute.ss01" horiz-adv-x="532" 
d="M98 390v100h359v-490h-224q-81 0 -129.5 42.5t-48.5 113.5q0 70 49.5 113t128.5 43h112v78h-247zM345 214h-114q-73 0 -73 -58t73 -58h114v116zM289 701h140l-119 -131h-112z" />
    <glyph glyph-name="agrave.ss01" horiz-adv-x="532" 
d="M98 390v100h359v-490h-224q-81 0 -129.5 42.5t-48.5 113.5q0 70 49.5 113t128.5 43h112v78h-247zM345 214h-114q-73 0 -73 -58t73 -58h114v116zM148 701h140l91 -131h-112z" />
    <glyph glyph-name="acircumflex.ss01" horiz-adv-x="536" 
d="M98 390v100h359v-490h-224q-81 0 -129.5 42.5t-48.5 113.5q0 70 49.5 113t128.5 43h112v78h-247zM215 701h129l97 -131h-112l-50 60l-50 -60h-111zM345 214h-114q-73 0 -73 -58t73 -58h114v116z" />
    <glyph glyph-name="adieresis.ss01" horiz-adv-x="536" 
d="M98 390v100h359v-490h-224q-81 0 -129.5 42.5t-48.5 113.5q0 70 49.5 113t128.5 43h112v78h-247zM231 98h114v116h-114q-73 0 -73 -58t73 -58zM122 644q0 26 18.5 44.5t43.5 18.5q26 0 44.5 -18.5t18.5 -44.5t-18.5 -44.5t-44.5 -18.5q-25 0 -43.5 18.5t-18.5 44.5z
M313 644q0 26 18.5 44.5t44.5 18.5q25 0 43.5 -18.5t18.5 -44.5t-18.5 -44.5t-43.5 -18.5q-26 0 -44.5 18.5t-18.5 44.5z" />
    <glyph glyph-name="atilde.ss01" horiz-adv-x="532" 
d="M98 390v100h359v-490h-224q-81 0 -129.5 42.5t-48.5 113.5q0 70 49.5 113t128.5 43h112v78h-247zM359 701h80q0 -49 -25 -81.5t-63 -32.5q-21 0 -42 7l-40 15q-27 8 -33 8q-22 0 -24 -24h-80q0 49 25 81.5t63 32.5q21 0 42 -7l40 -15q27 -8 33 -8q22 0 24 24zM345 214
h-114q-73 0 -73 -58t73 -58h114v116z" />
    <glyph glyph-name="aring.ss01" horiz-adv-x="532" 
d="M98 390v100h359v-490h-224q-81 0 -129.5 42.5t-48.5 113.5q0 70 49.5 113t128.5 43h112v78h-247zM277 712q34 0 57.5 -22.5t23.5 -57.5q0 -33 -24 -56t-57 -23t-57 23t-24 56q0 35 23.5 57.5t57.5 22.5zM345 214h-114q-73 0 -73 -58t73 -58h114v116zM277 609
q10 0 16.5 6.5t6.5 16.5t-6.5 16t-16.5 6t-16.5 -6t-6.5 -16t6.5 -16.5t16.5 -6.5z" />
    <glyph glyph-name="ae.ss01" horiz-adv-x="773" 
d="M702 101v-101h-484q-72 0 -117.5 39t-45.5 108q0 68 46.5 107.5t116.5 39.5h127v96h-247v100h359v-1h102q73 0 118 -38.5t45 -107.5q0 -68 -46.5 -107.5t-116.5 -39.5h-102v-95h245zM345 196h-130q-27 0 -42 -13.5t-15 -35.5q0 -23 15 -36t42 -13h130v98zM562 391h-105
v-97h105q27 0 42 13.5t15 35.5q0 48 -57 48z" />
    <glyph glyph-name="ccedilla.ss01" horiz-adv-x="545" 
d="M353 -136h-112v133q-81 21 -132.5 88.5t-51.5 159.5q0 109 72 183t174 74q123 0 199 -98l-79 -76q-53 70 -117 70q-58 0 -95.5 -43t-37.5 -110t38 -110t96 -43q43 0 70.5 18.5t55.5 57.5l78 -73q-58 -84 -158 -101v-130z" />
    <glyph glyph-name="e.ss01" horiz-adv-x="477" 
d="M246 151q-42 0 -74 15v-65h245v-101h-357v312q0 87 53.5 138.5t132.5 51.5t132.5 -50.5t53.5 -125.5t-54.5 -125t-131.5 -50zM246 255q33 0 54 21t21 50t-21 50.5t-54 21.5t-54 -21.5t-21 -50.5t21 -50t54 -21z" />
    <glyph glyph-name="eacute.ss01" horiz-adv-x="511" 
d="M263 151q-43 0 -74 15v-65h245v-101h-357v312q0 87 53.5 138.5t132.5 51.5t132.5 -50.5t53.5 -125.5t-54.5 -125t-131.5 -50zM263 255q33 0 54 21t21 50t-21 50.5t-54 21.5t-54 -21.5t-21 -50.5t21 -50t54 -21zM275 701h140l-119 -131h-112z" />
    <glyph glyph-name="egrave.ss01" horiz-adv-x="511" 
d="M263 151q-43 0 -74 15v-65h245v-101h-357v312q0 87 53.5 138.5t132.5 51.5t132.5 -50.5t53.5 -125.5t-54.5 -125t-131.5 -50zM263 255q33 0 54 21t21 50t-21 50.5t-54 21.5t-54 -21.5t-21 -50.5t21 -50t54 -21zM112 701h140l91 -131h-112z" />
    <glyph glyph-name="ecircumflex.ss01" horiz-adv-x="511" 
d="M263 151q-43 0 -74 15v-65h245v-101h-357v312q0 87 53.5 138.5t132.5 51.5t132.5 -50.5t53.5 -125.5t-54.5 -125t-131.5 -50zM200 701h129l97 -131h-112l-50 60l-50 -60h-111zM263 255q33 0 54 21t21 50t-21 50.5t-54 21.5t-54 -21.5t-21 -50.5t21 -50t54 -21z" />
    <glyph glyph-name="edieresis.ss01" horiz-adv-x="511" 
d="M263 151q-43 0 -74 15v-65h245v-101h-357v312q0 87 53.5 138.5t132.5 51.5t132.5 -50.5t53.5 -125.5t-54.5 -125t-131.5 -50zM263 255q33 0 54 21t21 50t-21 50.5t-54 21.5t-54 -21.5t-21 -50.5t21 -50t54 -21zM105 644q0 26 18.5 44.5t43.5 18.5t44 -18.5t19 -44.5
t-19 -44.5t-44 -18.5t-43.5 18.5t-18.5 44.5zM296 644q0 26 19 44.5t44 18.5t43.5 -18.5t18.5 -44.5t-18.5 -44.5t-43.5 -18.5t-44 18.5t-19 44.5z" />
    <glyph glyph-name="f.ss01" horiz-adv-x="418" 
d="M23 387v103h70v62q0 70 45 115t117 45q73 0 118 -43t45 -112v-11h-114v10q0 24 -13.5 38.5t-35.5 14.5t-35 -16t-13 -42v-61h211v-103h-211v-387h-114v387h-70z" />
    <glyph glyph-name="g.ss01" horiz-adv-x="573" 
d="M523 490v-105h-57q39 -49 39 -111q0 -87 -53.5 -142t-123.5 -63l185 -163v-100h-443v102h282l-186 159q-106 90 -106 207q0 92 64.5 154t157.5 62h241zM392 274q0 46 -31 77.5t-79 31.5q-47 0 -78 -31.5t-31 -77.5t31 -77.5t79 -31.5q47 0 78 31.5t31 77.5z" />
    <glyph glyph-name="h.ss01" horiz-adv-x="581" 
d="M194 490h308v-490h-114v382h-194v-382h-114v700h114v-210z" />
    <glyph glyph-name="j.ss01" horiz-adv-x="293" 
d="M215 -194h-225v102h110v582h115v-684zM85 641q0 30 21 50.5t51 20.5t51 -20.5t21 -50.5t-21 -51t-51 -21t-51 21t-21 51z" />
    <glyph glyph-name="k.ss01" horiz-adv-x="503" 
d="M70 0v701h114v-401h73l101 190h121l-129 -245l138 -245h-121l-111 192h-72v-192h-114z" />
    <glyph glyph-name="l.ss01" horiz-adv-x="233" 
d="M173 0h-113v701h113v-701z" />
    <glyph glyph-name="m.ss01" horiz-adv-x="861" 
d="M781 490v-490h-114v382h-180v-382h-113v382h-180v-382h-114v490h701z" />
    <glyph glyph-name="n.ss01" horiz-adv-x="581" 
d="M80 490h422v-490h-114v382h-194v-382h-114v490z" />
    <glyph glyph-name="ntilde.ss01" horiz-adv-x="581" 
d="M502 490h-422v-490h114v382h194v-382h114v490zM367 701h80q0 -49 -25 -81.5t-63 -32.5q-21 0 -42 7l-40 15q-27 8 -33 8q-22 0 -24 -24h-80q0 49 25 81.5t63 32.5q21 0 42 -7l40 -15q27 -8 33 -8q22 0 24 24z" />
    <glyph glyph-name="oe.ss01" horiz-adv-x="848" 
d="M620 157q-46 0 -80 17q-12 -39 -35 -72h284v-102h-481h-10q-108 0 -180.5 70.5t-72.5 179.5t73 180.5t180 71.5q102 0 176 -68q51 68 146 68q78 0 130.5 -49t52.5 -124q0 -73 -53.5 -122.5t-129.5 -49.5zM161 250q0 -66 38 -106.5t99 -40.5q60 0 98 40.5t38 106.5
t-38 107t-98 41t-98.5 -41t-38.5 -107zM620 261q30 0 49.5 20t19.5 48t-19.5 48.5t-49.5 20.5q-31 0 -50 -20t-19 -49t19 -48.5t50 -19.5z" />
    <glyph glyph-name="r.ss01" horiz-adv-x="374" 
d="M182 382v-382h-114v490h272v-108h-158z" />
    <glyph glyph-name="s.ss01" horiz-adv-x="484" 
d="M233 502q115 0 184 -79l-65 -88q-61 64 -120 64q-56 0 -56 -36q0 -23 43 -49l215 -132q0 -80 -50.5 -136.5t-149.5 -56.5q-126 0 -197 92l63 86q66 -75 140 -75q54 0 68 43l-153 89q-94 53 -94 136q0 63 50.5 102.5t121.5 39.5z" />
    <glyph glyph-name="t.ss01" horiz-adv-x="393" 
d="M342 0h-236v388h-83v102h83v137h113v-137h129v-102h-129v-280h123v-108z" />
    <glyph glyph-name="u.ss01" horiz-adv-x="570" 
d="M490 0h-410v490h114v-382h182v382h114v-490z" />
    <glyph glyph-name="uacute.ss01" horiz-adv-x="570" 
d="M80 0h410v490h-114v-382h-182v382h-114v-490zM298 701h140l-119 -131h-112z" />
    <glyph glyph-name="ugrave.ss01" horiz-adv-x="570" 
d="M490 0h-410v490h114v-382h182v382h114v-490zM133 701h140l91 -131h-112z" />
    <glyph glyph-name="ucircumflex.ss01" horiz-adv-x="570" 
d="M80 0h410v490h-114v-382h-182v382h-114v-490zM220 701h129l97 -131h-112l-50 60l-50 -60h-111z" />
    <glyph glyph-name="udieresis.ss01" horiz-adv-x="570" 
d="M80 0h410v490h-114v-382h-182v382h-114v-490zM127 644q0 26 18.5 44.5t43.5 18.5t44 -18.5t19 -44.5t-19 -44.5t-44 -18.5t-43.5 18.5t-18.5 44.5zM318 644q0 26 19 44.5t44 18.5t43.5 -18.5t18.5 -44.5t-18.5 -44.5t-43.5 -18.5t-44 18.5t-19 44.5z" />
    <glyph glyph-name="y.ss01" horiz-adv-x="550" 
d="M333 -194h-118v185l-200 499h127l133 -357l133 357h127l-202 -499v-185z" />
    <glyph glyph-name="yacute.ss01" horiz-adv-x="560" 
d="M338 -194h-118v185l-200 499h127l133 -357l133 357h127l-202 -499v-185zM287 701h140l-119 -131h-112z" />
    <glyph glyph-name="ydieresis.ss01" horiz-adv-x="540" 
d="M328 -194h-118v185l-200 499h127l133 -357l133 357h127l-202 -499v-185zM112 644q0 26 18.5 44.5t43.5 18.5q26 0 44.5 -18.5t18.5 -44.5t-18.5 -44.5t-44.5 -18.5q-25 0 -43.5 18.5t-18.5 44.5zM303 644q0 26 18.5 44.5t44.5 18.5q25 0 43.5 -18.5t18.5 -44.5
t-18.5 -44.5t-43.5 -18.5q-26 0 -44.5 18.5t-18.5 44.5z" />
    <glyph glyph-name="period.ss01" horiz-adv-x="326" 
d="M80 72q0 35 24 59t59 24t59 -24t24 -59t-24 -59t-59 -24t-59 24t-24 59z" />
    <glyph glyph-name="colon.ss01" horiz-adv-x="326" 
d="M80 72q0 35 24 59t59 24t59 -24t24 -59t-24 -59t-59 -24t-59 24t-24 59zM80 419q0 35 24 59t59 24t59 -24t24 -59t-24 -59t-59 -24t-59 24t-24 59z" />
    <glyph glyph-name="comma.ss01" horiz-adv-x="326" 
d="M121 -148l-89 39l93 229l100 -44z" />
    <glyph glyph-name="semicolon.ss01" horiz-adv-x="326" 
d="M125 -150l-99 43l99 227l100 -44zM80 419q0 35 24 59t59 24t59 -24t24 -59t-24 -59t-59 -24t-59 24t-24 59z" />
    <glyph glyph-name="ellipsis.ss01" horiz-adv-x="837" 
d="M80 72q0 35 24 59t59 24t59 -24t24 -59t-24 -59t-59 -24t-59 24t-24 59zM335 72q0 35 24 59t59 24t59 -24t24 -59t-24 -59t-59 -24t-59 24t-24 59zM591 72q0 35 24 59t59 24t59 -24t24 -59t-24 -59t-59 -24t-59 24t-24 59z" />
    <glyph glyph-name="question.ss01" horiz-adv-x="535" 
d="M304 228h-117v166h33q62 0 105.5 29t43.5 82q0 45 -32 71.5t-78 26.5q-99 0 -154 -98l-77 83q86 124 230 124q100 0 165.5 -58.5t65.5 -150.5q0 -78 -50.5 -133t-134.5 -72v-70zM163 72q0 35 24 59t59 24t59 -24t24 -59t-24 -59t-59 -24t-59 24t-24 59z" />
    <glyph glyph-name="questiondown.ss01" horiz-adv-x="535" 
d="M331 267h-118v-69q-84 -17 -134.5 -69.5t-50.5 -129.5q0 -92 65.5 -148t166.5 -56q72 0 131 33.5t98 90.5l-76 83q-55 -98 -154 -98q-48 0 -79.5 24.5t-31.5 68.5q0 53 43 78.5t107 25.5h33v166zM188 418q0 35 24 59.5t59 24.5t59.5 -24.5t24.5 -59.5t-24.5 -59
t-59.5 -24t-59 24.5t-24 58.5z" />
    <glyph glyph-name="exclam.ss01" horiz-adv-x="326" 
d="M104 228v473h118v-473h-118zM81 72q0 35 24 59t59 24t59 -24t24 -59t-24 -59t-59 -24t-59 24t-24 59z" />
    <glyph glyph-name="exclamdown.ss01" horiz-adv-x="326" 
d="M222 262v-456h-118v456h118zM80 418q0 35 24 59.5t59 24.5t59 -24.5t24 -59.5t-24 -59t-59 -24t-59 24t-24 59z" />
    <glyph glyph-name="quotedblleft.ss01" horiz-adv-x="458" 
d="M145 442l-99 44l104 224l88 -39zM319 442l-99 44l105 224l88 -39z" />
    <glyph glyph-name="quotedblright.ss01" horiz-adv-x="458" 
d="M313 713l99 -44l-104 -224l-88 39zM139 713l99 -44l-105 -224l-88 39z" />
    <glyph glyph-name="quoteleft.ss01" horiz-adv-x="284" 
d="M145 442l-99 44l104 224l88 -39z" />
    <glyph glyph-name="quoteright.ss01" horiz-adv-x="284" 
d="M139 711l99 -44l-104 -224l-88 39z" />
    <glyph glyph-name="quotesinglbase.ss01" horiz-adv-x="284" 
d="M139 114l99 -44l-104 -224l-88 39z" />
    <glyph glyph-name="quotedblbase.ss01" horiz-adv-x="458" 
d="M313 120l99 -44l-104 -224l-88 39zM139 120l99 -44l-105 -224l-88 39z" />
    <glyph glyph-name="ampersand.ss01" horiz-adv-x="687" 
d="M359 594h-40q-54 0 -82 -25t-28 -65t27.5 -64t82.5 -24h108v285h114v-285h114v-106h-114v-310h-245q-98 0 -165.5 52t-67.5 149q0 109 89 168q-59 56 -59 137q0 87 69 141t163 54h34v-107zM182 206q0 -44 34 -71t87 -27h124v202h-121q-56 0 -90 -26.5t-34 -77.5z" />
    <glyph glyph-name="germandbls.ss01" horiz-adv-x="620" 
d="M274 307v106l133 180h-215v-593h-117v700h469v-102l-140 -185q76 -6 131 -61t55 -139q0 -91 -63 -152t-165 -61h-88v116h72q57 0 90 24.5t33 72.5q0 47 -32.5 70.5t-90.5 23.5h-72z" />
    <glyph glyph-name="dollar.ss01" horiz-adv-x="673" 
d="M369 290l-85 14q-100 18 -155 70.5t-55 137.5q0 82 59.5 135t150.5 62v106h108v-110q107 -20 188 -105l-83 -88q-76 92 -181 92q-60 0 -91 -26.5t-31 -62.5q0 -77 116 -95l70 -12q113 -18 168.5 -74t55.5 -142q0 -79 -56.5 -133t-155.5 -66v-107h-108v107
q-138 17 -227 130l81 82q38 -50 87.5 -79t125.5 -29q64 0 98.5 26t34.5 67q0 80 -115 100z" />
    <glyph glyph-name="zero.ss02" horiz-adv-x="648" 
d="M471 351q0 118 -38 185.5t-109 67.5t-109 -67.5t-38 -185.5t38 -186t109 -68t109 68t38 186zM57 351q0 160 69.5 260.5t197.5 100.5t197.5 -100.5t69.5 -260.5t-69.5 -261t-197.5 -101t-197.5 101t-69.5 261z" />
    <glyph glyph-name="one.ss02" horiz-adv-x="344" 
d="M145 0v482l-111 -86v129l221 186h9v-711h-119z" />
    <glyph glyph-name="two.ss02" horiz-adv-x="602" 
d="M269 108h265v-108h-490v9l298 364q65 79 65 137q0 41 -30.5 67.5t-77.5 26.5q-55 0 -97.5 -33.5t-66.5 -88.5l-78 78q34 69 96.5 110.5t142.5 41.5q98 0 165 -54t67 -146q0 -91 -114 -229z" />
    <glyph glyph-name="three.ss02" horiz-adv-x="610" 
d="M533 690l-182 -262q87 -17 138.5 -69t51.5 -138q0 -102 -73 -167t-183 -65q-75 0 -137 29.5t-102 82.5l81 81q63 -85 163 -85q56 0 94 31.5t38 81.5q0 55 -43 84t-127 29h-94v10l180 260h-270v108h465v-11z" />
    <glyph glyph-name="four.ss02" horiz-adv-x="622" 
d="M577 154h-97v-154h-120v154h-360v10l466 554h14v-456h97v-108zM213 262h147v178z" />
    <glyph glyph-name="five.ss02" horiz-adv-x="560" 
d="M406 227q0 55 -39 91.5t-97 36.5q-42 0 -76.5 -21t-52.5 -55l-98 30l92 392h335v-108h-246l-43 -163q48 32 118 32q93 0 160 -63.5t67 -169.5q0 -105 -73.5 -172.5t-192.5 -67.5q-72 0 -131.5 31t-98.5 80l83 82q65 -85 155 -85q60 0 99 37t39 93z" />
    <glyph glyph-name="six.ss02" horiz-adv-x="600" 
d="M300 -11q-106 0 -174.5 70t-68.5 175q0 90 84 211l178 256h137l-177 -251q11 4 32 4q96 0 164 -64t68 -168q0 -107 -70.5 -170t-172.5 -63zM177 221q0 -55 36 -89.5t87 -34.5t87 34.5t36 89.5t-36 89.5t-87 34.5t-87 -34.5t-36 -89.5z" />
    <glyph glyph-name="seven.ss02" horiz-adv-x="546" 
d="M34 593v108h495v-14l-274 -687h-128l242 593h-335z" />
    <glyph glyph-name="eight.ss02" horiz-adv-x="588" 
d="M294 -11q-107 0 -174.5 64.5t-67.5 156.5q0 62 28 111t75 75q-63 53 -63 131t55.5 131.5t146.5 53.5q90 0 146 -54t56 -131q0 -78 -63 -131q47 -26 75 -75t28 -111q0 -92 -67.5 -156.5t-174.5 -64.5zM294 334q-53 0 -88 -34t-35 -86q0 -51 35.5 -84t87.5 -33t87.5 33
t35.5 84q0 52 -35 86t-88 34zM294 604q-35 0 -58.5 -23t-23.5 -59q0 -35 23 -57t59 -22t59 22t23 57q0 36 -23.5 59t-58.5 23z" />
    <glyph glyph-name="nine.ss02" horiz-adv-x="621" 
d="M311 712q106 0 174.5 -70t68.5 -175q0 -90 -84 -211l-178 -256h-137l177 251q-16 -4 -32 -4q-96 0 -164 64t-68 168q0 107 70.5 170t172.5 63zM434 480q0 55 -36 89.5t-87 34.5t-87 -34.5t-36 -89.5t36 -89.5t87 -34.5t87 34.5t36 89.5z" />
    <glyph glyph-name="A.ss02" 
d="M351 718l327 -718h-127l-71 149h-273l-68 -149h-128l326 718h14zM344 465l-92 -206h185z" />
    <glyph glyph-name="Aacute.ss02" 
d="M351 718l327 -718h-127l-71 149h-273l-68 -149h-128l326 718h14zM344 465l-92 -206h185zM364 872h146l-109 -103h-123z" />
    <glyph glyph-name="Agrave.ss02" 
d="M351 718l327 -718h-127l-71 149h-273l-68 -149h-128l326 718h14zM344 465l-92 -206h185zM175 872h146l86 -103h-123z" />
    <glyph glyph-name="Acircumflex.ss02" 
d="M351 718l327 -718h-127l-71 149h-273l-68 -149h-128l326 718h14zM344 465l-92 -206h185zM277 872h136l91 -103h-113l-46 44l-46 -44h-113z" />
    <glyph glyph-name="Adieresis.ss02" 
d="M351 718l327 -718h-127l-71 149h-273l-68 -149h-128l326 718h14zM344 465l-92 -206h185zM186 821q0 26 18.5 44.5t43.5 18.5q26 0 44.5 -19t18.5 -44t-18.5 -44t-44.5 -19q-25 0 -43.5 18.5t-18.5 44.5zM377 821q0 25 18.5 44t44.5 19q25 0 43.5 -18.5t18.5 -44.5
t-18.5 -44.5t-43.5 -18.5q-26 0 -44.5 19t-18.5 44z" />
    <glyph glyph-name="Atilde.ss02" 
d="M351 718l327 -718h-127l-71 149h-273l-68 -149h-128l326 718h14zM344 465l-92 -206h185zM418 878h80q0 -49 -25 -81.5t-63 -32.5q-21 0 -42 7l-40 15q-27 8 -33 8q-22 0 -24 -24h-80q0 49 25 81.5t63 32.5q21 0 42 -7l40 -15q27 -8 33 -8q22 0 24 24z" />
    <glyph glyph-name="Aring.ss02" 
d="M243 781q0 44 30 73t70 29q43 0 73.5 -29t30.5 -73q0 -35 -22.5 -63t-57.5 -36l311 -682h-127l-71 149h-273l-68 -149h-128l309 681q-33 8 -55 36.5t-22 63.5zM344 465l-92 -206h185zM305 781q0 -16 12 -27.5t28 -11.5t27.5 11.5t11.5 27.5t-11.5 27.5t-27.5 11.5
t-28 -11.5t-12 -27.5z" />
    <glyph glyph-name="AE.ss02" horiz-adv-x="921" 
d="M853 701v-108h-445l82 -181h346v-109h-296l89 -195h224v-108h-302l-71 149h-273l-68 -149h-128l318 701h524zM344 465l-92 -206h185z" />
    <glyph glyph-name="K.ss02" horiz-adv-x="611" 
d="M188 306v-306h-120v701h120v-287l236 287h148l-280 -340l296 -361h-149z" />
    <glyph glyph-name="M.ss02" horiz-adv-x="832" 
d="M410 98l-211 284v-382h-119v718h13l323 -431l323 431h13v-718h-119v382l-209 -284h-14z" />
    <glyph glyph-name="N.ss02" horiz-adv-x="747" 
d="M653 -17l-454 452v-435h-119v718h13l454 -455v438h120v-718h-14z" />
    <glyph glyph-name="Ntilde.ss02" horiz-adv-x="747" 
d="M653 -17l-454 452v-435h-119v718h13l454 -455v438h120v-718h-14zM431 878h80q0 -49 -25 -81.5t-63 -32.5q-21 0 -42 7l-40 15q-27 8 -33 8q-22 0 -24 -24h-80q0 49 25 81.5t63 32.5q21 0 42 -7l40 -15q27 -8 33 -8q22 0 24 24z" />
    <glyph glyph-name="Q.ss02" horiz-adv-x="819" 
d="M46 351q0 153 101.5 257t252.5 104t254 -104t103 -257q0 -127 -74 -225l84 -83l-81 -81l-86 86q-88 -59 -200 -59q-151 0 -252.5 104t-101.5 258zM168 351q0 -109 66.5 -181t169.5 -72q101 0 167 72.5t66 180.5q0 107 -66 179t-167 72q-103 0 -169.5 -72t-66.5 -179z" />
    <glyph glyph-name="R.ss02" horiz-adv-x="649" 
d="M488 0l-194 239h-95v-239h-119v701h267q124 0 195.5 -60.5t71.5 -168.5q0 -88 -48 -146.5t-134 -77.5l200 -248h-144zM332 593h-133v-245h133q163 0 163 123q0 122 -163 122z" />
    <glyph glyph-name="S.ss02" horiz-adv-x="597" 
d="M334 290l-103 41q-154 61 -154 190q0 89 63 140t158 51q127 0 211 -103l-78 -79q-55 76 -139 76q-47 0 -73 -24.5t-26 -57.5q0 -31 21 -53t75 -43l79 -32q93 -38 133.5 -85t40.5 -120q0 -86 -67.5 -144t-181.5 -58q-83 0 -147 35t-101 93l77 79q64 -102 180 -102
q56 0 90 26t34 68q0 34 -21 58t-71 44z" />
    <glyph glyph-name="Scaron.ss02" horiz-adv-x="597" 
d="M334 290l-103 41q-154 61 -154 190q0 89 63 140t158 51q127 0 211 -103l-78 -79q-55 76 -139 76q-47 0 -73 -24.5t-26 -57.5q0 -31 21 -53t75 -43l79 -32q93 -38 133.5 -85t40.5 -120q0 -86 -67.5 -144t-181.5 -58q-83 0 -147 35t-101 93l77 79q64 -102 180 -102
q56 0 90 26t34 68q0 34 -21 58t-71 44zM363 769h-136l-91 103h113l46 -44l46 44h113z" />
    <glyph glyph-name="V.ss02" horiz-adv-x="667" 
d="M334 258l181 443h123l-297 -718h-14l-299 718h124z" />
    <glyph glyph-name="W.ss02" horiz-adv-x="935" 
d="M659 292l125 409h128l-228 -718h-14l-203 456l-203 -456h-13l-228 717h127l127 -408l185 426h13z" />
    <glyph glyph-name="Z.ss02" horiz-adv-x="686" 
d="M81 701h560v-14l-394 -579h377v-108h-578v14l394 579h-359v108z" />
    <glyph glyph-name="Zcaron.ss02" horiz-adv-x="663" 
d="M81 701h560v-14l-394 -579h377v-108h-578v14l394 579h-359v108zM417 769h-136l-91 103h113l46 -44l46 44h113z" />
    <glyph glyph-name="a.ss02" horiz-adv-x="610" 
d="M55 245q0 111 67 184t172 73q85 0 139 -56v44h112v-490h-114v36q-59 -47 -137 -47q-105 0 -172 72.5t-67 183.5zM171 245q0 -66 33.5 -112t96.5 -46t97.5 46t34.5 112q0 65 -34.5 109t-97.5 44t-96.5 -43.5t-33.5 -109.5z" />
    <glyph glyph-name="aacute.ss02" horiz-adv-x="610" 
d="M55 245q0 -111 67 -183.5t172 -72.5q78 0 137 47v-36h114v490h-112v-44q-54 56 -139 56q-105 0 -172 -73t-67 -184zM171 245q0 66 33.5 109.5t96.5 43.5t97.5 -44t34.5 -109q0 -66 -34.5 -112t-97.5 -46t-96.5 46t-33.5 112zM317 701h140l-119 -131h-112z" />
    <glyph glyph-name="agrave.ss02" horiz-adv-x="610" 
d="M55 245q0 111 67 184t172 73q85 0 139 -56v44h112v-490h-114v36q-59 -47 -137 -47q-105 0 -172 72.5t-67 183.5zM171 245q0 -66 33.5 -112t96.5 -46t97.5 46t34.5 112q0 65 -34.5 109t-97.5 44t-96.5 -43.5t-33.5 -109.5zM174 701h140l91 -131h-112z" />
    <glyph glyph-name="acircumflex.ss02" horiz-adv-x="610" 
d="M55 245q0 -111 67 -183.5t172 -72.5q78 0 137 47v-36h114v490h-112v-44q-54 56 -139 56q-105 0 -172 -73t-67 -184zM171 245q0 66 33.5 109.5t96.5 43.5t97.5 -44t34.5 -109q0 -66 -34.5 -112t-97.5 -46t-96.5 46t-33.5 112zM249 701h129l97 -131h-112l-50 60l-50 -60
h-111z" />
    <glyph glyph-name="adieresis.ss02" horiz-adv-x="610" 
d="M55 245q0 -111 67 -183.5t172 -72.5q78 0 137 47v-36h114v490h-112v-44q-54 56 -139 56q-105 0 -172 -73t-67 -184zM171 245q0 66 33.5 109.5t96.5 43.5t97.5 -44t34.5 -109q0 -66 -34.5 -112t-97.5 -46t-96.5 46t-33.5 112zM155 644q0 26 18.5 44.5t43.5 18.5t44 -18.5
t19 -44.5t-19 -44.5t-44 -18.5t-43.5 18.5t-18.5 44.5zM346 644q0 26 19 44.5t44 18.5t43.5 -18.5t18.5 -44.5t-18.5 -44.5t-43.5 -18.5t-44 18.5t-19 44.5z" />
    <glyph glyph-name="atilde.ss02" horiz-adv-x="610" 
d="M55 245q0 -111 67 -183.5t172 -72.5q78 0 137 47v-36h114v490h-112v-44q-54 56 -139 56q-105 0 -172 -73t-67 -184zM171 245q0 66 33.5 109.5t96.5 43.5t97.5 -44t34.5 -109q0 -66 -34.5 -112t-97.5 -46t-96.5 46t-33.5 112zM378 701h80q0 -49 -25 -81.5t-63 -32.5
q-21 0 -42 7l-40 15q-27 8 -33 8q-22 0 -24 -24h-80q0 49 25 81.5t63 32.5q21 0 42 -7l40 -15q27 -8 33 -8q22 0 24 24z" />
    <glyph glyph-name="aring.ss02" horiz-adv-x="610" 
d="M55 245q0 -111 67 -183.5t172 -72.5q78 0 137 47v-36h114v490h-112v-44q-54 56 -139 56q-105 0 -172 -73t-67 -184zM171 245q0 66 33.5 109.5t96.5 43.5t97.5 -44t34.5 -109q0 -66 -34.5 -112t-97.5 -46t-96.5 46t-33.5 112zM307 712q34 0 57.5 -22.5t23.5 -57.5
q0 -33 -24 -56t-57 -23t-57 23t-24 56q0 35 23.5 57.5t57.5 22.5zM307 609q10 0 16.5 6.5t6.5 16.5t-6.5 16t-16.5 6t-16.5 -6t-6.5 -16t6.5 -16.5t16.5 -6.5z" />
    <glyph glyph-name="k.ss02" horiz-adv-x="522" 
d="M70 0v701h114v-398l162 187h138l-205 -235l215 -255h-142l-168 202v-202h-114z" />
    <glyph glyph-name="v.ss02" horiz-adv-x="472" 
d="M461 490l-218 -507h-14l-218 507h124l101 -252l101 252h124z" />
    <glyph glyph-name="w.ss02" horiz-adv-x="725" 
d="M218 237l138 270h13l144 -270l72 253h123l-163 -507h-14l-168 308l-169 -308h-14l-163 507h123z" />
    <glyph glyph-name="z.ss02" horiz-adv-x="528" 
d="M60 490h417v-13l-256 -372h252v-105h-439v14l252 371h-226v105z" />
    <glyph glyph-name="zcaron.ss02" horiz-adv-x="505" 
d="M60 490h417v-13l-256 -372h252v-105h-439v14l252 371h-226v105zM332 570h-140l-97 131h110l56 -65l56 65h112z" />
    <glyph glyph-name="question.ss02" horiz-adv-x="505" 
d="M221 455l46 20q33 14 47 30t14 41q0 26 -23 43.5t-57 17.5q-76 0 -132 -78l-71 76q30 44 85 75.5t118 31.5q85 0 138.5 -48.5t53.5 -120.5q0 -59 -33.5 -97t-107.5 -69l-43 -18q-46 -20 -46 -49q0 -13 9 -21.5t23 -8.5q23 0 42 23l67 -61q-42 -60 -115 -60q-57 0 -95 35
t-38 91q0 96 118 147zM173 60q0 30 21 51t51 21t51 -21t21 -51q0 -29 -21 -50t-51 -21t-51 21t-21 50z" />
    <glyph glyph-name="questiondown.ss02" horiz-adv-x="490" 
d="M283 47l-46 -20q-61 -25 -61 -68q0 -25 22.5 -42t57.5 -17q76 0 132 78l71 -76q-30 -44 -85 -75.5t-118 -31.5q-85 0 -138.5 47.5t-53.5 116.5q0 59 33.5 97t107.5 69l43 18q19 8 27 12.5t13.5 11t5.5 15.5q0 13 -9 21.5t-23 8.5q-23 0 -42 -23l-67 61q42 60 115 60
q57 0 95 -35t38 -91q0 -47 -28.5 -79t-89.5 -58zM341 432q0 -30 -21 -51t-51 -21t-51 21t-21 51q0 29 21 50t51 21t51 -21t21 -50z" />
    <glyph glyph-name="ampersand.ss02" horiz-adv-x="687" 
d="M519 0l-45 56q-85 -67 -189 -67q-115 0 -174.5 60t-59.5 139q0 130 143 209l10 5q-36 50 -49 85t-13 72q0 65 49.5 108.5t128.5 43.5q78 0 128.5 -47.5t50.5 -114.5q0 -55 -34.5 -99t-82.5 -72l-10 -6l125 -160l92 75l66 -84l-95 -76l99 -127h-140zM282 92q74 0 125 48
l-137 177l-4 -2q-98 -48 -98 -123q0 -43 33.5 -71.5t80.5 -28.5zM319 608q-22 0 -40 -16t-18 -43q0 -33 38 -84l7 -9l6 3q71 40 71 88q0 28 -18 44.5t-46 16.5z" />
    <glyph glyph-name="germandbls.ss02" horiz-adv-x="638" 
d="M74 0v435q0 131 67.5 203.5t189.5 72.5q93 0 162 -56.5t69 -143.5q0 -86 -58 -142q89 -59 89 -168q0 -97 -67.5 -149t-166.5 -52h-89v108h80q53 0 88 27t35 71q0 51 -34 77.5t-91 26.5h-78v106h77q48 0 74 27t26 68q0 40 -31 68.5t-85 28.5q-143 0 -143 -173v-435h-114z
" />
    <glyph glyph-name="dollar.ss02" horiz-adv-x="597" 
d="M334 290l-103 41q-154 61 -154 190q0 78 49 127t128 61v106h97v-108q91 -18 158 -98l-78 -79q-55 76 -139 76q-47 0 -73 -24.5t-26 -57.5q0 -31 21 -53t75 -43l79 -32q93 -38 133.5 -85t40.5 -120q0 -74 -51 -128.5t-140 -68.5v-108h-97v105q-70 8 -123.5 41.5
t-85.5 84.5l77 79q64 -102 180 -102q56 0 90 26t34 68q0 34 -21 58t-71 44z" />
    <glyph glyph-name="zero.ss03" horiz-adv-x="648" 
d="M471 351q0 118 -38 185.5t-109 67.5t-109 -67.5t-38 -185.5t38 -186t109 -68t109 68t38 186zM57 351q0 160 69.5 260.5t197.5 100.5t197.5 -100.5t69.5 -260.5t-69.5 -261t-197.5 -101t-197.5 101t-69.5 261z" />
    <glyph glyph-name="one.ss03" horiz-adv-x="470" 
d="M207 0v500h-161v90q69 0 111.5 23t66.5 88h103v-701h-120z" />
    <glyph glyph-name="two.ss03" horiz-adv-x="586" 
d="M299 604q-49 0 -78 -28.5t-34 -81.5h-121q9 102 71.5 160t160.5 58q94 0 156 -58.5t62 -150.5q0 -68 -38.5 -118.5t-108.5 -97.5l-59 -39q-36 -23 -54 -38t-37.5 -42t-25.5 -60h319v-108h-457v23q0 202 188 319l58 36q51 32 72.5 62t21.5 69q0 40 -25.5 67.5t-70.5 27.5z
" />
    <glyph glyph-name="three.ss03" horiz-adv-x="607" 
d="M433 369q48 -20 78.5 -63t30.5 -101q0 -96 -74 -156t-179 -60q-107 0 -174 59.5t-75 155.5h122q9 -56 47 -81.5t90 -25.5q53 0 88.5 28t35.5 78q0 47 -36 73.5t-105 26.5h-62v107h41q62 0 100 26t38 74q0 42 -31 68t-76 26q-44 0 -76 -24.5t-39 -70.5h-119q9 96 77 149.5
t157 53.5q94 0 160 -51.5t66 -142.5q0 -101 -85 -149z" />
    <glyph glyph-name="four.ss03" horiz-adv-x="622" 
d="M577 154h-97v-154h-120v154h-320v97l329 450h111v-439h97v-108zM170 262h190v266z" />
    <glyph glyph-name="five.ss03" horiz-adv-x="575" 
d="M421 227q0 56 -33 91t-88 35q-40 0 -69.5 -20.5t-42.5 -53.5h-115l24 422h391v-108h-283l-9 -167q45 36 113 36q99 0 165 -63.5t66 -175.5q0 -106 -65 -170t-180 -64q-97 0 -158.5 56t-73.5 144h121q17 -92 119 -92q54 0 86 36.5t32 93.5z" />
    <glyph glyph-name="six.ss03" horiz-adv-x="616" 
d="M320 604q-68 0 -104.5 -57t-38.5 -163q61 70 164 70q96 0 164 -64t68 -168q0 -107 -71 -170t-173 -63q-129 0 -199.5 99.5t-70.5 268.5q0 164 69 259.5t200 95.5q89 0 151.5 -54.5t76.5 -136.5h-124q-9 38 -38 60.5t-74 22.5zM329 345q-51 0 -87 -33.5t-36 -88.5
q0 -53 35.5 -89.5t92.5 -36.5q53 0 86.5 34t33.5 91q0 55 -34.5 89t-90.5 34z" />
    <glyph glyph-name="seven.ss03" horiz-adv-x="569" 
d="M46 593v108h489v-100q-213 -222 -242 -561l-3 -40h-121l3 39q30 331 213 554h-339z" />
    <glyph glyph-name="eight.ss03" horiz-adv-x="611" 
d="M306 -11q-111 0 -180 56t-69 150q0 113 99 166q-33 19 -57.5 57t-24.5 94q0 90 65 145t167 55t166.5 -55t64.5 -145q0 -56 -24.5 -94t-57.5 -57q99 -53 99 -166q0 -94 -69 -150t-179 -56zM306 304q-56 0 -92.5 -29t-36.5 -76q0 -49 37 -75.5t92 -26.5t91.5 26.5
t36.5 75.5q0 50 -36.5 77.5t-91.5 27.5zM306 604q-45 0 -78.5 -24.5t-33.5 -72.5q0 -43 30 -68.5t82 -25.5q51 0 81 25.5t30 68.5q0 48 -33.5 72.5t-77.5 24.5z" />
    <glyph glyph-name="nine.ss03" horiz-adv-x="598" 
d="M294 97q68 0 105 57t39 163q-61 -70 -164 -70q-97 0 -165 63.5t-68 168.5q0 107 71 170t173 63q129 0 199.5 -99t70.5 -269q0 -164 -69 -259.5t-200 -95.5q-89 0 -151.5 54.5t-76.5 136.5h124q10 -38 38.5 -60.5t73.5 -22.5zM285 356q51 0 87 33.5t36 88.5
q0 53 -35.5 89.5t-92.5 36.5q-53 0 -86 -34t-33 -91q0 -55 34.5 -89t89.5 -34z" />
    <glyph glyph-name="A.ss03" 
d="M405 701l273 -701h-125l-75 189h-268l-73 -189h-126l274 701h120zM344 539l-92 -240h185z" />
    <glyph glyph-name="Aacute.ss03" 
d="M405 701l273 -701h-125l-75 189h-268l-73 -189h-126l274 701h120zM344 539l-92 -240h185zM348 872h146l-109 -103h-123z" />
    <glyph glyph-name="Agrave.ss03" 
d="M405 701l273 -701h-125l-75 189h-268l-73 -189h-126l274 701h120zM344 539l-92 -240h185zM182 872h146l86 -103h-123z" />
    <glyph glyph-name="Acircumflex.ss03" 
d="M405 701l273 -701h-125l-75 189h-268l-73 -189h-126l274 701h120zM344 539l-92 -240h185zM277 872h136l91 -103h-113l-46 44l-46 -44h-113z" />
    <glyph glyph-name="Adieresis.ss03" 
d="M405 701l273 -701h-125l-75 189h-268l-73 -189h-126l274 701h120zM344 539l-92 -240h185zM194 769v103h115v-103h-115zM379 769v103h115v-103h-115z" />
    <glyph glyph-name="Atilde.ss03" 
d="M405 701l273 -701h-125l-75 189h-268l-73 -189h-126l274 701h120zM344 539l-92 -240h185zM412 872h80q0 -49 -25 -81.5t-63 -32.5q-21 0 -42 7l-40 15q-27 8 -33 8q-22 0 -24 -24h-80q0 49 25 81.5t63 32.5q21 0 42 -7l40 -15q27 -8 33 -8q22 0 24 24z" />
    <glyph glyph-name="Aring.ss03" 
d="M242 781q0 44 30 73t70 29q43 0 73.5 -29t30.5 -73q0 -50 -41 -81l273 -700h-125l-75 189h-268l-73 -189h-126l273 698q-42 32 -42 83zM344 539l-92 -240h185zM304 781q0 -16 12 -27.5t28 -11.5t27.5 11.5t11.5 27.5t-11.5 27.5t-27.5 11.5t-28 -11.5t-12 -27.5z" />
    <glyph glyph-name="AE.ss03" horiz-adv-x="921" 
d="M853 701v-108h-406l70 -181h319v-109h-276l76 -195h217v-108h-300l-75 189h-268l-73 -189h-126l274 701h568zM344 539l-92 -240h185z" />
    <glyph glyph-name="C.ss03" horiz-adv-x="637" 
d="M362 606q-98 0 -147 -73.5t-49 -181.5q0 -110 49 -183t147 -73q55 0 93 21t70 65l72 -79q-90 -113 -239 -113q-142 0 -225 103t-83 259q0 154 83 257.5t225 103.5q78 0 132.5 -27t100.5 -84l-74 -82q-60 87 -155 87z" />
    <glyph glyph-name="Ccedilla.ss03" horiz-adv-x="637" 
d="M350 -137h-115l67 131q-118 20 -185 119t-67 238q0 154 83 257.5t225 103.5q78 0 132.5 -27t100.5 -84l-74 -82q-60 87 -155 87q-98 0 -147 -73.5t-49 -181.5q0 -110 49 -183t147 -73q55 0 93 21t70 65l72 -79q-76 -96 -191 -110z" />
    <glyph glyph-name="D.ss03" horiz-adv-x="675" 
d="M312 594h-116v-489h116q93 0 143 65.5t50 178.5q0 114 -49.5 179.5t-143.5 65.5zM80 700h228q141 0 226.5 -93.5t85.5 -257.5q0 -162 -85.5 -255.5t-226.5 -93.5h-228v700z" />
    <glyph glyph-name="Edieresis.ss03" horiz-adv-x="642" 
d="M80 0v701h493v-108h-374v-181h357v-109h-357v-195h374v-108h-493zM182 769v103h115v-103h-115zM367 769v103h115v-103h-115z" />
    <glyph glyph-name="Idieresis.ss03" horiz-adv-x="279" 
d="M80 0v701h119v-701h-119zM-11 769v103h115v-103h-115zM174 769v103h115v-103h-115z" />
    <glyph glyph-name="G.ss03" horiz-adv-x="752" 
d="M580 259h-173v108h285v-367h-101v77q-32 -41 -86.5 -64.5t-115.5 -23.5q-147 0 -245 100.5t-98 259.5q0 162 100.5 262.5t255.5 100.5q180 0 279 -132l-78 -80q-72 103 -198 103q-103 0 -170 -72t-67 -182q0 -108 63.5 -179.5t159.5 -71.5q83 0 132.5 43t56.5 118z" />
    <glyph glyph-name="J.ss03" horiz-adv-x="561" 
d="M373 241v460h119v-460q0 -121 -58.5 -186.5t-170.5 -65.5q-108 0 -168.5 66t-60.5 174v21h120v-21q0 -68 31 -100t78 -32q59 0 84.5 35t25.5 109z" />
    <glyph glyph-name="M.ss03" horiz-adv-x="878" 
d="M384 0l-185 487v-487h-119v701h155l204 -546l204 546h155v-701h-120v487l-184 -487h-110z" />
    <glyph glyph-name="O.ss03" horiz-adv-x="720" 
d="M50 351q0 154 83 257.5t225 103.5q143 0 227.5 -103.5t84.5 -257.5q0 -156 -84.5 -259t-227.5 -103q-142 0 -225 103t-83 259zM166 351q0 -110 49 -183t147 -73q66 0 110.5 37t63.5 93t19 126q0 108 -48.5 181.5t-144.5 73.5q-98 0 -147 -73.5t-49 -181.5z" />
    <glyph glyph-name="Oacute.ss03" horiz-adv-x="720" 
d="M50 351q0 154 83 257.5t225 103.5q143 0 227.5 -103.5t84.5 -257.5q0 -156 -84.5 -259t-227.5 -103q-142 0 -225 103t-83 259zM166 351q0 -110 49 -183t147 -73q66 0 110.5 37t63.5 93t19 126q0 108 -48.5 181.5t-144.5 73.5q-98 0 -147 -73.5t-49 -181.5zM372 872h146
l-109 -103h-123z" />
    <glyph glyph-name="Ograve.ss03" horiz-adv-x="720" 
d="M50 351q0 154 83 257.5t225 103.5q143 0 227.5 -103.5t84.5 -257.5q0 -156 -84.5 -259t-227.5 -103q-142 0 -225 103t-83 259zM166 351q0 -110 49 -183t147 -73q66 0 110.5 37t63.5 93t19 126q0 108 -48.5 181.5t-144.5 73.5q-98 0 -147 -73.5t-49 -181.5zM212 872h146
l86 -103h-123z" />
    <glyph glyph-name="Ocircumflex.ss03" horiz-adv-x="720" 
d="M50 351q0 154 83 257.5t225 103.5q143 0 227.5 -103.5t84.5 -257.5q0 -156 -84.5 -259t-227.5 -103q-142 0 -225 103t-83 259zM166 351q0 -110 49 -183t147 -73q66 0 110.5 37t63.5 93t19 126q0 108 -48.5 181.5t-144.5 73.5q-98 0 -147 -73.5t-49 -181.5zM290 872h136
l91 -103h-113l-46 44l-46 -44h-113z" />
    <glyph glyph-name="Odieresis.ss03" horiz-adv-x="720" 
d="M50 351q0 154 83 257.5t225 103.5q143 0 227.5 -103.5t84.5 -257.5q0 -156 -84.5 -259t-227.5 -103q-142 0 -225 103t-83 259zM166 351q0 -110 49 -183t147 -73q66 0 110.5 37t63.5 93t19 126q0 108 -48.5 181.5t-144.5 73.5q-98 0 -147 -73.5t-49 -181.5zM210 769v103
h115v-103h-115zM395 769v103h115v-103h-115z" />
    <glyph glyph-name="Otilde.ss03" horiz-adv-x="720" 
d="M50 351q0 154 83 257.5t225 103.5q143 0 227.5 -103.5t84.5 -257.5q0 -156 -84.5 -259t-227.5 -103q-142 0 -225 103t-83 259zM166 351q0 -110 49 -183t147 -73q66 0 110.5 37t63.5 93t19 126q0 108 -48.5 181.5t-144.5 73.5q-98 0 -147 -73.5t-49 -181.5zM434 872h80
q0 -49 -25 -81.5t-63 -32.5q-21 0 -42 7l-40 15q-27 8 -33 8q-22 0 -24 -24h-80q0 49 25 81.5t63 32.5q21 0 42 -7l40 -15q27 -8 33 -8q22 0 24 24z" />
    <glyph glyph-name="Q.ss03" horiz-adv-x="725" 
d="M50 356q0 154 83 255t225 101q143 0 227.5 -101.5t84.5 -254.5q0 -155 -84 -255l99 10v-111h-327q-143 0 -225.5 100.5t-82.5 255.5zM166 356q0 -109 49 -179.5t147 -70.5q97 0 145 70.5t48 179.5q0 108 -48 179t-145 71q-98 0 -147 -71t-49 -179z" />
    <glyph glyph-name="R.ss03" horiz-adv-x="655" 
d="M625 0h-123l-24 113q-19 89 -52.5 119t-112.5 30h-114v-262h-119v701h272q122 0 189.5 -58t67.5 -160q0 -58 -33.5 -109.5t-81.5 -70.5q16 -6 28.5 -13.5t21.5 -20t15 -19.5t11.5 -25.5t7.5 -24t7 -28t6 -26.5zM353 593h-154v-223h154q137 0 137 112q0 53 -34.5 82
t-102.5 29z" />
    <glyph glyph-name="Udieresis.ss03" horiz-adv-x="702" 
d="M514 311v390h120v-390q0 -157 -76.5 -239.5t-206.5 -82.5t-206.5 82.5t-76.5 239.5v390h120v-391q0 -213 163 -213t163 214zM201 769v103h115v-103h-115zM386 769v103h115v-103h-115z" />
    <glyph glyph-name="Ydieresis.ss03" horiz-adv-x="635" 
d="M150 701l168 -326l166 326h128l-235 -456v-245h-119v245l-235 456h127zM174 769v103h115v-103h-115zM359 769v103h115v-103h-115z" />
    <glyph glyph-name="a.ss03" horiz-adv-x="524" 
d="M205 -11q-76 0 -120.5 43.5t-44.5 104.5q0 65 48 104t134 50l109 14v27q0 68 -77 68q-37 0 -58 -16t-24 -44h-116q5 71 59 116.5t138 45.5q86 0 138.5 -42.5t52.5 -122.5v-187q0 -35 9 -45t35 -10h11v-95q-29 -2 -52 -2q-73 0 -86 53q-58 -62 -156 -62zM153 140
q0 -22 18.5 -36t48.5 -14q51 0 81 27t30 84v15l-109 -17q-69 -11 -69 -59z" />
    <glyph glyph-name="aacute.ss03" horiz-adv-x="524" 
d="M205 -11q-76 0 -120.5 43.5t-44.5 104.5q0 65 48 104t134 50l109 14v27q0 68 -77 68q-37 0 -58 -16t-24 -44h-116q5 71 59 116.5t138 45.5q86 0 138.5 -42.5t52.5 -122.5v-187q0 -35 9 -45t35 -10h11v-95q-29 -2 -52 -2q-73 0 -86 53q-58 -62 -156 -62zM153 140
q0 -22 18.5 -36t48.5 -14q51 0 81 27t30 84v15l-109 -17q-69 -11 -69 -59zM261 701h140l-119 -131h-112z" />
    <glyph glyph-name="agrave.ss03" horiz-adv-x="524" 
d="M205 -11q-76 0 -120.5 43.5t-44.5 104.5q0 65 48 104t134 50l109 14v27q0 68 -77 68q-37 0 -58 -16t-24 -44h-116q5 71 59 116.5t138 45.5q86 0 138.5 -42.5t52.5 -122.5v-187q0 -35 9 -45t35 -10h11v-95q-29 -2 -52 -2q-73 0 -86 53q-58 -62 -156 -62zM153 140
q0 -22 18.5 -36t48.5 -14q51 0 81 27t30 84v15l-109 -17q-69 -11 -69 -59zM121 701h140l91 -131h-112z" />
    <glyph glyph-name="acircumflex.ss03" horiz-adv-x="524" 
d="M205 -11q-76 0 -120.5 43.5t-44.5 104.5q0 65 48 104t134 50l109 14v27q0 68 -77 68q-37 0 -58 -16t-24 -44h-116q5 71 59 116.5t138 45.5q86 0 138.5 -42.5t52.5 -122.5v-187q0 -35 9 -45t35 -10h11v-95q-29 -2 -52 -2q-73 0 -86 53q-58 -62 -156 -62zM153 140
q0 -22 18.5 -36t48.5 -14q51 0 81 27t30 84v15l-109 -17q-69 -11 -69 -59zM191 701h129l97 -131h-112l-50 60l-50 -60h-111z" />
    <glyph glyph-name="adieresis.ss03" horiz-adv-x="524" 
d="M205 -11q-76 0 -120.5 43.5t-44.5 104.5q0 65 48 104t134 50l109 14v27q0 68 -77 68q-37 0 -58 -16t-24 -44h-116q5 71 59 116.5t138 45.5q86 0 138.5 -42.5t52.5 -122.5v-187q0 -35 9 -45t35 -10h11v-95q-29 -2 -52 -2q-73 0 -86 53q-58 -62 -156 -62zM153 140
q0 -22 18.5 -36t48.5 -14q51 0 81 27t30 84v15l-109 -17q-69 -11 -69 -59zM105 598v103h115v-103h-115zM290 598v103h115v-103h-115z" />
    <glyph glyph-name="atilde.ss03" horiz-adv-x="524" 
d="M205 -11q-76 0 -120.5 43.5t-44.5 104.5q0 65 48 104t134 50l109 14v27q0 68 -77 68q-37 0 -58 -16t-24 -44h-116q5 71 59 116.5t138 45.5q86 0 138.5 -42.5t52.5 -122.5v-187q0 -35 9 -45t35 -10h11v-95q-29 -2 -52 -2q-73 0 -86 53q-58 -62 -156 -62zM153 140
q0 -22 18.5 -36t48.5 -14q51 0 81 27t30 84v15l-109 -17q-69 -11 -69 -59zM324 701h80q0 -49 -25 -81.5t-63 -32.5q-21 0 -42 7l-40 15q-27 8 -33 8q-22 0 -24 -24h-80q0 49 25 81.5t63 32.5q21 0 42 -7l40 -15q27 -8 33 -8q22 0 24 24z" />
    <glyph glyph-name="aring.ss03" horiz-adv-x="524" 
d="M205 -11q-76 0 -120.5 43.5t-44.5 104.5q0 65 48 104t134 50l109 14v27q0 68 -77 68q-37 0 -58 -16t-24 -44h-116q5 71 59 116.5t138 45.5q86 0 138.5 -42.5t52.5 -122.5v-187q0 -35 9 -45t35 -10h11v-95q-29 -2 -52 -2q-73 0 -86 53q-58 -62 -156 -62zM153 140
q0 -22 18.5 -36t48.5 -14q51 0 81 27t30 84v15l-109 -17q-69 -11 -69 -59zM253 712q34 0 57.5 -22.5t23.5 -57.5q0 -33 -24 -56t-57 -23t-57 23t-24 56q0 35 23.5 57.5t57.5 22.5zM253 609q10 0 16.5 6.5t6.5 16.5t-6.5 16t-16.5 6t-16.5 -6t-6.5 -16t6.5 -16.5t16.5 -6.5z
" />
    <glyph glyph-name="ae.ss03" horiz-adv-x="858" 
d="M414 78q-71 -89 -192 -89q-76 0 -120.5 43.5t-44.5 104.5q0 65 48 104t134 50l109 14v27q0 68 -77 68q-37 0 -58 -16t-24 -44h-116q5 71 59 116.5t138 45.5q111 0 163 -69q62 69 155 69q111 0 168 -74t57 -177l-1 -41h-335q4 -55 38.5 -86.5t89.5 -31.5q78 0 127 69
l76 -72q-78 -100 -203 -100t-191 89zM589 398q-44 0 -71.5 -28.5t-35.5 -67.5h210q-1 38 -25.5 67t-77.5 29zM170 140q0 -22 18.5 -36t48.5 -14q51 0 81 27t30 84v15l-109 -17q-69 -11 -69 -59z" />
    <glyph glyph-name="edieresis.ss03" horiz-adv-x="545" 
d="M163 211h335q1 23 1 40q0 48 -13 91.5t-39 80t-70.5 58t-101.5 21.5q-104 0 -166.5 -75t-62.5 -185q0 -112 68 -182.5t178 -70.5q125 0 203 100l-77 72q-47 -69 -126 -69q-55 0 -90 32t-39 87zM276 398q52 0 76.5 -29t25.5 -67h-209q8 40 35 68t72 28zM127 598v103h115
v-103h-115zM312 598v103h115v-103h-115z" />
    <glyph glyph-name="i.ss03" horiz-adv-x="251" 
d="M69 0v490h114v-490h-114zM65 576v125h121v-125h-121z" />
    <glyph glyph-name="idieresis.ss03" horiz-adv-x="286" 
d="M88 0v490h114v-490h-114zM-7 598v103h115v-103h-115zM179 598v103h115v-103h-115z" />
    <glyph glyph-name="j.ss03" horiz-adv-x="310" 
d="M117 -8v498h114v-515q0 -92 -45 -133t-142 -41l-44 1v102q15 -1 26 -1q53 0 72 18t19 71zM114 576v125h121v-125h-121z" />
    <glyph glyph-name="odieresis.ss03" horiz-adv-x="597" 
d="M46 245q0 110 73 183.5t180 73.5q106 0 179.5 -73.5t73.5 -183.5q0 -109 -73 -182.5t-180 -73.5t-180 73t-73 183zM162 245q0 -67 38.5 -110t98.5 -43q59 0 97.5 43t38.5 110t-38.5 110t-97.5 43q-60 0 -98.5 -43t-38.5 -110zM150 598v103h115v-103h-115zM335 598v103
h115v-103h-115z" />
    <glyph glyph-name="udieresis.ss03" horiz-adv-x="559" 
d="M182 490v-293q0 -49 24 -77.5t68 -28.5q48 0 75 34t27 89v276h114v-490h-112v40q-46 -51 -127 -51q-83 0 -133 57t-50 159v285h114zM129 598v103h115v-103h-115zM314 598v103h115v-103h-115z" />
    <glyph glyph-name="y.ss03" horiz-adv-x="546" 
d="M205 -21l6 15l-194 496h130l128 -354l130 354h124l-220 -549q-29 -75 -67.5 -107.5t-126.5 -32.5l-44 1v107q14 -1 26 -1q49 0 71 15.5t37 55.5z" />
    <glyph glyph-name="yacute.ss03" horiz-adv-x="546" 
d="M205 -21l6 15l-194 496h130l128 -354l130 354h124l-220 -549q-29 -75 -67.5 -107.5t-126.5 -32.5l-44 1v107q14 -1 26 -1q49 0 71 15.5t37 55.5zM298 701h140l-119 -131h-112z" />
    <glyph glyph-name="ydieresis.ss03" horiz-adv-x="546" 
d="M127 598v103h115v-103h-115zM312 598v103h115v-103h-115zM205 -21l6 15l-194 496h130l128 -354l130 354h124l-220 -549q-29 -75 -67.5 -107.5t-126.5 -32.5l-44 1v107q14 -1 26 -1q49 0 71 15.5t37 55.5z" />
    <glyph glyph-name="period.ss03" horiz-adv-x="332" 
d="M100 0v131h131v-131h-131z" />
    <glyph glyph-name="colon.ss03" horiz-adv-x="332" 
d="M101 0v131h131v-131h-131zM101 359v131h131v-131h-131z" />
    <glyph glyph-name="comma.ss03" horiz-adv-x="334" 
d="M106 0v131h131v-96q0 -83 -30.5 -126t-102.5 -53v69q31 7 43.5 24.5t12.5 50.5h-54z" />
    <glyph glyph-name="semicolon.ss03" horiz-adv-x="334" 
d="M106 0v131h131v-96q0 -83 -30.5 -126t-102.5 -53v69q31 7 43.5 24.5t12.5 50.5h-54zM102 359v131h131v-131h-131z" />
    <glyph glyph-name="ellipsis.ss03" horiz-adv-x="773" 
d="M62 0v131h131v-131h-131zM320 0v131h131v-131h-131zM578 0v131h131v-131h-131z" />
    <glyph glyph-name="question.ss03" horiz-adv-x="539" 
d="M303 211h-117v18q0 55 21.5 92t63.5 69l31 23q66 48 66 98q0 41 -32 66.5t-78 25.5t-78.5 -26t-38.5 -72h-118q8 95 73.5 151t159.5 56q101 0 166.5 -57.5t65.5 -146.5q0 -95 -94 -165l-22 -17q-40 -30 -54.5 -50t-14.5 -58v-7zM179 0v131h131v-131h-131z" />
    <glyph glyph-name="questiondown.ss03" horiz-adv-x="539" 
d="M353 279h-117v-7q0 -35 -12.5 -52t-47.5 -44q-5 -4 -8 -6l-23 -17q-94 -71 -94 -160q0 -88 65.5 -143t166.5 -55q95 0 160 54t73 148h-118q-6 -46 -38 -69.5t-78 -23.5q-47 0 -79 23.5t-32 63.5q0 26 15.5 46t50.5 46l31 23q43 32 64 66.5t21 88.5v18zM360 490v-131h-131
v131h131z" />
    <glyph glyph-name="exclam.ss03" horiz-adv-x="326" 
d="M104 211v490h118v-490h-118zM99 0v131h131v-131h-131z" />
    <glyph glyph-name="exclamdown.ss03" horiz-adv-x="326" 
d="M222 279v-473h-118v473h118zM230 490v-131h-138v131h138z" />
    <glyph glyph-name="quotedblright.ss03" horiz-adv-x="470" 
d="M71 570v131h131v-97q0 -83 -30.5 -125.5t-103.5 -52.5v69q31 7 43.5 24.5t12.5 50.5h-53zM270 570v131h131v-97q0 -83 -30.5 -125.5t-102.5 -52.5v69q31 7 43.5 24.5t12.5 50.5h-54z" />
    <glyph glyph-name="quotedblleft.ss03" horiz-adv-x="470" 
d="M399 563v-131h-131v97q0 83 30.5 125.5t103.5 52.5v-69q-31 -7 -43.5 -24.5t-12.5 -50.5h53zM200 563v-131h-131v97q0 83 30.5 125.5t102.5 52.5v-69q-31 -7 -43.5 -24.5t-12.5 -50.5h54z" />
    <glyph glyph-name="quoteleft.ss03" horiz-adv-x="270" 
d="M199 557v-131h-131v97q0 82 30.5 125t103.5 53v-68q-31 -8 -43.5 -25.5t-12.5 -50.5h53z" />
    <glyph glyph-name="quoteright.ss03" horiz-adv-x="270" 
d="M71 570v131h131v-97q0 -82 -30.5 -125t-103.5 -53v68q31 8 43.5 25.5t12.5 50.5h-53z" />
    <glyph glyph-name="quotesinglbase.ss03" horiz-adv-x="270" 
d="M71 0v131h131v-96q0 -83 -30.5 -126t-103.5 -53v69q31 7 43.5 24.5t12.5 50.5h-53z" />
    <glyph glyph-name="quotedblbase.ss03" horiz-adv-x="470" 
d="M71 0v131h131v-97q0 -82 -30.5 -125t-103.5 -53v69q31 7 43.5 24.5t12.5 50.5h-53zM270 0v131h131v-97q0 -82 -30.5 -125t-102.5 -53v69q31 7 43.5 24.5t12.5 50.5h-54z" />
    <glyph glyph-name="dieresis.ss03" horiz-adv-x="556" 
d="M127 598v103h115v-103h-115zM312 598v103h115v-103h-115z" />
    </font>
</defs>
</svg>
