<?xml version="1.0" standalone="no"?><!DOCTYPE svg PUBLIC "-//W3C//DTD SVG 1.1//EN" "http://www.w3.org/Graphics/SVG/1.1/DTD/svg11.dtd" ><svg version="1.1" xmlns="http://www.w3.org/2000/svg"><defs><font horiz-adv-x="0" id="font"><font-face ascent="750" bbox="-47 -220 1539 1008" cap-height="700" descent="-250" font-family="Maax" font-stretch="normal" font-style="normal" font-weight="700" units-per-em="1000" x-height="490" /><missing-glyph d="M323 202C305 202 292 188 292 171C292 153 305 139 323 139C340 139 353 153 353 171C353 188 340 202 323 202ZM332 153 324 165H317V153H309V190H326C334 190 339 185 339 178C339 172 336 168 331 166L340 153ZM175 400C165 417 145 422 128 412C112 402 106 383 115 366C125 349 145 345 162 354C178 364 184 384 175 400ZM324 184H317V171H324C329 171 332 173 332 178C332 181 329 184 324 184ZM290 412C267 399 269 368 288 334C293 326 297 320 303 314L332 406C318 417 303 420 290 412ZM344 394 316 302C329 291 343 289 357 296C379 310 377 340 358 374C354 382 349 388 344 394ZM324 684 40 520V192L324 28L609 192V520ZM338 561H385V553H346V528H382V520H346V486H338ZM260 561H315V553H291V486H283V553H260ZM157 259 150 272 170 342 166 339C144 326 115 334 101 358C87 382 96 412 120 426C145 440 175 433 189 409C199 392 196 374 190 354L170 285L238 325L246 310ZM323 130C300 130 283 148 283 171C283 193 300 211 323 211C345 211 363 193 363 171C363 148 345 130 323 130ZM365 282C329 262 294 289 273 326C252 362 247 406 282 426C317 446 352 420 373 383C394 347 400 303 365 282ZM523 281C503 269 483 272 468 278L473 295C486 288 500 287 516 296C535 307 541 328 531 348C520 365 499 370 482 360C467 352 462 338 464 326L450 318L403 400L481 445L489 431L426 394L452 348C456 359 463 368 475 375C497 388 529 385 545 356C560 332 555 299 523 281Z" horiz-adv-x="649" /><glyph d="M427 700H285L11 0H165L220 138H491L547 0H701ZM356 498 443 270H269Z" glyph-name="A" horiz-adv-x="712" unicode="A" /><glyph d="M328 563H375L454 263H251ZM485 700H219L30 0H181L216 128H488L523 0H674Z" glyph-name="A.ss01" horiz-adv-x="704" /><glyph d="M359 718H345L11 0H161L223 133H480L543 0H697ZM351 430 425 265H278Z" glyph-name="A.ss02" horiz-adv-x="708" /><glyph d="M426 700H284L10 0H164L233 178H472L546 0H700ZM355 498 426 310H282Z" glyph-name="A.ss03" horiz-adv-x="710" /><glyph d="M876 701H285L11 0H165L220 138H491L547 0H876V137H647L587 290H859V425H535L480 564H876ZM356 499 443 270H269Z" glyph-name="AE" horiz-adv-x="939" unicode="&#198;" /><glyph d="M822 290V425H559L522 563H839V700H219L30 0H181L216 128H488L523 0H839V137H637L596 290ZM328 563H375L454 263H251Z" glyph-name="AE.ss01" horiz-adv-x="902" /><glyph d="M859 700H345L11 0H161L225 138H480L543 0H859V136H635L568 284H842V420H506L440 564H859ZM351 440 426 270H277Z" glyph-name="AE.ss02" horiz-adv-x="922" /><glyph d="M857 0V136H647L589 284H840V420H536L479 564H857V700H284L10 0H164L233 178H472L546 0ZM355 499 426 310H282Z" glyph-name="AE.ss03" horiz-adv-x="920" /><glyph d="M876 701H285L11 0H165L220 138H491L547 0H876V137H647L587 290H859V425H535L480 564H876ZM356 499 443 270H269ZM615 872 541 769H687L785 872Z" glyph-name="AEacute" horiz-adv-x="939" unicode="&#508;" /><glyph d="M822 290V425H559L522 563H839V700H219L30 0H181L216 128H488L523 0H839V137H637L596 290ZM328 563H375L454 263H251ZM510 872 436 769H582L680 872Z" glyph-name="AEacute.ss01" horiz-adv-x="902" /><glyph d="M859 700H345L11 0H161L225 138H480L543 0H859V136H635L568 284H842V420H506L440 564H859ZM351 440 426 270H277ZM581 872 507 769H653L751 872Z" glyph-name="AEacute.ss02" horiz-adv-x="922" /><glyph d="M857 0V136H647L589 284H840V420H536L479 564H857V700H284L10 0H164L233 178H472L546 0ZM355 499 426 310H282ZM549 872 475 769H621L719 872Z" glyph-name="AEacute.ss03" horiz-adv-x="920" /><glyph d="M427 700H285L11 0H165L220 138H491L547 0H701ZM356 498 443 270H269ZM348 872 274 769H420L518 872Z" glyph-name="Aacute" horiz-adv-x="712" unicode="&#193;" /><glyph d="M328 563H375L454 263H251ZM485 700H219L30 0H181L216 128H488L523 0H674ZM344 872 270 769H416L514 872Z" glyph-name="Aacute.ss01" horiz-adv-x="704" /><glyph d="M359 718H345L11 0H161L223 133H480L543 0H697ZM351 430 425 265H278ZM346 872 272 769H418L516 872Z" glyph-name="Aacute.ss02" horiz-adv-x="708" /><glyph d="M426 700H284L10 0H164L233 178H472L546 0H700ZM355 498 426 310H282ZM347 872 273 769H419L517 872Z" glyph-name="Aacute.ss03" horiz-adv-x="710" /><glyph d="M427 700H285L11 0H165L220 138H491L547 0H701ZM356 498 443 270H269ZM356 740C440 740 501 794 507 886H401C398 866 388 846 356 846C324 846 314 866 312 886H206C212 794 273 740 356 740Z" glyph-name="Abreve" horiz-adv-x="712" unicode="&#258;" /><glyph d="M328 563H375L454 263H251ZM485 700H219L30 0H181L216 128H488L523 0H674ZM352 740C436 740 497 794 503 886H397C394 866 384 846 352 846C320 846 310 866 308 886H202C208 794 269 740 352 740Z" glyph-name="Abreve.ss01" horiz-adv-x="704" /><glyph d="M359 718H345L11 0H161L223 133H480L543 0H697ZM351 430 425 265H278ZM354 740C438 740 499 794 505 886H399C396 866 386 846 354 846C322 846 312 866 310 886H204C210 794 271 740 354 740Z" glyph-name="Abreve.ss02" horiz-adv-x="708" /><glyph d="M426 700H284L10 0H164L233 178H472L546 0H700ZM355 498 426 310H282ZM355 740C439 740 500 794 506 886H400C397 866 387 846 355 846C323 846 313 866 311 886H205C211 794 272 740 355 740Z" glyph-name="Abreve.ss03" horiz-adv-x="710" /><glyph d="M427 700H285L11 0H165L220 138H491L547 0H701ZM356 498 443 270H269ZM270 872 184 769H319L357 809L395 769H529L444 872Z" glyph-name="Acircumflex" horiz-adv-x="712" unicode="&#194;" /><glyph d="M328 563H375L454 263H251ZM485 700H219L30 0H181L216 128H488L523 0H674ZM266 872 180 769H315L353 809L391 769H525L440 872Z" glyph-name="Acircumflex.ss01" horiz-adv-x="704" /><glyph d="M359 718H345L11 0H161L223 133H480L543 0H697ZM351 430 425 265H278ZM268 872 182 769H317L355 809L393 769H527L442 872Z" glyph-name="Acircumflex.ss02" horiz-adv-x="708" /><glyph d="M426 700H284L10 0H164L233 178H472L546 0H700ZM355 498 426 310H282ZM269 872 183 769H318L356 809L394 769H528L443 872Z" glyph-name="Acircumflex.ss03" horiz-adv-x="710" /><glyph d="M427 700H285L11 0H165L220 138H491L547 0H701ZM356 498 443 270H269ZM176 833C176 792 209 759 250 759C290 759 325 792 325 833C325 873 290 907 250 907C209 907 176 873 176 833ZM388 833C388 792 421 759 462 759C502 759 537 792 537 833C537 873 502 907 462 907C421 907 388 873 388 833Z" glyph-name="Adieresis" horiz-adv-x="712" unicode="&#196;" /><glyph d="M328 563H375L454 263H251ZM485 700H219L30 0H181L216 128H488L523 0H674ZM172 833C172 792 205 759 246 759C286 759 321 792 321 833C321 873 286 907 246 907C205 907 172 873 172 833ZM384 833C384 792 417 759 458 759C498 759 533 792 533 833C533 873 498 907 458 907C417 907 384 873 384 833Z" glyph-name="Adieresis.ss01" horiz-adv-x="704" /><glyph d="M359 718H345L11 0H161L223 133H480L543 0H697ZM351 430 425 265H278ZM174 833C174 792 207 759 248 759C288 759 323 792 323 833C323 873 288 907 248 907C207 907 174 873 174 833ZM386 833C386 792 419 759 460 759C500 759 535 792 535 833C535 873 500 907 460 907C419 907 386 873 386 833Z" glyph-name="Adieresis.ss02" horiz-adv-x="708" /><glyph d="M426 700H284L10 0H164L233 178H472L546 0H700ZM355 498 426 310H282ZM381 742H539V891H381ZM171 742H329V891H171Z" glyph-name="Adieresis.ss03" horiz-adv-x="710" /><glyph d="M427 700H285L11 0H165L220 138H491L547 0H701ZM356 498 443 270H269ZM194 872 292 769H438L364 872Z" glyph-name="Agrave" horiz-adv-x="712" unicode="&#192;" /><glyph d="M328 563H375L454 263H251ZM485 700H219L30 0H181L216 128H488L523 0H674ZM190 872 288 769H434L360 872Z" glyph-name="Agrave.ss01" horiz-adv-x="704" /><glyph d="M359 718H345L11 0H161L223 133H480L543 0H697ZM351 430 425 265H278ZM192 872 290 769H436L362 872Z" glyph-name="Agrave.ss02" horiz-adv-x="708" /><glyph d="M426 700H284L10 0H164L233 178H472L546 0H700ZM355 498 426 310H282ZM193 872 291 769H437L363 872Z" glyph-name="Agrave.ss03" horiz-adv-x="710" /><glyph d="M427 700H285L11 0H165L220 138H491L547 0H701ZM356 498 443 270H269ZM231 886V769H481V886Z" glyph-name="Amacron" horiz-adv-x="712" unicode="&#256;" /><glyph d="M328 563H375L454 263H251ZM485 700H219L30 0H181L216 128H488L523 0H674ZM227 886V769H477V886Z" glyph-name="Amacron.ss01" horiz-adv-x="704" /><glyph d="M359 718H345L11 0H161L223 133H480L543 0H697ZM351 430 425 265H278ZM229 886V769H479V886Z" glyph-name="Amacron.ss02" horiz-adv-x="708" /><glyph d="M426 700H284L10 0H164L233 178H472L546 0H700ZM355 498 426 310H282ZM230 886V769H480V886Z" glyph-name="Amacron.ss03" horiz-adv-x="710" /><glyph d="M427 700H285L11 0H165L220 138H491L547 0H594C563 -22 534 -59 534 -102C534 -159 576 -194 641 -194C668 -194 692 -191 703 -189V-106H699C662 -106 642 -94 642 -71C642 -47 656 -28 703 0H701ZM356 498 443 270H269Z" glyph-name="Aogonek" horiz-adv-x="712" unicode="&#260;" /><glyph d="M485 700H219L30 0H181L216 128H488L523 0H564C533 -22 504 -59 504 -102C504 -159 546 -194 611 -194C638 -194 662 -191 673 -189V-106H669C632 -106 612 -94 612 -71C612 -47 626 -28 673 0H674ZM328 563H375L454 263H251Z" glyph-name="Aogonek.ss01" horiz-adv-x="704" /><glyph d="M359 718H345L11 0H161L223 133H480L543 0H589C558 -22 529 -59 529 -102C529 -159 571 -194 636 -194C663 -194 687 -191 698 -189V-106H694C657 -106 637 -94 637 -71C637 -47 651 -28 698 0H697ZM351 430 425 265H278Z" glyph-name="Aogonek.ss02" horiz-adv-x="708" /><glyph d="M426 700H284L10 0H164L233 178H472L546 0H597C566 -22 537 -59 537 -102C537 -159 579 -194 644 -194C671 -194 695 -191 706 -189V-106H702C665 -106 645 -94 645 -71C645 -47 659 -28 706 0H700ZM355 498 426 310H282Z" glyph-name="Aogonek.ss03" horiz-adv-x="710" /><glyph d="M258 774C258 744 272 717 294 700H285L11 0H165L220 138H491L547 0H701L427 700H417C439 717 454 744 454 774C454 828 409 871 356 871C302 871 258 828 258 774ZM356 498 443 270H269ZM380 774C380 760 369 750 356 750C343 750 332 760 332 774C332 788 343 798 356 798C369 798 380 788 380 774Z" glyph-name="Aring" horiz-adv-x="712" unicode="&#197;" /><glyph d="M254 770C254 742 266 717 286 700H219L30 0H181L216 128H488L523 0H674L485 700H417C437 717 450 742 450 770C450 824 405 867 352 867C298 867 254 824 254 770ZM328 563H375L454 263H251ZM376 770C376 756 365 746 352 746C339 746 328 756 328 770C328 784 339 794 352 794C365 794 376 784 376 770Z" glyph-name="Aring.ss01" horiz-adv-x="704" /><glyph d="M254 770C254 726 285 689 326 678L11 0H161L223 133H480L543 0H697L377 678C418 689 450 726 450 770C450 824 405 867 352 867C298 867 254 824 254 770ZM351 430 425 265H278ZM376 770C376 756 365 746 352 746C339 746 328 756 328 770C328 784 339 794 352 794C365 794 376 784 376 770Z" glyph-name="Aring.ss02" horiz-adv-x="708" /><glyph d="M259 763C259 739 268 716 284 699L10 0H164L233 178H472L546 0H700L427 697C444 714 455 737 455 763C455 817 410 860 357 860C303 860 259 817 259 763ZM355 498 426 310H282ZM381 763C381 749 370 739 357 739C344 739 333 749 333 763C333 777 344 787 357 787C370 787 381 777 381 763Z" glyph-name="Aring.ss03" horiz-adv-x="710" /><glyph d="M258 770C258 742 270 717 290 700H285L11 0H165L220 138H491L547 0H701L427 700H421C441 717 454 742 454 770C454 824 409 867 356 867C302 867 258 824 258 770ZM356 498 443 270H269ZM348 1008 274 905H420L518 1008ZM380 770C380 756 369 746 356 746C343 746 332 756 332 770C332 784 343 794 356 794C369 794 380 784 380 770Z" glyph-name="Aringacute" horiz-adv-x="712" unicode="&#506;" /><glyph d="M254 770C254 742 266 717 286 700H219L30 0H181L216 128H488L523 0H674L485 700H417C437 717 450 742 450 770C450 824 405 867 352 867C298 867 254 824 254 770ZM328 563H375L454 263H251ZM344 1008 270 905H416L514 1008ZM376 770C376 756 365 746 352 746C339 746 328 756 328 770C328 784 339 794 352 794C365 794 376 784 376 770Z" glyph-name="Aringacute.ss01" horiz-adv-x="704" /><glyph d="M254 770C254 726 285 689 326 678L11 0H161L223 133H480L543 0H697L377 678C418 689 450 726 450 770C450 824 405 867 352 867C298 867 254 824 254 770ZM344 1008 270 905H416L514 1008ZM351 430 425 265H278ZM376 770C376 756 365 746 352 746C339 746 328 756 328 770C328 784 339 794 352 794C365 794 376 784 376 770Z" glyph-name="Aringacute.ss02" horiz-adv-x="708" /><glyph d="M259 763C259 739 268 716 284 699L10 0H164L233 178H472L546 0H700L427 697C444 714 455 737 455 763C455 817 410 860 357 860C303 860 259 817 259 763ZM349 1001 275 898H421L519 1001ZM355 498 426 310H282ZM381 763C381 749 370 739 357 739C344 739 333 749 333 763C333 777 344 787 357 787C370 787 381 777 381 763Z" glyph-name="Aringacute.ss03" horiz-adv-x="710" /><glyph d="M427 700H285L11 0H165L220 138H491L547 0H701ZM356 498 443 270H269ZM430 894C429 874 414 868 403 868C393 868 383 871 373 874L332 887C323 889 307 894 289 894C227 894 192 834 192 769H283C284 790 299 795 310 795C319 795 330 793 340 790L381 777C390 775 406 769 424 769C486 769 521 830 521 894Z" glyph-name="Atilde" horiz-adv-x="712" unicode="&#195;" /><glyph d="M328 563H375L454 263H251ZM485 700H219L30 0H181L216 128H488L523 0H674ZM426 894C425 874 410 868 399 868C389 868 379 871 369 874L328 887C319 889 303 894 285 894C223 894 188 834 188 769H279C280 790 295 795 306 795C315 795 326 793 336 790L377 777C386 775 402 769 420 769C482 769 517 830 517 894Z" glyph-name="Atilde.ss01" horiz-adv-x="704" /><glyph d="M359 718H345L11 0H161L223 133H480L543 0H697ZM351 430 425 265H278ZM428 894C427 874 412 868 401 868C391 868 381 871 371 874L330 887C321 889 305 894 287 894C225 894 190 834 190 769H281C282 790 297 795 308 795C317 795 328 793 338 790L379 777C388 775 404 769 422 769C484 769 519 830 519 894Z" glyph-name="Atilde.ss02" horiz-adv-x="708" /><glyph d="M426 700H284L10 0H164L233 178H472L546 0H700ZM355 498 426 310H282ZM429 894C428 874 413 868 402 868C392 868 382 871 372 874L331 887C322 889 306 894 288 894C226 894 191 834 191 769H282C283 790 298 795 309 795C318 795 329 793 339 790L380 777C389 775 405 769 423 769C485 769 520 830 520 894Z" glyph-name="Atilde.ss03" horiz-adv-x="710" /><glyph d="M70 0H402C548 0 644 82 644 205C644 268 619 320 555 365C600 400 627 453 627 507C627 635 528 700 385 700H70ZM219 137V295H372C444 295 494 275 494 218C494 156 445 137 368 137ZM355 563C439 563 477 546 477 492C477 445 442 420 361 420H219V563Z" glyph-name="B" horiz-adv-x="689" unicode="B" /><glyph d="M315 75C466 75 590 198 590 350C590 501 466 625 315 625C163 625 40 501 40 350C40 198 163 75 315 75Z" glyph-name="BlackCircle" horiz-adv-x="630" unicode="&#9679;" /><glyph d="M80 137H571V628H80Z" glyph-name="BlackSquare" horiz-adv-x="651" unicode="&#9632;" /><glyph d="M600 226C553 162 489 128 410 128C293 128 194 209 194 352C194 496 301 573 402 573C480 573 547 536 588 478L688 580C623 660 530 712 409 712C204 712 42 572 42 349C42 129 204 -11 414 -11C546 -11 636 44 699 121Z" glyph-name="C" horiz-adv-x="733" unicode="C" /><glyph d="M381 577C449 577 488 549 529 501L619 598C558 674 484 712 377 712C182 712 50 549 50 351C50 150 184 -11 379 -11C485 -11 570 31 629 105L537 204C496 149 444 124 383 124C259 124 197 232 197 351C197 468 262 577 381 577Z" glyph-name="C.ss03" horiz-adv-x="664" /><glyph d="M600 226C553 162 489 128 410 128C293 128 194 209 194 352C194 496 301 573 402 573C480 573 547 536 588 478L688 580C623 660 530 712 409 712C204 712 42 572 42 349C42 129 204 -11 414 -11C546 -11 636 44 699 121ZM395 872 321 769H467L565 872Z" glyph-name="Cacute" horiz-adv-x="733" unicode="&#262;" /><glyph d="M381 577C449 577 488 549 529 501L619 598C558 674 484 712 377 712C182 712 50 549 50 351C50 150 184 -11 379 -11C485 -11 570 31 629 105L537 204C496 149 444 124 383 124C259 124 197 232 197 351C197 468 262 577 381 577ZM386 872 312 769H458L556 872Z" glyph-name="Cacute.ss03" horiz-adv-x="664" /><glyph d="M600 226C553 162 489 128 410 128C293 128 194 209 194 352C194 496 301 573 402 573C480 573 547 536 588 478L688 580C623 660 530 712 409 712C204 712 42 572 42 349C42 129 204 -11 414 -11C546 -11 636 44 699 121ZM491 769 576 872H442L404 831L366 872H231L317 769Z" glyph-name="Ccaron" horiz-adv-x="733" unicode="&#268;" /><glyph d="M381 577C449 577 488 549 529 501L619 598C558 674 484 712 377 712C182 712 50 549 50 351C50 150 184 -11 379 -11C485 -11 570 31 629 105L537 204C496 149 444 124 383 124C259 124 197 232 197 351C197 468 262 577 381 577ZM482 769 567 872H433L395 831L357 872H222L308 769Z" glyph-name="Ccaron.ss03" horiz-adv-x="664" /><glyph d="M417 -137 468 -7C571 5 645 55 699 121L600 226C553 162 489 128 410 128C293 128 194 209 194 352C194 496 301 573 402 573C480 573 547 536 588 478L688 580C623 660 530 712 409 712C204 712 42 572 42 349C42 154 168 22 342 -5L274 -137Z" glyph-name="Ccedilla" horiz-adv-x="733" unicode="&#199;" /><glyph d="M600 226C553 162 489 128 410 128C293 128 194 209 194 352C194 496 301 573 402 573C480 573 547 536 588 478L688 580C623 660 530 712 409 712C204 712 42 572 42 349C42 155 168 23 342 -5V-137H469V-7C571 5 645 55 699 121Z" glyph-name="Ccedilla.ss01" horiz-adv-x="733" /><glyph d="M400 -137 453 -3C525 11 584 49 629 105L537 204C496 149 444 124 383 124C259 124 197 232 197 351C197 468 262 577 381 577C449 577 488 549 529 501L619 598C558 674 484 712 377 712C182 712 50 549 50 351C50 169 159 20 324 -7L257 -137Z" glyph-name="Ccedilla.ss03" horiz-adv-x="664" /><glyph d="M600 226C553 162 489 128 410 128C293 128 194 209 194 352C194 496 301 573 402 573C480 573 547 536 588 478L688 580C623 660 530 712 409 712C204 712 42 572 42 349C42 129 204 -11 414 -11C546 -11 636 44 699 121ZM317 872 231 769H366L404 809L442 769H576L491 872Z" glyph-name="Ccircumflex" horiz-adv-x="733" unicode="&#264;" /><glyph d="M381 577C449 577 488 549 529 501L619 598C558 674 484 712 377 712C182 712 50 549 50 351C50 150 184 -11 379 -11C485 -11 570 31 629 105L537 204C496 149 444 124 383 124C259 124 197 232 197 351C197 468 262 577 381 577ZM308 872 222 769H357L395 809L433 769H567L482 872Z" glyph-name="Ccircumflex.ss03" horiz-adv-x="664" /><glyph d="M600 226C553 162 489 128 410 128C293 128 194 209 194 352C194 496 301 573 402 573C480 573 547 536 588 478L688 580C623 660 530 712 409 712C204 712 42 572 42 349C42 129 204 -11 414 -11C546 -11 636 44 699 121ZM321 831C321 786 357 749 403 749C448 749 486 786 486 831C486 877 448 914 403 914C357 914 321 877 321 831Z" glyph-name="Cdotaccent" horiz-adv-x="733" unicode="&#266;" /><glyph d="M381 577C449 577 488 549 529 501L619 598C558 674 484 712 377 712C182 712 50 549 50 351C50 150 184 -11 379 -11C485 -11 570 31 629 105L537 204C496 149 444 124 383 124C259 124 197 232 197 351C197 468 262 577 381 577ZM315 742H473V891H315Z" glyph-name="Cdotaccent.ss03" horiz-adv-x="664" /><glyph d="M70 0H301C490 0 692 100 692 355C692 609 490 700 301 700H70ZM278 563C428 563 540 512 540 355C540 192 428 137 279 137H219V563Z" glyph-name="D" horiz-adv-x="734" unicode="D" /><glyph d="M291 564C418 564 484 488 484 349C484 212 418 135 291 135H218V564ZM70 700V0H308C494 0 630 121 630 349C630 580 494 700 308 700Z" glyph-name="D.ss03" horiz-adv-x="680" /><glyph d="M70 0H301C490 0 692 100 692 355C692 609 490 700 301 700H70ZM278 563C428 563 540 512 540 355C540 192 428 137 279 137H219V563ZM469 769 554 872H420L382 831L344 872H209L295 769Z" glyph-name="Dcaron" horiz-adv-x="734" unicode="&#270;" /><glyph d="M291 564C418 564 484 488 484 349C484 212 418 135 291 135H218V564ZM70 700V0H308C494 0 630 121 630 349C630 580 494 700 308 700ZM438 769 523 872H389L351 831L313 872H178L264 769Z" glyph-name="Dcaron.ss03" horiz-adv-x="680" /><glyph d="M70 0H301C490 0 692 100 692 355C692 609 490 700 301 700H70V423H-4V292H70ZM278 563C428 563 541 512 541 355C541 192 428 137 279 137H219V292H333V423H219V563Z" glyph-name="Dcroat" horiz-adv-x="734" unicode="&#272;" /><glyph d="M70 700V423H-4V292H70V0H308C494 0 630 121 630 349C630 580 494 700 308 700ZM291 564C418 564 484 488 484 349C484 212 418 135 291 135H218V292H333V423H218V564Z" glyph-name="Dcroat.ss03" horiz-adv-x="680" /><glyph d="M261 700 40 128V0H626V128L405 700ZM333 531 484 133H183Z" glyph-name="Delta" horiz-adv-x="666" unicode="&#8710;" /><glyph d="M261 700 40 128V0H626V128L405 700ZM333 531 484 133H183Z" glyph-name="Deltagreek" horiz-adv-x="666" unicode="&#916;" /><glyph d="M40 385 359 66 678 385 359 704Z" glyph-name="Diamond" horiz-adv-x="718" unicode="&#9670;" /><glyph d="M380 80 720 620H40Z" glyph-name="DownTriangle" horiz-adv-x="760" unicode="&#9660;" /><glyph d="M432 238V701H295V240L149 391L51 301L364 -11L676 301L585 391Z" glyph-name="DownwArrow" horiz-adv-x="727" unicode="&#8595;" /><glyph d="M70 0H587V137H219V290H570V425H219V563H587V700H70Z" glyph-name="E" horiz-adv-x="650" unicode="E" /><glyph d="M70 0H587V137H219V290H570V425H219V563H587V700H70ZM320 872 246 769H392L490 872Z" glyph-name="Eacute" horiz-adv-x="650" unicode="&#201;" /><glyph d="M70 0H587V137H219V290H570V425H219V563H587V700H70ZM328 740C412 740 473 794 479 886H373C370 866 360 846 328 846C296 846 286 866 284 886H178C184 794 245 740 328 740Z" glyph-name="Ebreve" horiz-adv-x="650" unicode="&#276;" /><glyph d="M70 0H587V137H219V290H570V425H219V563H587V700H70ZM416 769 501 872H367L329 831L291 872H156L242 769Z" glyph-name="Ecaron" horiz-adv-x="650" unicode="&#282;" /><glyph d="M70 0H587V137H219V290H570V425H219V563H587V700H70ZM242 872 156 769H291L329 809L367 769H501L416 872Z" glyph-name="Ecircumflex" horiz-adv-x="650" unicode="&#202;" /><glyph d="M70 0H587V137H219V290H570V425H219V563H587V700H70ZM148 833C148 792 181 759 222 759C262 759 297 792 297 833C297 873 262 907 222 907C181 907 148 873 148 833ZM360 833C360 792 393 759 434 759C474 759 509 792 509 833C509 873 474 907 434 907C393 907 360 873 360 833Z" glyph-name="Edieresis" horiz-adv-x="650" unicode="&#203;" /><glyph d="M70 0H587V137H219V290H570V425H219V563H587V700H70ZM356 742H514V891H356ZM146 742H304V891H146Z" glyph-name="Edieresis.ss03" horiz-adv-x="650" /><glyph d="M70 0H587V137H219V290H570V425H219V563H587V700H70ZM246 831C246 786 282 749 328 749C373 749 411 786 411 831C411 877 373 914 328 914C282 914 246 877 246 831Z" glyph-name="Edotaccent" horiz-adv-x="650" unicode="&#278;" /><glyph d="M70 0H587V137H219V290H570V425H219V563H587V700H70ZM249 742H407V891H249Z" glyph-name="Edotaccent.ss03" horiz-adv-x="650" /><glyph d="M70 0H587V137H219V290H570V425H219V563H587V700H70ZM166 872 264 769H410L336 872Z" glyph-name="Egrave" horiz-adv-x="650" unicode="&#200;" /><glyph d="M70 0H587V137H219V290H570V425H219V563H587V700H70ZM203 886V769H453V886Z" glyph-name="Emacron" horiz-adv-x="650" unicode="&#274;" /><glyph d="M532 -5C532 -56 507 -67 464 -67H432V-203C432 -203 461 -205 501 -205C623 -205 680 -140 680 -22V700H532V262L249 700H70V0H219V472L532 0Z" glyph-name="Eng" horiz-adv-x="750" unicode="&#330;" /><glyph d="M532 -5C532 -56 507 -67 464 -67H432V-203C432 -203 461 -205 501 -205C623 -205 680 -140 680 -22V700H532V293L84 718H70V0H219V405L532 109Z" glyph-name="Eng.ss02" horiz-adv-x="750" /><glyph d="M70 0H477C446 -22 417 -59 417 -102C417 -159 459 -194 524 -194C551 -194 575 -191 586 -189V-106H582C545 -106 525 -94 525 -71C525 -47 539 -28 586 0H587V137H219V290H570V425H219V563H587V700H70Z" glyph-name="Eogonek" horiz-adv-x="650" unicode="&#280;" /><glyph d="M70 0H301C490 0 692 100 692 355C692 609 490 700 301 700H70V423H-4V292H70ZM278 563C428 563 541 512 541 355C541 192 428 137 279 137H219V292H333V423H219V563Z" glyph-name="Eth" horiz-adv-x="734" unicode="&#208;" /><glyph d="M70 700V423H-4V292H70V0H308C494 0 630 121 630 349C630 580 494 700 308 700ZM291 564C418 564 484 488 484 349C484 212 418 135 291 135H218V292H333V423H218V564Z" glyph-name="Eth.ss03" horiz-adv-x="680" /><glyph d="M57 371H119V349C119 339 119 334 120 324H57V202H142C186 67 288 -11 431 -11C520 -11 606 17 670 84L572 190C536 148 499 125 432 125C377 125 321 153 301 202H490V324H267C266 333 266 338 266 349C266 358 266 362 267 371H490V493H300C324 547 378 576 431 576C491 576 529 554 562 507L660 609C618 666 539 712 432 712C287 712 176 624 141 493H57Z" glyph-name="Euro" horiz-adv-x="700" unicode="&#8364;" /><glyph d="M57 371H119V349C119 339 119 334 120 324H57V202H142C186 67 288 -11 431 -11C520 -11 606 17 670 84L572 190C536 148 499 125 432 125C377 125 321 153 301 202H490V324H267C266 333 266 338 266 349C266 358 266 362 267 371H490V493H300C324 547 378 576 431 576C491 576 529 554 562 507L660 609C618 666 539 712 432 712C287 712 176 624 141 493H57Z" glyph-name="Euro.osf" horiz-adv-x="700" /><glyph d="M416 202V324H209C208 333 208 342 208 351V371H416V493H236C260 544 301 577 356 577C427 577 463 549 504 501L594 598C533 674 459 712 352 712C210 712 114 624 75 493H14V371H56V351V324H14V202H74C110 73 200 -11 350 -11C463 -11 541 31 600 105L508 204C467 149 422 124 361 124C304 124 264 154 239 202Z" glyph-name="Euro.tf" horiz-adv-x="600" /><glyph d="M416 202V324H209C208 333 208 342 208 351V371H416V493H236C260 544 301 577 356 577C427 577 463 549 504 501L594 598C533 674 459 712 352 712C210 712 114 624 75 493H14V371H56V351V324H14V202H74C110 73 200 -11 350 -11C463 -11 541 31 600 105L508 204C467 149 422 124 361 124C304 124 264 154 239 202Z" glyph-name="Euro.to" horiz-adv-x="600" /><glyph d="M219 0V276H530V412H219V563H553V700H70V0Z" glyph-name="F" horiz-adv-x="598" unicode="F" /><glyph d="M414 253H553V170C513 141 463 128 410 128C293 128 194 214 194 352C194 496 301 573 402 573C480 573 547 536 588 478L688 580C623 660 530 712 409 712C204 712 42 572 42 349C42 135 204 -11 408 -11C534 -11 636 44 699 109V390H414Z" glyph-name="G" horiz-adv-x="756" unicode="G" /><glyph d="M407 712C206 712 42 565 42 351C42 135 206 -11 407 -11C460 -11 510 0 556 19V0H702V390H417V253H556V170C522 147 473 128 409 128C287 128 191 224 191 351C191 475 287 572 409 572C497 572 563 518 591 478L691 580C628 660 525 712 407 712Z" glyph-name="G.ss01" horiz-adv-x="759" /><glyph d="M416 253H558C541 169 473 128 391 128C283 128 203 219 203 339C203 476 301 573 419 573C481 573 542 544 593 485L691 586C622 666 531 712 407 712C202 712 50 558 50 339C50 130 198 -11 380 -11C457 -11 533 17 576 70V0H707V390H416Z" glyph-name="G.ss03" horiz-adv-x="764" /><glyph d="M414 253H553V170C513 141 463 128 410 128C293 128 194 214 194 352C194 496 301 573 402 573C480 573 547 536 588 478L688 580C623 660 530 712 409 712C204 712 42 572 42 349C42 135 204 -11 408 -11C534 -11 636 44 699 109V390H414ZM408 740C492 740 553 794 559 886H453C450 866 440 846 408 846C376 846 366 866 364 886H258C264 794 325 740 408 740Z" glyph-name="Gbreve" horiz-adv-x="756" unicode="&#286;" /><glyph d="M407 712C206 712 42 565 42 351C42 135 206 -11 407 -11C460 -11 510 0 556 19V0H702V390H417V253H556V170C522 147 473 128 409 128C287 128 191 224 191 351C191 475 287 572 409 572C497 572 563 518 591 478L691 580C628 660 525 712 407 712ZM407 740C491 740 552 794 558 886H452C449 866 439 846 407 846C375 846 365 866 363 886H257C263 794 324 740 407 740Z" glyph-name="Gbreve.ss01" horiz-adv-x="759" /><glyph d="M416 253H558C541 169 473 128 391 128C283 128 203 219 203 339C203 476 301 573 419 573C481 573 542 544 593 485L691 586C622 666 531 712 407 712C202 712 50 558 50 339C50 130 198 -11 380 -11C457 -11 533 17 576 70V0H707V390H416ZM398 740C482 740 543 794 549 886H443C440 866 430 846 398 846C366 846 356 866 354 886H248C254 794 315 740 398 740Z" glyph-name="Gbreve.ss03" horiz-adv-x="764" /><glyph d="M414 253H553V170C513 141 463 128 410 128C293 128 194 214 194 352C194 496 301 573 402 573C480 573 547 536 588 478L688 580C623 660 530 712 409 712C204 712 42 572 42 349C42 135 204 -11 408 -11C534 -11 636 44 699 109V390H414ZM322 872 236 769H371L409 809L447 769H581L496 872Z" glyph-name="Gcircumflex" horiz-adv-x="756" unicode="&#284;" /><glyph d="M407 712C206 712 42 565 42 351C42 135 206 -11 407 -11C460 -11 510 0 556 19V0H702V390H417V253H556V170C522 147 473 128 409 128C287 128 191 224 191 351C191 475 287 572 409 572C497 572 563 518 591 478L691 580C628 660 525 712 407 712ZM321 872 235 769H370L408 809L446 769H580L495 872Z" glyph-name="Gcircumflex.ss01" horiz-adv-x="759" /><glyph d="M416 253H558C541 169 473 128 391 128C283 128 203 219 203 339C203 476 301 573 419 573C481 573 542 544 593 485L691 586C622 666 531 712 407 712C202 712 50 558 50 339C50 130 198 -11 380 -11C457 -11 533 17 576 70V0H707V390H416ZM312 872 226 769H361L399 809L437 769H571L486 872Z" glyph-name="Gcircumflex.ss03" horiz-adv-x="764" /><glyph d="M414 253H553V170C513 141 463 128 410 128C293 128 194 214 194 352C194 496 301 573 402 573C480 573 547 536 588 478L688 580C623 660 530 712 409 712C204 712 42 572 42 349C42 135 204 -11 408 -11C534 -11 636 44 699 109V390H414ZM328 -57 282 -194H408L480 -57Z" glyph-name="Gcommaaccent" horiz-adv-x="756" unicode="&#290;" /><glyph d="M407 712C206 712 42 565 42 351C42 135 206 -11 407 -11C460 -11 510 0 556 19V0H702V390H417V253H556V170C522 147 473 128 409 128C287 128 191 224 191 351C191 475 287 572 409 572C497 572 563 518 591 478L691 580C628 660 525 712 407 712ZM328 -57 282 -194H408L480 -57Z" glyph-name="Gcommaaccent.ss01" horiz-adv-x="759" /><glyph d="M416 253H558C541 169 473 128 391 128C283 128 203 219 203 339C203 476 301 573 419 573C481 573 542 544 593 485L691 586C622 666 531 712 407 712C202 712 50 558 50 339C50 130 198 -11 380 -11C457 -11 533 17 576 70V0H707V390H416ZM319 -57 273 -194H399L471 -57Z" glyph-name="Gcommaaccent.ss03" horiz-adv-x="764" /><glyph d="M414 253H553V170C513 141 463 128 410 128C293 128 194 214 194 352C194 496 301 573 402 573C480 573 547 536 588 478L688 580C623 660 530 712 409 712C204 712 42 572 42 349C42 135 204 -11 408 -11C534 -11 636 44 699 109V390H414ZM326 831C326 786 362 749 408 749C453 749 491 786 491 831C491 877 453 914 408 914C362 914 326 877 326 831Z" glyph-name="Gdotaccent" horiz-adv-x="756" unicode="&#288;" /><glyph d="M407 712C206 712 42 565 42 351C42 135 206 -11 407 -11C460 -11 510 0 556 19V0H702V390H417V253H556V170C522 147 473 128 409 128C287 128 191 224 191 351C191 475 287 572 409 572C497 572 563 518 591 478L691 580C628 660 525 712 407 712ZM325 831C325 786 361 749 407 749C452 749 490 786 490 831C490 877 452 914 407 914C361 914 325 877 325 831Z" glyph-name="Gdotaccent.ss01" horiz-adv-x="759" /><glyph d="M416 253H558C541 169 473 128 391 128C283 128 203 219 203 339C203 476 301 573 419 573C481 573 542 544 593 485L691 586C622 666 531 712 407 712C202 712 50 558 50 339C50 130 198 -11 380 -11C457 -11 533 17 576 70V0H707V390H416ZM320 742H478V891H320Z" glyph-name="Gdotaccent.ss03" horiz-adv-x="764" /><glyph d="M513 0H661V700H513V426H219V700H70V0H219V290H513Z" glyph-name="H" horiz-adv-x="731" unicode="H" /><glyph d="M513 0H661V505H731V622H661V700H513V622H219V700H70V622H0V505H70V0H219V290H513ZM219 426V505H513V426Z" glyph-name="Hbar" horiz-adv-x="731" unicode="&#294;" /><glyph d="M513 0H661V700H513V426H219V700H70V0H219V290H513ZM279 872 193 769H328L366 809L404 769H538L453 872Z" glyph-name="Hcircumflex" horiz-adv-x="731" unicode="&#292;" /><glyph d="M461 626C374 626 342 568 330 522H315C303 568 271 626 185 626C116 626 30 591 30 470C30 315 254 281 322 74H323C392 281 616 315 616 470C616 591 529 626 461 626Z" glyph-name="HeavyBlackHeart" horiz-adv-x="646" unicode="&#10084;" /><glyph d="M71 0H219V700H71Z" glyph-name="I" horiz-adv-x="288" unicode="I" /><glyph d="M70 564H170V136H70V0H418V136H317V564H418V700H70Z" glyph-name="I.ss01" horiz-adv-x="488" /><glyph d="M71 0H219V700H71ZM313 98C353 31 420 -11 516 -11C666 -11 756 76 756 241V700H608V235C608 165 571 125 512 125C467 125 435 154 413 197Z" glyph-name="IJ" horiz-adv-x="819" unicode="&#306;" /><glyph d="M70 564H170V136H70V0H418V136H317V564H418V700H70ZM649 564H840V242C840 167 810 125 750 125C699 125 665 153 665 229V250H518V229C518 77 604 -11 748 -11C889 -11 987 82 987 241V700H649Z" glyph-name="IJ.ss01" horiz-adv-x="1050" /><glyph d="M71 0H219V700H71ZM650 242C650 167 620 125 560 125C509 125 475 153 475 229V250H328V229C328 77 414 -11 558 -11C699 -11 797 82 797 241V700H650Z" glyph-name="IJ.ss03" horiz-adv-x="860" /><glyph d="M71 0H219V700H71ZM136 872 62 769H208L306 872Z" glyph-name="Iacute" horiz-adv-x="288" unicode="&#205;" /><glyph d="M70 564H170V136H70V0H418V136H317V564H418V700H70ZM236 872 162 769H308L406 872Z" glyph-name="Iacute.ss01" horiz-adv-x="488" /><glyph d="M71 0H219V700H71ZM144 740C228 740 289 794 295 886H189C186 866 176 846 144 846C112 846 102 866 100 886H-6C0 794 61 740 144 740Z" glyph-name="Ibreve" horiz-adv-x="288" unicode="&#300;" /><glyph d="M70 564H170V136H70V0H418V136H317V564H418V700H70ZM244 740C328 740 389 794 395 886H289C286 866 276 846 244 846C212 846 202 866 200 886H94C100 794 161 740 244 740Z" glyph-name="Ibreve.ss01" horiz-adv-x="488" /><glyph d="M71 0H219V700H71ZM58 872 -28 769H107L145 809L183 769H317L232 872Z" glyph-name="Icircumflex" horiz-adv-x="288" unicode="&#206;" /><glyph d="M70 564H170V136H70V0H418V136H317V564H418V700H70ZM158 872 72 769H207L245 809L283 769H417L332 872Z" glyph-name="Icircumflex.ss01" horiz-adv-x="488" /><glyph d="M71 0H219V700H71ZM-36 833C-36 792 -3 759 38 759C78 759 113 792 113 833C113 873 78 907 38 907C-3 907 -36 873 -36 833ZM176 833C176 792 209 759 250 759C290 759 325 792 325 833C325 873 290 907 250 907C209 907 176 873 176 833Z" glyph-name="Idieresis" horiz-adv-x="288" unicode="&#207;" /><glyph d="M70 564H170V136H70V0H418V136H317V564H418V700H70ZM64 833C64 792 97 759 138 759C178 759 213 792 213 833C213 873 178 907 138 907C97 907 64 873 64 833ZM276 833C276 792 309 759 350 759C390 759 425 792 425 833C425 873 390 907 350 907C309 907 276 873 276 833Z" glyph-name="Idieresis.ss01" horiz-adv-x="488" /><glyph d="M71 0H219V700H71ZM171 742H329V891H171ZM-39 742H119V891H-39Z" glyph-name="Idieresis.ss03" horiz-adv-x="288" /><glyph d="M71 0H219V700H71ZM62 831C62 786 98 749 144 749C189 749 227 786 227 831C227 877 189 914 144 914C98 914 62 877 62 831Z" glyph-name="Idotaccent" horiz-adv-x="288" unicode="&#304;" /><glyph d="M70 564H170V136H70V0H418V136H317V564H418V700H70ZM162 831C162 786 198 749 244 749C289 749 327 786 327 831C327 877 289 914 244 914C198 914 162 877 162 831Z" glyph-name="Idotaccent.ss01" horiz-adv-x="488" /><glyph d="M71 0H219V700H71ZM66 742H224V891H66Z" glyph-name="Idotaccent.ss03" horiz-adv-x="288" /><glyph d="M71 0H219V700H71ZM-18 872 80 769H226L152 872Z" glyph-name="Igrave" horiz-adv-x="288" unicode="&#204;" /><glyph d="M70 564H170V136H70V0H418V136H317V564H418V700H70ZM82 872 180 769H326L252 872Z" glyph-name="Igrave.ss01" horiz-adv-x="488" /><glyph d="M71 0H219V700H71ZM19 886V769H269V886Z" glyph-name="Imacron" horiz-adv-x="288" unicode="&#298;" /><glyph d="M70 564H170V136H70V0H418V136H317V564H418V700H70ZM119 886V769H369V886Z" glyph-name="Imacron.ss01" horiz-adv-x="488" /><glyph d="M71 0H111C80 -22 51 -59 51 -102C51 -159 93 -194 158 -194C185 -194 209 -191 220 -189V-106H216C179 -106 159 -94 159 -71C159 -47 173 -28 220 0H219V700H71Z" glyph-name="Iogonek" horiz-adv-x="288" unicode="&#302;" /><glyph d="M70 564H170V136H70V0H206C175 -22 146 -59 146 -102C146 -159 188 -194 253 -194C280 -194 304 -191 315 -189V-106H311C274 -106 254 -94 254 -71C254 -47 268 -28 315 0H418V136H317V564H418V700H70Z" glyph-name="Iogonek.ss01" horiz-adv-x="488" /><glyph d="M71 0H219V700H71ZM218 894C217 874 202 868 191 868C181 868 171 871 161 874L120 887C111 889 95 894 77 894C15 894 -20 834 -20 769H71C72 790 87 795 98 795C107 795 118 793 128 790L169 777C178 775 194 769 212 769C274 769 309 830 309 894Z" glyph-name="Itilde" horiz-adv-x="288" unicode="&#296;" /><glyph d="M70 564H170V136H70V0H418V136H317V564H418V700H70ZM318 894C317 874 302 868 291 868C281 868 271 871 261 874L220 887C211 889 195 894 177 894C115 894 80 834 80 769H171C172 790 187 795 198 795C207 795 218 793 228 790L269 777C278 775 294 769 312 769C374 769 409 830 409 894Z" glyph-name="Itilde.ss01" horiz-adv-x="488" /><glyph d="M25 98C65 31 132 -11 228 -11C378 -11 468 76 468 241V700H320V235C320 165 283 125 224 125C179 125 147 154 125 197Z" glyph-name="J" horiz-adv-x="531" unicode="J" /><glyph d="M161 564H352V242C352 167 322 125 262 125C211 125 177 153 177 229V250H30V229C30 77 116 -11 260 -11C401 -11 499 82 499 241V700H161Z" glyph-name="J.ss01" horiz-adv-x="562" /><glyph d="M362 242C362 167 332 125 272 125C221 125 187 153 187 229V250H40V229C40 77 126 -11 270 -11C411 -11 509 82 509 241V700H362Z" glyph-name="J.ss03" horiz-adv-x="572" /><glyph d="M25 98C65 31 132 -11 228 -11C378 -11 468 76 468 241V700H320V235C320 165 283 125 224 125C179 125 147 154 125 197ZM308 872 222 769H357L395 809L433 769H567L482 872Z" glyph-name="Jcircumflex" horiz-adv-x="531" unicode="&#308;" /><glyph d="M161 564H352V242C352 167 322 125 262 125C211 125 177 153 177 229V250H30V229C30 77 116 -11 260 -11C401 -11 499 82 499 241V700H161ZM251 872 165 769H300L338 809L376 769H510L425 872Z" glyph-name="Jcircumflex.ss01" horiz-adv-x="562" /><glyph d="M362 242C362 167 332 125 272 125C221 125 187 153 187 229V250H40V229C40 77 126 -11 270 -11C411 -11 509 82 509 241V700H362ZM351 872 265 769H400L438 809L476 769H610L525 872Z" glyph-name="Jcircumflex.ss03" horiz-adv-x="572" /><glyph d="M70 0H219V199L287 286L474 0H645L382 401L622 700H445L219 415V700H70Z" glyph-name="K" horiz-adv-x="670" unicode="K" /><glyph d="M70 0H217V295H263L447 0H607L375 370L601 700H444L261 433H217V700H70Z" glyph-name="K.ss01" horiz-adv-x="632" /><glyph d="M219 286 417 0H596L340 361L580 700H412L219 424V700H70V0H219Z" glyph-name="K.ss02" horiz-adv-x="621" /><glyph d="M70 0H219V199L287 286L474 0H645L382 401L622 700H445L219 415V700H70ZM262 -57 216 -194H342L414 -57Z" glyph-name="Kcommaaccent" horiz-adv-x="670" unicode="&#310;" /><glyph d="M70 0H217V295H263L447 0H607L375 370L601 700H444L261 433H217V700H70ZM259 -57 213 -194H339L411 -57Z" glyph-name="Kcommaaccent.ss01" horiz-adv-x="632" /><glyph d="M219 286 417 0H596L340 361L580 700H412L219 424V700H70V0H219ZM254 -57 208 -194H334L406 -57Z" glyph-name="Kcommaaccent.ss02" horiz-adv-x="621" /><glyph d="M70 0H539V137H219V700H70Z" glyph-name="L" horiz-adv-x="574" unicode="L" /><glyph d="M70 0H539V137H219V700H70ZM138 872 64 769H210L308 872Z" glyph-name="Lacute" horiz-adv-x="574" unicode="&#313;" /><glyph d="M70 0H539V137H219V700H70ZM389 511H284L311 700H448Z" glyph-name="Lcaron" horiz-adv-x="574" unicode="&#317;" /><glyph d="M70 0H539V137H219V700H70ZM225 -57 179 -194H305L377 -57Z" glyph-name="Lcommaaccent" horiz-adv-x="574" unicode="&#315;" /><glyph d="M70 0H539V137H219V700H70ZM335 347C335 302 371 265 417 265C462 265 500 302 500 347C500 393 462 430 417 430C371 430 335 393 335 347Z" glyph-name="Ldot" horiz-adv-x="574" unicode="&#319;" /><glyph d="M347 281H490V416H347ZM70 0H539V137H219V700H70Z" glyph-name="Ldot.ss03" horiz-adv-x="574" /><glyph d="M454 511 364 602 51 290 364 -23 454 75 302 221H764V358H299Z" glyph-name="LeftArrow" horiz-adv-x="815" unicode="&#8592;" /><glyph d="M580 10V690L40 350Z" glyph-name="LeftTriangle" horiz-adv-x="660" unicode="&#9664;" /><glyph d="M376 370V509L219 439V700H70V373L-10 338V199L70 234V0H539V137H219V300Z" glyph-name="Lslash" horiz-adv-x="574" unicode="&#321;" /><glyph d="M352 141H484L618 397V0H766V700H618L418 307L219 700H70V0H219V397Z" glyph-name="M" horiz-adv-x="836" unicode="M" /><glyph d="M453 265 370 700H70V0H219V561H248L368 0H538L661 561H691V0H841V700H539Z" glyph-name="M.ss01" horiz-adv-x="911" /><glyph d="M430 98H444L652 352V0H800V718H786L436 307L84 718H70V0H219V352Z" glyph-name="M.ss02" horiz-adv-x="870" /><glyph d="M453 205 315 700H70V0H219V521L368 0H538L691 521V0H841V700H594Z" glyph-name="M.ss03" horiz-adv-x="911" /><glyph d="M502 0H680V700H532V226L249 700H70V0H219V472Z" glyph-name="N" horiz-adv-x="750" unicode="N" /><glyph d="M666 -17H680V700H532V293L84 718H70V0H219V405Z" glyph-name="N.ss02" horiz-adv-x="750" /><glyph glyph-name="NULL" horiz-adv-x="0" /><glyph d="M502 0H680V700H532V226L249 700H70V0H219V472ZM367 872 293 769H439L537 872Z" glyph-name="Nacute" horiz-adv-x="750" unicode="&#323;" /><glyph d="M666 -17H680V700H532V293L84 718H70V0H219V405ZM367 872 293 769H439L537 872Z" glyph-name="Nacute.ss02" horiz-adv-x="750" /><glyph d="M502 0H680V700H532V226L249 700H70V0H219V472ZM463 769 548 872H414L376 831L338 872H203L289 769Z" glyph-name="Ncaron" horiz-adv-x="750" unicode="&#327;" /><glyph d="M666 -17H680V700H532V293L84 718H70V0H219V405ZM463 769 548 872H414L376 831L338 872H203L289 769Z" glyph-name="Ncaron.ss02" horiz-adv-x="750" /><glyph d="M502 0H680V700H532V226L249 700H70V0H219V472ZM333 -57 287 -194H413L485 -57Z" glyph-name="Ncommaaccent" horiz-adv-x="750" unicode="&#325;" /><glyph d="M666 -17H680V700H532V293L84 718H70V0H219V405ZM323 -57 277 -194H403L475 -57Z" glyph-name="Ncommaaccent.ss02" horiz-adv-x="750" /><glyph d="M356 390 37 72 134 -25 452 292V80H584V521H142V390Z" glyph-name="NorthEastArrow" horiz-adv-x="681" unicode="&#8599;" /><glyph d="M527 390V521H85V80H217V292L535 -25L632 72L313 390Z" glyph-name="NorthWestArrow" horiz-adv-x="681" unicode="&#8598;" /><glyph d="M502 0H680V700H532V226L249 700H70V0H219V472ZM449 894C448 874 433 868 422 868C412 868 402 871 392 874L351 887C342 889 326 894 308 894C246 894 211 834 211 769H302C303 790 318 795 329 795C338 795 349 793 359 790L400 777C409 775 425 769 443 769C505 769 540 830 540 894Z" glyph-name="Ntilde" horiz-adv-x="750" unicode="&#209;" /><glyph d="M666 -17H680V700H532V293L84 718H70V0H219V405ZM449 894C448 874 433 868 422 868C412 868 402 871 392 874L351 887C342 889 326 894 308 894C246 894 211 834 211 769H302C303 790 318 795 329 795C338 795 349 793 359 790L400 777C409 775 425 769 443 769C505 769 540 830 540 894Z" glyph-name="Ntilde.ss02" horiz-adv-x="750" /><glyph d="M42 351C42 139 201 -11 402 -11C603 -11 765 139 765 351C765 561 603 712 402 712C201 712 42 561 42 351ZM194 351C194 470 272 572 405 572C529 572 613 470 613 351C613 230 535 129 405 129C272 129 194 230 194 351Z" glyph-name="O" horiz-adv-x="807" unicode="O" /><glyph d="M50 351C50 140 180 -11 375 -11C571 -11 704 140 704 351C704 559 571 712 375 712C180 712 50 559 50 351ZM198 351C198 478 260 576 379 576C496 576 557 478 557 351C557 222 496 125 379 125C260 125 198 222 198 351Z" glyph-name="O.ss03" horiz-adv-x="754" /><glyph d="M402 0H905V137H594V290H888V425H594V563H905V700H402C201 700 42 561 42 351C42 139 201 0 402 0ZM195 351C195 470 273 563 406 563H445V137H406C273 137 195 230 195 351Z" glyph-name="OE" horiz-adv-x="968" unicode="&#338;" /><glyph d="M410 0H913V137H602V290H896V425H602V563H913V700H410C209 700 50 561 50 351C50 139 209 0 410 0ZM203 351C203 470 281 563 414 563H453V137H414C281 137 203 230 203 351Z" glyph-name="OE.ss03" horiz-adv-x="976" /><glyph d="M42 351C42 139 201 -11 402 -11C603 -11 765 139 765 351C765 561 603 712 402 712C201 712 42 561 42 351ZM194 351C194 470 272 572 405 572C529 572 613 470 613 351C613 230 535 129 405 129C272 129 194 230 194 351ZM395 872 321 769H467L565 872Z" glyph-name="Oacute" horiz-adv-x="807" unicode="&#211;" /><glyph d="M50 351C50 140 180 -11 375 -11C571 -11 704 140 704 351C704 559 571 712 375 712C180 712 50 559 50 351ZM198 351C198 478 260 576 379 576C496 576 557 478 557 351C557 222 496 125 379 125C260 125 198 222 198 351ZM369 872 295 769H441L539 872Z" glyph-name="Oacute.ss03" horiz-adv-x="754" /><glyph d="M42 351C42 139 201 -11 402 -11C603 -11 765 139 765 351C765 561 603 712 402 712C201 712 42 561 42 351ZM194 351C194 470 272 572 405 572C529 572 613 470 613 351C613 230 535 129 405 129C272 129 194 230 194 351ZM403 740C487 740 548 794 554 886H448C445 866 435 846 403 846C371 846 361 866 359 886H253C259 794 320 740 403 740Z" glyph-name="Obreve" horiz-adv-x="807" unicode="&#334;" /><glyph d="M50 351C50 140 180 -11 375 -11C571 -11 704 140 704 351C704 559 571 712 375 712C180 712 50 559 50 351ZM198 351C198 478 260 576 379 576C496 576 557 478 557 351C557 222 496 125 379 125C260 125 198 222 198 351ZM377 740C461 740 522 794 528 886H422C419 866 409 846 377 846C345 846 335 866 333 886H227C233 794 294 740 377 740Z" glyph-name="Obreve.ss03" horiz-adv-x="754" /><glyph d="M42 351C42 139 201 -11 402 -11C603 -11 765 139 765 351C765 561 603 712 402 712C201 712 42 561 42 351ZM194 351C194 470 272 572 405 572C529 572 613 470 613 351C613 230 535 129 405 129C272 129 194 230 194 351ZM317 872 231 769H366L404 809L442 769H576L491 872Z" glyph-name="Ocircumflex" horiz-adv-x="807" unicode="&#212;" /><glyph d="M50 351C50 140 180 -11 375 -11C571 -11 704 140 704 351C704 559 571 712 375 712C180 712 50 559 50 351ZM198 351C198 478 260 576 379 576C496 576 557 478 557 351C557 222 496 125 379 125C260 125 198 222 198 351ZM291 872 205 769H340L378 809L416 769H550L465 872Z" glyph-name="Ocircumflex.ss03" horiz-adv-x="754" /><glyph d="M42 351C42 139 201 -11 402 -11C603 -11 765 139 765 351C765 561 603 712 402 712C201 712 42 561 42 351ZM194 351C194 470 272 572 405 572C529 572 613 470 613 351C613 230 535 129 405 129C272 129 194 230 194 351ZM223 833C223 792 256 759 297 759C337 759 372 792 372 833C372 873 337 907 297 907C256 907 223 873 223 833ZM435 833C435 792 468 759 509 759C549 759 584 792 584 833C584 873 549 907 509 907C468 907 435 873 435 833Z" glyph-name="Odieresis" horiz-adv-x="807" unicode="&#214;" /><glyph d="M50 351C50 140 180 -11 375 -11C571 -11 704 140 704 351C704 559 571 712 375 712C180 712 50 559 50 351ZM198 351C198 478 260 576 379 576C496 576 557 478 557 351C557 222 496 125 379 125C260 125 198 222 198 351ZM403 742H561V891H403ZM193 742H351V891H193Z" glyph-name="Odieresis.ss03" horiz-adv-x="754" /><glyph d="M42 351C42 139 201 -11 402 -11C603 -11 765 139 765 351C765 561 603 712 402 712C201 712 42 561 42 351ZM194 351C194 470 272 572 405 572C529 572 613 470 613 351C613 230 535 129 405 129C272 129 194 230 194 351ZM241 872 339 769H485L411 872Z" glyph-name="Ograve" horiz-adv-x="807" unicode="&#210;" /><glyph d="M50 351C50 140 180 -11 375 -11C571 -11 704 140 704 351C704 559 571 712 375 712C180 712 50 559 50 351ZM198 351C198 478 260 576 379 576C496 576 557 478 557 351C557 222 496 125 379 125C260 125 198 222 198 351ZM215 872 313 769H459L385 872Z" glyph-name="Ograve.ss03" horiz-adv-x="754" /><glyph d="M42 351C42 139 201 -11 402 -11C603 -11 765 139 765 351C765 561 603 712 402 712C201 712 42 561 42 351ZM194 351C194 470 272 572 405 572C529 572 613 470 613 351C613 230 535 129 405 129C272 129 194 230 194 351ZM270 872 212 769H340L408 872ZM455 872 397 769H526L594 872Z" glyph-name="Ohungarumlaut" horiz-adv-x="807" unicode="&#336;" /><glyph d="M50 351C50 140 180 -11 375 -11C571 -11 704 140 704 351C704 559 571 712 375 712C180 712 50 559 50 351ZM198 351C198 478 260 576 379 576C496 576 557 478 557 351C557 222 496 125 379 125C260 125 198 222 198 351ZM244 872 186 769H314L382 872ZM429 872 371 769H500L568 872Z" glyph-name="Ohungarumlaut.ss03" horiz-adv-x="754" /><glyph d="M42 351C42 139 201 -11 402 -11C603 -11 765 139 765 351C765 561 603 712 402 712C201 712 42 561 42 351ZM194 351C194 470 272 572 405 572C529 572 613 470 613 351C613 230 535 129 405 129C272 129 194 230 194 351ZM278 886V769H528V886Z" glyph-name="Omacron" horiz-adv-x="807" unicode="&#332;" /><glyph d="M50 351C50 140 180 -11 375 -11C571 -11 704 140 704 351C704 559 571 712 375 712C180 712 50 559 50 351ZM198 351C198 478 260 576 379 576C496 576 557 478 557 351C557 222 496 125 379 125C260 125 198 222 198 351ZM252 886V769H502V886Z" glyph-name="Omacron.ss03" horiz-adv-x="754" /><glyph d="M663 129H544V165C627 202 699 291 699 414C699 605 534 712 369 712C202 712 40 605 40 414C40 290 110 201 196 165V129H76V0H325V246C243 263 183 324 183 414C183 519 271 579 370 579C469 579 556 519 556 414C556 324 497 263 415 246V0H663Z" glyph-name="Omega" horiz-adv-x="739" unicode="&#8486;" /><glyph d="M663 129H544V165C627 202 699 291 699 414C699 605 534 712 369 712C202 712 40 605 40 414C40 290 110 201 196 165V129H76V0H325V246C243 263 183 324 183 414C183 519 271 579 370 579C469 579 556 519 556 414C556 324 497 263 415 246V0H663Z" glyph-name="Omegagreek" horiz-adv-x="784" unicode="&#937;" /><glyph d="M42 351C42 246 81 156 144 92L103 33L199 -36L241 24C289 1 344 -11 402 -11C603 -11 765 139 765 351C765 458 723 550 655 614L694 670L597 740L555 680C508 700 456 712 402 712C201 712 42 561 42 351ZM614 351C614 230 536 129 406 129C376 129 349 134 325 143L568 491C597 453 614 403 614 351ZM195 351C195 470 273 572 406 572C429 572 451 568 472 561L232 218C208 255 195 301 195 351Z" glyph-name="Oslash" horiz-adv-x="807" unicode="&#216;" /><glyph d="M50 351C50 251 79 165 130 101L82 33L178 -36L221 26C266 2 317 -11 375 -11C571 -11 704 140 704 351C704 449 674 534 622 598L673 670L577 739L531 674C486 698 433 712 375 712C180 712 50 559 50 351ZM557 351C557 222 496 125 379 125C350 125 324 130 302 141L534 472C549 437 557 396 557 351ZM198 351C198 478 260 576 379 576C406 576 431 570 452 560L220 230C205 265 198 306 198 351Z" glyph-name="Oslash.ss03" horiz-adv-x="754" /><glyph d="M42 351C42 246 81 156 144 92L103 33L199 -36L241 24C289 1 344 -11 402 -11C603 -11 765 139 765 351C765 458 723 550 655 614L694 670L597 740L555 680C508 700 456 712 402 712C201 712 42 561 42 351ZM614 351C614 230 536 129 406 129C376 129 349 134 325 143L568 491C597 453 614 403 614 351ZM195 351C195 470 273 572 406 572C429 572 451 568 472 561L232 218C208 255 195 301 195 351ZM395 872 321 769H467L565 872Z" glyph-name="Oslashacute" horiz-adv-x="807" unicode="&#510;" /><glyph d="M50 351C50 251 79 165 130 101L82 33L178 -36L221 26C266 2 317 -11 375 -11C571 -11 704 140 704 351C704 449 674 534 622 598L673 670L577 739L531 674C486 698 433 712 375 712C180 712 50 559 50 351ZM557 351C557 222 496 125 379 125C350 125 324 130 302 141L534 472C549 437 557 396 557 351ZM198 351C198 478 260 576 379 576C406 576 431 570 452 560L220 230C205 265 198 306 198 351ZM369 872 295 769H441L539 872Z" glyph-name="Oslashacute.ss03" horiz-adv-x="754" /><glyph d="M42 351C42 139 201 -11 402 -11C603 -11 765 139 765 351C765 561 603 712 402 712C201 712 42 561 42 351ZM194 351C194 470 272 572 405 572C529 572 613 470 613 351C613 230 535 129 405 129C272 129 194 230 194 351ZM477 894C476 874 461 868 450 868C440 868 430 871 420 874L379 887C370 889 354 894 336 894C274 894 239 834 239 769H330C331 790 346 795 357 795C366 795 377 793 387 790L428 777C437 775 453 769 471 769C533 769 568 830 568 894Z" glyph-name="Otilde" horiz-adv-x="807" unicode="&#213;" /><glyph d="M50 351C50 140 180 -11 375 -11C571 -11 704 140 704 351C704 559 571 712 375 712C180 712 50 559 50 351ZM198 351C198 478 260 576 379 576C496 576 557 478 557 351C557 222 496 125 379 125C260 125 198 222 198 351ZM451 894C450 874 435 868 424 868C414 868 404 871 394 874L353 887C344 889 328 894 310 894C248 894 213 834 213 769H304C305 790 320 795 331 795C340 795 351 793 361 790L402 777C411 775 427 769 445 769C507 769 542 830 542 894Z" glyph-name="Otilde.ss03" horiz-adv-x="754" /><glyph d="M354 222C517 222 628 320 628 466C628 612 517 700 354 700H70V0H219V222ZM328 563C429 563 480 534 480 463C480 393 428 359 328 359H219V563Z" glyph-name="P" horiz-adv-x="658" unicode="P" /><glyph d="M42 351C42 139 201 -11 402 -11C477 -11 547 10 605 47L681 -28L776 66L701 141C741 199 765 270 765 351C765 561 603 712 402 712C201 712 42 561 42 351ZM417 236 502 150C475 136 442 129 406 129C273 129 194 230 194 351C194 470 273 572 406 572C530 572 613 470 613 351C613 314 607 280 593 249L512 331Z" glyph-name="Q" horiz-adv-x="807" unicode="Q" /><glyph d="M42 351C42 145 200 -11 401 -11C602 -11 763 145 763 351C763 555 602 712 401 712C200 712 42 555 42 351ZM372 266 490 147C464 135 435 128 405 128C287 128 195 227 195 351C195 472 287 572 405 572C520 572 612 472 612 351C612 314 604 279 589 249L471 367Z" glyph-name="Q.ss01" horiz-adv-x="805" /><glyph d="M42 351C42 139 201 -11 402 -11C477 -11 547 10 605 47L686 -33L781 61L701 141C741 199 765 270 765 351C765 561 603 712 402 712C201 712 42 561 42 351ZM614 351C614 232 536 130 403 130C279 130 195 232 195 351C195 470 273 572 406 572C530 572 614 470 614 351Z" glyph-name="Q.ss02" horiz-adv-x="807" /><glyph d="M50 356C50 146 178 1 372 0H725V136L637 128C680 188 704 266 704 356C704 564 571 712 375 712C180 712 50 564 50 356ZM198 356C198 483 260 576 379 576C496 576 557 483 557 356C557 227 496 125 379 125C260 125 198 227 198 356Z" glyph-name="Q.ss03" horiz-adv-x="760" /><glyph d="M476 0H645L490 253C573 292 628 372 628 472C628 618 512 700 360 700H70V0H219V225H338ZM334 563C435 563 480 532 480 464C480 397 434 361 334 361H219V563Z" glyph-name="R" horiz-adv-x="679" unicode="R" /><glyph d="M471 0H649L456 240C562 273 628 359 628 472C628 618 517 700 354 700H70V0H219V225H297ZM339 563C441 563 480 525 480 471C480 401 440 361 339 361H219V563Z" glyph-name="R.ss02" horiz-adv-x="683" /><glyph d="M645 0 606 146C589 210 570 255 502 297C580 331 628 404 628 483C628 623 517 700 354 700H70V0H219V250H297C417 250 439 201 460 113L487 0ZM356 563C432 563 480 536 480 477C480 414 441 386 356 386H219V563Z" glyph-name="R.ss03" horiz-adv-x="680" /><glyph d="M476 0H645L490 253C573 292 628 372 628 472C628 618 512 700 360 700H70V0H219V225H338ZM334 563C435 563 480 532 480 464C480 397 434 361 334 361H219V563ZM341 872 267 769H413L511 872Z" glyph-name="Racute" horiz-adv-x="679" unicode="&#340;" /><glyph d="M471 0H649L456 240C562 273 628 359 628 472C628 618 517 700 354 700H70V0H219V225H297ZM339 563C441 563 480 525 480 471C480 401 440 361 339 361H219V563ZM327 872 253 769H399L497 872Z" glyph-name="Racute.ss02" horiz-adv-x="683" /><glyph d="M645 0 606 146C589 210 570 255 502 297C580 331 628 404 628 483C628 623 517 700 354 700H70V0H219V250H297C417 250 439 201 460 113L487 0ZM356 563C432 563 480 536 480 477C480 414 441 386 356 386H219V563ZM349 872 275 769H421L519 872Z" glyph-name="Racute.ss03" horiz-adv-x="680" /><glyph d="M476 0H645L490 253C573 292 628 372 628 472C628 618 512 700 360 700H70V0H219V225H338ZM334 563C435 563 480 532 480 464C480 397 434 361 334 361H219V563ZM437 769 522 872H388L350 831L312 872H177L263 769Z" glyph-name="Rcaron" horiz-adv-x="679" unicode="&#344;" /><glyph d="M471 0H649L456 240C562 273 628 359 628 472C628 618 517 700 354 700H70V0H219V225H297ZM339 563C441 563 480 525 480 471C480 401 440 361 339 361H219V563ZM423 769 508 872H374L336 831L298 872H163L249 769Z" glyph-name="Rcaron.ss02" horiz-adv-x="683" /><glyph d="M645 0 606 146C589 210 570 255 502 297C580 331 628 404 628 483C628 623 517 700 354 700H70V0H219V250H297C417 250 439 201 460 113L487 0ZM356 563C432 563 480 536 480 477C480 414 441 386 356 386H219V563ZM445 769 530 872H396L358 831L320 872H185L271 769Z" glyph-name="Rcaron.ss03" horiz-adv-x="680" /><glyph d="M476 0H645L490 253C573 292 628 372 628 472C628 618 512 700 360 700H70V0H219V225H338ZM334 563C435 563 480 532 480 464C480 397 434 361 334 361H219V563ZM270 -57 224 -194H350L422 -57Z" glyph-name="Rcommaaccent" horiz-adv-x="679" unicode="&#342;" /><glyph d="M471 0H649L456 240C562 273 628 359 628 472C628 618 517 700 354 700H70V0H219V225H297ZM339 563C441 563 480 525 480 471C480 401 440 361 339 361H219V563ZM272 -57 226 -194H352L424 -57Z" glyph-name="Rcommaaccent.ss02" horiz-adv-x="683" /><glyph d="M645 0 606 146C589 210 570 255 502 297C580 331 628 404 628 483C628 623 517 700 354 700H70V0H219V250H297C417 250 439 201 460 113L487 0ZM356 563C432 563 480 536 480 477C480 414 441 386 356 386H219V563ZM278 -57 232 -194H358L430 -57Z" glyph-name="Rcommaaccent.ss03" horiz-adv-x="680" /><glyph d="M505 358H40V221H502L350 75L440 -23L753 290L440 602L350 511Z" glyph-name="RightArrow" horiz-adv-x="815" unicode="&#8594;" /><glyph d="M620 350 80 690V10Z" glyph-name="RightTriangle" horiz-adv-x="660" unicode="&#9658;" /><glyph d="M368 275C440 262 466 236 466 201C466 158 422 125 344 125C255 125 189 170 146 226L44 123C102 50 205 -11 335 -11C504 -11 614 75 614 203C614 327 532 397 378 422L309 433C235 446 209 473 209 507C209 548 249 576 312 576C387 576 445 541 490 495L590 600C534 659 443 712 320 712C187 712 61 636 61 500C61 380 151 312 282 290Z" glyph-name="S" horiz-adv-x="654" unicode="S" /><glyph d="M344 271C395 251 416 223 416 195C416 155 386 123 316 123C253 123 190 157 142 221L45 122C97 49 187 -11 303 -11C460 -11 562 70 562 201C562 309 492 359 398 398L299 439C242 462 223 485 223 516C223 544 246 577 297 577C350 577 394 559 433 512L529 609C484 664 404 712 308 712C186 712 77 643 77 511C77 414 145 350 241 312Z" glyph-name="S.ss02" horiz-adv-x="602" /><glyph d="M368 275C440 262 466 236 466 201C466 158 422 125 344 125C255 125 189 170 146 226L44 123C102 50 205 -11 335 -11C504 -11 614 75 614 203C614 327 532 397 378 422L309 433C235 446 209 473 209 507C209 548 249 576 312 576C387 576 445 541 490 495L590 600C534 659 443 712 320 712C187 712 61 636 61 500C61 380 151 312 282 290ZM321 872 247 769H393L491 872Z" glyph-name="Sacute" horiz-adv-x="654" unicode="&#346;" /><glyph d="M344 271C395 251 416 223 416 195C416 155 386 123 316 123C253 123 190 157 142 221L45 122C97 49 187 -11 303 -11C460 -11 562 70 562 201C562 309 492 359 398 398L299 439C242 462 223 485 223 516C223 544 246 577 297 577C350 577 394 559 433 512L529 609C484 664 404 712 308 712C186 712 77 643 77 511C77 414 145 350 241 312ZM302 872 228 769H374L472 872Z" glyph-name="Sacute.ss02" horiz-adv-x="602" /><glyph d="M368 275C440 262 466 236 466 201C466 158 422 125 344 125C255 125 189 170 146 226L44 123C102 50 205 -11 335 -11C504 -11 614 75 614 203C614 327 532 397 378 422L309 433C235 446 209 473 209 507C209 548 249 576 312 576C387 576 445 541 490 495L590 600C534 659 443 712 320 712C187 712 61 636 61 500C61 380 151 312 282 290ZM417 769 502 872H368L330 831L292 872H157L243 769Z" glyph-name="Scaron" horiz-adv-x="654" unicode="&#352;" /><glyph d="M344 271C395 251 416 223 416 195C416 155 386 123 316 123C253 123 190 157 142 221L45 122C97 49 187 -11 303 -11C460 -11 562 70 562 201C562 309 492 359 398 398L299 439C242 462 223 485 223 516C223 544 246 577 297 577C350 577 394 559 433 512L529 609C484 664 404 712 308 712C186 712 77 643 77 511C77 414 145 350 241 312ZM398 769 483 872H349L311 831L273 872H138L224 769Z" glyph-name="Scaron.ss02" horiz-adv-x="602" /><glyph d="M351 -137 403 -6C533 14 614 93 614 203C614 327 532 397 378 422L309 433C235 446 209 473 209 507C209 548 249 576 312 576C387 576 445 541 490 495L590 600C534 659 443 712 320 712C187 712 61 636 61 500C61 380 151 312 282 290L368 275C440 262 466 236 466 201C466 158 422 125 344 125C255 125 189 170 146 226L44 123C93 61 174 8 276 -6L208 -137Z" glyph-name="Scedilla" horiz-adv-x="654" unicode="&#350;" /><glyph d="M368 275C440 262 466 236 466 201C466 158 422 125 344 125C255 125 189 170 146 226L44 123C93 61 174 8 276 -6V-137H403V-6C533 14 614 93 614 203C614 327 532 397 378 422L309 433C235 446 209 473 209 507C209 548 249 576 312 576C387 576 445 541 490 495L590 600C534 659 443 712 320 712C187 712 61 636 61 500C61 380 151 312 282 290Z" glyph-name="Scedilla.ss01" horiz-adv-x="654" /><glyph d="M322 -137 375 -4C490 17 562 91 562 201C562 309 492 359 398 398L299 439C242 462 223 485 223 516C223 544 246 577 297 577C350 577 394 559 433 512L529 609C484 664 404 712 308 712C186 712 77 643 77 511C77 414 145 350 241 312L344 271C395 251 416 223 416 195C416 155 386 123 316 123C253 123 190 157 142 221L45 122C88 61 158 9 247 -6L179 -137Z" glyph-name="Scedilla.ss02" horiz-adv-x="602" /><glyph d="M368 275C440 262 466 236 466 201C466 158 422 125 344 125C255 125 189 170 146 226L44 123C102 50 205 -11 335 -11C504 -11 614 75 614 203C614 327 532 397 378 422L309 433C235 446 209 473 209 507C209 548 249 576 312 576C387 576 445 541 490 495L590 600C534 659 443 712 320 712C187 712 61 636 61 500C61 380 151 312 282 290ZM243 872 157 769H292L330 809L368 769H502L417 872Z" glyph-name="Scircumflex" horiz-adv-x="654" unicode="&#348;" /><glyph d="M344 271C395 251 416 223 416 195C416 155 386 123 316 123C253 123 190 157 142 221L45 122C97 49 187 -11 303 -11C460 -11 562 70 562 201C562 309 492 359 398 398L299 439C242 462 223 485 223 516C223 544 246 577 297 577C350 577 394 559 433 512L529 609C484 664 404 712 308 712C186 712 77 643 77 511C77 414 145 350 241 312ZM224 872 138 769H273L311 809L349 769H483L398 872Z" glyph-name="Scircumflex.ss02" horiz-adv-x="602" /><glyph d="M368 275C440 262 466 236 466 201C466 158 422 125 344 125C255 125 189 170 146 226L44 123C102 50 205 -11 335 -11C504 -11 614 75 614 203C614 327 532 397 378 422L309 433C235 446 209 473 209 507C209 548 249 576 312 576C387 576 445 541 490 495L590 600C534 659 443 712 320 712C187 712 61 636 61 500C61 380 151 312 282 290ZM260 -57 214 -194H340L412 -57Z" glyph-name="Scommaaccent" horiz-adv-x="654" unicode="&#536;" /><glyph d="M344 271C395 251 416 223 416 195C416 155 386 123 316 123C253 123 190 157 142 221L45 122C97 49 187 -11 303 -11C460 -11 562 70 562 201C562 309 492 359 398 398L299 439C242 462 223 485 223 516C223 544 246 577 297 577C350 577 394 559 433 512L529 609C484 664 404 712 308 712C186 712 77 643 77 511C77 414 145 350 241 312ZM231 -57 185 -194H311L383 -57Z" glyph-name="Scommaaccent.ss02" horiz-adv-x="602" /><glyph d="M176 131V0H618V441H486V229L168 546L71 449L390 131Z" glyph-name="SouthEastArrow" horiz-adv-x="681" unicode="&#8600;" /><glyph d="M313 131 632 449 535 546 217 229V441H85V0H527V131Z" glyph-name="SouthWestArrow" horiz-adv-x="681" unicode="&#8601;" /><glyph d="M30 700V563H231V0H379V563H580V700Z" glyph-name="T" horiz-adv-x="610" unicode="T" /><glyph d="M30 700V563H231V373H105V256H231V0H379V256H505V373H379V563H580V700Z" glyph-name="Tbar" horiz-adv-x="610" unicode="&#358;" /><glyph d="M30 700V563H231V0H379V563H580V700ZM393 769 478 872H344L306 831L268 872H133L219 769Z" glyph-name="Tcaron" horiz-adv-x="610" unicode="&#356;" /><glyph d="M30 700V563H231V0H379V563H580V700ZM226 -57 180 -194H306L378 -57Z" glyph-name="Tcommaaccent" horiz-adv-x="610" unicode="&#538;" /><glyph d="M337 120C500 120 611 218 611 364C611 510 500 598 337 598H219V700H70V0H219V120ZM311 462C412 462 463 431 463 360C463 291 411 256 311 256H219V462Z" glyph-name="Thorn" horiz-adv-x="641" unicode="&#222;" /><glyph d="M503 306C503 193 459 125 357 125C256 125 211 204 211 304V700H63V311C63 97 177 -11 357 -11C537 -11 651 97 651 311V700H503Z" glyph-name="U" horiz-adv-x="714" unicode="U" /><glyph d="M503 306C503 193 459 125 357 125C256 125 211 204 211 304V700H63V311C63 97 177 -11 357 -11C537 -11 651 97 651 311V700H503ZM349 872 275 769H421L519 872Z" glyph-name="Uacute" horiz-adv-x="714" unicode="&#218;" /><glyph d="M503 306C503 193 459 125 357 125C256 125 211 204 211 304V700H63V311C63 97 177 -11 357 -11C537 -11 651 97 651 311V700H503ZM357 740C441 740 502 794 508 886H402C399 866 389 846 357 846C325 846 315 866 313 886H207C213 794 274 740 357 740Z" glyph-name="Ubreve" horiz-adv-x="714" unicode="&#364;" /><glyph d="M503 306C503 193 459 125 357 125C256 125 211 204 211 304V700H63V311C63 97 177 -11 357 -11C537 -11 651 97 651 311V700H503ZM271 872 185 769H320L358 809L396 769H530L445 872Z" glyph-name="Ucircumflex" horiz-adv-x="714" unicode="&#219;" /><glyph d="M503 306C503 193 459 125 357 125C256 125 211 204 211 304V700H63V311C63 97 177 -11 357 -11C537 -11 651 97 651 311V700H503ZM177 833C177 792 210 759 251 759C291 759 326 792 326 833C326 873 291 907 251 907C210 907 177 873 177 833ZM389 833C389 792 422 759 463 759C503 759 538 792 538 833C538 873 503 907 463 907C422 907 389 873 389 833Z" glyph-name="Udieresis" horiz-adv-x="714" unicode="&#220;" /><glyph d="M503 306C503 193 459 125 357 125C256 125 211 204 211 304V700H63V311C63 97 177 -11 357 -11C537 -11 651 97 651 311V700H503ZM383 742H541V891H383ZM173 742H331V891H173Z" glyph-name="Udieresis.ss03" horiz-adv-x="714" /><glyph d="M503 306C503 193 459 125 357 125C256 125 211 204 211 304V700H63V311C63 97 177 -11 357 -11C537 -11 651 97 651 311V700H503ZM195 872 293 769H439L365 872Z" glyph-name="Ugrave" horiz-adv-x="714" unicode="&#217;" /><glyph d="M503 306C503 193 459 125 357 125C256 125 211 204 211 304V700H63V311C63 97 177 -11 357 -11C537 -11 651 97 651 311V700H503ZM224 872 166 769H294L362 872ZM409 872 351 769H480L548 872Z" glyph-name="Uhungarumlaut" horiz-adv-x="714" unicode="&#368;" /><glyph d="M503 306C503 193 459 125 357 125C256 125 211 204 211 304V700H63V311C63 97 177 -11 357 -11C537 -11 651 97 651 311V700H503ZM232 886V769H482V886Z" glyph-name="Umacron" horiz-adv-x="714" unicode="&#362;" /><glyph d="M503 306C503 193 459 125 357 125C256 125 211 204 211 304V700H63V311C63 111 162 4 322 -9C295 -32 273 -65 273 -102C273 -159 315 -194 380 -194C407 -194 431 -191 442 -189V-106H438C401 -106 381 -94 381 -71C381 -48 394 -29 437 -2C570 26 651 131 651 311V700H503Z" glyph-name="Uogonek" horiz-adv-x="714" unicode="&#370;" /><glyph d="M585 310 676 400 364 712 51 400 149 310 295 461V0H432V463Z" glyph-name="UpArrow" horiz-adv-x="727" unicode="&#8593;" /><glyph d="M40 80H720L380 620Z" glyph-name="UpTriangle" horiz-adv-x="760" unicode="&#9650;" /><glyph d="M503 306C503 193 459 125 357 125C256 125 211 204 211 304V700H63V311C63 97 177 -11 357 -11C537 -11 651 97 651 311V700H503ZM259 774C259 722 303 679 357 679C410 679 455 722 455 774C455 828 410 871 357 871C303 871 259 828 259 774ZM381 774C381 760 370 750 357 750C344 750 333 760 333 774C333 788 344 798 357 798C370 798 381 788 381 774Z" glyph-name="Uring" horiz-adv-x="714" unicode="&#366;" /><glyph d="M503 306C503 193 459 125 357 125C256 125 211 204 211 304V700H63V311C63 97 177 -11 357 -11C537 -11 651 97 651 311V700H503ZM431 894C430 874 415 868 404 868C394 868 384 871 374 874L333 887C324 889 308 894 290 894C228 894 193 834 193 769H284C285 790 300 795 311 795C320 795 331 793 341 790L382 777C391 775 407 769 425 769C487 769 522 830 522 894Z" glyph-name="Utilde" horiz-adv-x="714" unicode="&#360;" /><glyph d="M333 193 166 700H15L255 0H409L649 700H497Z" glyph-name="V" horiz-adv-x="664" unicode="V" /><glyph d="M171 700H20L219 0H485L684 700H533L376 137H329Z" glyph-name="V.ss01" horiz-adv-x="704" /><glyph d="M162 700H11L320 -17H334L643 700H492L327 288Z" glyph-name="V.ss02" horiz-adv-x="654" /><glyph d="M179 700H20L207 0H359L480 462L600 0H752L939 700H780L672 252L559 700H400L287 252Z" glyph-name="W" horiz-adv-x="959" unicode="W" /><glyph d="M498 168 545 0H784L979 700H823L671 137H641L572 368L677 700H531L497 572L463 700H317L422 368L353 137H323L171 700H15L215 0H449Z" glyph-name="W.ss01" horiz-adv-x="994" /><glyph d="M678 -17H692L934 700H783L665 332L481 718H467L283 332L165 700H14L256 -17H270L474 419Z" glyph-name="W.ss02" horiz-adv-x="948" /><glyph d="M179 700H20L207 0H359L480 462L600 0H752L939 700H780L672 252L559 700H400L287 252ZM471 872 397 769H543L641 872Z" glyph-name="Wacute" horiz-adv-x="959" unicode="&#7810;" /><glyph d="M498 168 545 0H784L979 700H823L671 137H641L572 368L677 700H531L497 572L463 700H317L422 368L353 137H323L171 700H15L215 0H449ZM489 872 415 769H561L659 872Z" glyph-name="Wacute.ss01" horiz-adv-x="994" /><glyph d="M678 -17H692L934 700H783L665 332L481 718H467L283 332L165 700H14L256 -17H270L474 419ZM466 872 392 769H538L636 872Z" glyph-name="Wacute.ss02" horiz-adv-x="948" /><glyph d="M179 700H20L207 0H359L480 462L600 0H752L939 700H780L672 252L559 700H400L287 252ZM393 872 307 769H442L480 809L518 769H652L567 872Z" glyph-name="Wcircumflex" horiz-adv-x="959" unicode="&#372;" /><glyph d="M498 168 545 0H784L979 700H823L671 137H641L572 368L677 700H531L497 572L463 700H317L422 368L353 137H323L171 700H15L215 0H449ZM411 872 325 769H460L498 809L536 769H670L585 872Z" glyph-name="Wcircumflex.ss01" horiz-adv-x="994" /><glyph d="M678 -17H692L934 700H783L665 332L481 718H467L283 332L165 700H14L256 -17H270L474 419ZM388 872 302 769H437L475 809L513 769H647L562 872Z" glyph-name="Wcircumflex.ss02" horiz-adv-x="948" /><glyph d="M179 700H20L207 0H359L480 462L600 0H752L939 700H780L672 252L559 700H400L287 252ZM299 833C299 792 332 759 373 759C413 759 448 792 448 833C448 873 413 907 373 907C332 907 299 873 299 833ZM511 833C511 792 544 759 585 759C625 759 660 792 660 833C660 873 625 907 585 907C544 907 511 873 511 833Z" glyph-name="Wdieresis" horiz-adv-x="959" unicode="&#7812;" /><glyph d="M498 168 545 0H784L979 700H823L671 137H641L572 368L677 700H531L497 572L463 700H317L422 368L353 137H323L171 700H15L215 0H449ZM317 833C317 792 350 759 391 759C431 759 466 792 466 833C466 873 431 907 391 907C350 907 317 873 317 833ZM529 833C529 792 562 759 603 759C643 759 678 792 678 833C678 873 643 907 603 907C562 907 529 873 529 833Z" glyph-name="Wdieresis.ss01" horiz-adv-x="994" /><glyph d="M678 -17H692L934 700H783L665 332L481 718H467L283 332L165 700H14L256 -17H270L474 419ZM294 833C294 792 327 759 368 759C408 759 443 792 443 833C443 873 408 907 368 907C327 907 294 873 294 833ZM506 833C506 792 539 759 580 759C620 759 655 792 655 833C655 873 620 907 580 907C539 907 506 873 506 833Z" glyph-name="Wdieresis.ss02" horiz-adv-x="948" /><glyph d="M179 700H20L207 0H359L480 462L600 0H752L939 700H780L672 252L559 700H400L287 252ZM506 742H664V891H506ZM296 742H454V891H296Z" glyph-name="Wdieresis.ss03" horiz-adv-x="959" /><glyph d="M179 700H20L207 0H359L480 462L600 0H752L939 700H780L672 252L559 700H400L287 252ZM317 872 415 769H561L487 872Z" glyph-name="Wgrave" horiz-adv-x="959" unicode="&#7808;" /><glyph d="M498 168 545 0H784L979 700H823L671 137H641L572 368L677 700H531L497 572L463 700H317L422 368L353 137H323L171 700H15L215 0H449ZM335 872 433 769H579L505 872Z" glyph-name="Wgrave.ss01" horiz-adv-x="994" /><glyph d="M678 -17H692L934 700H783L665 332L481 718H467L283 332L165 700H14L256 -17H270L474 419ZM312 872 410 769H556L482 872Z" glyph-name="Wgrave.ss02" horiz-adv-x="948" /><glyph d="M212 700H38L256 359L25 0H198L344 236L491 0H664L433 359L651 700H477L344 479Z" glyph-name="X" horiz-adv-x="689" unicode="X" /><glyph d="M359 290 488 0H643L484 359L630 700H475L359 430H310L194 700H38L184 359L25 0H181L310 290Z" glyph-name="X.ss01" horiz-adv-x="668" /><glyph d="M172 700H10L242 245V0H389V245L623 700H461L316 406Z" glyph-name="Y" horiz-adv-x="633" unicode="Y" /><glyph d="M172 700H10L242 245V0H389V245L623 700H461L316 406ZM308 872 234 769H380L478 872Z" glyph-name="Yacute" horiz-adv-x="633" unicode="&#221;" /><glyph d="M172 700H10L242 245V0H389V245L623 700H461L316 406ZM230 872 144 769H279L317 809L355 769H489L404 872Z" glyph-name="Ycircumflex" horiz-adv-x="633" unicode="&#374;" /><glyph d="M172 700H10L242 245V0H389V245L623 700H461L316 406ZM136 833C136 792 169 759 210 759C250 759 285 792 285 833C285 873 250 907 210 907C169 907 136 873 136 833ZM348 833C348 792 381 759 422 759C462 759 497 792 497 833C497 873 462 907 422 907C381 907 348 873 348 833Z" glyph-name="Ydieresis" horiz-adv-x="633" unicode="&#376;" /><glyph d="M172 700H10L242 245V0H389V245L623 700H461L316 406ZM342 742H500V891H342ZM132 742H290V891H132Z" glyph-name="Ydieresis.ss03" horiz-adv-x="633" /><glyph d="M172 700H10L242 245V0H389V245L623 700H461L316 406ZM154 872 252 769H398L324 872Z" glyph-name="Ygrave" horiz-adv-x="633" unicode="&#7922;" /><glyph d="M61 700V563H412L58 131V0H611V137H246L600 569V700Z" glyph-name="Z" horiz-adv-x="655" unicode="Z" /><glyph d="M81 700V563H387L45 14V0H623V137H290L630 686V700Z" glyph-name="Z.ss02" horiz-adv-x="678" /><glyph d="M61 700V563H412L58 131V0H611V137H246L600 569V700ZM326 872 252 769H398L496 872Z" glyph-name="Zacute" horiz-adv-x="655" unicode="&#377;" /><glyph d="M81 700V563H387L45 14V0H623V137H290L630 686V700ZM329 872 255 769H401L499 872Z" glyph-name="Zacute.ss02" horiz-adv-x="678" /><glyph d="M61 700V563H412L58 131V0H611V137H246L600 569V700ZM422 769 507 872H373L335 831L297 872H162L248 769Z" glyph-name="Zcaron" horiz-adv-x="655" unicode="&#381;" /><glyph d="M81 700V563H387L45 14V0H623V137H290L630 686V700ZM425 769 510 872H376L338 831L300 872H165L251 769Z" glyph-name="Zcaron.ss02" horiz-adv-x="678" /><glyph d="M61 700V563H412L58 131V0H611V137H246L600 569V700ZM252 831C252 786 288 749 334 749C379 749 417 786 417 831C417 877 379 914 334 914C288 914 252 877 252 831Z" glyph-name="Zdotaccent" horiz-adv-x="655" unicode="&#379;" /><glyph d="M81 700V563H387L45 14V0H623V137H290L630 686V700ZM281 831C281 786 317 749 363 749C408 749 446 786 446 831C446 877 408 914 363 914C317 914 281 877 281 831Z" glyph-name="Zdotaccent.ss02" horiz-adv-x="678" /><glyph d="M61 700V563H412L58 131V0H611V137H246L600 569V700ZM255 742H413V891H255Z" glyph-name="Zdotaccent.ss03" horiz-adv-x="655" /><glyph d="M210 -11C266 -11 308 10 333 32V0H475V306C475 431 379 502 260 502C190 502 118 480 55 405L145 319C171 358 212 376 250 376C301 376 331 342 331 296V288C307 295 272 302 234 302C133 302 40 252 40 144C40 56 104 -11 210 -11ZM183 153C183 182 210 204 266 204C291 204 314 199 331 195V139C307 121 278 109 244 109C208 109 183 127 183 153Z" glyph-name="a" horiz-adv-x="533" unicode="a" /><glyph d="M161 334C204 334 237 349 255 364V342H369V567C369 658 294 711 202 711C151 711 95 700 41 639L113 573C136 604 167 614 194 614C231 614 253 590 253 558V556C233 561 207 565 181 565C103 565 30 529 30 448C30 384 78 334 161 334ZM145 456C145 476 166 491 208 491C223 491 239 489 253 485V445C236 434 214 426 190 426C164 426 145 438 145 456Z" glyph-name="a.ordn" horiz-adv-x="413" /><glyph d="M61 602H252V572H176C95 572 37 529 37 459C37 390 91 342 176 342H367V703H61ZM252 478V441H171C156 441 145 447 145 459C145 472 156 478 171 478Z" glyph-name="a.ordn.ss01" horiz-adv-x="414" /><glyph d="M31 523C31 414 113 334 219 334C272 334 305 352 324 368V343H439V704H324V679C305 695 272 712 219 712C113 712 31 633 31 523ZM146 523C146 574 183 614 233 614C290 614 324 574 324 523C324 473 290 433 233 433C182 433 146 473 146 523Z" glyph-name="a.ordn.ss02" horiz-adv-x="491" /><glyph d="M161 334C204 334 249 347 277 375C287 351 305 340 347 340C365 340 397 343 397 343V422C397 422 388 421 387 421C365 421 360 428 360 454V577C360 666 288 711 202 711C115 711 51 669 40 585H153C156 609 175 623 200 623C228 623 247 606 247 579V566L166 556C80 546 28 510 28 445C28 379 79 334 161 334ZM137 453C137 473 153 485 184 489L247 499V482C247 446 219 421 179 421C151 421 137 436 137 453Z" glyph-name="a.ordn.ss03" horiz-adv-x="410" /><glyph d="M83 360H330V312H228C124 312 50 253 50 159C50 65 119 0 228 0H472V490H83ZM330 190V128H223C199 128 183 139 183 159C183 179 199 190 223 190Z" glyph-name="a.ss01" horiz-adv-x="535" /><glyph d="M35 245C35 98 150 -11 292 -11C356 -11 400 13 428 36V0H571V490H428V457C400 483 347 502 292 502C150 502 35 392 35 245ZM182 248C182 314 233 370 303 370C381 370 428 314 428 248C428 183 381 122 303 122C233 122 182 183 182 248Z" glyph-name="a.ss02" horiz-adv-x="634" /><glyph d="M214 -11C271 -11 319 4 355 45C369 7 399 -2 451 -2C474 -2 508 1 508 1V120H491C463 120 458 137 458 160V337C458 447 373 502 262 502C149 502 67 435 60 326H203C206 359 233 371 259 371C293 371 315 354 315 322V306L209 293C98 279 44 226 44 137C44 60 108 -11 214 -11ZM183 153C183 178 202 189 231 194L315 207V201C315 144 286 114 233 114C204 114 183 130 183 153Z" glyph-name="a.ss03" horiz-adv-x="531" /><glyph d="M210 -11C266 -11 308 10 333 32V0H475V306C475 431 379 502 260 502C190 502 118 480 55 405L145 319C171 358 212 376 250 376C301 376 331 342 331 296V288C307 295 272 302 234 302C133 302 40 252 40 144C40 56 104 -11 210 -11ZM183 153C183 182 210 204 266 204C291 204 314 199 331 195V139C307 121 278 109 244 109C208 109 183 127 183 153ZM244 700 170 558H304L424 700Z" glyph-name="aacute" horiz-adv-x="533" unicode="&#225;" /><glyph d="M83 360H330V312H228C124 312 50 253 50 159C50 65 119 0 228 0H472V490H83ZM330 190V128H223C199 128 183 139 183 159C183 179 199 190 223 190ZM267 700 193 558H327L447 700Z" glyph-name="aacute.ss01" horiz-adv-x="535" /><glyph d="M35 245C35 98 150 -11 292 -11C356 -11 400 13 428 36V0H571V490H428V457C400 483 347 502 292 502C150 502 35 392 35 245ZM182 248C182 314 233 370 303 370C381 370 428 314 428 248C428 183 381 122 303 122C233 122 182 183 182 248ZM312 700 238 558H372L492 700Z" glyph-name="aacute.ss02" horiz-adv-x="634" /><glyph d="M214 -11C271 -11 319 4 355 45C369 7 399 -2 451 -2C474 -2 508 1 508 1V120H491C463 120 458 137 458 160V337C458 447 373 502 262 502C149 502 67 435 60 326H203C206 359 233 371 259 371C293 371 315 354 315 322V306L209 293C98 279 44 226 44 137C44 60 108 -11 214 -11ZM183 153C183 178 202 189 231 194L315 207V201C315 144 286 114 233 114C204 114 183 130 183 153ZM255 700 181 558H315L435 700Z" glyph-name="aacute.ss03" horiz-adv-x="531" /><glyph d="M210 -11C266 -11 308 10 333 32V0H475V306C475 431 379 502 260 502C190 502 118 480 55 405L145 319C171 358 212 376 250 376C301 376 331 342 331 296V288C307 295 272 302 234 302C133 302 40 252 40 144C40 56 104 -11 210 -11ZM183 153C183 182 210 204 266 204C291 204 314 199 331 195V139C307 121 278 109 244 109C208 109 183 127 183 153ZM257 552C341 552 402 608 398 700H302C299 680 289 660 257 660C225 660 215 680 213 700H117C113 608 174 552 257 552Z" glyph-name="abreve" horiz-adv-x="533" unicode="&#259;" /><glyph d="M83 360H330V312H228C124 312 50 253 50 159C50 65 119 0 228 0H472V490H83ZM330 190V128H223C199 128 183 139 183 159C183 179 199 190 223 190ZM280 552C364 552 425 608 421 700H325C322 680 312 660 280 660C248 660 238 680 236 700H140C136 608 197 552 280 552Z" glyph-name="abreve.ss01" horiz-adv-x="535" /><glyph d="M35 245C35 98 150 -11 292 -11C356 -11 400 13 428 36V0H571V490H428V457C400 483 347 502 292 502C150 502 35 392 35 245ZM182 248C182 314 233 370 303 370C381 370 428 314 428 248C428 183 381 122 303 122C233 122 182 183 182 248ZM325 552C409 552 470 608 466 700H370C367 680 357 660 325 660C293 660 283 680 281 700H185C181 608 242 552 325 552Z" glyph-name="abreve.ss02" horiz-adv-x="634" /><glyph d="M214 -11C271 -11 319 4 355 45C369 7 399 -2 451 -2C474 -2 508 1 508 1V120H491C463 120 458 137 458 160V337C458 447 373 502 262 502C149 502 67 435 60 326H203C206 359 233 371 259 371C293 371 315 354 315 322V306L209 293C98 279 44 226 44 137C44 60 108 -11 214 -11ZM183 153C183 178 202 189 231 194L315 207V201C315 144 286 114 233 114C204 114 183 130 183 153ZM268 552C352 552 413 608 409 700H313C310 680 300 660 268 660C236 660 226 680 224 700H128C124 608 185 552 268 552Z" glyph-name="abreve.ss03" horiz-adv-x="531" /><glyph d="M210 -11C266 -11 308 10 333 32V0H475V306C475 431 379 502 260 502C190 502 118 480 55 405L145 319C171 358 212 376 250 376C301 376 331 342 331 296V288C307 295 272 302 234 302C133 302 40 252 40 144C40 56 104 -11 210 -11ZM183 153C183 182 210 204 266 204C291 204 314 199 331 195V139C307 121 278 109 244 109C208 109 183 127 183 153ZM176 700 85 558H208L257 617L307 558H430L339 700Z" glyph-name="acircumflex" horiz-adv-x="533" unicode="&#226;" /><glyph d="M83 360H330V312H228C124 312 50 253 50 159C50 65 119 0 228 0H472V490H83ZM330 190V128H223C199 128 183 139 183 159C183 179 199 190 223 190ZM199 700 108 558H231L280 617L330 558H453L362 700Z" glyph-name="acircumflex.ss01" horiz-adv-x="535" /><glyph d="M35 245C35 98 150 -11 292 -11C356 -11 400 13 428 36V0H571V490H428V457C400 483 347 502 292 502C150 502 35 392 35 245ZM182 248C182 314 233 370 303 370C381 370 428 314 428 248C428 183 381 122 303 122C233 122 182 183 182 248ZM244 700 153 558H276L325 617L375 558H498L407 700Z" glyph-name="acircumflex.ss02" horiz-adv-x="634" /><glyph d="M214 -11C271 -11 319 4 355 45C369 7 399 -2 451 -2C474 -2 508 1 508 1V120H491C463 120 458 137 458 160V337C458 447 373 502 262 502C149 502 67 435 60 326H203C206 359 233 371 259 371C293 371 315 354 315 322V306L209 293C98 279 44 226 44 137C44 60 108 -11 214 -11ZM183 153C183 178 202 189 231 194L315 207V201C315 144 286 114 233 114C204 114 183 130 183 153ZM187 700 96 558H219L268 617L318 558H441L350 700Z" glyph-name="acircumflex.ss03" horiz-adv-x="531" /><glyph d="M197 700 123 558H257L377 700Z" glyph-name="acute" horiz-adv-x="500" unicode="&#180;" /><glyph d="M202 872 128 769H274L372 872Z" glyph-name="acute.cap" horiz-adv-x="500" /><glyph d="M210 -11C266 -11 308 10 333 32V0H475V306C475 431 379 502 260 502C190 502 118 480 55 405L145 319C171 358 212 376 250 376C301 376 331 342 331 296V288C307 295 272 302 234 302C133 302 40 252 40 144C40 56 104 -11 210 -11ZM183 153C183 182 210 204 266 204C291 204 314 199 331 195V139C307 121 278 109 244 109C208 109 183 127 183 153ZM77 638C77 597 110 564 151 564C191 564 226 597 226 638C226 678 191 712 151 712C110 712 77 678 77 638ZM289 638C289 597 322 564 363 564C403 564 438 597 438 638C438 678 403 712 363 712C322 712 289 678 289 638Z" glyph-name="adieresis" horiz-adv-x="533" unicode="&#228;" /><glyph d="M83 360H330V312H228C124 312 50 253 50 159C50 65 119 0 228 0H472V490H83ZM330 190V128H223C199 128 183 139 183 159C183 179 199 190 223 190ZM100 638C100 597 133 564 174 564C214 564 249 597 249 638C249 678 214 712 174 712C133 712 100 678 100 638ZM312 638C312 597 345 564 386 564C426 564 461 597 461 638C461 678 426 712 386 712C345 712 312 678 312 638Z" glyph-name="adieresis.ss01" horiz-adv-x="535" /><glyph d="M35 245C35 98 150 -11 292 -11C356 -11 400 13 428 36V0H571V490H428V457C400 483 347 502 292 502C150 502 35 392 35 245ZM182 248C182 314 233 370 303 370C381 370 428 314 428 248C428 183 381 122 303 122C233 122 182 183 182 248ZM145 638C145 597 178 564 219 564C259 564 294 597 294 638C294 678 259 712 219 712C178 712 145 678 145 638ZM357 638C357 597 390 564 431 564C471 564 506 597 506 638C506 678 471 712 431 712C390 712 357 678 357 638Z" glyph-name="adieresis.ss02" horiz-adv-x="634" /><glyph d="M214 -11C271 -11 319 4 355 45C369 7 399 -2 451 -2C474 -2 508 1 508 1V120H491C463 120 458 137 458 160V337C458 447 373 502 262 502C149 502 67 435 60 326H203C206 359 233 371 259 371C293 371 315 354 315 322V306L209 293C98 279 44 226 44 137C44 60 108 -11 214 -11ZM183 153C183 178 202 189 231 194L315 207V201C315 144 286 114 233 114C204 114 183 130 183 153ZM295 551H453V700H295ZM85 551H243V700H85Z" glyph-name="adieresis.ss03" horiz-adv-x="531" /><glyph d="M801 209C801 209 802 234 802 251C802 375 728 502 569 502C504 502 449 478 408 439C371 480 316 502 260 502C185 502 113 480 55 402L145 317C174 357 212 370 250 370C296 370 335 348 335 302H234C133 302 40 252 40 144C40 56 111 -11 228 -11C293 -11 355 11 408 53C453 12 515 -11 586 -11C691 -11 750 34 793 88L693 181C667 140 635 119 585 119C521 119 481 157 476 209ZM335 199C337 181 341 165 346 149C322 128 281 109 241 109C204 109 183 127 183 152C183 185 213 199 260 199ZM573 377C619 377 649 345 652 304H483C492 344 519 377 573 377Z" glyph-name="ae" horiz-adv-x="836" unicode="&#230;" /><glyph d="M690 128H472V185H539C643 185 717 240 717 334C717 428 648 490 539 490H83V360H330V307H228C124 307 50 251 50 157C50 63 119 0 228 0H690ZM330 185V128H218C199 128 183 137 183 157C183 177 199 185 218 185ZM549 362C568 362 584 354 584 334C584 314 568 307 549 307H472V362Z" glyph-name="ae.ss01" horiz-adv-x="757" /><glyph d="M915 209C915 209 916 234 916 251C916 375 838 502 695 502C636 502 591 479 571 461V490H428V457C400 483 347 502 292 502C150 502 35 392 35 245C35 98 150 -11 292 -11C356 -11 400 13 428 36V0H571V40C591 20 635 -11 712 -11C802 -11 864 34 907 88L813 176C783 138 744 119 693 119C630 119 591 158 583 209ZM182 248C182 314 233 370 303 370C381 370 428 314 428 248C428 183 381 122 303 122C233 122 182 183 182 248ZM683 377C730 377 763 345 766 304H590C599 344 630 377 683 377Z" glyph-name="ae.ss02" horiz-adv-x="950" /><glyph d="M559 377C606 377 639 345 642 304H466C475 346 508 377 559 377ZM411 442C381 481 323 502 262 502C149 502 67 435 60 326H203C206 359 233 371 259 371C293 371 315 354 315 322V306L209 293C98 279 44 226 44 137C44 60 108 -11 214 -11C295 -11 348 17 390 64C435 16 498 -11 573 -11C678 -11 740 34 783 88L689 176C659 138 620 119 569 119C506 119 467 158 459 209H791C791 209 792 234 792 251C792 375 714 502 556 502C500 502 449 484 411 442ZM183 153C183 178 202 189 231 194L315 207V201C315 144 286 114 233 114C204 114 183 130 183 153Z" glyph-name="ae.ss03" horiz-adv-x="826" /><glyph d="M801 209C801 209 802 234 802 251C802 375 728 502 569 502C504 502 449 478 408 439C371 480 316 502 260 502C185 502 113 480 55 402L145 317C174 357 212 370 250 370C296 370 335 348 335 302H234C133 302 40 252 40 144C40 56 111 -11 228 -11C293 -11 355 11 408 53C453 12 515 -11 586 -11C691 -11 750 34 793 88L693 181C667 140 635 119 585 119C521 119 481 157 476 209ZM335 199C337 181 341 165 346 149C322 128 281 109 241 109C204 109 183 127 183 152C183 185 213 199 260 199ZM573 377C619 377 649 345 652 304H483C492 344 519 377 573 377ZM408 700 334 558H468L588 700Z" glyph-name="aeacute" horiz-adv-x="836" unicode="&#509;" /><glyph d="M690 128H472V185H539C643 185 717 240 717 334C717 428 648 490 539 490H83V360H330V307H228C124 307 50 251 50 157C50 63 119 0 228 0H690ZM330 185V128H218C199 128 183 137 183 157C183 177 199 185 218 185ZM549 362C568 362 584 354 584 334C584 314 568 307 549 307H472V362ZM370 700 296 558H430L550 700Z" glyph-name="aeacute.ss01" horiz-adv-x="757" /><glyph d="M915 209C915 209 916 234 916 251C916 375 838 502 695 502C636 502 591 479 571 461V490H428V457C400 483 347 502 292 502C150 502 35 392 35 245C35 98 150 -11 292 -11C356 -11 400 13 428 36V0H571V40C591 20 635 -11 712 -11C802 -11 864 34 907 88L813 176C783 138 744 119 693 119C630 119 591 158 583 209ZM182 248C182 314 233 370 303 370C381 370 428 314 428 248C428 183 381 122 303 122C233 122 182 183 182 248ZM683 377C730 377 763 345 766 304H590C599 344 630 377 683 377ZM509 700 435 558H569L689 700Z" glyph-name="aeacute.ss02" horiz-adv-x="950" /><glyph d="M559 377C606 377 639 345 642 304H466C475 346 508 377 559 377ZM411 442C381 481 323 502 262 502C149 502 67 435 60 326H203C206 359 233 371 259 371C293 371 315 354 315 322V306L209 293C98 279 44 226 44 137C44 60 108 -11 214 -11C295 -11 348 17 390 64C435 16 498 -11 573 -11C678 -11 740 34 783 88L689 176C659 138 620 119 569 119C506 119 467 158 459 209H791C791 209 792 234 792 251C792 375 714 502 556 502C500 502 449 484 411 442ZM183 153C183 178 202 189 231 194L315 207V201C315 144 286 114 233 114C204 114 183 130 183 153ZM420 700 346 558H480L600 700Z" glyph-name="aeacute.ss03" horiz-adv-x="826" /><glyph d="M210 -11C266 -11 308 10 333 32V0H475V306C475 431 379 502 260 502C190 502 118 480 55 405L145 319C171 358 212 376 250 376C301 376 331 342 331 296V288C307 295 272 302 234 302C133 302 40 252 40 144C40 56 104 -11 210 -11ZM183 153C183 182 210 204 266 204C291 204 314 199 331 195V139C307 121 278 109 244 109C208 109 183 127 183 153ZM90 700 210 558H344L270 700Z" glyph-name="agrave" horiz-adv-x="533" unicode="&#224;" /><glyph d="M83 360H330V312H228C124 312 50 253 50 159C50 65 119 0 228 0H472V490H83ZM330 190V128H223C199 128 183 139 183 159C183 179 199 190 223 190ZM113 700 233 558H367L293 700Z" glyph-name="agrave.ss01" horiz-adv-x="535" /><glyph d="M35 245C35 98 150 -11 292 -11C356 -11 400 13 428 36V0H571V490H428V457C400 483 347 502 292 502C150 502 35 392 35 245ZM182 248C182 314 233 370 303 370C381 370 428 314 428 248C428 183 381 122 303 122C233 122 182 183 182 248ZM158 700 278 558H412L338 700Z" glyph-name="agrave.ss02" horiz-adv-x="634" /><glyph d="M214 -11C271 -11 319 4 355 45C369 7 399 -2 451 -2C474 -2 508 1 508 1V120H491C463 120 458 137 458 160V337C458 447 373 502 262 502C149 502 67 435 60 326H203C206 359 233 371 259 371C293 371 315 354 315 322V306L209 293C98 279 44 226 44 137C44 60 108 -11 214 -11ZM183 153C183 178 202 189 231 194L315 207V201C315 144 286 114 233 114C204 114 183 130 183 153ZM101 700 221 558H355L281 700Z" glyph-name="agrave.ss03" horiz-adv-x="531" /><glyph d="M210 -11C266 -11 308 10 333 32V0H475V306C475 431 379 502 260 502C190 502 118 480 55 405L145 319C171 358 212 376 250 376C301 376 331 342 331 296V288C307 295 272 302 234 302C133 302 40 252 40 144C40 56 104 -11 210 -11ZM183 153C183 182 210 204 266 204C291 204 314 199 331 195V139C307 121 278 109 244 109C208 109 183 127 183 153ZM132 700V583H382V700Z" glyph-name="amacron" horiz-adv-x="533" unicode="&#257;" /><glyph d="M83 360H330V312H228C124 312 50 253 50 159C50 65 119 0 228 0H472V490H83ZM330 190V128H223C199 128 183 139 183 159C183 179 199 190 223 190ZM155 700V583H405V700Z" glyph-name="amacron.ss01" horiz-adv-x="535" /><glyph d="M35 245C35 98 150 -11 292 -11C356 -11 400 13 428 36V0H571V490H428V457C400 483 347 502 292 502C150 502 35 392 35 245ZM182 248C182 314 233 370 303 370C381 370 428 314 428 248C428 183 381 122 303 122C233 122 182 183 182 248ZM200 700V583H450V700Z" glyph-name="amacron.ss02" horiz-adv-x="634" /><glyph d="M214 -11C271 -11 319 4 355 45C369 7 399 -2 451 -2C474 -2 508 1 508 1V120H491C463 120 458 137 458 160V337C458 447 373 502 262 502C149 502 67 435 60 326H203C206 359 233 371 259 371C293 371 315 354 315 322V306L209 293C98 279 44 226 44 137C44 60 108 -11 214 -11ZM183 153C183 178 202 189 231 194L315 207V201C315 144 286 114 233 114C204 114 183 130 183 153ZM143 700V583H393V700Z" glyph-name="amacron.ss03" horiz-adv-x="531" /><glyph d="M500 0H671L561 141C610 206 642 292 656 365H507C496 319 486 294 471 263L388 365L402 375C474 423 512 469 512 544C512 635 434 712 322 712C205 712 127 640 127 547C127 500 140 461 184 404L177 400C101 361 50 290 50 199C50 95 121 -11 287 -11C357 -11 410 5 463 43ZM290 121C233 121 194 160 194 206C194 247 223 276 260 295L265 298L377 150C354 132 328 121 290 121ZM320 579C350 579 368 561 368 537C368 515 360 496 319 473L308 467L303 473C283 497 275 516 275 534C275 560 295 579 320 579Z" glyph-name="ampersand" horiz-adv-x="701" unicode="&amp;" /><glyph d="M365 564V700H331C191 700 90 646 90 516C90 457 130 405 167 379C110 351 63 270 63 201C63 64 170 0 302 0H565V297H661V433H565V700H418V433H306C265 433 238 462 238 502C238 552 281 564 305 564ZM210 216C210 267 248 297 290 297H418V136H299C249 136 210 166 210 216Z" glyph-name="ampersand.ss01" horiz-adv-x="699" /><glyph d="M513 0H684L571 142L654 211L573 314L491 247L397 368L409 376C462 407 518 464 518 549C518 646 433 712 327 712C211 712 133 635 133 549C133 492 159 457 196 407L179 397C115 360 57 294 57 198C57 105 115 -11 281 -11C351 -11 412 12 469 57ZM286 118C246 118 201 146 201 200C201 246 231 273 266 294L278 301L387 159C363 137 332 118 286 118ZM329 579C362 579 374 556 374 537C374 502 345 483 327 472L319 467L310 479C299 494 284 514 284 537C284 561 302 579 329 579Z" glyph-name="ampersand.ss02" horiz-adv-x="699" /><glyph d="M210 -11C266 -11 308 10 333 32V0H366C335 -22 306 -59 306 -102C306 -159 348 -194 413 -194C440 -194 464 -191 475 -189V-106H471C434 -106 414 -94 414 -71C414 -47 428 -28 475 0V306C475 431 379 502 260 502C190 502 118 480 55 405L145 319C171 358 212 376 250 376C301 376 331 342 331 296V288C307 295 272 302 234 302C133 302 40 252 40 144C40 56 104 -11 210 -11ZM183 153C183 182 210 204 266 204C291 204 314 199 331 195V139C307 121 278 109 244 109C208 109 183 127 183 153Z" glyph-name="aogonek" horiz-adv-x="533" unicode="&#261;" /><glyph d="M83 360H330V312H228C124 312 50 253 50 159C50 65 119 0 228 0H359C328 -22 299 -59 299 -102C299 -159 341 -194 406 -194C433 -194 457 -191 468 -189V-106H464C427 -106 407 -94 407 -71C407 -47 421 -28 468 0H472V490H83ZM330 190V128H223C199 128 183 139 183 159C183 179 199 190 223 190Z" glyph-name="aogonek.ss01" horiz-adv-x="535" /><glyph d="M35 245C35 98 150 -11 292 -11C356 -11 400 13 428 36V0H465C434 -22 405 -59 405 -102C405 -159 447 -194 512 -194C539 -194 563 -191 574 -189V-106H570C533 -106 513 -94 513 -71C513 -47 527 -28 574 0H571V490H428V457C400 483 347 502 292 502C150 502 35 392 35 245ZM182 248C182 314 233 370 303 370C381 370 428 314 428 248C428 183 381 122 303 122C233 122 182 183 182 248Z" glyph-name="aogonek.ss02" horiz-adv-x="634" /><glyph d="M214 -11C271 -11 319 4 355 45C364 19 381 7 406 1C374 -21 344 -58 344 -102C344 -159 386 -194 451 -194C478 -194 502 -191 513 -189V-106H509C472 -106 452 -94 452 -71C452 -47 466 -28 513 0H504C506 0 508 1 508 1V120H491C463 120 458 137 458 160V337C458 447 373 502 262 502C149 502 67 435 60 326H203C206 359 233 371 259 371C293 371 315 354 315 322V306L209 293C98 279 44 226 44 137C44 60 108 -11 214 -11ZM183 153C183 178 202 189 231 194L315 207V201C315 144 286 114 233 114C204 114 183 130 183 153Z" glyph-name="aogonek.ss03" horiz-adv-x="531" /><glyph d="M455 448C455 425 442 410 415 410C397 410 386 414 370 417L251 443C227 449 202 454 177 454C87 454 45 387 51 294H170C170 317 184 332 210 332C228 332 240 328 256 325L374 298C398 293 423 288 448 288C538 288 581 354 575 448ZM455 226C455 203 442 188 415 188C397 188 386 191 370 195L251 221C227 227 202 231 177 231C87 231 45 165 51 72H170C170 94 184 109 210 109C228 109 240 106 256 102L374 76C398 70 423 66 448 66C538 66 581 132 575 226Z" glyph-name="approxequal" horiz-adv-x="626" unicode="&#8776;" /><glyph d="M210 -11C266 -11 308 10 333 32V0H475V306C475 431 379 502 260 502C190 502 118 480 55 405L145 319C171 358 212 376 250 376C301 376 331 342 331 296V288C307 295 272 302 234 302C133 302 40 252 40 144C40 56 104 -11 210 -11ZM183 153C183 182 210 204 266 204C291 204 314 199 331 195V139C307 121 278 109 244 109C208 109 183 127 183 153ZM159 631C159 579 203 536 257 536C310 536 355 579 355 631C355 685 310 728 257 728C203 728 159 685 159 631ZM281 631C281 617 270 607 257 607C244 607 233 617 233 631C233 645 244 655 257 655C270 655 281 645 281 631Z" glyph-name="aring" horiz-adv-x="533" unicode="&#229;" /><glyph d="M83 360H330V312H228C124 312 50 253 50 159C50 65 119 0 228 0H472V490H83ZM330 190V128H223C199 128 183 139 183 159C183 179 199 190 223 190ZM182 631C182 579 226 536 280 536C333 536 378 579 378 631C378 685 333 728 280 728C226 728 182 685 182 631ZM304 631C304 617 293 607 280 607C267 607 256 617 256 631C256 645 267 655 280 655C293 655 304 645 304 631Z" glyph-name="aring.ss01" horiz-adv-x="535" /><glyph d="M35 245C35 98 150 -11 292 -11C356 -11 400 13 428 36V0H571V490H428V457C400 483 347 502 292 502C150 502 35 392 35 245ZM182 248C182 314 233 370 303 370C381 370 428 314 428 248C428 183 381 122 303 122C233 122 182 183 182 248ZM227 631C227 579 271 536 325 536C378 536 423 579 423 631C423 685 378 728 325 728C271 728 227 685 227 631ZM349 631C349 617 338 607 325 607C312 607 301 617 301 631C301 645 312 655 325 655C338 655 349 645 349 631Z" glyph-name="aring.ss02" horiz-adv-x="634" /><glyph d="M214 -11C271 -11 319 4 355 45C369 7 399 -2 451 -2C474 -2 508 1 508 1V120H491C463 120 458 137 458 160V337C458 447 373 502 262 502C149 502 67 435 60 326H203C206 359 233 371 259 371C293 371 315 354 315 322V306L209 293C98 279 44 226 44 137C44 60 108 -11 214 -11ZM183 153C183 178 202 189 231 194L315 207V201C315 144 286 114 233 114C204 114 183 130 183 153ZM170 631C170 579 214 536 268 536C321 536 366 579 366 631C366 685 321 728 268 728C214 728 170 685 170 631ZM292 631C292 617 281 607 268 607C255 607 244 617 244 631C244 645 255 655 268 655C281 655 292 645 292 631Z" glyph-name="aring.ss03" horiz-adv-x="531" /><glyph d="M210 -11C266 -11 308 10 333 32V0H475V306C475 431 379 502 260 502C190 502 118 480 55 405L145 319C171 358 212 376 250 376C301 376 331 342 331 296V288C307 295 272 302 234 302C133 302 40 252 40 144C40 56 104 -11 210 -11ZM183 153C183 182 210 204 266 204C291 204 314 199 331 195V139C307 121 278 109 244 109C208 109 183 127 183 153ZM159 631C159 579 203 536 257 536C310 536 355 579 355 631C355 685 310 728 257 728C203 728 159 685 159 631ZM281 631C281 617 270 607 257 607C244 607 233 617 233 631C233 645 244 655 257 655C270 655 281 645 281 631ZM264 911 190 769H324L444 911Z" glyph-name="aringacute" horiz-adv-x="533" unicode="&#507;" /><glyph d="M83 360H330V312H228C124 312 50 253 50 159C50 65 119 0 228 0H472V490H83ZM330 190V128H223C199 128 183 139 183 159C183 179 199 190 223 190ZM182 631C182 579 226 536 280 536C333 536 378 579 378 631C378 685 333 728 280 728C226 728 182 685 182 631ZM304 631C304 617 293 607 280 607C267 607 256 617 256 631C256 645 267 655 280 655C293 655 304 645 304 631ZM287 911 213 769H347L467 911Z" glyph-name="aringacute.ss01" horiz-adv-x="535" /><glyph d="M35 245C35 98 150 -11 292 -11C356 -11 400 13 428 36V0H571V490H428V457C400 483 347 502 292 502C150 502 35 392 35 245ZM182 248C182 314 233 370 303 370C381 370 428 314 428 248C428 183 381 122 303 122C233 122 182 183 182 248ZM227 631C227 579 271 536 325 536C378 536 423 579 423 631C423 685 378 728 325 728C271 728 227 685 227 631ZM349 631C349 617 338 607 325 607C312 607 301 617 301 631C301 645 312 655 325 655C338 655 349 645 349 631ZM332 911 258 769H392L512 911Z" glyph-name="aringacute.ss02" horiz-adv-x="634" /><glyph d="M214 -11C271 -11 319 4 355 45C369 7 399 -2 451 -2C474 -2 508 1 508 1V120H491C463 120 458 137 458 160V337C458 447 373 502 262 502C149 502 67 435 60 326H203C206 359 233 371 259 371C293 371 315 354 315 322V306L209 293C98 279 44 226 44 137C44 60 108 -11 214 -11ZM183 153C183 178 202 189 231 194L315 207V201C315 144 286 114 233 114C204 114 183 130 183 153ZM170 631C170 579 214 536 268 536C321 536 366 579 366 631C366 685 321 728 268 728C214 728 170 685 170 631ZM292 631C292 617 281 607 268 607C255 607 244 617 244 631C244 645 255 655 268 655C281 655 292 645 292 631ZM275 911 201 769H335L455 911Z" glyph-name="aringacute.ss03" horiz-adv-x="531" /><glyph d="M368 428H236L20 63H171L302 284L433 63H585Z" glyph-name="asciicircum" horiz-adv-x="605" unicode="^" /><glyph d="M359 336C359 313 349 298 328 298C316 298 305 301 290 306L221 328C210 331 191 336 167 336C82 336 46 263 51 165H154C154 187 164 202 185 202C197 202 209 199 224 194L292 173C303 169 323 165 347 165C431 165 468 238 462 336Z" glyph-name="asciitilde" horiz-adv-x="513" unicode="~" /><glyph d="M327 560 435 586 407 693 295 663 299 775H181L185 663L73 693L46 586L154 560L82 474L176 400L241 495L307 400L400 472Z" glyph-name="asterisk" horiz-adv-x="481" unicode="*" /><glyph d="M668 48C692 11 730 -11 787 -11C919 -11 1019 113 1019 276C1019 540 831 712 544 712C268 712 51 540 51 247C51 -34 256 -205 555 -205C636 -205 695 -195 754 -177V-71C689 -88 642 -97 561 -97C331 -97 169 28 169 247C169 472 336 604 544 604C780 604 901 461 901 264C901 174 858 103 813 103C777 103 771 131 771 169V490H634V457C606 483 565 502 508 502C367 502 269 392 269 245C269 92 373 -11 514 -11C593 -11 640 22 668 48ZM414 243C414 308 451 369 522 369C593 369 630 308 630 243C630 178 593 115 522 115C451 115 414 178 414 243Z" glyph-name="at" horiz-adv-x="1065" unicode="@" /><glyph d="M210 -11C266 -11 308 10 333 32V0H475V306C475 431 379 502 260 502C190 502 118 480 55 405L145 319C171 358 212 376 250 376C301 376 331 342 331 296V288C307 295 272 302 234 302C133 302 40 252 40 144C40 56 104 -11 210 -11ZM183 153C183 182 210 204 266 204C291 204 314 199 331 195V139C307 121 278 109 244 109C208 109 183 127 183 153ZM331 700C330 680 315 674 304 674C294 674 284 677 274 680L233 693C224 695 208 700 190 700C128 700 93 640 93 575H184C185 596 200 601 211 601C220 601 231 599 241 596L282 583C291 581 307 575 325 575C387 575 422 636 422 700Z" glyph-name="atilde" horiz-adv-x="533" unicode="&#227;" /><glyph d="M83 360H330V312H228C124 312 50 253 50 159C50 65 119 0 228 0H472V490H83ZM330 190V128H223C199 128 183 139 183 159C183 179 199 190 223 190ZM354 700C353 680 338 674 327 674C317 674 307 677 297 680L256 693C247 695 231 700 213 700C151 700 116 640 116 575H207C208 596 223 601 234 601C243 601 254 599 264 596L305 583C314 581 330 575 348 575C410 575 445 636 445 700Z" glyph-name="atilde.ss01" horiz-adv-x="535" /><glyph d="M35 245C35 98 150 -11 292 -11C356 -11 400 13 428 36V0H571V490H428V457C400 483 347 502 292 502C150 502 35 392 35 245ZM182 248C182 314 233 370 303 370C381 370 428 314 428 248C428 183 381 122 303 122C233 122 182 183 182 248ZM399 700C398 680 383 674 372 674C362 674 352 677 342 680L301 693C292 695 276 700 258 700C196 700 161 640 161 575H252C253 596 268 601 279 601C288 601 299 599 309 596L350 583C359 581 375 575 393 575C455 575 490 636 490 700Z" glyph-name="atilde.ss02" horiz-adv-x="634" /><glyph d="M214 -11C271 -11 319 4 355 45C369 7 399 -2 451 -2C474 -2 508 1 508 1V120H491C463 120 458 137 458 160V337C458 447 373 502 262 502C149 502 67 435 60 326H203C206 359 233 371 259 371C293 371 315 354 315 322V306L209 293C98 279 44 226 44 137C44 60 108 -11 214 -11ZM183 153C183 178 202 189 231 194L315 207V201C315 144 286 114 233 114C204 114 183 130 183 153ZM342 700C341 680 326 674 315 674C305 674 295 677 285 680L244 693C235 695 219 700 201 700C139 700 104 640 104 575H195C196 596 211 601 222 601C231 601 242 599 252 596L293 583C302 581 318 575 336 575C398 575 433 636 433 700Z" glyph-name="atilde.ss03" horiz-adv-x="531" /><glyph d="M576 245C576 400 466 502 331 502C275 502 232 481 207 459V700H63V0H205V35C231 10 276 -11 331 -11C466 -11 576 87 576 245ZM205 245C205 321 252 373 317 373C382 373 431 321 431 245C431 169 382 117 317 117C252 117 205 169 205 245Z" glyph-name="b" horiz-adv-x="611" unicode="b" /><glyph d="M513 -92 158 750H10L364 -92Z" glyph-name="backslash" horiz-adv-x="523" unicode="\" /><glyph d="M157 700H10L303 0H452Z" glyph-name="backslash.cap" horiz-adv-x="462" /><glyph d="M120 -194H259V700H120Z" glyph-name="bar" horiz-adv-x="379" unicode="|" /><glyph d="M293 504C293 559 317 578 364 578H406V707H339C217 707 148 660 148 519V321H40V186H148V-11C148 -153 217 -199 339 -199H406V-71H364C317 -71 293 -51 293 3Z" glyph-name="braceleft" horiz-adv-x="434" unicode="{" /><glyph d="M293 600C293 655 317 674 364 674H406V803H339C217 803 148 756 148 615V417H40V282H148V85C148 -57 217 -103 339 -103H406V25H364C317 25 293 45 293 99Z" glyph-name="braceleft.cap" horiz-adv-x="434" /><glyph d="M141 3C141 -51 117 -71 70 -71H28V-199H95C217 -199 286 -153 286 -11V186H394V321H286V519C286 660 217 707 95 707H28V578H70C117 578 141 559 141 504Z" glyph-name="braceright" horiz-adv-x="434" unicode="}" /><glyph d="M141 99C141 45 117 25 70 25H28V-103H95C217 -103 286 -57 286 85V282H394V417H286V615C286 756 217 803 95 803H28V674H70C117 674 141 655 141 600Z" glyph-name="braceright.cap" horiz-adv-x="434" /><glyph d="M68 -194H347V-64H210V570H347V700H68Z" glyph-name="bracketleft" horiz-adv-x="375" unicode="[" /><glyph d="M68 -97H347V33H210V667H347V797H68Z" glyph-name="bracketleft.cap" horiz-adv-x="375" /><glyph d="M307 700H28V570H165V-64H28V-194H307Z" glyph-name="bracketright" horiz-adv-x="375" unicode="]" /><glyph d="M307 797H28V667H165V33H28V-97H307Z" glyph-name="bracketright.cap" horiz-adv-x="375" /><glyph d="M249 552C333 552 394 608 390 700H294C291 680 281 660 249 660C217 660 207 680 205 700H109C105 608 166 552 249 552Z" glyph-name="breve" horiz-adv-x="500" unicode="&#728;" /><glyph d="M249 740C333 740 394 794 400 886H294C291 866 281 846 249 846C217 846 207 866 205 886H99C105 794 166 740 249 740Z" glyph-name="breve.cap" horiz-adv-x="500" /><glyph d="M120 336H259V700H120ZM120 -194H259V171H120Z" glyph-name="brokenbar" horiz-adv-x="379" unicode="&#166;" /><glyph d="M74 262C74 181 138 117 219 117C300 117 364 181 364 262C364 343 300 407 219 407C138 407 74 343 74 262Z" glyph-name="bullet" horiz-adv-x="438" unicode="&#8226;" /><glyph d="M413 186C382 146 348 122 299 122C232 122 180 173 180 245C180 317 232 368 299 368C344 368 375 345 403 311L499 404C447 462 387 502 294 502C147 502 35 392 35 245C35 98 147 -11 294 -11C389 -11 459 27 509 93Z" glyph-name="c" horiz-adv-x="537" unicode="c" /><glyph d="M413 186C382 146 348 122 299 122C232 122 180 173 180 245C180 317 232 368 299 368C344 368 375 345 403 311L499 404C447 462 387 502 294 502C147 502 35 392 35 245C35 98 147 -11 294 -11C389 -11 459 27 509 93ZM283 700 209 558H343L463 700Z" glyph-name="cacute" horiz-adv-x="537" unicode="&#263;" /><glyph d="M331 558 422 700H299L249 641L200 700H77L168 558Z" glyph-name="caron" horiz-adv-x="500" unicode="&#711;" /><glyph d="M332 700H195L168 511H273Z" glyph-name="caron.alt" horiz-adv-x="500" /><glyph d="M337 769 422 872H288L250 831L212 872H77L163 769Z" glyph-name="caron.cap" horiz-adv-x="500" /><glyph d="M413 186C382 146 348 122 299 122C232 122 180 173 180 245C180 317 232 368 299 368C344 368 375 345 403 311L499 404C447 462 387 502 294 502C147 502 35 392 35 245C35 98 147 -11 294 -11C389 -11 459 27 509 93ZM378 558 469 700H346L296 641L247 700H124L215 558Z" glyph-name="ccaron" horiz-adv-x="537" unicode="&#269;" /><glyph d="M308 -137 361 -4C423 10 471 43 509 93L413 186C382 146 348 122 299 122C232 122 180 173 180 245C180 317 232 368 299 368C344 368 375 345 403 311L499 404C447 462 387 502 294 502C147 502 35 392 35 245C35 119 117 20 234 -4L165 -137Z" glyph-name="ccedilla" horiz-adv-x="537" unicode="&#231;" /><glyph d="M233 -137H360V-4C422 9 471 43 509 93L413 186C382 146 348 122 299 122C232 122 180 173 180 245C180 317 232 368 299 368C344 368 375 345 403 311L499 404C447 462 387 502 294 502C147 502 35 392 35 245C35 119 117 21 233 -4Z" glyph-name="ccedilla.ss01" horiz-adv-x="537" /><glyph d="M413 186C382 146 348 122 299 122C232 122 180 173 180 245C180 317 232 368 299 368C344 368 375 345 403 311L499 404C447 462 387 502 294 502C147 502 35 392 35 245C35 98 147 -11 294 -11C389 -11 459 27 509 93ZM215 700 124 558H247L296 617L346 558H469L378 700Z" glyph-name="ccircumflex" horiz-adv-x="537" unicode="&#265;" /><glyph d="M413 186C382 146 348 122 299 122C232 122 180 173 180 245C180 317 232 368 299 368C344 368 375 345 403 311L499 404C447 462 387 502 294 502C147 502 35 392 35 245C35 98 147 -11 294 -11C389 -11 459 27 509 93ZM214 629C214 584 250 547 296 547C341 547 379 584 379 629C379 675 341 712 296 712C250 712 214 675 214 629Z" glyph-name="cdotaccent" horiz-adv-x="537" unicode="&#267;" /><glyph d="M413 186C382 146 348 122 299 122C232 122 180 173 180 245C180 317 232 368 299 368C344 368 375 345 403 311L499 404C447 462 387 502 294 502C147 502 35 392 35 245C35 98 147 -11 294 -11C389 -11 459 27 509 93ZM221 551H379V700H221Z" glyph-name="cdotaccent.ss03" horiz-adv-x="537" /><glyph d="M292 -137 351 11H226L149 -137Z" glyph-name="cedilla" horiz-adv-x="500" unicode="&#184;" /><glyph d="M292 -137 351 11H226L149 -137Z" glyph-name="cedilla.cap" horiz-adv-x="500" /><glyph d="M186 -137H313V11H186Z" glyph-name="cedilla.ss01" horiz-adv-x="500" /><glyph d="M186 -137H313V11H186Z" glyph-name="cedilla.ss01.cap" horiz-adv-x="500" /><glyph d="M435 186C415 160 394 141 368 130V358C390 348 408 331 425 311L521 404C479 450 432 485 368 497V604H258V496C140 471 57 372 57 245C57 118 140 19 258 -5V-114H368V-7C437 4 490 39 531 93ZM202 245C202 292 224 330 258 351V139C224 159 202 198 202 245Z" glyph-name="cent" horiz-adv-x="562" unicode="&#162;" /><glyph d="M435 186C415 160 394 141 368 130V358C390 348 408 331 425 311L521 404C479 450 432 485 368 497V604H258V496C140 471 57 372 57 245C57 118 140 19 258 -5V-114H368V-7C437 4 490 39 531 93ZM202 245C202 292 224 330 258 351V139C224 159 202 198 202 245Z" glyph-name="cent.osf" horiz-adv-x="562" /><glyph d="M441 186C421 160 400 141 374 130V358C396 348 414 331 431 311L527 404C485 450 438 485 374 497V604H264V496C146 471 63 372 63 245C63 118 146 19 264 -5V-114H374V-7C443 4 496 39 537 93ZM208 245C208 292 230 330 264 351V139C230 159 208 198 208 245Z" glyph-name="cent.tf" horiz-adv-x="600" /><glyph d="M441 186C421 160 400 141 374 130V358C396 348 414 331 431 311L527 404C485 450 438 485 374 497V604H264V496C146 471 63 372 63 245C63 118 146 19 264 -5V-114H374V-7C443 4 496 39 537 93ZM208 245C208 292 230 330 264 351V139C230 159 208 198 208 245Z" glyph-name="cent.to" horiz-adv-x="600" /><glyph d="M168 700 77 558H200L249 617L299 558H422L331 700Z" glyph-name="circumflex" horiz-adv-x="500" unicode="&#710;" /><glyph d="M163 872 77 769H212L250 809L288 769H422L337 872Z" glyph-name="circumflex.cap" horiz-adv-x="500" /><glyph d="M54 75C54 27 91 -11 139 -11C187 -11 226 27 226 75C226 123 187 161 139 161C91 161 54 123 54 75ZM54 416C54 368 91 330 139 330C187 330 226 368 226 416C226 464 187 502 139 502C91 502 54 464 54 416Z" glyph-name="colon" horiz-adv-x="280" unicode=":" /><glyph d="M41 87C41 32 85 -11 141 -11C195 -11 239 32 239 87C239 143 195 186 141 186C85 186 41 143 41 87ZM41 403C41 348 85 305 141 305C195 305 239 348 239 403C239 459 195 502 141 502C85 502 41 459 41 403Z" glyph-name="colon.ss01" horiz-adv-x="280" /><glyph d="M65 0H216V156H65ZM65 334H216V490H65Z" glyph-name="colon.ss03" horiz-adv-x="280" /><glyph d="M122 -138 243 120H87L-10 -138Z" glyph-name="comma" horiz-adv-x="280" unicode="," /><glyph d="M135 -154 238 70 108 129 15 -100Z" glyph-name="comma.ss01" horiz-adv-x="280" /><glyph d="M65 0H138C138 -43 108 -70 65 -75V-144C170 -135 216 -73 216 35V146H65Z" glyph-name="comma.ss03" horiz-adv-x="280" /><glyph d="M197 -57 151 -194H276L348 -57Z" glyph-name="commaaccent" horiz-adv-x="500" unicode="&#806;" /><glyph d="M196 -57 150 -194H276L348 -57Z" glyph-name="commaaccent.cap" horiz-adv-x="500" /><glyph d="M51 351C51 144 212 -11 413 -11C613 -11 775 144 775 351C775 555 613 712 413 712C212 712 51 555 51 351ZM139 351C139 503 253 626 413 626C572 626 687 503 687 351C687 196 572 75 413 75C253 75 139 196 139 351ZM506 301C484 272 457 258 425 258C374 258 336 299 336 350C336 404 377 441 423 441C455 441 480 425 498 401L575 478C538 522 482 549 423 549C309 549 218 469 218 350C218 231 306 150 421 150C490 150 547 187 583 229Z" glyph-name="copyright" horiz-adv-x="826" unicode="&#169;" /><glyph d="M40 405 104 337C90 310 83 278 83 246C83 213 90 182 104 154L40 88L142 -10L204 55C231 42 262 35 294 35C326 35 357 42 385 56L448 -10L550 88L484 155C497 183 505 213 505 246C505 278 497 309 484 336L550 405L449 501L385 436C358 449 326 457 294 457C261 457 231 449 203 436L141 501ZM223 246C223 286 252 320 294 320C335 320 365 286 365 246C365 208 335 175 294 175C253 175 223 208 223 246Z" glyph-name="currency" horiz-adv-x="590" unicode="&#164;" /><glyph d="M35 245C35 87 145 -11 280 -11C335 -11 380 10 406 35V0H548V700H404V459C379 481 336 502 280 502C145 502 35 400 35 245ZM406 245C406 169 359 117 294 117C229 117 180 169 180 245C180 321 229 373 294 373C359 373 406 321 406 245Z" glyph-name="d" horiz-adv-x="611" unicode="d" /><glyph d="M25 522C25 405 112 334 216 334C257 334 293 349 312 365V342H425V857H310V682C292 696 258 711 216 711C112 711 25 637 25 522ZM312 522C312 468 275 432 227 432C180 432 143 468 143 522C143 576 180 612 227 612C275 612 312 576 312 522Z" glyph-name="d.ordn" horiz-adv-x="473" /><glyph d="M51 490V356H225V-194H364V356H543V490H364V700H225V490Z" glyph-name="dagger" horiz-adv-x="594" unicode="&#8224;" /><glyph d="M542 51V186H369V356H548V490H369V700H230V490H56V356H230V186H51V51H230V-194H369V51Z" glyph-name="daggerdbl" horiz-adv-x="599" unicode="&#8225;" /><glyph d="M35 245C35 87 145 -11 280 -11C335 -11 380 10 406 35V0H548V700H404V459C379 481 336 502 280 502C145 502 35 400 35 245ZM406 245C406 169 359 117 294 117C229 117 180 169 180 245C180 321 229 373 294 373C359 373 406 321 406 245ZM706 511H601L628 700H765Z" glyph-name="dcaron" horiz-adv-x="611" unicode="&#271;" /><glyph d="M243 530H404V459C379 481 336 502 280 502C145 502 35 400 35 245C35 87 145 -11 280 -11C335 -11 380 10 406 35V0H548V530H601V658H548V700H404V658H243ZM406 245C406 169 359 117 294 117C229 117 180 169 180 245C180 321 229 373 294 373C359 373 406 321 406 245Z" glyph-name="dcroat" horiz-adv-x="611" unicode="&#273;" /><glyph d="M30 541C30 446 106 370 201 370C297 370 372 446 372 541C372 637 297 712 201 712C106 712 30 637 30 541ZM143 541C143 576 168 602 201 602C232 602 258 576 258 541C258 508 232 482 201 482C168 482 143 508 143 541Z" glyph-name="degree" horiz-adv-x="402" unicode="&#176;" /><glyph d="M69 638C69 597 102 564 143 564C183 564 218 597 218 638C218 678 183 712 143 712C102 712 69 678 69 638ZM281 638C281 597 314 564 355 564C395 564 430 597 430 638C430 678 395 712 355 712C314 712 281 678 281 638Z" glyph-name="dieresis" horiz-adv-x="500" unicode="&#168;" /><glyph d="M69 833C69 792 102 759 143 759C183 759 218 792 218 833C218 873 183 907 143 907C102 907 69 873 69 833ZM281 833C281 792 314 759 355 759C395 759 430 792 430 833C430 873 395 907 355 907C314 907 281 873 281 833Z" glyph-name="dieresis.cap" horiz-adv-x="500" /><glyph d="M276 551H434V700H276ZM66 551H224V700H66Z" glyph-name="dieresis.ss03" horiz-adv-x="500" /><glyph d="M276 742H434V891H276ZM66 742H224V891H66Z" glyph-name="dieresis.ss03.cap" horiz-adv-x="500" /><glyph d="M230 452C230 408 265 373 310 373C354 373 391 408 391 452C391 497 354 533 310 533C265 533 230 497 230 452ZM230 68C230 24 265 -11 310 -11C354 -11 391 24 391 68C391 113 354 149 310 149C265 149 230 113 230 68ZM60 194H561V326H60Z" glyph-name="divide" horiz-adv-x="621" unicode="&#247;" /><glyph d="M279 -114H390V-8C528 8 615 89 615 203C615 324 537 393 390 420V562C429 548 463 524 491 495L591 600C546 647 478 690 390 706V815H279V709C162 695 62 621 62 500C62 381 150 313 279 290V134C222 150 178 185 147 226L45 123C94 61 176 7 279 -7ZM467 201C467 167 439 139 390 129V270C446 256 467 232 467 201ZM210 507C210 540 236 564 279 573V440C228 454 210 478 210 507Z" glyph-name="dollar" horiz-adv-x="667" unicode="$" /><glyph d="M279 -114H390V-8C528 8 615 89 615 203C615 324 537 393 390 420V562C429 548 463 524 491 495L591 600C546 647 478 690 390 706V815H279V709C162 695 62 621 62 500C62 381 150 313 279 290V134C222 150 178 185 147 226L45 123C94 61 176 7 279 -7ZM467 201C467 167 439 139 390 129V270C446 256 467 232 467 201ZM210 507C210 540 236 564 279 573V440C228 454 210 478 210 507Z" glyph-name="dollar.osf" horiz-adv-x="667" /><glyph d="M368 275C440 262 466 236 466 201C466 158 422 125 344 125C255 125 189 170 146 226L44 123C91 64 167 13 263 -4V-114H410V-5C536 17 614 95 614 203C614 327 532 397 378 422L309 433C235 446 209 473 209 507C209 548 249 576 312 576C387 576 445 541 490 495L590 600C548 643 488 684 410 702V815H263V707C153 689 61 616 61 500C61 380 151 312 282 290Z" glyph-name="dollar.ss01" horiz-adv-x="654" /><glyph d="M344 271C395 251 416 223 416 195C416 155 386 123 316 123C253 123 190 157 142 221L45 122C89 60 160 7 252 -7V-114H373V-5C489 16 562 90 562 201C562 309 492 359 398 398L299 439C242 462 223 485 223 516C223 544 246 577 297 577C350 577 394 559 433 512L529 609C494 651 439 689 373 704V815H252V707C154 689 77 622 77 511C77 414 145 350 241 312Z" glyph-name="dollar.ss02" horiz-adv-x="602" /><glyph d="M249 -114H360V-8C498 8 575 96 575 203C575 324 507 393 360 420V562C399 548 423 524 451 495L551 600C506 647 448 690 360 706V815H249V709C132 695 42 621 42 500C42 389 120 313 249 290V134C192 150 158 185 127 226L25 123C74 61 146 7 249 -7ZM427 201C427 167 409 139 360 129V270C408 258 427 232 427 201ZM190 510C190 542 211 566 249 573V440C206 451 190 478 190 510Z" glyph-name="dollar.tf" horiz-adv-x="600" /><glyph d="M363 275C422 265 451 236 451 201C451 158 410 125 339 125C250 125 204 170 161 226L59 123C106 64 162 13 258 -4V-114H405V-5C531 17 599 105 599 212C599 327 527 397 373 422L304 433C255 441 224 468 224 507C224 548 253 576 307 576C382 576 430 541 475 495L575 600C533 643 483 684 405 702V815H258V707C148 689 76 608 76 500C76 391 146 312 277 290Z" glyph-name="dollar.tf.ss01" horiz-adv-x="654" /><glyph d="M340 271C391 251 412 223 412 195C412 155 382 123 312 123C249 123 186 157 138 221L41 122C85 60 156 7 248 -7V-114H369V-5C485 16 558 90 558 201C558 309 488 359 394 398L295 439C238 462 219 485 219 516C219 544 242 577 293 577C346 577 390 559 429 512L525 609C490 651 435 689 369 704V815H248V707C150 689 73 622 73 511C73 414 141 350 237 312Z" glyph-name="dollar.tf.ss02" horiz-adv-x="600" /><glyph d="M249 -114H360V-8C498 8 575 96 575 203C575 324 507 393 360 420V562C399 548 423 524 451 495L551 600C506 647 448 690 360 706V815H249V709C132 695 42 621 42 500C42 389 120 313 249 290V134C192 150 158 185 127 226L25 123C74 61 146 7 249 -7ZM427 201C427 167 409 139 360 129V270C408 258 427 232 427 201ZM190 510C190 542 211 566 249 573V440C206 451 190 478 190 510Z" glyph-name="dollar.to" horiz-adv-x="600" /><glyph d="M167 629C167 584 203 547 249 547C294 547 332 584 332 629C332 675 294 712 249 712C203 712 167 675 167 629Z" glyph-name="dotaccent" horiz-adv-x="500" unicode="&#729;" /><glyph d="M167 831C167 786 203 749 249 749C294 749 332 786 332 831C332 877 294 914 249 914C203 914 167 877 167 831Z" glyph-name="dotaccent.cap" horiz-adv-x="500" /><glyph d="M171 551H329V700H171Z" glyph-name="dotaccent.ss03" horiz-adv-x="500" /><glyph d="M171 742H329V891H171Z" glyph-name="dotaccent.ss03.cap" horiz-adv-x="500" /><glyph d="M68 0H211V490H68Z" glyph-name="dotlessi" horiz-adv-x="279" unicode="&#305;" /><glyph d="M68 0H211V490H68Z" glyph-name="dotlessi.ss03" horiz-adv-x="279" /><glyph d="M66 -13C66 -62 42 -73 1 -73H-30V-203C-30 -203 -2 -205 36 -205C153 -205 208 -143 208 -30V490H66Z" glyph-name="dotlessj" horiz-adv-x="271" unicode="&#567;" /><glyph d="M229 -194V490H86V-64H-20V-194Z" glyph-name="dotlessj.ss01" horiz-adv-x="293" /><glyph d="M66 -13C66 -62 42 -73 1 -73H-30V-203C-30 -203 -2 -205 36 -205C153 -205 208 -143 208 -30V490H66Z" glyph-name="dotlessj.ss03" horiz-adv-x="271" /><glyph d="M511 209C511 209 512 234 512 251C512 375 434 502 276 502C134 502 35 390 35 242C35 88 146 -11 293 -11C398 -11 460 34 503 88L409 176C379 138 340 119 289 119C226 119 187 158 179 209ZM279 377C326 377 359 345 362 304H186C195 344 226 377 279 377Z" glyph-name="e" horiz-adv-x="546" unicode="e" /><glyph d="M396 495C396 495 397 514 397 526C397 618 335 711 213 711C103 711 25 629 25 520C25 406 112 334 226 334C308 334 357 367 390 407L314 475C291 448 261 434 223 434C176 434 148 461 142 495ZM215 615C249 615 273 594 275 567H148C154 593 177 615 215 615Z" glyph-name="e.ordn" horiz-adv-x="421" /><glyph d="M187 461C265 461 331 511 331 586C331 660 268 711 187 711C109 711 43 664 43 575V342H322V441H158V461ZM187 558C168 558 156 571 156 586C156 600 168 614 187 614C206 614 218 600 218 586C218 571 206 558 187 558Z" glyph-name="e.ordn.ss01" horiz-adv-x="360" /><glyph d="M244 161C345 161 430 230 430 331C430 432 349 502 244 502C143 502 58 437 58 317V0H418V128H200V165C213 162 228 161 244 161ZM244 287C216 287 198 308 198 331C198 354 216 375 244 375C272 375 290 354 290 331C290 308 272 287 244 287Z" glyph-name="e.ss01" horiz-adv-x="470" /><glyph d="M511 209C511 209 512 234 512 251C512 375 434 502 276 502C134 502 35 390 35 242C35 88 146 -11 293 -11C398 -11 460 34 503 88L409 176C379 138 340 119 289 119C226 119 187 158 179 209ZM279 377C326 377 359 345 362 304H186C195 344 226 377 279 377ZM269 700 195 558H329L449 700Z" glyph-name="eacute" horiz-adv-x="546" unicode="&#233;" /><glyph d="M244 161C345 161 430 230 430 331C430 432 349 502 244 502C143 502 58 437 58 317V0H418V128H200V165C213 162 228 161 244 161ZM244 287C216 287 198 308 198 331C198 354 216 375 244 375C272 375 290 354 290 331C290 308 272 287 244 287ZM231 700 157 558H291L411 700Z" glyph-name="eacute.ss01" horiz-adv-x="470" /><glyph d="M511 209C511 209 512 234 512 251C512 375 434 502 276 502C134 502 35 390 35 242C35 88 146 -11 293 -11C398 -11 460 34 503 88L409 176C379 138 340 119 289 119C226 119 187 158 179 209ZM279 377C326 377 359 345 362 304H186C195 344 226 377 279 377ZM282 552C366 552 427 608 423 700H327C324 680 314 660 282 660C250 660 240 680 238 700H142C138 608 199 552 282 552Z" glyph-name="ebreve" horiz-adv-x="546" unicode="&#277;" /><glyph d="M244 161C345 161 430 230 430 331C430 432 349 502 244 502C143 502 58 437 58 317V0H418V128H200V165C213 162 228 161 244 161ZM244 287C216 287 198 308 198 331C198 354 216 375 244 375C272 375 290 354 290 331C290 308 272 287 244 287ZM244 552C328 552 389 608 385 700H289C286 680 276 660 244 660C212 660 202 680 200 700H104C100 608 161 552 244 552Z" glyph-name="ebreve.ss01" horiz-adv-x="470" /><glyph d="M511 209C511 209 512 234 512 251C512 375 434 502 276 502C134 502 35 390 35 242C35 88 146 -11 293 -11C398 -11 460 34 503 88L409 176C379 138 340 119 289 119C226 119 187 158 179 209ZM279 377C326 377 359 345 362 304H186C195 344 226 377 279 377ZM364 558 455 700H332L282 641L233 700H110L201 558Z" glyph-name="ecaron" horiz-adv-x="546" unicode="&#283;" /><glyph d="M244 161C345 161 430 230 430 331C430 432 349 502 244 502C143 502 58 437 58 317V0H418V128H200V165C213 162 228 161 244 161ZM244 287C216 287 198 308 198 331C198 354 216 375 244 375C272 375 290 354 290 331C290 308 272 287 244 287ZM326 558 417 700H294L244 641L195 700H72L163 558Z" glyph-name="ecaron.ss01" horiz-adv-x="470" /><glyph d="M511 209C511 209 512 234 512 251C512 375 434 502 276 502C134 502 35 390 35 242C35 88 146 -11 293 -11C398 -11 460 34 503 88L409 176C379 138 340 119 289 119C226 119 187 158 179 209ZM279 377C326 377 359 345 362 304H186C195 344 226 377 279 377ZM201 700 110 558H233L282 617L332 558H455L364 700Z" glyph-name="ecircumflex" horiz-adv-x="546" unicode="&#234;" /><glyph d="M244 161C345 161 430 230 430 331C430 432 349 502 244 502C143 502 58 437 58 317V0H418V128H200V165C213 162 228 161 244 161ZM244 287C216 287 198 308 198 331C198 354 216 375 244 375C272 375 290 354 290 331C290 308 272 287 244 287ZM163 700 72 558H195L244 617L294 558H417L326 700Z" glyph-name="ecircumflex.ss01" horiz-adv-x="470" /><glyph d="M511 209C511 209 512 234 512 251C512 375 434 502 276 502C134 502 35 390 35 242C35 88 146 -11 293 -11C398 -11 460 34 503 88L409 176C379 138 340 119 289 119C226 119 187 158 179 209ZM279 377C326 377 359 345 362 304H186C195 344 226 377 279 377ZM102 638C102 597 135 564 176 564C216 564 251 597 251 638C251 678 216 712 176 712C135 712 102 678 102 638ZM314 638C314 597 347 564 388 564C428 564 463 597 463 638C463 678 428 712 388 712C347 712 314 678 314 638Z" glyph-name="edieresis" horiz-adv-x="546" unicode="&#235;" /><glyph d="M244 161C345 161 430 230 430 331C430 432 349 502 244 502C143 502 58 437 58 317V0H418V128H200V165C213 162 228 161 244 161ZM244 287C216 287 198 308 198 331C198 354 216 375 244 375C272 375 290 354 290 331C290 308 272 287 244 287ZM64 638C64 597 97 564 138 564C178 564 213 597 213 638C213 678 178 712 138 712C97 712 64 678 64 638ZM276 638C276 597 309 564 350 564C390 564 425 597 425 638C425 678 390 712 350 712C309 712 276 678 276 638Z" glyph-name="edieresis.ss01" horiz-adv-x="470" /><glyph d="M511 209C511 209 512 234 512 251C512 375 434 502 276 502C134 502 35 390 35 242C35 88 146 -11 293 -11C398 -11 460 34 503 88L409 176C379 138 340 119 289 119C226 119 187 158 179 209ZM279 377C326 377 359 345 362 304H186C195 344 226 377 279 377ZM309 551H467V700H309ZM99 551H257V700H99Z" glyph-name="edieresis.ss03" horiz-adv-x="546" /><glyph d="M511 209C511 209 512 234 512 251C512 375 434 502 276 502C134 502 35 390 35 242C35 88 146 -11 293 -11C398 -11 460 34 503 88L409 176C379 138 340 119 289 119C226 119 187 158 179 209ZM279 377C326 377 359 345 362 304H186C195 344 226 377 279 377ZM200 629C200 584 236 547 282 547C327 547 365 584 365 629C365 675 327 712 282 712C236 712 200 675 200 629Z" glyph-name="edotaccent" horiz-adv-x="546" unicode="&#279;" /><glyph d="M244 161C345 161 430 230 430 331C430 432 349 502 244 502C143 502 58 437 58 317V0H418V128H200V165C213 162 228 161 244 161ZM244 287C216 287 198 308 198 331C198 354 216 375 244 375C272 375 290 354 290 331C290 308 272 287 244 287ZM162 629C162 584 198 547 244 547C289 547 327 584 327 629C327 675 289 712 244 712C198 712 162 675 162 629Z" glyph-name="edotaccent.ss01" horiz-adv-x="470" /><glyph d="M511 209C511 209 512 234 512 251C512 375 434 502 276 502C134 502 35 390 35 242C35 88 146 -11 293 -11C398 -11 460 34 503 88L409 176C379 138 340 119 289 119C226 119 187 158 179 209ZM279 377C326 377 359 345 362 304H186C195 344 226 377 279 377ZM207 551H365V700H207Z" glyph-name="edotaccent.ss03" horiz-adv-x="546" /><glyph d="M511 209C511 209 512 234 512 251C512 375 434 502 276 502C134 502 35 390 35 242C35 88 146 -11 293 -11C398 -11 460 34 503 88L409 176C379 138 340 119 289 119C226 119 187 158 179 209ZM279 377C326 377 359 345 362 304H186C195 344 226 377 279 377ZM115 700 235 558H369L295 700Z" glyph-name="egrave" horiz-adv-x="546" unicode="&#232;" /><glyph d="M244 161C345 161 430 230 430 331C430 432 349 502 244 502C143 502 58 437 58 317V0H418V128H200V165C213 162 228 161 244 161ZM244 287C216 287 198 308 198 331C198 354 216 375 244 375C272 375 290 354 290 331C290 308 272 287 244 287ZM77 700 197 558H331L257 700Z" glyph-name="egrave.ss01" horiz-adv-x="470" /><glyph d="M300 -11C446 -11 554 70 554 201C554 280 512 334 467 361C503 391 537 435 537 500C537 627 435 712 300 712C166 712 63 627 63 500C63 435 97 391 134 361C88 334 46 280 46 201C46 70 154 -11 300 -11ZM389 500C389 451 346 424 300 424C255 424 211 451 211 500C211 549 255 576 300 576C346 576 389 549 389 500ZM194 209C194 261 238 294 300 294C363 294 406 261 406 209C406 156 363 125 300 125C238 125 194 156 194 209Z" glyph-name="eight" horiz-adv-x="600" unicode="8" /><glyph d="M300 -11C446 -11 554 70 554 201C554 280 512 334 467 361C503 391 537 435 537 500C537 627 435 712 300 712C166 712 63 627 63 500C63 435 97 391 134 361C88 334 46 280 46 201C46 70 154 -11 300 -11ZM389 500C389 451 346 424 300 424C255 424 211 451 211 500C211 549 255 576 300 576C346 576 389 549 389 500ZM194 209C194 261 238 294 300 294C363 294 406 261 406 209C406 156 363 125 300 125C238 125 194 156 194 209Z" glyph-name="eight.osf" horiz-adv-x="600" /><glyph d="M310 -11C425 -11 558 53 558 206C558 288 511 340 471 366C503 389 541 444 541 506C541 636 431 712 310 712C189 712 79 636 79 506C79 444 117 389 149 366C109 340 62 288 62 206C62 53 195 -11 310 -11ZM310 307C369 307 408 267 408 215C408 159 365 124 310 124C255 124 212 159 212 215C212 267 251 307 310 307ZM310 592C355 592 393 560 393 511C393 465 365 429 310 429C256 429 227 465 227 511C227 560 265 592 310 592Z" glyph-name="eight.osf.ss01" horiz-adv-x="622" /><glyph d="M315 -11C440 -11 570 68 570 221C570 303 516 365 476 391C503 414 536 462 536 519C536 634 436 712 315 712C194 712 94 634 94 519C94 462 127 414 154 391C114 365 60 303 60 221C60 68 185 -11 315 -11ZM315 327C374 327 420 282 420 225C420 164 370 124 315 124C260 124 210 164 210 225C210 282 256 327 315 327ZM315 592C355 592 388 562 388 521C388 483 365 449 315 449C266 449 242 483 242 521C242 562 275 592 315 592Z" glyph-name="eight.osf.ss02" horiz-adv-x="630" /><glyph d="M311 -11C457 -11 565 70 565 201C565 280 523 334 478 361C514 391 548 435 548 500C548 627 446 712 311 712C177 712 74 627 74 500C74 435 108 391 145 361C99 334 57 280 57 201C57 70 165 -11 311 -11ZM400 500C400 451 357 424 311 424C266 424 222 451 222 500C222 549 266 576 311 576C357 576 400 549 400 500ZM205 209C205 261 249 294 311 294C374 294 417 261 417 209C417 156 374 125 311 125C249 125 205 156 205 209Z" glyph-name="eight.osf.ss03" horiz-adv-x="622" /><glyph d="M310 -11C425 -11 558 53 558 206C558 288 511 340 471 366C503 389 541 444 541 506C541 636 431 712 310 712C189 712 79 636 79 506C79 444 117 389 149 366C109 340 62 288 62 206C62 53 195 -11 310 -11ZM310 307C369 307 408 267 408 215C408 159 365 124 310 124C255 124 212 159 212 215C212 267 251 307 310 307ZM310 592C355 592 393 560 393 511C393 465 365 429 310 429C256 429 227 465 227 511C227 560 265 592 310 592Z" glyph-name="eight.ss01" horiz-adv-x="622" /><glyph d="M315 -11C440 -11 570 68 570 221C570 303 516 365 476 391C503 414 536 462 536 519C536 634 436 712 315 712C194 712 94 634 94 519C94 462 127 414 154 391C114 365 60 303 60 221C60 68 185 -11 315 -11ZM315 327C374 327 420 282 420 225C420 164 370 124 315 124C260 124 210 164 210 225C210 282 256 327 315 327ZM315 592C355 592 388 562 388 521C388 483 365 449 315 449C266 449 242 483 242 521C242 562 275 592 315 592Z" glyph-name="eight.ss02" horiz-adv-x="630" /><glyph d="M311 -11C457 -11 565 70 565 201C565 280 523 334 478 361C514 391 548 435 548 500C548 627 446 712 311 712C177 712 74 627 74 500C74 435 108 391 145 361C99 334 57 280 57 201C57 70 165 -11 311 -11ZM400 500C400 451 357 424 311 424C266 424 222 451 222 500C222 549 266 576 311 576C357 576 400 549 400 500ZM205 209C205 261 249 294 311 294C374 294 417 261 417 209C417 156 374 125 311 125C249 125 205 156 205 209Z" glyph-name="eight.ss03" horiz-adv-x="622" /><glyph d="M300 -11C446 -11 554 70 554 201C554 280 512 334 467 361C503 391 537 435 537 500C537 627 435 712 300 712C166 712 63 627 63 500C63 435 97 391 134 361C88 334 46 280 46 201C46 70 154 -11 300 -11ZM389 500C389 451 346 424 300 424C255 424 211 451 211 500C211 549 255 576 300 576C346 576 389 549 389 500ZM194 209C194 261 238 294 300 294C363 294 406 261 406 209C406 156 363 125 300 125C238 125 194 156 194 209Z" glyph-name="eight.tf" horiz-adv-x="600" /><glyph d="M300 -11C415 -11 548 53 548 206C548 288 501 340 461 366C493 389 531 444 531 506C531 636 421 712 300 712C179 712 69 636 69 506C69 444 107 389 139 366C99 340 52 288 52 206C52 53 185 -11 300 -11ZM300 307C359 307 398 267 398 215C398 159 355 124 300 124C245 124 202 159 202 215C202 267 241 307 300 307ZM300 592C345 592 383 560 383 511C383 465 355 429 300 429C246 429 217 465 217 511C217 560 255 592 300 592Z" glyph-name="eight.tf.ss01" horiz-adv-x="600" /><glyph d="M300 -11C425 -11 555 68 555 221C555 303 501 365 461 391C488 414 521 462 521 519C521 634 421 712 300 712C179 712 79 634 79 519C79 462 112 414 139 391C99 365 45 303 45 221C45 68 170 -11 300 -11ZM300 327C359 327 405 282 405 225C405 164 355 124 300 124C245 124 195 164 195 225C195 282 241 327 300 327ZM300 592C340 592 373 562 373 521C373 483 350 449 300 449C251 449 227 483 227 521C227 562 260 592 300 592Z" glyph-name="eight.tf.ss02" horiz-adv-x="600" /><glyph d="M300 -11C446 -11 554 70 554 201C554 280 512 334 467 361C503 391 537 435 537 500C537 627 435 712 300 712C166 712 63 627 63 500C63 435 97 391 134 361C88 334 46 280 46 201C46 70 154 -11 300 -11ZM389 500C389 451 346 424 300 424C255 424 211 451 211 500C211 549 255 576 300 576C346 576 389 549 389 500ZM194 209C194 261 238 294 300 294C363 294 406 261 406 209C406 156 363 125 300 125C238 125 194 156 194 209Z" glyph-name="eight.tf.ss03" horiz-adv-x="600" /><glyph d="M300 -11C446 -11 554 70 554 201C554 280 512 334 467 361C503 391 537 435 537 500C537 627 435 712 300 712C166 712 63 627 63 500C63 435 97 391 134 361C88 334 46 280 46 201C46 70 154 -11 300 -11ZM389 500C389 451 346 424 300 424C255 424 211 451 211 500C211 549 255 576 300 576C346 576 389 549 389 500ZM194 209C194 261 238 294 300 294C363 294 406 261 406 209C406 156 363 125 300 125C238 125 194 156 194 209Z" glyph-name="eight.to" horiz-adv-x="600" /><glyph d="M300 -11C415 -11 548 53 548 206C548 288 501 340 461 366C493 389 531 444 531 506C531 636 421 712 300 712C179 712 69 636 69 506C69 444 107 389 139 366C99 340 52 288 52 206C52 53 185 -11 300 -11ZM300 307C359 307 398 267 398 215C398 159 355 124 300 124C245 124 202 159 202 215C202 267 241 307 300 307ZM300 592C345 592 383 560 383 511C383 465 355 429 300 429C246 429 217 465 217 511C217 560 255 592 300 592Z" glyph-name="eight.to.ss01" horiz-adv-x="600" /><glyph d="M300 -11C425 -11 555 68 555 221C555 303 501 365 461 391C488 414 521 462 521 519C521 634 421 712 300 712C179 712 79 634 79 519C79 462 112 414 139 391C99 365 45 303 45 221C45 68 170 -11 300 -11ZM300 327C359 327 405 282 405 225C405 164 355 124 300 124C245 124 195 164 195 225C195 282 241 327 300 327ZM300 592C340 592 373 562 373 521C373 483 350 449 300 449C251 449 227 483 227 521C227 562 260 592 300 592Z" glyph-name="eight.to.ss02" horiz-adv-x="600" /><glyph d="M300 -11C446 -11 554 70 554 201C554 280 512 334 467 361C503 391 537 435 537 500C537 627 435 712 300 712C166 712 63 627 63 500C63 435 97 391 134 361C88 334 46 280 46 201C46 70 154 -11 300 -11ZM389 500C389 451 346 424 300 424C255 424 211 451 211 500C211 549 255 576 300 576C346 576 389 549 389 500ZM194 209C194 261 238 294 300 294C363 294 406 261 406 209C406 156 363 125 300 125C238 125 194 156 194 209Z" glyph-name="eight.to.ss03" horiz-adv-x="600" /><glyph d="M54 75C54 27 91 -11 139 -11C187 -11 226 27 226 75C226 123 187 161 139 161C91 161 54 123 54 75ZM317 75C317 27 354 -11 402 -11C450 -11 489 27 489 75C489 123 450 161 402 161C354 161 317 123 317 75ZM580 75C580 27 617 -11 665 -11C713 -11 752 27 752 75C752 123 713 161 665 161C617 161 580 123 580 75Z" glyph-name="ellipsis" horiz-adv-x="806" unicode="&#8230;" /><glyph d="M41 87C41 32 85 -11 141 -11C195 -11 239 32 239 87C239 143 195 186 141 186C85 186 41 143 41 87ZM296 87C296 32 340 -11 396 -11C450 -11 494 32 494 87C494 143 450 186 396 186C340 186 296 143 296 87ZM552 87C552 32 596 -11 652 -11C706 -11 750 32 750 87C750 143 706 186 652 186C596 186 552 143 552 87Z" glyph-name="ellipsis.ss01" horiz-adv-x="791" /><glyph d="M65 0H216V156H65ZM323 0H474V156H323ZM581 0H732V156H581Z" glyph-name="ellipsis.ss03" horiz-adv-x="797" /><glyph d="M511 209C511 209 512 234 512 251C512 375 434 502 276 502C134 502 35 390 35 242C35 88 146 -11 293 -11C398 -11 460 34 503 88L409 176C379 138 340 119 289 119C226 119 187 158 179 209ZM279 377C326 377 359 345 362 304H186C195 344 226 377 279 377ZM157 700V583H407V700Z" glyph-name="emacron" horiz-adv-x="546" unicode="&#275;" /><glyph d="M244 161C345 161 430 230 430 331C430 432 349 502 244 502C143 502 58 437 58 317V0H418V128H200V165C213 162 228 161 244 161ZM244 287C216 287 198 308 198 331C198 354 216 375 244 375C272 375 290 354 290 331C290 308 272 287 244 287ZM119 700V583H369V700Z" glyph-name="emacron.ss01" horiz-adv-x="470" /><glyph d="M20 198H980V326H20Z" glyph-name="emdash" horiz-adv-x="1000" unicode="&#8212;" /><glyph d="M20 286H980V414H20Z" glyph-name="emdash.cap" horiz-adv-x="1000" /><glyph d="M20 198H480V326H20Z" glyph-name="endash" horiz-adv-x="500" unicode="&#8211;" /><glyph d="M20 286H480V414H20Z" glyph-name="endash.cap" horiz-adv-x="500" /><glyph d="M376 -13C376 -62 353 -73 312 -73H281V-203C281 -203 309 -205 347 -205C464 -205 519 -143 519 -30V285C519 424 439 502 319 502C269 502 230 482 203 456V490H63V0H205V245C205 320 228 370 295 370C352 370 376 326 376 274Z" glyph-name="eng" horiz-adv-x="577" unicode="&#331;" /><glyph d="M63 490V0H205V359H376V0V-64H270V-194H519V490Z" glyph-name="eng.ss01" horiz-adv-x="582" /><glyph d="M511 209C511 209 512 234 512 251C512 375 434 502 276 502C134 502 35 390 35 242C35 95 135 -2 272 -10C246 -33 225 -65 225 -102C225 -159 267 -194 332 -194C359 -194 383 -191 394 -189V-106H390C353 -106 333 -94 333 -71C333 -47 347 -28 394 0L379 1C434 18 473 51 503 88L409 176C379 138 340 119 289 119C226 119 187 158 179 209ZM279 377C326 377 359 345 362 304H186C195 344 226 377 279 377Z" glyph-name="eogonek" horiz-adv-x="546" unicode="&#281;" /><glyph d="M244 161C345 161 430 230 430 331C430 432 349 502 244 502C143 502 58 437 58 317V0H308C277 -22 248 -59 248 -102C248 -159 290 -194 355 -194C382 -194 406 -191 417 -189V-106H413C376 -106 356 -94 356 -71C356 -47 370 -28 417 0H418V128H200V165C213 162 228 161 244 161ZM244 287C216 287 198 308 198 331C198 354 216 375 244 375C272 375 290 354 290 331C290 308 272 287 244 287Z" glyph-name="eogonek.ss01" horiz-adv-x="470" /><glyph d="M60 297H562V429H60ZM60 82H562V214H60Z" glyph-name="equal" horiz-adv-x="622" unicode="=" /><glyph d="M152 456 262 519 314 449C297 456 280 457 265 457C148 457 36 372 36 225C36 93 133 -11 280 -11C438 -11 523 115 523 245C523 328 491 412 433 492L369 580L411 604V712L314 656L282 700H126L205 594L152 564ZM181 222C181 277 217 323 276 323C336 323 372 277 372 222C372 168 336 122 276 122C217 122 181 168 181 222Z" glyph-name="eth" horiz-adv-x="558" unicode="&#240;" /><glyph d="M92 226H239V700H92ZM80 75C80 27 117 -11 165 -11C213 -11 252 27 252 75C252 122 213 161 165 161C117 161 80 122 80 75Z" glyph-name="exclam" horiz-adv-x="332" unicode="!" /><glyph d="M70 87C70 32 114 -11 170 -11C224 -11 268 32 268 87C268 143 224 186 170 186C114 186 70 143 70 87ZM92 226H239V700H92Z" glyph-name="exclam.ss01" horiz-adv-x="338" /><glyph d="M95 211H240V700H95ZM95 0H240V131H95Z" glyph-name="exclam.ss03" horiz-adv-x="335" /><glyph d="M239 268H92V-194H239ZM252 416C252 464 214 502 166 502C119 502 80 464 80 416C80 368 119 329 166 329C214 329 252 368 252 416Z" glyph-name="exclamdown" horiz-adv-x="332" unicode="&#161;" /><glyph d="M92 -11H239V463H92ZM80 614C80 567 117 528 165 528C213 528 252 567 252 614C252 662 213 700 165 700C117 700 80 662 80 614Z" glyph-name="exclamdown.cap" horiz-adv-x="332" /><glyph d="M70 602C70 546 114 503 170 503C224 503 268 546 268 602C268 657 224 700 170 700C114 700 70 657 70 602ZM92 -11H239V463H92Z" glyph-name="exclamdown.cap.ss01" horiz-adv-x="338" /><glyph d="M95 0H240V489H95ZM95 569H240V700H95Z" glyph-name="exclamdown.cap.ss03" horiz-adv-x="335" /><glyph d="M268 405C268 460 224 503 168 503C114 503 70 460 70 405C70 349 114 306 168 306C224 306 268 349 268 405ZM246 266H99V-194H246Z" glyph-name="exclamdown.ss01" horiz-adv-x="338" /><glyph d="M240 279H95V-211H240ZM240 490H95V359H240Z" glyph-name="exclamdown.ss03" horiz-adv-x="335" /><glyph d="M303 712C176 712 87 650 87 514V490H23V359H87V0H229V359H336V490H229V506C229 555 252 577 316 577H340V711C340 711 326 712 303 712Z" glyph-name="f" horiz-adv-x="363" unicode="f" /><glyph d="M25 359H78V0H224V359H435V490H224V538C224 562 235 579 257 579C279 579 291 564 291 543V535H435V545C435 647 354 712 257 712C160 712 78 649 78 547V490H25Z" glyph-name="f.ss01" horiz-adv-x="453" /><glyph d="M924 245C924 400 814 502 679 502C623 502 580 481 555 459V700H303C176 700 87 639 87 503V490H23V359H87V0H228V359H336V490H228V495C228 544 252 566 316 566H411V0H553V35C579 10 624 -11 679 -11C814 -11 924 87 924 245ZM553 245C553 321 600 373 665 373C730 373 779 321 779 245C779 169 730 117 665 117C600 117 553 169 553 245Z" glyph-name="f_b" horiz-adv-x="959" /><glyph d="M937 245C937 400 827 502 692 502C636 502 593 481 568 459V700H424V606C398 672 332 712 257 712C160 712 78 649 78 547V490H25V359H78V0H224V359H424V0H566V35C592 10 637 -11 692 -11C827 -11 937 87 937 245ZM566 245C566 321 613 373 678 373C743 373 792 321 792 245C792 169 743 117 678 117C613 117 566 169 566 245ZM224 538C224 562 235 579 257 579C279 579 291 564 291 543V535H424V490H224Z" glyph-name="f_b.ss01" horiz-adv-x="972" /><glyph d="M303 712C176 712 87 650 87 514V490H23V359H87V0H228V359H421V0H562V359H670V490H562V506C562 555 586 577 650 577H674V711C674 711 660 712 637 712C510 712 421 650 421 514V490H228V506C228 555 252 577 316 577H340V711C340 711 326 712 303 712Z" glyph-name="f_f" horiz-adv-x="697" unicode="&#64256;" /><glyph d="M224 359H425V0H571V359H782V490H571V538C571 562 582 579 604 579C626 579 638 564 638 543V535H782V545C782 647 701 712 604 712C521 712 449 666 430 589C410 665 339 712 257 712C160 712 78 649 78 547V490H25V359H78V0H224ZM224 538C224 562 235 579 257 579C279 579 291 564 291 543V535H425V490H224Z" glyph-name="f_f.ss01" horiz-adv-x="800" /><glyph d="M1258 245C1258 400 1148 502 1013 502C957 502 914 481 889 459V700H637C510 700 421 639 421 503V490H228V506C228 555 252 577 316 577H340V711C340 711 326 712 303 712C176 712 87 650 87 514V490H23V359H87V0H228V359H421V0H562V359H670V490H562V495C562 544 586 566 650 566H745V0H887V35C913 10 958 -11 1013 -11C1148 -11 1258 87 1258 245ZM887 245C887 321 934 373 999 373C1064 373 1113 321 1113 245C1113 169 1064 117 999 117C934 117 887 169 887 245Z" glyph-name="f_f_b" horiz-adv-x="1293" /><glyph d="M224 359H425V0H571V359H772V0H914V35C940 10 985 -11 1040 -11C1175 -11 1285 87 1285 245C1285 400 1175 502 1040 502C984 502 941 481 916 459V700H772V604C747 671 680 712 604 712C521 712 449 666 430 589C410 665 339 712 257 712C160 712 78 649 78 547V490H25V359H78V0H224ZM914 245C914 321 961 373 1026 373C1091 373 1140 321 1140 245C1140 169 1091 117 1026 117C961 117 914 169 914 245ZM224 538C224 562 235 579 257 579C279 579 291 564 291 543V535H425V490H224ZM571 538C571 562 582 579 604 579C626 579 638 564 638 543V535H772V490H571Z" glyph-name="f_f_b.ss01" horiz-adv-x="1320" /><glyph d="M887 245C887 320 910 370 977 370C1034 370 1059 326 1059 274V0H1201V285C1201 424 1121 502 1001 502C951 502 908 482 886 462V699L887 700H637C510 700 421 639 421 503V490H228V506C228 555 252 577 316 577H340V711C340 711 326 712 303 712C176 712 87 650 87 514V490H23V359H87V0H228V359H421V0H562V359H670V490H562V495C562 544 586 566 650 566H745V0H887Z" glyph-name="f_f_h" horiz-adv-x="1259" /><glyph d="M25 359H78V0H224V359H425V0H571V359H772V0H914V359H1085V0H1228V490H914V700H772V604C747 671 680 712 604 712C521 712 449 666 430 589C410 665 339 712 257 712C160 712 78 649 78 547V490H25ZM224 538C224 562 235 579 257 579C279 579 291 564 291 543V535H425V490H224ZM571 538C571 562 582 579 604 579C626 579 638 564 638 543V535H772V490H571Z" glyph-name="f_f_h.ss01" horiz-adv-x="1291" /><glyph d="M744 0H887V490H562V506C562 555 586 577 650 577H662V711C662 711 660 712 637 712C510 712 421 650 421 514V490H336H228V506C228 555 252 577 316 577H340V711C340 711 326 712 303 712C176 712 87 650 87 514V490H23V359H87V0H228V359H421V0H562V359H744ZM733 629C733 584 769 547 815 547C861 547 898 584 898 629C898 675 861 712 815 712C769 712 733 675 733 629Z" glyph-name="f_f_i" horiz-adv-x="955" unicode="&#64259;" /><glyph d="M224 359H425V0H571V359H772V0H915V490H571V538C571 562 582 579 604 579C626 579 638 564 638 543V535H782V545C782 647 701 712 604 712C521 712 449 666 430 589C410 665 339 712 257 712C160 712 78 649 78 547V490H25V359H78V0H224ZM224 538C224 562 235 579 257 579C279 579 291 564 291 543V535H425V490H224Z" glyph-name="f_f_i.ss01" horiz-adv-x="983" /><glyph d="M744 0H887V490H562V506C562 555 586 577 650 577H662V711C662 711 660 712 637 712C510 712 421 650 421 514V490H228V506C228 555 252 577 316 577H340V711C340 711 326 712 303 712C176 712 87 650 87 514V490H23V359H87V0H228V359H421V0H562V359H744ZM744 565H887V700H744Z" glyph-name="f_f_i.ss03" horiz-adv-x="950" /><glyph d="M745 -13C745 -62 721 -73 680 -73H649V-203C649 -203 677 -205 715 -205C832 -205 887 -143 887 -30V490H562V506C562 555 586 577 650 577H662V711C662 711 660 712 637 712C510 712 421 650 421 514V490H228V506C228 555 252 577 316 577H340V711C340 711 326 712 303 712C176 712 87 650 87 514V490H23V359H87V0H228V359H421V0H562V359H745ZM734 629C734 584 770 547 816 547C861 547 899 584 899 629C899 675 861 712 816 712C770 712 734 675 734 629Z" glyph-name="f_f_j" horiz-adv-x="950" /><glyph d="M915 -194V490H571V538C571 562 582 579 604 579C626 579 638 564 638 543V535H782V545C782 647 701 712 604 712C521 712 449 666 430 589C410 665 339 712 257 712C160 712 78 649 78 547V490H25V359H78V0H224V359H425V0H571V359H772V-64H666V-194ZM224 538C224 562 235 579 257 579C279 579 291 564 291 543V535H425V490H224Z" glyph-name="f_f_j.ss01" horiz-adv-x="979" /><glyph d="M745 -13C745 -62 721 -73 680 -73H649V-203C649 -203 677 -205 715 -205C832 -205 887 -143 887 -30V490H562V506C562 555 586 577 650 577H662V711C662 711 660 712 637 712C510 712 421 650 421 514V490H336H228V506C228 555 252 577 316 577H340V711C340 711 326 712 303 712C176 712 87 650 87 514V490H23V359H87V0H228V359H421V0H562V359H745ZM745 565H887V700H745Z" glyph-name="f_f_j.ss03" horiz-adv-x="950" /><glyph d="M745 0H887V150L920 186L1037 0H1210L1021 288L1202 490H1023L887 335V700H637C510 700 421 639 421 503V490H336H228V506C228 555 252 577 316 577H340V711C340 711 326 712 303 712C176 712 87 650 87 514V490H23V359H87V0H228V359H421V0H562V359H670V490H562V495C562 544 586 566 650 566H745Z" glyph-name="f_f_k" horiz-adv-x="1230" /><glyph d="M25 359H78V0H224V359H425V0H571V359H772V0H914V178H957L1059 0H1210L1072 245L1201 490H1050L956 309H914V700H772V604C747 671 680 712 604 712C521 712 449 666 430 589C410 665 339 712 257 712C160 712 78 649 78 547V490H25ZM224 538C224 562 235 579 257 579C279 579 291 564 291 543V535H425V490H224ZM571 538C571 562 582 579 604 579C626 579 638 564 638 543V535H772V490H571Z" glyph-name="f_f_k.ss01" horiz-adv-x="1230" /><glyph d="M745 0H887V177L1018 0H1189L995 255L1169 490H1006L887 323V700H637C510 700 421 639 421 503V490H336H228V506C228 555 252 577 316 577H340V711C340 711 326 712 303 712C176 712 87 650 87 514V490H23V359H87V0H228V359H421V0H562V359H670V490H562V495C562 544 586 566 650 566H745Z" glyph-name="f_f_k.ss02" horiz-adv-x="1209" /><glyph d="M745 0H887V700H637C510 700 421 639 421 503V490H228V506C228 555 252 577 316 577H340V711C340 711 326 712 303 712C176 712 87 650 87 514V490H23V359H87V0H228V359H421V0H562V359H670V490H562V495C562 544 586 566 650 566H745Z" glyph-name="f_f_l" horiz-adv-x="950" unicode="&#64260;" /><glyph d="M25 359H78V0H224V359H425V0H571V359H772V0H914V700H772V604C747 671 680 712 604 712C521 712 449 666 430 589C410 665 339 712 257 712C160 712 78 649 78 547V490H25ZM224 538C224 562 235 579 257 579C279 579 291 564 291 543V535H425V490H224ZM571 538C571 562 582 579 604 579C626 579 638 564 638 543V535H772V490H571Z" glyph-name="f_f_l.ss01" horiz-adv-x="977" /><glyph d="M303 712C176 712 87 650 87 514V490H23V359H87V0H228V359H421V0H562V359H745V173C745 60 800 -2 916 -2C955 -2 993 0 993 0V130H951C910 130 886 141 886 190V359H995V490H886V627H745V490H670H562V506C562 555 586 577 650 577H674V711C674 711 660 712 637 712C510 712 421 650 421 514V490H336H228V506C228 555 252 577 316 577H340V711C340 711 326 712 303 712Z" glyph-name="f_f_t" horiz-adv-x="1040" /><glyph d="M25 359H78V0H224V359H425V0H571V359H772V0H1049V131H914V359H1054V490H926V627H772V604C747 671 680 712 604 712C521 712 449 666 430 589C410 665 339 712 257 712C160 712 78 649 78 547V490H25ZM224 538C224 562 235 579 257 579C279 579 291 564 291 543V535H425V490H224ZM571 538C571 562 582 579 604 579C626 579 638 564 638 543V535H772V490H571Z" glyph-name="f_f_t.ss01" horiz-adv-x="1099" /><glyph d="M553 245C553 320 576 370 643 370C700 370 725 326 725 274V0H867V285C867 424 787 502 667 502C617 502 574 482 552 462V699L553 700H303C176 700 87 639 87 503V490H23V359H87V0H228V359H336V490H228V495C228 544 252 566 316 566H411V0H553Z" glyph-name="f_h" horiz-adv-x="925" /><glyph d="M25 359H78V0H224V359H425V0H567V359H738V0H881V490H567V700H425V604C400 671 333 712 257 712C160 712 78 649 78 547V490H25ZM224 538C224 562 235 579 257 579C279 579 291 564 291 543V535H425V490H224Z" glyph-name="f_h.ss01" horiz-adv-x="944" /><glyph d="M411 -13C411 -62 387 -73 346 -73H315V-203C315 -203 343 -205 381 -205C498 -205 553 -143 553 -30V490H228V506C228 555 252 577 316 577H328V711C328 711 326 712 303 712C176 712 87 650 87 514V490H23V359H87V0H228V359H411ZM400 629C400 584 436 547 482 547C527 547 565 584 565 629C565 675 527 712 482 712C436 712 400 675 400 629Z" glyph-name="f_j" horiz-adv-x="616" /><glyph d="M568 -194V490H224V538C224 562 235 579 257 579C279 579 291 564 291 543V535H435V545C435 647 354 712 257 712C160 712 78 649 78 547V490H25V359H78V0H224V359H425V-64H319V-194Z" glyph-name="f_j.ss01" horiz-adv-x="632" /><glyph d="M411 -13C411 -62 387 -73 346 -73H315V-203C315 -203 343 -205 381 -205C498 -205 553 -143 553 -30V490H228V506C228 555 252 577 316 577H328V711C328 711 326 712 303 712C176 712 87 650 87 514V490H23V359H87V0H228V359H411ZM411 565H553V700H411Z" glyph-name="f_j.ss03" horiz-adv-x="616" /><glyph d="M411 0H553V150L586 186L703 0H876L687 288L868 490H689L553 335V700H303C176 700 87 639 87 503V490H23V359H87V0H228V359H336V490H228V495C228 544 252 566 316 566H411Z" glyph-name="f_k" horiz-adv-x="896" /><glyph d="M25 359H78V0H224V359H425V0H567V178H610L712 0H863L725 245L854 490H703L609 309H567V700H425V604C400 671 333 712 257 712C160 712 78 649 78 547V490H25ZM224 538C224 562 235 579 257 579C279 579 291 564 291 543V535H425V490H224Z" glyph-name="f_k.ss01" horiz-adv-x="883" /><glyph d="M411 0H553V177L684 0H855L661 255L835 490H672L553 323V700H303C176 700 87 639 87 503V490H23V359H87V0H228V359H336V490H228V495C228 544 252 566 316 566H411Z" glyph-name="f_k.ss02" horiz-adv-x="875" /><glyph d="M303 712C176 712 87 650 87 514V490H23V359H87V0H229V359H411V173C411 60 466 -2 582 -2C621 -2 659 0 659 0V130H617C576 130 552 141 552 190V359H661V490H552V627H411V490H336H229V506C229 555 252 577 316 577H340V711C340 711 326 712 303 712Z" glyph-name="f_t" horiz-adv-x="706" unicode="&#64261;" /><glyph d="M25 359H78V0H224V359H425V0H702V131H567V359H707V490H579V627H425V604C400 671 333 712 257 712C160 712 78 649 78 547V490H25ZM224 490V538C224 562 235 579 257 579C279 579 291 564 291 543V535H425V490Z" glyph-name="f_t.ss01" horiz-adv-x="752" /><glyph d="M410 0H553V490H228V506C228 555 252 577 316 577H328V711C328 711 326 712 303 712C176 712 87 650 87 514V490H23V359H87V0H228V359H410ZM399 629C399 584 435 547 481 547C527 547 564 584 564 629C564 675 527 712 481 712C435 712 399 675 399 629Z" glyph-name="fi" horiz-adv-x="621" unicode="&#64257;" /><glyph d="M425 0H568V490H224V538C224 562 235 579 257 579C279 579 291 564 291 543V535H435V545C435 647 354 712 257 712C160 712 78 649 78 547V490H25V359H78V0H224V359H425Z" glyph-name="fi.ss01" horiz-adv-x="636" /><glyph d="M410 0H553V490H228V506C228 555 252 577 316 577H328V711C328 711 326 712 303 712C176 712 87 650 87 514V490H23V359H87V0H228V359H410ZM410 565H553V700H410Z" glyph-name="fi.ss03" horiz-adv-x="616" /><glyph d="M431 228C431 166 379 125 313 125C248 125 202 157 166 205L60 100C108 35 199 -11 302 -11C463 -11 579 87 579 236C579 381 463 467 340 467C288 467 253 455 223 435L229 563H523V700H90L73 270H210C229 315 269 337 316 337C383 337 431 290 431 228Z" glyph-name="five" horiz-adv-x="621" unicode="5" /><glyph d="M431 75C431 13 379 -28 313 -28C248 -28 202 4 166 52L60 -53C108 -118 199 -164 302 -164C463 -164 579 -66 579 83C579 228 463 314 340 314C288 314 253 302 223 282L229 410H523V547H90L73 117H210C229 162 269 184 316 184C383 184 431 137 431 75Z" glyph-name="five.osf" horiz-adv-x="621" /><glyph d="M410 82C410 21 360 -27 290 -27C233 -27 191 -4 153 43L51 -58C104 -119 185 -163 298 -163C463 -163 569 -53 569 85C569 245 449 320 331 320C287 320 237 306 214 285V412H512V548H67V124H202C219 164 250 190 303 190C362 190 410 148 410 82Z" glyph-name="five.osf.ss01" horiz-adv-x="620" /><glyph d="M404 81C404 20 354 -28 284 -28C227 -28 185 -5 147 42L45 -59C98 -120 179 -164 292 -164C457 -164 563 -54 563 84C563 244 438 319 320 319C276 319 246 310 222 296L253 411H506V547H141L55 168L188 126C208 164 244 189 292 189C351 189 404 147 404 81Z" glyph-name="five.osf.ss02" horiz-adv-x="614" /><glyph d="M421 74C421 9 366 -30 309 -30C267 -30 219 -11 204 44H55C70 -70 168 -164 301 -164C457 -164 570 -68 570 70C570 225 451 314 325 314C280 314 239 302 213 281L222 410H514V547H81L64 117H201C218 159 261 184 306 184C380 184 421 138 421 74Z" glyph-name="five.osf.ss03" horiz-adv-x="586" /><glyph d="M410 234C410 173 360 125 290 125C233 125 191 148 153 195L51 94C104 33 185 -11 298 -11C463 -11 569 99 569 237C569 397 449 472 331 472C287 472 237 458 214 437V564H512V700H67V276H202C219 316 250 342 303 342C362 342 410 300 410 234Z" glyph-name="five.ss01" horiz-adv-x="620" /><glyph d="M404 234C404 173 354 125 284 125C227 125 185 148 147 195L45 94C98 33 179 -11 292 -11C457 -11 563 99 563 237C563 397 438 472 320 472C276 472 246 463 222 449L253 564H506V700H141L55 321L188 279C208 317 244 342 292 342C351 342 404 300 404 234Z" glyph-name="five.ss02" horiz-adv-x="614" /><glyph d="M416 227C416 162 361 123 304 123C262 123 214 142 199 197H50C65 83 163 -11 296 -11C452 -11 565 85 565 223C565 378 446 467 320 467C275 467 234 455 208 434L217 563H509V700H76L59 270H196C213 312 256 337 301 337C375 337 416 291 416 227Z" glyph-name="five.ss03" horiz-adv-x="586" /><glyph d="M411 228C411 166 359 125 293 125C228 125 182 157 146 205L40 100C88 35 179 -11 282 -11C443 -11 559 87 559 236C559 381 443 467 320 467C268 467 233 455 203 435L209 563H503V700H70L53 270H190C209 315 249 337 296 337C363 337 411 290 411 228Z" glyph-name="five.tf" horiz-adv-x="600" /><glyph d="M400 234C400 173 350 125 280 125C223 125 181 148 143 195L41 94C94 33 175 -11 288 -11C453 -11 559 99 559 237C559 397 439 472 321 472C277 472 227 458 204 437V564H502V700H57V276H192C209 316 240 342 293 342C352 342 400 300 400 234Z" glyph-name="five.tf.ss01" horiz-adv-x="600" /><glyph d="M400 234C400 173 350 125 280 125C223 125 181 148 143 195L41 94C94 33 175 -11 288 -11C453 -11 559 99 559 237C559 397 434 472 316 472C272 472 242 463 218 449L249 564H502V700H137L51 321L184 279C204 317 240 342 288 342C347 342 400 300 400 234Z" glyph-name="five.tf.ss02" horiz-adv-x="600" /><glyph d="M408 227C408 162 353 123 296 123C254 123 206 142 191 197H42C57 83 155 -11 288 -11C444 -11 557 85 557 223C557 378 438 467 312 467C267 467 226 455 200 434L209 563H501V700H68L51 270H188C205 312 248 337 293 337C367 337 408 291 408 227Z" glyph-name="five.tf.ss03" horiz-adv-x="600" /><glyph d="M411 75C411 13 359 -28 293 -28C228 -28 182 4 146 52L40 -53C88 -118 179 -164 282 -164C443 -164 559 -66 559 83C559 228 443 314 320 314C268 314 233 302 203 282L209 410H503V547H70L53 117H190C209 162 249 184 296 184C363 184 411 137 411 75Z" glyph-name="five.to" horiz-adv-x="600" /><glyph d="M400 82C400 21 350 -27 280 -27C223 -27 181 -4 143 43L41 -58C94 -119 175 -163 288 -163C453 -163 559 -53 559 85C559 245 439 320 321 320C277 320 227 306 204 285V412H502V548H57V124H192C209 164 240 190 293 190C352 190 400 148 400 82Z" glyph-name="five.to.ss01" horiz-adv-x="600" /><glyph d="M400 82C400 21 350 -27 280 -27C223 -27 181 -4 143 43L41 -58C94 -119 175 -163 288 -163C453 -163 559 -53 559 85C559 245 434 320 316 320C272 320 242 311 218 297L249 412H502V548H137L51 169L184 127C204 165 240 190 288 190C347 190 400 148 400 82Z" glyph-name="five.to.ss02" horiz-adv-x="600" /><glyph d="M408 74C408 9 353 -30 296 -30C254 -30 206 -11 191 44H42C57 -70 155 -164 288 -164C444 -164 557 -68 557 70C557 225 438 314 312 314C267 314 226 302 200 281L209 410H501V547H68L51 117H188C205 159 248 184 293 184C367 184 408 138 408 74Z" glyph-name="five.to.ss03" horiz-adv-x="600" /><glyph d="M411 0H553V700H303C176 700 87 639 87 503V490H23V359H87V0H228V359H336V490H228V495C228 544 252 566 316 566H411Z" glyph-name="fl" horiz-adv-x="627" unicode="&#64258;" /><glyph d="M567 700H425V604C400 671 333 712 257 712C160 712 78 649 78 547V490H25V359H78V0H224V359H425V0H567ZM224 538C224 562 235 579 257 579C279 579 291 564 291 543V535H425V490H224Z" glyph-name="fl.ss01" horiz-adv-x="630" /><glyph d="M54 -205C180 -205 270 -143 270 -10V359H378V490H270V506C270 555 294 577 358 577H382V711C382 711 368 712 345 712C218 712 129 650 129 514V490H65V359H129V1C129 -48 105 -69 41 -69H17V-204C17 -204 31 -205 54 -205Z" glyph-name="florin" horiz-adv-x="427" unicode="&#402;" /><glyph d="M54 -205C180 -205 270 -143 270 -10V359H378V490H270V506C270 555 294 577 358 577H382V711C382 711 368 712 345 712C218 712 129 650 129 514V490H65V359H129V1C129 -48 105 -69 41 -69H17V-204C17 -204 31 -205 54 -205Z" glyph-name="florin.osf" horiz-adv-x="427" /><glyph d="M154 -205C280 -205 370 -143 370 -10V359H478V490H370V506C370 555 394 577 458 577H482V711C482 711 468 712 445 712C318 712 229 650 229 514V490H165V359H229V1C229 -48 205 -69 141 -69H117V-204C117 -204 131 -205 154 -205Z" glyph-name="florin.tf" horiz-adv-x="600" /><glyph d="M154 -205C280 -205 370 -143 370 -10V359H478V490H370V506C370 555 394 577 458 577H482V711C482 711 468 712 445 712C318 712 229 650 229 514V490H165V359H229V1C229 -48 205 -69 141 -69H117V-204C117 -204 131 -205 154 -205Z" glyph-name="florin.to" horiz-adv-x="600" /><glyph d="M588 148V279H491V700H328L28 270V148H343V0H491V148ZM182 279 343 513V279Z" glyph-name="four" horiz-adv-x="628" unicode="4" /><glyph d="M588 0V131H497V547H334L40 122V0H349V-153H497V0ZM189 131 349 360V131Z" glyph-name="four.osf" horiz-adv-x="628" /><glyph d="M474 265H326V131H208V193L466 547H297L50 208V0H326V-153H474V0H593V131H474Z" glyph-name="four.osf.ss01" horiz-adv-x="633" /><glyph d="M454 564 0 14V0H356V-153H504V0H601V131H504V564ZM255 131 356 262V131Z" glyph-name="four.osf.ss02" horiz-adv-x="641" /><glyph d="M594 0V131H497V547H334L34 122V0H349V-153H497V0ZM188 131 349 360V131Z" glyph-name="four.osf.ss03" horiz-adv-x="634" /><glyph d="M474 413H326V279H208V341L466 700H297L50 356V148H326V0H474V148H593V279H474Z" glyph-name="four.ss01" horiz-adv-x="633" /><glyph d="M454 712 0 162V148H356V0H504V148H601V279H504V712ZM255 279 356 410V279Z" glyph-name="four.ss02" horiz-adv-x="641" /><glyph d="M594 148V279H497V700H334L34 270V148H349V0H497V148ZM188 279 349 513V279Z" glyph-name="four.ss03" horiz-adv-x="634" /><glyph d="M580 148V279H483V700H320L20 270V148H335V0H483V148ZM174 279 335 513V279Z" glyph-name="four.tf" horiz-adv-x="600" /><glyph d="M452 413H304V279H186V341L444 700H275L28 356V148H304V0H452V148H571V279H452Z" glyph-name="four.tf.ss01" horiz-adv-x="600" /><glyph d="M439 712 10 162V148H356V0H504V148H591V279H504V712ZM265 279 356 402V279Z" glyph-name="four.tf.ss02" horiz-adv-x="600" /><glyph d="M580 148V279H483V700H320L20 270V148H335V0H483V148ZM174 279 335 513V279Z" glyph-name="four.tf.ss03" horiz-adv-x="600" /><glyph d="M574 0V131H483V547H320L26 122V0H335V-153H483V0ZM175 131 335 360V131Z" glyph-name="four.to" horiz-adv-x="600" /><glyph d="M452 265H304V131H186V193L444 547H275L28 208V0H304V-153H452V0H571V131H452Z" glyph-name="four.to.ss01" horiz-adv-x="600" /><glyph d="M439 564 10 14V0H356V-153H504V0H591V131H504V564ZM265 131 356 254V131Z" glyph-name="four.to.ss02" horiz-adv-x="600" /><glyph d="M580 0V131H483V547H320L20 122V0H335V-153H483V0ZM174 131 335 360V131Z" glyph-name="four.to.ss03" horiz-adv-x="600" /><glyph d="M366 72V167H308V392H177L12 161V72H193V0H308V72ZM131 167 193 261V167Z" glyph-name="fourinferior" horiz-adv-x="387" unicode="&#8324;" /><glyph d="M308 231H193V167H142V190L294 392H165L27 208V72H193V0H308V72H378V167H308Z" glyph-name="fourinferior.ss01" horiz-adv-x="399" /><glyph d="M277 396 0 82V72H218V0H328V72H385V167H328V396ZM188 167 218 203V167Z" glyph-name="fourinferior.ss02" horiz-adv-x="406" /><glyph d="M363 73V168H306V393H175L10 162V73H191V1H306V73ZM126 168 191 266V168Z" glyph-name="fourinferior.ss03" horiz-adv-x="393" /><glyph d="M366 380V475H308V700H177L12 469V380H193V308H308V380ZM131 475 193 569V475Z" glyph-name="foursuperior" horiz-adv-x="387" unicode="&#8308;" /><glyph d="M308 539H193V475H142V498L294 700H165L27 516V380H193V308H308V380H378V475H308Z" glyph-name="foursuperior.ss01" horiz-adv-x="399" /><glyph d="M277 704 0 390V380H218V308H328V380H385V475H328V704ZM188 475 218 511V475Z" glyph-name="foursuperior.ss02" horiz-adv-x="406" /><glyph d="M363 380V475H306V700H175L10 469V380H191V308H306V380ZM126 475 191 573V475Z" glyph-name="foursuperior.ss03" horiz-adv-x="393" /><glyph d="M20 0H153L584 700H451Z" glyph-name="fraction" horiz-adv-x="604" unicode="&#8260;" /><glyph d="M396 35C396 -30 347 -74 272 -74C215 -74 172 -44 149 -11L50 -106C82 -146 147 -205 273 -205C442 -205 538 -97 538 51V490H399V455C372 480 330 502 276 502C150 502 36 415 36 256C36 101 140 11 276 11C331 11 371 26 396 48ZM399 256C399 186 349 140 289 140C230 140 181 186 181 256C181 327 230 373 289 373C349 373 399 327 399 256Z" glyph-name="g" horiz-adv-x="601" unicode="g" /><glyph d="M302 368C302 323 265 292 209 292C168 292 135 312 117 336L37 263C62 233 113 191 210 191C343 191 418 271 418 380V703H304V679C284 695 254 711 213 711C115 711 26 649 26 530C26 415 107 350 213 350C255 350 284 361 302 375ZM304 530C304 481 268 449 223 449C180 449 144 481 144 530C144 580 180 612 223 612C268 612 304 580 304 530Z" glyph-name="g.ordn" horiz-adv-x="465" /><glyph d="M418 703H214C119 703 34 637 34 546C34 483 64 438 117 395L237 300H50V199H396V296L275 397C348 414 394 464 394 538C394 563 387 586 372 604H418ZM278 545C278 511 250 488 214 488C178 488 150 511 150 545C150 580 178 602 214 602C249 602 278 580 278 545Z" glyph-name="g.ordn.ss01" horiz-adv-x="437" /><glyph d="M538 490H277C154 490 45 400 45 277C45 191 84 130 153 72L315 -64H65V-194H513V-68L351 74C436 91 510 154 510 272C510 306 500 336 482 362H538ZM367 276C367 226 327 192 278 192C228 192 188 226 188 276C188 326 228 359 277 359C327 359 367 326 367 276Z" glyph-name="g.ss01" horiz-adv-x="568" /><glyph d="M396 35C396 -30 347 -74 272 -74C215 -74 172 -44 149 -11L50 -106C82 -146 147 -205 273 -205C442 -205 538 -97 538 51V490H399V455C372 480 330 502 276 502C150 502 36 415 36 256C36 101 140 11 276 11C331 11 371 26 396 48ZM399 256C399 186 349 140 289 140C230 140 181 186 181 256C181 327 230 373 289 373C349 373 399 327 399 256ZM300 552C384 552 445 608 441 700H345C342 680 332 660 300 660C268 660 258 680 256 700H160C156 608 217 552 300 552Z" glyph-name="gbreve" horiz-adv-x="601" unicode="&#287;" /><glyph d="M538 490H277C154 490 45 400 45 277C45 191 84 130 153 72L315 -64H65V-194H513V-68L351 74C436 91 510 154 510 272C510 306 500 336 482 362H538ZM367 276C367 226 327 192 278 192C228 192 188 226 188 276C188 326 228 359 277 359C327 359 367 326 367 276ZM291 552C375 552 436 608 432 700H336C333 680 323 660 291 660C259 660 249 680 247 700H151C147 608 208 552 291 552Z" glyph-name="gbreve.ss01" horiz-adv-x="568" /><glyph d="M396 35C396 -30 347 -74 272 -74C215 -74 172 -44 149 -11L50 -106C82 -146 147 -205 273 -205C442 -205 538 -97 538 51V490H399V455C372 480 330 502 276 502C150 502 36 415 36 256C36 101 140 11 276 11C331 11 371 26 396 48ZM399 256C399 186 349 140 289 140C230 140 181 186 181 256C181 327 230 373 289 373C349 373 399 327 399 256ZM219 700 128 558H251L300 617L350 558H473L382 700Z" glyph-name="gcircumflex" horiz-adv-x="601" unicode="&#285;" /><glyph d="M538 490H277C154 490 45 400 45 277C45 191 84 130 153 72L315 -64H65V-194H513V-68L351 74C436 91 510 154 510 272C510 306 500 336 482 362H538ZM367 276C367 226 327 192 278 192C228 192 188 226 188 276C188 326 228 359 277 359C327 359 367 326 367 276ZM210 700 119 558H242L291 617L341 558H464L373 700Z" glyph-name="gcircumflex.ss01" horiz-adv-x="568" /><glyph d="M396 35C396 -30 347 -74 272 -74C215 -74 172 -44 149 -11L50 -106C82 -146 147 -205 273 -205C442 -205 538 -97 538 51V490H399V455C372 480 330 502 276 502C150 502 36 415 36 256C36 101 140 11 276 11C331 11 371 26 396 48ZM399 256C399 186 349 140 289 140C230 140 181 186 181 256C181 327 230 373 289 373C349 373 399 327 399 256ZM369 563 415 700H300L228 563Z" glyph-name="gcommaaccent" horiz-adv-x="601" unicode="&#291;" /><glyph d="M538 490H277C154 490 45 400 45 277C45 191 84 130 153 72L315 -64H65V-194H513V-68L351 74C436 91 510 154 510 272C510 306 500 336 482 362H538ZM367 276C367 226 327 192 278 192C228 192 188 226 188 276C188 326 228 359 277 359C327 359 367 326 367 276ZM369 563 415 700H300L228 563Z" glyph-name="gcommaaccent.ss01" horiz-adv-x="568" /><glyph d="M396 35C396 -30 347 -74 272 -74C215 -74 172 -44 149 -11L50 -106C82 -146 147 -205 273 -205C442 -205 538 -97 538 51V490H399V455C372 480 330 502 276 502C150 502 36 415 36 256C36 101 140 11 276 11C331 11 371 26 396 48ZM399 256C399 186 349 140 289 140C230 140 181 186 181 256C181 327 230 373 289 373C349 373 399 327 399 256ZM218 629C218 584 254 547 300 547C345 547 383 584 383 629C383 675 345 712 300 712C254 712 218 675 218 629Z" glyph-name="gdotaccent" horiz-adv-x="601" unicode="&#289;" /><glyph d="M538 490H277C154 490 45 400 45 277C45 191 84 130 153 72L315 -64H65V-194H513V-68L351 74C436 91 510 154 510 272C510 306 500 336 482 362H538ZM367 276C367 226 327 192 278 192C228 192 188 226 188 276C188 326 228 359 277 359C327 359 367 326 367 276ZM209 629C209 584 245 547 291 547C336 547 374 584 374 629C374 675 336 712 291 712C245 712 209 675 209 629Z" glyph-name="gdotaccent.ss01" horiz-adv-x="568" /><glyph d="M396 35C396 -30 347 -74 272 -74C215 -74 172 -44 149 -11L50 -106C82 -146 147 -205 273 -205C442 -205 538 -97 538 51V490H399V455C372 480 330 502 276 502C150 502 36 415 36 256C36 101 140 11 276 11C331 11 371 26 396 48ZM399 256C399 186 349 140 289 140C230 140 181 186 181 256C181 327 230 373 289 373C349 373 399 327 399 256ZM211 551H369V700H211Z" glyph-name="gdotaccent.ss03" horiz-adv-x="601" /><glyph d="M282 131V0H365C516 0 599 87 599 201C599 270 567 325 504 363C540 390 568 445 568 506C568 626 456 712 331 712C169 712 63 605 63 430V0H205V430C205 536 252 581 327 581C387 581 424 546 424 499C424 453 391 416 330 416H282V285H350C416 285 456 259 456 207C456 156 416 131 350 131Z" glyph-name="germandbls" horiz-adv-x="634" unicode="&#223;" /><glyph d="M292 292H359C421 292 457 268 457 218C457 168 421 146 359 146H292V0H365C518 0 608 84 608 223C608 321 547 398 452 422L567 568V700H63V0H214V563H394L292 428Z" glyph-name="germandbls.ss01" horiz-adv-x="643" /><glyph d="M282 131V0H365C516 0 599 87 599 201C599 270 567 325 504 363C540 390 568 445 568 506C568 626 456 712 331 712C169 712 63 605 63 430V0H205V430C205 536 252 581 327 581C387 581 424 546 424 499C424 453 391 416 330 416H282V285H350C416 285 456 259 456 207C456 156 416 131 350 131Z" glyph-name="germandbls.ss02" horiz-adv-x="634" /><glyph d="M123 700 243 558H377L303 700Z" glyph-name="grave" horiz-adv-x="500" unicode="`" /><glyph d="M128 872 226 769H372L298 872Z" glyph-name="grave.cap" horiz-adv-x="500" /><glyph d="M563 319 60 502V352L380 245L60 138V-11L563 171Z" glyph-name="greater" horiz-adv-x="603" unicode="&gt;" /><glyph d="M563 0H60V-128H563ZM563 361 60 514V364L380 287L60 210V61L563 213Z" glyph-name="greaterequal" horiz-adv-x="603" unicode="&#8805;" /><glyph d="M40 245 177 0H331L192 245L331 490H177ZM330 245 467 0H621L482 245L621 490H467Z" glyph-name="guillemotleft" horiz-adv-x="661" unicode="&#171;" /><glyph d="M40 350 177 105H331L192 350L331 595H177ZM330 350 467 105H621L482 350L621 595H467Z" glyph-name="guillemotleft.cap" horiz-adv-x="661" /><glyph d="M194 490H40L179 245L40 0H194L331 245ZM484 490H330L469 245L330 0H484L621 245Z" glyph-name="guillemotright" horiz-adv-x="661" unicode="&#187;" /><glyph d="M194 595H40L179 350L40 105H194L331 350ZM484 595H330L469 350L330 105H484L621 350Z" glyph-name="guillemotright.cap" horiz-adv-x="661" /><glyph d="M40 245 177 0H331L192 245L331 490H177Z" glyph-name="guilsinglleft" horiz-adv-x="371" unicode="&#8249;" /><glyph d="M40 350 177 105H331L192 350L331 595H177Z" glyph-name="guilsinglleft.cap" horiz-adv-x="371" /><glyph d="M194 490H40L179 245L40 0H194L331 245Z" glyph-name="guilsinglright" horiz-adv-x="371" unicode="&#8250;" /><glyph d="M194 595H40L179 350L40 105H194L331 350Z" glyph-name="guilsinglright.cap" horiz-adv-x="371" /><glyph d="M205 245C205 320 228 370 295 370C352 370 377 326 377 274V0H519V285C519 424 439 502 319 502C269 502 226 482 204 462V700H63V0H205Z" glyph-name="h" horiz-adv-x="577" unicode="h" /><glyph d="M63 0H205V359H376V0H519V490H205V700H63Z" glyph-name="h.ss01" horiz-adv-x="582" /><glyph d="M10 530H63V0H205V245C205 320 228 370 295 370C352 370 377 326 377 274V0H519V285C519 424 439 502 319 502C269 502 226 482 204 462V530H368V658H204V700H63V658H10Z" glyph-name="hbar" horiz-adv-x="577" unicode="&#295;" /><glyph d="M10 530H63V0H205V359H376V0H519V490H205V530H368V658H205V700H63V658H10Z" glyph-name="hbar.ss01" horiz-adv-x="582" /><glyph d="M205 245C205 320 228 370 295 370C352 370 377 326 377 274V0H519V285C519 424 439 502 319 502C269 502 226 482 204 462V700H63V0H205ZM50 872 -36 769H99L137 809L175 769H309L224 872Z" glyph-name="hcircumflex" horiz-adv-x="577" unicode="&#293;" /><glyph d="M63 0H205V359H376V0H519V490H205V700H63ZM50 872 -36 769H99L137 809L175 769H309L224 872Z" glyph-name="hcircumflex.ss01" horiz-adv-x="582" /><glyph d="M124 700 50 569H178L264 700ZM309 700 235 569H364L450 700Z" glyph-name="hungarumlaut" horiz-adv-x="500" unicode="&#733;" /><glyph d="M117 872 59 769H187L255 872ZM302 872 244 769H373L441 872Z" glyph-name="hungarumlaut.cap" horiz-adv-x="500" /><glyph d="M20 198H260V326H20Z" glyph-name="hyphen" horiz-adv-x="280" unicode="-" /><glyph d="M20 286H260V414H20Z" glyph-name="hyphen.cap" horiz-adv-x="280" /><glyph d="M68 0H210V490H68ZM57 629C57 584 93 547 139 547C185 547 222 584 222 629C222 675 185 712 139 712C93 712 57 675 57 629Z" glyph-name="i" horiz-adv-x="279" unicode="i" /><glyph d="M68 0H210V490H68ZM57 629C57 584 93 547 139 547C185 547 222 584 222 629C222 675 185 712 139 712C93 712 57 675 57 629Z" glyph-name="i.TRK" horiz-adv-x="279" /><glyph d="M63 0H206V490H63ZM63 565H206V700H63Z" glyph-name="i.TRK.ss03" horiz-adv-x="269" /><glyph d="M63 0H206V490H63ZM63 565H206V700H63Z" glyph-name="i.ss03" horiz-adv-x="269" /><glyph d="M68 0H211V490H68ZM126 700 52 558H186L306 700Z" glyph-name="iacute" horiz-adv-x="279" unicode="&#237;" /><glyph d="M68 0H211V490H68ZM152 700 78 558H212L332 700Z" glyph-name="iacute.ss03" horiz-adv-x="279" /><glyph d="M68 0H211V490H68ZM139 552C223 552 284 608 280 700H184C181 680 171 660 139 660C107 660 97 680 95 700H-1C-5 608 56 552 139 552Z" glyph-name="ibreve" horiz-adv-x="279" unicode="&#301;" /><glyph d="M68 0H211V490H68ZM139 552C223 552 284 608 280 700H184C181 680 171 660 139 660C107 660 97 680 95 700H-1C-5 608 56 552 139 552Z" glyph-name="ibreve.ss03" horiz-adv-x="279" /><glyph d="M68 0H211V490H68ZM58 700 -33 558H90L139 617L189 558H312L221 700Z" glyph-name="icircumflex" horiz-adv-x="279" unicode="&#238;" /><glyph d="M68 0H211V490H68ZM58 700 -33 558H90L139 617L189 558H312L221 700Z" glyph-name="icircumflex.ss03" horiz-adv-x="279" /><glyph d="M68 0H211V490H68ZM-41 638C-41 597 -8 564 33 564C73 564 108 597 108 638C108 678 73 712 33 712C-8 712 -41 678 -41 638ZM171 638C171 597 204 564 245 564C285 564 320 597 320 638C320 678 285 712 245 712C204 712 171 678 171 638Z" glyph-name="idieresis" horiz-adv-x="279" unicode="&#239;" /><glyph d="M68 0H211V490H68ZM166 551H324V700H166ZM-44 551H114V700H-44Z" glyph-name="idieresis.ss03" horiz-adv-x="279" /><glyph d="M68 0H211V490H68ZM-28 700 92 558H226L152 700Z" glyph-name="igrave" horiz-adv-x="279" unicode="&#236;" /><glyph d="M68 0H211V490H68ZM-47 700 73 558H207L133 700Z" glyph-name="igrave.ss03" horiz-adv-x="279" /><glyph d="M68 0H210V490H68ZM57 629C57 584 93 547 139 547C185 547 222 584 222 629C222 675 185 712 139 712C93 712 57 675 57 629ZM334 629C334 584 370 547 416 547C461 547 499 584 499 629C499 675 461 712 416 712C370 712 334 675 334 629ZM345 -13C345 -62 321 -73 280 -73H249V-203C249 -203 277 -205 315 -205C432 -205 487 -143 487 -30V490H345Z" glyph-name="ij" horiz-adv-x="550" unicode="&#307;" /><glyph d="M68 0H210V490H68ZM57 629C57 584 93 547 139 547C185 547 222 584 222 629C222 675 185 712 139 712C93 712 57 675 57 629ZM508 -194V490H365V-64H259V-194ZM354 629C354 584 390 547 436 547C482 547 519 584 519 629C519 675 482 712 436 712C390 712 354 675 354 629Z" glyph-name="ij.ss01" horiz-adv-x="572" /><glyph d="M63 0H206V490H63ZM63 565H206V700H63ZM335 565H477V700H335ZM335 -13C335 -62 311 -73 270 -73H239V-203C239 -203 267 -205 305 -205C422 -205 477 -143 477 -30V490H335Z" glyph-name="ij.ss03" horiz-adv-x="540" /><glyph d="M68 0H211V490H68ZM14 700V583H264V700Z" glyph-name="imacron" horiz-adv-x="279" unicode="&#299;" /><glyph d="M68 0H211V490H68ZM14 700V583H264V700Z" glyph-name="imacron.ss03" horiz-adv-x="279" /><glyph d="M798 502C678 502 603 430 550 362C501 428 433 502 303 502C150 502 35 392 35 245C35 98 150 -11 303 -11C431 -11 500 63 551 130C600 63 667 -11 798 -11C952 -11 1066 98 1066 245C1066 392 952 502 798 502ZM303 368C361 368 399 334 441 277L465 245L442 214C400 157 361 122 303 122C234 122 177 176 177 245C177 315 234 368 303 368ZM636 245 660 277C702 334 740 368 798 368C867 368 924 315 924 245C924 176 867 122 798 122C740 122 701 157 660 213Z" glyph-name="infinity" horiz-adv-x="1101" unicode="&#8734;" /><glyph d="M263 506C263 555 287 577 351 577H374V711C374 711 361 712 338 712C210 712 121 650 121 514V1C121 -48 97 -69 34 -69H10V-204C10 -204 23 -205 46 -205C173 -205 263 -143 263 -10Z" glyph-name="integral" horiz-adv-x="384" unicode="&#8747;" /><glyph d="M68 0H102C71 -22 42 -59 42 -102C42 -159 84 -194 149 -194C176 -194 200 -191 211 -189V-106H207C170 -106 150 -94 150 -71C150 -47 164 -28 211 0H210V490H68ZM57 629C57 584 93 547 139 547C185 547 222 584 222 629C222 675 185 712 139 712C93 712 57 675 57 629Z" glyph-name="iogonek" horiz-adv-x="279" unicode="&#303;" /><glyph d="M63 0H97C66 -22 37 -59 37 -102C37 -159 79 -194 144 -194C171 -194 195 -191 206 -189V-106H202C165 -106 145 -94 145 -71C145 -47 159 -28 206 0V490H63ZM63 565H206V700H63Z" glyph-name="iogonek.ss03" horiz-adv-x="269" /><glyph d="M68 0H211V490H68ZM213 700C212 680 197 674 186 674C176 674 166 677 156 680L115 693C106 695 90 700 72 700C10 700 -25 640 -25 575H66C67 596 82 601 93 601C102 601 113 599 123 596L164 583C173 581 189 575 207 575C269 575 304 636 304 700Z" glyph-name="itilde" horiz-adv-x="279" unicode="&#297;" /><glyph d="M68 0H211V490H68ZM213 700C212 680 197 674 186 674C176 674 166 677 156 680L115 693C106 695 90 700 72 700C10 700 -25 640 -25 575H66C67 596 82 601 93 601C102 601 113 599 123 596L164 583C173 581 189 575 207 575C269 575 304 636 304 700Z" glyph-name="itilde.ss03" horiz-adv-x="279" /><glyph d="M55 629C55 584 91 547 137 547C182 547 220 584 220 629C220 675 182 712 137 712C91 712 55 675 55 629ZM66 -13C66 -62 42 -73 1 -73H-30V-203C-30 -203 -2 -205 36 -205C153 -205 208 -143 208 -30V490H66Z" glyph-name="j" horiz-adv-x="271" unicode="j" /><glyph d="M229 -194V490H86V-64H-20V-194ZM75 629C75 584 111 547 157 547C203 547 240 584 240 629C240 675 203 712 157 712C111 712 75 675 75 629Z" glyph-name="j.ss01" horiz-adv-x="293" /><glyph d="M66 565H208V700H66ZM66 -13C66 -62 42 -73 1 -73H-30V-203C-30 -203 -2 -205 36 -205C153 -205 208 -143 208 -30V490H66Z" glyph-name="j.ss03" horiz-adv-x="271" /><glyph d="M66 -13C66 -62 42 -73 1 -73H-30V-203C-30 -203 -2 -205 36 -205C153 -205 208 -143 208 -30V490H66ZM56 700 -35 558H88L137 617L187 558H310L219 700Z" glyph-name="jcircumflex" horiz-adv-x="271" unicode="&#309;" /><glyph d="M229 -194V490H86V-64H-20V-194ZM76 700 -15 558H108L157 617L207 558H330L239 700Z" glyph-name="jcircumflex.ss01" horiz-adv-x="293" /><glyph d="M66 -13C66 -62 42 -73 1 -73H-30V-203C-30 -203 -2 -205 36 -205C153 -205 208 -143 208 -30V490H66ZM56 700 -35 558H88L137 617L187 558H310L219 700Z" glyph-name="jcircumflex.ss03" horiz-adv-x="271" /><glyph d="M63 0H205V150L238 186L355 0H528L339 288L520 490H341L205 335V700H63Z" glyph-name="k" horiz-adv-x="548" unicode="k" /><glyph d="M63 0H205V178H248L350 0H501L363 245L492 490H341L247 309H205V700H63Z" glyph-name="k.ss01" horiz-adv-x="521" /><glyph d="M63 0H205V177L336 0H507L313 255L487 490H324L205 323V700H63Z" glyph-name="k.ss02" horiz-adv-x="527" /><glyph d="M63 0H205V150L238 186L355 0H528L339 288L520 490H341L205 335V700H63ZM217 -57 171 -194H296L368 -57Z" glyph-name="kcommaaccent" horiz-adv-x="548" unicode="&#311;" /><glyph d="M63 0H205V178H248L350 0H501L363 245L492 490H341L247 309H205V700H63ZM204 -57 158 -194H283L355 -57Z" glyph-name="kcommaaccent.ss01" horiz-adv-x="521" /><glyph d="M63 0H205V177L336 0H507L313 255L487 490H324L205 323V700H63ZM207 -57 161 -194H286L358 -57Z" glyph-name="kcommaaccent.ss02" horiz-adv-x="527" /><glyph d="M63 0H205V150L238 186L355 0H528L339 288L520 490H341L205 335V490H63Z" glyph-name="kgreenlandic" horiz-adv-x="548" unicode="&#312;" /><glyph d="M63 0H207V178H248L350 0H501L363 245L492 490H341L247 309H207V490H63Z" glyph-name="kgreenlandic.ss01" horiz-adv-x="521" /><glyph d="M63 0H205V177L336 0H507L313 255L487 490H324L205 323V490H63Z" glyph-name="kgreenlandic.ss02" horiz-adv-x="527" /><glyph d="M63 0H205V700H63Z" glyph-name="l" horiz-adv-x="268" unicode="l" /><glyph d="M47 342H162V857H47Z" glyph-name="l.ordn" horiz-adv-x="209" /><glyph d="M205 700H63V0H205Z" glyph-name="l.ss01" horiz-adv-x="268" /><glyph d="M63 0H205V700H63ZM139 872 65 769H211L309 872Z" glyph-name="lacute" horiz-adv-x="268" unicode="&#314;" /><glyph d="M205 700H63V0H205ZM138 872 64 769H210L308 872Z" glyph-name="lacute.ss01" horiz-adv-x="268" /><glyph d="M63 0H205V700H63ZM363 511H258L285 700H422Z" glyph-name="lcaron" horiz-adv-x="268" unicode="&#318;" /><glyph d="M205 700H63V0H205ZM364 511H259L286 700H423Z" glyph-name="lcaron.ss01" horiz-adv-x="268" /><glyph d="M63 0H205V700H63ZM56 -57 10 -194H135L207 -57Z" glyph-name="lcommaaccent" horiz-adv-x="268" unicode="&#316;" /><glyph d="M205 700H63V0H205ZM56 -57 10 -194H135L207 -57Z" glyph-name="lcommaaccent.ss01" horiz-adv-x="268" /><glyph d="M63 0H205V700H63ZM264 345C264 300 300 263 346 263C391 263 429 300 429 345C429 391 391 428 346 428C300 428 264 391 264 345Z" glyph-name="ldot" horiz-adv-x="422" unicode="&#320;" /><glyph d="M63 0H205V700H63ZM264 344C264 299 300 262 346 262C391 262 429 299 429 344C429 390 391 427 346 427C300 427 264 390 264 344Z" glyph-name="ldot.ss01" horiz-adv-x="422" /><glyph d="M63 0H205V700H63ZM272 265H430V414H272Z" glyph-name="ldot.ss03" horiz-adv-x="424" /><glyph d="M40 172 543 -10V139L223 246L543 353V503L40 320Z" glyph-name="less" horiz-adv-x="603" unicode="&lt;" /><glyph d="M40 -128H543V0H40ZM40 213 543 61V210L223 287L543 364V514L40 361Z" glyph-name="lessequal" horiz-adv-x="603" unicode="&#8804;" /><glyph d="M50 164H403V32H540V296H50Z" glyph-name="logicalnot" horiz-adv-x="600" unicode="&#172;" /><glyph d="M253 700 40 247 253 -205H386L599 247L386 700ZM188 247 320 533 451 247 320 -38Z" glyph-name="lozenge" horiz-adv-x="639" unicode="&#9674;" /><glyph d="M274 377V504L205 469V700H63V397L-6 362V235L63 270V0H205V342Z" glyph-name="lslash" horiz-adv-x="268" unicode="&#322;" /><glyph d="M274 377V504L205 469V700H63V397L-6 362V235L63 270V0H205V342Z" glyph-name="lslash.ss01" horiz-adv-x="268" /><glyph d="M205 251C205 326 234 370 290 370C341 370 365 332 365 279V0H507V261C507 329 538 370 592 370C643 370 667 332 667 279V0H809V285C809 424 735 502 604 502C544 502 491 477 457 443C424 481 376 502 321 502C271 502 230 482 203 456V490H63V0H205Z" glyph-name="m" horiz-adv-x="867" unicode="m" /><glyph d="M162 525C162 578 183 610 225 610C262 610 280 582 280 547V342H395V533C395 581 418 610 457 610C495 610 512 582 512 546V342H627V552C627 654 569 711 468 711C421 711 381 693 354 670C329 697 292 711 250 711C213 711 182 698 161 679V703H47V342H162Z" glyph-name="m.ordn" horiz-adv-x="671" /><glyph d="M630 703H47V342H162V601H281V342H396V601H515V342H630Z" glyph-name="m.ordn.ss01" horiz-adv-x="677" /><glyph d="M809 490H63V0H205V359H365V0H507V359H667V0H809Z" glyph-name="m.ss01" horiz-adv-x="872" /><glyph d="M125 700V583H375V700Z" glyph-name="macron" horiz-adv-x="500" unicode="&#175;" /><glyph d="M125 886V769H375V886Z" glyph-name="macron.cap" horiz-adv-x="500" /><glyph d="M60 194H550V326H60Z" glyph-name="minus" horiz-adv-x="610" unicode="&#8722;" /><glyph d="M211 5C233 -7 256 -11 272 -11C319 -11 345 5 373 34V0H513V490H370V239C370 164 348 120 286 120C235 120 211 158 211 211V490H68V-194H211Z" glyph-name="mu" horiz-adv-x="576" unicode="&#181;" /><glyph d="M211 5C233 -7 256 -11 272 -11C319 -11 345 5 373 34V0H513V490H370V239C370 164 348 120 286 120C235 120 211 158 211 211V490H68V-194H211Z" glyph-name="mugreek" horiz-adv-x="576" unicode="&#956;" /><glyph d="M52 389 194 246 50 103 144 8 289 152 433 8 527 103 384 246 525 389 430 483 289 341 147 483Z" glyph-name="multiply" horiz-adv-x="577" unicode="&#215;" /><glyph d="M205 245C205 320 228 370 295 370C352 370 377 326 377 274V0H519V285C519 424 439 502 319 502C269 502 230 482 203 456V490H63V0H205Z" glyph-name="n" horiz-adv-x="577" unicode="n" /><glyph d="M63 490V0H205V359H376V0H519V490Z" glyph-name="n.ss01" horiz-adv-x="582" /><glyph d="M205 245C205 320 228 370 295 370C352 370 377 326 377 274V0H519V285C519 424 439 502 319 502C269 502 230 482 203 456V490H63V0H205ZM283 700 209 558H343L463 700Z" glyph-name="nacute" horiz-adv-x="577" unicode="&#324;" /><glyph d="M63 490V0H205V359H376V0H519V490ZM278 700 204 558H338L458 700Z" glyph-name="nacute.ss01" horiz-adv-x="582" /><glyph glyph-name="nbspace" horiz-adv-x="280" unicode="&#160;" /><glyph d="M205 245C205 320 228 370 295 370C352 370 377 326 377 274V0H519V285C519 424 439 502 319 502C269 502 230 482 203 456V490H63V0H205ZM378 558 469 700H346L296 641L247 700H124L215 558Z" glyph-name="ncaron" horiz-adv-x="577" unicode="&#328;" /><glyph d="M63 490V0H205V359H376V0H519V490ZM373 558 464 700H341L291 641L242 700H119L210 558Z" glyph-name="ncaron.ss01" horiz-adv-x="582" /><glyph d="M205 245C205 320 228 370 295 370C352 370 377 326 377 274V0H519V285C519 424 439 502 319 502C269 502 230 482 203 456V490H63V0H205ZM218 -57 172 -194H297L369 -57Z" glyph-name="ncommaaccent" horiz-adv-x="577" unicode="&#326;" /><glyph d="M63 490V0H205V359H376V0H519V490ZM220 -57 174 -194H299L371 -57Z" glyph-name="ncommaaccent.ss01" horiz-adv-x="582" /><glyph d="M300 712C165 712 46 622 46 473C46 329 160 236 288 236C356 236 407 261 441 300C439 194 370 125 288 125C234 125 189 149 162 184L66 84C113 30 195 -11 283 -11C467 -11 581 131 581 344C581 572 474 712 300 712ZM194 472C194 534 238 576 299 576C359 576 404 534 404 472C404 410 359 368 299 368C238 368 194 410 194 472Z" glyph-name="nine" horiz-adv-x="627" unicode="9" /><glyph d="M300 560C165 560 46 470 46 321C46 177 160 84 288 84C356 84 407 109 441 148C439 42 370 -27 288 -27C234 -27 189 -3 162 32L66 -68C113 -122 195 -163 283 -163C467 -163 581 -21 581 192C581 420 474 560 300 560ZM194 320C194 382 238 424 299 424C359 424 404 382 404 320C404 258 359 216 299 216C238 216 194 258 194 320Z" glyph-name="nine.osf" horiz-adv-x="627" /><glyph d="M301 560C163 560 45 456 45 307C45 163 147 58 270 58C291 58 306 60 317 64L137 -152H299L470 59C523 125 563 214 563 295C563 453 454 560 301 560ZM418 309C418 239 370 190 303 190C237 190 190 239 190 309C190 379 237 428 303 428C370 428 418 379 418 309Z" glyph-name="nine.osf.ss01" horiz-adv-x="616" /><glyph d="M301 560C163 560 45 456 45 307C45 163 147 58 270 58C291 58 306 60 317 64L137 -152H299L470 59C523 125 563 214 563 295C563 453 454 560 301 560ZM418 309C418 239 370 190 303 190C237 190 190 239 190 309C190 379 237 428 303 428C370 428 418 379 418 309Z" glyph-name="nine.osf.ss02" horiz-adv-x="616" /><glyph d="M296 -40C252 -40 212 -12 206 28H65C66 -81 167 -163 289 -163C488 -163 577 -1 577 222C577 434 478 560 307 560C168 560 51 466 51 317C51 173 158 84 291 84C349 84 398 107 426 138C426 13 360 -40 296 -40ZM305 215C242 215 200 257 200 320C200 384 242 425 301 425C367 425 409 375 409 319C409 254 360 215 305 215Z" glyph-name="nine.osf.ss03" horiz-adv-x="610" /><glyph d="M301 712C163 712 45 608 45 459C45 315 147 210 270 210C291 210 306 212 317 216L137 0H299L470 211C523 277 563 366 563 447C563 605 454 712 301 712ZM418 461C418 391 370 342 303 342C237 342 190 391 190 461C190 531 237 580 303 580C370 580 418 531 418 461Z" glyph-name="nine.ss01" horiz-adv-x="616" /><glyph d="M301 712C163 712 45 608 45 459C45 315 147 210 270 210C291 210 306 212 317 216L137 0H299L470 211C523 277 563 366 563 447C563 605 454 712 301 712ZM418 461C418 391 370 342 303 342C237 342 190 391 190 461C190 531 237 580 303 580C370 580 418 531 418 461Z" glyph-name="nine.ss02" horiz-adv-x="616" /><glyph d="M291 112C247 112 207 140 201 180H60C61 71 162 -11 284 -11C483 -11 572 151 572 374C572 586 473 712 302 712C163 712 46 618 46 469C46 325 153 236 286 236C344 236 393 259 421 290C421 165 355 112 291 112ZM300 367C237 367 195 409 195 472C195 536 237 577 296 577C362 577 404 527 404 471C404 406 355 367 300 367Z" glyph-name="nine.ss03" horiz-adv-x="610" /><glyph d="M286 712C151 712 32 622 32 473C32 329 146 236 274 236C342 236 393 261 427 300C425 194 356 125 274 125C220 125 175 149 148 184L52 84C99 30 181 -11 269 -11C453 -11 567 131 567 344C567 572 460 712 286 712ZM180 472C180 534 224 576 285 576C345 576 390 534 390 472C390 410 345 368 285 368C224 368 180 410 180 472Z" glyph-name="nine.tf" horiz-adv-x="600" /><glyph d="M297 712C159 712 41 608 41 459C41 315 143 210 266 210C287 210 302 212 313 216L133 0H295L466 211C519 277 559 366 559 447C559 605 450 712 297 712ZM414 461C414 391 366 342 299 342C233 342 186 391 186 461C186 531 233 580 299 580C366 580 414 531 414 461Z" glyph-name="nine.tf.ss01" horiz-adv-x="600" /><glyph d="M297 712C159 712 41 608 41 459C41 315 143 210 266 210C287 210 302 212 313 216L133 0H295L466 211C519 277 559 366 559 447C559 605 450 712 297 712ZM414 461C414 391 366 342 299 342C233 342 186 391 186 461C186 531 233 580 299 580C366 580 414 531 414 461Z" glyph-name="nine.tf.ss02" horiz-adv-x="600" /><glyph d="M282 112C238 112 198 140 192 180H51C52 71 153 -11 275 -11C474 -11 563 151 563 374C563 586 464 712 293 712C154 712 37 618 37 469C37 325 144 236 277 236C335 236 384 259 412 290C412 165 346 112 282 112ZM291 367C228 367 186 409 186 472C186 536 228 577 287 577C353 577 395 527 395 471C395 406 346 367 291 367Z" glyph-name="nine.tf.ss03" horiz-adv-x="600" /><glyph d="M286 560C151 560 32 470 32 321C32 177 146 84 274 84C342 84 393 109 427 148C425 42 356 -27 274 -27C220 -27 175 -3 148 32L52 -68C99 -122 181 -163 269 -163C453 -163 567 -21 567 192C567 420 460 560 286 560ZM180 320C180 382 224 424 285 424C345 424 390 382 390 320C390 258 345 216 285 216C224 216 180 258 180 320Z" glyph-name="nine.to" horiz-adv-x="600" /><glyph d="M297 560C159 560 41 456 41 307C41 163 143 58 266 58C287 58 302 60 313 64L133 -152H295L466 59C519 125 559 214 559 295C559 453 450 560 297 560ZM414 309C414 239 366 190 299 190C233 190 186 239 186 309C186 379 233 428 299 428C366 428 414 379 414 309Z" glyph-name="nine.to.ss01" horiz-adv-x="600" /><glyph d="M297 560C159 560 41 456 41 307C41 163 143 58 266 58C287 58 302 60 313 64L133 -152H295L466 59C519 125 559 214 559 295C559 453 450 560 297 560ZM414 309C414 239 366 190 299 190C233 190 186 239 186 309C186 379 233 428 299 428C366 428 414 379 414 309Z" glyph-name="nine.to.ss02" horiz-adv-x="600" /><glyph d="M282 -40C238 -40 198 -12 192 28H51C52 -81 153 -163 275 -163C474 -163 563 -1 563 222C563 434 464 560 293 560C154 560 37 466 37 317C37 173 144 84 277 84C335 84 384 107 412 138C412 13 346 -40 282 -40ZM291 215C228 215 186 257 186 320C186 384 228 425 287 425C353 425 395 375 395 319C395 254 346 215 291 215Z" glyph-name="nine.to.ss03" horiz-adv-x="600" /><glyph d="M60 297H266L224 214H60V82H156L109 -11H247L294 82H562V214H361L403 297H562V429H471L508 502H371L334 429H60Z" glyph-name="notequal" horiz-adv-x="622" unicode="&#8800;" /><glyph d="M205 245C205 320 228 370 295 370C352 370 377 326 377 274V0H519V285C519 424 439 502 319 502C269 502 230 482 203 456V490H63V0H205ZM370 700C369 680 354 674 343 674C333 674 323 677 313 680L272 693C263 695 247 700 229 700C167 700 132 640 132 575H223C224 596 239 601 250 601C259 601 270 599 280 596L321 583C330 581 346 575 364 575C426 575 461 636 461 700Z" glyph-name="ntilde" horiz-adv-x="577" unicode="&#241;" /><glyph d="M63 490V0H205V359H376V0H519V490ZM365 700C364 680 349 674 338 674C328 674 318 677 308 680L267 693C258 695 242 700 224 700C162 700 127 640 127 575H218C219 596 234 601 245 601C254 601 265 599 275 596L316 583C325 581 341 575 359 575C421 575 456 636 456 700Z" glyph-name="ntilde.ss01" horiz-adv-x="582" /><glyph d="M30 291V157H137L91 0H233L278 157H421L375 0H518L562 157H724V291H599L634 412H776V544H670L716 700H573L529 544H387L432 700H291L245 544H82V412H209L173 291ZM350 412H493L457 291H315Z" glyph-name="numbersign" horiz-adv-x="806" unicode="#" /><glyph d="M502 0H680V700H532V226L249 700H70V0H219V472ZM760 522C760 414 847 334 961 334C1075 334 1162 414 1162 522C1162 631 1075 711 961 711C847 711 760 631 760 522ZM878 522C878 573 913 609 961 609C1010 609 1045 573 1045 522C1045 472 1010 436 961 436C913 436 878 472 878 522Z" glyph-name="numero" horiz-adv-x="1187" unicode="&#8470;" /><glyph d="M666 -17H680V700H532V293L84 718H70V0H219V405ZM760 522C760 414 847 334 961 334C1075 334 1162 414 1162 522C1162 631 1075 711 961 711C847 711 760 631 760 522ZM878 522C878 573 913 609 961 609C1010 609 1045 573 1045 522C1045 472 1010 436 961 436C913 436 878 472 878 522Z" glyph-name="numero.ss02" horiz-adv-x="1187" /><glyph d="M205 245C205 320 228 370 295 370C352 370 377 326 377 274V0H519V285C519 424 439 502 319 502C269 502 230 482 203 456V490H63V0H205ZM549 522C549 414 636 334 750 334C864 334 951 414 951 522C951 631 864 711 750 711C636 711 549 631 549 522ZM667 522C667 573 702 609 750 609C799 609 834 573 834 522C834 472 799 436 750 436C702 436 667 472 667 522Z" glyph-name="numeroLC" horiz-adv-x="976" /><glyph d="M63 490V0H205V359H376V0H519V490ZM579 522C579 414 666 334 780 334C894 334 981 414 981 522C981 631 894 711 780 711C666 711 579 631 579 522ZM697 522C697 573 732 609 780 609C829 609 864 573 864 522C864 472 829 436 780 436C732 436 697 472 697 522Z" glyph-name="numeroLC.ss01" horiz-adv-x="1006" /><glyph d="M205 245C205 320 228 370 295 370C352 370 377 326 377 274V0H519V285C519 424 439 502 319 502C269 502 230 482 203 456V490H63V0H205ZM549 522C549 414 636 334 750 334C864 334 951 414 951 522C951 631 864 711 750 711C636 711 549 631 549 522ZM667 522C667 573 702 609 750 609C799 609 834 573 834 522C834 472 799 436 750 436C702 436 667 472 667 522ZM1185 465C1207 460 1217 455 1217 446C1217 434 1198 425 1178 425C1146 425 1110 437 1071 472L1001 404C1030 369 1093 334 1168 334C1267 334 1328 383 1328 451C1328 525 1270 556 1202 572L1146 584C1131 588 1122 592 1122 600C1122 610 1134 618 1154 618C1187 618 1219 603 1242 584L1312 655C1267 693 1214 711 1158 711C1078 711 1010 667 1010 596C1010 538 1050 497 1135 477Z" glyph-name="numeroLC_s" horiz-adv-x="1353" /><glyph d="M63 490V0H205V359H376V0H519V490ZM579 522C579 414 666 334 780 334C894 334 981 414 981 522C981 631 894 711 780 711C666 711 579 631 579 522ZM697 522C697 573 732 609 780 609C829 609 864 573 864 522C864 472 829 436 780 436C732 436 697 472 697 522ZM1187 711C1110 711 1049 666 1049 602C1049 553 1071 524 1113 502L1193 460C1201 456 1205 452 1205 446C1205 440 1201 436 1193 436C1176 436 1153 444 1087 480L1031 398C1072 362 1122 334 1192 334C1303 334 1348 424 1347 494L1191 584C1181 590 1177 595 1177 603C1177 610 1182 618 1191 618C1198 618 1204 615 1221 605L1274 574L1334 657C1293 693 1242 711 1187 711Z" glyph-name="numeroLC_s.ss01" horiz-adv-x="1375" /><glyph d="M502 0H680V700H532V226L249 700H70V0H219V472ZM760 522C760 414 847 334 961 334C1075 334 1162 414 1162 522C1162 631 1075 711 961 711C847 711 760 631 760 522ZM878 522C878 573 913 609 961 609C1010 609 1045 573 1045 522C1045 472 1010 436 961 436C913 436 878 472 878 522ZM1396 465C1418 460 1428 455 1428 446C1428 434 1409 425 1389 425C1357 425 1321 437 1282 472L1212 404C1241 369 1304 334 1379 334C1478 334 1539 383 1539 451C1539 525 1481 556 1413 572L1357 584C1342 588 1333 592 1333 600C1333 610 1345 618 1365 618C1398 618 1430 603 1453 584L1523 655C1478 693 1425 711 1369 711C1289 711 1221 667 1221 596C1221 538 1261 497 1346 477Z" glyph-name="numero_s" horiz-adv-x="1564" /><glyph d="M666 -17H680V700H532V293L84 718H70V0H219V405ZM760 522C760 414 847 334 961 334C1075 334 1162 414 1162 522C1162 631 1075 711 961 711C847 711 760 631 760 522ZM878 522C878 573 913 609 961 609C1010 609 1045 573 1045 522C1045 472 1010 436 961 436C913 436 878 472 878 522ZM1396 465C1418 460 1428 455 1428 446C1428 434 1409 425 1389 425C1357 425 1321 437 1282 472L1212 404C1241 369 1304 334 1379 334C1478 334 1539 383 1539 451C1539 525 1481 556 1413 572L1357 584C1342 588 1333 592 1333 600C1333 610 1345 618 1365 618C1398 618 1430 603 1453 584L1523 655C1478 693 1425 711 1369 711C1289 711 1221 667 1221 596C1221 538 1261 497 1346 477Z" glyph-name="numero_s.ss02" horiz-adv-x="1564" /><glyph d="M35 245C35 98 147 -11 294 -11C441 -11 553 98 553 245C553 392 441 502 294 502C147 502 35 392 35 245ZM180 245C180 317 228 369 294 369C360 369 408 317 408 245C408 173 360 121 294 121C228 121 180 173 180 245Z" glyph-name="o" horiz-adv-x="588" unicode="o" /><glyph d="M25 522C25 414 112 334 226 334C340 334 427 414 427 522C427 631 340 711 226 711C112 711 25 631 25 522ZM143 522C143 573 178 609 226 609C275 609 310 573 310 522C310 472 275 436 226 436C178 436 143 472 143 522Z" glyph-name="o.ordn" horiz-adv-x="452" /><glyph d="M35 245C35 98 147 -11 294 -11C441 -11 553 98 553 245C553 392 441 502 294 502C147 502 35 392 35 245ZM180 245C180 317 228 369 294 369C360 369 408 317 408 245C408 173 360 121 294 121C228 121 180 173 180 245ZM281 700 207 558H341L461 700Z" glyph-name="oacute" horiz-adv-x="588" unicode="&#243;" /><glyph d="M35 245C35 98 147 -11 294 -11C441 -11 553 98 553 245C553 392 441 502 294 502C147 502 35 392 35 245ZM180 245C180 317 228 369 294 369C360 369 408 317 408 245C408 173 360 121 294 121C228 121 180 173 180 245ZM294 552C378 552 439 608 435 700H339C336 680 326 660 294 660C262 660 252 680 250 700H154C150 608 211 552 294 552Z" glyph-name="obreve" horiz-adv-x="588" unicode="&#335;" /><glyph d="M35 245C35 98 147 -11 294 -11C441 -11 553 98 553 245C553 392 441 502 294 502C147 502 35 392 35 245ZM180 245C180 317 228 369 294 369C360 369 408 317 408 245C408 173 360 121 294 121C228 121 180 173 180 245ZM213 700 122 558H245L294 617L344 558H467L376 700Z" glyph-name="ocircumflex" horiz-adv-x="588" unicode="&#244;" /><glyph d="M35 245C35 98 147 -11 294 -11C441 -11 553 98 553 245C553 392 441 502 294 502C147 502 35 392 35 245ZM180 245C180 317 228 369 294 369C360 369 408 317 408 245C408 173 360 121 294 121C228 121 180 173 180 245ZM114 638C114 597 147 564 188 564C228 564 263 597 263 638C263 678 228 712 188 712C147 712 114 678 114 638ZM326 638C326 597 359 564 400 564C440 564 475 597 475 638C475 678 440 712 400 712C359 712 326 678 326 638Z" glyph-name="odieresis" horiz-adv-x="588" unicode="&#246;" /><glyph d="M35 245C35 98 147 -11 294 -11C441 -11 553 98 553 245C553 392 441 502 294 502C147 502 35 392 35 245ZM180 245C180 317 228 369 294 369C360 369 408 317 408 245C408 173 360 121 294 121C228 121 180 173 180 245ZM321 551H479V700H321ZM111 551H269V700H111Z" glyph-name="odieresis.ss03" horiz-adv-x="588" /><glyph d="M883 209C883 209 884 234 884 251C884 375 807 502 649 502C573 502 520 470 478 418C431 471 373 502 294 502C147 502 35 392 35 245C35 98 147 -11 294 -11C373 -11 432 18 478 72C524 18 585 -11 666 -11C770 -11 833 34 875 88L776 181C750 140 715 119 664 119C601 119 557 157 552 209ZM180 245C180 317 228 369 294 369C358 369 406 319 408 250V242C406 171 359 121 294 121C228 121 180 173 180 245ZM652 377C699 377 732 345 735 304H558C568 344 598 377 652 377Z" glyph-name="oe" horiz-adv-x="918" unicode="&#339;" /><glyph d="M606 161C707 161 787 230 787 331C787 432 711 502 606 502C548 502 497 477 464 434C419 477 357 502 288 502C146 502 35 397 35 250C35 103 146 0 288 0H779V130H512C520 144 526 160 531 177C553 167 578 161 606 161ZM180 250C180 318 226 367 288 367C350 367 396 318 396 250C396 182 350 133 288 133C226 133 180 182 180 250ZM601 287C573 287 555 308 555 331C555 354 573 375 601 375C629 375 647 354 647 331C647 308 629 287 601 287Z" glyph-name="oe.ss01" horiz-adv-x="827" /><glyph d="M233 5C199 -17 165 -56 165 -102C165 -159 207 -194 272 -194C299 -194 323 -191 334 -189V-106H330C293 -106 273 -94 273 -71C273 -47 287 -28 334 0Z" glyph-name="ogonek" horiz-adv-x="500" unicode="&#731;" /><glyph d="M233 5C199 -17 165 -56 165 -102C165 -159 207 -194 272 -194C299 -194 323 -191 334 -189V-106H330C293 -106 273 -94 273 -71C273 -47 287 -28 334 0Z" glyph-name="ogonek.cap" horiz-adv-x="500" /><glyph d="M35 245C35 98 147 -11 294 -11C441 -11 553 98 553 245C553 392 441 502 294 502C147 502 35 392 35 245ZM180 245C180 317 228 369 294 369C360 369 408 317 408 245C408 173 360 121 294 121C228 121 180 173 180 245ZM127 700 247 558H381L307 700Z" glyph-name="ograve" horiz-adv-x="588" unicode="&#242;" /><glyph d="M35 245C35 98 147 -11 294 -11C441 -11 553 98 553 245C553 392 441 502 294 502C147 502 35 392 35 245ZM180 245C180 317 228 369 294 369C360 369 408 317 408 245C408 173 360 121 294 121C228 121 180 173 180 245ZM200 700 126 569H254L340 700ZM385 700 311 569H440L526 700Z" glyph-name="ohungarumlaut" horiz-adv-x="588" unicode="&#337;" /><glyph d="M35 245C35 98 147 -11 294 -11C441 -11 553 98 553 245C553 392 441 502 294 502C147 502 35 392 35 245ZM180 245C180 317 228 369 294 369C360 369 408 317 408 245C408 173 360 121 294 121C228 121 180 173 180 245ZM169 700V583H419V700Z" glyph-name="omacron" horiz-adv-x="588" unicode="&#333;" /><glyph d="M60 137V0H544V137H379V700H245C212 632 131 607 60 604V471C128 471 192 489 231 515V137Z" glyph-name="one" horiz-adv-x="570" unicode="1" /><glyph d="M61 137V0H520V137H369V547H234C201 479 132 454 61 451V318C129 318 182 336 221 363V137Z" glyph-name="one.osf" horiz-adv-x="545" /><glyph d="M61 136V0H508V136H357V547H72V411H210V136Z" glyph-name="one.osf.ss01" horiz-adv-x="545" /><glyph d="M158 0H305V571H295L40 365V214L158 299Z" glyph-name="one.osf.ss02" horiz-adv-x="385" /><glyph d="M174 0H323V547H205C176 477 131 446 30 441V331H174Z" glyph-name="one.osf.ss03" horiz-adv-x="433" /><glyph d="M57 136V0H505V136H354V700H68V564H207V136Z" glyph-name="one.ss01" horiz-adv-x="534" /><glyph d="M158 0H305V711H295L40 505V354L158 439Z" glyph-name="one.ss02" horiz-adv-x="385" /><glyph d="M174 0H323V700H205C176 630 131 599 30 594V484H174Z" glyph-name="one.ss03" horiz-adv-x="433" /><glyph d="M58 137V0H542V137H377V700H243C210 632 129 607 58 604V471C126 471 190 489 229 515V137Z" glyph-name="one.tf" horiz-adv-x="600" /><glyph d="M76 136V0H524V136H373V700H87V564H226V136Z" glyph-name="one.tf.ss01" horiz-adv-x="600" /><glyph d="M61 137V0H538V137H373V711H363L108 505V354L226 439V137Z" glyph-name="one.tf.ss02" horiz-adv-x="600" /><glyph d="M225 484V137H61V0H538V137H374V700H256C227 630 182 599 81 594V484Z" glyph-name="one.tf.ss03" horiz-adv-x="600" /><glyph d="M70 137V0H529V137H378V547H243C210 479 141 454 70 451V318C138 318 191 336 230 363V137Z" glyph-name="one.to" horiz-adv-x="600" /><glyph d="M76 136V0H523V136H372V547H87V411H225V136Z" glyph-name="one.to.ss01" horiz-adv-x="600" /><glyph d="M136 136V0H583V136H432V571H422L167 365V214L285 299V136Z" glyph-name="one.to.ss02" horiz-adv-x="600" /><glyph d="M148 136V0H595V136H446V547H328C299 477 254 446 153 441V331H297V136Z" glyph-name="one.to.ss03" horiz-adv-x="600" /><glyph d="M32 409V308H340V409H245V700H139C120 662 74 648 32 646V548C72 548 107 557 130 570V409ZM200 0H333L764 700H631ZM746 399C674 399 608 360 584 314L657 244C676 277 708 298 743 298C769 298 785 286 785 270C785 256 779 247 742 230L717 219C620 176 585 111 584 13V0H899V101H718C723 115 732 120 784 145L803 154C866 184 901 216 901 282C901 360 821 399 746 399Z" glyph-name="onehalf" horiz-adv-x="930" unicode="&#189;" /><glyph d="M148 0H281L712 700H579ZM552 84V0H821V101H712L759 149C806 197 823 226 823 279C823 343 769 399 686 399C596 399 543 342 543 276C543 232 562 184 616 157ZM29 408V308H287V408H214V700H35V600H99V408ZM707 273C707 255 693 247 682 247C667 247 657 257 657 272C657 290 671 298 682 298C697 298 707 288 707 273Z" glyph-name="onehalf.ss01" horiz-adv-x="848" /><glyph d="M91 308H206V706H200L20 571V458L91 502ZM100 0H233L664 700H531ZM489 10V0H805V101H704L742 146C775 185 793 225 793 269C793 349 730 399 640 399C575 399 512 366 481 315L550 248C583 286 607 298 634 298C660 298 678 280 678 256C678 235 667 212 639 181Z" glyph-name="onehalf.ss02" horiz-adv-x="835" /><glyph d="M120 0H253L684 700H551ZM113 308H227V700H138C119 667 89 636 30 633V550H113ZM662 298C678 298 688 287 688 273C688 258 677 246 660 235L641 223C535 156 513 98 513 13V0H802V101H656C661 115 667 123 682 132L730 162C784 194 804 239 804 282C804 345 749 399 660 399C583 399 519 344 517 258H633C632 286 645 298 662 298Z" glyph-name="onehalf.ss03" horiz-adv-x="809" /><glyph d="M32 101V0H340V101H245V392H139C120 354 74 340 32 338V240C72 240 107 249 130 262V101Z" glyph-name="oneinferior" horiz-adv-x="352" unicode="&#8321;" /><glyph d="M29 100V0H287V100H214V392H35V292H99V100Z" glyph-name="oneinferior.ss01" horiz-adv-x="302" /><glyph d="M91 0H206V398H200L20 263V150L91 194Z" glyph-name="oneinferior.ss02" horiz-adv-x="244" /><glyph d="M113 1H227V393H138C119 360 89 329 30 326V243H113Z" glyph-name="oneinferior.ss03" horiz-adv-x="272" /><glyph d="M32 409V308H340V409H245V700H139C120 662 74 648 32 646V548C72 548 107 557 130 570V409ZM878 72V167H820V392H689L524 161V72H705V0H820V72ZM643 167 705 261V167ZM200 0H333L764 700H631Z" glyph-name="onequarter" horiz-adv-x="899" unicode="&#188;" /><glyph d="M148 0H281L712 700H579ZM29 408V308H287V408H214V700H35V600H99V408ZM781 231H666V167H615V190L767 392H638L500 208V72H666V0H781V72H851V167H781Z" glyph-name="onequarter.ss01" horiz-adv-x="872" /><glyph d="M666 396 389 82V72H607V0H717V72H774V167H717V396ZM577 167 607 203V167ZM91 308H206V706H200L20 571V458L91 502ZM100 0H233L664 700H531Z" glyph-name="onequarter.ss02" horiz-adv-x="795" /><glyph d="M798 73V168H741V393H610L445 162V73H626V1H741V73ZM561 168 626 266V168ZM120 0H253L684 700H551ZM113 308H227V700H138C119 667 89 636 30 633V550H113Z" glyph-name="onequarter.ss03" horiz-adv-x="828" /><glyph d="M32 409V308H340V409H245V700H139C120 662 74 648 32 646V548C72 548 107 557 130 570V409Z" glyph-name="onesuperior" horiz-adv-x="352" unicode="&#185;" /><glyph d="M29 408V308H287V408H214V700H35V600H99V408Z" glyph-name="onesuperior.ss01" horiz-adv-x="312" /><glyph d="M91 308H206V706H200L20 571V458L91 502Z" glyph-name="onesuperior.ss02" horiz-adv-x="244" /><glyph d="M113 308H227V700H138C119 667 89 636 30 633V550H113Z" glyph-name="onesuperior.ss03" horiz-adv-x="272" /><glyph d="M161 334C204 334 237 349 255 364V342H369V567C369 658 294 711 202 711C151 711 95 700 41 639L113 573C136 604 167 614 194 614C231 614 253 590 253 558V556C233 561 207 565 181 565C103 565 30 529 30 448C30 384 78 334 161 334ZM145 456C145 476 166 491 208 491C223 491 239 489 253 485V445C236 434 214 426 190 426C164 426 145 438 145 456Z" glyph-name="ordfeminine" horiz-adv-x="413" unicode="&#170;" /><glyph d="M61 602H252V572H176C95 572 37 529 37 459C37 390 91 342 176 342H367V703H61ZM252 478V441H171C156 441 145 447 145 459C145 472 156 478 171 478Z" glyph-name="ordfeminine.ss01" horiz-adv-x="414" /><glyph d="M31 523C31 414 113 334 219 334C272 334 305 352 324 368V343H439V704H324V679C305 695 272 712 219 712C113 712 31 633 31 523ZM146 523C146 574 183 614 233 614C290 614 324 574 324 523C324 473 290 433 233 433C182 433 146 473 146 523Z" glyph-name="ordfeminine.ss02" horiz-adv-x="491" /><glyph d="M161 334C204 334 249 347 277 375C287 351 305 340 347 340C365 340 397 343 397 343V422C397 422 388 421 387 421C365 421 360 428 360 454V577C360 666 288 711 202 711C115 711 51 669 40 585H153C156 609 175 623 200 623C228 623 247 606 247 579V566L166 556C80 546 28 510 28 445C28 379 79 334 161 334ZM137 453C137 473 153 485 184 489L247 499V482C247 446 219 421 179 421C151 421 137 436 137 453Z" glyph-name="ordfeminine.ss03" horiz-adv-x="410" /><glyph d="M25 522C25 414 112 334 226 334C340 334 427 414 427 522C427 631 340 711 226 711C112 711 25 631 25 522ZM143 522C143 573 178 609 226 609C275 609 310 573 310 522C310 472 275 436 226 436C178 436 143 472 143 522Z" glyph-name="ordmasculine" horiz-adv-x="452" unicode="&#186;" /><glyph d="M35 245C35 179 57 121 95 77L61 29L161 -43L196 6C226 -5 259 -11 294 -11C441 -11 553 98 553 245C553 314 528 375 486 420L517 464L416 537L382 488C354 497 325 502 294 502C147 502 35 392 35 245ZM408 245C408 173 360 121 294 121C288 121 282 121 277 122L399 296C405 280 408 263 408 245ZM180 245C180 317 228 369 294 369H299L185 206C181 218 180 231 180 245Z" glyph-name="oslash" horiz-adv-x="588" unicode="&#248;" /><glyph d="M35 245C35 179 57 121 95 77L61 29L161 -43L196 6C226 -5 259 -11 294 -11C441 -11 553 98 553 245C553 314 528 375 486 420L517 464L416 537L382 488C354 497 325 502 294 502C147 502 35 392 35 245ZM281 700 207 558H341L461 700ZM408 245C408 173 360 121 294 121C288 121 282 121 277 122L399 296C405 280 408 263 408 245ZM180 245C180 317 228 369 294 369H299L185 206C181 218 180 231 180 245Z" glyph-name="oslashacute" horiz-adv-x="588" unicode="&#511;" /><glyph d="M35 245C35 98 147 -11 294 -11C441 -11 553 98 553 245C553 392 441 502 294 502C147 502 35 392 35 245ZM180 245C180 317 228 369 294 369C360 369 408 317 408 245C408 173 360 121 294 121C228 121 180 173 180 245ZM368 700C367 680 352 674 341 674C331 674 321 677 311 680L270 693C261 695 245 700 227 700C165 700 130 640 130 575H221C222 596 237 601 248 601C257 601 268 599 278 596L319 583C328 581 344 575 362 575C424 575 459 636 459 700Z" glyph-name="otilde" horiz-adv-x="588" unicode="&#245;" /><glyph d="M576 245C576 404 466 502 331 502C276 502 229 480 203 455V490H63V-194H205V31C230 9 275 -11 331 -11C466 -11 576 90 576 245ZM203 245C203 321 252 373 317 373C382 373 431 321 431 245C431 169 382 117 317 117C252 117 203 169 203 245Z" glyph-name="p" horiz-adv-x="611" unicode="p" /><glyph d="M291 700C133 700 34 612 34 478C34 343 133 257 291 257H315V-194H459V567H552V-194H697V700Z" glyph-name="paragraph" horiz-adv-x="767" unicode="&#182;" /></font>
</defs>
</svg>
