<?xml version="1.0" encoding="UTF-8" standalone="no"?>
<svg width="122px" height="34px" viewBox="0 0 122 34" version="1.1" xmlns="http://www.w3.org/2000/svg" xmlns:xlink="http://www.w3.org/1999/xlink" xmlns:sketch="http://www.bohemiancoding.com/sketch/ns">
    <!-- Generator: Sketch 3.5 (25232) - http://www.bohemiancoding.com/sketch -->
    <title>Slice 1</title>
    <desc>Created with Sketch.</desc>
    <defs></defs>
    <g id="Page-1" stroke="none" stroke-width="1" fill="none" fill-rule="evenodd" sketch:type="MSPage">
        <g id="erudit-logo" sketch:type="MSLayerGroup">
            <path d="M28.7058824,10.672017 L32.8902023,10.672017 L32.8902023,13.1137203 L32.9775525,13.1137203 C33.7030449,11.2691692 35.24138,10.0689655 37.0320602,10.0689655 C38.0159638,10.0689655 38.868842,10.3468936 39.4705882,10.7618193 L37.888578,15.5154385 C37.4603191,15.1457417 36.6517227,14.8691246 36.2210374,14.8691246 C34.6008115,14.8691246 33.1498266,16.2056703 33.1498266,18.2350698 L33.1498266,33 L28.7058824,33 L28.7058824,10.672017" id="Fill-1" fill="#FFFFFF" sketch:type="MSShapeGroup"></path>
            <path d="M44.254902,10.0689655 L49.0350281,10.0689655 L49.0350281,22.5667332 C49.0350281,25.8463404 51.4254177,28.1985607 54.414711,28.1985607 C57.4040042,28.1985607 59.7950469,25.8463404 59.7950469,22.5667332 L59.7950469,10.0689655 L64.5882353,10.0689655 L64.5882353,22.9829104 C64.5882353,29.2589932 59.7029581,33 54.414711,33 C49.1258106,33 44.254902,29.2589932 44.254902,22.9829104 L44.254902,10.0689655" id="Fill-2" fill="#FFFFFF" sketch:type="MSShapeGroup"></path>
            <path d="M81.607923,28.4068352 C85.4093769,28.4068352 88.653091,25.1279034 88.653091,21.0568403 C88.653091,16.985112 85.4093769,13.7081756 81.607923,13.7081756 C77.7142808,13.7081756 74.4699082,16.985112 74.4699082,21.0568403 C74.4699082,25.1279034 77.7142808,28.4068352 81.607923,28.4068352 M88.4720067,29.6219687 L88.3752089,29.6219687 C86.8435647,31.6831065 84.0660604,33 81.0067231,33 C73.6362618,33 69.372549,26.9070398 69.372549,21.0568403 C69.372549,15.4853167 73.9622136,9.11767113 81.2352186,9.11767113 C84.5790229,9.11767113 87.1240808,10.5689144 88.3752089,12.4903817 L88.4720067,12.4903817 L88.4720067,1.62068966 L93.2941176,1.62068966 L93.2941176,32.3847846 L88.4720067,32.3847846 L88.4720067,29.6219687" id="Fill-3" fill="#FFFFFF" sketch:type="MSShapeGroup"></path>
            <path d="M99.2745098,11.2758621 L104.058824,11.2758621 L104.058824,33 L99.2745098,33 L99.2745098,11.2758621 Z" id="Fill-4" fill="#FFFFFF" sketch:type="MSShapeGroup"></path>
            <path d="M113.615334,15.0194965 L110.039216,15.0194965 L110.039216,10.4603507 L113.615334,10.4603507 L113.615334,2.82758621 L118.517602,2.87655236 L118.517602,10.4603507 L122,10.4603507 L122,15.0194965 L118.517602,15.0194965 L118.517602,33 L113.615334,33 L113.615334,15.0194965" id="Fill-5" fill="#FFFFFF" sketch:type="MSShapeGroup"></path>
            <path d="M101.765164,8.86206897 C99.6711531,8.86206897 98.2745098,7.19670569 98.2745098,5.20994526 C98.2745098,3.22126029 99.7340878,1.62068966 101.894848,1.62068966 C104.05243,1.62068966 105.45098,3.22126029 105.45098,5.20994526 C105.45098,7.19670569 104.05243,8.86206897 101.831278,8.86206897 L101.765164,8.86206897" id="Fill-6" fill="#FFFFFF" sketch:type="MSShapeGroup"></path>
            <path d="M11.3672038,15.2442702 C14.5450016,15.2442702 17.2342505,17.3884508 18.0903259,20.3193451 L4.63580127,20.3193451 C5.49251365,17.3884508 8.17794071,15.2442702 11.3672038,15.2442702 M0,22.3259794 C0,28.6588964 5.08868045,33.7931034 11.3672038,33.7931034 C11.5850444,33.7931034 11.8054329,33.7841051 12.0226366,33.774464 L12.0226366,29.3710523 C11.8054329,29.3929055 11.5863184,29.4044748 11.3672038,29.4044748 C8.17794071,29.4044748 5.49251365,27.2615797 4.63580127,24.3319709 L18.0903259,24.3319709 L22.5560586,24.3281144 C22.6726224,23.6654495 22.7254902,23.0175676 22.7254902,22.3259794 C22.7254902,15.993705 17.6393576,10.862069 11.3672038,10.862069 C5.08868045,10.862069 0,15.993705 0,22.3259794 Z" id="Fill-7" fill="#FFFFFF" sketch:type="MSShapeGroup"></path>
            <path d="M18.1959022,0 C17.3553933,2.81117577 14.9151439,4.90248903 11.9607843,5.1331632 L11.9607843,9.65517241 C17.3553933,9.38870397 21.7720964,5.32274025 22.7254902,0 L18.1959022,0 Z" id="Fill-8" fill="#FFFFFF" sketch:type="MSShapeGroup"></path>
        </g>
    </g>
</svg>