<?xml version="1.0" encoding="UTF-8"?>
<svg width="10px" height="15px" viewBox="0 0 10 15" version="1.1" xmlns="http://www.w3.org/2000/svg" xmlns:xlink="http://www.w3.org/1999/xlink">
    <!-- Generator: Sketch 42 (36781) - http://www.bohemiancoding.com/sketch -->
    <title>OA</title>
    <desc>Created with Sketch.</desc>
    <defs></defs>
    <g id="Page-1" stroke="none" stroke-width="1" fill="none" fill-rule="evenodd">
        <g id="open-access" fill-rule="nonzero" fill="#333333">
            <g id="OA">
                <path d="M2.34530606,4.02239923 C2.34530606,2.70253471 3.4435919,1.6260097 4.80631527,1.6260097 C6.16903864,1.6260097 7.26732447,2.70253471 7.26732447,4.02239923 L7.26732447,7.97114284 L8.8681161,7.97114284 L8.8681161,4.02239923 C8.8681161,1.81119217 7.0460404,0.0252180758 4.80631527,0.0252180758 C2.56659013,0.0252180758 0.744514436,1.81119217 0.744514436,4.02239923 L0.744514436,4.568307 L2.34530606,4.568307 L2.34530606,4.02239923 Z" id="Shape"></path>
                <path d="M9.58958173,10.2615352 C9.58958173,7.65480185 7.44035268,5.54819672 4.7970709,5.54819672 C2.15378913,5.54819672 0.00456008056,7.65480185 0.00456008056,10.2615352 C0.00456008056,12.8682685 2.15378913,14.9748736 4.7970709,14.9748736 C7.44035268,14.9748736 9.58958173,12.8682685 9.58958173,10.2615352 Z M1.60535171,10.2615352 C1.60535171,8.54615139 3.0307842,7.14898834 4.7970709,7.14898834 C6.56335761,7.14898834 7.9887901,8.54615139 7.9887901,10.2615352 C7.9887901,11.9769189 6.56335761,13.374082 4.7970709,13.374082 C3.0307842,13.374082 1.60535171,11.9769189 1.60535171,10.2615352 Z" id="Oval"></path>
                <ellipse id="Oval" cx="4.81275358" cy="10.2757455" rx="1.34734953" ry="1.32062864"></ellipse>
            </g>
        </g>
    </g>
</svg>