<?xml version="1.0" encoding="UTF-8" standalone="no"?>
<svg width="14px" height="15px" viewBox="0 0 14 15" version="1.1" xmlns="http://www.w3.org/2000/svg" xmlns:xlink="http://www.w3.org/1999/xlink" xmlns:sketch="http://www.bohemiancoding.com/sketch/ns">
    <!-- Generator: Sketch 3.5 (25232) - http://www.bohemiancoding.com/sketch -->
    <title>Shape</title>
    <desc>Created with Sketch.</desc>
    <defs></defs>
    <g id="Page-1" stroke="none" stroke-width="1" fill="none" fill-rule="evenodd" sketch:type="MSPage">
        <g id="Interaction-&amp;-states---Article-metadata-+-end-of-article" sketch:type="MSArtboardGroup" transform="translate(-985.000000, -3447.000000)" fill="#FFFFFF">
            <g id="Liminaire-de-l'article" sketch:type="MSLayerGroup" transform="translate(25.000000, 687.000000)">
                <g id="Boîte-à-outils" transform="translate(0.000000, 2374.000000)" sketch:type="MSShapeGroup">
                    <g id="Boîte-à-outils---Etc.-clicked" transform="translate(940.000000, 123.720930)">
                        <g id="Etc." transform="translate(0.000000, 147.131783)">
                            <g id="Etc.-Hover-/-click">
                                <g id="Mode-zen" transform="translate(0.000000, 98.759690)">
                                    <g id="Group-3" transform="translate(20.000000, 17.131783)">
                                        <path d="M2,9.06976744 L0,9.06976744 L0,14.1085271 L5,14.1085271 L5,12.0930233 L2,12.0930233 L2,9.06976744 L2,9.06976744 Z M0,5.03875969 L2,5.03875969 L2,2.01550388 L5,2.01550388 L5,0 L0,0 L0,5.03875969 L0,5.03875969 Z M12,12.0930233 L9,12.0930233 L9,14.1085271 L14,14.1085271 L14,9.06976744 L12,9.06976744 L12,12.0930233 L12,12.0930233 Z M9,0 L9,2.01550388 L12,2.01550388 L12,5.03875969 L14,5.03875969 L14,0 L9,0 L9,0 Z" id="Shape"></path>
                                    </g>
                                </g>
                            </g>
                        </g>
                    </g>
                </g>
            </g>
        </g>
    </g>
</svg>