<?xml version="1.0" encoding="UTF-8" standalone="no"?>
<svg width="14px" height="23px" viewBox="0 0 14 23" version="1.1" xmlns="http://www.w3.org/2000/svg" xmlns:xlink="http://www.w3.org/1999/xlink" xmlns:sketch="http://www.bohemiancoding.com/sketch/ns">
    <!-- Generator: Sketch 3.5.2 (25235) - http://www.bohemiancoding.com/sketch -->
    <title>Shape</title>
    <desc>Created with Sketch.</desc>
    <defs></defs>
    <g id="Page-1" stroke="none" stroke-width="1" fill="none" fill-rule="evenodd" sketch:type="MSPage">
        <path d="M1,2.5891471 L12.9465277,2.5891471 L11.9465277,1.5891471 L11.9465277,19.5586765 L13.6563593,18.8543051 L7.7674443,12.9197396 L7.0576127,12.2044054 L6.347781,12.9197396 L0.2901684,19.0243106 L2,19.728682 L2,1.5891471 L1,2.5891471 L1,2.5891471 L1,2.5891471 Z M1,0.5891471 L0,0.5891471 L0,1.5891471 L0,19.728682 L0,22.1561395 L1.7098316,20.4330533 L7.7674443,14.3284824 L6.347781,14.3284824 L12.236696,20.2630479 L13.9465277,21.9861341 L13.9465277,19.5586765 L13.9465277,1.5891471 L13.9465277,0.5891471 L12.9465277,0.5891471 L1,0.5891471 L1,0.5891471 L1,0.5891471 Z" id="Shape" fill="#FFFFFF" sketch:type="MSShapeGroup"></path>
    </g>
</svg>