<?xml version="1.0" encoding="UTF-8" standalone="no"?>
<svg width="15px" height="4px" viewBox="0 0 15 4" version="1.1" xmlns="http://www.w3.org/2000/svg" xmlns:xlink="http://www.w3.org/1999/xlink" xmlns:sketch="http://www.bohemiancoding.com/sketch/ns">
    <!-- Generator: Sketch 3.5 (25232) - http://www.bohemiancoding.com/sketch -->
    <title>... copy 11</title>
    <desc>Created with Sketch.</desc>
    <defs></defs>
    <g id="Page-1" stroke="none" stroke-width="1" fill="none" fill-rule="evenodd" sketch:type="MSPage">
        <g id="Interaction-&amp;-states---Article-metadata-+-end-of-article" sketch:type="MSArtboardGroup" transform="translate(-127.000000, -3355.000000)" fill="#FFFFFF">
            <g id="Liminaire-de-l'article" sketch:type="MSLayerGroup" transform="translate(25.000000, 687.000000)">
                <g id="Boîte-à-outils" transform="translate(0.000000, 2374.000000)" sketch:type="MSShapeGroup">
                    <g transform="translate(85.000000, 123.720930)" id="Etc.">
                        <g transform="translate(0.000000, 147.131783)">
                            <path d="M20.72,25.0406202 C20.72,25.5404676 20.5440018,25.9798431 20.192,26.3587597 C19.8399982,26.7376763 19.4000026,26.9271318 18.872,26.9271318 C18.3439974,26.9271318 17.9000018,26.7417073 17.54,26.3708527 C17.1799982,25.9999981 17,25.5565917 17,25.0406202 C17,24.5246486 17.1799982,24.0852731 17.54,23.7224806 C17.9000018,23.3596881 18.3439974,23.1782946 18.872,23.1782946 C19.4000026,23.1782946 19.8399982,23.3596881 20.192,23.7224806 C20.5440018,24.0852731 20.72,24.5246486 20.72,25.0406202 L20.72,25.0406202 Z M26.312,25.0406202 C26.312,25.5404676 26.1360018,25.9798431 25.784,26.3587597 C25.4319982,26.7376763 24.9920026,26.9271318 24.464,26.9271318 C23.9359974,26.9271318 23.4920018,26.7417073 23.132,26.3708527 C22.7719982,25.9999981 22.592,25.5565917 22.592,25.0406202 C22.592,24.5246486 22.7719982,24.0852731 23.132,23.7224806 C23.4920018,23.3596881 23.9359974,23.1782946 24.464,23.1782946 C24.9920026,23.1782946 25.4319982,23.3596881 25.784,23.7224806 C26.1360018,24.0852731 26.312,24.5246486 26.312,25.0406202 L26.312,25.0406202 Z M31.904,25.0406202 C31.904,25.5404676 31.7280018,25.9798431 31.376,26.3587597 C31.0239982,26.7376763 30.5840026,26.9271318 30.056,26.9271318 C29.5279974,26.9271318 29.0840018,26.7417073 28.724,26.3708527 C28.3639982,25.9999981 28.184,25.5565917 28.184,25.0406202 C28.184,24.5246486 28.3639982,24.0852731 28.724,23.7224806 C29.0840018,23.3596881 29.5279974,23.1782946 30.056,23.1782946 C30.5840026,23.1782946 31.0239982,23.3596881 31.376,23.7224806 C31.7280018,24.0852731 31.904,24.5246486 31.904,25.0406202 L31.904,25.0406202 Z" id="...-copy-11"></path>
                        </g>
                    </g>
                </g>
            </g>
        </g>
    </g>
</svg>