<?xml version="1.0" encoding="UTF-8" standalone="no"?>
<svg width="38px" height="10px" viewBox="0 0 38 10" version="1.1" xmlns="http://www.w3.org/2000/svg" xmlns:xlink="http://www.w3.org/1999/xlink">
    <!-- Generator: Sketch 40.3 (33839) - http://www.bohemiancoding.com/sketch -->
    <title>HTML</title>
    <defs></defs>
    <g id="Page-1" stroke="none" stroke-width="1" fill="none" fill-rule="evenodd">
        <path d="M7.154,10 L9.226,10 L9.226,0.186 L7.154,0.186 L7.154,4.036 L3.038,4.036 L3.038,0.186 L0.952,0.186 L0.952,10 L3.038,10 L3.038,5.94 L7.154,5.94 L7.154,10 Z M10.57,0.186 L10.57,2.104 L13.384,2.104 L13.384,10 L15.456,10 L15.456,2.104 L18.27,2.104 L18.27,0.186 L10.57,0.186 Z M23.562,8.012 L25.41,8.012 L27.286,4.428 L27.286,10 L29.358,10 L29.358,0.186 L27.286,0.186 L24.486,5.688 L21.7,0.186 L19.614,0.186 L19.614,10 L21.7,10 L21.7,4.428 L23.562,8.012 Z M31.416,10 L37.982,10 L37.982,8.082 L33.502,8.082 L33.502,0.186 L31.416,0.186 L31.416,10 Z" id="HTML" fill="#FFFFFF"></path>
    </g>
</svg>
