<?xml version="1.0" encoding="UTF-8" standalone="no"?>
<svg width="28px" height="10px" viewBox="0 0 28 10" version="1.1" xmlns="http://www.w3.org/2000/svg" xmlns:xlink="http://www.w3.org/1999/xlink" xmlns:sketch="http://www.bohemiancoding.com/sketch/ns">
    <!-- Generator: Sketch 3.5.2 (25235) - http://www.bohemiancoding.com/sketch -->
    <title>PDF</title>
    <desc>Created with Sketch.</desc>
    <defs></defs>
    <g id="Page-1" stroke="none" stroke-width="1" fill="none" fill-rule="evenodd" sketch:type="MSPage">
        <path d="M4.928,6.736961 C7.21,6.736961 8.764,5.364961 8.764,3.320961 C8.764,1.276961 7.21,0.030961 4.928,0.030961 L0.952,0.030961 L0.952,9.844961 L3.038,9.844961 L3.038,6.736961 L4.928,6.736961 L4.928,6.736961 Z M4.564,1.948961 C5.978,1.948961 6.692,2.368961 6.692,3.362961 C6.692,4.342961 5.964,4.818961 4.564,4.818961 L3.038,4.818961 L3.038,1.948961 L4.564,1.948961 L4.564,1.948961 Z M10.108,9.844961 L13.342,9.844961 C15.988,9.844961 18.816,8.444961 18.816,4.874961 C18.816,1.318961 15.988,0.030961 13.342,0.030961 L10.108,0.030961 L10.108,9.844961 L10.108,9.844961 Z M13.02,1.948961 C15.12,1.948961 16.702,2.676961 16.702,4.874961 C16.702,7.156961 15.12,7.926961 13.034,7.926961 L12.194,7.926961 L12.194,1.948961 L13.02,1.948961 L13.02,1.948961 Z M22.414,9.844961 L22.414,5.980961 L26.768,5.980961 L26.768,4.076961 L22.414,4.076961 L22.414,1.948961 L27.09,1.948961 L27.09,0.030961 L20.328,0.030961 L20.328,9.844961 L22.414,9.844961 L22.414,9.844961 Z" id="PDF" fill="#FFFFFF" sketch:type="MSShapeGroup"></path>
    </g>
</svg>